<svg xmlns="http://www.w3.org/2000/svg" viewBox="0 0 80.77 61.16"><path d="m 80.86,8.66 -0.288,0.046 -0.408,-0.168 -0.16,-0.256 -0.068,-0.036 -0.324,0.168 -0.618,0.212 -1.048,0.554 0.024,0.142 0.682,0.562 0.16,0.186 0.084,0.058 -0.618,0.27 -1.328,0.608 -0.874,0.496 -0.208,0.018 -0.528,-0.208 -0.78,-0.248 -0.208,0.004 -1.8,0.042 -1.654,0.092 -0.688,0.12 -1.278,0.114 -0.804,0.04 -0.514,0.192 -0.562,0.252 -0.584,0.164 -0.434,0.054 -0.522,0.236 -0.344,0.468 -0.982,0.692 -0.552,0.334 -0.278,0.378 -0.316,0.036 -0.54,-0.068 -0.418,0.408 -0.462,0.584 -0.846,0.846 -0.45,0.342 -0.268,0.552 0.198,0.286 0.688,0.428 0.308,0.404 0.168,0.32 0.314,0.82 0.2,0.806 0.296,0.348 0.086,0.59 0.076,0.362 -0.162,0.258 -0.148,0.286 0,0.272 0.178,0.28 0.156,0.248 0.086,0.198 -0.106,0.22 -0.314,0.336 -0.16,0.344 -0.348,0.574 -0.544,0.392 -0.36,0.284 -0.382,0.6 -0.632,0.666 -0.266,0.556 -0.278,0.306 -0.286,0.164 0.074,0.3 0.248,0.374 0.41,0.418 -0.018,0.65 -0.02,0.468 0.014,0.566 -0.224,0.476 -1.14,0.456 -1.092,0.2 -1.338,0.012 -0.506,-0.072 -0.404,-0.1 -1.452,-0.512 -0.59,0.302 -0.122,0.738 1.06,1.196 0.434,0.666 0.482,1.112 0.36,0.572 -0.128,0.536 -0.96,0.608 -0.954,0.57 -1.216,0.118 -0.764,0.204 -0.37,0.294 -0.272,1.246 -0.274,0.456 0.006,0.542 -0.258,0.614 -0.39,0.394 -0.274,0.644 0.086,1.218 0.128,2.06 -0.518,0.648 -0.584,0.656 -0.616,0.468 -0.586,0.216 -0.486,-0.08 -0.384,-0.404 -0.228,-0.34 -0.424,-0.284 -0.432,0.058 -0.434,0.26 -0.694,-0.086 -0.592,-0.26 -0.3,0.028 -0.172,0.262 -0.634,0.56 -1.556,0.85 -0.636,0.062 -0.272,0.212 0.108,0.348 0.278,0.284 0.486,0.2 0.024,0.232 -0.428,0.202 -0.366,0.23 -0.806,0.282 -0.93,0.11 -0.96,-0.164 -0.494,-0.374 -0.584,-0.036 -0.532,0.274 -0.55,0.452 -0.6,0.968 -0.16,0.17 -0.162,0.154 -0.392,0.208 -0.562,0.34 -0.282,0.712 -0.338,1.266 0.08,0.68 0.026,1.178 -0.132,0.826 -0.244,0.542 0.048,0.426 0.372,0.484 -0.15,0.314 -0.312,0.348 -0.302,0.194 -1.21,0.366 -1.658,0.498 -1.096,0.32 -1.63,0.476 -0.476,0.116 -0.992,0.042 -0.514,-0.072 -0.696,-0.02 -1.024,0.018 -0.714,0.13 -0.716,0.238 -0.528,0.3 -0.304,0.296 -0.108,0.142 -0.718,-0.244 -2.262,-0.436 -6.126,0.576 -0.578,-0.11 -2.09,-0.674 -2.694,-0.868 -1.666,-0.538 -2.138,-0.704 1.464,-1.74 1.276,-1.52 1.28,-1.528 1.26,-1.51 0.15,-0.53 0.02,-1.038 -0.332,-1.39 -0.534,-0.634 -1.762,-0.256 -1.322,-0.194 -1.442,-0.21 -0.184,-0.078 -0.164,-1.086 0.07,-0.484 -0.094,-0.938 0.014,-0.724 0.208,-1.19 0.012,-0.538 -0.666,-2.322 -0.372,-1.29 -0.38,-1.334 -0.082,-0.426 -0.008,-0.526 0.884,-1.24 0.274,-0.27 0.518,-0.618 0.324,-0.33 -0.056,-0.226 -0.564,-0.13 -0.852,-0.012 -0.454,-0.188 -0.354,-0.338 -0.14,-0.492 0.232,-0.874 -0.232,-1.702 0.474,-0.844 0.408,-0.59 1.384,-0.084 -0.48,-0.668 -0.232,-0.388 -0.148,-0.112 -0.056,-0.178 0.074,-0.18 0.354,-0.068 0.24,-0.224 0.39,-0.314 0.204,-0.136 0.036,-0.382 0.186,-0.268 0.28,-0.338 0.222,-0.384 -0.056,-0.45 0.204,-0.54 0.094,-0.34 0.148,-0.294 -0.13,-0.428 -0.112,-0.362 -0.036,-0.43 0.222,-0.114 0.28,-0.158 0.054,-0.34 0.148,-0.43 0.112,-0.342 0.186,-0.27 0.02,-0.274 -0.112,-0.454 0.462,-0.068 0.186,0.25 0.248,0.324 0.678,0.604 0.44,0.176 0.554,0.088 0.682,-0.082 0.544,-0.114 0.256,0.03 0.594,0.438 0.694,0.614 0.222,0.274 0.104,0.418 0.204,0.124 0.444,-0.414 0.428,-0.136 0.394,0.078 0.434,0.046 0.436,-0.152 0.194,-0.11 0.758,-0.536 0.688,-0.408 0.428,-0.25 0.154,-0.84 0.198,-0.478 0.282,-0.278 -0.104,-0.346 -0.118,-0.264 -0.12,-0.358 0.12,-0.19 0.274,-0.084 0.688,0 1.21,-0.378 1.008,-0.378 0.932,-0.308 0.424,-0.05 0.402,0.052 0.184,-0.09 0.05,-0.294 0.228,-0.31 0.518,-0.252 0.974,-0.534 0.86,-0.794 0.306,-0.604 0.208,-0.882 0.402,-1.364 0.444,-1.498 0.164,-0.662 0.188,-0.51 0.76,-0.43 0.776,-0.312 1.202,-0.062 1.41,-0.032 0.298,-0.822 0.186,-0.7 0.234,-0.362 0.342,-0.294 0.12,-0.058 0.76,0.43 1.166,0.658 1.358,0.328 0.682,0.164 0.284,-0.026 1.714,-0.16 1.354,0.256 0.71,0.7 0.698,0.178 0.684,-0.338 0.424,-0.062 0.164,0.218 0.34,0.092 0.52,-0.034 0.3,0.194 0.032,0.194 0.04,0.224 0.384,0.532 0.694,0.646 0.616,0.156 0.81,-0.502 0.274,0.058 0.134,-0.162 0.082,-0.366 0.49,-0.344 0.896,-0.322 0.508,-0.288 0.182,-0.238 0.302,-0.068 0.33,0.072 0.236,-0.09 0.082,-0.226 0.094,-0.098 0.168,-0.08 0.15,-0.04 0.272,0.062 0.502,0.412 0.732,0.76 0.476,0.348 0.218,-0.058 0.28,-0.234 0.342,-0.404 0.084,-0.584 -0.17,-0.762 0.116,-0.616 0.406,-0.468 0.75,-0.288 1.094,-0.11 0.672,0.066 0.248,0.242 0.336,0.132 0.422,0.026 0.388,-0.274 0.35,-0.578 0.02,-0.714 -0.31,-0.854 0.084,-0.272 0.134,-0.118 0.42,-0.31 0.586,-0.642 0.566,-0.828 0.546,-1.016 0.674,-0.628 0.802,-0.242 0.972,0.276 1.146,0.792 0.43,0.972 -0.28,1.154 -0.024,0.632 0.232,0.118 0.392,-0.032 0.55,-0.18 0.36,-0.01 0.17,0.164 -0.01,0.324 -0.192,0.486 -0.23,1.362 -0.142,1.176 -0.142,1.154 -0.122,1.012 0.218,0.788 0.332,1.188 0.374,0.784 0.382,0.25 0.384,0.09 0.382,-0.07 0.786,-0.504 1.186,-0.936 1.152,-0.576 1.676,-0.324 0.562,-1.006 0.776,-0.666 1.772,-0.99 0.962,-0.38 0.554,-0.064 0.692,0.178 0.158,0.064 0.136,0.048 0.358,0.082 0.074,0.302 -0.094,0.326 -0.382,0.268 -0.122,0.208 0.146,0.156 0.54,0.054 1.118,-0.362 0.724,-0.232 0.502,-0.092 0.202,-0.302 0.316,-0.304 0.502,-0.022 0.538,0.162 0.446,0.094 0.758,-0.086 0.4,0.264 0.56,0.498 0.252,0.31 z" title="Afghanistan" id="AF"></path></svg>