<svg xmlns="http://www.w3.org/2000/svg" viewBox="0 0 9.82 22.24"><path d="m 4.4,0.76 0.222,0.172 0.462,0.748 0.306,0.66 0.606,0.228 0.336,0.256 0.434,0.39 0.208,0.39 0.296,1.194 0.034,0.72 -0.086,0.328 -0.072,0.086 -0.27,1.168 0.064,0.594 -0.002,0.392 -0.228,0.154 -0.152,0.246 0.246,0.968 -0.03,0.414 0.012,0.472 0.442,1.076 0.262,0.332 0.232,0.158 0.3,0.988 0.176,0.17 0.726,-0.094 0.356,0.11 0.142,0.234 0.032,0.16 -0.048,0.552 0.18,0.424 0.242,0.436 0,0.266 -0.164,0.436 -0.29,0.506 -0.384,0.196 -0.424,0.164 -0.204,0.394 -0.102,0.418 -0.19,0.31 -0.116,0.34 -0.182,0.692 -0.042,0.25 -0.286,0.254 -0.444,0.104 -0.4,0.022 -0.268,0.118 -0.138,0.236 -0.254,0.19 -0.152,0.084 0,0.21 0.184,0.438 0.21,0.356 0.006,0.284 -0.104,0.08 -0.326,-0.036 -0.068,0.104 -0.036,0.32 -0.086,0.27 -0.134,0.166 -0.232,0.18 -0.426,-0.058 -0.4,-0.272 -0.208,-0.084 -0.12,0.008 -0.032,-0.666 -0.174,-0.518 -0.632,-1.25 -2.062,-1.216 -0.486,-0.548 -0.212,-0.462 -0.214,-0.436 0.204,-0.012 0.202,0.11 0.258,0.134 0.106,-0.218 -0.112,-0.478 -0.532,-1.116 -0.04,-0.308 0.26,-0.936 0.434,-1.054 -0.028,-1.28 0.134,-0.97 -0.15,-0.63 -0.072,-0.772 0.318,-1.03 0.274,-0.254 0.168,-0.328 0.01,-1.1 -0.614,-0.516 -0.706,-0.096 0.016,-0.374 0.088,-0.594 -0.05,-0.198 0.052,-0.34 -0.172,-0.452 -0.28,-0.328 0.27,-0.578 0.396,-0.702 0.368,-0.556 0.446,-0.58 0.298,-0.556 0.318,-0.482 0.276,-0.146 0.136,0.102 0.074,0.21 -0.018,0.62 0.094,0.214 0.19,0.158 0.402,-0.078 0.444,-0.154 0.6,-0.328 z" title="Albania" id="AL"></path></svg>