<svg xmlns="http://www.w3.org/2000/svg" viewBox="0 0 17.65 17.70"><path d="m 17.14,17.44 -0.97,-0.042 -0.828,0.312 -0.312,-0.062 -0.208,-0.554 -0.178,-0.45 -0.528,-1.158 0.142,-0.474 -0.294,-0.274 -0.708,-0.494 -0.182,-0.204 0.1,-0.282 0.07,-0.514 -0.068,-0.416 -0.192,-0.126 -0.354,-0.008 -0.43,0.104 -0.864,0.402 -0.6,-0.256 -0.346,-0.258 -0.202,-0.216 -0.45,0.18 -0.11,-0.086 -0.024,-0.536 -0.136,-0.29 -0.27,-0.338 -0.252,-0.162 -0.922,0.334 -0.554,0.114 -0.194,-0.312 -0.974,-1.028 -0.902,-0.79 -0.62,-0.326 -0.624,0.034 -0.968,0.158 -0.356,-0.066 -0.844,-0.344 -0.704,-0.41 0.096,-0.17 0.148,-0.124 -0.178,-0.534 -0.392,-0.86 0.042,-0.27 -0.124,-0.372 -0.136,-0.282 0.552,-0.674 0.252,-0.542 0.056,-0.53 -0.148,-0.55 -0.364,-0.998 -0.224,-0.29 -0.416,-0.272 -0.35,-0.444 -0.088,-0.314 0.294,-0.062 0.858,-0.008 0.832,-0.108 0.652,-0.208 0.944,-0.174 0.388,-0.156 0.454,-0.074 1.378,0.166 0.516,-0.128 1.552,-0.024 0.04,-0.066 -0.21,-0.212 0.002,-0.08 0.924,-0.134 0.144,-0.1 0.12,0.336 0.348,0.374 0.378,0.15 0.204,0.206 0.01,0.156 -0.67,0.19 -0.046,0.094 0.044,0.092 0.2,0.046 0.94,0.468 0.536,0.01 0.282,0.142 0.14,0.28 0.448,0.38 0.358,0.368 0.022,0.126 -0.068,0.186 -1,0.718 -0.126,0.248 -0.016,0.262 0.438,0.778 0.646,0.848 0.932,0.644 1.286,0.698 0.016,0.432 -0.204,0.512 -0.174,0.348 -0.08,0.236 -0.156,0.098 -1.28,-0.022 -0.192,0.084 -0.084,0.1 -0.006,0.084 0.46,0.156 0.718,0.546 0.414,0.53 0.43,0.232 0.482,0.422 0.386,0.392 0.602,0.508 0.67,-0.166 0.896,0.452 0.038,0.306 -0.056,0.274 -0.564,0.298 -0.07,0.124 0,0.104 0.074,0.146 0.33,0.244 0.39,0.362 0.438,0.54 -0.196,0.162 -0.41,0.024 -0.318,-0.066 -0.112,0.11 0.006,0.176 0.416,0.41 0.082,0.298 -0.018,0.518 0.028,0.658 z m -8.234,-15.472 0.028,-0.198 -0.042,-0.178 -0.15,-0.056 -0.184,0.046 -0.014,0.198 0.056,0.188 0.186,0.084 0.12,-0.084 z m 2.968,3.038 -0.214,0.122 -0.2,-0.054 0,-0.304 0.144,-0.122 0.166,0.006 0.158,0.11 -0.054,0.242 z" title="Armenia" id="AM"></path></svg>