<svg xmlns="http://www.w3.org/2000/svg" viewBox="0 0 69.08 77.47"><path d="m 7.48,1.16 -0.086,0.09 -0.616,0.248 -0.662,0.232 -0.87,0.944 -0.44,0.408 -0.128,0.102 -0.398,0.226 -0.288,0.194 0.01,0.106 0.192,0.124 0.196,0.204 -0.02,1.542 -0.084,1.52 -0.108,0.128 -0.552,0.05 -0.734,0.106 -0.234,0.068 -0.082,-0.15 -0.246,-0.556 0.138,-0.528 0.148,-0.394 -0.166,-0.802 -0.374,-0.714 -0.396,-0.906 -0.122,-0.174 0.334,-0.292 0.502,-0.64 0.21,-0.332 0.582,-0.074 0.216,-0.232 0.154,-0.372 0.06,-0.216 0.656,-0.176 0.788,-0.314 0.436,-0.344 0.442,-0.22 0.28,-0.008 0.184,0.09 0.506,0.596 0.43,0.376 0.142,0.09 z m 61.146,35.118 0.124,0.744 0.122,1.034 0.086,0.744 0.088,0.334 0.03,0.178 -0.098,0.192 -0.08,0.446 -0.158,0.396 -0.088,0.276 0.074,0.508 -0.06,0.728 -0.062,0.77 -0.02,0.742 0.21,1.328 -0.03,0.408 -0.262,0.696 -0.198,0.528 -0.128,0.612 -0.024,0.32 0.48,0.904 -0.028,0.18 -0.368,0.056 -0.304,0.016 -1.164,0 -1.668,0 -1.668,0 -1.668,0 -1.534,0 -1.468,0 -1.294,0 0,0.892 0,1.84 0,1.842 0,1.844 0,1.848 0,1.85 0,1.852 0,1.854 0,1.858 0,1.342 0.338,1.784 0.62,1.944 0.242,0.18 0.624,0.358 0.866,0.732 0.486,0.554 0.988,0.962 1.314,1.228 1.266,1.102 1.118,0.972 -1.754,0.342 -2.494,0.484 -1.682,0.328 -2.042,0.398 -1.36,0.25 -1.694,0.31 -0.27,-0.006 -0.454,-0.214 -0.98,-0.042 -1.152,0.296 -0.914,0.08 -0.676,-0.136 -0.66,-0.258 -0.644,-0.382 -1.114,-0.14 -1.586,0.104 -1.528,-0.074 -1.472,-0.252 -1.052,-0.1 -0.634,0.054 -0.68,-0.082 -0.726,-0.218 -0.606,-0.37 -0.728,-0.78 -0.57,-0.744 -0.148,-0.106 -0.18,-0.114 -0.178,-0.034 -1.616,-0.02 -1.534,-0.018 -0.878,-0.002 -2.148,-0.002 -2.148,-0.002 -2.148,-0.004 -2.148,-0.002 -2.148,-0.004 -2.148,-0.002 -2.148,-0.004 -2.148,-0.002 -1.14,-0.002 -1.06,0.06 -1.17,0.064 -0.168,-0.028 -0.278,-0.09 -0.19,-0.164 -0.63,-0.422 -0.548,-0.32 -0.746,-0.54 -0.482,-0.59 -0.406,-0.188 -0.718,-0.106 -0.54,-0.104 -0.44,-0.024 -0.774,0.278 -0.584,0.276 -0.416,0.266 -0.722,0.304 -0.608,0.304 -1.06,-0.04 -0.23,0.044 -0.59,-0.02 -0.556,-0.266 -0.564,0.024 -0.626,0.338 -0.896,0.132 0.208,-2.206 0.218,-0.974 0.006,-1.164 -0.128,-3.008 -0.154,-0.414 -0.104,-0.484 0.554,-0.368 0.282,-0.282 0.382,-0.498 0.272,-0.698 0.32,-1.536 1.164,-3.526 0.552,-3.446 0.7,-1.628 0.262,-1.824 1.948,-2.35 0.48,-1.442 1.008,-0.706 1.426,-0.752 1.016,-1.338 0.492,-0.926 0.56,-1.774 -0.006,-1.85 0.356,-2.466 -0.078,-0.708 -0.532,-0.98 -0.098,-0.7 -0.494,-0.688 -0.528,-0.52 -0.248,-0.928 -0.916,-1.462 -0.25,-0.974 -0.438,-0.7 -0.07,-0.862 -0.23,-0.912 -0.448,-0.9 -0.418,-1.03 0,-0.322 0.272,-0.388 0.258,-0.126 -0.086,0.196 -0.172,0.23 0.042,0.178 1.712,-1.804 0.108,-0.352 -0.058,-0.394 -0.008,-0.482 0.068,-0.56 -1.616,-3.322 -1.282,-3.084 -0.218,-1.558 -1.696,-2.046 -0.668,-1.33 -0.38,-0.932 -0.286,-0.352 0.108,-0.178 0.436,-0.046 0.972,-0.216 1.332,-0.236 1.23,-0.54 0.328,-0.24 0.652,-0.048 0.664,0.144 0.246,-0.104 0.14,-0.008 1.558,0 0.648,-0.036 1.202,0.01 0.758,0.044 0.432,0.06 1.166,0.094 1.456,-0.022 0.514,-0.048 1.908,-0.032 1.884,-0.032 1.694,-0.028 1.872,0.006 1.432,0.004 0.652,0.194 0.592,0.368 0.27,0.334 0.128,0.148 0.176,0.352 0.324,0.28 0.116,0.432 -0.094,0.586 0.046,0.706 0.188,0.824 0.394,0.864 0.596,0.908 0.26,0.72 -0.078,0.534 0.184,0.564 0.444,0.594 0.324,0.314 0.188,0.238 0.504,0.912 0.934,1.456 0.7,1.092 0.246,0.13 0.358,-0.046 0.76,-0.108 0.752,-0.022 0.538,0.224 0.216,-0.038 0.81,-0.434 0.804,-0.132 0.84,-0.18 0.438,-0.184 0.51,0 1.374,0.35 0.26,0.018 1.112,0 1.112,-0.196 0.164,-1.464 0.01,-0.29 0.268,-0.55 0.34,-0.48 0.042,-0.458 -0.02,-0.626 0.246,-0.758 0.746,-0.604 1.206,-0.286 0.686,-0.056 1.082,-0.168 1.64,-0.17 0.606,0.022 0.048,0.086 -0.348,1.048 -0.006,0.342 0.126,0.346 0.278,0.188 1.702,0.02 1.568,0.02 1.798,0.066 1.348,0.048 0.172,0.052 0.136,0.078 0.2,0.52 -0.044,1.016 -0.3,1.484 0.116,1.388 0.534,1.292 0.054,1.986 -0.188,1.186 -0.238,1.496 -0.092,1.698 0.244,0.71 0.516,0.742 0.788,0.778 0.61,1.006 0.432,1.238 0.156,0.78 -0.116,0.322 0.008,0.556 0.134,0.792 -0.15,0.526 -0.432,0.258 -0.144,0.356 0.218,0.684 0.054,0.622 0.17,0.238 0.124,0.172 0.204,0.026 0.438,-0.222 0.524,-0.414 0.42,-0.174 0.592,0.022 0.832,0.118 1.468,0.042 0.452,-0.074 1.366,-0.558 0.358,-0.042 0.54,0.052 0.766,0.166 0.772,0.034 0.376,-0.172 0.034,-0.226 0.12,-0.294 0.208,-0.11 z" title="Angola" id="AO"></path></svg>