<svg xmlns="http://www.w3.org/2000/svg" viewBox="0 0 111.74 245.12"><path d="m 61.34,2.6 0.142,0.166 -0.002,0.174 0.474,0.356 0.948,0.542 0.888,1.046 0.828,1.554 0.778,1.152 0.726,0.744 0.668,0.528 0.61,0.308 0.326,0.25 0.042,0.192 0.57,0.398 1.098,0.606 0.694,0.606 0.292,0.604 1.084,0.626 1.878,0.644 1.366,0.308 0.852,-0.028 1.222,0.514 1.592,1.06 0.972,0.736 0.35,0.41 1.042,0.666 2.6,1.378 1.146,0.346 0.544,0.316 0.322,0.4 0.318,0.124 0.314,-0.156 0.652,0.144 0.992,0.444 0.776,0.538 0.998,1.186 0.318,0.474 0.134,0.424 -0.048,0.374 -0.304,0.4 -0.56,0.424 -0.166,0.186 -0.012,0.178 -0.142,0.358 -0.464,0.764 -0.118,0.356 -0.026,0.264 -0.294,0.288 -0.782,0.532 -0.162,0.258 -0.04,0.278 -0.098,0.166 -0.106,0.07 -0.15,0.278 -0.122,0.462 -0.012,0.592 0.096,0.724 -0.02,0.234 -0.172,0.124 -0.098,0.168 -0.034,0.338 -0.148,0.248 -0.258,0.158 -0.096,0.18 0.068,0.206 -0.19,0.202 -0.448,0.2 -0.274,0.292 -0.102,0.382 -0.25,0.342 -0.398,0.302 -0.13,0.402 0.208,0.744 2.452,-0.258 1.998,0.272 2.364,0.716 1.568,0.25 0.774,-0.216 0.574,0.03 0.374,0.278 0.502,0.056 0.63,-0.164 0.522,0.126 0.412,0.416 0.374,-0.104 0.336,-0.62 0.386,-0.454 0.436,-0.284 0.542,-0.086 0.65,0.114 0.518,0.228 0.388,0.342 0.422,-0.01 0.458,-0.362 0.22,-0.434 -0.02,-0.506 0.182,-0.362 0.382,-0.218 0.258,-0.294 0.134,-0.372 0.454,-0.226 0.774,-0.082 0.406,-0.182 0.036,-0.282 0.228,-0.26 0.422,-0.238 0.29,-0.296 0.156,-0.354 0.254,-0.224 0.356,-0.09 0.396,-0.746 0.434,-1.396 0.258,-1.884 0.09,-2.666 0.438,0.002 0.204,0.198 0.324,0.102 0.34,-0.224 0.29,-0.104 0.458,-0.008 0.248,-0.252 0.29,-0.04 0.198,0.136 0.192,0.166 0.408,0.038 0.324,0.432 0.356,0.132 0.152,0.496 0.23,1.306 0.428,0.772 0.424,0.88 0.016,0.392 -0.238,0.396 -0.04,0.57 -0.148,1.394 -0.05,0.514 0.148,0.35 0.054,0.49 -0.23,0.598 -0.448,0.896 -0.434,0.242 -0.112,0.01 -0.588,0.518 -0.414,0.194 -0.24,-0.13 -0.274,0.224 -0.308,0.582 -0.376,0.26 -0.68,0.144 -0.204,0.068 -0.396,-0.02 -0.34,0.144 -0.284,0.31 -0.302,0.116 -0.322,-0.078 -0.292,0.114 -0.262,0.306 -0.152,0.332 -0.042,0.358 -0.256,0.244 -0.472,0.13 -0.164,0.18 0.03,0.25 -0.212,0.194 -0.798,0.204 -0.578,0.36 -0.356,0.518 -0.376,0.326 -0.592,0.2 -0.804,0.528 -0.116,0.326 0.306,0.3 0.11,0.268 -0.086,0.234 -0.25,0.032 -0.416,-0.17 -0.296,-0.036 -0.176,0.1 -0.084,0.188 0.01,0.276 -0.148,0.188 -0.308,0.1 -0.194,0.228 -0.082,0.358 -0.386,0.452 -0.688,0.544 -0.542,0.734 -0.398,0.924 -0.464,0.608 -0.532,0.292 -0.366,0.416 -0.2,0.54 -0.568,0.836 -0.932,1.136 -0.846,0.78 -0.76,0.424 -0.426,0.48 -0.094,0.534 -0.492,0.61 -0.89,0.684 -0.252,0.308 -0.208,0.252 -0.03,0.44 -0.346,0.578 -0.666,0.718 -0.232,0.622 0.302,0.786 0.044,0.954 -0.132,0.382 -0.292,0.13 -0.066,0.246 0.158,0.364 0.008,0.478 -0.14,0.594 -0.308,0.68 -0.478,0.766 -0.116,0.512 0.248,0.258 0.122,0.274 -0.004,0.292 -0.102,0.422 -0.198,0.554 -0.3,0.412 -0.402,0.268 -0.122,0.34 0.162,0.41 0.022,0.428 -0.116,0.446 0.068,0.434 0.252,0.422 -0.018,0.482 -0.438,0.99 -0.106,0.612 0.274,2.626 -0.166,0.368 -0.278,0.424 -0.33,0.032 -0.376,-0.074 -0.272,0.264 -0.17,1.166 -0.518,2.528 0.092,0.602 0.416,0.978 0.152,0.624 0.116,0.47 0.092,0.892 -0.242,0.402 -0.224,0.07 -0.282,0.226 0.334,1.09 0.266,0.502 0.76,1.032 2.918,1.436 1.21,0.848 1.37,1.158 0.748,1.192 0.066,0.984 -1.094,1.474 -0.122,1.24 0.224,0.874 0.396,0.812 1.06,1.056 0.78,0.388 1.054,-0.042 0.18,0.296 0.108,0.26 0.166,2.15 -0.02,0.81 -0.31,0.744 -2.024,3.428 -1.728,2.104 -0.626,1.166 -0.222,1.25 -0.554,0.596 -2.996,1.896 -4.648,1.698 -3.756,0.884 -0.854,0.298 -6.038,0.974 -1.168,0.136 -1.52,-0.086 -1.234,0.13 -1.376,-0.266 -1.228,-0.306 -0.688,-0.76 -0.816,-0.094 -0.222,0.38 0.398,0.97 -0.194,1.17 0.242,0.668 0.482,0.134 0.464,0.346 0.41,0.464 -0.706,0.048 0.274,0.37 0.302,0.216 -0.034,0.774 -0.274,1.868 -0.688,0.4 -0.184,0.108 -0.208,0.404 -0.438,1.796 -0.14,1.168 0.188,0.754 0.826,1.588 -0.312,1.034 -0.522,0.562 -2.262,1.158 -0.904,0.464 -1.424,0.318 -2.294,0.054 -0.848,-0.072 -1.966,-1.056 -1.46,-0.632 -1.336,-0.502 -1.3,-0.3 0.186,-0.152 0.086,-0.272 -0.366,-0.152 -0.266,-0.034 -0.856,0.546 -0.36,0.558 -0.104,0.49 -0.018,1.176 0.152,0.99 0.616,2.446 0.064,1.334 -0.292,1.688 0.408,0.996 0.496,0.45 1.114,0.446 0.432,0.304 0.476,-0.048 0.146,0.118 -0.07,0.218 -0.28,0.43 0.018,0.454 0.844,0.134 0.876,-0.092 0.918,-0.202 0.216,-0.316 0.006,-0.66 -1.076,-0.116 0.136,-0.246 0.816,-0.268 1.068,-0.438 0.546,-0.082 0.372,0.294 0.25,0.27 0.308,0.71 0.192,0.938 0.008,1.13 -0.128,1.066 -0.152,0.378 -0.27,0.454 -1.92,0.58 -0.538,-0.152 -0.5,-0.806 -0.158,-0.834 -0.428,-0.562 -0.918,-0.446 -0.914,0.136 -0.906,0.774 -0.89,0.25 -0.316,0.706 2.232,1.144 1.054,0.32 0.344,-0.012 0.342,0.15 -0.318,0.426 -0.318,0.264 -1.588,0.584 -0.7,0.408 -0.818,0.804 -1.146,1.758 -0.352,0.384 -0.176,0.448 -0.118,1.218 0.372,2.03 -0.392,0.852 0.242,0.948 -0.136,0.634 -0.4,0.914 -1.608,1.446 -0.286,1.06 0.558,0.626 -0.038,0.548 -0.186,0.498 -0.668,-0.006 -2.428,-0.334 -0.884,0.544 -0.82,0.666 -0.224,0.318 -0.29,0.2 -1.67,0.356 -0.33,0.236 -1.776,2.55 -0.76,1.588 -0.918,1.564 -0.24,0.664 -0.052,0.922 0.128,0.832 0.128,0.614 0.32,0.79 0.672,0.902 3.422,3.694 0.71,0.324 3.66,0.398 0.812,0.518 0.474,0.824 0.174,0.728 -0.21,1.848 -0.218,0.58 -0.404,0.528 -0.866,0.68 -1.036,0.362 0.296,0.258 0.42,-0.038 0.916,-0.22 0.396,0.22 0.3,0.734 -0.574,0.296 -0.174,0.358 -0.414,0.542 -2.112,2.168 -1.138,0.65 -1.046,0.874 -1.404,0.886 -0.55,0.51 -0.744,1.072 -1.138,1.17 -1.228,2.522 -0.048,0.49 0.178,0.328 -0.682,4.462 -0.238,0.528 -0.494,0.564 -1.3,0.932 -0.626,0.116 -0.828,-0.54 -0.466,-0.564 -0.458,-0.964 -0.552,-0.992 -0.028,0.354 0.192,0.604 -0.13,0.632 -1.412,0.288 -0.374,0.296 1.274,-0.132 0.868,0.192 0.368,0.23 0.33,0.482 0.292,0.58 -0.244,0.322 -0.696,0.266 -0.9,0.49 -1.064,0.886 -0.59,1.028 -0.254,0.74 -0.288,1.496 -0.076,0.992 -0.45,0.764 -0.694,0.69 0.04,0.158 0.47,-0.354 0.376,-0.112 0.324,0.92 0.436,1.846 0.202,1.284 -0.032,0.38 -0.13,0.524 -0.896,0.126 -0.8,-0.016 -0.588,0.224 0.316,0.232 0.54,-0.082 0.746,0.552 0.828,-0.236 0.378,0.37 0.272,0.338 1.268,2.708 1.108,1.682 0.56,1 -0.278,0.456 -0.1,-0.606 -0.722,-0.158 -0.704,-0.162 -1.174,-0.434 -1.582,-0.656 -1.584,0 -1.258,-0.554 -1.39,-0.612 -2.934,-0.054 -2.584,-0.038 -2.648,-0.038 -1.694,-0.026 -1.134,-0.016 -0.294,-0.23 0.1,-0.76 -0.42,-0.56 -0.61,-0.676 -0.742,-0.476 -0.368,-0.638 -0.412,-0.716 0.232,-0.634 0.356,-1.538 0.006,-0.676 -0.322,-0.472 -0.098,-0.67 0.098,-0.314 0.29,-0.238 0.174,-1.094 -0.136,-1.07 -0.222,-0.954 -0.294,-0.42 -0.378,-0.2 -0.28,-0.038 -0.62,0.356 -1.028,-0.09 -0.35,0.136 -0.502,0.382 -0.712,0.564 -0.396,-0.196 -0.122,-0.604 -0.264,-0.522 -0.168,-0.46 -0.126,-0.758 -0.21,-0.97 -0.42,-1.146 -0.644,-0.924 -0.036,-0.83 -0.12,-1.04 0.328,-1.01 -0.192,-0.836 -0.402,-0.994 0.124,-1.028 0.396,-0.568 0.124,-0.72 1.832,-0.114 -0.076,-0.966 0.304,-0.78 0.342,-0.706 0.292,-0.32 0.652,-0.28 0.768,-0.406 0.434,-0.464 0.208,-0.416 0.126,-0.536 0.034,-0.57 -0.126,-1.21 0.144,-0.372 0.476,-0.49 0.804,-0.434 0.346,-1.15 -0.198,-0.998 -0.446,-0.79 -0.568,-0.356 -0.05,-0.81 0.256,-0.768 0.334,-0.822 0.398,-0.942 -0.024,-0.658 0.354,-0.384 1.008,-0.856 0.346,-0.836 0.354,-0.226 0.414,-0.1 0.024,-0.472 -0.302,-0.468 -0.048,-0.586 0.036,-0.648 0.092,-0.866 0.47,-0.324 0.696,-0.7 0.186,-0.444 0.024,-0.594 -0.202,-1.224 -0.172,-0.876 -0.088,-0.322 -0.316,-0.592 -0.234,-0.374 0.374,-0.468 0.7,-0.49 0.296,-0.71 -0.272,-0.602 -0.396,-0.318 -0.124,-0.92 0.148,-1.166 0.296,-0.352 1.04,-0.176 0.098,-0.598 0.792,-0.844 -0.024,-0.806 -0.504,-0.494 -0.494,-0.796 -0.364,-0.702 -1.212,-0.384 -1.288,-0.208 -0.174,-0.662 0.05,-0.382 0.598,0.154 0.978,-0.134 0.736,-0.03 0.512,-0.068 0.59,-0.096 0.544,0.278 0.544,-0.174 0.222,-1.042 0.346,-0.554 0.05,-0.52 -0.346,-0.414 -0.634,-0.128 -2.774,-0.328 -0.084,-0.414 0.024,-0.694 0.104,-0.708 0,-0.348 0.252,-0.306 0.288,-0.64 0.202,-0.426 -0.202,-0.552 -0.442,-0.814 0.322,-0.376 0.026,-0.448 -0.1,-0.438 -0.46,-0.486 -0.406,-0.67 0,-0.712 0.476,-0.19 0.316,-0.218 0.074,-0.44 -0.174,-0.542 -0.658,-0.166 -0.876,-0.332 -0.268,-0.278 -0.248,-0.58 0.184,-1.626 -0.092,-0.978 -0.078,-0.54 0.214,-0.416 0.292,-0.374 -0.138,-0.87 -0.26,-0.456 0.092,-0.35 0.246,-0.352 0.214,-0.434 0.184,-0.102 0.276,0.248 0.466,-0.146 0.562,-0.35 0.06,-0.412 -0.112,-0.588 -0.418,-1.476 -0.376,-0.91 0.078,-0.328 0.148,-0.344 -0.118,-1.248 0.038,-0.752 0.028,-2.21 0.042,-0.752 -0.384,-0.768 0.052,-0.718 0.27,-0.524 0.254,-0.708 0.19,-0.626 0.2,-0.282 0.338,-0.14 0.078,-0.342 -0.154,-0.26 -0.436,-0.406 -0.1,-0.496 0.092,-0.38 0.214,-0.22 0.332,0.002 0.25,-0.542 0.072,-0.668 0.052,-0.31 -0.192,-0.39 -0.138,-0.918 -0.13,-0.52 0.154,-0.218 0.214,-0.08 0.378,0.124 0.266,-0.064 0.046,-0.278 0.03,-0.298 0.102,-0.202 0.238,-0.672 0.254,-0.832 0.06,-0.586 -0.09,-1.586 0.134,-0.364 0.272,-0.332 0.378,-0.312 0.498,-0.258 0.618,-0.372 0.76,-0.136 0.308,-0.412 0.214,-0.548 0.06,-0.45 -0.292,-0.312 -0.384,-0.372 -0.182,-0.934 -0.098,-0.862 -0.056,-1.084 -0.382,-0.93 -0.4,-1.044 -0.108,-0.928 0.134,-0.506 0.158,-0.804 -0.168,-0.366 -0.2,-0.654 0.208,-0.512 0.252,-0.794 -0.03,-0.402 -0.2,-0.958 -0.184,-0.536 0.184,-0.572 0.292,-0.534 0.23,-0.286 -0.038,-0.46 0.1,-0.378 0.436,-0.252 0.408,-0.468 0.292,-0.056 0.352,0 0.23,-0.132 0.092,-0.36 0.062,-0.398 0.562,-0.494 0.33,-0.454 0.598,-0.094 0.292,-0.492 0.006,-0.63 -0.068,-0.636 0.2,-0.734 -0.222,-1.12 0.022,-0.592 -0.23,-0.488 0.046,-0.526 -0.124,-0.336 -0.348,-0.126 -0.128,-0.418 0.168,-0.206 0.328,-0.158 0.412,-0.32 0.308,-1.536 0.146,-0.456 0.142,-0.546 -0.018,-0.284 0.198,-0.41 0.248,-0.622 0.39,-0.6 0.222,-0.412 0.216,-0.554 0.062,-0.334 0.276,-0.166 0.318,-0.042 0.374,-0.104 0.154,-0.204 -0.028,-0.296 -0.024,-0.654 -0.112,-1.038 -0.072,-1.334 0.066,-0.876 0.246,-0.878 0.23,-0.476 -0.062,-0.366 -0.062,-0.402 -0.43,-0.22 -0.408,0.19 -0.286,-0.052 -0.366,-0.466 -0.108,-0.494 0.062,-0.674 0.286,-0.42 0.112,-0.528 -0.168,-0.164 -0.36,-0.35 -0.34,-1.204 0.042,-1.024 -0.338,-0.272 -0.158,-0.798 -0.348,-0.286 -0.138,-0.596 -0.108,-0.614 0.046,-0.27 0.364,-0.076 0.206,-0.484 -0.154,-0.27 -0.276,-0.234 -0.352,0.018 -0.316,-0.276 -0.422,-1.154 -0.334,-0.636 0.106,-0.926 0.066,-0.722 0.144,-0.618 0.052,-0.486 0.26,-0.232 0.246,0.106 0.23,-0.054 0.212,-0.394 0.232,-0.248 -0.014,-0.196 -0.138,-0.212 -0.066,-0.374 0.162,-0.446 0.28,-1.018 0.424,-1.12 0.182,-0.418 -0.046,-0.354 0.092,-0.16 0.288,0.178 0.818,-0.196 0.276,-0.496 0.108,-0.442 0.246,-0.248 -0.108,-0.352 -0.338,-0.106 -0.204,-0.166 0.082,-0.4 0.12,-0.918 -0.02,-0.674 -0.308,-1.438 -0.248,-1.42 0.174,-0.474 0.536,-0.648 0.406,-0.292 0.074,-0.37 0.402,-1.668 0.046,-0.91 0.264,-0.502 0.174,-0.944 0.728,-0.812 0.214,-0.538 0.292,-0.052 0.154,-0.174 0.386,-0.598 0.502,-0.614 0.432,-0.31 0.108,-0.484 0.206,-0.66 0.428,-1.094 0.24,-0.762 0.322,-0.274 0.376,-0.996 0.162,-0.584 0.43,-0.24 0.336,-0.068 0.322,0.274 0.338,-0.052 0.308,-0.342 0.74,-0.234 0.334,-0.126 0.154,-0.342 0,-0.6 -0.308,-0.444 -0.626,-0.85 -0.54,-0.95 -0.058,-0.298 -0.004,-0.326 0.092,-0.412 0.258,-0.466 0.648,-0.768 -0.07,-0.548 -0.472,-2.014 -0.174,-0.554 -0.328,-1.026 0.046,-0.406 0.288,-1.132 0.25,-0.456 0.368,-0.084 0.2,-0.152 0.062,-0.202 -0.246,-0.252 -0.108,-0.32 -0.108,-0.456 -0.34,-0.16 -0.196,-0.378 0,-0.554 0.306,-0.722 0.338,-0.202 0.138,-0.32 0.362,-0.292 0.33,-0.226 0.276,-0.418 1.138,-0.512 0.904,-0.398 1.764,-0.76 1.21,-0.522 0.116,-0.36 0.092,-0.246 0.56,-1.834 0.726,-2.366 0.454,-1.48 -1.044,-1.088 0.184,-0.29 0.598,-0.744 0.124,-0.596 0.238,-0.256 1.072,-0.606 0.184,-0.402 0.094,-0.446 0.218,-0.32 0.408,-0.066 0.742,-0.284 0.796,-0.27 0.24,-0.366 0.226,-0.636 0.194,-0.704 0.154,-0.166 0.256,0.018 0.426,0.176 0.224,0.266 1.114,0.844 0.5,0.482 0.476,0.064 0.94,-0.094 0.19,0.022 2.398,0.028 0.366,0.042 0.838,0.206 0.474,0.166 0.33,0.086 0.53,0.26 0.46,0.862 0.258,0.686 0.18,0.604 0.402,1.062 0.274,0.404 0.098,-0.196 0.234,-1.162 0.322,-0.676 0.434,-0.758 0.874,-1.768 0.306,-0.264 0.34,-0.128 0.238,-0.01 0.242,0.132 0.33,0 0.234,-0.14 2.292,-0.022 2.378,-0.02 0.05,0.01 0.108,0.304 0.396,0.664 0.444,0.352 0.088,0.106 z m 4.352,110.718 0.056,0.456 -0.292,-0.054 -0.694,-0.436 -0.234,-0.408 -0.054,-0.172 0.708,0.186 0.334,0.17 0.176,0.258 z m -38.042,130.052 0.032,-2.192 0.044,-2.928 0.008,-2.594 0.008,-2.512 0.008,-2.584 0.008,-2.566 0.01,-2.726 0.01,-2.75 0.33,0.39 1.304,1.9 0.34,0.78 0.214,0.912 -0.522,-0.58 -0.55,0.332 -0.272,0.544 -0.232,0.592 0,0.418 0.18,0.366 0.536,0.318 1.302,0.108 0.096,0.12 0.76,2.302 0.382,0.516 0.444,0.41 1.028,1.184 0.986,1.28 1.17,1.218 1.26,0.938 1.148,0.712 1.094,0.874 1.168,1.224 1.27,0.892 1.364,0.63 1.378,0.528 2.122,-0.206 0.658,0.056 0.41,0.388 -0.412,1.074 -0.526,0.866 -0.702,0.358 -0.742,0.132 -0.67,-0.018 -0.668,-0.16 -0.628,0.09 -0.6,0.366 -0.626,0.182 -0.644,0.024 -0.628,0.308 -0.63,0.222 -0.654,-0.184 -1.7,-0.864 -1.104,-0.206 -3.74,-0.342 -1.2,-0.198 -1.196,-0.298 -0.626,-0.014 -0.894,0.194 -0.716,-0.024 -0.19,0.198 z m 23.036,-1.334 0.62,0.224 1.224,-0.17 0.646,-0.002 0.284,0.08 0.126,0.12 0.844,-0.188 0.374,0.022 -0.096,0.416 -0.778,0.414 -0.32,-0.176 -1.654,0.038 -0.732,0.428 -0.312,-0.004 -0.722,0.61 -0.528,-0.386 -0.146,-0.354 0.382,-0.504 0.36,-0.01 0.246,-0.204 0.182,-0.354 z" title="Argentina" id="AR"></path></svg>