<svg xmlns="http://www.w3.org/2000/svg" viewBox="0 0 42.79 21.64"><path d="m 41.7,3.42 -0.022,0.086 -0.032,0.318 -0.218,0.402 -0.236,0.524 0.016,0.46 0.602,1.588 0.536,0.962 0.1,0.366 0.344,0.282 -0.326,0.354 -0.064,0.524 -0.212,0.234 -0.056,0.298 0.09,0.272 -0.002,0.34 0.118,0.466 -0.524,0.102 -0.622,-0.016 -0.222,0.028 -0.208,0.128 -0.214,-0.064 -0.564,-0.438 -0.316,-0.098 -0.224,0.026 -0.168,0.192 -0.29,0.244 -0.27,0.172 0.06,0.15 1.166,0.394 0.206,0.604 -0.224,0.492 -0.076,0.242 -0.274,0.188 -0.334,0.166 -0.404,0.042 -0.048,0.266 0.158,0.778 -0.128,0.168 -0.128,0.242 0.12,0.638 0.25,0.046 0.056,0.144 -0.044,0.26 -0.044,0.274 -0.088,0.29 -0.044,0.13 -0.166,0.08 -0.516,-0.042 -0.446,0.248 -0.896,0.888 -0.312,0.152 -0.34,0.356 0.02,0.778 -0.046,0.072 -0.082,0.16 -1.07,-0.276 -0.036,0.006 -0.718,0.1 -0.49,0.356 -0.594,0.206 -1.248,-0.11 -1.214,0.138 -0.288,0.104 -0.314,0.06 -0.296,0.208 -0.17,0.292 -0.302,0.368 -0.43,0.29 -0.466,0.224 -0.112,0.186 -0.152,0.108 -0.262,-0.14 -0.21,0.008 -0.258,-0.096 -0.858,-0.104 -0.94,-0.172 -0.45,-0.164 -0.508,-0.132 -0.548,-0.106 -0.49,-0.024 -0.248,-0.05 -1.178,-0.286 -0.778,-0.02 -1.026,-0.12 -2.038,-0.432 -0.594,-0.176 -0.566,-0.054 -0.672,-0.15 -0.51,-0.246 -0.326,-0.468 -0.35,-0.62 -0.638,-0.814 -0.132,-0.406 0.196,-0.356 0.2,-0.27 -0.022,-0.114 -0.156,-0.06 -1.122,0.348 -1.088,0.44 -0.428,0.012 -0.414,-0.096 -0.552,-0.008 -0.528,0.118 -1.06,0.06 -0.62,0.324 -0.396,0.63 -0.214,0.508 -0.18,0.164 -0.37,0.062 -0.552,-0.048 -0.388,-0.146 -0.396,-0.434 -0.614,-0.062 -0.564,-0.01 -0.15,-0.08 0.01,-0.284 -0.222,-0.532 -0.368,-0.166 -0.952,1.002 -0.26,0.09 -0.766,-0.278 -0.67,-0.428 -0.072,-0.314 -0.11,-0.258 -0.562,-0.244 -0.702,-0.166 -0.224,0 0.088,-0.152 0.082,-0.258 -0.052,-0.204 -0.164,-0.214 -0.09,-0.226 -0.028,-0.22 -0.05,-0.18 -0.03,-0.17 -0.052,-0.132 0.458,-1 0.094,-0.622 -0.4,-0.366 -0.17,-0.108 0.14,-0.082 0.57,0.068 0.362,-0.206 0.19,-0.206 0.506,0.194 0.744,0.388 0.35,0.264 0.144,0.202 0.082,0.17 -0.044,0.292 0.168,0.114 0.35,0.042 0.234,0.09 -0.082,0.384 -0.016,0.314 0.322,-0.044 0.406,-0.24 0.316,-0.434 0.196,-0.422 0.148,-1.028 0.052,-0.086 0.244,0.08 0.986,-0.044 0.466,0.192 0.738,0.032 -0.014,0.16 0.13,0.252 0.328,0.362 0.16,0.236 0.342,0.042 0.53,-0.13 0.308,-0.136 0.118,0.096 0.482,-0.094 0.428,-0.292 0.106,-0.222 0.432,-0.158 0.584,-0.362 0.802,-0.278 2.63,-0.3 0.102,-0.226 -0.038,-0.518 0.07,-0.076 0.33,0.128 0.532,0.122 0.41,0.182 0.262,0.24 0.246,0.01 0.38,-0.168 0.514,-0.108 0.48,0.25 0.14,0.268 -0.084,0.138 0.008,0.218 0.15,0.182 0.39,0.296 0.5,0.254 0.26,-0.02 0.096,-0.246 0.092,-0.59 0.034,-0.632 -0.114,-0.362 -0.27,-0.088 -0.322,-0.03 -0.172,-0.076 0.062,-0.198 0.256,-0.516 -0.002,-0.69 -0.582,-0.788 -0.506,-0.762 0.002,-0.26 0.304,-0.452 0.466,-0.36 1.038,-0.6 0.326,-0.124 0.42,-0.1 0.604,-0.248 0.29,-0.254 0.196,-0.276 0.284,-1.438 0.066,-0.062 0.084,-0.084 1.058,0.498 0.094,-0.084 0.18,-0.08 0.344,-0.382 0.076,-0.288 -0.008,-0.55 0.032,-0.518 0.066,-0.166 0.158,0.062 0.456,0.268 0.362,0.304 0.338,0.762 0.79,0.202 0.998,0.02 0.356,-0.34 0.324,-0.078 0.366,0.104 0.772,0.118 0.086,-0.614 0.444,-0.642 0.202,-0.224 0.566,0.022 0.138,-0.48 0.14,-1.33 0.118,-0.146 0.412,0.028 0.41,0.242 0.122,0.198 0.214,-0.016 0.298,-0.136 0.326,-0.086 0.518,0.142 1.102,0.604 0.57,0.222 0.36,-0.042 0.338,0.008 1.302,0.932 0.91,0.13 0.83,0.004 0.268,-0.28 0.352,-0.238 0.37,0.032 0.322,0.122 0.628,0.404 0.29,0.104 0.386,0.066 0.282,0.09 0.25,0.7 z" title="Austria" id="AT"></path></svg>