<svg xmlns="http://www.w3.org/2000/svg" viewBox="0 0 258.48 310.66"><path d="m 98.2,7.12 -0.204,-0.512 0.09,-0.128 0.104,-0.068 0.132,0.016 0.52,0.548 0.226,0.15 0.332,0.398 0.75,0.048 0.9,-0.428 0.42,0.174 0.2,-0.032 0.66,-0.406 0.43,-0.116 0.288,-0.3 0.292,0.324 0.652,0.376 0.206,0.394 0.276,0.186 0.092,0.124 -0.398,0.414 -0.05,0.446 -0.426,-0.03 -0.51,0.732 -1.914,1.228 -1.718,-1.048 -0.746,-0.708 -0.5,-0.98 -0.104,-0.802 z m 36.934,25.366 0.064,0.29 0.304,0.282 0.24,-0.268 -0.126,-0.232 -0.038,-0.436 -0.308,-0.394 -0.132,0.334 -0.126,0.078 -0.118,0.266 0.24,0.08 z m 12.654,5.768 0.246,0.004 0.4,-0.132 0.208,-0.28 0.218,0.072 0.434,-0.512 0.292,-0.252 0.776,-0.084 -0.524,-0.65 -0.094,-0.046 -0.724,0.252 -0.932,0.166 -0.36,0.35 -0.372,0.574 -0.084,0.512 0.066,0.162 0.45,-0.136 z m 16.436,-37.668 0.136,-0.39 -0.242,-0.19 -0.288,0.398 0.248,0.336 0.146,-0.154 z m -31.258,6.952 0.802,-1.046 0.218,-1.036 -0.274,0.07 -0.026,0.456 -0.094,0.306 -0.126,0.11 -0.218,0.194 -0.5,0.832 -0.214,0.206 0.028,0.256 0.404,-0.348 z m -23.04,-1.222 0.448,0.878 0.112,-0.088 0.202,-0.76 -0.182,-0.356 -0.02,-0.618 -0.082,-0.164 -0.23,0.338 -0.302,0.05 0.182,0.448 -0.128,0.272 z m 21.808,2.386 0.512,-0.42 0.05,-0.246 -0.17,0.12 -1.022,0.508 -0.488,0.572 0.888,-0.424 0.23,-0.11 z m 2.624,23.212 0.09,-0.042 0.154,-0.18 -0.074,-0.5 -0.176,0.24 0.006,0.482 z m 29.66,-28.568 -0.03,0.158 0.064,0.36 0.304,0.17 0.468,-0.326 -0.432,-0.64 -0.374,0.278 z m -31.59,28.312 0.064,0.256 0.094,0.03 0.336,-0.024 0.122,-0.488 -0.148,-0.06 -0.356,0.054 -0.112,0.232 z m 2.148,-7.998 -0.552,-0.226 -0.208,-0.246 -0.026,-0.244 0.24,-0.73 0.15,-0.22 0.158,-0.062 0.352,-0.4 -0.084,-0.232 -0.114,-0.132 -0.142,-0.074 -0.228,0.526 -0.262,0.016 -0.242,-0.238 -0.106,-0.446 0.034,-0.256 -0.26,-0.032 -0.408,0.26 -0.276,0.416 -0.614,0.41 -0.074,0.84 0.092,0.662 -0.2,0.284 -0.318,0.208 0.156,0.098 0.544,0.032 1.062,0.264 0.636,-0.042 0.736,0.114 0.208,-0.27 0.11,-0.356 -0.094,-0.03 -0.27,0.106 z m 80.56,56.598 0.13,-0.082 0.194,-0.256 -0.122,-0.316 -0.256,-0.448 0.064,-0.396 -0.158,-0.1 -0.176,0.018 -0.192,-0.154 -0.486,-0.184 -0.15,0.424 0.848,1.282 0.304,0.212 z m 10.182,12.314 0.142,-0.17 0.036,-0.424 0.324,-1.05 1.172,-2.776 0.05,-0.526 -0.344,-0.384 -0.09,-1.088 -0.14,-0.058 -0.19,0.066 -0.238,0.156 -0.208,0.308 0.24,0.11 0.312,0.552 -0.082,0.512 -0.214,0.4 -0.848,0.754 0.126,0.674 -0.052,0.322 -0.292,0.582 -0.126,0.636 0.17,1.1 0.252,0.304 z m 2.07,9.69 0.122,-0.094 -0.09,-0.72 0.226,-1.026 -0.194,-0.05 -0.294,0.122 -0.084,0.56 0.064,0.606 0.25,0.602 z m -0.112,1.1 -0.028,1.004 0.172,0.26 0.146,0.034 0.484,-1.734 -0.096,-0.088 -0.484,-0.108 -0.194,0.632 z m -16.188,-31.918 0.18,-0.094 -0.152,-0.474 -0.188,-0.106 -0.02,0.344 -0.126,0.242 0.144,0.102 0.162,-0.014 z m -3.302,-0.78 -0.002,-0.264 -0.088,-0.606 -0.208,0.152 -0.034,0.46 0.134,0.44 0.198,-0.182 z m -21.4,-23.204 0.422,0.414 0.25,0.516 0.354,0.2 0.158,-0.212 0.084,-0.286 -0.242,-0.434 -0.116,-0.558 -0.164,-0.032 -0.102,0.09 -0.248,0.082 -0.494,-0.02 0.098,0.24 z m -21.534,-46.306 0.334,-0.352 -0.224,-0.294 -0.45,0.052 -0.132,0.282 0.118,0.206 0.354,0.106 z m 37.362,57.282 0.116,-0.09 0.066,-0.538 -0.206,0.146 -0.14,0.196 -0.11,0.248 0.148,0.064 0.126,-0.026 z m 0.29,0.902 0.182,0.004 0.134,-0.066 0.008,-0.084 -0.228,-0.334 -0.132,-0.404 -0.236,0.774 0.272,0.11 z m -53.482,-19.158 -0.286,0.242 0.074,0.24 0.21,-0.1 0.626,-0.118 -0.06,-0.306 -0.376,-0.3 -0.188,0.342 z m 33.832,135.592 -0.338,-0.29 -0.736,0.034 -0.052,0.158 -0.032,0.354 0.312,0.216 0.846,-0.472 z m 15.778,11.762 -0.154,-0.138 -0.516,-0.206 -0.998,-1.318 -0.376,-0.23 -0.528,0.768 -0.404,0.282 0.254,0.292 0.36,-0.036 0.166,0.48 -0.086,0.314 0.752,1.15 0.126,0.298 0.15,0.206 0.18,0.156 0.588,-0.208 0.5,-0.448 0.078,0.008 0.054,-0.212 -0.406,-0.33 0.218,-0.25 0.042,-0.578 z m -0.34,3.878 -0.104,-0.074 -0.142,-0.014 -0.426,0.134 0.054,0.166 0.342,0.358 0.276,-0.57 z m -17.448,-14.406 0.798,-0.056 0.472,0.266 -0.034,-0.134 -0.196,-0.338 -0.148,-0.132 -0.392,-0.096 -0.5,0.49 z m -1.932,14.344 0.036,-0.488 -0.042,-0.04 -0.18,0.26 -0.23,0.11 0.21,0.766 0.206,-0.608 z m -48.41,-170.338 -0.142,0.094 -0.068,0.158 0.004,0.208 0.51,0.11 0.132,-0.064 0.212,-0.192 -0.1,-0.486 -0.236,-0.24 -0.312,0.412 z m 127.624,287.3 -0.342,1.914 0.052,0.44 0.188,-0.382 0.376,-1.304 0.074,-0.99 -0.348,0.322 z m -59.332,-118.43 -0.72,0.374 -0.782,-0.006 -0.272,0.174 0.054,0.172 0.462,0.348 0.626,0.044 0.592,-0.168 0.188,0.46 0.288,-0.078 0.394,-0.398 -0.3,-0.48 -0.53,-0.442 z m 0.082,13.412 -0.072,-0.282 -0.148,-0.254 0,-0.27 0.078,-0.576 -0.156,-0.84 0.05,-1.27 -0.054,-0.682 0.016,-0.672 0.126,-0.86 -0.034,-0.868 -0.082,-0.434 -0.036,-0.44 0.042,-1.248 -0.436,-0.682 -1.024,-0.546 -0.362,-0.01 -0.538,0.688 -0.31,-0.006 -1.1,-0.2 -0.238,0.228 -0.442,0.656 -0.258,0.278 -0.376,-0.12 -0.378,-0.214 -0.29,0.024 -0.282,0.176 -0.634,0.08 -0.65,-0.014 -0.394,0.188 -0.354,0.3 -0.116,0.378 0.068,0.436 -0.35,-0.404 -0.35,-0.264 -0.41,0.284 -0.428,0.194 -1.442,0.156 -1.158,-0.336 -1.626,-0.694 -0.258,-0.204 -0.234,-0.26 -0.268,-0.17 -0.616,-0.258 -0.24,-0.296 -0.272,-0.084 -0.312,0.042 -0.45,-0.236 -0.374,-0.416 -0.33,-0.036 -0.368,0.188 -0.65,-0.028 -1.26,-0.48 -0.56,-0.364 -0.05,0.816 -0.358,1.464 0.092,0.726 0.2,0.83 0.374,1.122 0.01,0.362 0.068,0.214 0.772,1.682 0.786,1.37 1.026,1.45 0.118,0.66 -0.134,0.676 0.334,-0.044 0.206,-0.332 0.048,0.33 0.116,0.278 0.876,0.96 0.06,0.254 -0.332,0.794 -0.188,-0.656 -0.348,-0.514 -0.976,-0.814 0.214,1.7 0.174,0.674 1.232,2.91 0.168,0.188 0.28,0.128 0.238,0.232 0.402,0.594 0.68,1.288 0.396,0.372 0.572,-0.118 0.842,0.262 0.288,-0.072 0.178,0.11 0.104,0.3 -0.66,-0.006 -0.642,0.166 -0.07,0.25 0.176,0.282 0.168,0.79 0.806,-0.266 1.272,0.052 0.76,-0.084 0.846,0.718 0.758,0.134 0.222,-0.052 0.454,-0.85 0.282,-1.022 0.174,-0.39 0.234,-0.332 -0.504,-0.438 -0.016,-0.222 0.066,-0.256 0.988,0.764 0.404,-0.308 0.084,-0.686 0,-0.424 0.118,-0.302 0.248,-0.14 0.1,-0.376 0.028,-0.29 -0.256,-0.656 -0.024,-0.378 0.62,0.786 0.248,1.066 0.474,-0.282 0.068,-0.168 -0.074,-0.738 0.212,-0.246 0.672,0.2 0.598,0.428 0.042,0.198 -0.04,0.2 -0.148,0.176 -0.486,-0.18 -0.222,0.312 0.288,0.78 0.488,0.748 0.294,-0.192 0.6,-0.102 0.2,-0.19 -0.128,-1.504 -0.24,-1.1 -0.016,-1.202 0.068,-0.654 0.276,-0.504 0.202,-0.532 -0.026,-0.686 0.1,-0.648 0.246,-0.672 0.344,-0.502 0.16,-0.116 -0.084,-0.14 0.146,-0.434 0.26,-0.318 0.158,0.39 -0.208,0.152 -0.122,0.17 0.408,0.286 0.122,0.254 0.042,0.28 -0.042,0.348 0.074,0.268 0.23,0.05 0.064,-0.35 -0.066,-0.424 0.054,-0.36 z m 29.382,-95.292 -0.678,-1.216 -0.15,-0.954 -0.238,-0.816 -1.054,-2.292 -0.456,-1.322 0.254,-1.328 -0.438,-4.242 0.454,-2.112 -0.22,-0.258 -0.546,-0.326 -0.242,-0.334 -0.362,-0.792 -0.04,-1.586 -0.7,-0.976 -0.756,-0.446 -0.512,-0.8 -0.344,-0.666 -0.048,-0.37 -0.208,-0.626 -0.58,-0.43 -0.398,-0.204 -0.854,-0.626 -0.418,-0.632 -0.858,-1.798 -0.398,-0.478 -0.792,-0.516 -0.648,-0.03 -0.418,-0.128 -1.484,-1.144 -0.462,-0.25 -0.372,-0.536 -0.556,-0.576 -0.322,-0.424 -0.494,-0.45 -0.338,-1.71 0,-1.66 -0.108,-1.978 -0.514,-0.954 -0.278,-0.308 -0.304,0.102 -0.024,0.616 0.084,0.42 -0.214,0.02 -0.764,-0.544 -0.956,-0.58 -0.516,-0.648 -0.376,-0.608 -0.312,0.024 -0.22,0.096 -0.22,0.748 0.358,1.29 -0.176,0.176 -0.302,-0.298 -0.55,-0.674 -0.286,0.22 -0.378,0.086 -0.33,-0.676 -0.278,-0.426 -0.402,-1.41 -0.36,-1.552 -0.034,-1.122 -0.702,-0.616 -0.274,-1.058 -0.218,-0.294 -0.206,-0.75 -0.81,-0.98 -0.832,-0.692 -0.69,-0.654 -0.594,-0.926 0.26,-0.67 0.422,0.142 0.448,-0.064 -0.358,-0.682 -0.348,-0.458 -0.89,-0.858 -0.414,-0.216 -0.896,-0.126 -0.996,-0.782 -0.61,-0.338 -0.43,-0.054 -0.498,-0.122 -0.352,-0.442 -0.622,-0.146 -0.876,-0.874 -0.43,-0.88 -0.216,-0.324 -0.294,-0.244 -0.432,0.146 -0.356,0.066 -0.784,-0.124 -0.258,-0.358 -0.506,-0.454 -0.974,-0.12 -0.77,-0.286 -0.588,-0.282 -0.596,-0.36 -0.548,-0.6 -0.486,-0.802 0.084,-1.028 0.122,-0.666 -0.62,-0.258 -1.07,-1.394 -0.052,-0.57 0.288,-1.164 0.292,-2.004 -0.426,-1.488 -0.83,-1.814 0.056,-0.92 -0.418,-0.012 -0.464,-0.18 -0.654,-0.894 -0.496,-0.588 -0.334,-0.542 -0.362,-0.734 0.058,-0.588 0.086,-0.396 0.036,-1.048 -0.462,-1.018 -0.146,-1.042 -0.438,-1.302 0.122,-0.864 -0.096,-0.712 -0.136,-0.616 0.142,-0.392 0.058,-0.498 -0.604,-0.498 -0.648,-0.38 -0.836,-0.672 -1.502,-1.048 -0.346,-0.792 -0.636,-0.708 -0.85,0.274 -0.626,0.13 -0.584,0.534 -0.808,0.394 -0.784,-0.356 -0.372,-0.3 -0.276,-1.06 -0.358,-1.156 -0.304,-0.58 -0.228,-0.7 0.214,-1.706 -0.32,-0.802 -0.1,-1.198 -0.304,-1.368 -0.338,-0.684 0.024,-0.55 -0.628,-0.806 -0.2,-0.578 -0.356,-0.208 -0.452,-0.33 -0.064,-0.442 0.034,-0.322 0.27,-0.534 0.146,-0.692 -0.63,-0.172 -0.438,-0.03 -0.306,-0.218 -0.344,-0.338 -0.124,-1.076 0.012,-1.14 -0.09,-0.712 -0.188,-0.53 -0.132,-0.56 -0.318,-0.596 -0.956,-0.774 0.07,-0.312 0.222,-0.404 -0.338,-0.232 -0.496,0 -0.28,0.54 -0.452,0.464 -0.886,0.354 -0.166,1.856 -0.55,2.04 -0.5,1.506 0.092,0.456 -0.04,0.446 -0.27,-0.2 -0.238,-0.25 -0.364,0.596 -0.658,1.546 -0.06,0.802 0.386,0.216 0.27,0.212 0.322,0.07 0.146,0.198 0.082,0.388 0.208,0.334 -0.052,0.362 -0.25,-0.142 -0.526,0.002 -0.268,0.314 -0.678,0.628 0.178,1.808 -0.318,0.952 -0.306,0.738 -0.346,1.4 0.046,0.742 0.306,0.528 0.33,0.772 -0.2,1.064 -0.202,0.762 0.452,2.208 0.126,1.176 -0.248,0.802 -0.728,2.372 -0.328,1.736 0.106,0.958 -0.316,0.88 -0.36,1.408 -0.406,1.064 -1.422,2.148 -0.282,1.04 -0.478,1.296 -1.022,0.756 -0.772,0.472 -1.692,0.468 -0.976,-0.01 -0.504,-0.286 -0.29,-0.248 -1.15,-0.414 -1.398,-0.936 -1.076,-0.304 -0.532,-0.94 -0.052,-0.39 -0.192,-0.508 -0.564,-0.668 -1.064,-0.226 -1.092,-0.482 -0.674,0.068 -1.462,-0.414 -0.974,-0.59 -0.89,-0.818 -1.174,-1.416 -0.996,-0.382 -1.274,-0.586 -0.732,-0.488 -0.444,-0.236 -0.492,-0.366 -0.448,0.082 -0.774,0.01 -0.486,-0.344 -0.062,-0.27 0.074,-0.212 0.028,-0.386 -0.17,-0.058 -0.172,0 -0.142,0.104 -0.198,0.076 -0.684,-0.296 -0.958,-0.494 -0.18,-0.434 -0.302,-0.53 -1.324,-0.77 -0.768,-0.636 -1.696,-0.922 -0.434,-0.446 -0.142,-0.39 -0.126,-0.562 0.38,-0.584 0.37,-0.414 1.154,-1.718 0.346,-0.3 0.434,-0.466 0.398,-1.254 0.198,-0.716 -0.338,-1.084 -0.012,-1.82 1.34,-0.706 0.374,-0.092 0.346,-0.156 0.396,0.22 0.266,0.342 0.276,-0.062 0.748,-1.268 -0.12,-0.528 -0.31,-0.45 0.108,-0.278 2.304,-2.482 -0.282,-0.608 -0.342,-0.14 -0.656,0.042 -0.618,-0.53 -0.388,-1.002 -0.544,-0.036 -0.972,1.028 -0.114,0.236 0.236,0.134 0.206,0.624 -0.38,0.732 -0.38,0.006 -0.624,-0.072 -0.284,-0.522 -0.128,-0.796 -0.396,-0.224 -0.452,0.15 -0.374,0.28 -0.264,0.08 -0.22,-0.182 -0.012,-0.332 0.57,-0.552 0.478,-0.354 0.038,-0.132 -0.348,-0.108 0.052,-0.256 0.444,-0.454 -0.208,-0.024 -0.542,0.486 -0.578,0.28 -0.768,0.596 -1.102,0.39 -0.756,0.528 -1.054,-0.16 -0.982,-0.52 -0.214,-0.274 -0.484,-0.402 -1.078,0.436 -0.678,-0.046 -0.374,-0.154 -0.638,-0.104 -0.548,-0.386 -1.32,-0.616 -1.402,-0.118 -0.68,0.028 -0.506,-0.318 -0.488,-0.182 -0.958,-0.128 -0.398,-0.478 -0.502,-0.962 -0.36,-0.258 -0.582,-0.092 -0.618,0.442 -0.362,0.208 -0.706,-0.79 -1.254,-0.816 -0.4,-0.112 -0.21,0.198 -0.152,0.376 -0.238,0.036 -0.278,-0.17 -0.49,-0.482 -0.32,-0.088 -0.84,0.514 0.058,0.176 0.686,0.262 0.72,0.718 0.342,0.148 0.808,-0.188 1.108,0.136 1.118,0.896 -0.164,0.446 -0.084,0.62 0.03,0.676 -0.026,0.458 0.46,0.504 -0.206,0.038 -0.52,-0.114 -0.41,0.14 -0.386,0.238 -0.172,0.678 -0.218,-0.32 -0.668,-0.304 -0.396,0.234 -0.664,0.308 -0.604,-0.124 -0.384,-0.156 -0.908,0.264 -1.618,-0.008 -0.54,-0.38 -0.158,-0.652 -0.126,-0.16 -0.148,0.292 -0.254,0.336 -0.978,0.068 -0.146,0.138 0.058,0.326 -0.038,0.41 -0.376,0.03 -0.464,0.108 0.05,0.502 0.086,0.392 -0.172,0.196 -0.51,-0.358 -0.228,-0.386 -0.358,-0.12 -0.28,0.138 -0.072,0.344 0.042,0.888 -0.254,0.1 -0.662,-0.034 -0.304,0.168 -0.458,1.116 -0.842,0.426 -0.128,0.582 -0.056,0.496 0.7,0.898 -0.338,0.46 -0.356,0.376 -0.356,0.16 -0.756,0.146 -0.556,0.41 -0.234,0.432 -0.044,0.412 -0.154,0.528 -0.242,0.626 -0.048,0.338 -0.506,0.336 -0.9,1.006 -0.454,1.03 0.592,0.56 0.696,0.402 0.506,-0.012 0.004,0.102 -0.528,0.414 0.328,0.424 0.506,0.396 0.308,0.058 0.226,0.168 -0.478,0.094 -0.708,0.034 -0.136,0.432 0.086,0.498 0.126,0.432 -0.088,0.306 -0.264,-0.21 -0.116,-0.324 -0.608,-0.66 -0.436,-0.202 -0.638,-0.156 -0.192,0.2 0.026,1.006 -0.126,0.462 -0.226,-0.262 -0.056,-0.736 -0.602,-0.596 -2.372,-0.596 -0.336,-0.038 -0.552,0.078 -0.378,0.236 -0.038,0.232 -0.252,0.188 -0.41,0.214 -0.376,0.328 -0.244,0.274 -0.012,0.342 0.304,0.642 0.178,0.186 -0.024,0.306 -0.296,-0.318 -0.26,-0.102 -0.246,0.5 -0.236,0.1 0.062,-1.396 0.246,-0.946 0.2,-0.558 0.22,-0.436 -0.106,-0.23 -1.644,-1.306 -0.696,-1.07 -0.51,-0.6 -0.794,-0.578 -0.414,-0.364 -0.922,-0.556 -1.088,-0.386 -0.524,-0.522 -0.578,-0.186 -0.716,0.254 -0.06,0.486 0.09,0.472 -0.57,0.772 -0.614,0.412 -0.49,-0.472 -0.446,-0.344 -0.45,0.248 -0.136,0.426 -0.226,0.158 -0.17,-0.29 -0.246,-0.64 -0.366,-0.254 -0.366,0.112 0.11,0.508 0.21,0.28 -0.058,0.404 -0.264,0.186 -0.05,0.382 -0.158,0.508 0.024,0.71 -0.418,0.15 -0.312,0.562 -0.226,-0.12 -0.058,-0.366 -0.114,-0.374 -0.456,-0.142 -0.168,0.348 -0.102,0.118 -0.162,0.024 0.11,-0.284 0,-0.532 0.132,-0.556 -0.432,-0.2 -0.172,0.124 0.006,0.48 -0.104,0.7 -0.428,0.11 -0.38,0.314 -0.562,0.006 -0.286,0.152 -0.102,0.37 -0.494,0.382 0.01,0.458 0.332,0.464 0.022,0.404 0.79,0.41 -0.046,0.412 -0.112,0.192 -0.298,-0.076 -0.638,-0.356 -0.65,-0.076 -0.196,-0.164 -0.078,0.118 -0.004,0.274 -0.252,0.2 -0.362,0.02 -0.422,0.294 0.3,0.46 -0.054,0.182 0.148,0.22 0.644,0.04 0.274,-0.058 0.028,0.392 -0.082,0.392 -0.262,0.14 -0.25,-0.36 -1.242,-0.69 -0.326,-0.066 -0.068,0.216 0.058,0.282 -0.262,0.342 -0.462,0.448 -0.314,-0.122 -0.372,0.106 -0.24,0.766 -0.084,0.766 0.412,0.536 0.276,0.706 0.574,-0.868 0.234,-0.1 0.002,0.376 -0.224,0.39 -0.132,0.48 -0.044,0.542 -0.376,0.014 -0.422,-0.072 -0.102,0.172 -0.158,0.404 0.092,0.558 0.28,0.21 0.65,-0.02 0.554,0.04 0.494,0.202 0.082,0.17 -0.446,-0.096 -0.912,0.052 -0.434,-0.076 -0.862,0.052 -0.64,-0.318 -0.316,-0.318 -0.478,-0.082 -0.466,0.128 -0.26,0.446 -0.314,0.108 -0.73,-1.104 -0.458,-0.074 -0.226,0.258 0.22,0.692 -0.116,0.426 -0.25,0.318 -0.316,-0.02 -0.196,0.134 0.156,0.292 0.5,0.742 0.41,0.324 0.364,0.45 0.186,0.388 0.44,-0.018 0.102,0.314 -0.252,0.456 0.008,0.724 -0.18,0.038 -0.254,-0.16 -0.504,-0.446 -0.26,-0.086 -0.134,0.128 -0.042,0.306 0.122,0.8 -0.258,1.142 0.052,0.334 -0.046,0.284 -0.212,-0.206 -0.26,-0.442 -0.538,-0.686 -0.658,-1.494 -0.696,-1.012 -0.378,-0.862 -0.582,-1.622 -0.302,-0.024 -0.386,0.698 -0.426,0.918 -0.29,0.452 -0.688,0.45 -0.424,0.456 -0.508,0.16 -0.558,0.52 -0.402,0.446 -0.564,1.04 -0.096,0.67 0.024,0.706 0.246,1.002 0.26,1.456 0.382,0.156 0.308,0.246 -0.086,0.44 -0.468,0.278 -1.436,1.378 -0.966,0.492 -0.276,0.346 -0.354,0.73 -0.512,0.922 -0.232,0.582 -0.538,1.128 -0.876,1.26 -0.886,0.936 -1.022,0.75 -0.67,0.358 -2.496,1.048 -1.332,0.4 -2.406,0.292 -1.02,0.474 -1.276,-0.154 -1.428,-0.102 -1.982,1.584 -1.644,0.386 -1.456,0.29 -0.626,0.26 -1.432,0.914 -0.834,0.418 -1.556,0.468 -0.638,-0.048 -0.862,-0.43 -0.806,0.1 -0.892,-0.062 -0.728,0.04 -0.566,0.356 -3.338,1.892 -0.66,0.516 -0.686,0.75 -0.984,0.694 -0.786,0.8 -1.652,0.834 -1.7,0.632 -0.84,0.526 -0.598,0.714 -1.042,1.92 -0.22,0.486 -0.416,0.506 -0.552,0.184 -0.358,0.164 0.126,-0.964 -0.398,-0.856 0.28,-1.634 -0.104,-0.488 -0.568,0.318 -0.362,0.348 -0.918,2.368 -0.628,1.846 0.476,1.06 0.154,0.616 -0.002,0.662 -0.168,0.952 0.012,0.62 -0.056,0.826 -1.144,1.916 -0.356,0.834 -0.384,1.604 -0.046,0.744 0.028,1.114 0.482,0.976 0.368,0.604 0.57,1.748 0.684,1.162 1.126,2.342 1.242,1.9 0.08,0.728 -0.14,0.98 0.068,1.014 -0.222,0.298 -0.48,0.35 -0.55,-0.45 -0.28,-0.39 -0.352,-1.436 -0.144,-0.082 -0.236,0.628 -0.26,0.274 -0.236,-0.186 -0.18,-0.238 -0.044,-0.248 0.08,-0.296 0.086,-1.076 -0.516,-0.614 -0.458,-0.66 -0.494,-0.162 -0.304,0.298 -0.01,0.41 0.662,1.148 0.426,1.244 0.658,0.778 0.388,0.2 0.434,0.474 -0.094,1.05 -0.314,0.392 -0.262,0.2 -0.854,-0.232 -0.198,-0.756 -0.668,-1.486 -0.216,-0.576 -0.184,-0.156 -0.074,0.284 0.014,0.512 -0.124,0.22 -0.13,-0.022 -0.264,-0.268 -0.238,-0.144 -0.144,0.05 0.26,0.37 0.572,1.096 2.112,2.688 1.79,3.132 0.394,1.24 0.198,2.728 0.178,0.66 1.056,1.358 1.034,1.574 0.304,0.784 -0.006,0.672 0.21,0.638 1.284,1.732 0.572,1.86 0.07,0.68 -0.164,1.168 0.15,2.066 0.144,1.124 0.466,2.228 0.556,1.608 0.658,1 0.9,2.224 1.368,2.568 0.222,1.27 -0.07,3.386 -0.098,1.104 -0.3,0.19 -0.202,0.466 0.292,2.228 0.068,1.272 -0.442,1.2 -0.5,1.066 -0.878,0.728 -0.994,0.024 -0.462,-0.424 -0.59,-0.434 -0.104,1.938 -0.012,1.664 0.18,0.634 0.02,0.748 0.668,0.582 0.376,-0.226 0.464,-0.032 1.614,0.824 0.906,0.68 1.46,1.828 1.292,0.482 1.684,0.832 1.956,0.264 1.564,0.048 2.458,0.438 0.526,-0.156 1.052,-0.136 0.804,-0.284 0.724,-0.182 2.16,-1.698 2.106,-1.748 1.042,-0.138 0.934,-0.02 1.14,-0.596 1.036,-1.806 0.528,-0.402 0.702,-0.45 1.994,-0.264 1.174,0.186 0.628,-0.292 1.594,-0.326 3.316,-0.3 1.82,0.242 1.216,-0.04 0.644,0.12 0.504,0.79 3.518,-0.68 1,-0.048 0.626,0.114 0.788,0.59 0.884,-0.558 0.794,0.074 0.804,-0.538 1.222,-1.612 0.556,-1.006 0.89,-2.118 0.66,-0.76 0.726,-0.378 0.852,-0.122 1.314,-0.382 2.85,-1.782 1.106,-0.384 0.584,-0.336 1.962,-1.382 1.23,-0.266 3.608,0.358 1.71,-0.092 1.324,-0.216 2.01,-0.744 2.188,-0.56 2.686,-1.176 2.244,-1.216 1.358,-0.28 2.138,-0.214 3.148,-0.316 3.666,0.164 0.928,-0.25 0.456,-0.222 0.642,-0.238 0.792,0.166 0.608,0.18 1.84,0.97 2.772,2.042 0.612,0.086 1.824,-0.466 0.61,0.046 2.552,1.5 1.058,0.032 0.846,-0.038 0.64,0.162 0.68,0.408 0.806,0.944 1.706,0.906 0.086,0.732 -0.126,0.476 -0.384,0.018 -0.326,0.102 0.41,1.534 0.716,1.24 1.72,0.168 0.626,0.434 0.402,0.49 0.314,0.778 0.234,1.218 0.862,1.016 0.804,0.868 0.188,0.358 0.378,1.23 0.144,0.36 0.314,1.218 0.458,1.392 -0.126,0.142 -0.272,-0.03 -0.484,-0.354 -0.426,-0.394 -0.228,0.062 -0.26,0.27 -0.038,0.334 0.38,-0.088 0.222,0.048 0.526,0.426 0.49,0.496 0.388,0.29 0.936,1.236 0.366,-0.276 0.448,-0.246 0.712,0.672 0.284,0.134 0.162,-0.258 -0.27,-1.206 -0.27,-0.292 -0.064,-0.428 0.334,-0.306 0.162,-0.366 0.794,-0.902 1.738,-2.694 0.534,-0.308 0.616,-0.59 0.832,-0.45 0.86,-0.534 0.548,-0.208 0.538,-0.11 0.602,-0.494 0.656,-1.336 0.494,-1.582 0.528,-0.696 0.808,-0.742 0.622,-1.03 -0.05,-0.806 0.008,-0.822 0.448,0.634 0.282,0.644 0.446,2.154 -0.382,0.474 -0.404,0.238 0.078,0.756 0.27,0.986 0.1,0.79 -0.848,0.834 -0.732,1.048 -0.878,2.036 -0.056,0.616 -0.138,0.856 0.052,0.754 0.136,0.73 -0.216,1.132 -0.354,1.012 -0.464,0.026 -0.316,-0.038 -0.694,0.09 -0.64,-0.06 -0.734,2.212 0.466,0.104 0.356,-0.126 0.642,0 0.718,-0.396 1.05,-0.324 0.6,0.114 0.704,-0.036 1.024,-2.832 0.254,-1.842 0.522,-0.826 0.162,-0.57 0.27,-0.54 0.544,0.928 0.438,0.902 0.964,1.464 0.302,0.73 0.12,1.776 -0.626,2.06 -0.376,0.59 -0.454,0.514 -0.38,0.866 1.15,0.22 0.746,-0.016 1.166,-0.63 0.23,-0.084 0.586,-0.01 0.224,-0.33 0.574,-0.314 0.428,-0.368 0.554,-0.29 0.504,0.192 0.114,0.166 0.126,0.186 -0.186,0.408 -0.016,0.862 -0.33,-0.094 -0.294,-0.512 -0.368,0.132 -0.256,0.386 -0.55,-0.122 0.092,0.252 0.294,0.494 1.162,0.952 1.242,1.262 0.462,0.596 1.012,1.902 0.72,2.022 -0.058,0.598 -0.354,1.08 -0.254,1.098 0.022,0.576 0.234,0.73 0.51,0.748 1.892,2.042 1,1.8 1.33,0.934 2.154,0.344 1.138,0.676 1.182,1.364 0.376,0.116 0.574,0.056 0.736,-0.83 1.122,0.088 1.476,0.824 0.878,-0.196 0.626,0.102 0.876,0.466 1.282,0.922 1.36,0.464 0.808,0.698 0.628,0.104 1.126,0.454 0.828,-0.388 0.704,-0.488 1.626,-1.69 1.274,-0.814 0.67,-0.316 0.538,-0.14 0.682,-0.528 -0.424,-0.372 -0.402,0.062 -0.688,-0.21 0.392,-0.244 0.41,-0.182 1.98,-1.256 0.526,0.372 0.364,0.416 0.394,0.57 -0.296,0.806 -0.264,0.38 -0.61,0.61 -0.736,0.024 -0.35,-0.05 0.726,0.684 0.628,0.46 1.3,-0.836 0.324,-0.658 0.246,-0.382 0.412,-0.084 0.616,0.128 0.238,0.482 0.134,0.588 -0.446,0.16 -0.216,0.436 -0.152,0.414 0.776,0.532 0.398,0.338 0.48,-0.008 0.554,0.082 0.42,0.782 0.392,0.902 0.464,-0.25 0.29,-0.236 0.496,0.226 0.54,0.71 0.438,0.806 0.044,0.34 0.336,0.156 0.318,-0.24 0.152,-0.34 -0.012,-0.626 -0.086,-0.988 -0.222,-0.15 -0.506,0.536 -0.288,-0.388 -0.388,-0.412 0.006,-0.398 0.422,-0.198 0.358,0.086 0.448,0 2.364,-0.346 3.024,-3.17 1.324,-1.162 1.376,-0.862 1.424,-0.554 0.742,-0.178 3.824,-0.298 1.99,0.096 1.024,-0.218 0.474,-0.292 0.804,-0.798 0.564,-0.488 0.692,-0.136 0.168,-0.596 0.002,-0.638 0.132,-0.666 -0.202,-1.25 0.054,-1.642 0.156,-0.856 0.418,-1.202 0.184,-1.234 0.188,-1.748 0.166,-1.036 0.208,-0.946 0.542,-1.042 0.46,-0.674 1.086,-2.536 0.376,-0.25 0.314,0 0.136,-0.154 0.042,-0.14 -0.092,-0.102 -0.138,-0.294 0.092,-0.238 0.33,-0.236 0.104,0.09 0.168,-0.05 0.026,-0.13 -0.156,-0.694 0.228,-0.972 0.278,-1.698 0.314,-0.762 0.186,-0.606 0.726,-0.91 0.794,-0.896 -0.226,-0.096 -0.372,-0.068 0.24,-0.214 0.19,-0.064 0.242,0.142 0.2,-0.394 0.044,-0.618 0.194,-0.912 -0.172,-0.794 0.368,-0.248 0.418,-0.15 0.176,-0.832 0.116,-0.334 0.26,-0.31 0.436,-0.662 0.342,-0.69 0.81,-1.316 0.792,-0.538 1.18,-0.416 0.132,-0.238 -0.3,-0.146 0.012,-0.144 0.444,0 0.18,-0.46 0.468,-0.34 0.782,-0.784 0.26,-0.72 0.162,-0.576 0.078,-1.302 1.272,-1.708 0.886,-2.306 0.214,-1.478 0.22,-0.798 0.148,-1.168 -0.134,-1.216 0.038,-1.018 0.884,-2.584 0.202,-1.066 0.272,-0.684 0.418,-2.546 0.008,-1.32 0.64,-1.536 0.798,-1.25 0.068,-1.156 -0.268,-0.888 0.038,-1.876 z m -131.594,-97.924 1.044,-0.302 1.04,0.364 0.582,-0.108 -0.02,-0.246 -0.128,-0.206 -0.212,-0.194 -0.462,-0.134 -0.148,-0.498 -0.266,-0.468 -0.048,-0.512 -0.21,-0.472 -0.248,0 -0.246,0.134 -0.552,0.666 0.194,0.364 0.058,0.666 -0.328,0.22 -0.376,-0.092 -0.162,0.608 0.188,0.216 0.3,-0.006 z m -95.416,83.572 -0.002,-0.432 -0.2,-0.418 -0.638,-1.826 -0.2,0.07 -0.216,0.238 0.314,1.32 1.078,1.934 0.148,-0.256 -0.194,-0.492 -0.09,-0.138 z m 12.664,-30.948 0.326,-0.466 0.062,-0.426 -0.128,-0.288 -0.45,0.466 -0.258,0.386 0.052,0.236 0.396,0.092 z m 51.28,-31.978 0.2,0.05 0.21,-0.164 0.044,-0.262 -0.228,-0.264 -0.076,-0.234 -0.178,-0.016 -0.086,0.144 -0.12,0.278 0.23,0.244 0.004,0.224 z m 3.786,-4.862 -0.03,-0.156 0.026,-0.448 -0.214,-0.108 -0.238,0.208 -0.146,0.576 0.244,0.288 0.358,-0.36 z m 124.35,184.796 -0.142,0.262 -0.046,0.236 -0.128,0.126 0.234,0.166 0.062,0.376 0.128,0.064 0.352,0 -0.208,-0.94 -0.252,-0.29 z m -0.226,1.534 -0.16,-0.01 -0.28,0.396 -0.08,0.314 -0.12,0.06 -0.078,0.22 -0.122,0.172 -0.328,-0.134 0.002,0.14 0.274,0.532 0.436,-0.13 0.436,0.136 0.264,-0.8 -0.076,-0.39 -0.168,-0.506 z m 4.662,-5.076 -0.394,-0.174 -0.282,0.36 0.046,0.174 -0.008,0.392 0.106,0.034 0.314,-0.068 -0.022,-0.226 0.386,-0.22 -0.146,-0.272 z m -57.332,-49.754 -0.522,0.248 -1.344,-0.162 0.01,-0.114 0.208,-0.452 -0.284,-0.25 -0.306,-0.104 -1.102,-0.086 -1.36,0.49 -2.542,0.586 -0.336,0.412 -0.214,0.562 0.274,0.312 0.93,0.676 0.884,0.092 0.634,-0.158 0.684,0.106 0.348,-0.392 0.968,0.266 0.372,0.374 0.796,-0.33 0.18,-0.614 0.274,-0.278 0.924,-0.208 0.99,0.274 0.306,-0.048 0.32,-0.334 -0.432,-0.67 -0.66,-0.198 z m 34.756,28.71 -0.166,-1.07 -0.508,-0.42 -0.292,0.026 -0.054,0.54 -0.336,0.304 -0.098,0.276 0.018,0.626 -0.148,0.582 0.276,0.58 -0.066,0.586 0.128,0.412 0.164,-0.03 0.6,-0.276 0.434,-0.41 0.162,-0.5 -0.196,-0.582 0.082,-0.644 z m -115.21,-172.508 -0.004,-0.058 -0.126,-0.01 0.004,0.058 0.126,0.01 z" title="Australia" id="AU"></path></svg>