<svg xmlns="http://www.w3.org/2000/svg" viewBox="0 0 6.13 4.44"><path d="m 2.64,0.62 0.172,0.002 0.078,-0.096 0.3,0.068 0.452,0.438 0.092,0.238 0.31,0.122 0.108,0.246 -0.36,0.764 -0.222,0.014 -0.166,-0.096 -0.294,0.084 -0.172,0.144 -0.058,0.318 0.01,0.664 -1.314,0.132 -0.302,-0.194 -0.414,-1.51 0.084,-0.392 0.278,-0.166 0.238,-0.036 0.036,0.816 0.35,-0.082 0.11,-0.538 0.024,-0.378 -0.094,-0.192 -0.238,-0.148 -0.138,-0.254 0.198,-0.41 0.366,-0.178 0.316,0.548 0.25,0.072 z m -1.838,1.854 0.03,0.252 -0.214,-0.064 -0.166,0.086 -0.112,0.31 -0.244,-0.112 -0.098,-0.446 0.182,-0.668 0.434,-0.026 0.188,0.668 z m 5.328,1.646 -0.044,0.266 -0.458,0.058 -0.192,-0.236 -0.428,0.03 -0.074,-0.118 0.178,-0.236 0.34,-0.148 0.444,0.06 0.234,0.324 z" title="Aland Islands" id="AX"></path></svg>