<svg xmlns="http://www.w3.org/2000/svg" viewBox="0 0 21.59 20.63"><path d="m 6.64,-0.48 1.16,0.832 0.478,0.124 0.27,-0.114 0.366,0.052 0.816,0.244 0.186,0.102 0.246,-0.018 0.602,-0.324 0.206,0.04 0.688,0.636 0.346,0.008 0.416,-0.274 0.268,-0.238 0.792,0.178 0.452,-0.108 0.376,-0.01 0.408,0.108 0.372,0.148 0.362,0.128 0.978,0.066 0.468,0.404 0.188,0.39 0.004,0.238 0.046,0.254 0.268,0.25 0.59,0.142 0.37,-0.03 0.196,-0.018 0.502,-0.224 0.592,-0.116 0.424,0.134 0.202,0.13 0.046,0.178 -0.126,0.614 -0.238,0.66 -0.386,0.686 -0.404,0.646 -0.104,0.34 -0.03,0.544 -0.05,0.426 0.056,0.232 0.132,0.218 0.446,0.172 0.604,0.428 0.512,0.556 0.658,0.63 0.204,0.234 0,0.252 -0.192,0.186 -0.562,0.072 -0.584,-0.056 -0.224,-0.064 -0.21,0.076 -0.13,0.144 0.07,0.17 0.598,0.764 0.698,1.094 0.038,0.47 -0.084,0.368 -0.162,0.256 -0.288,-0.044 -0.222,-0.2 -0.334,0.014 -0.26,0.056 -0.338,0.396 -0.168,-0.018 -0.29,0.06 -0.182,0.078 -0.29,-0.116 -0.306,-0.076 -0.132,0.122 -0.058,0.232 0.188,0.418 0.354,0.654 -0.056,0.5 -0.27,0.054 -0.248,-0.416 -0.218,-0.068 -0.25,0.016 -0.572,0.482 -0.422,0.406 -0.096,0.282 -0.152,0.308 -0.046,0.224 0.01,0.742 -0.758,0.118 -0.158,0.11 -0.092,0.224 0.062,0.95 0.062,0.51 0.434,0.784 0.016,0.248 -0.062,0.164 -0.31,0.31 -0.146,0.112 -0.098,0.036 -0.504,-0.204 -0.24,-0.098 -1.01,-0.692 -0.446,-0.386 -0.706,-0.504 -0.434,-0.288 -0.22,-0.436 -0.348,-0.1 -0.408,0.14 -0.462,-0.316 0.328,-0.162 0.08,-0.156 -0.042,-0.204 -0.144,-0.276 -1.248,-1.196 -0.614,-0.82 -0.098,-0.294 -0.01,-0.784 -0.144,-0.188 -0.918,-0.358 -1.024,-1.022 -1.06,-1.006 -0.144,-0.28 -0.544,-0.762 -0.666,-0.694 -0.53,-0.444 -0.434,-0.504 -0.482,-0.708 -0.25,-1.07 -0.222,-0.952 -0.15,-0.37 -0.306,-0.132 -0.948,-1.134 -0.806,-0.66 0.008,-0.714 0.132,-1.194 0.15,-1.358 0.194,-0.19 0.368,-0.102 0.42,0.038 0.366,0.17 0.724,0.93 0.414,0.362 0.35,0.14 0.402,-0.392 0.496,-0.822 0.434,-0.434 1.46,0.158 z" title="Bosnia and Herzegovina" id="BA"></path></svg>