<svg xmlns="http://www.w3.org/2000/svg" viewBox="0 0 25.86 35.24"><path d="m 25.54,28.12 0.044,0.228 0.008,1.992 0.05,0.85 0.18,0.7 0.036,0.266 -0.178,0.216 -0.176,0.042 -0.166,-0.338 -0.376,-0.258 -0.556,-0.276 -0.236,-0.184 -0.286,0.074 -0.402,0.418 -0.16,0.388 0.07,0.544 0.126,0.536 0.28,0.306 0.022,0.338 0.1,0.438 0.144,0.4 0.068,0.434 -0.092,0.008 -0.334,-0.556 -0.3,-0.602 -0.778,-1.14 -0.254,-2.044 -0.016,-1.012 -0.534,-1.192 -0.354,-1.652 -0.142,-0.43 0.186,-0.536 0.032,-0.2 -0.1,0.044 -0.272,0.276 -0.354,-0.66 -0.232,-0.592 -0.916,-1.226 -0.266,-0.542 -0.012,-0.53 -0.396,0.532 -0.538,0.374 -0.548,0.562 -0.364,0.17 -1.154,0.104 -0.668,-0.752 -0.958,-1.842 -0.126,-0.416 0.126,-1.086 -0.228,-1.03 0.004,-0.542 -0.068,-0.364 -0.172,0.08 -0.066,0.25 0.038,0.382 -0.07,0.32 -0.828,-0.062 -0.78,-0.146 0.686,0.542 0.738,0.126 0.38,0.484 0.046,0.378 -0.024,0.426 -0.376,0.298 -0.346,0.188 0.062,0.408 0.42,0.496 -0.508,0.14 -0.138,0.324 -0.012,0.462 0.256,0.408 0.102,0.302 -0.062,0.278 0.248,0.298 0.36,0.626 0.116,0.444 -0.15,0.626 -0.206,0.244 -0.33,0.236 -0.776,0.788 -0.38,0.896 -0.322,0.418 -0.404,0.078 -0.156,-0.184 -0.334,-0.24 -0.008,-0.438 0.102,-0.346 0.682,-0.838 -0.372,0.112 -0.42,0.24 -0.64,0.454 -0.204,-0.562 -0.134,-0.52 -0.002,-0.638 0.514,-0.954 -0.582,0.476 -0.16,0.594 0.072,0.7 -0.076,0.496 -0.226,0.646 -0.31,0.388 -0.5,0.25 -0.22,0.382 -0.336,0.28 -0.01,-0.56 -0.108,-0.74 -0.362,-1.758 -0.078,0.378 0.188,1.09 -0.012,0.708 -0.274,0.56 -0.55,0.6 -0.422,0.084 -0.248,-0.092 -0.376,-0.372 -0.412,-0.532 -0.068,-0.856 -0.17,-0.47 0.026,-0.562 -0.034,-0.532 -0.442,-1.426 -0.286,-0.732 0.036,-0.236 -0.02,-0.1 -0.132,-0.944 -0.184,-0.578 -0.092,-0.616 0.436,-0.886 -0.176,-0.144 -0.502,-0.118 -0.466,-0.154 -0.114,-0.23 0.208,-0.874 -0.242,-0.342 -0.348,-0.346 -0.11,-0.138 -0.116,-0.18 -0.16,-0.44 0.31,-0.926 0.434,-1.076 0.078,-0.41 0.072,-0.712 0.04,-0.274 -0.056,-0.27 -0.458,-0.312 -0.806,-0.126 -0.57,-0.262 -0.332,-0.396 -0.284,-0.158 -0.35,0.118 -0.446,-0.154 -0.374,-0.394 -0.312,-0.478 0.04,-0.224 0.082,-0.298 0.588,-1.24 0.218,-0.038 0.51,0.238 0.19,0 0.334,-0.49 0.468,-1.398 0.66,0.004 0.582,0.044 0.392,0.072 0.39,-0.044 0.41,-0.112 0.222,-0.176 0.122,-0.224 -0.042,-0.194 -0.502,-0.264 -0.194,-0.198 -0.14,-0.562 -0.146,-0.21 -0.986,-0.03 -0.512,-0.258 -0.282,-0.232 -0.5,-0.766 -0.62,-0.568 -0.592,-0.134 -0.228,-0.184 -0.124,-0.292 0.07,-0.422 0.178,-0.384 0.124,-0.428 0.472,-0.566 0.554,-0.494 0.248,-0.34 0.35,-0.358 0.042,-0.196 -0.06,-0.224 -0.284,-0.214 -0.198,-0.068 -0.032,-0.138 0.136,-0.37 0.27,-0.046 0.562,0.336 0.572,0.542 0.338,0.484 0.014,0.382 0.22,0.062 0.222,0.014 0.372,0.168 0.384,-0.05 0.248,0.094 0.166,-0.034 0.062,-0.22 -0.186,-0.324 -0.136,-0.23 0.156,-0.232 0.178,-0.046 0.198,0.058 0.27,0.208 0.198,0.426 0.038,0.662 0.438,0.598 0.578,0.424 0.452,0.196 0.544,0.14 0.466,-0.134 0.232,-0.416 -0.106,-0.374 0.074,-0.334 0.186,-0.184 0.292,0.012 0.216,0.264 0.634,1.428 -0.13,0.632 0.142,1.732 -0.16,1.14 0.026,0.246 0.074,0.19 0.108,0.078 0.186,-0.002 0.772,0.214 0.65,0.238 0.734,0.216 1.06,0.168 0.65,-0.054 0.324,-0.006 0.658,0.05 1.728,-0.09 1.43,-0.024 0.582,0.164 0.466,0.058 1.592,-0.114 1.608,-0.054 0.87,0.362 0.948,0.59 0.534,0.438 0.096,0.25 -0.058,0.214 -0.178,0.118 -0.328,0.004 -0.75,-0.286 -0.128,0.084 0.014,0.584 -0.024,0.092 -0.16,0.524 -0.452,1.178 -0.088,0.526 -0.096,0.134 -0.118,0.074 -0.354,0.02 -0.278,0.086 -0.116,0.192 -0.18,0.396 -0.126,0.4 -0.172,0.124 -0.414,-0.216 -0.258,0.034 -0.324,0.092 -0.324,0.228 -0.222,0.284 -0.252,0.096 -0.752,-0.056 -0.142,0.04 -0.096,0.202 -0.076,0.254 -0.586,0.6 -0.222,0.962 -0.18,0.624 0.03,0.484 0.494,1.262 0.346,1.636 0.132,0.166 0.116,0.052 0.052,-0.038 -0.012,-0.338 0.022,-0.41 0.162,-0.096 0.208,0.084 0.198,0.356 0.222,0.652 0.238,0.256 0.372,0.072 0.422,-0.154 0.314,-0.294 0.128,-0.32 -0.09,-0.628 -0.02,-0.47 0.202,-0.448 0.724,-0.668 0.104,-0.206 -0.046,-0.57 0.002,-0.536 0.274,-0.036 0.37,0.086 0.464,-0.262 0.142,-0.006 0.196,0.282 0.33,-0.048 0.244,1.164 0.25,1.026 0.002,0.478 0.042,1.048 0.114,0.854 0.178,0.194 0.208,0.456 0.192,0.53 0.15,0.296 0.102,0.966 0.126,0.696 0.166,2.184 0.076,0.418 z m -10.85,-5.948 0.1,0.26 -0.312,-0.156 -0.234,-0.18 -0.144,-0.24 0.244,-0.126 0.346,0.442 z m 0.762,5.278 -0.976,0.212 -0.498,-0.066 0.93,-1.582 -0.032,-0.708 -0.144,-0.578 -0.472,-0.464 -0.026,-0.332 -0.212,-0.454 -0.11,-0.532 0.524,-0.17 0.426,0.304 0.06,0.168 0.092,0.434 0.21,0.452 0.736,0.93 -0.014,0.57 -0.202,1.39 -0.292,0.426 z m 4.372,-1.764 -0.26,0.178 -0.244,-0.154 -0.312,-0.588 0.154,-0.744 0.098,-0.106 0.156,0.242 0.218,0.518 0.142,0.394 0.048,0.26 z m -2.278,1.248 -0.594,0.422 0.194,-2.5 0.444,0.932 0.112,0.498 -0.156,0.648 z m 4.058,2.064 -0.204,0.492 -0.1,-0.358 0.086,-0.454 0.088,-0.25 0.058,0.002 0.12,0.258 -0.048,0.31 z m 0.424,1.946 -0.338,0.028 -0.166,-0.178 0.078,-0.25 -0.092,-0.806 0.286,-0.084 0.146,0.004 0.082,0.238 0.076,0.436 -0.072,0.612 z" title="Bangladesh" id="BD"></path></svg>