<svg xmlns="http://www.w3.org/2000/svg" viewBox="0 0 21.55 17.43"><path d="m 12.86,0.52 0.026,0.186 0.154,0.078 0.538,-0.04 0.272,-0.338 0.216,-0.212 0.16,0.144 0.078,0.416 0.148,0.54 0.642,0.604 0.542,0.172 0.668,-0.118 0.264,-0.108 0.18,0.09 0.178,0.32 0.382,0.364 0.808,0.26 0.246,0.146 0.172,0.246 -0.05,0.348 -0.384,0.87 -0.05,0.256 0.052,0.086 -0.076,0.16 -0.5,0.582 -0.044,0.204 0.166,0.334 0.138,0.276 0.004,-0.054 0.766,-0.25 0.346,0.502 0.568,0.018 0.068,0.162 0.638,0.468 0.196,0.37 0.458,0.358 -0.38,0.452 0.058,0.202 0.136,0.206 0.516,0.12 0.258,0.296 0.016,0.454 0.118,0.736 -1.064,0.732 -0.302,0.816 -0.028,0.16 -0.036,-0.024 -0.116,-0.27 -0.194,0.004 -0.44,-0.114 -0.614,0.736 -0.278,0.612 -0.164,0.448 -0.248,0.362 -0.05,0.382 0.032,0.162 -0.084,0.206 -0.004,0.218 0.352,0.426 0.09,0.232 0.43,0.758 -0.134,0.274 -0.106,0.298 -0.124,0.212 -0.146,0.134 -0.444,-0.008 -0.564,0.094 -0.38,0.15 -0.196,0 -0.408,-0.376 -0.456,-0.564 -0.288,-0.27 -0.132,-0.232 -0.358,-0.098 -0.51,-0.278 -0.354,-0.304 -0.304,-0.19 -0.428,-0.094 -0.354,0.01 -0.102,-0.512 -0.044,-0.584 -0.288,-0.394 0.396,-1.536 -0.236,-0.15 -0.256,0.122 -0.372,0.368 -0.178,0.436 -0.106,0.388 -0.624,0.366 -0.99,0.134 -1.082,-0.134 -0.148,-0.098 -0.07,-0.112 0,-0.134 0.074,-0.208 0.188,-0.254 0.048,-0.36 -0.194,-0.312 -0.126,-0.122 0.05,-0.302 0.142,-0.378 0.03,-0.218 -0.734,-0.654 -0.53,-0.128 -0.514,-0.024 -0.39,-0.074 -0.228,0.032 -0.162,0.19 -0.166,0.138 -0.124,-0.164 -0.228,-1.164 -0.176,-0.176 -0.664,-0.196 -0.904,-0.07 -0.24,-0.212 -0.132,-0.526 -0.084,-0.632 -0.296,-0.608 -0.152,-0.154 -0.27,-0.268 -0.472,0.11 -0.566,0.354 -0.334,0.096 -0.128,0.038 -0.45,-0.344 -0.508,-0.538 -0.406,-0.572 -0.098,-0.318 0.124,-0.386 -0.148,-0.296 -0.218,-0.542 -0.062,-0.424 2.442,-1.504 1.488,-0.772 0.702,-0.234 0.168,0.776 0.128,0.246 0.166,0.16 0.22,0.032 0.254,-0.192 0.356,-0.202 0.57,0.094 0.414,0.186 0.146,0.194 0.276,0.184 0.4,0.044 0.774,-0.352 0.744,-0.536 0.218,-0.374 0.082,-0.338 0.44,0.224 0.388,0.048 0.172,-0.1 -0.11,-0.542 0.316,-0.29 0.35,-0.132 0.158,0.234 0.322,0.24 0.254,0.002 0.682,-0.624 0.16,0.124 0.148,0.222 z" title="Belgium" id="BE"></path></svg>