<svg xmlns="http://www.w3.org/2000/svg" viewBox="0 0 44.41 32.28"><path d="m 32.22,0.96 -0.078,0.268 -0.004,0.474 -0.1,0.75 -0.12,0.898 0.488,0.58 0.584,0.624 0.156,0.242 -0.156,0.614 0.11,0.36 0.308,0.6 0.524,0.762 0.538,0.782 0.372,0.102 0.354,0.064 0.216,0.14 0.314,0.136 0.314,0.088 0.272,0.172 0.174,0.168 0.226,0.482 0.606,0.318 0.424,0.314 -0.17,0.16 -0.528,-0.064 -0.496,-0.138 -0.066,0.232 -0.02,0.884 0.078,0.734 0.116,0.098 0.5,0.136 1.19,0.954 1.076,0.904 0.362,0.234 0.594,0.088 0.668,0.038 0.286,-0.084 0.646,-0.454 0.344,-0.05 0.318,0.012 0.172,0.072 0.31,0.372 0.29,0.56 0.082,0.414 -0.026,0.222 -0.098,0.084 -0.53,0.106 -0.23,0.084 -0.056,0.12 0.082,0.278 0.102,0.18 0.578,0.806 0.836,1.088 0.258,0.278 -0.146,0.324 -0.426,0.848 -0.318,0.354 -1.406,1.2 -0.688,-0.142 -1.446,0.242 -0.216,-0.276 -0.338,-0.036 -0.418,0.048 -0.152,0.104 -0.046,0.118 -0.15,0.166 -0.268,0.476 -0.206,0.12 -0.256,0.074 -0.316,-0.01 -0.184,0.062 0,0.236 -0.056,0.204 -0.214,0.104 -0.09,0.228 0.016,0.226 -0.124,0.104 -0.272,-0.056 -0.162,-0.064 -0.152,0.292 -0.188,0.198 -0.134,-0.002 -1.446,0.058 -0.526,0.156 -0.316,0.004 -0.012,-0.132 -0.038,-0.078 -1.824,-0.442 -1.278,-0.262 -1.296,-0.29 -0.074,0.272 -0.186,0.176 -0.28,0.012 -0.194,-0.042 -0.13,0.21 -0.216,0.278 -0.3,0.134 -0.294,0.172 -0.166,0.15 -0.12,0.002 -0.296,-0.352 -0.394,-0.036 -0.736,0.058 -0.332,-0.096 -0.452,-0.046 -1.068,0.072 -1.706,-0.144 -0.28,0.078 -0.074,0.064 -1.69,0.016 -1.858,0.018 -1.556,0.016 -1.362,0.014 -0.002,-0.06 -0.438,-0.008 -0.048,0.118 -0.386,1.416 -0.042,0.77 0.206,0.478 0.23,0.304 0.258,0.126 0.026,0.172 -0.208,0.222 0.018,0.226 0.244,0.234 0.06,0.248 -0.124,0.258 0.03,0.62 0.18,0.982 0.006,0.636 -0.172,0.29 0.082,0.498 0.334,0.702 0.06,0.296 -0.12,0.138 -0.278,0.182 -0.282,-0.006 -0.328,-0.424 -0.144,-0.19 -0.264,-0.432 -0.226,-0.432 -0.304,-0.19 -0.3,-0.176 -0.364,-0.55 -0.352,-0.262 -0.372,0.074 -0.542,-0.102 -1.094,-0.136 -1.176,0.04 -0.488,0.126 -0.482,0.2 -1.222,0.442 -0.482,0.216 -0.366,0.552 -0.416,-0.012 -0.414,-0.176 -0.26,-0.25 -0.558,0.054 -0.538,-0.242 -0.52,-0.478 -0.384,-0.158 -0.49,-0.346 -0.134,-0.66 -0.31,-0.462 -0.284,-0.644 -0.424,-0.288 -0.488,-0.154 -0.674,0.032 -0.442,-0.258 -0.35,-0.376 0.092,-0.326 0.158,-0.464 0.018,-0.446 0.104,-0.724 -0.064,-0.906 -0.122,-0.632 0.372,-0.264 0.43,-0.236 0.268,-0.43 0.278,-0.966 0.116,-0.834 -0.086,-0.31 -0.142,-0.246 -0.114,-0.36 -0.066,-0.44 0.078,-0.384 0.326,-0.356 0.408,-0.296 0.29,-0.144 0.768,-0.148 0.96,-0.22 0.554,-0.252 0.404,-0.25 0.226,-0.2 0.23,-0.406 0.372,-0.316 0.288,-0.32 0.04,-0.886 -0.002,-0.506 -0.214,-0.28 -0.116,-0.238 1.422,-0.696 0.01,-0.49 -0.198,-0.548 -0.278,-0.442 -0.104,-0.38 0.394,-0.45 0.35,-0.338 0.254,-0.286 0.56,-0.436 0.584,-0.114 0.526,0.164 1.558,1.028 0.27,0.066 0.324,-0.078 0.412,-0.272 0.532,-0.212 0.196,-0.688 -0.018,-1.012 0.122,-0.464 0.28,-0.084 0.896,0.194 0.234,0.01 0.26,-0.064 0.19,-0.178 -0.008,-0.328 -0.042,-0.29 0.292,-0.94 0.534,-0.708 1.078,-0.884 0.336,-0.178 0.39,-0.09 1.932,0.608 0.314,-0.15 0.472,-1.508 0.524,-0.144 0.628,-0.026 0.408,-0.13 0.212,-0.104 0.92,-0.574 1.62,-0.78 0.872,-0.336 0.17,-0.126 0.624,-0.554 0.828,-0.636 0.528,-0.128 0.73,-0.046 0.46,0.104 0.124,0.18 0.152,0.092 0.952,-0.27 1.364,0.43 z" title="Burkina Faso" id="BF"></path></svg>