<svg xmlns="http://www.w3.org/2000/svg" viewBox="0 0 34.90 22.81"><path d="m 35.04,3.86 -0.132,1.862 -0.542,0.862 -0.818,-0.288 -1.044,0.24 -0.552,0.98 -0.314,0.29 -0.282,0.34 -0.182,1.268 -0.044,2.068 -0.396,0.25 -0.362,0.078 -1.51,1.812 0.87,0.508 0.384,0.386 0.636,1.074 0.904,1.21 0.18,0.59 -0.76,-0.132 -0.264,0.04 -0.17,0.186 -0.354,-0.038 -0.436,0.002 -0.456,0.214 -0.252,0.09 -0.336,-0.196 -0.63,-0.588 -0.382,-0.41 -0.282,-0.104 -0.286,0.122 -1.02,0.14 -0.242,0.238 -0.472,0.264 -0.472,0.126 -0.682,0.09 -0.358,-0.012 -0.2,0.126 -0.168,0.386 -0.114,0.376 -0.1,0.152 -0.848,0.186 -0.188,0.216 -0.05,0.21 0.016,0.21 -0.676,-0.204 -0.522,0.138 -0.124,0.16 -0.108,0.232 0.06,0.246 0.192,0.24 0.182,0.648 0.066,0.646 -0.112,0.368 -0.388,0.26 -0.802,0.29 -0.778,-0.138 -0.34,0.114 -0.576,0.036 -0.53,0.076 -0.814,0.264 -0.736,0.156 -0.66,-0.538 -0.784,-0.366 -0.824,-0.218 -0.286,0.158 -0.124,0.126 -0.69,-0.476 -0.308,-0.17 -0.15,-0.184 -0.286,-0.636 -0.17,-0.02 -0.568,0.236 -0.548,-0.01 -0.33,-0.044 -0.98,0.028 -0.13,0.434 -0.12,0.066 -0.212,0.058 -0.52,-0.028 -0.666,0.322 -0.714,0.196 -0.558,0.004 -0.574,-0.094 -0.344,0.068 -0.742,0.034 -0.47,0.468 -0.732,-0.026 -0.616,-0.078 0.076,-0.148 0.124,-1.862 0.304,-0.834 -0.012,-0.172 -0.066,-0.13 -0.27,-0.134 -0.194,-0.452 -0.406,-1.19 -0.23,-0.24 -0.638,-0.252 -0.558,-0.344 -0.474,-0.456 -0.866,-1.124 0.438,-0.112 0.132,-0.23 0.438,-0.62 0.05,-0.304 -0.046,-0.172 -0.294,-0.298 -0.2,-0.654 0.15,-0.61 0.014,-0.314 -0.148,-0.312 0.154,-0.388 0.316,-0.212 0.198,-0.062 0.83,-0.042 0.526,-0.778 0.32,-0.248 0.328,-0.442 0.152,-0.162 0.144,-0.344 0.05,-0.352 -0.658,-0.494 -0.224,-0.372 -0.294,-0.412 -0.396,-0.284 -0.798,-0.488 -0.312,-0.496 -0.14,-0.644 -0.212,-0.488 -0.234,-0.318 -0.044,-0.26 -0.098,-0.318 -0.022,-0.626 0.19,-0.834 0.122,-0.296 0.27,-0.082 0.72,-0.446 0.034,-0.57 0.13,-0.356 0.228,-0.204 0.212,-0.136 0.394,0.332 0.956,0.53 0.466,0.384 -0.024,0.238 -0.218,0.236 -0.416,0.232 -0.242,0.306 -0.066,0.378 0.062,0.268 0.288,0.234 1.716,-0.306 1.74,0.158 2.336,0.518 1.548,0.18 1.146,-0.24 2.118,0.434 1.974,0.404 1.894,0.118 1.06,-0.316 0.746,-0.426 0.642,-0.804 1.586,-1.062 1.534,-0.598 2.012,-0.484 1.344,-0.164 0.188,0.164 1.71,0.978 0.762,0.004 0.616,0.174 0.226,0.258 0.154,0.064 0.82,-0.242 0.362,0.534 0.566,0.748 0.966,0.384 0.86,0.216 0.272,0.034 z" title="Bulgaria" id="BG"></path></svg>