<svg xmlns="http://www.w3.org/2000/svg" viewBox="0 0 17.24 34.86"><path d="m 15.9,3.92 -0.232,0.366 -0.356,0.756 -0.016,0.59 0.848,1.244 0.098,0.126 0.218,0.194 0.118,0.232 0.102,0.612 0.058,0.69 0.068,0.464 0.41,0.652 0.026,0.262 -0.284,0.974 -0.068,0.104 -0.074,0.026 -0.44,-0.084 -0.188,0.106 -0.24,0.33 -0.146,0.33 -0.008,0.138 0.39,0.612 -0.246,0.882 -0.252,0.55 -0.452,0.314 -0.404,0.074 -0.282,0.148 -0.164,0.194 0.024,0.63 -0.596,0.574 -0.33,0.402 -0.16,0.242 0.068,0.74 -0.212,0.748 -0.368,0.59 -0.824,0.128 -0.692,0.072 -0.236,1.502 0.012,0.95 -0.064,0.97 -0.114,0.396 0.048,0.556 -0.052,1.258 -0.092,0.99 0.122,0.266 0.07,0.582 -0.004,0.602 0.176,0.418 0.192,0.366 -0.006,0.188 -0.102,0.118 -0.086,0.154 0,1.416 0.036,0.424 -0.052,0.268 -0.148,0.224 0.058,0.716 0.12,0.456 0.12,0.336 -0.116,0.28 -0.102,0.37 -0.154,0.944 -0.01,0.328 -2.354,0.23 -2.632,0.378 -1.098,0.246 -0.064,-0.19 0.936,-0.246 -0.194,-0.738 -0.584,-0.872 -0.228,-0.16 -0.118,-0.434 0.142,-0.284 -0.068,-0.192 -0.048,-0.588 -0.288,-0.65 0.526,-0.026 0,-2.09 0,-2.008 0,-1.712 0,-1.356 -0.102,-1.626 -0.014,-1.194 -0.022,-1.576 -0.19,-0.492 -0.796,-0.834 -0.218,-0.432 -0.038,-0.574 -0.178,-0.59 -0.01,-1.034 -0.014,-1.204 -0.072,-0.194 -0.864,-0.574 -1.222,-0.814 -0.932,-0.62 -0.068,-0.046 -0.094,-0.152 0.136,-1.836 0.192,-0.24 0.298,-0.756 0.144,-0.612 0.134,0.002 0.188,-0.198 0.152,-0.292 0.162,0.064 0.272,0.056 0.124,-0.104 -0.016,-0.226 0.09,-0.228 0.214,-0.104 0.056,-0.204 0,-0.236 0.184,-0.062 0.316,0.01 0.256,-0.074 0.206,-0.12 0.268,-0.476 0.15,-0.166 0.046,-0.118 0.152,-0.104 0.418,-0.048 0.338,0.036 0.216,0.276 1.446,-0.242 0.688,0.142 1.406,-1.2 0.318,-0.354 0.426,-0.848 0.146,-0.324 0.132,-0.584 -0.278,-1.078 0.016,-0.192 0.58,-0.232 0.724,-0.18 0.28,-0.014 0.186,-0.092 0.264,-0.234 0.43,-0.17 0.254,0.056 0.156,0.034 1.524,1.426 0.662,0.72 0.176,0.368 0.342,0.266 0.504,0.164 0.46,0.366 z" title="Benin" id="BJ"></path></svg>