<svg xmlns="http://www.w3.org/2000/svg" viewBox="0 0 35.01 36.68"><path d="m 9.88,6.46 -0.118,0.054 -0.488,-0.622 -0.392,-0.18 0.612,-0.44 0.266,-0.378 -0.006,-0.826 0.15,-0.454 -0.05,-0.392 0.134,-0.4 -0.182,-0.45 -0.512,-0.358 -1.014,-1.422 -1.602,-0.346 -0.83,-0.014 0.456,-0.23 0.42,0.028 0.648,0.136 0.776,0.066 0.474,0.418 0.452,0.556 0.41,0.224 0.168,0.142 -0.018,0.162 0.068,0.152 0.534,0.26 0.538,0.418 0.158,1.226 -0.724,0.58 -0.132,1.772 -0.196,0.318 z m -7.114,-5.138 0.68,0.196 0.366,-0.028 0.218,-0.126 1.006,0.052 0.812,-0.188 0.122,0.332 -0.02,0.174 -1.728,0.162 -1.584,0.488 -0.868,0.33 -0.408,0.038 -0.312,-0.174 -1.046,-1.004 0.28,0.1 0.772,0.568 0.48,-0.104 0.446,-0.376 0.068,-0.284 -0.066,-0.134 0.202,-0.45 0.58,0.428 z m 10.35,7.72 0.924,0.696 0.788,0.264 0.852,0.872 0.368,0.31 0.066,0.282 -0.144,1.288 -0.192,0.774 0.028,0.678 -0.2,-0.202 -0.202,-0.444 -0.332,-0.254 -0.112,-0.134 0.596,-0.03 0.052,-0.7 0.292,-0.552 -0.044,-0.576 -0.696,-0.634 -0.476,-0.558 -0.734,-0.18 -0.678,-0.556 -0.404,-0.068 -0.494,0.098 0.178,-0.332 0.124,-0.44 0.09,-0.084 0.35,0.482 z m -6.146,4.808 -0.012,0.744 0.062,0.556 -0.056,0.198 -0.608,0.372 -0.156,0.208 -0.572,0.21 -0.346,0.292 -0.174,-0.474 -0.336,-0.292 -0.056,-0.498 -0.256,0.168 -0.372,-0.102 -0.612,-0.376 -0.386,-0.512 0.542,-0.088 0.112,0.318 0.428,-0.39 -0.098,-0.206 -0.078,-0.026 -0.14,-0.382 0.644,-1.004 0.14,-0.648 -0.292,-1.042 0.274,-0.068 0.726,0.366 0.326,0.36 0.01,0.494 0.306,0.38 0.442,0.914 0.538,0.528 z m 2.226,-1.886 -0.634,0.128 -0.454,-0.126 -0.116,-0.102 0.194,-0.17 0.426,-0.142 0.686,-0.014 0.3,0.168 0.036,0.074 -0.438,0.184 z m 11.446,4.998 0.038,0.31 -0.376,-0.062 -0.556,0.122 -0.2,0.004 0.124,-0.214 0.386,-0.288 0.02,-0.274 -0.478,-0.396 -0.554,-0.986 -0.26,-0.234 -0.124,-0.372 -0.466,-0.398 0.096,-0.212 0.096,-0.05 0.314,0.102 0.712,1.42 0.046,0.136 1.182,1.392 z m -13.188,-0.304 0.01,0.14 -0.556,0.386 0.404,0.276 0.38,-0.6 0.302,0.488 0.166,0.912 -0.028,0.16 0.028,0.136 0.058,0.174 0.014,0.252 -0.308,0.794 -1.108,-0.082 -0.026,-0.67 -0.172,-0.13 -0.258,-0.958 -0.346,-0.308 -0.482,-0.788 0.28,-0.204 0.374,0.068 0.192,-0.096 0.518,-0.076 0.314,-0.108 0.244,0.234 z m 18.12,1.11 -0.446,0.662 -0.238,-0.056 0.134,-0.834 0.308,-0.132 0.122,0.008 0.12,0.352 z m -6.932,3.768 -0.234,0.036 -0.418,-0.162 -0.982,-0.74 -0.456,-0.064 0.15,-0.418 0.348,0.146 0.792,0.638 0.298,0.32 0.502,0.244 z m 4.626,3.374 -0.036,0.156 -0.708,-1.21 -0.892,-0.294 -0.512,-0.292 0.106,-0.166 0.356,-0.072 0.06,-0.384 -0.152,-0.416 -0.47,-0.84 -0.264,-0.57 -0.122,-0.132 -0.036,-0.478 0.558,0.742 0.232,0.658 0.374,0.644 0.25,1.108 0.714,0.376 0.514,0.536 0.028,0.634 z m 4.394,1.034 0.128,0.108 -0.358,0.244 -0.806,-0.3 -0.182,0.022 -0.16,-0.32 -0.062,-0.236 0.04,-0.218 0.48,0.168 0.258,0.314 0.662,0.218 z m -0.838,3.078 -0.394,0.182 0.088,-0.312 0.754,-0.53 0.418,-0.466 0.238,-0.166 0.084,-0.128 0.332,-0.172 0.166,-0.3 -0.046,-0.246 -0.346,-0.406 0.004,-0.286 0.12,-0.202 0.584,-0.094 -0.154,0.304 0.23,0.86 -0.776,1.07 -0.664,0.332 -0.638,0.56 z m 6.544,-1.298 0.348,0.086 0.19,-0.006 0.642,0.18 0.382,0.25 0.086,0.102 -0.206,0.222 -0.59,-0.42 -0.516,-0.054 -0.724,0.01 -0.29,-0.08 0.194,-0.452 0.484,0.162 z m 0.702,5.55 -0.748,0.294 -0.076,-0.346 0.382,-0.278 0.442,0.33 z m -0.624,1.884 -0.178,0.438 -0.594,0.836 -1.326,0.21 -1.46,0.04 -0.112,-0.228 -0.032,-0.2 0.106,-0.314 -0.01,-0.124 -0.06,-0.126 0.536,-0.134 0.348,-0.388 0.554,-0.066 0.69,0.274 0.372,0.01 0.55,-0.3 0.442,-0.65 0.262,0.084 -0.088,0.638 z" title="Bahamas" id="BS"></path></svg>