<svg xmlns="http://www.w3.org/2000/svg" viewBox="0 0 52.69 54.77"><path d="m 29.64,0.04 -0.11,0.29 -0.086,0.422 0.104,0.316 0.224,0.424 0.324,0.37 0.248,0.22 0.294,0.546 0.296,0.684 0.388,0.532 1.138,1.22 0.126,0.438 0.158,0.434 0.716,0.834 0.112,0.278 -0.048,0.566 0.736,1.704 0.484,0.996 0.41,0.184 1.31,1.062 1.144,0.856 1.338,0.578 0.982,0.38 0.486,0.278 0.244,0.266 0.196,0.512 0.102,0.892 0.034,0.576 1.056,-0.022 0.874,0.052 0.306,0.116 0.114,0.164 -0.026,0.38 0.012,0.568 0.04,0.458 -0.09,0.488 -0.062,0.576 -0.042,0.716 0.134,0.278 0.846,0.902 0.354,0.584 0.378,0.886 0.22,0.284 0.178,0.114 0.764,0.096 1.966,0.372 1.212,0.34 0.962,0.35 0.402,0.092 0.194,0.094 0.066,0.086 -0.12,0.772 0.042,0.25 0.108,0.224 0.164,0.176 0.198,0.108 0.73,0.084 0.44,0.47 0.276,0.218 -1.318,0.118 -0.654,0.392 -0.378,0.704 -0.596,0.518 -0.81,0.33 -0.856,0.226 -0.904,0.124 -0.964,0.606 -1.022,1.09 -0.522,0.686 -0.022,0.284 -0.228,0.244 -0.438,0.206 -0.248,0.25 -0.056,0.29 -0.234,0.138 -0.408,-0.012 -0.288,0.214 -0.166,0.436 -0.36,0.266 -0.56,0.094 -0.482,0.246 -0.406,0.4 -0.31,0.204 -0.22,0.006 -0.342,0.326 -0.554,0.772 -0.092,0.358 -0.76,2.916 -0.416,0.346 -0.804,0.602 -0.652,0.722 -0.28,0.426 -0.306,0.19 -1.496,0.356 -0.554,0.19 -0.674,0.276 -0.168,0.248 -0.166,0.908 -0.464,1.3 -0.376,0.962 -0.244,0.838 -0.424,1.042 -0.368,0.35 -0.418,0.32 -0.548,0.158 -0.746,0.1 -0.678,-0.028 -0.524,0.014 -0.728,0.368 -0.68,0.026 -1.08,-0.214 -0.874,-0.206 -0.39,-0.042 -0.772,-0.682 -0.496,0.012 -0.758,-0.054 -0.426,-0.156 -0.394,-0.348 -0.858,-0.684 -0.838,-0.554 -0.742,-0.328 -0.692,-0.152 -0.658,0.136 -0.512,0.146 -0.198,0.072 -0.398,0.286 -0.406,0.542 -0.338,0.848 -0.128,0.52 -0.376,1.106 -0.498,1.328 -0.238,0.382 -0.276,0.284 -0.436,0.252 -1.422,1.058 -0.712,1.194 -0.448,0.348 -0.54,0.162 -0.458,0.102 -0.252,0.2 -0.282,0.604 -0.244,0.214 -0.27,0.082 -0.814,-0.072 -0.26,-0.062 -2.156,0.118 -0.658,-0.19 -0.466,-0.078 -0.734,0.252 -0.308,-0.166 -0.246,-0.502 -0.12,-1.008 0.038,-0.856 0.4,-0.646 0.332,-0.472 0.326,-0.618 0.042,-0.276 -0.066,-0.248 -0.064,-0.506 -0.036,-0.52 -0.462,-1.132 -0.568,-1.498 -0.766,-1.666 -0.238,-0.458 -0.48,-0.722 -1.776,-1.372 -0.272,-0.186 0,-0.152 0,-1.328 -0.002,-1.756 -0.002,-1.754 -0.002,-1.748 -0.002,-1.746 -0.002,-1.74 -0.002,-1.738 0,-1.734 -0.002,-1.73 -0.002,-1.46 1.28,0 1.582,0 1.882,0 0.832,0 0.048,-0.23 0,-1.07 -0.004,-2.448 -0.004,-2.442 -0.004,-2.434 -0.002,-2.428 -0.004,-2.42 -0.004,-2.416 -0.004,-2.408 -0.002,-2.406 -0.002,-1.184 1.452,-0.072 1.666,-0.242 2.704,-0.392 2.518,-0.488 1.644,-0.284 1.948,-0.338 0.67,-0.058 0.182,0.046 0.264,0.116 0.904,1.196 0.564,0.912 0.114,0.392 0.108,0.042 0.266,-0.064 0.3,-0.146 0.918,-0.91 0.192,-0.238 0.586,-0.44 0.71,-0.45 0.644,-0.318 0.646,-0.264 0.298,0.066 0.352,0.228 0.312,0.142 1.468,-1.102 0.656,-0.254 1.724,-0.198 z" title="Botswana" id="BW"></path></svg>