<svg xmlns="http://www.w3.org/2000/svg" viewBox="0 0 53.52 46.24"><path d="m 27.92,0.02 0.766,0.874 0.18,0.034 0.426,-0.344 0.084,-0.022 0.88,-0.03 0.408,0.304 0.304,0.592 0.28,0.472 0.304,0.128 0.856,-0.594 0.474,-0.198 0.312,0.006 1.098,0.534 0.516,0.292 0.118,0.264 0.012,0.312 -0.14,0.462 -0.11,0.502 0.334,0.592 0.388,0.402 0.83,-0.664 0.306,-0.184 0.334,-0.006 0.448,-0.246 0.324,-0.372 0.31,-0.128 0.594,0.088 1.072,-0.088 1.25,0.582 0.108,0.18 0.624,0.68 0.218,0.338 0.206,0.108 0.332,0.332 0.446,0.208 0.308,-0.064 0.148,0.11 0.138,0.26 0.01,0.444 -0.044,1.264 -0.218,0.364 -0.23,0.296 -0.058,0.23 0.022,0.278 0.354,0.544 0.456,0.842 0.106,0.486 0,0.366 -0.622,1.072 -0.206,0.25 -0.144,0.526 -0.076,0.534 0.044,0.222 1.04,0.848 0.77,0.458 0.172,0.224 0.016,0.14 -0.408,0.906 -0.04,0.244 0.616,0.374 0.342,0.59 0.3,0.96 0.586,0.918 1.262,0.812 0.918,0.528 0.192,0.24 0.066,0.284 -0.07,0.626 -0.238,0.762 -0.162,0.422 0.374,0.176 0.962,-0.048 1.17,0.148 1.402,0.836 0.004,0.374 -0.144,0.342 0.096,0.358 0.152,0.304 1.214,0.93 0.116,0.27 0.02,0.452 -0.032,0.33 -0.336,0.068 -0.374,0.154 -0.61,0.396 -0.24,0.558 -0.988,0.768 -0.608,0.348 -0.486,0.014 -1.156,-0.156 -0.406,-0.378 -0.168,-0.348 -0.444,-0.158 -0.59,-0.014 -0.814,0.06 -0.166,0.106 -0.134,0.426 -0.346,0.73 -0.248,0.41 0.204,0.252 0.324,0.524 0.504,0.664 0.52,0.59 0.166,0.36 -0.008,0.258 -0.246,0.302 0.036,0.608 0.504,0.798 -0.17,0.128 -0.052,0.978 0.006,1.042 0.136,0.252 0.27,0.208 0.23,0.38 0.382,0.864 0.026,0.226 -1.064,-0.064 -1.278,0.026 -0.718,0.502 -0.28,-0.116 -0.5,-0.128 -0.554,0.28 -0.756,0.846 -0.508,0.526 -0.494,0.736 -0.156,0.398 -0.312,0.732 -0.286,0.836 0.156,0.584 0.234,0.542 0.052,0.584 0.116,0.456 -0.312,0.332 -0.182,0.478 -0.532,-0.084 -0.652,-0.458 -0.138,-0.664 -0.502,-0.462 -0.33,-0.242 -0.544,-0.036 -0.87,0.216 -1.138,0.166 -0.858,0.044 -0.468,0.236 -0.692,0.232 -0.268,-0.276 -0.384,-0.754 -0.314,-0.752 -0.218,-0.33 -0.188,-0.092 -0.232,0.018 -0.266,0.238 -0.2,0.246 -0.282,0.086 -0.436,0.198 -0.318,0.268 -0.348,0.692 -0.23,-0.048 -0.238,-0.16 -0.274,-0.774 -0.376,-0.178 -0.602,-0.01 -0.746,-0.164 -0.606,-0.236 -0.22,0.056 -0.362,0.33 -0.388,0.048 -0.856,-0.294 -0.166,0.136 -0.226,0.434 -0.266,0.418 -0.232,0.042 -0.13,-0.108 0.072,-0.742 -0.496,-0.262 -0.836,-0.042 -0.588,0.108 -0.286,-0.03 -0.148,-0.144 -0.72,-1.25 -0.38,-0.08 -0.682,0.062 -1.006,-0.152 -1.16,-0.282 -0.638,-0.104 -0.33,-0.282 -0.714,-0.096 -1.92,-0.53 -0.782,-0.094 -1.154,-0.008 -1.756,-0.118 -1.126,0.066 -0.522,0.176 -0.602,0.11 -1.018,0.096 -0.414,-0.01 -0.652,0.058 -0.748,0.142 -0.214,0.262 -0.246,0.578 -0.86,0.996 -0.834,0.66 -0.152,0.056 -0.488,-0.35 -0.406,-0.118 -0.478,-0.038 -0.338,0.112 -0.212,0.166 0.028,0.766 -0.048,0.066 -0.368,-0.908 0.03,-0.824 0.204,-0.472 0.25,-0.426 -0.102,-0.638 0.244,-0.846 0.008,-0.614 -0.108,-0.264 -0.198,-0.306 -0.544,-0.34 -0.24,-0.266 -0.736,-0.356 -0.73,-0.442 -0.124,-0.272 0.034,-0.186 0.128,-0.284 0.558,-0.83 0.604,-0.808 0.386,-0.324 2.05,-1.04 0.316,-0.364 0.08,-0.616 0.004,-0.448 -0.038,-0.8 -0.126,-1.14 -0.156,-0.788 -0.392,-1.484 -1.068,-3.086 -0.642,-3.226 0.418,0.19 0.98,0.07 0.778,-0.222 0.404,-0.032 0.36,0.072 0.536,-0.128 0.49,-0.052 0.254,0.29 0.456,0.256 0.902,-0.368 0.798,-0.458 0.828,0.05 0.118,-0.226 0.206,-1.15 0.246,-0.252 0.99,0.116 0.366,-0.208 0.384,-0.568 0.584,-0.356 0.488,0.002 0.508,-0.4 0.25,0.268 0.122,0.478 -0.168,0.38 0.072,0.15 0.352,0.188 0.602,-0.006 0.386,-0.156 0.09,-0.218 0,-0.396 -0.096,-0.37 -0.256,-0.318 -0.48,-0.166 -0.334,-0.004 -0.056,-0.204 0.114,-0.434 0.296,-0.804 0.364,-0.726 0.222,-0.274 0.038,-0.254 -0.042,-0.44 -0.008,-0.794 0.326,-1.12 0.44,-0.836 0.59,-0.274 0.722,-0.146 0.462,-0.4 0.228,-0.46 0.086,-0.39 0.11,-0.336 0.23,-0.148 1.736,0.092 0.266,-0.726 0.15,-0.202 0.332,-0.216 0.232,-0.258 -0.086,-0.2 -0.444,-0.128 -1.044,-0.114 -0.21,-0.242 0.066,-0.29 0.278,-0.752 0.266,-0.972 0.138,-0.754 0.014,-0.446 0.15,-0.12 0.85,-0.142 0.286,-0.152 0.732,-1.032 0.558,-0.176 1.442,0.266 0.66,-0.02 0.18,0.024 0.66,0.046 0.072,-0.104 0.296,-1.022 0.292,-0.298 1.134,-1.35 0.762,-0.574 0.482,-0.126 z" title="Belarus" id="BY"></path></svg>