<svg xmlns="http://www.w3.org/2000/svg" viewBox="0 0 8.14 15.15"><path d="m 5.28,0.06 -0.3,0.668 0.3,0.086 0.272,-0.062 0.658,0.024 0.252,0.732 -0.066,0.614 -0.62,1.616 -0.078,0.554 -0.282,0.83 0.382,0.546 -0.358,0.724 -0.122,0.468 -0.028,0.704 0.18,1.336 -0.29,1.924 -0.512,0.84 -0.318,0.318 -0.568,0.834 -0.746,0.248 -1.034,1.342 -0.182,0.352 0.1,0.38 -0.242,0.004 -0.99,-0.062 -0.67,0.07 -0.026,-0.034 0.054,-1.442 0.086,-2.234 0.062,-1.642 0.06,-1.608 0.046,-1.206 0.062,-1.644 0.054,-1.42 -0.006,-0.51 0.162,-0.404 0.466,-0.168 0.604,0.352 0.252,0.146 0.226,-0.084 0.288,-0.214 0.352,-0.622 0.884,-1.286 0.354,-0.914 0.346,-0.182 0.5,-0.032 0.436,0.058 z m 1.936,3.214 -0.266,0.108 0.22,-0.338 0.032,-0.216 0.308,-0.904 0.22,0.004 0.058,0.08 -0.572,1.266 z m 0.55,2.94 -0.432,0.818 -0.028,-0.234 0.18,-0.606 0.244,-0.212 0.152,-0.224 0.034,-0.264 0.212,0.128 -0.054,0.26 -0.308,0.334 z" title="Belize" id="BZ"></path></svg>