<svg xmlns="http://www.w3.org/2000/svg" viewBox="0 0 106.99 105.38"><path d="m 85.26,1.14 0.204,0.392 0.29,0.402 0.972,0.68 0.308,0.378 0.238,0.42 0.15,0.328 0.3,0.262 0.42,0.168 0.36,0.2 0.22,0.294 0.33,0.306 0.636,0.416 0.31,0.01 0.358,0.058 0.316,0.11 0.338,-0.032 0.546,-0.272 0.644,-0.456 0.492,-0.282 1.19,0.1 0.664,0.23 0.528,0.322 0.412,-0.02 0.898,-0.596 0.476,-0.634 0.462,-0.136 0.7,0.276 0.578,0.592 0.508,0.86 0.358,0.328 0.49,0.508 0.974,1.094 1.268,0.548 0.492,0.27 0.16,0.27 0.094,0.36 0.032,0.39 0.154,0.162 0.342,-0.056 0.292,-0.056 0.322,0.112 0.224,0.284 0.112,0.222 0.122,0.238 0.318,0.152 0.062,0.306 -0.218,0.372 -0.224,0.334 -0.272,0.664 -0.142,0.68 0.184,0.226 0.194,0.188 0.104,0.19 0.062,0.222 -0.024,0.26 -0.432,0.944 -0.222,0.824 -0.008,0.418 0.57,0.308 0.74,-0.016 0.234,0.188 0.234,0.3 0.206,0.154 0.312,-0.004 0.216,0.104 0.086,0.212 0.252,0.228 0.212,0.252 -0.102,0.322 -0.018,0.246 -0.528,0.684 -1.212,1.334 -2.608,2.474 -0.002,0.002 -0.88,0.298 -0.454,0.46 -0.322,0.722 -0.76,0.612 -0.586,0.248 -0.062,0.146 -0.046,0.664 0.06,0.974 -0.274,0.446 -0.398,0.868 -0.206,0.542 -0.16,0.106 -0.178,0.272 -0.112,0.884 -0.076,0.298 -0.286,1.83 0.082,0.522 -0.222,0.87 -0.01,0.512 -0.092,0.58 -0.158,0.502 0.01,0.804 0.09,1.312 -0.016,0.174 -0.22,0.122 -0.392,0.326 -0.37,0.218 -0.282,0.056 -0.47,0.58 -0.4,0.55 -0.3,0.536 -0.078,0.246 0.062,0.694 0.042,0.822 -0.092,0.354 -0.14,0.21 -0.656,0.446 -0.432,0.32 -0.204,0.168 -0.106,0.258 0.19,0.608 0.014,0.444 0.156,0.262 0.52,0.212 -0.002,0.214 0.014,0.23 0.272,0.286 0.496,0.584 0.398,0.548 0.01,0.476 -0.076,0.796 -0.014,0.458 0.04,0.628 -0.002,1.168 -0.028,0.832 0.064,0.432 0.608,1.03 0.268,1.142 0.134,0.836 0.006,0.266 -0.206,0.962 -0.234,0.934 -0.014,0.354 0.11,0.472 0.434,1.08 0.316,0.786 0.152,0.474 0.218,0.552 0.29,0.846 0.072,0.402 -0.06,0.3 -0.592,1.062 -0.06,0.334 0.146,0.824 0.194,0.796 0.28,0.452 0.668,1.248 0.498,0.422 0.918,0.624 0.81,0.628 0.312,0.326 0.286,0.364 0.564,0.932 0.344,0.758 0.182,0.686 0.442,0.938 0.412,0.87 0.532,1.064 0.376,0.752 0.17,0.502 -0.972,0.15 -1.406,0.214 -1.55,0.238 -1.6,0.244 -1.586,0.244 -1.504,0.23 -1.366,0.208 -0.416,0.116 0.204,0.592 -0.094,0.622 -0.27,0.482 -0.428,0.592 -0.194,0.236 -0.436,0.462 -0.364,0.326 -0.742,0.548 -0.468,0.314 -0.004,0.284 0.788,1.328 0.358,0.954 0.146,0.862 -0.008,0.496 -0.03,1.02 -0.036,1.214 -0.054,0.478 0.214,0.866 -0.038,0.676 -0.53,0.756 -0.148,0.742 -0.268,1.002 -0.37,1.392 -0.264,0.732 0.146,0.476 0.132,0.32 0.14,0.43 0.284,0.648 0.332,0.382 0.186,0.164 1.092,0.818 0.454,0.394 0.692,0.784 0.512,0.52 0.712,0.122 0.854,0.196 0.472,0.152 0.324,-0.074 0.11,-0.184 -0.016,-0.392 -0.056,-0.288 0.09,-0.222 0.29,-0.146 0.742,-0.024 0.322,-0.196 0.256,-0.048 0.002,0.86 0,0.824 0.002,1.002 0,1.15 0.002,0.944 0,1.004 0.002,1.16 -0.006,0.13 -0.114,0.262 -0.294,0.09 -0.398,-0.226 -0.024,-0.238 -0.098,-0.426 -0.184,-0.218 -0.242,-0.068 -0.408,0.11 -0.56,0.314 -0.718,0.276 -0.292,0.158 -0.506,-0.02 -0.548,-0.15 -0.402,-0.354 -0.116,-0.53 -0.354,-0.544 -0.48,-0.788 -0.242,-0.322 -0.32,-0.368 -0.324,-0.042 -0.362,-0.102 -0.222,-0.538 -0.208,-0.68 -0.128,-0.262 -0.216,-0.338 -0.31,-0.206 -0.676,-0.272 -0.944,-0.378 -1.188,-0.476 -0.564,-0.024 -0.632,-0.08 -0.396,-0.226 -0.226,-0.18 -0.26,-0.66 -0.356,-0.772 -1.042,-0.918 -0.234,-1.016 -0.21,-0.146 -0.358,0.082 -0.276,0.126 -0.11,0.274 -0.278,0.916 -0.154,0.422 -0.104,0.118 -0.228,0.136 -0.372,0.124 -0.53,0.062 -0.748,-0.024 -0.936,-0.136 -0.504,-0.102 -1.366,-0.152 -0.396,-0.074 -0.558,-0.2 -0.402,-0.2 -1.324,-0.432 -0.602,0.052 -0.29,-0.306 -0.262,-0.15 -0.36,-0.288 -0.16,-0.394 -0.214,-0.846 0.052,-0.452 0.154,-0.504 -0.172,-0.14 -0.24,0 -0.344,0.174 -0.61,0.098 -1.118,0.222 -0.396,0.124 -0.438,0.096 -0.336,0.086 -0.84,0.486 -0.292,0.052 -0.498,-0.174 -0.24,-0.26 0.24,-0.294 0.102,-0.366 -0.17,-0.714 -0.258,-0.33 -0.744,-0.236 -0.286,-0.022 -0.12,-0.4 -0.206,-0.364 -0.424,-0.07 -0.204,-0.042 -0.212,0.112 -0.12,0.294 -0.034,0.226 -0.378,0.172 -0.772,-0.034 -0.766,-0.164 -0.538,-0.054 -0.358,0.042 -1.368,0.558 -0.45,0.074 -1.468,-0.042 -0.832,-0.118 -0.592,-0.02 -0.42,0.174 -0.524,0.414 -0.438,0.222 -0.202,-0.024 -0.124,-0.174 -0.172,-0.236 -0.054,-0.624 -0.218,-0.682 0.144,-0.358 0.432,-0.256 0.15,-0.528 -0.134,-0.792 -0.008,-0.556 0.116,-0.322 -0.156,-0.78 -0.432,-1.238 -0.61,-1.006 -0.788,-0.778 -0.516,-0.742 -0.244,-0.71 0.092,-1.698 0.238,-1.494 0.188,-1.186 -0.054,-1.986 -0.534,-1.292 -0.116,-1.388 0.302,-1.484 0.044,-1.016 -0.2,-0.52 -0.136,-0.078 -0.172,-0.052 -1.35,-0.05 -1.798,-0.066 -1.568,-0.02 -1.702,-0.02 -0.278,-0.188 -0.126,-0.346 0.006,-0.342 0.348,-1.048 -0.05,-0.086 -0.604,-0.022 -1.64,0.17 -1.082,0.168 -0.686,0.056 -1.206,0.286 -0.746,0.604 -0.244,0.758 0.02,0.626 -0.042,0.458 -0.34,0.478 -0.268,0.55 -0.01,0.29 -0.164,1.464 -1.112,0.196 -1.112,0 -0.26,-0.018 -1.374,-0.35 -0.51,-0.002 -0.436,0.184 -0.842,0.18 -0.804,0.132 -0.81,0.434 -0.216,0.038 -0.538,-0.226 -0.752,0.022 -0.762,0.108 -0.356,0.048 -0.246,-0.132 -0.7,-1.092 -0.932,-1.454 -0.506,-0.912 -0.188,-0.238 -0.324,-0.314 -0.444,-0.594 -0.184,-0.564 0.078,-0.534 -0.26,-0.72 -0.598,-0.906 -0.394,-0.864 -0.188,-0.826 -0.046,-0.704 0.094,-0.588 -0.114,-0.432 -0.326,-0.278 -0.176,-0.354 -0.128,-0.146 -0.27,-0.334 -0.594,-0.368 -0.652,-0.194 -1.432,-0.004 -1.87,-0.006 -1.694,0.028 -1.884,0.032 -1.908,0.032 -0.514,0.048 -1.456,0.022 -1.166,-0.094 -0.432,-0.06 -0.76,-0.046 -1.2,-0.01 -0.65,0.036 -1.556,0.002 -0.142,0.008 -0.246,0.104 -0.664,-0.144 -0.652,0.048 -0.364,-0.16 -0.8,0.1 -0.388,0.132 -0.622,0.466 -0.934,0.242 -0.346,-0.02 -0.23,-0.078 -0.542,-0.512 -0.42,-0.492 -0.15,-0.274 0.234,-0.068 0.734,-0.104 0.552,-0.05 0.108,-0.13 0.084,-1.52 0.02,-1.542 -0.196,-0.204 -0.192,-0.124 -0.008,-0.106 0.286,-0.194 0.398,-0.226 0.128,-0.102 0.44,-0.408 0.87,-0.944 0.662,-0.232 0.616,-0.248 0.086,-0.09 0.082,-0.184 0.276,0.014 0.088,0.088 0.136,0.2 0.242,0.28 0.438,0.332 0.44,0.358 0.22,0.046 0.354,-0.182 0.412,-0.27 0.606,-0.196 0.144,-0.184 0.078,-0.394 0.048,-0.42 0.052,-0.496 0.124,-0.068 0.218,-0.048 0.402,0.14 0.184,0.146 0.33,0 0.21,-0.132 0.384,-0.244 0.488,-0.098 0.522,-0.236 0.502,-0.3 0.236,-0.028 0.25,0.394 0.224,0.274 0.04,0.172 -0.224,0.328 -0.25,0.432 0.21,0.538 0.05,0.522 -0.006,0.316 0.17,0.128 0.116,0.06 0.18,-0.074 0.358,0.022 0.43,0.164 0.414,-0.018 0.4,-0.202 0.746,-0.784 1.09,-1.368 0.904,-0.858 0.714,-0.35 0.484,-0.408 0.254,-0.47 0.416,-0.318 0.868,-0.254 0.66,-0.288 0.66,-0.938 0.88,-1.688 0.246,-1.506 0.15,-0.916 -0.086,-3.158 -0.058,-1.036 0.134,-0.564 0.328,-0.388 0.896,-0.822 0.602,-0.674 0.46,-0.788 0.882,-1.798 0.388,-0.58 0.174,-0.26 0.532,-0.478 0.746,-0.422 0.96,-0.362 1.482,-1.252 1.178,-1.26 -0.16,-1.514 0.276,-1.256 0.642,-1.596 0.21,-1.69 -0.22,-1.782 0.092,-1.458 0.616,-1.694 0.256,-0.63 0.086,-1.03 -0.004,-1.638 0.782,-2.24 0.74,-1.344 0.828,-1.5 0.316,-0.908 0.42,-1.212 -0.066,-0.974 -0.076,-1.12 0.208,-1.54 -0.078,-0.906 -0.294,-0.788 0.15,-0.498 0.594,-0.202 0.74,-0.788 1.328,-2.058 1.432,-1.004 0.996,-0.318 1.038,0.034 0.678,0.18 0.312,0.324 0.786,0.486 1.256,0.642 0.94,0.804 0.52,0.81 0.404,0.44 0.5,0.152 0.818,-0.066 0.914,0.19 0.952,0.454 0.586,0.168 0.216,-0.118 0.46,0.066 1.052,0.372 0.838,-0.204 1.242,0.154 2.884,0.664 0.154,-0.112 0.068,-0.026 0.246,-0.268 0.626,-1.33 0.53,-0.818 0.248,-0.308 0.612,-0.432 0.72,-0.11 0.69,0.038 0.578,0.19 0.528,0.22 0.584,0.002 0.598,-0.212 0.888,-0.39 0.936,-0.254 0.804,-0.28 1.324,-0.49 0.518,-0.226 0.658,-0.088 1.844,0.448 1.194,-0.296 0.488,0.086 1.034,-0.318 0.188,-0.214 0.658,-1.082 0.7,-0.316 1.06,0.16 0.596,0.168 1.984,0.462 2.576,0.482 0.758,0.074 0.308,0.054 0.268,-0.076 0.846,-0.608 0.286,-0.086 0.242,0.01 z" title="Democratic Republic of Congo" id="CD"></path></svg>