<svg xmlns="http://www.w3.org/2000/svg" viewBox="0 0 72.81 49.03"><path d="m 47.32,0.44 0.396,0.706 0.19,0.248 1.636,1.668 0.316,0.396 0.81,1.21 0.496,0.816 0.57,1.174 0.054,0.638 -0.074,0.544 -0.114,1.546 -0.148,0.444 -0.718,0.832 -0.032,0.374 0.15,0.312 0.216,0.128 0.136,0.154 -0.082,0.72 0.258,0.282 0.538,0.188 1.362,0.128 0.708,0.104 0.558,0.144 0.266,0.07 0.146,0.254 -0.228,0.83 0.158,0.518 0.466,0.438 0.472,0.186 0.452,0.108 1.576,0.27 0.654,0.304 0.864,0.972 1.084,0.884 0.264,0.468 -0.048,0.426 -0.322,0.516 0.05,0.212 0.498,0.518 0.57,0.528 1.044,0.588 1.808,0.922 0.83,0.616 0.282,0.466 0.464,0.508 0.646,0.464 0.434,0.358 -0.3,1.01 0.09,0.332 0.162,0.288 0.378,0.398 0.15,0.51 0.374,0.638 0.446,0.29 0.746,0.108 0.392,0.296 0.82,0.508 0.792,0.438 0.338,0.3 0.21,0.268 0.18,0.316 0.09,0.316 0.018,0.682 0.136,0.846 0.426,0.578 0.396,0.432 -1.618,-0.496 -0.242,-0.01 -0.286,0.086 -0.846,0.608 -0.268,0.076 -0.308,-0.054 -0.758,-0.074 -2.576,-0.482 -1.984,-0.462 -0.596,-0.168 -1.06,-0.16 -0.7,0.316 -0.658,1.082 -0.188,0.214 -1.034,0.318 -0.488,-0.086 -1.194,0.296 -1.844,-0.448 -0.658,0.088 -0.518,0.226 -1.324,0.49 -0.804,0.28 -0.936,0.254 -0.888,0.39 -0.598,0.212 -0.584,-0.002 -0.528,-0.22 -0.578,-0.19 -0.69,-0.038 -0.72,0.11 -0.612,0.432 -0.248,0.308 -0.53,0.818 -0.626,1.33 -0.246,0.268 -0.068,0.026 -0.154,0.112 -2.884,-0.664 -1.242,-0.154 -0.838,0.204 -1.052,-0.372 -0.46,-0.066 -0.216,0.118 -0.586,-0.168 -0.952,-0.454 -0.914,-0.19 -0.818,0.066 -0.5,-0.152 -0.404,-0.44 -0.52,-0.81 -0.94,-0.804 -1.256,-0.642 -0.786,-0.486 -0.312,-0.324 -0.678,-0.18 -1.038,-0.034 -0.996,0.318 -1.432,1.004 -1.328,2.058 -0.74,0.788 -0.594,0.202 -0.15,0.498 0.294,0.788 0.078,0.906 -0.208,1.54 0.076,1.12 -0.316,-0.178 -0.304,-0.524 -0.142,-0.106 -0.878,0.236 -0.454,0.212 -0.242,0.208 -0.186,0.032 -0.278,-0.286 -0.22,-0.052 -0.344,0.052 -0.354,-0.004 -0.228,-0.038 -0.152,0.026 -0.414,-0.17 -1.508,-0.432 -0.258,-0.144 -0.302,0.016 -0.782,0.376 -0.414,0.104 -1.248,0.234 -1.336,0.114 -0.512,0.006 -0.352,0.168 -0.226,0.234 -0.154,0.522 -0.262,0.9 -0.11,0.242 0.02,0.358 -0.078,0.602 -0.038,0.54 0.05,0.362 -0.378,0.73 -0.458,0.884 -0.38,0.758 -0.384,0.762 -0.266,-0.522 -0.164,-0.612 -0.064,-0.702 0.036,-0.186 -0.102,-0.208 -0.008,-0.046 -0.128,-0.53 0.13,-0.37 -0.106,-0.386 -0.312,-0.38 -0.282,-0.292 -0.164,-0.262 -0.134,-0.112 -0.31,-0.04 -0.418,-0.136 -0.554,-0.572 -0.536,-0.556 -0.688,-0.712 -0.55,-0.616 -0.676,-0.754 -0.624,-0.698 -0.374,-0.672 -0.152,-0.386 0.182,-0.038 0.27,-0.008 0.114,-0.07 0.006,-0.18 -0.278,-0.53 -0.132,-0.676 -0.23,-0.412 -0.726,-0.634 -0.692,-0.482 -0.22,-0.248 -0.124,-0.354 -0.266,-2.236 -0.118,-0.636 -0.218,-0.278 -0.158,-0.13 -0.06,-0.158 0.028,-0.398 0.092,-0.356 -0.004,-0.14 0.188,-0.312 0,-2.072 -0.102,-0.106 -0.122,-0.18 -0.194,0.014 -0.222,-0.018 -0.22,-0.302 -0.184,-0.38 0.054,-0.27 0.192,-0.224 0.21,-0.198 0.266,-0.164 0.786,-0.332 0.222,-0.166 0.14,-0.204 0.092,-0.276 0.456,-1.068 0.68,-1.064 0.29,-0.22 0.29,-0.704 0.398,-0.862 0.16,-0.402 0.118,-0.4 0.22,-0.322 0.748,-0.532 0.566,-0.932 0.614,0.05 0.628,0.148 0.806,0.074 0.632,-0.18 0.41,-0.364 0.902,-0.29 1.054,-0.336 0.142,-0.5 0.31,-0.262 0.358,-0.232 0.124,-0.03 0.026,0.166 0.218,0.522 0.446,0.514 0.654,0.568 0.186,-0.036 0.406,-0.43 1.02,-0.266 0.258,-0.118 0.724,-0.626 0.872,-0.402 0.192,-0.036 0.314,-0.106 0.88,-0.416 0.626,0.056 1.006,-0.066 1.678,-0.196 1.212,-0.066 0.614,-0.078 0.152,-0.084 0.238,-0.602 0.182,-0.17 0.456,-0.26 0.892,-0.908 0.586,-0.768 0.164,-0.256 0.014,-0.02 0.12,-0.048 0.252,-0.324 -0.25,-0.334 -1,-0.682 0.014,-0.092 -0.056,-0.116 0.054,-0.094 0.382,-0.278 0.514,-0.316 0.548,-0.118 1.43,0.024 1.22,-0.068 0.284,0.016 0.952,-0.162 0.65,-0.144 0.668,-0.328 1.514,0.034 1.26,-0.836 0.364,-0.148 0.158,-0.13 0.048,-0.128 0.59,-0.332 0.66,-0.686 0.522,-0.618 0.142,-0.436 1.428,-1.478 0.498,0.03 0.244,-0.182 0.566,-0.988 0.176,-0.18 0.266,-0.062 0.322,-0.112 0.28,-0.292 0.242,-0.436 0.002,-0.538 -0.11,-0.432 0,-0.21 0.136,-0.192 0.228,-0.194 1.084,-0.532 0.276,-0.258 0.164,-0.232 0.304,-0.042 0.332,0.024 0.21,-0.144 0.236,-0.242 0.752,-0.326 0.696,-0.254 0.732,0.106 0.596,0.132 0.488,0.154 z" title="Central African Republic" id="CF"></path></svg>