<svg xmlns="http://www.w3.org/2000/svg" viewBox="0 0 241.35 279.07"><path d="m 237.08,31.62 1.044,1.088 -0.454,1.48 -0.726,2.366 -0.56,1.834 -0.092,0.246 -0.116,0.36 -1.21,0.522 -1.764,0.76 -0.904,0.398 -1.138,0.512 -0.276,0.418 -0.33,0.226 -0.362,0.292 -0.138,0.32 -0.338,0.202 -0.306,0.722 0,0.554 0.196,0.378 0.34,0.16 0.108,0.456 0.108,0.32 0.246,0.252 -0.062,0.202 -0.2,0.152 -0.368,0.084 -0.25,0.456 -0.288,1.132 -0.046,0.406 0.328,1.026 0.174,0.554 0.472,2.014 0.07,0.548 -0.648,0.768 -0.258,0.466 -0.092,0.412 0.004,0.326 0.058,0.298 0.54,0.95 0.626,0.85 0.308,0.444 0,0.6 -0.154,0.342 -0.334,0.126 -0.74,0.234 -0.308,0.342 -0.338,0.052 -0.322,-0.274 -0.336,0.068 -0.43,0.24 -0.162,0.584 -0.376,0.996 -0.322,0.274 -0.24,0.762 -0.428,1.094 -0.206,0.66 -0.108,0.484 -0.432,0.31 -0.502,0.614 -0.386,0.598 -0.154,0.174 -0.292,0.052 -0.214,0.538 -0.728,0.812 -0.174,0.944 -0.264,0.502 -0.046,0.91 -0.402,1.668 -0.074,0.37 -0.406,0.292 -0.536,0.648 -0.174,0.474 0.248,1.42 0.308,1.438 0.02,0.674 -0.12,0.918 -0.082,0.4 0.204,0.166 0.338,0.106 0.108,0.352 -0.246,0.248 -0.108,0.442 -0.276,0.496 -0.818,0.196 -0.288,-0.178 -0.092,0.16 0.046,0.354 -0.182,0.418 -0.424,1.12 -0.28,1.018 -0.162,0.446 0.066,0.374 0.138,0.212 0.014,0.196 -0.232,0.248 -0.212,0.394 -0.23,0.054 -0.246,-0.106 -0.26,0.232 -0.052,0.486 -0.144,0.618 -0.066,0.722 -0.106,0.926 0.334,0.636 0.422,1.154 0.316,0.276 0.352,-0.018 0.276,0.234 0.154,0.27 -0.206,0.484 -0.364,0.076 -0.046,0.27 0.108,0.614 0.138,0.596 0.348,0.286 0.158,0.798 0.338,0.272 -0.042,1.024 0.34,1.204 0.36,0.35 0.168,0.164 -0.112,0.528 -0.286,0.42 -0.062,0.674 0.108,0.494 0.366,0.466 0.286,0.052 0.408,-0.19 0.43,0.22 0.062,0.402 0.062,0.366 -0.23,0.476 -0.246,0.878 -0.066,0.876 0.072,1.334 0.112,1.038 0.024,0.654 0.028,0.296 -0.154,0.204 -0.374,0.104 -0.318,0.042 -0.276,0.166 -0.062,0.334 -0.216,0.554 -0.222,0.412 -0.39,0.6 -0.248,0.622 -0.198,0.41 0.018,0.284 -0.142,0.546 -0.146,0.456 -0.308,1.536 -0.412,0.32 -0.328,0.158 -0.168,0.206 0.128,0.418 0.348,0.126 0.124,0.336 -0.046,0.526 0.23,0.488 -0.022,0.592 0.222,1.12 -0.2,0.734 0.068,0.636 -0.006,0.63 -0.292,0.492 -0.598,0.094 -0.33,0.454 -0.562,0.494 -0.062,0.398 -0.092,0.36 -0.23,0.132 -0.352,0 -0.292,0.056 -0.408,0.468 -0.436,0.252 -0.1,0.378 0.038,0.46 -0.23,0.286 -0.292,0.534 -0.184,0.572 0.184,0.536 0.2,0.958 0.03,0.402 -0.252,0.794 -0.208,0.512 0.2,0.654 0.168,0.366 -0.158,0.804 -0.134,0.506 0.108,0.928 0.4,1.044 0.382,0.93 0.056,1.084 0.098,0.862 0.182,0.934 0.384,0.372 0.292,0.312 -0.06,0.45 -0.214,0.548 -0.308,0.412 -0.76,0.136 -0.618,0.372 -0.498,0.258 -0.378,0.312 -0.272,0.332 -0.134,0.364 0.09,1.586 -0.06,0.586 -0.254,0.832 -0.238,0.672 -0.102,0.202 -0.03,0.298 -0.046,0.278 -0.266,0.064 -0.378,-0.124 -0.214,0.08 -0.154,0.218 0.13,0.52 0.138,0.918 0.192,0.39 -0.052,0.31 -0.072,0.668 -0.248,0.532 -0.332,-0.002 -0.214,0.22 -0.092,0.38 0.1,0.496 0.436,0.406 0.154,0.26 -0.078,0.342 -0.338,0.14 -0.2,0.282 -0.19,0.626 -0.254,0.708 -0.27,0.524 -0.052,0.718 0.384,0.768 -0.042,0.752 -0.028,2.21 -0.038,0.752 0.118,1.248 -0.148,0.344 -0.078,0.328 0.376,0.91 0.418,1.476 0.112,0.588 -0.06,0.412 -0.562,0.35 -0.466,0.146 -0.276,-0.248 -0.184,0.102 -0.214,0.434 -0.246,0.352 -0.092,0.35 0.26,0.456 0.138,0.87 -0.292,0.374 -0.214,0.416 0.078,0.54 0.092,0.978 -0.184,1.626 0.248,0.58 0.268,0.278 0.876,0.332 0.658,0.166 0.174,0.542 -0.074,0.44 -0.316,0.218 -0.476,0.19 0,0.712 0.406,0.67 0.46,0.486 0.1,0.438 -0.026,0.448 -0.322,0.376 0.442,0.814 0.202,0.552 -0.202,0.426 -0.288,0.64 -0.252,0.306 0,0.348 -0.104,0.708 -0.024,0.694 0.084,0.414 2.774,0.328 0.634,0.128 0.346,0.414 -0.05,0.52 -0.346,0.554 -0.222,1.042 -0.544,0.174 -0.544,-0.278 -0.59,0.096 -0.512,0.068 -0.736,0.03 -0.978,0.134 -0.598,-0.154 -0.05,0.382 0.174,0.662 1.288,0.208 1.212,0.384 0.364,0.702 0.494,0.796 0.504,0.494 0.024,0.806 -0.792,0.844 -0.098,0.598 -1.04,0.176 -0.296,0.352 -0.148,1.166 0.124,0.92 0.396,0.318 0.272,0.602 -0.296,0.71 -0.7,0.49 -0.374,0.468 0.234,0.374 0.316,0.592 0.088,0.322 0.172,0.876 0.202,1.224 -0.024,0.594 -0.186,0.444 -0.696,0.7 -0.47,0.324 -0.092,0.866 -0.036,0.648 0.048,0.586 0.302,0.468 -0.024,0.472 -0.414,0.1 -0.354,0.226 -0.346,0.836 -1.008,0.856 -0.354,0.384 0.024,0.658 -0.398,0.942 -0.334,0.822 -0.256,0.768 0.05,0.81 0.568,0.356 0.446,0.79 0.198,0.998 -0.346,1.15 -0.804,0.434 -0.476,0.49 -0.144,0.372 0.126,1.21 -0.034,0.57 -0.126,0.536 -0.208,0.416 -0.434,0.464 -0.768,0.406 -0.652,0.28 -0.292,0.32 -0.342,0.706 -0.304,0.78 0.076,0.966 -1.832,0.114 -0.124,0.72 -0.396,0.568 -0.124,1.028 0.402,0.994 0.192,0.836 -0.328,1.01 0.12,1.04 0.036,0.83 0.644,0.924 0.42,1.146 0.21,0.97 0.126,0.758 0.168,0.46 0.264,0.522 0.122,0.604 0.396,0.196 0.712,-0.564 0.502,-0.382 0.35,-0.136 1.028,0.09 0.62,-0.356 0.28,0.038 0.378,0.2 0.294,0.42 0.222,0.954 0.136,1.07 -0.174,1.094 -0.29,0.238 -0.098,0.314 0.098,0.67 0.322,0.472 -0.006,0.676 -0.356,1.538 -0.232,0.634 0.412,0.716 0.368,0.638 0.742,0.476 0.61,0.676 0.42,0.56 -0.1,0.76 0.294,0.23 1.134,0.016 1.694,0.026 2.648,0.038 2.584,0.038 2.934,0.054 1.39,0.612 1.258,0.554 1.584,0 1.582,0.656 1.174,0.434 0.704,0.162 0.722,0.158 0.1,0.606 -3.166,-0.86 -0.71,-0.468 -0.602,-0.054 -1.156,0.584 -0.638,1.394 -0.334,0.396 -0.802,0.376 -0.808,0.074 -2.714,1.358 -0.966,0.116 -0.66,0.362 -0.644,0.52 -0.248,1.122 0.1,0.684 -0.734,2.458 -0.182,1.376 -0.004,0.702 0.21,1.15 -0.27,1.974 -0.488,0.432 -1.206,0.554 -0.82,-0.402 -1.404,-0.36 -1,-0.762 -1.286,-0.538 -0.412,-0.316 -1.136,-1.52 -0.122,-0.502 -0.082,-0.634 0.6,-0.902 0.322,-0.066 0.94,0.028 0.782,-0.146 0.5,0.484 0.138,1.056 -0.22,0.564 -0.2,0.348 0.062,0.266 0.562,-0.37 0.286,-2.364 1.91,-1.172 0.626,-0.684 0.61,-1.052 0.094,-0.3 0.046,-0.394 -0.406,-0.324 -0.902,-0.43 -2.864,2.206 -1.298,0.582 -0.836,0.634 -1.012,1.14 -0.192,0.338 -0.214,0.76 -0.102,0.838 -0.998,-0.382 -1.524,-1.212 -0.306,-0.444 0.306,-0.62 0.464,-0.516 0.032,-1.726 0.118,-0.604 0.322,-0.482 0.584,-0.53 0.29,-0.124 0.246,0.23 0.032,0.404 0.972,-0.03 1.886,-1.522 0.776,-0.036 1.024,0.34 1.156,-0.206 0.208,-0.154 0.24,-0.356 -0.862,-0.418 -0.826,-0.212 -2.322,-0.146 -0.502,0.162 -0.688,0.802 -0.228,-0.2 -0.146,-0.406 -0.788,-0.286 -0.378,0.058 -0.362,0.386 0.058,0.602 -0.202,0.644 -0.73,0.64 -0.496,1.02 0.024,0.796 -0.04,0.414 -0.182,0.22 -0.376,0.264 -1.21,-0.18 -0.684,-0.836 -0.266,-0.57 -0.774,-0.618 1.68,-0.766 0.59,-0.436 0.54,-0.97 0.402,-0.618 -0.286,-0.432 -0.336,-0.002 0.032,0.69 -0.37,0.564 -0.774,-0.268 -1.142,0.838 -0.702,-0.224 -1.144,0.246 -0.56,-0.452 -0.12,-0.572 0.202,-0.596 -0.21,-1.008 -0.316,-0.244 -0.322,0.056 -0.144,-0.598 -0.348,-1.05 -0.154,-0.284 -0.166,-0.486 0.172,-0.12 0.394,0.138 0.344,0.316 0.524,0.04 1.154,0.684 0.48,-0.164 0.26,-0.156 0.098,-0.568 0.006,-0.538 0.198,0 0.656,0.688 0.416,-0.064 0.736,0.182 0.374,-0.074 0.69,-0.256 1.086,-0.756 0.564,-0.78 0.27,-0.106 0.334,0.1 0.224,0.224 0.004,0.542 0.254,0.504 0.346,0.41 0.096,0.504 -0.07,0.494 -0.618,0.696 -0.116,0.242 0.208,0.258 0.256,-0.122 0.352,-0.344 0.2,-0.472 0.054,-0.246 0.022,-0.352 -0.026,-0.428 -0.502,-1.214 -0.064,-0.274 0,-0.548 0.572,-0.506 0.162,-0.392 0.026,-0.758 -0.296,-0.522 -1.228,-1.2 -2.052,-1.2 -0.236,0.126 -0.16,0.218 0.19,0.156 0.272,0.08 1.828,0.99 0.476,0.574 0.312,0.154 0.37,0.38 -0.094,0.56 -1.842,0.548 -1.46,1.188 -1.092,0.722 -0.758,-0.264 -0.36,-0.732 -0.382,-0.946 -0.574,-0.55 -0.326,0.05 -0.262,-0.102 -0.208,-0.292 -0.442,0.242 -0.972,-0.654 -0.282,-0.286 0.712,-0.92 0.784,0.354 0.19,-2.574 -0.244,-0.582 -1.02,-0.634 -0.5,0.082 -0.684,-0.086 -0.46,-0.29 -0.524,-0.116 -0.444,-0.17 -0.58,-0.392 -0.7,-0.21 -0.946,-1.618 -0.406,-0.846 -0.22,-0.924 1.448,-0.02 0.848,-0.15 0.206,-0.382 -0.298,-0.734 -0.416,-0.574 0.304,-0.542 0.434,-0.418 0.452,0.186 1.114,0.932 0.192,0.63 0.792,1.928 0.192,0.174 0.094,0.18 1.638,1.084 0.23,-0.016 -0.102,-0.908 0.472,-1.232 0.458,-0.406 0.23,0.004 0.024,-0.206 -0.446,-0.51 0.218,-0.682 -0.142,-0.022 -0.394,0.438 -0.792,2.144 -0.486,0.392 -0.666,-0.972 -0.378,-0.702 -0.186,-0.248 0.066,-1.096 1.32,0.222 -0.454,-0.36 -1.54,-0.63 -0.384,-0.306 -0.286,-0.114 -0.512,-0.74 -0.636,-0.626 1.096,-1.126 0.564,-0.79 1.764,0.42 0.342,-0.244 -0.296,-0.578 -0.348,0.176 -0.55,-0.36 -0.856,-1.076 0.03,-0.546 0.156,-1.004 0.34,-0.212 0.72,-0.208 0.822,0.326 0.358,0.264 0.31,-0.126 -0.314,-0.74 -0.536,-0.282 -0.598,-0.528 0.062,-0.584 0.192,-0.482 0.144,-0.526 0.1,-0.738 -0.054,-0.574 0.17,-0.264 0.264,-0.12 0.016,-0.214 -0.52,0.044 -0.188,0.724 -0.072,0.662 -0.37,0.532 -0.158,0.602 -0.094,0.72 -0.206,0.828 -0.45,-0.316 -0.264,-0.324 -0.102,-0.22 0.046,-0.422 -0.122,-2.602 -0.012,-2.164 0.23,-1.678 0.636,-0.666 0.29,-0.194 0.264,0.086 0.406,-0.006 0.268,-0.242 -0.912,-0.4 -0.552,0.228 -0.41,0.32 -0.738,-0.24 -0.14,-0.858 -0.436,-0.74 -0.076,-0.946 0.034,-1.364 1.034,0.118 0.842,0.266 2.226,-0.022 1.828,1.306 0.806,-0.174 -0.038,-0.264 -0.618,-0.33 -0.384,-0.73 -0.226,-0.212 -0.106,-0.438 -0.036,-0.512 -0.454,-1.872 -0.182,0.048 -0.174,0.64 -0.378,1.07 -0.528,0.522 -0.808,0.21 -0.798,0.12 -0.694,-0.206 -0.162,-0.444 0.018,-0.514 -0.3,-0.252 -0.784,-0.22 -0.222,-0.126 -0.258,-0.462 0.374,-0.702 0.306,-0.418 0.376,0.084 0.356,0.19 0.456,0.548 0.448,0.106 0.51,-0.438 0.1,-0.296 -0.32,-0.186 -0.292,-0.074 -0.454,-0.232 -0.892,-0.838 0.446,-0.85 1.052,-0.972 0.322,-0.222 -0.278,-0.818 0.316,-0.892 -0.324,-0.734 -0.584,-0.79 -0.79,-0.174 -0.168,0.23 -0.028,0.324 0.126,0.244 -0.074,0.176 -0.18,-0.006 -1.002,-0.174 -0.672,-0.526 -1.096,-0.478 -0.142,-0.374 -0.12,-0.548 0.384,-0.944 -0.194,-0.014 -0.712,0.73 -1.076,0.382 -0.792,0.126 -0.348,0.296 -0.138,0.246 0.21,0.144 0.458,0.036 0.334,0.916 -0.084,0.352 -0.164,0.236 -0.372,0.046 -0.778,-0.632 -0.41,-0.718 0.01,-0.568 0.278,-0.774 1.234,-1.038 0.342,-0.438 0.724,-0.484 0.966,-1.092 0.844,-0.606 -0.41,-0.5 -0.432,-0.752 0.044,-1.042 1.704,-0.412 0.738,0.186 0.942,-0.032 0.526,-0.248 0.382,-0.054 0.804,-0.286 0.346,-0.404 0.082,-0.308 -0.004,-0.268 -0.094,-0.332 -0.13,-0.856 0.132,-0.286 0.344,-0.34 0.452,-0.106 0.208,0.026 0.536,0.312 -0.108,0.444 -0.214,0.534 -0.438,2.13 -0.22,0.482 -0.346,0.418 0.23,0.874 -0.346,0.614 -1.544,0.654 -0.204,0.038 0.116,0.234 0.894,-0.056 0.692,-0.138 0.686,-0.552 0.216,-0.84 0.284,-1.634 0.372,-0.23 0.434,-0.052 0.226,0.384 -0.074,0.862 -0.002,0.834 -0.576,2.482 -0.696,1 -0.078,0.264 0.028,0.312 0.552,-0.046 0.42,-0.538 0.304,-0.688 0.304,-0.956 -0.034,-0.69 0.092,-0.426 0.126,-1.394 0.21,-0.704 -0.014,-0.982 -0.38,-0.37 -0.532,-0.224 -0.134,-0.6 0.278,-1.182 1.016,0.03 0.962,-0.804 0.63,-0.292 0.358,0.06 1.258,0.776 0.25,0.01 -0.04,-0.28 -0.196,-0.198 -0.496,-0.262 -0.912,-0.832 -1.228,-0.136 0.226,-1.078 0.238,-0.982 0.596,-0.136 1,-0.322 1.906,-1.468 0.332,-1.102 0.09,-1.236 -0.918,-0.322 -0.974,-0.806 -0.786,-0.428 -0.696,-0.538 0.136,-0.802 0.09,-1.304 0.874,-0.28 0.406,-1.784 -0.586,-1.362 0.14,-1.012 0.764,-0.862 0.136,-0.596 0.21,-0.654 0.672,-0.066 0.016,-0.356 -0.06,-0.648 -0.442,-0.764 -0.018,-1.056 0.416,-1.246 0.668,0.086 0.128,-0.052 -0.474,-0.752 -0.386,-0.826 0.066,-0.33 0.37,-0.28 0.428,-0.156 0.464,0.422 0.664,1.348 0.1,-0.346 -0.268,-1.372 -0.22,-1.702 -0.7,0.222 -0.642,-0.12 -0.242,-0.262 -0.24,-0.382 0.226,-0.466 0.226,-0.346 0.47,-0.436 0.976,-0.154 0.706,-0.546 0.236,-1.122 -0.232,0.11 -0.382,0.988 -0.644,0.334 -0.328,-0.05 -0.386,-0.184 -0.76,-0.86 -0.42,-0.2 -0.408,-0.022 -0.35,0.218 -0.892,1.516 -0.38,0.256 -1.57,0.122 -0.576,-0.176 -0.624,-0.234 0.076,-0.374 0.19,-0.398 0.354,-0.206 0.006,-0.228 -0.488,-0.058 -0.562,-0.418 -0.25,-0.53 -0.118,-0.948 -0.504,-1.494 -0.1,-1.068 0.356,-0.76 0.764,-2.972 0.234,-1.508 0.41,-1.322 -0.008,-0.87 1.06,-0.794 0.404,-0.474 0.9,-2.662 0.132,-1.43 -1.428,-4.314 -0.22,-0.82 -0.07,-1.018 0.34,-1.684 0.04,-0.638 -0.292,-0.92 -0.814,-1.5 -0.016,-0.764 0.342,-0.784 -0.332,-0.972 0.162,-0.6 0.178,-0.47 1.276,0.252 0.58,-0.12 0.31,-0.284 0.242,-0.794 0.122,-1.24 0.076,-0.534 0.11,-0.778 0.626,-0.312 0.216,-0.736 0.524,-1.024 0.54,-2.852 0.534,-0.702 0.54,-0.808 -0.206,-1.196 0.348,-0.552 0.32,-0.402 0.282,-0.728 0.384,-0.688 0.914,-0.986 0.232,-1.202 0.71,-2.07 0.14,-1.324 0.22,-0.894 -0.064,-0.832 0.426,-1.01 0.41,-0.85 0.128,-0.472 0.934,-1.12 0.158,-0.894 -0.334,-0.606 -0.006,-0.936 -0.26,-1.294 0.602,-0.484 0.244,-0.354 0.784,-2.06 -0.05,-0.806 0.226,-1 -0.516,-1.182 -0.072,-2.648 -0.288,-2.03 -0.476,-2.138 0.044,-1.192 -0.29,-1.48 -0.018,-0.852 0.222,-1.928 1.51,-1.21 0.294,-1.354 0.18,-1.824 -0.062,-1.326 -0.148,-0.594 -0.744,-0.974 -0.188,-1.738 0.144,-0.454 0.616,-0.488 0.434,-0.676 0.224,-1.048 0.452,-0.824 0.178,-1.988 0.382,-1.578 0.19,-0.55 0.6,-0.69 0.112,-0.184 0.092,-0.526 -0.028,-1.24 0.092,-0.756 0.478,-1.486 0.056,-0.686 0.53,-1.524 0.12,-1.094 0.226,-0.576 -0.088,-0.648 0.15,-1.448 -0.36,-0.816 -0.08,-0.476 0.454,-1.478 0.308,-0.36 0.498,-0.686 0.21,-0.77 0.038,-0.488 -0.636,-2.426 -0.086,-0.826 0.156,-1.918 0.218,-1.236 -0.072,-0.984 0.072,-0.506 0.11,-0.634 0.436,-0.768 0.1,-0.546 -0.154,-0.228 -0.518,-0.278 -0.428,-0.696 -0.03,-0.686 0.138,-0.5 0.032,-0.706 0.636,-0.138 0.34,-0.392 0.322,-0.732 0.406,-1.77 0.174,-2.19 0.242,-1.316 0.17,-0.65 0.144,-1.356 0.236,-0.886 0.042,-0.816 -0.046,-0.622 -0.61,-3.154 0.02,-1.158 0.258,-1.794 -0.004,-2.522 -0.052,-0.588 -0.23,-0.55 -0.068,-0.748 -0.368,-1.296 -0.332,-2.598 -0.006,-1.37 -0.144,-1.16 -0.318,-0.308 0.228,-0.07 0.534,-0.048 0.552,-0.002 0.7,-0.246 0.746,-0.456 0.486,-0.662 0.208,-0.604 0,-0.53 -0.218,-0.674 -0.06,-0.476 0.258,-0.228 0.682,-0.088 0.552,-0.45 0.424,-0.392 0.088,0.664 0.77,0.892 0.25,1.004 0.174,0.126 1.058,0.502 0.018,0.118 -0.154,0.188 -0.154,0.244 0.108,0.342 0.192,0.47 0.064,0.436 0.118,0.45 0.116,0.69 0.07,0.626 0.27,0.922 0.054,0.57 0.004,0.344 0.21,0.336 0.41,0.404 0.554,0.406 0.44,0.474 0.336,0.322 0.408,0.262 0.314,0.242 0.124,0.166 0.042,0.134 -0.136,0.128 -0.496,0.626 -0.692,0.954 0.012,0.116 0.662,0.686 0.106,0.272 -0.008,0.384 -0.222,0.462 -0.714,0.146 -0.16,0.126 -0.02,0.148 0.164,0.196 -0.026,0.456 0.258,0.504 -0.132,0.172 -0.264,0.232 -0.006,0.228 0.086,0.252 0.278,0.206 1.1,0.708 0.086,0.098 -0.016,0.074 -0.426,0.474 -0.044,0.292 0.012,0.482 0.06,0.312 0.138,0.13 0.552,0.146 0.682,1.084 0.656,1.022 -0.008,0.88 0.068,1.028 0.416,0.808 0.058,0.646 0.14,0.736 0.496,0.448 0.194,0.884 0.05,0.472 -0.03,0.31 0.386,0.964 0.044,0.83 -0.092,0.596 0.004,0.334 0.054,0.234 0.332,0.21 0.146,0.132 0.488,0.058 0.714,0.014 1.222,-0.22 0.954,-0.192 z m -236.222,26.606 -0.866,0.194 0.028,-0.346 0.218,-0.3 0.64,0.172 0.3,0.032 -0.32,0.248 z m 171.06,42.164 -1.006,0.144 -0.034,-0.042 0.058,-0.118 0.23,-0.206 0.28,-0.25 0.06,-0.008 0.104,0.02 0.116,0.046 0.3,0.168 0.088,0.116 -0.032,0.096 -0.164,0.034 z m 28.236,69.466 -0.422,0.162 -0.394,0.04 -0.4,-0.118 -0.7,0.01 -0.696,-0.3 -0.654,-0.424 -0.182,-0.246 0.08,-0.352 0.47,-0.814 0.448,-1.536 0.298,-2.194 -0.24,-0.83 0.03,-0.342 0.11,-0.414 0.054,-0.424 -0.034,-0.428 0.056,-0.396 0.494,-0.834 0.074,-0.374 0.014,-0.406 0.214,-0.838 -0.066,-0.278 -0.182,-0.234 0.148,-0.206 1.716,0.614 1.14,0.142 0.06,0.636 0.22,0.5 0.13,0.896 0.178,0.204 -0.092,0.642 -0.526,0.278 0.046,0.592 0.302,0.558 -0.44,0.2 -0.476,0.12 -0.11,0.156 -0.344,0.122 -0.418,0.31 0.126,0.276 0.526,0.626 0.588,0.436 0.322,0.652 0.418,0.682 -0.204,0.434 -0.382,0.616 -0.61,0.41 -0.562,0.246 0.066,1.014 -0.194,0.414 z m -5.024,2.018 -0.794,0.136 -0.18,-0.23 0.002,-0.196 0.136,-0.16 0.408,-0.106 0.266,0.132 0.14,0.188 0.044,0.172 -0.022,0.064 z m 4.816,1.698 0.118,0.382 -0.248,0.052 -0.396,-0.06 -0.192,0.302 -0.098,0.06 -0.91,-0.268 -0.142,-0.12 0.018,-0.398 0.97,-0.034 0.618,-0.254 0.086,0.04 0.176,0.298 z m 0.422,4.42 -0.276,0.336 -0.436,0.06 -0.678,0.39 -0.072,0.338 -0.034,0.416 0.468,0.502 0.232,0.584 0.278,0.876 0.202,0.836 -0.018,0.258 0.05,0.436 0.334,0.676 0.032,0.306 -0.038,0.304 -0.134,0.564 -0.106,0.076 -0.33,0.056 -0.026,0.342 -0.082,0.112 -0.94,0.036 -0.464,-0.156 0.056,-1.03 -0.594,-0.404 -0.408,-0.68 -0.46,-1.172 -0.386,-0.36 -0.45,-0.924 -0.668,-0.788 0.77,-0.5 -0.12,-0.872 0.45,-0.298 0.676,-0.312 0.498,0.246 0.448,-0.086 0.2,-0.208 -0.06,-0.888 0.142,-0.698 0.494,-0.36 0.532,-0.042 0.2,0.394 0.262,0.388 0.644,0.306 -0.002,0.4 -0.186,0.54 z m 4.206,3.028 -1.36,0.63 -0.682,-0.212 -0.264,-0.464 -0.128,-0.39 -0.14,-0.66 0.232,-0.354 0.5,-0.508 0.184,-0.328 0.09,-0.386 -0.032,-0.36 0.064,-0.344 0.294,-0.12 1.006,0.384 1.044,0.576 0.372,0.398 0.07,0.318 -0.456,0.702 -0.292,0.578 -0.502,0.54 z m -3.626,0.326 -0.184,0.09 -0.166,-0.014 -0.17,-0.27 -0.056,-0.356 -0.366,-0.532 -0.104,-0.25 0.008,-0.3 0.21,-0.43 0.312,-0.118 0.21,0.016 0.254,0.506 0.074,0.55 0.066,0.568 -0.088,0.54 z m -7.916,0.542 -0.14,0.128 -0.174,-0.038 -0.144,-0.25 -0.1,-0.428 0.196,-0.162 0.156,0 0.174,0.228 0.09,0.368 -0.058,0.154 z m 4.096,6.372 -0.312,0.356 -0.544,0.17 -0.54,-0.278 -0.652,0.13 -0.068,-0.61 0.244,-0.5 0.494,-0.594 0.358,-0.794 -0.042,-1.12 0.294,-0.256 0.158,-0.394 0.626,-0.242 0.142,0.832 -0.168,1.488 0.422,0.88 0.06,0.294 -0.082,0.338 -0.39,0.3 z m -4.488,17.534 -0.414,0.108 -0.048,-0.272 -0.374,-0.452 0.326,-0.298 0.636,-0.31 0.482,0.036 0.434,0.236 0.058,0.278 -0.758,0.366 -0.186,0.202 -0.156,0.106 z m 3.058,6.336 -0.106,0.202 -0.692,-0.124 -1.198,0.212 -0.504,-0.768 -0.22,-1.218 -0.15,-0.25 -0.298,-0.694 -0.15,-0.454 -0.304,-0.704 -0.118,-0.738 -0.076,-0.222 0.274,-0.438 1.254,-0.432 0.446,-0.698 0.382,0.092 -0.106,1.424 0.23,0.48 0.426,0.4 0.08,0.164 0.072,0.506 0.214,0.786 0.276,0.37 0.072,0.228 0.012,0.194 -0.1,0.27 0.284,1.412 z m -5.292,1.454 -0.632,0.01 -0.158,-1.512 0.744,-2.172 0.052,-0.826 -0.25,-0.622 -0.102,-0.51 0.062,-0.208 0.95,-0.43 0.296,0.456 0.354,1.21 0.672,1.74 -0.016,1.67 -0.374,0.412 -1.172,0.422 -0.426,0.36 z m 5.804,3.276 0.052,1.258 -0.094,1.266 -0.216,1.56 0.036,0.318 0.252,0.076 0.068,0.196 -0.074,0.824 -0.134,0.634 -0.262,0.52 -0.152,0.624 -0.14,0.138 -0.61,0.11 -0.334,-0.068 -0.268,-0.71 -0.078,-0.436 0.016,-0.57 -0.33,-0.764 -0.01,-0.292 0.128,-0.502 0.266,-0.248 0.04,-0.772 0.134,-0.23 0.302,-0.318 0.046,-0.13 -0.028,-0.114 -0.112,-0.012 -1.214,0.952 -0.118,0.27 -0.054,0.358 -0.014,1.264 -0.214,0.732 -0.194,0.14 -0.566,0.032 -0.748,-0.074 -0.848,-0.672 -0.554,0.186 -0.114,-0.816 0.278,-0.652 1.032,0.056 0.174,-1.158 -0.328,-0.272 -0.364,-0.464 -0.216,-0.426 0.194,-0.316 0.598,-0.458 0.32,-0.048 0.296,0.256 0.734,-0.194 -0.042,-0.726 -0.654,-0.32 0.146,-0.55 0.826,-0.526 0.494,-0.53 0.022,-0.602 -0.2,-0.6 0.062,-0.234 0.412,-0.494 0.576,-0.238 0.262,0.034 0.534,0.348 0.476,0.042 0.116,0.104 0.086,0.386 0.306,2.852 z m -3.538,-2.656 -0.046,0.676 -0.83,1.304 -0.714,0.772 -0.652,0.612 -0.416,-0.006 -0.342,-0.294 0.384,-0.484 0.478,-0.482 -0.152,-0.624 -0.144,-0.18 -0.202,-0.066 -0.346,-0.324 0.106,-0.482 0.202,-0.23 0.268,-0.176 0.25,0.104 1.084,-0.338 0.342,-0.274 0.66,-0.046 0.07,0.538 z m 0.29,12.596 -1.098,0.704 -0.322,-0.292 -0.792,0.004 0.208,-0.762 0.08,-0.558 0.12,-0.216 0.044,-0.482 0.238,-0.878 0.656,0.292 0.49,0.086 0.664,0.292 0.72,0.186 0.21,0.764 -0.7,0.35 -0.518,0.51 z m -1.388,3.38 -0.16,0.816 -0.454,-0.07 -0.152,-0.208 -0.08,-0.518 -0.14,-0.25 0.196,-0.518 0.128,-0.574 -0.044,-0.44 0.696,0.032 0.828,0.114 0.23,0.12 -0.254,0.388 -0.242,0.23 -0.5,0.142 -0.052,0.736 z m 4.174,5.308 -0.012,0.75 -0.178,0.24 -0.156,0.072 -0.394,-0.228 -0.226,-0.026 -0.374,0.398 -0.314,0.202 -0.468,-0.052 -0.622,-0.27 -0.554,1.132 -0.26,0.38 -0.542,0.53 -0.06,-0.622 0.344,-0.926 0.16,-0.63 0.316,-0.936 0.636,0.352 0.892,-0.346 0.812,-0.642 0.702,-0.004 0.23,0.342 0.068,0.284 z m -1.484,3.172 0.24,1.758 0.172,0.246 0.572,0.13 0.622,0.896 0.028,0.246 -0.752,1.53 -0.16,1.09 -0.882,-0.078 -0.37,-1.082 -0.558,-1.042 -0.188,-1.216 -0.306,-1.042 0.546,-0.588 0.522,0.13 0.03,-0.796 0.484,-0.182 z m 3.822,2.722 -0.168,0.1 -0.624,-0.21 -0.312,-0.19 -0.476,-0.478 -0.076,-0.494 -0.214,-0.586 0.138,-0.008 0.498,0.232 0.204,0.178 0.272,0.376 0.806,0.538 0.102,0.158 -0.02,0.206 -0.13,0.178 z m 30.938,6.606 -0.01,2.75 -0.01,2.726 -0.008,2.566 -0.008,2.584 -0.008,2.512 -0.008,2.594 -0.044,2.928 -0.032,2.192 -0.844,0 -0.222,0.224 -1.336,0.322 -2.272,-0.496 -0.568,-0.448 -0.762,-0.978 -0.272,0.264 -0.716,0.414 -0.736,0.328 -0.604,0.036 -0.56,-0.406 -0.12,-0.206 -0.128,-0.044 -1.208,0.562 -1.336,-0.574 -1.064,-0.35 -1.71,-0.198 -1.188,-0.72 -2.192,0.062 -0.394,-0.238 -0.146,-0.704 0.116,-0.326 0.468,-0.198 0.13,-0.39 0.474,0.094 0.614,0.516 0.188,-0.018 0.406,-0.486 0.6,-0.43 0.214,-0.044 1.102,0.53 0.444,-0.06 0.636,-0.238 0.114,-0.208 0.102,-0.364 0.168,-0.212 0.566,-0.104 0.552,0.208 0.064,0.634 -0.076,0.68 0.718,0.184 0.872,-0.022 0.6,0.254 0.076,-0.414 -0.958,-1.082 -0.402,-0.67 -0.54,-0.394 -0.694,-0.202 -0.58,-1.252 0.036,-1.094 -0.062,-1.062 1.252,-0.582 -0.288,-0.904 0.432,-0.684 0.492,-0.262 0.496,2.52 0.356,0.888 -0.454,0.18 -0.95,-0.002 0.53,1.246 0.872,0.428 0.75,0.926 0.016,0.674 0.416,0.304 1.004,0.02 0.692,-0.132 0.326,-0.45 0.376,-0.142 0.674,0.558 1.136,0.414 0.306,0.292 0.222,0.488 0.014,0.526 0.058,0.28 0.33,-0.136 0.472,-0.714 0.232,-0.248 0.284,-0.122 0.18,-0.16 0.006,-0.208 -0.85,-0.504 -4.448,-2.35 -0.546,-0.934 -0.368,-1.172 0.012,-1.206 0.324,-0.372 0.794,-0.474 1.458,-0.668 1.682,-0.958 0.21,-0.184 -0.02,-0.598 -0.21,-0.402 -0.668,-0.294 -0.698,-0.074 -0.666,0.03 -0.666,0.126 -1.214,0.634 -0.688,-0.04 -0.654,-0.342 -0.484,-0.684 -0.25,-0.922 0.002,-0.588 0.092,-0.54 0.296,-0.55 0.398,-0.24 0.356,0.032 0.336,-0.128 0.2,-0.188 0.17,-0.252 -0.05,-0.218 -0.13,-0.188 -0.542,-0.388 -0.214,-0.374 -0.464,-0.602 0.254,-0.168 0.816,-0.094 0.57,0.414 0.532,0.49 0.326,-0.002 0.292,-0.206 0.672,-0.626 0.562,-0.786 0.512,-0.892 0.414,-0.534 0.472,-0.048 1.386,1.672 0.49,0.062 1.628,-0.9 0.182,0.048 0.552,0.456 0.166,0.196 z m -32.306,2.498 0.092,0.084 0.222,-0.02 0.31,0.15 1.172,0.184 1.048,0.436 0.546,0.41 0.718,0.126 0.588,0.522 0.25,0.132 0.302,0.042 0.788,0.966 0.044,0.11 0.894,0.764 0.044,0.122 -0.508,0.042 -1.03,-0.356 -0.514,-0.02 -0.372,-0.11 -0.086,-0.062 -0.074,-0.442 -0.118,-0.218 -0.99,-1.018 -0.412,-0.222 -0.714,-0.198 -0.812,0.138 -0.548,-0.13 -0.19,0.046 -0.81,-0.806 -0.808,-0.68 -0.346,-0.806 -0.514,-0.618 -0.002,-0.18 0.236,-0.138 0.552,0.348 0.544,0.596 0.294,0.226 0.204,0.58 z m 8.21,5.226 0.152,0.766 0.08,0.146 0.408,-0.124 0.696,-0.07 1.14,0.286 0.13,0.102 0.484,0.838 0.372,0.358 0.568,0.778 -0.566,0.52 -0.334,0.748 -0.018,0.378 -0.222,0.22 -0.348,0.228 -0.518,0.438 -0.638,0.048 -0.628,0.232 -0.292,0.21 -0.172,0.014 -0.204,-0.114 -0.218,-0.216 -0.07,-0.25 0.43,-0.232 0.562,-0.826 0.1,-0.856 -0.606,-0.154 -0.362,0.118 -0.27,-0.004 -0.31,-0.262 -0.188,0.402 -0.07,0.386 0.082,0.59 -0.056,0.192 -0.22,0.108 -0.508,-0.224 -0.528,-0.398 -0.042,-0.23 0.108,-0.796 -0.01,-0.414 -0.11,-0.596 -0.058,-0.062 -0.198,0.014 -0.622,0.114 -0.622,-0.762 -0.336,-0.804 -1.144,-0.23 0.892,-1.12 1.344,-0.158 0.456,0.566 1.496,0.39 -0.09,-0.6 0.024,-0.214 0.206,-0.268 0.116,-0.022 0.176,0.188 0.288,0.08 0.132,0.184 0.136,0.364 z m 8.602,5.222 1.244,0.762 0.824,-0.006 -0.004,0.476 0.1,0.812 -0.13,0.33 -0.308,0.338 -0.194,0.48 -0.144,0.074 -0.906,-0.58 -0.946,-0.792 -0.476,0.138 -0.63,-0.194 -0.508,0.042 -0.316,0.448 -0.736,0.234 -0.134,-0.896 -0.668,-0.848 -0.666,-0.678 0.362,-1.038 0.432,-0.166 0.408,-0.346 1.634,0.366 0.848,0.31 0.914,0.734 z m 2.238,8.046 0.26,0.616 0.096,0.114 0.692,0.242 0.312,-0.146 0.752,-0.068 0.452,-0.238 0.658,-0.122 0.754,1.534 -0.084,0.468 -0.596,0.508 -0.402,0.112 -0.38,-0.154 0.026,-0.258 -0.07,-0.224 -0.26,-0.292 -0.244,0.028 -0.394,0.216 -0.188,-0.028 -0.398,-0.238 -0.698,-0.176 -0.138,-0.216 -0.016,-0.32 -0.132,-0.16 -0.728,-0.514 -0.466,-0.438 -0.394,-0.058 -0.144,0.052 -0.146,0.208 -0.354,0.2 -0.102,-0.034 -0.114,-0.166 -0.058,-0.24 0.15,-0.484 0.204,-0.046 0.994,0.096 0.61,0.224 0.546,0.002 z m 7.234,0.496 4.502,0.962 1.388,-0.584 1.098,0.018 0.326,0.802 -1.114,0.846 -0.084,0.268 0.156,0.216 1.144,0.136 0.29,0.272 0.266,0.352 -0.226,0.522 -0.022,0.242 0.12,0.234 0.858,0.792 0.352,0.408 0.178,0.392 0.072,0.688 -0.016,0.552 -0.192,0.074 -0.418,-0.168 -0.408,-0.32 -0.358,-0.792 -0.25,-0.158 -0.722,-0.16 -0.716,-0.386 -0.558,0.022 -0.514,-0.164 -0.46,0.144 -0.164,-0.26 -0.198,-0.526 -0.004,-0.228 0.242,-0.828 -0.006,-0.216 -0.126,-0.026 -0.536,0.168 -0.216,-0.112 -0.584,-0.6 -0.236,-0.114 -0.586,-0.058 -0.332,1.06 -0.018,0.264 0.338,0.676 0.664,1.042 -0.336,0.02 -0.96,-0.32 -0.246,-0.2 -0.296,-0.526 -0.57,-0.304 -0.2,-0.188 -0.058,-0.22 -0.006,-0.682 -0.126,-0.1 -0.81,0.174 -0.166,-0.166 -0.068,-0.288 -0.118,-0.16 -0.522,-0.262 -0.046,-0.164 0.232,-0.194 0.144,-0.486 0.204,-1.748 1.018,0.362 z m 14.722,2.296 -0.166,0.376 -0.354,0.496 -0.476,0.384 -0.462,0.106 -0.334,-0.2 -0.168,-0.352 -0.078,-0.348 -0.114,-0.19 -0.176,-0.042 -0.228,0.01 -0.28,0.13 -0.596,0.502 -0.256,0.13 -0.172,0.032 -1.696,-0.376 -0.166,-0.14 -0.2,-0.334 -0.22,-0.994 -0.712,-0.884 1.09,-0.5 1.308,0.002 2.524,0.382 1.006,0.086 0.774,0.84 0.122,0.504 0.03,0.38 z m 3.412,0.738 -0.448,0.43 -0.334,-0.028 -0.108,-0.156 -0.036,-0.196 0.066,-0.208 0.14,-0.19 0.328,-0.238 0.102,-0.038 0.492,0.236 -0.202,0.388 z m -4.584,5.418 -0.206,0.078 -0.152,-0.188 -0.23,-0.132 -0.936,-0.278 -0.02,-0.168 0.098,-0.24 0.186,-0.214 0.36,-0.212 0.29,-0.55 0.13,0.042 0.132,0.224 0.224,0.76 0.27,0.548 -0.028,0.19 -0.118,0.14 z m -1.606,1.124 -0.204,0.02 -0.496,-0.186 -0.742,-0.082 -0.084,-0.076 -0.018,-0.146 0.088,-0.15 0.404,-0.114 1.218,0.098 0.156,0.068 0.042,0.116 -0.198,0.33 -0.166,0.122 z" title="Chile" id="CL"></path></svg>