<svg xmlns="http://www.w3.org/2000/svg" viewBox="0 0 42.94 64.22"><path d="m 39,31.5 -0.566,0.932 -0.748,0.532 -0.22,0.322 -0.118,0.4 -0.16,0.402 -0.398,0.862 -0.29,0.704 -0.29,0.22 -0.68,1.064 -0.456,1.068 -0.092,0.276 -0.14,0.204 -0.222,0.166 -0.786,0.332 -0.266,0.164 -0.21,0.198 -0.192,0.224 -0.054,0.27 0.184,0.38 0.22,0.302 0.222,0.018 0.194,-0.014 0.122,0.18 0.102,0.106 0,2.072 -0.188,0.312 0.004,0.14 -0.092,0.356 -0.028,0.398 0.06,0.158 0.158,0.13 0.218,0.278 0.118,0.636 0.266,2.236 0.124,0.354 0.22,0.248 0.692,0.482 0.726,0.634 0.23,0.412 0.132,0.676 0.278,0.53 -0.006,0.18 -0.114,0.07 -0.27,0.008 -0.182,0.038 0.152,0.386 0.374,0.672 0.624,0.698 0.676,0.754 0.55,0.616 0.688,0.712 0.536,0.556 0.554,0.572 0.418,0.136 0.31,0.04 0.134,0.112 0.164,0.262 0.282,0.292 0.312,0.38 0.106,0.386 -0.13,0.37 0.128,0.53 0.008,0.046 0.102,0.208 -0.036,0.186 0.064,0.702 0.164,0.612 0.266,0.522 -0.004,0.044 -0.034,0.32 -0.342,0.206 -0.2,0.342 -0.058,0.474 0.102,0.578 0.264,0.682 0.006,0.4 -0.092,0.056 -0.164,0.128 -0.174,0.084 -0.472,-0.468 -0.526,-0.316 -0.786,-0.548 -0.794,-0.198 -1.024,-0.036 -0.442,0.068 -0.316,-0.206 -0.444,-0.24 -0.244,-0.06 -0.34,0.184 -0.234,0.008 -0.288,-0.07 -0.584,0.008 -0.054,-0.32 -0.1,-0.06 -0.63,0.028 -0.194,-0.264 -0.084,0.03 -0.248,-0.082 -0.506,-0.376 -0.532,0.248 -1.106,-0.032 -1.418,0.008 -1.468,0.01 -1.344,-0.012 -1.346,-0.012 -0.134,-0.35 -0.278,-0.18 -0.502,-0.016 -1.478,0.07 -1.132,-0.056 -0.362,-0.046 -0.402,-0.09 -0.944,-0.082 -1.168,0.066 -0.266,-0.018 -0.934,0.012 -2.136,-0.094 -1.182,0.014 0.028,0.214 -0.076,0.152 -0.062,0.372 -1.304,-0.002 -1.716,0 -1.62,0 -1.096,0 -1.836,0 -0.616,-0.254 -0.186,-0.164 -0.038,-0.184 -0.022,-0.124 -0.144,-0.036 0.118,-1.312 0.258,-1.092 0.1,-1.014 0.354,-0.906 -0.188,-0.898 -0.218,-0.392 -1.146,-1.272 0.526,-0.48 -0.692,0.066 -0.148,-0.474 -0.336,-0.566 0.206,-0.092 0.198,-0.31 0.626,0.094 -0.02,-0.152 -0.54,-0.476 0.052,-0.24 0.222,-0.268 -0.108,-0.114 -0.388,0.28 -0.28,-0.01 -0.216,-0.18 -0.16,-0.03 0.096,0.364 -0.218,0.326 -0.206,0.114 -0.352,-0.02 -0.288,-0.082 -0.078,-0.182 -0.27,-0.138 -0.76,-0.242 -0.638,-0.284 -0.128,-0.776 -0.254,-0.334 -0.104,-0.378 -0.06,-0.432 0.088,-0.664 -0.164,-0.106 -0.184,-0.036 -0.276,0.032 -0.254,-0.036 -0.304,-0.368 -0.266,-0.142 0.164,0.676 -0.188,0.19 -0.458,-0.054 -0.196,-0.256 -0.038,-0.192 0.21,-0.816 -0.082,-0.018 0.164,-0.434 0.312,-0.528 0.422,-0.67 0.478,-0.844 0.328,-1.49 0.222,-0.93 0.202,-0.848 0.35,-0.766 0.354,-0.512 1.002,-0.992 0.756,-0.75 0.386,-0.302 0.268,-0.254 0.472,-0.29 0.482,-0.346 0.37,-0.662 0.302,-0.618 0.23,-0.134 0.302,-0.108 0.924,-0.664 0.586,-0.422 0.136,0.21 0.1,0.26 0.112,0.12 0.492,0.082 0.674,-0.004 0.388,-0.076 0.206,-0.22 0.21,-0.602 0.122,-0.114 0.158,-0.03 0.736,0.42 0.612,0.598 0.604,0.592 0.306,0.21 0.134,0.232 0.264,1.078 0.152,0.268 0.262,0.112 0.472,-0.072 0.49,-0.19 0.432,-0.276 0.426,-0.358 0.29,-0.322 0.126,-0.238 0.064,-0.882 0.096,-0.194 0.434,-0.352 0.728,-0.588 0.416,-0.338 -0.036,-0.12 -0.26,-0.36 -0.23,-0.396 0.234,-0.408 0.242,-0.314 0.918,-1.062 0.004,-0.352 0.048,-0.426 0.734,-1.208 0.422,-1.604 0.012,-0.31 0.438,-0.774 0.518,-0.992 1.006,-0.16 0.386,-0.248 0.446,-0.438 0.288,-0.408 0.136,-0.388 0.1,-0.75 0.178,-0.854 0.11,-0.75 0.302,-0.694 0.504,-0.35 0.876,-0.292 0.132,-0.136 0.126,-0.46 0.098,-0.956 0.028,-0.576 0.034,-0.25 0.112,-0.432 0.812,-0.766 0.36,-1.2 0.32,-1.258 0.922,-1.522 1.08,-1.516 0.5,-0.408 0.422,-0.188 0.488,-0.02 0.332,-0.112 1.162,-0.756 0.486,-0.256 0.358,-0.262 0.086,-0.23 0.036,-0.334 -0.112,-0.784 0.2,-0.574 0.118,-0.894 0.048,-0.696 -0.042,-0.242 -0.182,-0.334 -0.034,-0.072 -0.348,-0.434 -0.582,-0.262 -0.8,-0.072 -0.424,-0.154 -0.07,-0.364 -0.04,-0.21 -0.042,-0.228 -0.058,-0.506 -0.538,-2.666 1.016,0.008 1.216,0.318 0.306,0.24 0.162,0.912 0.44,0.518 0.774,0.424 0.482,0.878 0.188,1.328 0.426,0.794 0.098,0.126 0.482,1.146 0.12,0.352 0.036,0.69 -0.054,0.466 0.246,0.576 -0.372,0.984 -0.112,0.602 -0.032,0.846 0.218,1.492 0.356,1.15 0.386,0.93 0.422,0.722 0.694,0.796 0.742,0.726 0.69,0.458 -0.64,0.268 -1.24,0.034 -0.712,-0.154 -0.34,-0.008 -0.342,0.096 -1.324,0.138 -1.336,-0.064 -1.238,-0.182 -0.752,0.03 -0.58,0.442 -0.472,0.664 -0.44,0.526 0.154,0.582 0.332,0.322 0.64,0.708 0.572,0.686 0.294,0.46 1.144,1.008 1.104,0.9 0.216,0.15 0.31,0.162 0.192,0.066 0.602,0.516 0.832,0.846 0.764,1.324 0.542,1.344 0.528,1.306 0.232,0.22 0.368,0.14 0.044,0.28 -0.028,0.414 -0.114,0.338 z" title="Cameroon" id="CM"></path></svg>