<svg xmlns="http://www.w3.org/2000/svg" viewBox="0 0 68.19 93.52"><path d="m 43.24,3.26 -0.202,0.07 -0.25,0.15 -0.762,0.282 -1.03,0.268 -1.34,0.344 -0.304,0.368 -1.326,2.306 -1.11,0.466 -0.404,0.344 -0.304,0.436 -0.662,0.802 -0.276,0.616 -0.73,1.338 -0.4,1.676 -0.152,0.94 -0.22,1.362 -0.324,0.684 -0.432,0.642 -0.466,0.626 -0.4,0.688 -0.34,0.538 -0.056,0.184 0.166,0.148 0.806,-0.148 0.318,-0.162 0.44,-0.208 0.276,0.112 0.276,0.592 0.312,0.074 0.294,-0.074 0.312,0.148 0.398,1.472 0.338,1.246 0.784,0.778 0.612,0.606 0.148,0.536 0.146,0.756 0.038,0.37 -0.192,0.222 -0.304,0.46 -0.076,0.878 -0.052,0.292 -0.056,0.814 0.04,0.5 0.164,0.39 0.272,0.224 0.552,0.116 0.498,0.136 0.286,0.676 0.406,0.86 0.436,0.362 0.64,0.238 0.458,-0.086 1.068,-0.152 0.918,0.038 1.344,0.23 0.5,-0.008 0.646,-0.044 1.138,-0.466 0.414,-0.07 0.46,0.042 0.672,0.238 0.364,0.188 0.466,0.194 0.68,0.138 0.438,-0.024 0.332,-0.008 0.192,0.088 1.07,1.334 0.928,1.156 0.808,0.97 0.874,1.046 0.068,0.062 0.394,-0.134 0.26,0.058 0.24,0.212 0.414,-0.088 0.588,-0.388 0.856,-0.078 1.126,0.232 1.486,0 1.844,-0.23 1.146,-0.25 0.448,-0.27 0.74,0.028 0.894,0.242 0.482,0.344 0.058,0.338 0.18,0.53 -0.194,0.536 -0.568,0.542 -0.316,0.694 -0.062,0.844 -0.294,0.624 -0.526,0.404 -0.206,0.588 0.116,0.772 -0.056,1.128 -0.23,1.484 0,0.886 0.23,0.29 0.106,0.416 -0.018,0.542 0.086,0.48 0.286,0.624 0.398,1.242 0.332,0.534 0.29,0.196 0.294,0.24 0.848,1.27 0.206,0.268 -0.062,0.234 -0.08,0.174 -0.098,0.112 -0.904,0.756 -1.796,1.644 -0.148,0.208 0.012,0.344 0.52,-0.222 0.558,0.186 0.272,0.036 0.124,0.136 0.162,0.444 0.186,0.074 0.272,0.184 0.532,0.468 0.446,0.492 0.334,0.236 0.236,0.22 0.074,0.32 -0.098,0.32 0.28,0.742 0.19,0.23 0.1,0.282 -0.1,0.284 0.236,0.332 0.256,0.654 0.312,0.798 0.038,0.444 0.13,0.204 0.154,0.592 0.262,0.556 -0.062,0.38 0.11,0.374 -1.062,0.25 -0.096,-0.04 -0.064,-0.138 0.03,-1.062 -0.01,-1.2 -0.164,-0.492 -0.486,-0.788 -0.644,-1.044 -0.176,-0.3 -0.272,-0.172 -0.322,-0.024 -0.236,0.074 -0.316,0.194 -0.298,0.212 -0.576,0.63 -0.58,0.736 -0.34,0.166 -0.34,0.068 -0.3,-0.022 -0.242,-0.198 -0.248,-0.402 -0.298,-0.534 -0.356,-0.174 -0.138,0.164 -0.118,0.314 -0.092,0.312 0.24,0.396 0.206,0.306 -0.354,-0.01 -1.144,0 -1.32,0 -1.318,0 -1.184,0 -1.096,0 -0.418,-0.026 -0.426,-0.18 -0.408,-0.084 -0.216,0.014 -0.386,0.174 -0.502,0.026 -0.338,0.166 -0.272,-0.02 -0.004,0.92 -0.008,1.31 -0.008,1.39 0.304,-0.106 0.262,0.01 0.192,0.098 0.54,-0.08 0.298,0.042 0.284,0.036 0.262,0.004 0.162,0.11 0.216,-0.02 0.232,-0.122 0.278,0.076 0.298,0.196 0.192,0.292 0.172,0.362 0.172,0.192 -0.01,0.346 -0.006,0.272 -0.06,0.226 0.076,0.146 0.056,0.156 -0.016,0.09 -0.1,0.042 -0.218,0.03 -0.232,0.026 -0.162,-0.01 -0.126,-0.14 -0.122,-0.016 -0.176,0.02 -0.188,-0.084 -0.162,-0.176 -0.288,-0.176 -0.308,0.076 -0.212,0.09 -0.218,0.11 -0.198,0.116 -0.198,-0.03 -0.252,0.084 -0.212,0.13 -0.284,0.106 -0.308,0.05 -0.354,0.05 -0.338,0.02 -0.384,0.042 -0.022,0.732 -0.044,1.438 -0.03,0.952 0.002,0.878 0.148,0.32 0.68,0.676 0.534,0.356 0.452,0.398 0.45,0.166 0.188,0.15 0.124,0.246 0.062,0.258 0.048,0.22 -0.048,0.234 -0.112,0.222 0.048,0.234 0.162,0.184 0.05,0.234 0.112,0.222 0.062,0.222 0.136,0.16 0.172,0.11 0.222,0.184 0.024,0.172 -0.024,0.196 -0.002,0.148 0.212,0.338 0.062,0.238 -0.098,0.282 -0.096,0.982 -0.244,1.118 -0.158,0.854 -0.254,1.39 -0.296,1.618 -0.362,1.972 -0.358,1.948 -0.344,1.886 -0.312,1.706 -0.344,1.882 -0.208,1.14 -0.1,0.198 -0.288,-0.414 -0.436,-0.39 -0.408,-0.234 -0.174,-0.308 -0.234,-0.628 -0.328,-0.214 -0.23,-0.166 -0.222,0.024 -0.236,0.172 -0.364,0.11 -0.246,-0.016 -0.99,-0.432 -0.162,-0.042 0.636,-0.988 1.138,-1.766 0.724,-1.124 0.802,-1.246 0.41,-0.636 0.054,-0.108 0,-0.164 -0.174,-0.242 -0.386,-0.102 -0.448,-0.186 -0.282,-0.302 -0.39,-0.13 -0.304,-0.214 -0.554,-0.21 -0.332,-0.194 -0.406,-0.07 -0.322,-0.356 -1.174,-0.69 -0.302,-0.064 -0.33,0.106 -0.484,0.11 -0.466,0.376 -0.582,0.122 -0.544,-0.004 -0.284,-0.224 -0.272,-0.082 -0.356,-0.306 -0.628,-0.236 -0.456,-0.164 -0.282,0.076 -0.362,0.342 -0.366,0.34 -0.29,0.212 -0.39,-0.012 -0.466,0.312 -0.458,0.112 -0.462,0.048 -0.532,0.11 -0.59,-0.188 -0.484,-0.166 -0.216,-0.076 -0.196,0.052 -0.304,0.174 -0.544,0.074 -0.426,0.018 -0.302,-0.082 -0.272,-0.302 -0.44,-0.154 -0.484,-0.188 -0.102,-0.39 0.07,-0.292 0.188,-0.42 -0.104,-0.434 -0.204,-0.684 -0.086,-0.28 -0.152,-0.238 -0.238,-0.086 -0.466,0.064 -0.51,-0.258 -0.314,-0.248 -0.162,-0.302 0.172,-0.57 -0.152,-0.486 -0.304,-0.268 -0.196,-0.474 -0.304,-0.376 -0.4,-0.194 -0.402,0.022 -0.314,-0.118 -0.358,-0.4 -0.336,-0.15 -0.38,-0.388 -0.708,-0.172 -0.368,-0.152 -0.21,-0.24 -0.284,-0.428 0.032,-0.236 -0.138,-0.234 -0.122,-0.418 -0.242,-0.618 -0.266,-0.352 -0.274,-0.264 -0.232,-0.224 -0.344,-0.334 -0.422,-0.194 -0.358,-0.204 -0.14,-0.302 -0.12,-0.248 -0.202,0.018 -0.288,-0.022 -0.316,-0.064 -0.334,-0.18 -0.28,-0.218 -0.47,-0.37 -0.256,-0.048 -0.228,0 -0.336,0.362 -1.006,-0.38 -0.862,-0.564 -0.894,-0.146 -0.578,-0.344 -0.534,-0.54 -0.288,-0.366 -0.234,-0.18 -1.138,-0.524 -0.226,-0.05 -0.434,0.244 -0.14,0.146 -0.026,0.418 -0.052,0.238 -0.378,0.144 -0.61,-0.032 -0.422,-0.152 -0.284,-0.022 -0.058,0.12 -0.16,0.05 -0.346,-0.034 -0.51,-0.116 -0.462,-0.154 -0.626,-0.328 -0.29,0.042 -0.712,-0.07 -0.582,-0.188 -0.148,-0.172 -0.252,-1.18 -0.078,-0.082 -0.25,-0.05 -0.422,-0.164 -0.266,-0.19 -0.138,-0.328 -0.166,-0.31 -0.71,0.07 -1.164,-0.41 -0.806,-0.39 -0.738,-0.432 -1.12,-0.852 -0.426,-0.21 -0.528,-0.26 -0.312,-0.42 -0.514,-0.424 -0.172,-0.116 -0.162,-0.382 -0.768,-0.556 0.38,-0.716 0.924,-0.54 1.212,0.418 0.148,-0.836 -0.438,-0.74 0.066,-1.398 0.142,-0.28 0.32,-0.374 0.416,-0.26 0.244,-0.074 0.416,0.128 0.262,-0.28 0.988,0.126 0.3,-0.118 0.206,-0.19 0.242,-0.144 0.308,-0.336 0.178,-0.388 0.148,-0.152 0.342,0.054 0.032,-0.168 0.176,-0.228 0.598,-0.51 -0.006,-0.226 -0.168,-0.492 0.042,-0.18 0.346,-0.062 0.41,-0.138 0.218,-0.47 0.27,-0.41 0.308,-0.604 0.34,-0.038 0.18,-0.706 0.458,-0.618 0.932,-1.832 -0.282,0.04 -0.224,0.246 -0.254,-0.03 -0.29,-0.144 0.084,-0.826 -0.166,-0.098 -0.45,0.636 -0.388,-0.648 -0.036,-0.394 0.164,-0.39 -0.024,-0.262 -0.628,0.196 0.03,-0.244 0.39,-0.25 0.178,-0.26 0.34,-0.284 0.142,-0.428 0.082,-0.666 0.154,-0.714 -0.114,-0.352 -0.184,-0.3 -0.154,-1.332 0.042,-0.776 -0.08,-0.61 -0.16,-0.516 -0.746,-0.678 1.178,-0.776 0.422,-0.586 -0.536,-1.206 -0.7,-1.018 -0.02,-0.61 0.184,0.078 0.236,-0.018 0.214,-1.288 -0.05,-0.398 -0.394,-0.644 -0.488,-0.016 -0.428,-0.81 -0.246,-0.182 -0.198,-0.51 -0.69,-0.994 -0.546,-0.518 0.41,-1.2 0.358,-0.23 0.116,-0.298 -0.14,-0.738 0.04,-0.172 0.084,-0.074 0.084,0.004 0.144,0.112 0.268,0.318 0.224,0.394 0.18,0.12 0.272,-0.13 1.052,-0.786 -0.068,-0.244 0.096,-0.492 0.352,-0.402 0.376,-0.138 0.112,-0.224 -0.09,-0.346 -0.396,-0.862 -0.352,-0.464 -0.226,-0.462 -0.12,-0.426 -0.4,-0.402 0.168,-0.38 0.31,-0.444 0.106,-0.078 0.168,0.122 0.464,0.806 0.738,0.524 0.774,0.846 0.318,0.584 0.252,0.106 0.218,0.21 -0.096,0.158 -0.242,0.166 -0.07,0.338 0.158,0.19 0.166,0.122 0.452,-0.078 0.248,-0.396 -0.166,-1.738 -0.26,-0.87 -0.302,-0.27 -0.27,-0.344 0.182,-0.26 0.482,-0.118 0.632,-0.304 2.316,-1.662 0.794,-1.562 0.608,-0.566 0.686,-0.368 0.84,0.086 0.652,-0.196 0.202,-0.498 -0.178,-0.674 -0.25,-0.408 0.24,-0.59 0.25,-0.898 -0.018,-0.754 0.322,-0.45 -0.112,-0.176 -0.47,0.364 -0.372,0.164 0.21,-0.3 0.658,-0.744 0.342,-1.134 0.262,-0.472 0.928,-0.66 0.184,-0.318 0.702,-0.496 1.13,-1.064 0.432,-0.296 2.19,0.686 0.696,-0.044 -0.124,0.126 -0.322,0.042 -0.464,0.186 -0.134,0.41 0.314,0.428 0.334,0.124 0.284,-0.276 0.282,-0.786 0.454,-0.87 0.106,-0.912 0.322,-0.314 0.47,-0.114 0.84,0.18 0.638,0.188 0.666,0.024 2.042,-0.138 3.32,-2.37 1.542,-0.51 0.966,-0.5 0.616,-0.974 0.166,-0.732 0.454,-0.284 0.476,0 0.218,-0.178 0.068,-0.226 1.148,-0.634 0.658,-0.082 0.582,0.012 1.3,0.552 0.602,0.976 0.1,0.672 -0.824,0.73 -0.216,0.32 z m -38.134,52.444 -0.152,0.124 -0.29,-0.22 -0.098,-0.28 0.178,-0.208 0.228,0.068 0.104,0.17 0.03,0.346 z" title="Colombia" id="CO"></path></svg>