<svg xmlns="http://www.w3.org/2000/svg" viewBox="0 0 14.93 13.79"><path d="m 0.96,1.44 -0.546,0.12 -0.232,-0.058 -0.076,-0.464 -0.11,-0.306 0.026,-0.136 1.254,-0.598 0.442,0.1 0.308,0.478 -0.21,0.264 -0.856,0.6 z m 1.586,0.748 -0.46,0.14 -0.286,-0.018 -0.41,-0.206 0.128,-0.222 0.444,-0.248 0.306,-0.052 0.25,0.442 0.028,0.164 z m 11.22,0.928 -0.18,0.298 -0.22,-0.438 -0.12,-0.104 -0.058,-0.628 0.326,-0.188 0.158,-0.016 0.004,0.65 0.09,0.426 z m -6.732,0.212 0.232,0.17 0.076,0.124 -0.344,0.064 -0.836,-0.224 -0.222,0.136 -0.222,0.482 -0.426,-0.73 0.03,-0.268 0.09,-0.078 0.592,0.192 1.03,0.132 z m 6.566,2.24 0.468,0.106 0.178,-0.038 0.298,0.024 0.32,0.304 0.06,0.324 -0.158,0.406 -0.62,0.334 -0.358,-0.04 -0.422,-0.304 0.242,-0.6 -0.008,-0.516 z m -2.956,7.12 -0.338,0.53 -0.744,-0.042 -0.382,-0.218 -0.448,-0.666 0.014,-0.516 0.158,-0.448 -0.028,-0.388 0.064,-0.102 0.23,0.068 0.038,0.262 0.676,0.64 0.25,0.124 0.51,0.756 z m 1.472,-0.744 -0.156,0.022 -0.234,-0.26 0.052,-0.36 -0.026,-0.094 0.208,-0.384 0.408,0.034 0.104,0.286 0.02,0.588 -0.376,0.168 z m -6.32,1.62 -0.436,0.22 -0.306,-0.096 -0.29,-0.228 -0.14,-0.33 0.114,-0.284 0.588,-0.334 0.352,0.108 0.188,0.52 -0.07,0.424 z" title="Cape Verde" id="CV"></path></svg>