<svg xmlns="http://www.w3.org/2000/svg" viewBox="0 0 37.85 21.36"><path d="m 15.26,1.58 0.484,-0.022 0.49,-0.222 0.04,-0.362 -0.032,-0.676 0.052,-0.098 0.742,0.192 0.744,0.304 0.104,0.672 0.2,0.33 0.236,0.302 0.224,0.136 0.39,0.022 1.01,0.398 0.486,0.08 0.498,0.276 0.42,0.28 0.306,0.06 0.142,0.306 0.188,0.21 0.332,-0.162 1.212,-0.226 0.436,0.302 0.294,0.32 0.04,0.1 -0.154,0.282 -0.074,0.218 -0.126,0.146 -0.416,0.154 -0.234,0.248 -0.172,0.272 0.116,0.26 0.34,0.196 0.24,0.044 0.092,0.19 0.77,0.848 0.612,1.106 0.238,0.172 0.224,0.042 0.26,-0.162 0.3,-0.36 0.354,-0.258 0.3,-0.134 0.53,-0.306 0.022,-0.198 -0.444,-0.75 -0.254,-0.608 0.06,-0.11 0.566,0.096 0.96,0.332 1.478,1.082 0.266,0 0.516,-0.082 0.562,-0.176 0.268,-0.2 0.1,0.074 0.086,0.594 -0.148,0.326 -0.672,0.316 0.038,0.156 0.174,0.202 0.302,0.136 0.368,0.384 0.254,0.438 0.222,0.202 0.244,0.096 0.612,-0.234 0.172,-0.184 0.078,-0.13 0.118,0.028 0.214,0.216 0.066,0.126 0.594,0.244 0.344,0.3 0.218,0.14 0.242,-0.136 0.942,0.238 0.26,0.2 0.082,0.332 -0.046,0.202 0.144,0.52 1.192,1.246 0.124,0.636 0.018,0.254 -0.142,0.012 -0.322,0.132 -0.412,0.048 -0.446,-0.026 -0.348,0.23 -0.328,0.376 -0.34,0.26 -0.182,0.23 -0.104,0.24 -1.144,0.676 -0.16,0.282 -0.126,0.384 -0.054,0.516 -0.08,0.464 -0.198,0.244 -0.618,0.21 -0.154,0.112 -0.116,0.236 -0.346,0.362 -0.406,0.344 -0.748,0.394 -0.802,0.12 -1.042,-0.128 -0.61,-0.154 -0.294,0.17 -0.408,0.512 -0.436,0.88 -0.182,0.662 -0.14,-0.188 -0.25,-0.7 -0.282,-0.09 -0.386,-0.066 -0.29,-0.104 -0.628,-0.404 -0.322,-0.122 -0.37,-0.032 -0.352,0.238 -0.268,0.28 -0.83,-0.004 -0.91,-0.13 -1.302,-0.932 -0.338,-0.008 -0.36,0.042 -0.57,-0.222 -1.102,-0.604 -0.518,-0.142 -0.326,0.086 -0.298,0.136 -0.214,0.016 -0.122,-0.198 -0.41,-0.242 -0.412,-0.028 -0.118,0.146 -0.14,1.33 -0.138,0.48 -0.566,-0.022 -0.202,0.224 -0.444,0.642 -0.086,0.614 -0.772,-0.118 -0.366,-0.104 -0.324,0.078 -0.356,0.34 -0.998,-0.02 -0.79,-0.202 -0.338,-0.762 -0.362,-0.304 -0.456,-0.268 -0.158,-0.062 -0.252,-0.416 -0.478,-0.516 -0.77,-0.708 -0.6,0.036 -0.222,-0.188 -0.098,-0.26 -0.25,-0.45 -0.284,-0.312 -0.342,-0.122 -0.49,-0.4 -0.656,-0.872 -0.6,-0.604 -0.58,0.01 -0.366,-0.316 -0.376,-0.416 -0.276,-0.402 -0.428,-0.98 -0.312,-0.56 -0.242,-0.346 -0.274,-0.288 -0.1,-0.23 0.336,-0.524 0.122,-0.26 0.144,-0.2 0.084,-0.212 -0.004,-0.158 -0.304,-0.52 -0.412,-0.376 -0.606,-0.38 -0.386,-0.482 -0.14,-0.44 -0.042,-0.244 -0.266,-0.328 -0.214,-0.482 0,-0.29 0.054,-0.082 0.2,0 0.224,0.198 0.316,0.38 0.26,0.556 0.158,-0.212 0.298,-0.592 0.528,-0.67 0.54,-0.384 0.486,-0.032 0.398,-0.106 0.33,-0.192 0.578,0.078 0.418,0.138 0.136,-0.086 0.17,-0.35 0.108,-0.302 0.924,-0.176 0.318,-0.584 0.178,0.002 0.206,-0.086 0.196,-0.222 0.188,-0.092 0.15,0.112 0.196,0.072 0.204,-0.14 0.304,-0.672 0.168,-0.104 0.812,-0.104 1.108,-0.396 0.56,-0.352 0.55,-0.192 0.592,-0.342 0.938,-0.332 0.044,-0.136 -0.434,-0.342 -0.146,-0.216 -0.1,-0.222 0.154,-0.246 0.206,-0.074 0.266,0.102 0.786,0.146 0.216,0.142 0.078,0.346 0.2,0.322 0.16,0.036 -0.058,0.524 0.25,0.204 0.368,0.158 0.242,-0.032 0.174,-0.212 z" title="Czech Republic" id="CZ"></path></svg>