<svg xmlns="http://www.w3.org/2000/svg" viewBox="0 0 51.42 69.67"><path d="m 13.76,2.66 -0.13,0.192 0.062,-1.374 0.614,-1.468 0.26,0.034 -0.266,0.398 -0.078,0.278 -0.108,0.554 0.048,0.288 1.402,0.08 -0.164,0.256 -1.422,0.172 -0.218,0.59 z m 8.038,-0.374 0.034,0.178 0.822,0.258 0.346,0.412 0.384,0.624 0.038,0.896 -0.492,0.644 -0.408,0.408 1.542,-0.154 0.154,0.368 0.234,0.398 0.83,-0.284 2.084,1.174 1.26,-0.572 0.322,-0.034 0.286,0.948 -0.314,0.952 -1.11,1.012 0.246,0.624 0.356,0.138 1.046,-0.132 1.658,0.614 0.346,-0.192 1.344,-1.418 0.538,-0.306 1.768,-0.218 0.322,-0.552 0.716,-0.554 0.46,-0.606 1.106,-1.158 1.144,0.208 0.668,0.222 0.732,0.112 0.666,1.234 1.688,1.358 1.55,-0.118 0.55,1.282 0.244,1.576 0.476,0.494 0.418,0.322 1.262,0.336 0.05,0.02 0.042,0.212 0.078,0.78 0.106,0.644 0.65,2.564 -0.012,0.624 -0.008,0.166 -0.238,0.874 -0.422,0.734 -0.558,0.414 -0.308,0.46 -0.056,0.506 0.702,0.886 1.462,1.266 0.59,1.08 -0.278,0.896 -0.084,0.656 0.108,0.416 0.234,0.334 0.36,0.252 0.144,0.388 -0.074,0.524 0.068,0.364 0.27,0.258 -0.026,0.1 -0.13,0.364 -0.178,0.662 -0.102,0.484 -0.412,0.656 0.126,0.558 0.322,0.656 0.246,0.33 0.078,0.312 -0.156,0.74 0.078,0.19 1.018,0.544 0.166,0.25 0.098,0.522 0.358,1.114 -0.296,1.408 -0.26,0.77 -0.58,1.218 -0.028,0.112 -0.066,0.148 -0.174,0.212 -0.242,0.032 -0.366,-0.158 -0.25,-0.204 0.058,-0.524 -0.162,-0.036 -0.2,-0.322 -0.078,-0.346 -0.216,-0.142 -0.786,-0.146 -0.268,-0.102 -0.206,0.074 -0.154,0.246 0.098,0.222 0.146,0.216 0.436,0.342 -0.044,0.136 -0.94,0.334 -0.59,0.34 -0.55,0.192 -0.56,0.352 -1.106,0.396 -0.812,0.104 -0.168,0.104 -0.302,0.67 -0.204,0.14 -0.198,-0.072 -0.148,-0.11 -0.188,0.09 -0.196,0.222 -0.206,0.086 -0.178,-0.002 -0.318,0.584 -0.924,0.176 -0.108,0.302 -0.17,0.35 -0.136,0.086 -0.416,-0.138 -0.578,-0.078 -0.332,0.192 -0.398,0.106 -0.486,0.032 -0.542,0.382 -0.528,0.67 -0.296,0.592 -0.16,0.212 -0.258,-0.556 -0.316,-0.38 -0.224,-0.198 -0.2,0 -0.052,0.082 0,0.29 0.214,0.482 0.264,0.33 0.042,0.244 0.142,0.44 0.386,0.482 0.604,0.38 0.412,0.376 0.306,0.52 0.002,0.16 -0.084,0.212 -0.144,0.2 -0.122,0.26 -0.336,0.524 0.1,0.23 0.274,0.288 0.242,0.346 0.312,0.56 0.428,0.98 0.276,0.402 0.376,0.416 0.368,0.316 0.58,-0.01 0.6,0.604 0.656,0.872 0.49,0.398 0.342,0.122 0.284,0.314 0.25,0.45 0.098,0.26 0.222,0.188 0.6,-0.036 0.772,0.708 0.476,0.516 0.252,0.416 -0.066,0.166 -0.032,0.518 0.008,0.548 -0.076,0.29 -0.344,0.382 -0.178,0.082 -0.096,0.082 -1.058,-0.498 -0.084,0.084 -0.066,0.062 -0.284,1.438 -0.194,0.276 -0.292,0.254 -0.604,0.248 -0.42,0.1 -0.328,0.126 -1.038,0.6 -0.466,0.36 -0.302,0.452 -0.002,0.26 0.504,0.762 0.582,0.788 0.002,0.69 -0.256,0.516 -0.06,0.198 0.172,0.076 0.322,0.028 0.27,0.088 0.114,0.364 -0.034,0.63 -0.092,0.59 -0.096,0.248 -0.26,0.02 -0.5,-0.254 -0.39,-0.296 -0.15,-0.182 -0.008,-0.218 0.084,-0.138 -0.138,-0.268 -0.48,-0.25 -0.514,0.108 -0.378,0.166 -0.246,-0.01 -0.264,-0.24 -0.408,-0.184 -0.532,-0.122 -0.332,-0.128 -0.07,0.076 0.038,0.518 -0.102,0.226 -2.632,0.3 -0.802,0.28 -0.584,0.362 -0.432,0.156 -0.106,0.222 -0.428,0.292 -0.482,0.092 -0.118,-0.094 -0.31,0.134 -0.528,0.13 -0.342,-0.042 -0.162,-0.236 -0.326,-0.362 -0.132,-0.25 0.014,-0.162 -0.738,-0.032 -0.464,-0.192 -0.988,0.044 -0.244,-0.082 -0.05,0.086 -0.148,1.028 -0.196,0.42 -0.316,0.434 -0.406,0.242 -0.322,0.044 0.014,-0.316 0.082,-0.382 -0.234,-0.09 -0.35,-0.042 -0.168,-0.114 0.044,-0.292 -0.082,-0.17 -0.144,-0.204 -0.352,-0.262 -0.744,-0.388 -0.506,-0.194 -0.19,0.206 -0.362,0.206 -0.57,-0.068 -0.14,0.082 -0.978,-0.62 -0.938,-0.596 -0.31,0 -1.382,0.12 -0.04,-0.052 -0.242,-0.34 -0.212,-0.108 -0.128,0.056 -0.086,0.098 -0.148,-0.016 -0.62,-0.548 -0.254,-0.08 -0.352,0.074 -0.416,0.296 -0.182,0.362 0.056,0.208 0.214,0.09 0.566,-0.06 0.082,0.06 0.02,0.118 -0.062,0.114 -0.458,0.094 -0.132,0.138 -0.134,0.034 -0.086,0.022 -0.488,-0.144 -0.726,0 -0.586,0.254 -0.936,0.102 -1.286,-0.05 -0.462,-0.19 -0.282,-0.114 -0.204,-0.56 0.052,-0.83 0.306,-1.102 0.086,-0.81 -0.136,-0.516 0.182,-0.776 0.5,-1.036 0.334,-1.094 0.166,-1.156 0.242,-0.754 0.476,-0.53 1.13,-1.484 0.092,-0.112 -0.032,-0.742 -0.304,-0.106 -0.446,-0.214 -1.134,-0.264 -1.056,-0.17 -0.48,-0.21 -0.42,-0.562 -0.26,-0.008 -0.51,0.202 -0.636,0.136 -0.464,-0.118 -0.29,0.022 -0.162,0.104 -0.082,-0.092 -0.116,-0.482 -0.242,-0.126 -0.376,-0.112 -0.234,0.048 -0.162,0.24 -0.25,0.168 -0.228,-0.054 -0.718,-1.116 -0.184,-0.248 -0.046,-0.228 -0.18,-0.416 -0.428,-0.416 -0.426,-0.132 -0.212,0.046 0.024,-0.516 0.166,-0.75 0.16,-0.392 0.212,-0.32 0.226,-0.224 0.05,-0.404 -0.036,-0.382 -0.26,-0.06 -0.652,-0.282 -0.386,-0.298 -0.286,-0.374 -0.376,-0.514 -0.16,-0.524 -0.008,-0.522 0.044,-0.234 0.028,-0.162 0.302,-0.816 1.064,-0.732 -0.118,-0.738 -0.016,-0.454 -0.258,-0.296 -0.516,-0.12 -0.136,-0.206 -0.058,-0.202 0.378,-0.454 -0.458,-0.358 -0.208,-0.354 -0.636,-0.468 -0.068,-0.162 0.306,-1.37 -0.234,-0.4 -0.29,-0.204 -0.338,-0.1 -0.156,-0.19 -0.054,-0.218 0.06,-0.134 0.398,0.04 0.124,-0.142 0.948,-0.808 0.04,-0.156 -0.132,-0.088 -0.172,-0.046 -0.044,-0.17 0.006,-0.224 0.506,-1.17 0.15,-0.5 0.034,-0.354 -0.032,-0.35 -0.292,-0.55 -0.282,-0.44 -0.01,-0.35 -0.206,-0.184 -0.584,-0.942 0,-0.364 0.33,-0.284 0.462,-0.18 0.154,-0.15 0.276,-0.094 0.734,0.272 0.328,0.236 0.092,-0.048 0.296,-0.256 0.52,0.04 1.258,-0.516 0.188,-0.248 0.14,-0.264 0.012,-0.116 -0.488,-0.51 -0.014,-0.188 0.064,-0.212 0.138,-0.168 0.288,-0.114 0.306,-0.224 0.686,-0.636 0.238,-0.552 0.074,-0.6 0.014,-0.448 -0.188,-0.356 -0.19,-0.23 -0.258,0.036 -0.502,-0.018 -0.47,-0.2 -0.258,-0.324 -0.064,-0.284 0.118,-0.18 0.036,-0.22 -0.076,-0.222 0.03,-0.186 0.212,-0.15 1.486,0.004 0.112,-0.164 0.1,-0.864 0.372,-1.318 0.35,-0.736 0.058,-0.31 -0.006,-1.75 0.048,-0.89 -0.254,-0.418 -0.554,-0.458 0.118,-0.956 0.184,-0.748 0.558,-0.92 0.442,-0.252 1.93,-0.15 2.132,0.062 0.886,1.39 -0.328,0.712 0.518,0.332 0.25,-0.122 0.19,-0.62 0.126,-0.688 0.182,-0.208 0.66,0.514 0.232,0.352 0.014,1.128 0.244,-1.53 -0.182,-1.074 0.124,-1.044 0.266,-0.544 0.244,-0.346 1.564,0.374 1.728,-0.192 0.654,0.404 1.478,2.014 0.494,0.33 0.622,0.104 -0.858,-0.43 -1.792,-2.452 -0.536,-0.304 -0.824,-0.092 -0.514,-0.24 -0.324,-0.372 -0.094,-0.334 0.018,-2.49 -0.308,-0.372 -0.4,-0.128 -0.25,0.17 -0.512,0.002 -0.108,-0.566 0.126,-0.42 1.028,-0.288 0.678,-0.386 0.03,-0.682 -0.428,-0.538 -0.512,-0.988 -0.602,-0.93 -0.068,-1.084 0.002,0 1.048,0.02 0.256,0.042 1.588,0.508 0.388,0.356 0.488,0.016 0.88,-0.332 0.658,-0.146 0.254,0.206 0.358,0.086 0.08,0 z m -6.466,1.096 -0.218,0.238 -0.536,-0.028 -0.3,-0.224 0.098,-0.238 0.284,-0.182 0.236,-0.028 0.356,0.112 0.08,0.35 z m 28.746,3.184 0.14,0.646 -0.15,0.33 -0.63,-0.548 -0.634,0.008 -0.378,0.842 -0.282,0.036 -0.978,-0.766 -0.158,-0.374 -0.032,-0.312 0.14,-1.08 -0.026,-0.34 0.308,-0.372 0.048,-0.54 0.542,-0.568 0.484,-0.022 0.152,0.482 0.232,0.332 0.812,0.372 0.122,0.168 0.074,0.234 -0.378,0.456 -0.128,0.234 0.12,0.374 0.6,0.408 z m -13.618,-0.338 -0.862,0.018 -0.33,-0.384 -0.33,-0.098 0.178,-0.474 0.232,-0.174 0.834,0.31 0.262,0.606 0.016,0.196 z m 16.436,4.474 -0.074,0.298 0.086,0.458 -0.232,-0.034 -0.696,0.108 -0.688,-0.152 -0.132,-0.57 0.11,-0.548 -0.276,-0.378 -0.254,-0.222 -0.038,-0.316 0.042,-0.33 1.186,0.884 0.966,0.802 z" title="Germany" id="DE"></path></svg>