<svg xmlns="http://www.w3.org/2000/svg" viewBox="0 0 39.38 31.29"><path d="m 9.08,29.38 -0.084,0 -0.358,-0.086 -0.254,-0.206 -0.658,0.146 -0.88,0.332 -0.488,-0.016 -0.388,-0.356 -1.588,-0.508 -0.256,-0.042 -1.048,-0.02 -0.002,0 -0.05,-0.804 -0.13,-0.582 -0.368,-0.868 0.544,-0.21 -0.106,-1.7 -0.198,-0.882 -1.518,-0.91 -1.196,-0.886 0.276,-3 0.118,-0.812 -0.454,-1.58 0.048,-1.828 0.192,-2.896 0.38,-0.114 0.28,0.014 1.076,0.522 0.448,0.052 0.308,0.466 0.36,0.192 0.26,-0.494 0.102,-0.846 0.852,-1.098 0.598,-0.406 0.408,-0.194 0.412,0.444 0.314,0.498 0.074,-1.09 0.254,-2.086 -0.81,-0.328 -0.662,0.284 -0.654,1.324 -0.584,1.658 -0.948,0.152 -0.756,0.468 -0.682,-0.486 -0.44,-0.428 -0.01,-0.626 0.1,-0.378 0.802,-1.356 1.076,-1.306 1.084,0.012 0.79,-0.418 0.472,-0.05 1.474,0.09 0.756,-0.288 0.678,-0.6 1.464,-2.554 0.826,-1.07 1.666,-0.376 1.54,-1.24 0.43,-0.016 -0.724,0.924 -0.116,0.358 -0.088,0.546 0.518,1.184 -0.11,0.72 0.038,1.412 -0.49,0.734 -0.552,1.556 -0.238,0.228 -0.052,1.808 0.054,0.43 -0.08,1.636 0.566,0.668 0.598,0.348 1.996,-0.012 0.208,0.292 0.244,0.502 -0.178,0.852 -0.214,0.642 -0.578,0.54 -0.742,0.402 -0.462,0.018 -0.628,-0.764 -0.298,0.248 -0.308,0.39 -0.518,2.084 -0.246,1.402 -0.132,0.114 -0.292,-0.208 -0.504,-0.016 -0.638,0.332 0.328,0.296 0.346,0.514 -0.138,0.258 -0.562,0.278 -0.498,0.562 -0.208,0.424 -0.626,0.502 -0.396,0.636 0.194,0.786 0.082,0.69 0.172,0.76 -0.156,0.606 -0.778,0.868 -0.286,0.75 0.666,-0.01 0.41,0.172 0.24,0.222 0.248,0.314 -0.152,0.388 0.188,1 z m 7.366,-24.346 -0.228,0.242 -0.772,-0.342 0.34,-0.48 0.848,-0.222 0.498,0.074 -0.548,0.476 -0.138,0.252 z m 8.514,14.904 0.014,0.996 -0.146,0.29 -0.214,0.192 -0.56,0.202 -0.486,0.282 -0.434,0.494 -0.16,0.706 0.338,0.516 0.616,0.282 0.158,0.98 -0.508,0.482 -1.304,0.48 -0.136,1.158 0.042,0.91 -0.024,0.66 -0.104,0.912 -1.054,0.414 -0.682,-1.388 -0.006,-0.558 -0.204,-0.652 -0.038,-0.556 -0.242,-0.89 -0.998,-0.242 -0.388,-0.032 -0.542,0.166 -0.134,-0.064 -0.65,-1.22 0.108,-1.352 -0.346,-0.684 -0.048,-0.31 0.008,-0.344 -0.286,-0.284 -0.344,-0.15 -0.168,-0.766 0.396,-0.186 0.982,0.09 0.288,-0.052 0.262,-0.16 0.794,-1.264 -0.024,-0.28 0.084,-0.362 0.858,-0.134 0.382,0.49 -0.078,0.784 0.048,1 0.52,0.272 0.202,0.04 0.218,-0.738 0.152,-0.36 0.206,-0.202 0.07,-0.676 -0.122,-0.414 -0.26,-0.31 0.972,-0.84 1.006,-0.668 0.586,-0.036 0.588,0.164 0.548,0.224 0.296,0.194 0.166,0.312 -0.368,0.742 -0.102,0.404 0.252,1.336 z m -11.01,0.02 -0.096,0.178 -0.356,-0.186 -0.038,-0.644 0.134,-0.58 -0.158,-0.52 0.174,-0.334 0.5,0.778 0.142,0.366 -0.194,0.436 -0.108,0.506 z m 11.554,1.852 -0.528,0.422 -0.116,-0.022 -0.172,-0.578 0.28,-0.352 0.164,-0.298 0.118,0.008 0.16,0.324 0.094,0.496 z m -11.342,-0.13 0.234,0.516 0.288,1.1 0.456,1.228 -0.19,0.512 0.13,0.656 -0.13,0.682 -0.906,0.792 -1.016,0.036 -1.056,-0.382 -1.492,-0.738 -0.12,-0.414 -0.208,-0.23 -0.4,-1.262 0.008,-1.562 0.75,-0.198 1.638,-0.748 0.378,0.118 0.396,0.382 0.456,0.022 0.66,-0.542 0.124,0.032 z m 24.936,5.786 -0.208,0.166 -0.928,-0.274 -1.13,-0.678 0.166,-1.332 0.29,-0.578 2.062,1.494 0.026,0.562 -0.278,0.64 z m -24.436,2.64 -0.25,0.054 -0.338,-0.786 -0.044,-0.248 0.398,-0.504 0.256,-0.572 0.666,-0.88 0.382,-1.034 0.146,0.016 -0.17,0.922 -0.874,2.558 -0.172,0.474 z m -3.778,-1.318 -0.584,0.134 -0.298,-0.236 -0.548,-0.09 -0.196,-1.502 0.056,-0.09 0.276,0.106 0.946,0.702 0.33,0.766 0.018,0.21 z m 13.966,-0.774 -0.214,0.146 -0.862,-0.106 -0.972,0.676 -0.368,-0.214 0.14,-0.432 0.102,-0.158 0.326,-0.184 0.218,-0.268 0.086,-0.42 0.202,0.226 0.602,0.094 0.294,0.134 0.246,0.198 0.2,0.308 z m -11.59,1.15 -0.376,0.102 -0.43,-0.212 -0.702,-0.798 -0.088,-0.212 0.368,0.134 0.458,0.418 0.374,0.09 0.512,0.352 -0.116,0.126 z m 4.922,-0.428 0.994,0.604 0.672,-0.036 0.458,0.25 0.11,0.386 0.04,0.856 -0.48,0.25 -0.53,-0.084 -0.722,0.326 -2.368,-1.398 0.034,-1.17 0.094,-0.46 1.122,-0.11 0.576,0.586 z" title="Denmark" id="DK"></path></svg>