<svg xmlns="http://www.w3.org/2000/svg" viewBox="0 0 115.91 115.30"><path d="m 96.88,1.08 0.118,0.372 0.02,0.348 -0.532,0.324 -0.35,0.188 -0.42,0.894 -0.778,0.606 -0.13,0.184 0.006,0.166 0.528,0.274 0.176,0.26 0.082,0.348 -0.236,1.244 -0.148,0.952 -0.194,1.246 0.008,0.474 0.2,0.568 0.198,0.442 0.062,0.5 -0.07,1.23 0.242,0.71 0.194,0.654 -0.462,0.814 -0.198,0.718 -0.124,1.026 -0.05,0.646 -0.298,0.596 -0.388,0.558 -0.438,0.348 -0.54,0.3 -0.622,0.394 -0.504,1.054 -1.09,0.876 -0.228,0.3 -0.102,0.7 0.026,0.97 0.192,0.77 0.522,1.136 0.458,1.248 0.124,0.626 0.176,0.238 0.644,0.408 1.114,0.552 0.206,0.226 0.552,0.856 0.524,1.532 0.164,1.012 1.02,0.804 0.942,0.74 0.904,0.65 0.982,0.704 0.142,0.216 0.326,1.49 0.326,1.476 0.356,1.622 0.36,1.624 0.424,1.906 0.24,1.078 0.29,1.306 0.342,1.528 -0.55,0.324 -0.62,0.414 0.452,0.784 0.872,1.274 0.526,1.026 0.184,0.446 0.41,1.27 0.334,1.228 0.086,0.398 0.122,0.944 -0.15,2.592 0.24,3.278 0.324,1.628 -0.51,1.466 -0.436,1.398 0.028,0.702 0.24,1.094 0.236,0.808 0.32,0.424 -0.062,1.358 -0.134,0.492 -0.98,0.71 -1.086,0.65 -0.3,0.55 -0.086,0.612 0.144,0.498 0.746,1.1 1.122,1.646 1.234,1.808 0.102,0.454 0.05,1.28 0.514,1.606 0.556,0.7 0.208,0.522 0.394,0.374 0.392,0.274 0.244,0.032 1.386,-0.436 2.37,0.72 2.242,0.732 0.164,0.144 0.49,0.926 0.802,1.51 0.594,1.206 0.532,1.078 -2.906,1.856 -2.908,1.852 -2.906,1.848 -2.906,1.842 -2.906,1.84 -2.908,1.836 -2.906,1.832 -2.906,1.826 -1.928,1.21 -1.226,1.068 -1.538,1.334 -1.452,1.324 -1.142,1.042 -1.48,1.344 -0.746,0.678 -1.65,1.498 -0.496,0.266 -2.186,0.442 -2.006,0.404 -1.852,0.374 -1.266,0.256 -1.226,0.246 -1.782,0.348 -1.272,0.25 -1.372,0.268 -0.214,0.046 -0.248,0.01 -0.186,-0.01 -0.38,-0.148 -0.458,-0.35 -0.306,-0.18 -0.076,-0.276 0.178,-0.368 0.222,-0.33 0.084,-0.26 0.152,-0.198 0.196,-0.16 0.008,-0.226 -0.162,-0.372 -0.142,-0.514 0.006,-0.934 0.004,-0.312 0,-0.112 -0.41,-0.358 -0.774,-0.396 -0.712,-0.232 -0.324,-0.08 -0.786,-0.14 -1.086,-0.25 -0.382,-0.172 -0.704,-0.87 -0.346,-0.222 -1.63,-0.148 -0.542,-0.144 -0.444,-0.206 -0.38,-0.28 -0.214,-0.478 -0.064,-0.39 -0.142,-0.186 -1.798,-0.944 -0.458,-0.32 -0.242,-0.298 -0.008,-0.442 0.048,-0.542 -0.076,-0.482 -0.076,-0.236 -0.822,-0.572 -1.838,-1.284 -1.838,-1.284 -1.838,-1.286 -1.838,-1.288 -1.838,-1.29 -1.838,-1.292 -1.838,-1.294 -1.838,-1.296 -1.838,-1.3 -1.84,-1.298 -1.836,-1.304 -1.838,-1.304 -1.838,-1.306 -1.84,-1.31 -1.838,-1.312 -1.838,-1.314 -1.554,-1.11 -1.714,-1.176 -1.274,-0.862 -1.264,-0.86 -1.36,-0.922 -0.884,-0.572 -1.054,-0.684 -1.056,-0.686 -1.056,-0.686 -1.056,-0.686 -1.056,-0.686 -1.056,-0.688 -1.054,-0.688 -1.056,-0.69 -1.056,-0.69 -1.054,-0.69 -1.056,-0.69 -1.056,-0.692 -1.056,-0.692 -1.056,-0.694 -1.056,-0.694 -1.054,-0.694 0,-1.284 0,-1.046 0,-1.54 0,-1.34 0,-1.34 0,-0.924 0,-0.964 0.028,-0.436 0.104,-0.186 0.57,-0.314 0.892,-0.716 0.33,-0.318 0.422,-0.322 1.494,-0.97 0.31,-0.272 1.452,-1.118 0.34,-0.164 0.78,-0.11 0.326,-0.21 0.438,-0.448 0.644,-0.512 0.418,-0.244 0.1,-0.044 0.268,-0.036 1.342,0.152 0.564,0.114 0.674,0.096 0.21,-0.066 0.18,-0.16 0.254,-0.358 0.054,-0.426 0.016,-0.372 0.04,-0.162 0.118,-0.074 0.294,0.028 0.392,0.05 0.802,-0.016 0.272,-0.052 0.91,-0.08 1.286,-0.242 1.02,-0.316 0.812,-0.25 0.87,-0.658 0.638,-0.694 0.662,-1.036 0.526,-0.9 1.066,-0.562 0.89,-0.342 0.51,-0.134 1.156,-0.476 0.978,-0.72 0.918,-0.676 0.702,-0.09 0.888,-0.112 0.198,-0.126 0.224,-0.24 0.012,-0.424 -0.268,-0.298 -0.324,-0.156 -0.23,-0.172 -0.228,-0.032 -0.122,-0.204 0.068,-0.376 0.034,-0.348 0.146,-0.348 -0.04,-0.492 -0.228,-0.492 -0.07,-0.354 0.016,-0.352 0.112,-0.274 0.328,-0.182 0.382,-0.07 0.536,0.088 0.926,-0.118 2.37,-0.852 0.164,-0.262 0.152,-0.59 0.17,-0.518 0.246,-0.174 0.134,-0.038 0.79,-0.14 1.118,-0.196 0.42,-0.028 1.22,0.056 0.888,0.042 1.436,0.068 1.02,0.034 0.888,0.03 1.132,0.04 0.278,-0.12 0,-0.378 -0.204,-0.704 0.124,-0.44 0.436,-0.408 0.544,-0.456 -0.254,-0.556 -0.434,-0.372 -0.606,-0.448 -0.314,-0.182 -0.55,-0.542 -0.336,-0.618 -0.228,-1.304 -0.418,-0.732 -0.304,-0.904 0.27,-1.662 -0.404,-1.006 -0.062,-0.436 -0.004,-0.514 0.124,-0.89 -0.08,-1.254 -0.476,-1.296 0.224,-0.442 0.104,-0.23 -0.034,-0.198 -0.434,-0.412 -0.184,-0.342 0.096,-0.32 0.226,-0.466 -0.02,-0.196 -0.702,-0.568 -1.184,-0.922 -0.332,-0.404 -0.162,-0.506 1.134,0.13 0.586,-0.062 1.344,-0.608 1.068,-0.822 0.83,-0.418 0.73,-0.902 0.662,-0.57 0.956,-0.616 2.758,-1.33 0.422,-0.01 0.908,0.302 0.79,-0.094 0.54,-0.466 0.582,-1.124 0.902,-0.686 1.138,-0.688 1.548,-0.658 1.014,-0.606 1.604,-0.526 4.026,-0.334 2.068,-0.298 1.406,0.068 1.42,-0.964 0.71,-0.318 3.074,-0.074 1.45,-0.706 5.496,0 0.672,0.236 0.66,0.38 1.124,0.914 0.56,0.2 0.726,-0.19 1.688,-0.866 1.904,-0.452 1.036,-0.516 0.44,-0.754 0.892,-0.278 0.502,0.58 1.974,0.584 1.212,-0.168 0.532,-0.176 -0.192,-0.866 1.282,0.23 0.984,0.418 1.03,0.836 0.668,0.166 1.216,-0.376 z" title="Algeria" id="DZ"></path></svg>