<svg xmlns="http://www.w3.org/2000/svg" viewBox="0 0 92.08 35.98"><path d="m 91.88,8.72 -0.314,0.2 -0.326,0.022 -0.434,0.062 -0.606,-0.192 -0.238,0 -0.034,0.194 0.402,0.236 0.39,0.27 0.14,0.41 0.232,0.486 0.558,0.544 0.348,0.272 0.022,0.194 -0.11,0.356 -0.028,0.296 0.192,1.366 -0.128,0.084 -0.206,0.006 -0.218,-0.006 -0.18,-0.148 -0.156,-0.088 -0.07,0.21 -0.162,0.608 -0.364,1.368 -0.318,1.198 -0.4,0.424 -0.578,0.674 -0.792,0.922 -1.148,1.336 -0.848,0.62 -0.668,0.488 -0.782,0.564 -1.008,0.728 -1.132,0.408 -1.576,0.568 -1.116,0.402 -0.822,0.28 -0.856,0.292 -1.132,0.386 -0.436,0.364 -0.726,0.892 -0.338,0.43 -0.308,0.37 -0.064,0.168 0.042,0.108 0.148,0.18 0.014,0.186 -0.204,0.116 -0.176,0.018 -0.078,-0.092 -0.058,-0.204 -0.188,-0.208 -0.218,-0.06 -0.126,0.05 -0.01,0.19 -0.286,0.914 -0.01,0.444 -0.12,0.176 0.008,0.398 -0.288,0.37 -0.126,0.33 -0.088,0.28 -0.232,0.194 -0.084,0.304 -0.214,0.648 -0.25,0.508 -0.176,0.434 -0.032,0.326 0.134,0.23 0.046,0.186 -0.12,0.334 -0.066,0.25 -0.32,0.17 -0.664,0.404 -0.258,0.278 -0.102,0.314 0.066,0.268 -0.028,0.222 -0.316,0.084 -0.112,0.19 -0.214,0.342 -0.242,0.12 -0.62,-0.182 -0.458,-0.002 -0.354,-0.166 -0.384,-0.492 -0.316,-0.414 -0.258,-0.536 -0.08,-0.734 -0.346,-0.216 -0.34,-0.256 -0.408,0.072 -0.484,0.048 -0.268,-0.17 -0.662,-0.31 -0.564,-0.352 -0.426,-0.176 -0.326,0.084 -0.196,0.212 -0.342,0.378 -0.506,0.262 -0.228,-0.012 -0.306,-0.174 -0.056,-0.204 0.25,-0.324 0.51,-0.712 -0.566,-0.018 -0.196,-0.222 -0.028,-0.258 -0.092,-0.278 0.112,-0.334 0.296,-0.176 0.446,0.138 0.306,0.01 0.204,-0.314 0.204,-0.138 0.204,-0.102 0.084,-0.158 -0.216,-0.502 -0.064,-0.274 0.066,-0.158 -0.01,-0.314 -0.008,-0.232 -0.13,-0.204 -0.01,-0.304 -0.112,-0.166 -0.038,-0.176 -0.008,-0.204 -0.14,-0.102 -0.148,-0.104 0.122,-0.072 0.804,-0.282 0.334,-0.282 0.414,-0.256 0.356,-0.394 0.234,-0.376 0.554,-1.75 0.522,-1.104 -0.088,-0.528 -0.432,-0.714 -0.098,-1.052 0.04,-0.32 -0.054,-0.242 -0.288,0.436 0.074,1.55 -0.254,0.698 -0.356,0.168 -0.232,-0.122 0.132,-1.132 -0.26,0.206 -0.416,0.768 -0.682,0.57 -0.038,0.19 -0.166,0.234 -0.526,-0.216 -0.402,-0.234 -1.318,-1.278 -0.866,-0.268 -0.522,-0.446 -0.11,-0.188 -0.062,-0.258 0.534,-0.268 0.546,-0.36 0.054,-0.792 -0.014,-0.622 -0.404,-1.064 0.19,-1.388 -0.104,-0.544 -0.462,-1.154 0.342,-0.582 1.222,-0.424 0.392,-0.284 0.274,-0.916 0.278,-0.548 0.544,0.22 0.426,-0.026 -0.576,-0.204 -0.468,-0.826 -0.078,-0.376 0.904,-1.128 0.474,-0.294 0.582,-0.596 0.49,-0.9 0.118,-1.42 -0.202,-1.014 -0.152,-1.074 0.292,-0.278 0.744,-0.142 0.604,-0.346 0.306,-0.32 0.718,0.048 0.83,-0.496 1.326,-0.25 1.848,-0.566 0.408,-0.5 -0.184,-0.89 0.172,0.116 0.514,0.424 0.312,0.42 0.528,0.26 0.426,0.21 1.12,0.852 0.738,0.432 0.806,0.39 1.164,0.41 0.71,-0.07 0.166,0.31 0.138,0.328 0.266,0.19 0.422,0.164 0.25,0.05 0.078,0.082 0.252,1.18 0.148,0.172 0.582,0.188 0.712,0.07 0.29,-0.042 0.626,0.328 0.462,0.154 0.51,0.116 0.346,0.034 0.16,-0.05 0.058,-0.12 0.284,0.022 0.422,0.152 0.61,0.032 0.378,-0.144 0.052,-0.238 0.026,-0.418 0.14,-0.146 0.434,-0.244 0.226,0.05 1.138,0.524 0.234,0.18 0.288,0.366 0.534,0.54 0.578,0.344 0.894,0.146 0.862,0.564 1.024,0.39 z m -20.346,-7.578 -0.316,0.042 -0.146,-0.266 0.384,-0.31 0.132,-0.06 -0.054,0.594 z m -69.394,6.844 0.348,0.36 0.19,1.024 1.126,1.08 0.14,0.604 -0.1,0.28 0.052,0.11 0.542,0.426 0.354,0.448 -0.594,1.05 -1.266,0.442 -1.35,-0.014 -0.266,-0.114 -0.362,-0.402 -0.066,-0.354 0.208,-0.342 0.698,-0.52 1.064,-0.464 0.132,-0.356 -0.426,-0.346 -0.294,-0.688 -0.672,-0.482 -0.334,-1.47 -0.224,-0.074 -0.456,0.202 -0.224,-0.178 -0.038,-0.094 0.492,-0.334 0.102,-0.24 0.728,-0.116 0.312,0.192 0.184,0.37 z m 3.92,2.004 -0.26,0.168 -1.058,-0.194 -0.33,-0.324 0.266,-0.442 0.224,-0.176 0.632,0.164 0.642,0.494 -0.116,0.31 z m -4.782,0.706 -0.564,0.098 -0.474,-0.192 -0.202,-0.296 -0.042,-0.446 0.042,-0.148 1.046,-0.162 0.342,0.374 -0.004,0.548 -0.144,0.224 z m 6.124,1.732 -0.292,0.01 -0.87,-0.54 0.058,-0.53 0.348,-0.356 1.126,-0.182 0.472,0.336 -0.042,0.634 -0.384,0.464 -0.304,0.084 -0.112,0.08 z m 5.142,0.778 -0.662,0.23 -0.228,-0.104 -0.142,-0.114 -0.034,-0.138 0.366,-0.344 0.356,-0.186 0.32,-0.396 0.586,-0.236 0.172,0.054 0.116,0.082 0.044,0.132 -0.2,0.32 -0.356,0.224 -0.338,0.476 z m -5.642,2.392 -0.226,0.01 -0.31,-0.24 0.238,-0.436 0.254,0.106 0.186,0.126 0.11,0.168 -0.252,0.266 z m 57.772,9.112 -0.108,0.216 -0.534,-0.02 -0.154,-0.07 0.004,-0.246 0.126,-0.782 0.146,-0.328 0.438,-0.318 0.366,-0.154 0.468,0.028 0.496,0.29 -0.584,0.524 -0.326,0.08 -0.126,0.068 -0.212,0.712 z" title="Ecuador" id="EC"></path></svg>