<svg xmlns="http://www.w3.org/2000/svg" viewBox="0 0 68.30 60.55"><path d="m 53.3,2.18 0.082,0.198 0.184,0.548 0.466,1.392 0.408,1.088 0.498,1.504 0.156,0.576 0.066,0.398 0.724,1.648 0.43,1.35 0.314,1.096 0.444,1.596 0.192,0.556 -0.314,0.29 -0.628,1.034 -0.67,3.274 -0.958,2.546 -0.108,1.59 -0.154,0.572 -0.456,0.804 -0.552,0.786 -0.982,-0.406 -1.6,-1.384 -0.932,-1.316 -1,-0.852 -0.944,-1.13 -0.258,-0.814 0.01,-0.524 -0.412,-1.278 -0.306,-0.606 -1.152,-1.362 -0.33,-0.728 -0.252,-0.322 -0.254,-0.46 -0.418,-1.778 -0.456,-1.132 -0.52,0.314 0.092,0.476 -0.454,0.658 -0.274,0.762 0.21,0.622 0.942,0.946 0.19,0.414 0.22,0.894 -0.036,1.214 0.152,0.41 0.706,0.9 0.252,0.534 0.152,0.46 0.234,0.416 0.7,0.78 1.006,1.484 0.954,1 0.69,0.482 0.292,0.482 0.066,1.242 -0.052,0.592 0.606,1.114 0.224,0.562 0.584,0.458 0.268,0.522 0.246,0.85 0.37,2.506 0.508,0.614 1.57,3.278 1.324,2.066 0.64,1.54 0.978,1.868 1.914,4.088 1.138,1.256 0.454,0.706 0.824,0.542 0.892,0.784 -0.85,-0.076 -0.216,0.046 -0.298,0.134 -0.142,0.476 -0.062,0.388 0.104,2.05 0.234,1.044 0.748,1.97 0.558,0.59 0.272,0.382 0.38,0.278 1.774,0.672 1.038,1.416 2.332,1.788 0.228,0.494 0.006,0.114 -1.842,0.002 -1.842,0 -1.842,0 -1.842,0 -1.84,0 -1.844,0.002 -1.84,0 -1.842,0 -1.842,0 -1.842,0 -1.842,0 -1.84,0 -1.842,0.002 -1.842,0 -1.842,0 -1.842,0 -1.05,0 0.18,-0.536 0.11,-0.378 -0.124,-0.264 -0.358,-0.066 -0.234,0.084 -0.55,1.122 -0.288,0.044 -0.654,0 -2.144,0 -2.146,0 -2.144,0 -2.144,-0.002 -2.144,0 -2.144,0 -2.144,0 -2.144,0 -2.144,-0.002 -2.146,0 -2.144,0 -2.144,0 -2.144,0 -2.144,0 -2.146,-0.002 -2.144,0 0,-1.352 0,-1.356 0,-1.358 0,-1.358 0,-1.362 0,-1.364 0,-1.366 0,-1.368 0,-1.372 0,-1.372 0,-1.376 0,-1.38 0,-1.38 0,-1.384 0,-1.386 0,-1.388 0,-1.392 0,-1.394 0,-1.396 0,-1.398 0,-1.404 0,-1.404 0,-1.408 0,-1.41 0,-1.414 0,-1.416 0,-1.42 0,-1.422 0,-1.426 0,-1.428 0,-1.432 0,-1.434 -0.048,-0.268 -0.312,-0.978 -0.282,-1.244 -0.308,-1.532 -0.04,-0.498 -0.516,-1.584 -0.048,-0.45 0.13,-0.32 0.848,-1.338 0.256,-0.652 0.214,-0.782 0.072,-0.636 -0.25,-0.976 -0.292,-0.878 -0.098,-0.9 -0.042,-0.886 0.434,-0.606 0.52,-0.568 0.194,-0.348 0.308,-0.392 0.216,-0.184 0.422,0.796 0.88,0.136 2.868,-0.708 3.166,0.714 1.746,0.272 2.692,0.606 1.638,1.08 0.45,0.136 1.178,-0.022 0.772,0.638 3.072,0.306 1.64,0.702 0.93,0.56 0.558,0.172 0.494,-0.028 0.666,-0.21 0.842,-0.394 0.914,-0.548 1.898,-1.41 0.672,-0.248 0.438,0.066 0.534,-0.02 0.222,-0.382 0.282,-0.262 0.176,-0.298 0.288,-0.36 0.988,-0.1 1.978,-0.616 -0.222,0.292 -1.802,0.69 0.772,0.086 0.79,-0.236 0.902,-0.15 0.164,-0.294 0.118,-0.55 0.172,-0.078 0.624,0.104 1.854,0.848 0.462,0.016 1.306,-0.462 0.278,-0.098 0.424,0.256 0.964,1.054 -0.336,-0.022 -1.032,-0.904 -0.092,0.452 -0.588,0.792 0.734,0.342 0.598,0.128 0.32,0.442 0.202,0.392 0.59,-0.172 0.422,-0.534 -0.22,-0.298 -0.148,-0.308 0.192,-0.008 0.41,0.254 1.174,1.014 0.396,0.21 0.456,-0.036 0.954,-0.284 0.266,0.044 1.28,-0.374 0.15,0.274 0.212,0.272 1.032,-0.304 1.618,0.004 1.326,-0.33 1.536,-0.804 z" title="Egypt" id="EG"></path></svg>