<svg xmlns="http://www.w3.org/2000/svg" viewBox="0 0 47.24 41.96"><path d="m 47.24,2.32 0.002,1.046 0,1.242 0.002,1.238 0.002,1.408 0,1.4 0,1.018 0,0.708 -1.142,0 -1.046,0 -1.046,0 -1.044,0 -1.046,0 -1.046,0 -1.046,0 -1.046,0 -1.046,0 -1.046,0 -1.046,0 -1.046,0 -1.046,0 -1.046,0 -1.046,0 -1.044,0 -1.046,0 -0.84,0 0,0.742 0,0.842 0,0.844 0,0.842 0,0.842 0,0.84 0,0.84 0,0.838 0,0.838 0,0.836 0,0.836 0,0.836 0,0.832 0,0.834 0,0.832 0,0.832 0,0.83 0,0.74 -0.04,0.662 -0.336,0.196 -0.802,0.352 -0.824,0.362 -1.046,0.166 -0.344,0.118 -0.668,0.476 -0.878,0.626 -0.76,0.542 -0.502,0.704 -0.182,0.386 -0.074,0.406 0.058,0.388 0.274,0.776 0.074,0.392 0.042,0.682 0.046,0.74 0.05,0.798 0.05,0.798 0.052,0.846 0.054,0.848 0.054,0.85 0.04,0.632 0.05,0.796 -0.85,0.002 -1.286,0 -1.288,0.002 -1.288,0.002 -1.286,0.002 -1.286,0.002 -1.288,0.002 -1.288,0 -1.286,0.002 -1.288,0.002 -1.286,0.002 -1.286,0.002 -1.288,0.002 -1.288,0.002 -1.286,0 -1.288,0.002 -1.286,0.002 -0.72,0.002 -0.232,1.118 -0.206,0.802 -0.12,0.654 0.088,0.552 -0.284,-0.302 0.5,-3.112 0.036,-0.262 0.408,-2.878 0.77,-1.564 0.614,-0.69 0.952,-0.358 0.874,-1.576 0.306,-1.454 0.574,-0.67 0.18,-0.524 -0.226,-0.4 0.542,-0.786 0.656,-1.204 0.304,-0.774 0.766,-1.198 0.094,-0.266 -0.068,-0.3 -0.302,0.254 -0.322,0.444 -0.382,0.35 0.156,-0.43 0.3,-0.632 0.682,-0.664 1.076,-0.73 2.232,-2.486 0.84,-0.43 0.756,-1.05 0.27,-0.934 0.074,-2.148 0.27,-1.136 0.492,-0.886 0.588,-1.618 0.448,-0.722 0.292,-1.48 0.318,-0.562 0.57,-0.27 0.808,-0.738 1.214,-0.458 1.438,-0.962 0.674,-0.576 0.45,-0.86 0.482,-1.716 0.862,-1.81 0.442,-1.368 24.468,-0.028 0.004,0.002 0,-0.002 0.754,0 0,1.046 z" title="Western Sahara" id="EH"></path></svg>