<svg xmlns="http://www.w3.org/2000/svg" viewBox="0 0 126.20 111.66"><path d="m 91.86,2.74 0.008,0.268 0.22,0.368 0.228,0.136 0.48,0.188 0.37,0.026 0.504,0.088 0.342,0.212 0.02,0.33 -0.086,0.368 -0.208,0.338 -0.118,0.258 0.11,0.148 0.18,0.116 0.194,0.032 0.132,-0.038 0.1,-0.204 0.19,-0.25 0.106,-0.032 -0.008,0.142 0.09,0.176 0.618,0.294 1.356,0.548 0.532,0.01 0.43,0.064 0.126,0.23 0.864,0.844 0.206,-0.022 0.384,0.02 0.464,-0.068 0.336,-0.158 0.22,0.026 0.244,0.164 0.284,0.142 0.368,0.278 0.328,0.342 0.226,0.112 1.362,-0.23 0.304,0.202 0.322,-0.002 0.362,-0.052 0.788,0.106 0.64,-0.026 0.058,-0.084 0.054,-0.76 0.102,-0.27 0.152,-0.072 0.378,0.054 1.378,0.45 0.568,0.282 0.546,0.22 0.476,0.024 0.316,0.148 0.442,0.72 -0.076,0.362 0.04,0.134 0.046,0.25 -0.012,0.278 0.116,0.182 0.21,0.022 0.268,-0.054 0.294,-0.108 0.516,-0.308 0.154,-0.05 0.864,0.35 0.382,0.234 0.132,0.254 0.198,0.26 0.258,0.038 0.368,-0.246 0.574,-0.264 0.976,0.232 1.086,0.336 0.47,0.04 0.016,-0.164 0.086,-0.234 0.178,-0.118 0.268,-0.034 0.372,-0.124 0.424,-0.204 0.442,-0.084 0.462,0.152 0.558,0.124 0.334,-0.002 0.16,0.48 0.27,0.182 0.106,0.416 -0.496,0.216 -0.292,0.03 -0.09,0.71 0.14,0.2 0.278,0.188 0.076,0.218 0.056,1.04 -0.568,0.626 -0.796,0.702 -3.896,2.25 -0.928,1.086 -0.354,0.25 -2.896,0.682 -2.024,0.728 -0.97,0.264 -1.212,1.262 -0.574,0.508 0.458,0.14 0.534,0.602 -0.18,0.266 -0.778,0.412 -0.34,0.126 -0.184,-0.066 -0.174,0.056 -1.304,2.17 -1.152,1.556 -0.648,0.676 -0.664,1.006 -1.414,2.586 -0.01,0.744 0.696,2.558 0.4,0.67 0.56,0.562 1.06,0.478 0.262,0.47 -0.366,0.448 -1.06,0.794 -1.844,1.072 -0.784,0.844 -0.166,0.812 -0.54,0.366 -0.204,1.134 -0.328,0.75 -0.062,0.254 -0.348,0.568 -0.046,0.414 0.57,0.568 -0.282,0.246 -0.282,0.108 -0.65,0.066 -2.186,0.072 -1.758,1.226 -0.878,1.084 -0.796,2.01 -0.966,1.182 -0.426,0.218 -0.662,-0.518 -0.828,-0.08 -0.802,0.172 -0.42,0.412 -0.656,0.23 -0.642,-0.198 -1.388,-0.108 -0.618,0.02 -0.966,0.334 -0.828,-0.222 -1.398,-0.114 -3.026,0.266 -0.382,0.124 -0.378,0.496 -0.964,0.854 -1.466,0.03 -1.326,0.544 -0.332,0.348 -0.556,0.958 -0.174,0.698 -0.116,0.006 -0.144,-0.172 -0.204,0.056 -0.106,0.532 -0.498,0.242 -0.416,0.088 -1.026,-0.43 -0.856,-0.646 -0.448,-0.046 -0.728,-1.008 -0.314,-0.642 -0.222,-0.696 0.046,-0.266 -0.062,-0.222 -0.646,-0.282 -0.158,-0.64 0.472,-0.834 0.386,-0.354 0.24,-0.102 -0.584,0.036 -0.422,0.536 -0.54,-0.86 -2.202,-1.678 0.142,-0.386 -0.024,-0.208 -0.37,0.45 -0.252,0.116 -1.126,-0.072 -1.296,0.206 -0.342,-1.748 -0.162,-0.672 -0.042,-0.436 0.334,-1.008 0.366,-0.412 0.486,-0.85 0.6,-0.708 0.634,-0.168 0.28,-0.104 0.234,-0.548 0.132,-0.468 -0.096,-0.046 -0.74,0.096 -1.328,-1.97 0.042,-0.314 0.166,-0.466 0.11,-0.59 0.028,-0.466 0.346,-0.402 0.53,-0.404 0.446,-0.576 0.224,-0.562 0.046,-0.512 -0.252,-0.366 -0.726,-0.202 -0.75,-1.464 -0.166,-0.918 -0.154,-0.096 -0.462,-0.418 -0.444,-0.788 -0.064,-0.124 0.458,-0.138 1.888,-0.006 0.394,-0.174 0.06,-0.06 0.344,-0.614 0.36,-1.01 0.084,-0.618 -0.114,-0.256 -0.626,-0.626 -0.028,-0.184 0.1,-0.296 0.372,-0.316 0.502,-0.36 0.274,-0.31 -0.066,-0.244 -0.146,-0.254 -0.024,-0.238 0.092,-0.292 0.034,-1 0.064,-0.256 -0.098,-0.912 -0.122,-0.746 -0.398,-0.968 0.072,-0.214 0.184,-0.18 0.602,-0.336 0.48,-0.792 0.698,-0.664 0.914,-0.534 0.64,-0.594 0.252,-0.456 0.178,-0.12 -0.052,-0.212 -0.12,-0.308 -0.364,-0.302 -0.47,-0.172 -0.522,0.008 -0.324,-0.062 -0.094,-0.236 0.036,-0.64 -0.028,-0.634 -0.1,-0.292 -0.242,-0.22 -0.478,0.058 -0.414,-0.18 -0.314,-0.042 -0.182,0.142 -0.926,-0.042 -0.386,-0.102 -0.27,-0.126 -0.172,0.07 -0.098,0.124 -0.016,0.194 -0.064,0.256 -0.332,0.232 -0.758,0.23 -0.612,-0.018 -0.562,-0.164 -0.18,-0.122 -0.27,-0.108 -1.142,0.134 -0.138,-0.098 -0.394,0.238 -0.58,0.284 -0.326,0.016 -0.118,-0.06 -0.042,-0.126 -0.244,-0.442 0.064,-0.234 0.468,-0.686 -0.052,-0.164 -0.192,-0.222 -0.172,-0.32 -0.05,-0.166 -0.298,-0.028 -0.318,0.168 -1.21,0.346 -0.29,0.126 -0.524,0.332 -0.53,0.508 -0.422,0.106 -0.146,-0.15 -0.05,-1.192 0.644,-0.794 0.458,-0.48 -0.214,-0.098 -0.486,0.014 0.034,-0.372 0.228,-0.18 0.22,-0.406 -0.258,-0.174 -0.202,-0.268 0.012,-0.7 0.056,-0.284 -0.066,-0.308 -0.99,0.416 -0.254,-0.062 -0.01,-0.52 0.548,-0.794 0.056,-0.244 -0.642,-0.118 -0.48,-0.39 -0.292,-0.35 -0.312,-0.502 -0.002,-0.452 0.324,-1.058 0.462,-0.308 0.4,-0.19 0.846,-0.734 1.166,0.136 0.722,-0.158 0.648,-0.376 0.372,-0.084 0.598,-0.328 -0.02,-0.444 -0.206,-0.33 0.18,-0.31 0.67,-0.38 0.744,-0.504 0.854,-0.098 0.868,-0.446 0.582,0.288 0.51,-0.098 0.586,0.342 0.77,0.782 1.128,0.314 0.9,-0.246 1.59,-0.052 0.794,0.104 1.412,-0.194 0.808,0.07 1.31,-0.388 1.014,0.484 1.966,0.226 1.18,0.396 3.268,0.664 1.18,0.008 1.67,-0.374 0.708,-0.28 0.648,0.166 0.95,-0.322 0.456,0.066 0.594,0.458 2.09,0.618 0.548,-0.524 0.408,-0.114 1.504,0.32 1.516,0.652 0.788,0.046 1.152,-0.178 0.914,-0.428 0.184,-0.068 z m 34.17,26.684 -0.102,0.084 -1.726,-0.842 -0.564,-0.094 -0.138,-0.128 0.016,-0.438 0.044,-0.194 1.156,-0.088 0.934,0.312 0.502,0.84 0.038,0.144 -0.16,0.404 z m -6.446,0.376 0.538,0.242 0.568,-0.218 0.302,0.068 0.298,0.118 0.072,0.46 -0.264,0.512 -0.37,0.52 -0.312,0.57 -0.272,0.654 -0.506,0.386 -0.458,0.232 -0.968,-0.486 -0.564,-0.122 -0.168,-0.182 -0.134,-0.724 -0.254,-0.23 -0.374,-0.102 -0.328,0.186 -0.428,0.382 -0.228,-0.382 -0.362,-0.072 -0.136,-0.23 0.006,-0.296 2.322,-1.758 0.672,-0.39 1.426,-0.454 0.218,0.068 -0.186,0.268 0.014,0.122 0.178,0.13 -0.042,0.208 -0.18,0.18 -0.08,0.34 z m -9.544,6.3 -0.204,0.442 -0.854,-0.156 -0.188,-0.178 0.184,-0.5 0.246,-0.06 0.016,-0.356 0.258,-0.358 1.212,-0.29 0.274,0.244 0.058,0.35 -0.724,0.764 -0.278,0.098 z m 0.836,1.77 -0.126,0.094 -0.372,-0.086 -0.558,0 -0.022,-0.29 0.086,-0.202 0.108,-0.206 0.34,0.404 0.538,0.076 0.006,0.21 z m -85.934,65.77 -0.382,0.42 -0.426,-0.152 0.204,-0.92 0.198,-0.274 0.776,-0.402 0.646,-0.162 0.19,-0.428 0.212,-0.166 0.228,0.254 -0.172,0.296 -0.136,0.924 -0.43,0.296 -0.908,0.314 z m -23.116,2.662 -0.14,0.048 -0.128,-0.502 -0.666,-1.232 0.404,-0.55 0.736,-0.014 0.298,0.384 0.1,0.396 -0.14,0.228 0.042,0.462 -0.078,0.298 -0.428,0.482 z m 20.416,2.054 -0.762,0.718 -0.762,-0.166 -0.13,-0.118 0.764,-0.182 0.694,-0.546 0.446,-1.21 0.698,-1.34 0.14,-0.568 0.276,-0.222 0.38,-0.02 0.164,0.042 0.168,0.298 -0.002,0.674 -0.198,1.118 -0.366,0.988 -1.51,0.534 z m -11.998,-1.334 -0.47,1.448 -0.438,0.566 -0.26,0.19 -0.646,0.158 -0.768,-0.898 -0.4,-0.914 -0.22,-0.294 0.35,-0.232 0.51,0.04 1.096,-0.194 0.222,-0.078 1.114,-0.924 1.096,-0.114 0.026,0.304 -1.212,0.942 z m -4.772,2.266 -0.23,0.054 -0.272,-0.158 -0.288,-0.502 0.194,-0.372 0.178,-0.17 0.248,0.026 0.476,0.274 0.146,0.284 0.014,0.176 -0.466,0.388 z m 10.014,-0.794 -0.034,0.488 0.132,0.492 -0.034,0.746 -0.268,0.404 -0.688,0.402 -0.542,-0.072 -0.306,-0.162 -0.544,-0.654 -0.012,-0.676 0.498,-0.44 0.214,-0.57 1.292,0.108 0.112,-0.11 0.096,-0.032 0.084,0.076 z m -13.962,2.136 -0.542,1.03 -0.684,-0.384 -0.166,-0.128 -0.138,-0.212 0.658,-0.042 0.666,-0.518 0.206,0.254 z" title="Spain" id="ES"></path></svg>