<svg xmlns="http://www.w3.org/2000/svg" viewBox="0 0 40.20 53.93"><path d="m 14.22,0.16 -0.22,0.058 -0.354,-0.048 -0.072,-0.092 0.112,-0.02 0.232,-0.06 0.284,0.03 0.05,0.06 -0.032,0.072 z m 16.402,20.98 -0.246,0.112 0,-0.072 0,-0.018 0.172,-0.156 0.138,0 -0.064,0.134 z m 0.15,2.054 -0.396,0.216 0,-0.298 0.316,-0.276 0.24,-0.058 -0.148,0.278 -0.012,0.138 z m 5.462,4.49 -0.142,0.2 -0.124,-0.072 0.158,-0.336 0.024,-0.144 -0.244,-0.176 -0.016,-0.124 0.072,-0.076 0.292,0.198 0.178,0.154 0.036,0.084 -0.054,0.15 -0.18,0.142 z m 3.958,3.98 -0.312,0.062 -0.284,-0.25 0.18,-0.264 0.252,0.062 0.144,0.256 0.02,0.134 z m -4.136,0.14 -0.17,0.088 -0.118,-0.02 -0.138,-0.094 -0.084,-0.166 0.176,-0.14 0.272,0.158 0.062,0.174 z m 1.27,1.51 -0.066,0.108 -0.3,-0.176 -0.116,-0.12 0.32,-0.092 0.156,0.03 0.006,0.25 z m -5.826,4.158 0.014,0.174 -0.084,-0.01 -0.1,-0.074 -0.05,0.036 -0.036,0.054 -0.018,0.122 -0.014,0.068 -0.078,-0.024 -0.014,-0.12 0.026,-0.084 0.038,-0.124 0.14,-0.112 0.176,0.094 z m 7.1,1.332 -0.062,0.054 -0.154,-0.06 -0.126,-0.082 -0.016,-0.084 0.052,-0.108 0.122,-0.056 0.062,0.022 -0.036,0.036 -0.074,0.038 0.012,0.106 0.096,0.064 0.092,0.018 0.032,0.052 z m -0.992,8.914 0.012,0.016 -0.032,-0.002 -0.044,-0.02 -0.036,-0.04 -0.008,-0.044 0.018,-0.044 0.018,0.002 0.03,0.04 0.028,0.044 0.014,0.048 z m -7.236,-26.466 -0.848,0.774 -0.304,0.4 -0.258,0.442 -0.722,0.474 -0.308,0.636 0.022,0.642 0.724,-0.672 0.806,-0.548 0.248,-0.112 0.254,0.006 -0.022,0.188 -0.116,0.186 -0.09,0.486 0.212,0.452 -0.602,-0.044 -0.596,0.038 -0.706,0.252 -0.694,0.112 -0.26,0.002 -0.248,-0.084 -0.162,-0.13 -0.126,-0.3 -0.128,-0.044 -0.55,0.014 -0.824,0.588 -0.274,0.504 -0.316,0.022 -0.376,-0.104 -0.454,0.386 -0.542,0.138 -0.232,-0.328 -0.152,-0.4 -0.194,-0.294 -0.596,-0.074 0.092,-0.36 0.158,-0.148 0.144,-0.214 0.088,-0.244 0.286,0.154 0.292,0.1 0.326,-0.182 0.34,-0.016 0.34,-0.532 0.534,-0.334 0.734,-0.264 0.748,-0.188 0.386,-0.038 0.37,-0.108 0.65,-0.5 0.43,-0.256 0.468,-0.154 0.448,-0.09 0.414,0.08 0.334,-0.042 0.852,-0.356 0,0.084 z m 0.004,2.16 -0.072,0.006 -0.014,-0.112 0.086,-0.194 0,0.3 z m 0.782,0.862 -0.184,0.072 -0.598,0.496 0,0 -0.386,0.526 -0.192,0.512 0.162,0.212 0.416,-0.218 0.14,-0.222 0.602,-0.434 0.256,-0.496 -0.216,-0.448 z m -16.306,2.676 -0.29,0.098 0.154,-0.464 0.162,-0.146 0.104,-0.03 0.166,-0.032 -0.064,0.328 -0.232,0.246 z m 12.282,1.284 -0.188,0.158 -0.088,-0.804 0.194,0.006 0.14,0.084 0.08,0.204 -0.138,0.352 z m -6.41,0.03 0,0.258 0.164,0.112 0.164,0.018 0.404,0.496 0.63,0.426 0.384,0.326 0.022,0.278 -0.118,0.294 0.164,0.528 0.078,0.546 0.28,0.868 -0.394,0.166 -0.622,0.02 -0.144,0.156 -0.21,-0.086 -0.516,0.066 -0.492,0.286 -0.468,0.388 -0.542,0 -0.61,0.08 -0.608,-0.054 -0.428,-0.208 -0.754,-0.226 -1.006,-0.192 -0.416,-0.162 -0.348,-0.252 -0.324,-0.638 -0.048,-0.316 0.05,-0.302 0.294,-0.102 0.246,-0.152 0.034,-0.2 0.11,-0.14 0.14,-0.05 0.07,-0.096 -0.1,-0.324 -0.028,-0.294 0.584,-0.54 0.634,-0.46 1.124,-0.424 0.686,0.04 1.052,-0.326 0.338,-0.154 0.334,0.094 0.19,0.252 z m 3.072,2.088 -0.29,0.104 -0.16,-0.358 0.22,-0.36 0.248,-0.032 0.122,0.366 -0.14,0.28 z m 2.928,2.19 -0.05,0.048 -0.486,-0.468 0.016,-0.186 0.086,-0.166 0.196,-0.156 0.176,0.266 0.138,0.444 -0.076,0.218 z m -4.834,5.13 -0.002,0.254 -0.722,0.168 -0.242,-0.208 -0.156,-0.038 -0.43,0.372 -0.126,0.152 -0.042,0.114 -0.112,0.058 -0.792,0.178 -0.348,-0.178 0.234,-0.12 0.29,-0.242 0.292,0.036 0.292,-0.226 0.292,-0.344 0.414,-0.074 0.292,-0.132 0.482,0.096 0.384,0.134 z m -21.658,16.192 -0.042,0.066 -0.162,-0.022 -0.032,-0.134 0.094,-0.076 0.132,0.05 0.01,0.116 z" title="Fiji" id="FJ"></path></svg>