<svg xmlns="http://www.w3.org/2000/svg" viewBox="0 0 55.53 107.54"><path d="m 39.74,101.66 -0.47,0.304 -0.148,0.358 -0.114,0.14 -0.31,0.092 -0.308,0.002 -1.172,-0.716 -0.27,0.032 0.268,-0.328 0.728,-0.268 0.41,-0.354 0.946,0.342 0.44,0.396 z m -17.576,-23.94 0.236,0.174 0.592,-0.028 -0.196,0.388 -0.652,0.432 -0.438,0.426 -0.53,0.356 -0.256,-0.41 -0.298,0.016 -0.456,-0.788 -0.082,-1.18 0.596,-0.308 0.824,0.018 0.66,0.904 z m -12.226,-18.424 0.792,0.246 0.59,-0.004 0.524,0.714 0.28,1.124 0.654,1.108 0.856,0.96 0.034,0.586 -0.306,0.314 -0.638,0.39 0.002,0.418 0.422,-0.21 0.364,-0.096 0.876,0.092 0.306,0.424 0.212,0.634 0.112,0.52 -0.076,0.564 -0.236,-0.18 -0.24,-0.504 -0.266,-0.232 -0.31,-0.126 0.14,0.694 -0.056,0.926 0.134,0.086 0.416,0.016 -0.274,0.944 -0.57,0.256 -0.662,0.096 -0.16,0.334 -0.12,0.43 -0.346,0.64 -0.456,0.362 -0.564,-0.074 -0.552,-0.286 -0.482,-0.058 -0.336,0.17 -0.218,0.158 -0.212,-0.028 -0.606,0.06 -0.57,-0.012 -0.082,-0.25 0.098,-0.752 -0.128,-0.204 -0.544,-0.104 -0.202,-0.18 -0.314,-0.52 -0.062,-0.244 -0.044,-0.336 -0.332,-0.434 -0.402,-0.312 -0.236,-0.016 -0.47,0.508 -0.388,0.514 0.136,0.258 0.126,0.338 -0.21,0.244 -0.638,0.556 -0.1,0.216 -0.172,0.118 -0.304,-0.154 -0.758,0.036 -0.348,-0.098 -0.406,-0.41 -0.99,-0.274 -0.166,-0.658 -0.19,-0.124 -1.122,-1.13 -0.15,-0.378 0.146,-0.226 0.418,-0.342 1.406,-0.568 0.222,-0.228 0.046,-0.202 -0.414,-0.23 -0.372,-0.256 -0.126,-0.166 -0.01,-0.146 0.212,-0.19 0.424,-0.014 0.336,0.086 0.266,-0.17 0.468,-0.172 0.314,-0.216 0.27,-0.558 0.286,-0.502 0.03,-0.272 0.25,-0.958 0.138,-0.238 0.888,-0.628 0.224,0.344 0.438,0.084 0.392,-0.316 0.47,-0.998 0.326,-0.062 0.36,0.082 0.708,-0.126 1.256,-0.466 0.568,-0.012 z m 7.126,-2.04 -0.708,0.008 -0.256,-0.086 -0.306,-0.24 -0.344,-1.36 0.124,-0.482 0.14,-0.236 0.156,-0.184 0.374,-0.076 0.372,0.258 0.14,0.24 0.312,0.92 0.058,0.788 -0.062,0.45 z m -5.744,-4.788 0.202,1.282 0.198,0.792 0.014,0.27 -0.186,0.376 -0.926,0.5 -0.292,0.002 -0.012,-0.122 0.208,-0.508 -0.18,-0.578 0.088,-0.44 -0.086,-0.08 -0.18,0.062 -0.664,0.698 -0.222,0.068 -0.024,-0.142 0.164,-0.572 0.02,-0.392 0.098,-0.24 0.18,-0.222 0.214,-0.166 0.174,-0.024 0.184,0.172 0.536,-0.48 0.492,-0.256 z m 0.892,1.16 -0.118,0.106 -0.284,-0.03 -0.106,-0.162 -0.058,-0.248 -0.006,-0.454 0.172,-0.326 0.728,-0.492 -0.33,-0.174 -0.012,-0.124 0.188,-0.41 0.782,-0.638 0.21,-0.116 0.208,0.018 -0.404,1.132 -0.97,1.918 z m 1.078,-5.318 -2.236,0.562 -0.77,-0.05 -0.07,-0.276 0.154,-0.184 0.638,-0.178 0.258,-1.354 -0.964,-0.626 -0.05,-0.174 0.076,-0.298 0.112,-0.134 0.584,-0.316 0.246,-0.07 0.2,0.042 0.412,0.366 0.464,0.766 0.622,0.122 0.422,0.324 -0.098,1.478 z m -4.658,-2.44 -0.318,0.056 -0.024,-0.144 0.554,-0.688 0.358,-0.114 0.126,0.068 -0.26,0.4 -0.436,0.422 z m -4.542,-3.89 -0.494,0.14 -0.182,-0.082 -0.032,-0.13 0.112,-0.354 0.378,-0.126 0.274,0.192 0.044,0.174 -0.1,0.186 z m 6.388,0.008 -0.166,0.132 -0.21,-0.026 -0.208,-0.17 -0.276,-0.484 0.62,-0.336 0.248,0.198 0.094,0.226 0.004,0.25 -0.106,0.21 z m -5.45,-1.552 -0.238,0.058 -0.31,-0.056 -0.192,-0.16 -0.194,-0.634 -0.036,-0.384 0.086,-0.716 -0.02,-0.858 0.64,-0.026 0.166,0.124 0.11,2.542 -0.012,0.11 z m 6.204,-4.04 -0.008,0.46 -0.1,0.542 0.128,0.574 0.03,0.41 0.236,0.13 0.144,0.188 1.052,0.21 0.978,-0.06 0.188,0.168 0.022,0.268 -0.154,0.294 -0.558,0.536 -0.664,0.866 -0.198,0.18 -0.214,0.008 -0.154,-0.078 -0.11,-1.54 -0.72,0.198 -0.58,-0.022 -0.318,-0.188 -0.222,-0.362 -0.45,-0.932 -1.308,-0.368 -0.37,-0.516 -0.112,-0.312 0.046,-0.172 0.272,-0.384 0.34,0.136 0.21,-0.084 0.128,-0.172 -0.002,-0.142 -0.178,-0.334 -0.008,-0.104 1.338,-0.424 0.118,-0.664 0.29,-0.054 0.332,0.218 0.454,0.69 0.122,0.836 z m -5.956,-1.86 0.634,0.588 -0.504,0.976 -0.774,-0.004 -1.09,-0.712 -0.004,-0.146 0.09,-0.214 0.164,-0.17 0.17,-0.04 0.27,0.116 0.376,-0.188 0.3,0.06 0.368,-0.266 z m 5.652,-7.198 -0.714,1.858 -0.28,0.046 -0.246,0.464 -0.76,0.51 0.664,0.01 0.186,0.17 0.004,0.366 -0.126,0.212 -0.858,0.844 -0.59,0.32 -0.636,0.88 -0.322,0.01 -0.318,0.558 -0.26,0.246 -0.148,0 -0.168,-0.124 -0.394,-0.546 0.716,-0.538 0.066,-0.302 0.49,-0.316 -0.042,-0.098 -0.778,-0.444 -0.306,-0.298 0.028,-0.156 0.374,-0.344 -0.176,-0.044 -0.12,-0.186 -0.216,-0.072 -0.066,-0.172 -0.04,-0.456 0.058,-0.466 0.226,-0.206 0.092,-0.22 0.092,-0.068 0.35,0.118 0.356,0.374 0.416,-0.144 0.482,0.07 0.01,-0.086 -0.354,-0.918 0.064,-0.188 0.192,-0.214 1.112,-0.658 1.386,-1.108 0.336,-0.174 0.102,0.152 0.14,0.574 -0.024,0.764 z m 17.338,-1.63 0.048,0.876 -0.066,0.266 -0.134,0.328 -0.424,0.61 -1.116,0.87 -2.042,1.992 -1.208,0.984 -0.166,0.472 -0.09,0.656 0.722,0.13 0.28,0.222 -0.172,0.332 -1.07,1.154 -0.314,1.04 0.82,-0.038 0.676,-0.2 1.346,-0.648 1.266,-0.482 0.608,-0.02 1.182,0.384 0.268,0.012 0.502,-0.178 0.508,-0.032 3.436,0.12 0.956,-0.226 0.632,0.27 0.528,0.672 0.502,1.238 -0.016,0.206 -0.304,0.562 -0.56,0.704 -0.482,0.968 -0.14,0.52 -0.094,0.57 -0.152,0.526 -0.958,2.46 -0.934,1.356 -0.416,0.96 -0.514,0.762 -0.496,0.48 -0.528,0.32 -1.528,0.34 -0.428,0.244 -0.51,0.418 -0.536,0.208 0.628,-0.026 0.622,-0.232 1.134,-0.084 1.304,0.8 -0.122,0.654 -0.524,0.516 -1.192,0.082 -1.114,1.146 -0.502,0.352 -0.532,0.174 -0.664,-0.052 -1.206,-0.306 -0.528,-0.32 0.476,0.522 0.542,0.272 3.138,0.642 0.19,-0.068 1,-0.676 1.334,-0.01 2.538,1.244 0.73,0.95 1.048,1.354 0.57,0.528 0.412,0.478 0.254,0.714 0.492,2.352 0.562,2.284 0.734,2.46 0.334,0.68 0.438,0.476 2.216,1.092 0.494,0.362 0.86,1.048 0.83,1.114 0.772,0.854 0.834,0.69 -0.404,0.358 -0.276,0.562 0.208,0.762 0.338,0.726 0.666,1.16 0.588,1.262 -0.216,-0.19 -0.228,-0.104 -0.312,0.032 -0.304,-0.06 -0.562,-0.396 -0.54,-0.486 -1.074,0.196 -0.596,-0.088 -0.518,0.014 0.982,0.28 1.074,0.02 2.368,2.114 0.8,1.248 0.476,1.642 -0.324,0.736 -0.504,0.476 -0.47,0.542 -0.442,0.614 1.314,0.898 0.284,-0.026 0.29,-0.126 0.28,-0.306 0.47,-0.746 0.242,-0.264 0.818,-0.096 0.686,0.058 0.682,0.166 0.602,-0.052 1.21,0.32 0.622,0.288 1.542,1.294 0.334,0.708 0.154,0.912 0.018,1.008 -0.26,0.918 -0.298,0.828 -0.184,1.066 -0.13,0.384 -0.182,0.3 -0.816,0.838 -0.542,0.344 -0.228,-0.15 -0.246,0.02 -0.026,0.202 0.258,0.426 0.002,0.514 -0.482,0.38 -0.49,0.162 -0.82,-0.202 -1.138,0.708 0.818,0.364 0.166,0.386 -0.204,0.678 -0.514,0.302 -0.572,0.134 -0.584,0.032 -0.484,0.166 -0.464,0.32 0.582,-0.168 0.404,0.148 0.254,0.568 0.23,0.164 1.14,0.242 0.704,-0.002 1.36,-0.138 0.654,0.002 0.232,0.104 0.004,0.47 -0.1,1.152 -0.18,0.238 -1.802,0.964 -0.37,0.672 -0.102,0.406 -1.054,-0.072 -0.494,0.43 -0.854,0.286 -0.66,0.302 -0.646,0.382 -0.532,0.114 -2.294,-0.454 -1.386,0.038 -1.878,0.396 -0.484,-0.066 -0.724,-0.378 -0.744,-0.256 -0.854,-0.112 -0.738,-0.352 0.46,0.674 -1.022,0.65 -0.472,0.128 -0.49,-0.02 -1,0.176 -0.93,-0.096 0.14,0.46 0.248,0.402 -0.202,0.174 -0.212,0.044 -1.764,-0.302 -0.25,0.056 -0.218,0.28 -0.642,-0.15 -0.624,-0.47 -0.662,-0.318 -0.696,-0.15 -0.552,0.052 -2.274,0.744 -0.454,0.744 -0.228,1.054 -0.328,0.934 -0.536,0.718 -0.638,0.094 -0.6,-0.498 -1.14,-0.548 -0.388,-0.372 -0.124,-0.022 -0.128,0.132 -0.448,0.168 -0.462,0.008 -0.714,0.148 -1.242,0.446 -0.502,0.302 -1.078,0.834 -0.22,0.23 -0.392,0.838 -0.598,0.148 -0.548,-0.536 -0.624,-0.188 -0.658,0.182 -0.398,0.286 -0.186,-0.232 -0.006,-0.476 0.48,-0.568 1.282,-0.43 1.126,-1.118 0.552,-0.682 0.22,-0.386 0.27,-0.246 0.352,-0.092 0.182,-0.426 1.562,-1.716 0.128,-0.394 0.078,-0.708 0.128,-0.682 1.272,-0.442 0.608,-1.438 0.168,-0.114 1.774,-0.264 1.316,0.022 1.308,0.282 0.67,0.026 0.672,-0.098 0.528,-0.39 0.902,-1.408 0.508,-0.622 0.582,-0.562 0.544,-0.642 0.882,-1.192 -0.596,0.412 -0.72,0.652 -0.418,0.378 -1.328,0.38 -0.572,0.388 -1.002,0.874 -0.192,0.072 -1.512,-0.21 -1.124,-1.134 -0.718,-0.464 -0.296,-0.054 -0.308,0.138 -0.656,0.142 -0.668,-0.024 0.342,-0.526 0.464,-0.294 -1.04,-0.204 -0.29,-0.16 -0.33,-0.37 -0.816,-0.062 -0.388,0.094 -0.656,0.488 -1.036,0.518 -1.25,-0.718 -0.244,-0.314 0.006,-0.61 -0.188,-0.484 -0.346,-0.17 0.442,-0.63 0.536,-0.42 1.176,-0.418 1.782,-0.994 1,-0.424 0.928,-0.732 0.384,-0.448 0.278,-0.614 0.276,-0.752 0.394,-0.614 -0.382,-0.146 -0.172,-0.462 0.046,-0.47 0.176,-0.418 -0.158,-0.524 -0.282,-0.548 0.016,-0.428 0.076,-0.458 -0.716,0.024 -0.714,0.144 -0.648,0.324 -0.628,0.44 -0.558,0.082 0.008,-0.352 0.242,-0.436 0.632,-0.624 0.676,-0.518 0.24,-0.394 0.19,-0.458 0.336,-0.368 0.884,-0.696 1.694,-0.784 0.252,-0.046 0.664,0.092 0.654,-0.12 0.572,-0.282 0.57,-0.06 1.284,0.814 -0.382,-1.26 0.566,-0.302 0.82,1.14 0.304,0.12 0.644,-0.166 -0.248,-0.192 -0.29,-0.012 -0.38,-0.172 -0.32,-0.366 -0.532,-1.164 0.03,-0.692 0.358,-0.72 0.396,-0.664 -0.332,-0.132 -0.266,-0.254 -0.076,-0.666 0.104,-0.59 0.712,-0.52 0.21,-0.792 0.088,-0.874 -0.118,-0.402 -0.708,0.064 -0.344,0.164 -0.308,0.258 -0.316,-0.016 -0.874,-0.968 -0.498,-0.734 -0.894,-1.556 -0.126,-0.934 0.714,-2.02 1.104,-1.298 1.3,-0.454 -0.252,-0.086 -1.982,-0.018 -0.654,0.16 -0.606,0.532 -0.342,0.164 -0.36,0.06 -0.328,0.264 -0.32,0.366 -0.334,0.236 -0.662,-0.062 -0.32,0.078 -0.23,-0.212 -0.194,-0.35 -0.252,-0.094 -0.282,0.108 -0.596,0.472 -0.604,0.278 -0.73,-0.298 -0.958,-0.556 -0.188,0.204 -0.212,0.516 -0.122,0.802 -0.68,-0.698 -0.578,-0.934 -0.196,-0.588 -0.014,-0.664 0.314,-0.258 0.342,0.236 0.508,-1.578 1.012,-2.064 0.358,-0.606 0.25,-0.794 -0.042,-0.52 -0.222,-0.44 -0.942,-1 0.012,-0.818 0.1,-0.924 0.256,-0.556 0.108,-0.106 1.25,0.014 -0.488,-0.288 -0.972,-0.838 0.018,-0.298 0.228,-0.778 -0.106,0.078 -0.208,0.36 -0.398,0.87 -0.242,0.202 -0.688,0.206 -0.126,0.426 -0.11,0.112 -0.342,0.048 -0.106,0.398 -0.076,0.026 -0.098,-0.428 -0.01,-0.712 0.136,-0.656 0.26,-0.514 1.008,-1.17 -0.49,0.362 -1.112,1.082 -0.568,0.71 -0.152,0.24 -0.046,0.202 0.002,0.232 0.254,1.242 -0.074,0.574 -0.958,3.77 -0.182,0.376 -0.166,0.196 -0.158,0.046 -0.472,-0.072 -0.21,-0.282 0.002,-0.318 0.088,-0.478 0.398,-1.786 0.172,-0.498 0.256,-0.464 0.564,-0.812 -0.014,-0.054 -0.376,0.16 -0.16,-0.052 -0.116,-0.162 0.074,-2.422 0.306,-0.8 0.114,-1.166 0.264,-1.002 0.306,-0.732 0.234,-0.938 0.35,-0.418 0.094,-0.64 0.394,-0.694 0.304,-0.726 -0.164,0.072 -1.946,1.888 -0.496,0.342 -0.676,-0.092 -0.516,-0.212 -0.404,-0.446 -0.18,-0.858 -0.498,-0.022 -0.426,-0.148 0.004,-0.116 0.55,-0.468 0.882,-0.16 0.826,-0.752 -0.734,-0.508 0.062,-0.162 0.64,-0.434 0.814,-1.458 0.164,-1.346 -0.388,-0.634 -0.14,-0.416 -0.778,-0.464 -0.13,-0.594 0.09,-0.334 0.254,-0.326 0.382,-0.252 0.6,-0.244 -0.544,-0.26 -0.204,-0.308 -0.154,-0.446 -0.014,-0.258 0.282,-1.152 0.164,-0.476 0.322,-0.608 1.456,0.034 0.168,-0.268 0.166,-0.01 0.744,0.246 -0.11,-0.264 -1.218,-1.45 -0.11,-0.276 0.348,-0.784 0.024,-0.35 -0.05,-0.374 0.1,-0.286 0.386,-0.134 1.176,0.012 0.29,-0.132 -0.132,-0.38 -0.274,-0.5 -0.054,-0.42 0.064,-0.372 0.014,-0.75 0.054,-0.332 0.28,-0.498 0.23,-0.148 0.286,-0.086 0.646,0.166 0.246,0.2 0.284,0.474 0.208,-0.038 0.804,-0.516 0.242,-0.074 0.33,0.598 1.374,-0.476 1.846,-0.212 1.11,-0.314 1.168,-0.114 1.09,-0.358 1.156,0.164 0.04,0.208 -0.06,0.288 -0.284,0.778 z m 1.014,-2.434 -0.054,0.032 -0.206,-0.198 -0.336,-0.71 0.53,-0.142 0.25,0.088 -0.094,0.302 -0.09,0.628 z m -1.324,-0.568 -0.322,0.144 -0.318,-0.01 -0.496,-0.626 -0.188,-0.456 0.034,-0.302 0.208,-0.102 0.48,0.148 0.248,0.522 0.032,0.338 0.058,0.132 0.298,0.134 -0.034,0.078 z m 0.604,-2.554 -0.076,0.268 0.426,-0.006 0.618,0.228 0.374,0.028 0.312,0.284 -0.172,0.53 -0.186,0.15 -0.21,0.03 -0.736,-0.53 -0.964,0.22 -0.192,-0.068 -0.126,-0.146 -0.052,-0.182 0,-0.372 -0.052,-0.11 -0.35,0.352 -0.152,-0.042 -0.086,-0.168 -0.038,-0.348 0.038,-0.502 0.206,-0.718 0.346,-0.144 0.516,0.084 0.592,0.406 0.178,0.25 -0.004,0.2 -0.21,0.306 z m 2.854,-2.204 -0.634,0.012 0.328,-0.648 0.382,-0.164 0.722,0.072 -0.128,0.292 -0.67,0.436 z m -1.012,0.488 -0.482,0.272 -0.206,-0.224 -0.054,-0.704 -0.574,-0.302 -0.28,-0.188 -0.216,-0.356 0.054,-0.11 0.374,-0.146 0.64,0.646 0.262,0.52 0.474,0.154 0.06,0.08 -0.052,0.358 z m 7.976,-15.076 0.116,0.802 0.29,-0.208 0.438,0.768 0.224,0 0.368,-0.304 -0.074,0.714 -0.382,1.974 -0.108,0.334 -0.072,0.598 -0.076,0.118 -0.112,1.206 -0.258,0.396 -0.216,0.944 -0.088,0.092 -0.316,-0.362 0.316,-1.442 0.13,-0.84 -0.084,-0.436 -0.178,-0.394 -0.484,-0.012 -0.408,0.182 -0.086,-0.232 -0.012,-0.312 -0.098,-0.104 -0.542,0.022 -0.16,-0.086 -0.106,-0.288 -0.02,-0.23 0.49,-0.18 0.46,0.068 0.672,-0.458 -0.42,-1.538 -0.558,-0.146 -0.128,-0.15 0.108,-0.262 0.306,-0.142 0.47,-0.786 0.282,-0.124 0.35,0.022 -0.034,0.796 z m 1.492,0.27 -0.142,0.13 -0.548,-1.158 0.406,-1.33 0.492,0.042 0.078,0.348 -0.048,0.322 -0.25,0.028 -0.022,0.098 0.078,0.618 0.004,0.716 -0.048,0.186 z m 1.504,-3.412 0,0.132 -0.292,0.968 0.004,0.37 -0.47,-0.036 -0.074,-0.118 -0.088,-0.554 0.06,-0.59 0.066,-0.154 0.136,-0.062 0.148,0.116 0.234,-0.3 0.122,0.006 0.154,0.222 z" title="United Kingdom" id="GB"></path></svg>