<svg xmlns="http://www.w3.org/2000/svg" viewBox="0 0 16.83 3.97"><path d="m 0.34,4.28 -0.032,-0.484 -0.312,-1.104 0.418,-0.482 0.454,-0.286 0.306,0.228 0.092,0.45 0.236,0.308 0.804,0.192 0.794,-0.138 0.486,0.064 -0.014,-0.25 0.164,-0.332 0.966,-0.142 1.02,-0.094 1.05,-0.2 0.822,0.008 0.244,-0.054 -0.058,-0.086 -0.738,-0.096 -1.574,0.228 -1.602,0.068 -1.214,0.602 -0.498,-0.056 -0.504,-0.602 -0.18,-0.742 1.422,-0.054 1.724,0.024 1.878,0.024 0.884,0.012 0.464,-0.808 0.884,-0.356 0.904,-0.132 0.472,0.034 0.496,0.12 0.954,0.666 0.594,0.154 0.502,0.15 0.358,0.324 0.57,0.322 0.448,0.086 0.266,-0.048 0.444,-0.124 0.292,-0.1 0.952,-0.042 0.7,0.372 0.146,0.406 -0.116,0.416 -0.94,0.222 -1.302,0.348 -1.076,-0.19 -1.31,-0.474 -0.766,-0.34 -0.318,-0.138 -0.478,-0.216 -0.418,-0.232 -0.402,-0.152 -0.308,-0.096 -0.228,0.122 -0.114,0.288 -0.182,0.32 -0.234,0.19 -1.098,0.112 -0.986,0.118 -0.528,0.1 -0.354,0.076 -0.11,0.966 -1.116,-0.01 -1.096,-0.012 -1.138,0.018 -1.222,0.018 -0.314,0.198 z" title="Gambia" id="GM"></path></svg>