<svg xmlns="http://www.w3.org/2000/svg" viewBox="0 0 41.37 30.91"><path d="m 20.56,1.54 -0.16,0.154 -0.166,0.334 -0.152,0.412 -0.154,0.276 0.054,0.18 0.438,0.36 0.614,0.504 0.25,0.066 0.286,-0.12 0.45,-0.4 0.358,-0.432 0.342,-0.21 0.402,0.014 0.32,0.304 0.39,0.672 0.356,0.61 0.046,0.062 0.144,0.1 0.18,-0.004 0.188,-0.148 0.138,-0.09 0.166,-0.28 0.694,-0.846 0.522,-0.232 0.186,-0.062 0.364,-0.128 0.606,0.2 0.878,0.348 1.066,0.422 0.374,0.072 0.22,-0.072 0.318,-0.572 0.396,-0.226 0.566,-0.264 0.46,-0.134 0.262,-0.018 0.1,-0.156 0.05,-0.234 -0.054,-0.242 -0.296,-0.434 -0.008,-0.128 0.17,-0.084 0.364,-0.064 0.474,0.044 0.534,0.188 0.434,0.27 0.248,0.322 0.27,0.688 0.208,0.668 0.536,1.06 -0.01,0.658 -0.012,0.762 0.24,0.144 0.26,0.06 0.122,0.112 0.26,0.586 0.246,0.17 0.294,0.04 0.552,0.374 0.354,0.148 0.05,0.112 -0.012,0.156 -0.138,0.196 -0.214,0.136 -0.318,0.256 -0.264,0.334 -0.544,0.802 -0.016,0.15 0.116,0.108 0.224,0.02 0.24,-0.056 0.5,-0.292 0.392,0.104 0.378,0.224 0.138,0.232 0.036,0.304 -0.086,0.394 -0.014,0.438 0.126,0.748 0.198,0.748 0.196,0.272 1.258,0.658 0.122,0.246 0.062,0.278 -0.09,0.378 -0.13,0.212 -0.36,0.33 -0.33,0.254 -0.104,0.278 0.052,0.518 0,1.17 0.05,1.014 0.272,0.366 0.324,0.188 0.384,-0.036 0.372,-0.068 -0.022,0.606 -0.1,0.678 0.44,0.21 0.224,0.206 0.122,0.194 -0.698,0.36 -0.202,0.21 -0.094,0.566 0.022,0.524 0.938,0.372 0.362,0.438 0.16,0.454 0.056,0.858 -0.084,0.196 -0.242,0.002 -0.272,-0.264 -0.202,-0.256 -0.254,0 -0.474,-0.058 -0.538,-0.1 -0.666,0.028 -0.236,0.042 -0.152,0.154 -0.04,0.27 -0.068,0.87 0.218,0.19 0.43,0.216 0.282,0.092 0.234,-0.026 0.18,0.14 0.038,0.374 -0.122,0.274 -0.236,0.256 -0.298,0.656 0.05,0.248 0.014,0.354 -0.51,0.96 -0.144,0.188 -0.674,-0.19 -0.438,-0.062 -0.318,0.242 -0.2,-0.152 -0.236,-0.222 -0.082,-0.292 -0.16,-0.062 -0.294,-0.002 -0.272,0.166 -0.12,0.302 -0.018,0.348 -0.042,0.268 -0.162,0.162 -0.33,0.422 -0.154,0.388 -0.192,0.338 -0.274,-0.02 -0.126,-0.048 -0.088,0.09 -0.426,0.188 -0.366,0.052 -0.096,-0.194 -0.214,-0.156 -0.238,-0.31 -0.27,-0.248 -0.516,-0.176 -0.204,0.08 -0.244,-0.022 -0.16,-0.098 0.022,-0.15 0.27,-0.378 0.154,-0.348 0.086,-0.38 -0.002,-0.364 -0.144,-0.51 -0.232,-0.406 -0.058,-0.234 0.028,-0.336 -0.054,-0.312 -0.076,-0.162 -0.036,-0.308 -0.072,-0.282 -0.138,-0.108 -0.076,-0.472 0.022,-0.486 -0.2,-0.182 -0.316,-0.134 -0.186,-0.192 -0.114,-0.21 -0.114,-0.062 -0.098,0.014 -0.088,0.13 -0.104,0.028 -0.184,-0.454 -0.076,-0.018 -0.128,0.104 -1.458,0.504 -0.064,-0.196 -0.122,-0.232 -0.28,-0.078 -0.482,0.174 -0.28,0.02 -0.432,-0.058 -0.192,0.082 -0.574,0.67 -0.344,0.262 -0.26,-0.022 -0.272,-0.06 -0.192,0.048 -0.142,-0.076 0.056,-0.164 0.14,-0.204 0.274,-0.73 0.704,-0.734 0.014,-0.156 -0.288,-0.428 -0.302,-0.586 0,-0.628 -0.058,-0.454 -0.622,-0.128 -0.114,-0.076 -0.016,-0.154 0.16,-0.406 0.19,-0.378 0.028,-0.158 -0.044,-0.142 -0.382,-0.4 -0.596,-0.742 -0.552,-0.822 -0.474,-0.704 -0.384,-0.322 -0.366,-0.466 -0.138,-0.296 -0.382,-0.106 -1.112,0.006 -1.338,0.008 -1.128,0.004 -0.066,0.4 -1.232,0.266 -0.76,-0.306 -0.844,0.18 -0.412,0.202 -0.128,0.424 -0.188,0.466 -0.18,0.192 -0.076,0.208 -0.104,0.19 -0.166,0.22 -0.184,0.438 -0.402,0.626 -0.422,0.404 -0.716,0.218 -0.224,0.658 -0.164,0.246 -0.276,0.19 -0.296,0.126 -0.272,-0.076 -0.314,-0.052 -0.328,0.118 -0.056,-0.164 0.186,-0.522 -0.148,-0.27 -0.562,-0.542 -0.054,-0.26 -0.172,-0.338 -0.742,-0.698 -0.69,0.044 0.192,-0.584 -0.008,-0.776 -0.236,-0.424 0.06,-0.432 -0.128,0.026 -0.23,0.298 -0.372,-0.096 -0.756,-0.462 -0.378,-0.446 -0.044,-0.382 -0.086,-0.148 -0.23,0.08 -0.472,-0.008 -1.442,-0.68 -1.024,-1.708 -0.022,-0.386 0.146,-0.664 -0.034,-0.18 -0.47,0.44 -0.09,-0.296 -0.36,-0.686 -0.104,-0.396 -0.344,-0.176 -0.278,-0.03 -0.214,0.132 -0.282,0.802 -0.21,-0.004 -0.218,-0.172 0.046,-0.6 0.248,-0.296 0.306,-0.454 0.928,-1.896 0.33,-0.434 0.21,-0.152 0.438,-0.018 0.856,-0.254 0.7,-0.418 0.35,-0.17 0.802,0.044 0.95,-0.072 1.238,-0.406 0.022,-0.56 -0.01,-0.716 -0.042,-0.284 -0.44,-0.256 -0.256,-0.222 -0.22,-0.282 -0.268,-0.202 0.01,-0.21 0.336,-0.182 0.212,-0.092 0.504,0.004 0.166,-0.104 0.126,-0.182 0.142,-0.462 0.05,-0.486 -0.332,-0.654 0.018,-0.462 1.818,0.066 0.184,0.05 0.812,0.08 0.504,0 0.31,0.034 0.13,0.106 -0.024,0.194 -0.088,0.256 0.104,0.264 0.278,0.07 0.146,-0.08 0.142,-0.128 0.168,-0.102 0.238,0.068 0.51,0.39 0.474,0.106 0.516,0.212 0.486,0.118 0.432,-0.016 0.328,0.218 0.606,0.07 0.78,-0.278 0.616,-0.122 0.862,-0.03 0.454,0.09 1.314,-0.222 0.656,0.05 z" title="Guinea" id="GN"></path></svg>