<svg xmlns="http://www.w3.org/2000/svg" viewBox="0 0 48.19 48.62"><path d="m 37.46,0.22 0.502,0.152 0.292,0.246 0.182,0.226 0.278,0.194 0.208,0.044 0.16,0.666 0.084,0.824 -0.126,0.356 -0.37,0.082 -1.156,0.776 -0.028,0.71 0.016,0.342 0.024,0.244 0.122,0.204 0,0.294 -0.128,0.316 -0.504,0.528 -0.35,0.418 -0.392,0.568 -0.22,0.07 -0.174,0.1 -0.158,-0.312 -0.87,-0.554 -2.014,-0.324 -0.962,-0.41 -0.422,0.076 -0.818,-0.458 -0.56,0.202 -1.188,0.814 -0.642,-0.088 -0.686,-0.49 -0.446,-0.09 -0.524,0.258 -0.838,0.936 -0.854,0.458 -0.764,-0.178 -1.028,0.004 -0.11,0.522 0.198,0.362 0.562,0.616 -0.264,0.462 0.196,0.462 0.366,0.094 0.554,-0.026 1.022,0.598 0.448,0.63 0.286,0.688 -0.624,-0.494 -0.414,-0.476 -0.578,-0.172 -0.802,-0.406 -0.504,-0.068 -0.536,0.282 -0.042,0.318 0.578,0.594 0.528,0.366 0.28,0.296 0.186,0.658 -0.106,0.222 -0.196,0.208 -0.626,-0.414 -0.958,-1.474 -1.336,-0.294 -0.224,0.308 0.264,0.78 0.19,0.302 1.162,0.84 -0.092,0.178 -0.17,0.076 -1.3,-0.48 -0.378,-0.73 -0.09,-0.926 -1.2,-0.644 -1.132,-0.702 -0.254,-0.666 0.234,-0.248 0.166,-0.49 -0.622,0.09 -0.39,0.31 -0.63,0.3 -0.026,0.492 0.1,0.456 -0.208,0.662 -0.204,1.15 0.128,0.602 1.368,1.722 0.468,1.248 0.336,0.472 0.7,0.52 0.73,0.966 0.308,0.502 0.22,0.822 -0.614,0.508 -0.356,0.02 -0.198,-0.224 0.276,-0.56 -0.04,-0.342 -0.948,-0.53 -0.4,0.178 -0.462,0.344 0.264,0.64 0.296,0.422 0.15,0.58 0.568,-0.05 -0.764,0.65 -0.718,0.332 -0.706,0.02 -0.45,0.06 -0.156,0.166 0.366,0.12 0.298,0.012 0.486,0.35 1.382,0.418 0.66,0.53 0.648,0.048 0.65,0.97 1.126,0.258 0.642,0.978 0.852,0.192 0.736,0.36 0.214,0.342 0.108,0.62 0.048,1.31 0.16,0.972 0.006,0.306 -0.04,0.458 -0.2,0.224 -0.27,0.008 -0.53,-0.714 -0.81,-0.752 -0.856,-0.896 -0.244,-0.158 -0.2,-0.014 -0.458,0.302 -1.272,0.234 -0.596,0.328 -0.224,0.072 -0.062,0.172 0.28,0.178 0.342,0.41 0,0.558 0.284,0.678 0.366,0.174 0.476,-0.014 0.274,0.126 0.07,0.27 0.278,0.314 0.182,0.234 -0.006,0.166 -1.33,0.442 -0.278,0.202 -0.234,0.104 -0.346,-0.21 -0.02,-0.54 -0.456,-0.29 -0.418,-0.25 -0.502,-0.106 -0.426,-0.374 -0.278,0.302 0.222,1.048 0.482,0.72 0.808,1.928 0.366,1.134 0.074,0.548 -0.182,0.91 0.398,0.674 0.272,0.692 -0.298,-0.026 -0.26,-0.244 -0.436,-0.288 -0.844,-1.106 -0.294,-0.69 -0.352,-0.054 -0.612,0.1 -0.668,1.474 0.002,0.842 -0.346,-0.2 -0.296,-0.262 0.036,-0.922 -0.03,-0.388 -0.812,-1.26 -0.372,-0.142 -0.174,-0.426 -0.3,-0.456 -0.386,0.086 -0.316,0.184 -0.086,0.688 -0.032,0.616 -0.236,0.462 -0.866,-0.878 -0.872,-1.524 -0.022,-0.836 0.638,-0.766 -0.076,-0.548 -0.604,-1.084 -0.872,-0.698 -0.488,-0.208 -0.23,-0.744 -0.466,-0.384 -0.378,-0.18 -0.074,-0.264 0.114,-0.196 0.916,-0.766 0.536,-1.204 0.266,-0.056 0.548,0.286 0.616,-0.074 0.504,-0.706 0.428,-0.384 0.722,0.05 1.63,0.942 1.752,0.538 0.874,0.47 0.496,0.466 0.262,0.096 0.416,0.066 -0.018,-0.348 -0.132,-0.308 0.346,-0.168 0.938,0.008 0.17,-0.164 0.174,-0.264 -0.194,-0.302 -0.31,-0.144 -0.332,-0.04 -0.218,-0.096 -0.354,0.096 -0.55,-0.234 -0.286,-0.192 -0.166,-0.198 -0.958,-0.394 -0.908,-0.668 -0.206,0.378 -0.368,0.204 -0.522,0.03 -1.468,-0.424 -0.902,0.324 -0.492,0.084 -0.376,0.008 -0.462,0.144 -0.534,0.086 -0.462,-0.616 -0.194,-0.478 -0.136,-0.09 -0.006,0.45 -0.148,0.36 -0.678,0.202 -0.39,-0.28 -0.3,-0.846 -0.378,-1.078 -0.666,-0.872 -0.542,-0.228 -0.046,-0.48 0.048,-0.384 0.65,-0.096 1.016,0.402 0.21,-0.08 0.228,-0.186 -0.044,-0.41 -0.148,-0.366 -0.28,-0.016 -0.194,0.042 -0.626,-0.076 -0.802,0.204 -0.372,-0.192 -0.124,-0.234 -0.672,-0.578 -0.58,-0.776 -0.94,-0.518 -0.614,-1.584 -0.516,-0.692 -0.55,-0.496 0.12,-0.008 0.208,0.084 0.4,0.272 0.424,0.058 0.232,-0.18 0.134,-0.166 0.086,-0.272 0.036,-0.318 0.07,-0.106 0.326,0.038 0.104,-0.08 -0.004,-0.286 -0.21,-0.356 -0.184,-0.438 0,-0.208 0.154,-0.084 0.254,-0.19 0.136,-0.236 0.27,-0.118 0.398,-0.022 0.444,-0.104 0.288,-0.254 0.042,-0.25 0.18,-0.692 0.118,-0.34 0.19,-0.31 0.102,-0.418 0.204,-0.394 0.424,-0.166 0.384,-0.194 0.29,-0.508 0.164,-0.434 0,-0.266 -0.244,-0.436 -0.18,-0.424 0.048,-0.552 0.762,-0.046 0.266,-0.052 0.99,-0.03 0.452,-0.296 0.312,0.028 0.652,0.256 0.292,-0.202 0.852,-0.4 0.842,-1.164 0.358,-0.174 0.818,-0.072 0.256,-0.134 0.298,0.026 0.916,0.236 0.52,0.036 0.618,-0.162 0.68,-0.284 0.17,-0.998 0.162,-0.144 0.422,-0.04 0.32,0.008 0.616,0.08 0.732,0.026 0.47,-0.468 0.742,-0.034 0.344,-0.068 0.574,0.094 0.558,-0.004 0.714,-0.196 0.666,-0.322 0.52,0.028 0.212,-0.058 0.12,-0.068 0.13,-0.434 0.978,-0.028 0.332,0.042 0.546,0.012 0.568,-0.238 0.17,0.02 0.286,0.636 0.15,0.184 0.308,0.17 0.688,0.476 0.124,-0.126 0.288,-0.16 0.824,0.218 0.786,0.366 0.66,0.538 0.734,-0.156 0.814,-0.264 0.53,-0.076 0.576,-0.038 0.342,-0.114 0.778,0.138 0.802,-0.29 0.386,-0.26 0.112,-0.368 -0.064,-0.646 -0.182,-0.648 -0.192,-0.24 -0.062,-0.248 0.11,-0.232 0.124,-0.16 0.524,-0.136 0.654,0.228 z m -8.682,8.182 -0.72,0.262 -0.732,-0.498 0.006,-0.296 0.386,-0.602 0.212,-0.178 0.538,0.048 0.306,0.414 0.072,0.196 -0.1,0.332 0.032,0.322 z m 5.118,1.388 -0.636,0.192 -0.7,-0.606 0.676,-0.244 0.314,0.176 0.224,0.208 0.122,0.274 z m -1.394,3.244 -0.212,0.246 -0.158,0.424 -0.084,0.606 -0.328,0.014 -0.198,-0.122 -0.066,-0.23 -0.012,-0.29 -0.144,0.012 -0.116,0.314 -0.102,0.142 -0.33,0.03 -0.362,-0.194 0.018,-0.418 -0.072,-0.486 0.032,-0.17 0.99,-0.042 0.29,0.358 0.35,-0.208 0.144,-0.224 0.424,-0.14 -0.064,0.378 z m -30.084,4.002 0.122,0.406 -0.7,-0.252 -0.51,-0.362 -0.422,-0.898 -0.898,-1.022 -0.014,-0.298 0.342,-0.226 0.738,-0.16 0.298,0.166 0.192,0.172 0.06,0.196 -0.418,0.392 -0.086,0.178 0.322,0.352 -0.004,0.142 0.134,0.682 0.158,0.256 0.406,0.206 0.28,0.07 z m 35.542,0.746 -0.098,0.428 0.776,0.71 0.264,0.45 0.098,0.436 -0.066,0.126 -0.294,-0.236 -0.242,-0.076 0.082,0.312 0.248,0.268 -0.44,0.154 -0.44,-0.008 -1.288,-0.374 -0.296,-0.398 0.77,-0.598 0.156,-0.242 -0.544,0.024 -0.582,0.71 -0.932,-0.312 -0.286,-0.286 -0.064,-0.154 0.368,-0.632 0.656,0.022 0.346,-0.142 0.43,-0.2 0.004,-0.3 1.024,-0.068 0.35,0.386 z m -14.156,1.236 -0.262,0.084 0.262,-0.576 0.464,-0.298 -0.174,0.484 -0.29,0.306 z m -0.608,0.316 -0.25,0.244 -0.388,-0.106 -0.406,-0.816 1.044,0.678 z m -2.044,1.12 0.318,0.78 0.298,0.262 0.624,0.31 0.294,0.04 1.066,0.56 1.238,0.112 0.16,0.162 0.152,0.43 0.252,0.338 0.064,0.262 -0.132,0.292 0.182,0.89 0.312,0.844 0.47,0.408 0.586,0.124 0.558,-0.018 0.14,0.168 -0.056,0.736 -0.236,0.288 -0.192,0.07 -0.166,-0.076 -0.152,-0.172 -0.164,-0.082 -0.32,-0.014 -0.234,-0.296 -0.594,-0.406 -0.11,-0.244 -0.02,-0.374 -0.252,-0.276 -0.232,-0.524 -0.22,-0.146 -0.122,-0.264 -0.01,-0.112 -0.864,-0.078 -0.714,-0.002 -0.606,-0.298 -0.188,-0.782 -0.36,-0.21 -0.27,-0.222 -0.224,-0.308 -0.568,-0.566 -0.628,-0.474 -0.608,-0.314 -0.644,-0.206 -0.524,0.242 -0.306,-0.056 -0.062,-0.164 0.652,-0.326 0.896,-0.624 0.63,-0.206 0.306,-0.026 0.58,0.548 z m 7.068,1.074 -0.592,0.174 -0.158,-0.028 0.132,-0.22 0.01,-0.092 -0.592,-0.404 0.07,-0.524 0.07,-0.134 0.44,0.274 0.096,0.456 0.524,0.498 z m -22.384,1.436 -0.218,0.056 -0.188,-0.038 -0.17,0.032 -0.166,0.136 0.018,-0.566 0.194,-0.706 0.236,-0.412 0.334,-0.192 0.142,0.324 -0.026,1.152 -0.156,0.214 z m 30.35,2.786 -0.536,0.402 -0.598,-0.582 -0.098,-0.188 0.44,-0.236 0.218,-0.362 -0.176,-0.446 -0.61,-0.66 -0.03,-0.468 0.934,-0.198 0.55,0.408 0.28,0.028 -0.108,0.39 0.048,0.126 0.042,1.18 -0.26,0.166 -0.042,0.324 -0.054,0.116 z m -29.948,-0.792 -0.278,0.078 -0.352,-0.682 -0.128,-0.472 0.148,-0.026 0.14,0.054 0.148,0.178 0,0.182 0.06,0.196 0.154,0.234 0.108,0.258 z m -0.82,-0.384 0.07,0.824 0.396,0.154 0.526,0.74 -0.044,0.378 -0.11,0.13 -0.872,-0.35 -0.208,0.158 -0.254,-0.064 -0.158,-0.41 0.018,-0.144 -0.142,-0.246 -0.12,-0.11 -0.342,0.326 -0.216,0.06 0,-0.298 0.318,-0.82 0.148,-0.138 0.26,0.27 0.214,-0.1 0.162,-0.444 0.01,-0.442 0.074,-0.13 0.27,0.656 z m 16.494,3.252 -0.222,0.174 -0.25,-0.008 -0.178,-0.064 -0.088,-0.14 0.11,-0.066 0.13,-0.282 0.12,-0.076 0.178,0.036 0.11,0.114 0.09,0.312 z m 8.086,1.176 -0.166,0.474 -0.438,-0.552 -0.48,-0.378 -0.18,-0.332 -0.292,-0.2 -0.08,-0.446 0.354,-0.182 0.152,-0.018 0.364,0.542 0.568,0.062 -0.044,0.334 0.18,0.43 0.062,0.266 z m -23.03,-0.322 0.592,0.688 -0.478,-0.17 -0.508,0.476 -0.644,-0.556 -0.386,-0.564 -0.086,-0.226 0.404,-0.528 0.376,0.542 0.456,0.086 0.274,0.252 z m 33.318,-0.044 0.69,0.234 0.192,-0.026 0.326,0.084 0.086,0.428 -0.432,0.062 -0.748,0.394 -0.318,-0.086 -0.38,-0.342 -0.604,-0.036 -0.178,-0.094 0.324,-0.404 0.588,-0.204 0.454,-0.01 z m -13.856,1.656 -0.376,0.342 -0.064,-0.514 0.242,-0.542 0.33,-0.034 0.122,0.238 -0.254,0.51 z m 5.052,-0.16 -0.208,0.456 -0.35,-0.07 -0.586,-0.49 -0.2,-0.222 -0.11,-0.218 0.24,-0.026 0.294,0.232 0.75,0.122 0.17,0.216 z m 4.34,0.496 -0.262,0.028 0.08,-0.282 0.502,-0.49 0.704,-0.024 0.64,-0.246 0.144,-0.008 -0.306,0.386 -0.516,0.36 -0.986,0.276 z m -3.516,0.776 -0.538,0.044 0.032,-0.538 0.2,-0.14 0.644,0.268 -0.032,0.168 -0.306,0.198 z m -2.58,-0.524 -0.028,0.73 -0.148,-0.006 -0.086,-0.112 -0.004,-0.28 0.064,-0.44 0.202,0.108 z m -2.848,1.05 -0.32,0.214 0.106,-0.488 -0.158,-0.254 0.14,-0.216 0.206,-0.174 0.096,0.18 0.184,0.292 -0.254,0.446 z m 0.492,1.54 -0.208,0.106 -0.346,-0.154 0.092,-0.384 0.24,-0.164 0.254,0.126 0.038,0.174 -0.07,0.296 z m 5.74,1.104 -0.5,0.264 -0.342,-0.382 -0.19,-0.602 0.916,-0.884 0.22,0.08 0.132,0.228 -0.02,0.794 -0.216,0.502 z m -1.498,-0.706 -0.446,0.54 -0.372,-0.058 -0.156,-0.248 0.23,-0.508 0.498,-0.288 0.226,0.076 -0.022,0.376 0.042,0.11 z m 9.77,0.764 -0.56,0.096 0.1,-0.556 -0.274,-0.438 0.436,0.246 0.278,0.296 0.136,0.056 -0.032,0.178 -0.084,0.122 z m -12.902,0.264 -0.102,0.03 -0.148,-0.294 -0.03,-0.274 0.058,-0.162 0.194,-0.016 0.264,0.522 -0.236,0.194 z m 6.388,0.914 -0.496,0.058 -0.158,-0.052 0.302,-0.12 0.21,-0.128 0.102,-0.154 0.502,-0.272 0.33,-0.356 0.358,0.242 -0.448,0.162 -0.702,0.62 z m 6.12,0.442 -0.174,0.008 0.208,-0.336 0.592,-0.462 0.862,-0.408 0.286,-0.044 0.486,0.252 -0.892,0.418 -0.238,0.22 -0.658,0.048 -0.472,0.304 z m -8.8,0.37 -0.098,0.11 -0.424,-0.44 -0.162,-0.256 0.202,-0.214 0.624,0.5 -0.142,0.3 z m -4.748,-0.626 0.01,0.41 -0.04,0.146 -1.148,0.198 0.106,-0.47 0.07,-0.148 0.38,0.218 0.14,-0.112 0.056,-0.128 0.426,-0.114 z m 18.66,1.462 -0.122,0.11 -0.282,-0.318 -0.014,-0.166 0.288,-0.19 0.144,-0.044 0.042,0.13 -0.004,0.278 -0.052,0.2 z m -7.856,-0.218 -0.444,0.166 -0.282,0.35 -0.344,-0.248 0,-0.336 0.376,0.104 0.264,-0.19 -0.08,-0.214 0.288,0.1 0.222,0.268 z m -5.49,1.34 -0.26,0.366 -0.368,-0.13 0.15,-0.138 0.088,-0.18 0.01,-0.26 -0.1,-0.16 0.068,-0.058 0.328,0.268 0.084,0.292 z m 13.248,3.206 -0.404,0.146 -0.14,-0.018 -0.168,-0.32 0.234,-0.772 -0.216,-0.498 -0.014,-0.21 0.328,-0.292 0.228,-0.438 0.556,-0.474 1.442,-0.562 0.338,-0.052 -0.01,0.44 -0.482,1.112 -0.428,0.556 0.114,0.444 -0.686,0.124 -0.692,0.814 z m -26.88,-1.8 -0.066,0.3 -0.578,-0.206 -0.16,-0.31 -0.03,-0.688 0.152,-0.336 0.1,-0.106 0.266,0.388 0.558,0.566 -0.242,0.392 z m 23.138,4.994 -0.214,0.386 -0.218,-0.326 0.094,-0.376 -0.252,-0.594 0.478,-0.884 0.01,-0.43 0.366,-0.22 -0.09,0.73 -0.28,0.584 0.29,0.486 0.138,0.552 -0.322,0.092 z m -18.656,-0.482 0.384,0.05 0.52,-0.008 0.118,-0.042 0.332,-0.402 0.408,-0.008 0.178,0.396 -0.414,0.182 -0.084,0.104 0.08,0.084 0.31,0.166 0.432,-0.062 0.012,0.312 0.096,0.254 0.212,0.152 0.232,0.03 0.51,-0.044 0.502,-0.1 0.518,-0.2 0.53,-0.102 1.582,0.102 0.568,0.432 1.082,0.052 1.004,0.228 0.528,-0.15 0.902,-0.14 0.144,0.152 -0.116,0.974 0.056,0.284 0.26,0.136 0.256,-0.066 0.316,-0.32 0.756,-0.246 0.784,0 0.662,-0.648 0.194,-0.038 -0.122,0.318 -0.1,0.748 -0.14,0.438 -0.064,0.344 -0.442,0.178 -0.666,0.03 -1.218,-0.076 -1.228,0.122 -2.274,0.328 -2.278,0.168 -0.306,-0.11 -0.006,-0.434 -0.048,-0.3 -0.148,-0.21 -0.704,-0.18 -0.672,-0.308 -2.634,-0.42 -0.622,-0.166 -1.008,0.086 -0.37,-0.012 -0.254,-0.15 -0.176,-0.26 -0.08,-0.826 0.126,-0.818 0.218,-0.216 0.1,0.246 0.258,0.114 0.24,-0.248 -0.002,-0.376 0.122,-0.348 0.19,0.146 0.126,0.536 0.328,0.142 z" title="Greece" id="GR"></path></svg>