<svg xmlns="http://www.w3.org/2000/svg" viewBox="0 0 38.08 23.05"><path d="m 33.9,1.24 0.534,-0.068 0.022,0.01 0.126,0.04 0.09,0.392 0.014,0.026 0.13,0.258 0.12,0.342 0.188,0.258 0.414,0.106 0.54,0.318 0.35,0.6 0.526,0.248 0.038,0.006 0.104,-0.028 0.38,-0.022 0.074,0.12 0.302,0.294 0.118,0.256 -0.06,0.272 0.054,0.308 0.114,0.108 -0.138,0.206 -0.982,1.032 -0.386,0.272 -0.254,0.056 -0.402,-0.108 -0.414,0.082 -0.37,0.22 -0.342,0.07 -0.258,0.262 -0.334,0.56 -0.412,0.472 -0.414,0.294 -0.216,0.262 -0.024,0.904 -0.23,0.26 -0.308,0.262 -0.17,0.23 -0.47,1.372 -0.356,0.438 -0.34,0.336 -0.056,0.306 0.006,0.352 -0.384,0.7 -0.504,0.724 -0.096,0.298 0.112,0.4 -0.484,0.46 -0.278,0.222 -0.232,0.104 -0.144,0.288 -0.236,0.702 0.062,0.312 0.006,0.288 -0.408,0.168 -0.12,0.316 -0.104,0.392 -0.17,0.176 -0.458,0.326 -1.14,-0.142 -0.43,0.11 -0.128,0.232 -0.026,0.186 -0.144,0.176 -0.258,0.218 -0.266,0.098 -0.594,-0.27 -1.274,0.276 -0.22,0.196 -0.178,-0.142 -0.274,-0.126 -1.274,-0.16 -0.504,0.126 -0.674,-0.048 -0.622,-0.14 -0.466,0.114 -0.41,0.548 -0.204,0.184 -0.16,0.118 -0.35,0.172 -0.294,0.206 -0.39,0.148 -0.35,-0.02 -0.33,-0.236 -0.118,0.054 -0.104,0.218 -0.18,0.184 -0.494,0.228 -0.126,-0.004 -0.028,0 -0.378,0.168 -0.624,0.094 -0.314,-0.066 -0.568,0.756 -0.174,0.138 -0.542,0.23 -0.442,0.116 -0.38,-0.092 -0.15,-0.008 -1.684,-0.038 -0.88,-0.162 -0.564,-0.296 -0.376,-0.33 -0.184,-0.366 -0.436,-0.22 -0.69,-0.078 -0.536,-0.364 -0.386,-0.648 -0.518,-0.514 -0.658,-0.38 -0.52,-0.536 -0.384,-0.694 -0.692,-0.626 -1,-0.556 -0.302,-0.122 -0.06,-0.18 -0.488,-0.692 -0.21,-0.256 0.02,-0.344 -0.098,-0.196 -0.178,-0.136 -0.096,-0.498 -0.056,-0.372 -0.14,-0.24 -1.07,-0.05 0.896,-0.888 0.446,-0.248 0.516,0.042 0.166,-0.08 0.044,-0.13 0.088,-0.29 0.044,-0.274 0.044,-0.26 -0.056,-0.144 -0.25,-0.046 -0.12,-0.638 0.128,-0.242 0.128,-0.168 -0.158,-0.778 0.048,-0.266 0.404,-0.042 0.334,-0.166 0.274,-0.188 0.076,-0.242 0.224,-0.492 -0.206,-0.604 -1.166,-0.394 -0.06,-0.15 0.27,-0.172 0.29,-0.244 0.168,-0.192 0.224,-0.026 0.316,0.098 0.564,0.438 0.214,0.064 0.208,-0.128 0.222,-0.028 0.622,0.016 0.524,-0.102 -0.118,-0.466 0.002,-0.34 -0.09,-0.272 0.056,-0.298 0.212,-0.234 0.064,-0.524 0.326,-0.354 0.154,-0.052 0.576,0.066 0.136,0.092 0.088,0.02 0.918,0.862 0.868,0.648 0.71,0.332 1.044,0.026 1.11,0.03 1.856,-0.114 1.392,-0.084 0.092,-0.162 0.21,-0.386 -0.168,-0.332 0.01,-0.39 0.234,-0.508 0.688,-0.424 1.97,-0.186 1.132,-0.316 0.172,-0.43 0.374,-0.426 0.344,-0.086 0.47,0.196 0.566,0.374 0.498,0.2 0.29,-0.128 1,-0.632 1.152,-0.62 0.792,-1.68 0.086,-0.27 0.858,-0.192 1.254,0.034 0.644,0.22 0.484,0.116 0.724,-0.04 1.044,-0.362 0.386,0.01 0.3,0.256 0.328,0.222 0.222,0.27 0.168,0.382 0.09,0.142 0.146,0.196 0.264,0.268 0.254,0.07 1.934,-0.466 z" title="Hungary" id="HU"></path></svg>