<svg xmlns="http://www.w3.org/2000/svg" viewBox="0 0 256.90 94.20"><path d="m 155.72,94.2 -0.522,0.002 -0.168,-0.06 -0.042,-0.5 0.154,-0.28 1.21,-0.36 0.472,-0.332 0.672,-0.69 0.416,-0.18 0.106,-0.078 0.072,0.014 0.066,0.526 0.168,0.312 0.03,0.164 -0.604,0.266 -0.54,0.612 -1.176,0.4 -0.314,0.184 z m -5.982,-1.81 -0.28,0.068 -0.602,-0.164 -0.122,-0.1 0.516,-0.274 0.396,-0.388 0.462,-0.034 0.274,0.08 -0.094,0.462 -0.55,0.35 z m 8.604,-1.632 -0.506,0.198 -0.002,-0.416 0.39,-0.526 0.356,-0.178 0.198,0.21 0.018,0.096 -0.516,0.188 0.062,0.428 z m -19.104,-5.252 0.254,0.254 0.918,0.49 0.15,0.206 0.058,0.34 0.184,0.252 0.414,0.04 0.442,-0.052 0.338,0.162 0.292,0.254 0.432,0.494 0.38,0.546 0.472,0.306 0.27,0.456 -0.158,0.402 -0.598,0.556 -0.322,0.12 -0.442,0.044 -0.688,0.332 -0.252,-0.172 -0.78,-0.12 -0.622,-0.24 -0.522,-0.438 -0.3,-0.47 -0.38,-0.416 -0.662,-0.278 -1.188,-0.816 -0.734,-0.074 -0.3,0.06 -0.302,0.004 -1.556,-0.366 -0.242,-0.214 -0.19,-0.274 -0.174,-0.27 -0.106,-0.302 0.2,-0.268 0.208,-0.18 0.866,-0.316 0.62,-0.096 0.718,0.014 1.07,-0.098 1.014,0.158 0.312,-0.118 0.512,-0.328 0.178,0.114 0.216,0.302 z m 27.64,-1.814 0.206,0.062 0.712,-0.34 0.134,0.064 0.138,0.154 0.002,0.454 -0.274,0.378 -0.692,0.03 -0.098,0.106 -0.008,0.23 0.054,0.224 0.16,0.18 0.206,0.316 0.194,0.736 -0.392,0.302 -0.198,0.568 -0.68,0.534 -0.748,0.874 -0.6,0.446 -0.526,0.528 -0.452,0.354 -0.566,0.12 -0.846,0.076 -1.15,0.632 -0.636,0.276 -0.62,0.02 -0.58,-0.206 -0.22,-0.232 0.052,-0.312 0.192,-0.268 0.234,-0.22 0.148,-0.284 -0.656,-0.36 -0.056,-0.274 0.26,-0.73 0.17,-0.75 0.244,-0.512 0.94,-0.914 0.562,-0.454 0.332,-0.176 0.092,0.192 0.21,0.232 0.142,0.038 0.108,-0.052 0.828,0.08 0.208,-0.08 0.316,-0.362 0.208,-0.202 0.14,-0.428 0.036,-0.272 0.736,-0.198 0.394,-0.218 0.35,-0.31 1.02,-0.528 0.182,-0.146 -0.04,0.502 0.128,0.12 z m -52.352,-1.602 -0.156,0.194 -0.456,-0.346 -0.116,-0.156 0.338,-0.224 0.118,-0.032 0.292,0.244 -0.02,0.32 z m 41.354,-1.266 -0.18,0.332 -0.322,-0.094 0.088,-0.32 0.164,-0.19 0.436,-0.276 0.444,-0.048 0.272,0.096 0.086,0.106 -0.692,0.108 -0.296,0.286 z m -19.72,1.104 -0.218,0.054 -0.22,-0.082 0.09,-0.502 -0.126,-0.342 0.228,-0.268 0.058,-0.474 0.092,-0.144 0.134,0.15 0.062,0.098 0.116,0.046 0.252,0.008 0.056,0.206 -0.01,0.194 -0.108,0.204 -0.3,0.218 -0.216,0.246 0.11,0.388 z m 21.628,-2.178 -0.114,0.248 -1.528,-0.016 0.042,-0.326 0.424,-0.356 0.142,-0.118 0.468,-0.104 0.668,0.188 -0.102,0.484 z m -37.474,1.46 -0.71,1.168 0.254,0.188 0.152,0.178 -1.176,0.242 -0.49,-0.128 -0.284,0.034 -1.194,-0.22 -0.854,-0.268 -0.098,-0.212 0.068,-0.254 0.252,0.086 0.658,0.04 0.252,-0.114 0.006,-0.752 -0.092,-0.982 0.89,-0.8 0.474,-0.324 0.544,-0.19 1.376,0.442 0.228,0.12 0.176,0.18 0.086,0.288 -0.518,1.278 z m 42.916,-1.602 -0.342,0.348 -0.232,0.606 -0.212,0.184 -0.454,0.114 -0.274,-0.608 -0.502,0.028 0.246,-0.536 0.236,-0.2 0.308,-0.004 0.152,0.216 0.082,0.046 0.724,-0.906 0.146,-0.01 0.122,0.04 0.098,0.114 -0.098,0.568 z m -2.032,-0.322 -0.792,0.154 -0.484,0.704 -0.384,-0.01 -0.21,0.312 -0.048,0.134 0.028,0.126 -0.042,0.12 -0.152,0.124 -0.36,-0.194 -0.308,0.248 -0.13,0.06 -0.454,-0.288 -0.43,0.018 -0.13,-0.044 0.534,-0.516 0.728,-0.482 0.12,-0.178 -0.286,-0.048 -0.17,-0.072 -0.022,-0.114 0.46,-0.076 0.318,-0.01 0.242,0.148 0.154,0 0.984,-0.568 0.39,0.128 0.284,0.146 0.16,0.178 z m 84.028,0.656 -0.278,0.074 -1.412,-0.17 -0.15,-0.232 -0.022,-0.12 0.322,-0.23 0.312,-0.39 0.484,-0.146 0.188,0 0.568,0.924 -0.012,0.29 z m -119.774,-0.12 -0.126,0.004 -0.244,-0.11 0.088,-0.234 -0.132,-0.382 0.046,-0.314 0.312,-0.178 0.666,-0.02 0.024,0.23 -0.634,1.004 z m 8.518,-0.726 -0.246,0.006 -0.05,-0.226 0.088,-0.236 0.236,-0.1 0.108,-0.006 0.17,0.214 0.038,0.112 -0.158,0.148 -0.186,0.088 z m 30.88,-0.552 0.134,0.342 0.434,-0.19 0.424,-0.048 0.964,0.036 0.708,0.076 0.418,0.142 0.04,0.686 -0.196,0.148 -3.662,0.518 -0.358,-0.166 -0.14,-0.164 0.394,-0.508 -0.182,-0.242 0.208,-0.394 0.438,-0.268 0.376,0.032 z m 18.232,-0.236 0.982,0.226 0.562,-0.024 0.116,0.202 -0.538,0.478 -1.138,-0.368 -0.194,-0.394 0.21,-0.12 z m -28.294,2.892 -0.792,0.2 -0.492,0.19 -0.47,0.252 -0.296,0.052 -0.538,0.02 -0.762,-0.046 -0.514,0.082 -1.434,0.652 -0.564,0.056 -0.488,0.16 -0.168,-0.254 -0.208,-0.188 -0.476,-0.046 -0.476,0.014 -0.484,0.576 -0.772,-0.122 -0.298,0.05 -0.29,0.122 -0.286,0.054 -0.3,-0.04 -1.126,-0.448 -1.292,-0.266 -1.296,0.104 -1.116,-0.246 -0.612,0.188 -0.576,0.268 -0.17,-0.282 -0.21,-0.248 -0.188,-0.372 -0.006,-0.422 0.062,-0.294 0.166,-0.27 0.104,-0.28 0.048,-0.3 0.244,0.142 0.254,-0.054 0.76,-0.326 0.742,-0.494 0.69,-0.18 0.398,-0.05 0.34,0.098 0.346,-0.036 0.354,-0.11 0.558,0.378 0.234,0.078 0.756,0.03 0.688,0.218 0.616,0.328 0.888,0.306 0.536,0.412 0.408,0.152 0.302,0.042 0.278,-0.056 0.352,-0.276 0.41,-0.114 0.356,0.004 0.65,-0.072 0.276,-0.066 0.306,-0.152 0.3,0.094 0.264,0.14 1.1,0.722 0.338,0.02 0.62,-0.156 0.186,-0.194 0.096,-0.298 0.17,-0.248 0.236,-0.214 0.268,-0.164 0.822,-0.278 0.562,-0.274 0.386,-0.464 -0.902,-0.204 0.19,-0.334 0.3,-0.188 0.398,0.07 0.346,0.26 0.154,0.998 -0.284,0.14 -0.18,0.152 -0.12,0.2 -0.512,0.366 0.202,0.458 -0.15,0.19 -0.212,0.088 z m 45.35,-1.654 -0.488,0.176 0.326,-0.446 1.048,-1.012 0.376,0.188 0.5,0.036 -0.746,0.458 -0.76,0.19 -0.256,0.41 z m -70.836,-0.004 0.282,0.222 0.256,-0.02 0.536,-0.34 0.322,-0.124 0.346,-0.004 0.334,0.056 0.33,0.242 0.12,0.394 0.124,0.122 0.194,-0.472 0.258,-0.142 0.29,-0.072 0.454,0.026 0.346,0.226 0.314,0.67 -0.01,0.586 0.114,0.22 0.216,0.16 0.16,0.226 -0.142,0.236 -0.142,0.114 -0.406,0.108 -0.196,-0.046 -0.182,-0.16 -0.202,-0.058 -0.46,0.054 -0.424,0.132 0.058,0.214 0.348,0.096 0.104,0.102 -0.022,0.138 -0.136,0.028 -0.452,-0.186 -0.304,0.038 -1.096,0.252 -0.29,-0.006 -0.164,-0.238 0.012,-0.62 -0.118,-0.164 -0.814,0.752 -0.246,0.184 -0.328,0.086 -0.342,-0.03 -1.176,0.456 -0.37,-0.064 -0.358,0 -1.256,0.494 -0.674,0.138 -0.346,0.01 -0.344,-0.042 -0.308,0.044 -0.276,0.2 -0.56,0.168 -0.578,-0.128 -0.488,-0.17 -0.464,-0.224 -0.116,-0.288 0.024,-0.344 0.196,-0.47 -0.132,-0.826 0.102,-0.376 0.19,-0.37 0.288,-0.136 0.376,-0.028 0.622,-0.332 0.568,-0.436 0.328,0.042 0.748,0.304 0.438,0.036 0.744,-0.048 0.306,0.186 0.122,0.428 0.166,0.156 0.218,0.11 0.528,0.724 0.49,-0.038 0.428,0.132 0.756,-0.438 0.572,0.012 0.162,-0.34 -0.342,-0.364 -0.412,-0.294 -0.222,-0.062 -0.242,0.018 -0.216,-0.046 -0.922,-0.66 -0.274,-0.356 -0.156,-0.418 0.094,-0.31 0.634,-0.274 0.296,-0.066 1.102,0.188 0.188,0.156 0.292,0.66 0.212,0.284 z m -15.686,-0.916 0.57,0.298 0.794,0.876 0.074,0.246 -0.24,0.232 -0.568,0.372 -1.27,0.574 -0.218,0.27 -0.268,0.53 -0.062,0.226 -0.09,0.124 -0.146,0.09 -0.276,0.078 -0.3,-0.112 0.272,-0.34 0.01,-0.406 -0.202,-0.38 -0.286,-0.318 -0.576,-0.432 -0.618,-0.382 -0.624,-0.196 -0.662,-0.088 -0.238,-0.186 -0.388,-0.476 -0.126,-0.26 -0.064,-0.272 0.042,-0.264 0.164,-0.016 0.648,0.062 1.196,0.31 0.592,0.026 0.336,-0.072 0.876,-0.612 0.208,0.01 0.838,0.27 0.602,0.218 z m 80.778,-1.13 -0.332,0.518 -0.374,-0.034 -0.682,-0.694 0.04,-0.484 0.056,-0.158 0.262,-0.048 0.882,0.14 0.172,0.392 -0.024,0.368 z m -17.054,-1.614 0.076,0.274 -0.01,0.12 -0.672,0.088 -0.648,0.304 -0.332,0.35 -0.26,0.454 -0.892,-0.184 -0.796,-0.03 -0.352,-0.16 -0.382,0.01 -0.496,0.14 -0.706,0.384 -0.156,0.03 0.056,-0.584 0.196,-0.36 0.742,-0.862 0.618,0.19 0.718,0.054 0.818,-0.168 0.582,-0.388 0.822,-0.204 0.656,0.508 0.418,0.034 z m 3.474,-0.252 -0.362,0.132 0.112,-0.416 -0.024,-0.336 0.586,0.102 -0.006,0.268 -0.056,0.104 -0.25,0.146 z m 62.392,3.662 -1.342,0.742 -1.76,-0.13 -0.624,-0.012 -1.034,0.18 -0.208,-0.144 0.196,-0.698 0.826,-1.858 0.982,-1.636 0.418,-0.424 0.582,-0.398 0.618,-0.32 1.394,-0.332 1.268,0.06 0.182,0.136 0.546,0.544 0.354,0.43 0.148,0.608 -0.54,1.046 -0.602,0.998 -0.976,0.784 -0.428,0.424 z m -40.468,-1.544 -0.092,0.064 -0.698,-0.072 -0.398,-0.002 0.052,-0.426 -0.206,-0.32 0.282,-0.47 0.006,-0.544 0.292,-0.074 0.042,-0.31 0.352,-0.822 0.208,-0.182 0.292,-0.072 0.348,-0.48 0.198,-0.14 0.206,-0.364 0.294,-0.168 -0.024,-0.312 0.166,-0.164 0.464,-0.128 0.322,0.154 0.198,0.318 -0.518,0.392 0.266,0.966 -0.376,1.054 -0.246,0.316 -0.46,0.272 -0.138,0.258 -0.542,0.52 -0.164,0.444 -0.024,0.188 -0.102,0.104 z m 3.684,-4.486 -0.07,0.278 -0.24,-0.148 -0.236,-0.324 -0.346,-0.046 -0.256,-0.086 -0.15,-0.152 0.962,-0.07 0.336,0.548 z m -98.616,-0.386 -0.084,0.224 -0.286,-0.056 -0.27,-0.37 0.13,-0.096 0.15,-0.04 0.196,0.042 0.164,0.296 z m 80.028,0.282 -0.252,0.142 -0.42,-0.294 -0.116,-0.122 0.266,-0.288 0.284,-0.082 0.172,0.126 0.084,0.126 -0.036,0.138 0.018,0.254 z m -44.32,-0.362 -0.572,0.032 -0.178,-0.05 -0.042,-0.548 0.628,0.236 0.204,0.016 -0.04,0.314 z m -38.896,-0.076 -0.108,0.082 -0.954,-0.046 -0.614,0.458 -0.426,0.14 -1.528,0 -0.182,-0.062 -0.136,0 -0.082,0.092 -0.486,-0.07 -1.552,-0.406 -0.212,-0.376 0.24,-0.402 0.558,-0.57 1.118,-0.112 5.094,-0.04 0.554,0.49 0.052,0.166 -1.11,0.334 -0.226,0.322 z m 8.602,-0.758 -0.458,0.096 -0.424,-0.198 0.012,-0.266 0.104,-0.248 0.634,-0.128 0.34,0.008 0.364,0.17 0.254,0.178 0.124,0.208 -0.686,0.01 -0.264,0.17 z m 108.314,-1.24 -0.094,0.086 -0.146,-0.182 -0.014,-0.114 0.194,-0.31 0.192,-0.18 0.214,-0.014 -0.054,0.254 -0.292,0.46 z m -165.142,-0.614 -0.35,0.124 -0.268,-0.11 -0.12,-0.158 0.396,-0.388 0.188,-0.092 0.198,-0.03 0.094,0.21 -0.138,0.444 z m 165.376,-0.51 -0.31,0.052 -0.152,-0.458 0.256,-0.118 0.278,0.28 -0.072,0.244 z m 0.58,-0.648 -0.136,0.046 0.002,-0.276 0.154,-0.244 0.162,-0.14 0.192,-0.006 -0.374,0.62 z m -1.586,0.046 -0.092,0.396 -0.092,0.442 -0.514,0.496 -0.318,0.758 -0.186,0.19 -0.69,0.338 -0.614,-0.422 -0.178,-0.362 0.27,-1.672 0.264,0.056 0.172,-0.012 0.056,-0.11 -0.394,-0.188 -0.074,-0.96 0.02,-0.362 0.298,-0.082 0.372,0.282 0.468,0.502 0.546,0.396 0.686,0.314 z m -152.464,-2.438 0.566,0.64 0.494,0.342 0.584,0.186 0.614,0.018 0.604,0.082 0.704,0.244 0.722,0.112 0.336,-0.042 0.32,-0.126 0.226,-0.008 0.198,0.118 0.5,0.542 0.542,0.496 0.126,0.252 0.368,1.196 0.416,0.344 0.572,0.1 0.672,0 0.668,0.05 1.548,0.28 0.614,-0.04 0.544,-0.28 0.484,0.182 1.314,0.336 0.646,0.076 0.734,-0.096 0.736,-0.02 0.352,0.098 0.338,0.146 0.29,0.052 0.3,-0.002 0.532,-0.28 0.352,-0.514 0.286,-0.648 0.222,-0.676 0.15,-0.29 0.204,-0.256 0.266,-0.166 0.284,-0.104 0.772,0.064 0.16,0.164 0.864,1.146 0.152,0.1 0.9,0.072 0.25,-0.038 0.548,-0.23 0.314,-0.02 0.578,0.284 0.25,0.242 0.28,0.178 1.416,0.182 0.546,0.492 0.278,0.066 0.984,-0.06 0.682,0.048 0.592,0.132 0.27,0.698 0.218,0.716 0.126,0.244 0.58,0.246 0.236,0.222 -0.062,0.714 0.064,0.68 1.23,0.592 1.316,0.34 1.4,0.032 1.402,-0.118 0.722,-0.146 0.904,-0.252 0.188,0.004 1.75,0.778 0.15,0.12 0.196,0.582 -0.006,0.614 -0.326,1.458 -0.022,0.4 0.032,0.4 0.348,0.87 0.186,0.25 0.634,0.458 0.026,0.24 -0.088,0.24 -0.7,-0.164 -0.426,-0.198 -0.246,-0.328 -0.352,-0.186 -0.658,0.068 -1.23,-0.328 -1.39,-0.508 -2.464,-1.078 -0.672,0.008 -0.644,0.138 -0.68,0.274 -0.708,0.196 -0.52,0.074 -0.522,-0.054 -1.316,-0.258 -1.326,-0.168 -3.398,-0.106 -0.96,-0.246 -1.59,-0.124 -1.264,-0.212 -1.252,-0.296 -3.192,-1.458 -1.044,-0.366 -3.206,-0.696 -0.494,-0.056 -1.162,0.052 -0.732,-0.204 -0.644,-0.004 -0.958,0.226 -0.294,0.162 -0.372,0.342 -0.652,-0.016 -0.646,-0.066 -1.702,-0.328 -0.634,-0.202 -0.61,-0.298 -0.548,-0.388 -0.288,-0.138 -1.47,-0.396 -1.2,-0.136 -2.468,-0.18 -0.54,-0.12 -0.45,-0.144 -0.246,-0.32 0.032,-0.408 0.176,-0.352 0.242,-0.354 0.158,-0.338 -1.804,-0.708 -1.424,-0.386 -0.616,-0.074 -0.618,0 -0.696,0.08 -0.688,-0.038 -0.324,-0.116 -0.33,-0.04 -0.332,0.084 -0.266,-0.032 -0.068,-0.322 0.17,-0.274 0.348,-0.31 0.2,-0.054 0.09,0.486 0.1,0.096 0.308,0.106 0.134,-0.03 0.544,-0.62 0.152,-0.306 0.264,-0.826 0.288,0.16 0.288,-0.098 0.166,-0.132 0.458,-1.91 0.38,-0.558 0.52,-0.462 0.26,-0.114 0.51,0.284 1.034,0.108 0.614,0.188 0.616,0.024 0.602,0.092 0.838,0.336 0.296,-0.036 0.3,-0.104 0.45,-0.366 0.196,-0.584 0.648,0.296 0.954,0.118 0.232,0.176 z m 93.61,-0.19 -0.05,0.268 -0.206,-0.308 -0.188,-0.152 0.02,-0.332 0.266,0.124 0.158,0.4 z m -19.774,1.822 -0.23,0.934 -0.108,-0.33 -0.042,-0.854 -0.142,-0.416 0.09,-0.478 -0.03,-1.226 0.174,-0.566 0.32,0.72 0.084,0.366 -0.116,1.85 z m -43.832,-2.734 -0.12,0.2 -0.54,-0.016 -0.09,-0.224 0.352,-0.408 0.232,-0.026 0.208,0.15 -0.042,0.324 z m 112.752,0.222 -0.342,0.54 -0.232,-0.19 -0.13,-0.002 -0.08,-0.318 0.08,-0.656 -0.288,-0.738 0.378,0.01 0.106,0.22 0.12,0.074 0.374,0.712 0.014,0.348 z m 10.888,-0.806 -0.044,0.216 -0.004,0.398 0.094,0.37 -0.24,0.376 0.224,0.562 0.034,0.28 -0.014,0.396 -0.062,0.178 -0.17,0.52 -0.17,0.186 -0.128,0.052 -0.13,0.158 -1.104,-0.17 -0.476,-0.362 -0.426,-0.39 -0.09,-0.164 -0.5,-0.456 -0.116,-0.154 -0.01,-0.244 0.404,-0.062 0.432,0.008 -0.02,-0.218 0.25,-0.772 -0.656,-0.496 -0.116,-0.208 0.234,-0.14 0.528,0.172 0.646,-0.87 0.19,-0.182 0.092,-0.484 0.362,-0.062 0.256,0.062 0.166,0.302 0.066,0.262 -0.07,0.236 0.31,0.122 0.258,0.578 z m -10.218,1.094 -0.458,0.482 0.43,-1.136 0.09,-0.576 0.4,-0.342 0.594,-1.74 0.132,0.04 0.194,0.17 -0.298,1.276 -0.834,0.896 -0.25,0.93 z m -171.528,-2.372 -0.458,0.028 -0.844,-0.688 -0.138,-0.212 0.238,-0.204 0.254,0.014 0.972,0.434 0.19,0.214 -0.214,0.414 z m 119.328,-1.16 -0.022,0.568 -0.224,-0.032 -0.184,-0.2 -0.05,-0.188 0.01,-0.152 0.1,-0.12 0.37,0.124 z m -8.888,0.932 -0.358,0.15 -0.674,-0.64 -0.286,-0.528 0.068,-0.298 0.202,-0.26 0.096,-0.066 -0.042,-0.272 0.266,-0.132 0.292,0.018 0.192,0.366 0.23,0.1 0.118,0.35 -0.104,1.212 z m 3.378,-0.944 -0.144,0.372 -0.31,0.29 -0.248,0.022 -0.26,-0.06 -0.458,-0.252 -0.118,0.266 -0.362,-0.012 -0.132,-0.344 0.258,-1.018 0.376,-0.38 -0.036,-0.4 -0.312,-0.85 0.194,-0.444 0.874,-0.336 0.762,-0.41 0.234,-0.084 0.212,0.316 0.114,1.448 -0.818,1.146 0.174,0.73 z m 3.002,-4.02 0.13,1.204 -0.042,0.316 -0.316,-0.462 -0.114,-0.092 -0.088,0.092 -0.112,0.05 -0.16,-0.004 -0.208,0.466 -0.02,0.44 -0.158,0.294 -0.082,0.982 0.052,0.264 0.244,-0.13 0.15,-0.034 0.552,0.378 0.292,0.276 -0.082,0.334 -0.374,0.336 -0.434,0.146 -0.324,-0.144 -0.096,0.068 -0.192,0.172 -0.144,0.228 0.042,0.234 -0.37,0.666 -0.214,0.188 -0.444,-0.204 -0.274,0.174 -0.22,-0.016 -0.338,-0.666 0.01,-0.312 0.312,-0.35 0.002,-0.252 0.154,-0.282 0.344,-0.386 0.198,-0.292 0.006,-0.184 0.146,-0.7 0.056,-0.292 0.1,-0.31 0.156,-0.634 0.022,-1.192 0.526,-0.982 0.514,-0.268 0.204,-0.044 -0.032,0.262 0.626,0.662 z m 58.324,-1.706 0.288,0.298 -0.668,-0.234 -0.956,-0.49 -0.066,-0.328 0.804,0.496 0.598,0.258 z m -57.974,-0.744 -0.548,0.672 -0.382,-0.034 -0.458,-0.442 -0.132,-0.484 -0.012,-0.176 0.312,-0.274 1.05,0.092 0.198,0.244 -0.028,0.402 z m 29.864,-2.948 -0.958,0.292 0.206,-0.544 0.13,-0.144 0.474,0.148 0.148,0.248 z m -1.612,0.498 -0.144,0.204 -0.326,0.134 -0.272,-0.014 0.088,-0.196 -0.068,-0.114 -0.202,0.05 -0.33,0.158 -0.416,0.316 -0.244,-0.156 -0.052,-0.244 0.014,-0.112 0.498,-0.438 0.578,-0.076 0.814,-0.42 0.364,0.02 -0.086,0.266 -0.126,0.19 -0.076,0.2 -0.014,0.232 z m 2.508,-0.714 -0.012,0.236 -0.04,0.074 -0.306,-0.082 -0.218,0.004 -0.194,-0.426 0.054,-0.098 0.402,0.124 0.15,0.042 0.164,0.126 z m -69.03,-0.46 -0.206,0.962 -0.342,-0.546 0.384,-0.646 0.178,-0.13 -0.014,0.36 z m 62.766,-0.834 0.128,0.248 -0.55,-0.156 -0.244,-0.24 0.24,-0.15 0.134,-0.04 0.292,0.338 z m -63.442,3.09 -1.178,1.04 -0.196,-0.264 0.102,-1.058 -0.328,-0.658 0.022,-0.488 0.232,-0.864 0.302,-0.662 0.684,-0.442 0.17,-0.052 -0.042,0.802 0.136,0.302 0.048,0.258 -0.072,0.222 0.128,1.028 0.076,0.25 -0.166,0.324 0.082,0.262 z m 59.258,-4.358 0.924,0.436 0.208,0.284 0.166,0.338 0.182,0.186 0.216,0.152 0.36,0.294 0.094,0.448 -0.082,0.904 -0.418,0.08 -0.392,0.132 -0.808,0.524 -0.398,0.102 -0.426,0.036 -0.302,0.138 -0.302,0.054 -0.786,-0.29 -0.76,-0.34 -1.104,-0.59 -0.204,-0.144 -0.178,-0.316 -0.506,-0.568 -0.126,-0.364 -0.042,-1.036 0.132,-0.238 0.212,-0.126 0.738,0.24 0.486,-0.25 1.396,-0.212 1.422,0.022 0.298,0.104 z m 6.326,-0.846 -0.282,0.466 -0.494,-0.02 -0.086,-0.066 0.584,-0.292 0.278,-0.088 z m -118.442,0.384 -0.094,0.112 -0.31,-0.06 -0.226,-0.156 -0.14,-0.148 -0.036,-0.154 0.302,-0.19 0.638,0.196 -0.134,0.4 z m 3.294,-0.59 -0.226,0.144 -0.132,-0.138 -0.04,-0.154 0.096,-0.194 0.308,-0.018 0.142,0.058 -0.148,0.302 z m 125.064,-0.188 1.29,0.618 0.668,0.09 1.124,-0.08 0.424,0.06 1.072,0.79 0.312,0.542 0.09,0.468 0.166,0.444 0.264,0.112 0.31,0.042 0.404,0.64 0.08,0.208 -0.306,1.606 -1.262,-0.608 -1.218,-0.69 -0.526,-0.256 -1.404,-0.584 -0.214,-0.2 -0.158,-0.264 -0.612,-0.36 -1.22,-0.056 -0.458,0.01 -0.186,0.054 0.048,0.194 0.006,0.394 -0.302,0.108 -0.758,-0.248 -0.676,-0.09 -0.588,-0.244 -0.786,-0.128 -0.088,-0.122 0.068,-0.182 -0.036,-0.17 -0.182,-0.066 -0.354,0.032 -0.342,0.172 -0.284,0.194 -0.416,0.536 -0.212,0.206 -0.688,0.088 -0.286,-0.052 -0.262,-0.132 -0.782,-0.98 -0.264,-0.212 -0.294,-0.172 -0.272,-0.08 -0.282,0.15 -0.146,0.304 -0.066,0.362 -0.078,0.208 -0.338,0.58 -0.28,0.344 -0.1,-0.054 0.142,-0.552 0,-0.312 -0.172,-0.33 -0.11,-0.336 1.322,-1.606 0.478,-0.382 2.084,-0.132 1.238,0.082 0.676,-0.04 0.452,-0.118 0.374,0.056 0.094,0.316 0.234,0.234 0.326,-0.02 0.592,-0.248 0.514,-0.382 0.314,-0.166 0.32,-0.028 0.33,0.026 0.322,0.088 0.87,0.324 z m -164.626,1.77 0.224,0.814 -0.668,-0.554 0.014,-0.392 -0.092,-0.256 -0.404,-0.314 -0.312,-0.394 -0.14,-0.93 0.108,-0.194 0.264,-0.012 1.174,1.22 0.08,0.206 -0.026,0.436 -0.17,0.136 -0.052,0.234 z m 43.682,-1.034 -0.088,0.588 -0.136,0.222 -0.468,0.292 -0.16,0.178 -0.438,-0.028 -0.056,-0.308 -0.146,-0.208 -0.464,-0.24 -0.122,0.058 -0.084,0.358 -0.91,0.25 -0.254,0.022 0.126,-0.472 -0.236,-0.372 -0.018,-0.456 -0.044,-0.2 -0.114,-0.116 0.232,-0.318 -0.04,-0.354 0.246,-0.38 0.136,-0.922 0.962,-0.202 0.208,0.166 1.122,0.208 0.792,0.558 0.422,0.742 -0.468,0.934 z m -44.922,-1.434 -0.4,0.45 -0.66,-0.01 -0.13,-0.278 0.03,-0.672 -0.162,-0.22 0.006,-0.088 0.106,-0.382 0.134,-0.084 1.066,0.946 0.01,0.338 z m 191.796,-3.444 -0.164,0.084 -0.056,-0.242 0.088,-0.326 0.106,-0.052 0.122,0.016 0.158,0.118 -0.254,0.402 z m -193.822,1.224 0.028,0.148 -0.914,-0.49 -0.44,-0.136 -0.39,-0.536 0.122,-0.256 0.016,-0.36 0.058,-0.142 0.28,-0.052 0.364,0.262 0.272,0.638 0.454,0.594 0.15,0.33 z m 147.128,0.604 -0.096,0.102 -0.338,-0.302 -0.226,-0.852 -0.194,-0.226 -0.226,-0.81 0.058,-0.23 0.28,-0.34 0.224,0.004 0.166,0.202 -0.092,0.872 0.502,1.104 -0.058,0.476 z m -12.388,-2.766 0.1,0.224 -0.352,-0.006 -0.146,-0.422 0.036,-0.226 0.362,0.43 z m 12.214,-0.926 1.726,0.186 -0.244,0.202 -1.862,0.322 -0.66,-0.058 -2.02,0.19 -0.262,-0.012 -0.038,-0.312 -0.216,-0.218 0.322,-0.19 0.428,-0.044 1.12,0.072 1.706,-0.138 z m -16.12,0.15 -0.412,0.46 -0.044,-0.246 0.084,-0.224 0.116,-0.158 0.174,-0.078 0.082,0.246 z m 40.418,-0.702 0.068,0.332 0.334,0.306 -0.116,0.476 -0.132,0.072 0.07,0.216 0.144,0.166 -0.26,0.114 -0.19,-0.056 -0.306,0.154 -0.204,0.214 -0.642,0.09 -0.226,-0.198 -1.16,-0.234 -0.742,-0.512 -0.094,-0.154 1.438,-0.602 0.628,-0.16 0.528,0.01 0.664,-0.224 0.198,-0.01 z m -30.218,0.082 0.526,0.198 0.184,0 0.174,-0.232 0.108,-0.038 0.236,0.114 0.054,0.376 0.34,-0.052 0.264,0.128 0.084,0.09 -0.036,0.374 -1.006,0.066 -0.718,0.302 -0.966,-0.272 -1.096,0.466 -0.666,0.162 -0.578,-0.01 -0.494,-0.816 0.288,-0.956 0.208,-0.158 0.368,-0.084 1.016,-0.046 1.71,0.388 z m 58.962,-0.634 2.216,0.28 0.6,-0.036 1.266,0.108 1.056,0.372 1.846,0.068 0.55,0.112 0.426,0.256 -1.034,0.21 -0.486,0.198 -0.904,0.098 -0.756,-0.1 -0.55,0.118 -0.2,-0.192 -0.804,-0.196 -1.03,-0.402 -2.124,-0.466 -0.1,-0.292 0.028,-0.136 z m -148.862,0.156 -0.644,0.234 -0.194,-0.524 0.412,-0.156 0.448,0.136 -0.022,0.31 z m -16.32,0.278 0.194,0.384 0.264,0.346 0.194,0.374 0.266,1.794 0.88,1.542 2.542,0.606 -0.416,0.25 -0.212,0.224 -0.156,0.256 -0.374,1.07 0.036,0.228 0.22,0.362 0.052,0.394 -0.318,-0.002 -0.358,-0.088 -0.286,-0.148 -0.266,-0.194 -0.288,-0.154 -0.312,-0.1 -0.516,-0.306 -0.698,-0.216 -0.712,-0.17 -0.346,-0.454 -0.164,-0.56 0.176,-0.836 -0.178,-0.232 -0.254,-0.204 -0.312,-0.602 -0.118,-0.704 -0.452,-0.272 -0.596,-0.166 -0.262,-0.134 -1.178,0.258 -0.284,-0.06 -0.25,-0.196 -0.642,-0.206 0.026,-0.39 0.298,-0.312 0.702,-0.314 0.33,-0.264 0.064,-0.348 -0.124,-0.254 0.048,-0.266 0.222,-0.258 0.262,-0.202 0.708,-0.268 0.308,0.466 0.152,0.39 0.188,0.282 0.3,-0.404 -0.192,-0.696 0.538,-0.156 0.528,-0.006 0.398,0.192 0.26,0.3 0.108,0.424 z m 98.518,0.194 -0.386,0.036 -0.258,-0.164 0.024,-0.818 0.234,-0.178 0.114,0.03 0.07,0.244 0.118,0.218 0.192,0.204 -0.108,0.428 z m 25.57,-0.244 -0.344,0.226 -0.172,0.062 -0.828,-0.152 -0.968,0.032 -1.008,0.21 -0.582,-0.178 -0.37,-0.29 0.018,-0.306 0.346,-0.758 0.758,-0.574 0.308,-0.104 0.542,0.156 0.91,0.44 0.716,0.516 0.65,0.402 0.024,0.318 z m -27.732,-2.728 0.124,0.348 -0.204,0.302 0.222,0.566 0.566,-0.754 0.54,-0.096 0.306,0.126 0.21,0.15 0.116,0.286 -0.2,0.614 -0.354,0.288 -0.458,0.046 -0.216,-0.358 -0.3,-0.034 -0.21,0.78 -0.094,0.12 -0.268,0.098 -0.238,-0.214 -0.042,-0.12 0.338,-0.354 -0.184,-1.05 -0.254,0.198 -0.678,0.954 -0.528,0.426 -0.18,-0.216 -0.268,-0.648 0.122,-0.832 0.426,-0.562 0.362,0.038 1.042,-0.176 0.302,0.074 z m -75.786,0.052 -1.12,0.57 -0.264,-0.03 -0.2,-0.202 0.124,-1.1 0.144,-0.328 0.78,-0.036 0.474,0.158 0.248,0.178 0.096,0.368 -0.054,0.222 -0.228,0.2 z m 141.758,-0.36 -0.27,0.102 -0.312,-0.112 -0.296,-0.428 0.106,-0.328 0.346,-0.226 0.29,0.226 0.09,0.288 0.22,0.02 -0.174,0.458 z m -200.954,3.692 -0.518,0.03 -1.108,-0.668 -0.262,-0.3 -0.064,-0.4 -1.062,-1.544 -0.142,-0.354 0.418,-1.268 1.082,-0.306 0.358,0.214 0.126,0.57 0.62,1.028 0.204,0.554 0.154,0.246 0.064,0.192 -0.054,0.132 0.448,0.652 0.32,0.382 0.024,0.618 -0.608,0.222 z m 178.704,-2.58 -0.198,0.156 -0.682,-0.146 -0.354,-0.344 -0.24,-0.462 -0.154,-0.38 -0.042,-0.302 -0.204,-0.37 0.028,-0.134 1.258,-0.39 0.238,0.142 0.526,0.012 0.228,0.282 -0.156,1.226 -0.248,0.71 z m -0.54,-3 -0.144,0.284 -0.266,0.192 -2.414,0.34 0.208,-0.204 0.102,-0.202 0.152,-0.104 0.238,0.028 0.12,-0.062 0.122,-0.024 0.134,0.026 0.234,-0.084 0.492,0.06 0.508,-0.048 -0.038,-0.272 0.552,0.07 z m 25.132,-0.704 1.194,0.218 0.436,-0.012 0.426,0.246 0.518,-0.116 0.292,0.08 0.982,0.846 0.484,0.56 0.716,0.482 0.52,0.164 -0.39,0.44 -0.792,0.232 -0.304,0.012 -0.606,-0.262 -0.49,0.048 -0.428,-0.328 -0.074,-0.508 -0.442,-1.144 -0.568,0.328 -0.684,-0.528 -0.186,-0.012 -0.042,0.088 -0.29,-0.178 -0.248,-0.356 -0.024,-0.3 z m -45.366,0.724 -0.064,0.114 -0.586,-0.146 -0.158,-0.08 0.294,-0.79 0.276,0.024 0.242,0.752 -0.004,0.126 z m 18.67,-1.406 -0.322,0.006 -0.582,-0.242 0.338,-0.21 0.214,-0.044 0.188,-0.126 0.104,-0.006 0.23,0.108 0.152,0.182 -0.322,0.332 z m -49.184,-0.68 0.238,0.248 -0.142,0.286 -0.194,-0.072 -0.51,0.004 -0.192,0.022 -0.23,0.168 -0.144,0.006 0.098,-0.264 0.432,-0.4 0.27,0.06 0.374,-0.058 z m 65.158,1.78 1.408,0.084 0.71,-0.056 0.698,0.072 0.284,0.142 0.486,0.43 -0.138,0.282 -0.084,0.584 0.248,0.56 0.404,0.562 0.332,0.6 0.068,0.292 -0.126,0.62 -0.114,0.306 -0.402,0.512 -0.22,0.558 0.142,0.688 0.078,0.694 -0.014,0.636 0.072,0.626 0.218,0.636 0.94,1.74 0.548,1.18 0.176,-0.66 -0.044,-0.732 0.196,-0.264 0.274,-0.14 0.342,0.146 0.096,0.296 0.026,0.648 0.296,1.272 0.38,0.058 0.412,-0.194 0.068,0.388 -0.016,0.72 0.192,0.572 0.17,0.224 0.676,0.464 0.306,0.086 0.894,0.112 0.674,0.036 0.646,-0.166 0.416,-0.426 0.376,-0.462 1.298,-1.064 0.376,-0.51 0.362,-0.78 0.126,-0.166 1.292,-0.844 0.148,-0.3 0.184,-0.58 0.282,-0.56 0.21,-0.29 1.248,-0.274 1.294,-0.148 1.286,-0.516 0.554,-0.444 0.028,-0.292 -0.282,-0.512 -0.012,-0.226 0.296,-0.216 1.146,-0.65 1.324,-0.668 1.064,-0.46 0.588,0.004 0.542,0.406 0.578,0.332 3.026,0.976 0.484,0.304 0.422,0.404 0.606,0.28 0.676,0.134 0.614,0.262 0.582,0.336 1.288,0.628 1.728,0.762 0.442,0.044 1.608,-0.036 0.278,0.144 0.264,0.204 0.244,0.046 1.842,0.142 0.282,0.146 0.268,0.202 0.15,0.552 1.27,0.014 0,1.082 0,1.134 0.002,1.134 0,1.136 0,1.136 0.002,1.136 0,1.136 0,1.136 0,1.136 0,1.136 0.002,1.138 0,1.138 0,1.138 0,1.138 0,1.138 0.002,1.14 0,1.14 0,1.14 0,0.486 -0.174,0.596 -0.388,0.892 -0.068,0.722 0.32,0.562 0.312,0.366 0,0.94 0,1.142 0.002,1.144 0,1.144 0,1.144 0,1.144 0,1.146 0.002,1.146 0,1.146 0,1.146 0,1.148 0.002,0.074 -0.292,-0.19 -0.774,-0.628 -0.702,-0.716 -0.454,-0.668 -0.512,-0.608 -2.18,-1.802 -0.552,-0.592 -0.112,-0.164 0.052,-0.154 0.252,-0.312 0.446,-0.902 -0.466,0.558 -0.554,0.442 -0.808,0.028 -0.792,0.108 -0.734,0.266 -0.746,0.092 -0.374,-0.13 -0.224,-0.332 -0.118,-0.34 -0.052,-0.362 -0.314,0.584 -0.616,0.32 -0.842,0.674 -0.24,-0.14 -0.144,-0.256 -0.048,-0.266 0.162,-0.284 0.116,-0.3 0.17,-0.722 0.376,-0.426 0.24,-0.822 0.156,-0.292 0.08,-0.292 -0.218,-0.332 -0.37,-0.112 -0.254,-0.202 -0.292,-0.558 -0.184,-0.188 -0.334,-0.23 -0.256,-0.266 0.284,-0.202 0.374,-0.082 0.306,0.012 0.552,0.126 0.25,0.006 0.642,-0.206 -0.362,0.064 -0.358,-0.008 -1.14,-0.36 -0.706,-0.374 -0.666,-0.75 -0.008,-0.144 0.47,-0.136 1.014,-0.158 -0.314,-0.382 -0.458,-0.334 -0.16,-0.592 -0.312,-0.366 -0.676,-0.598 -0.466,-0.62 -0.394,-1.26 -0.404,-0.952 0.1,-0.344 0.34,-0.246 -0.516,-0.028 -0.466,-0.176 0.248,-0.462 0.54,-0.274 -0.492,0.07 -0.48,0.134 -0.218,0.026 -0.226,-0.042 -0.12,-0.186 -0.016,-0.264 0.07,-0.466 -0.082,-0.452 -0.426,-0.21 -0.354,-0.322 -0.2,-0.12 -0.26,0.008 -0.254,-0.216 -0.204,-0.312 -2.54,-1.354 -0.15,-0.386 -0.236,0.168 -0.234,0.084 -0.292,-0.222 -0.306,-0.148 -0.334,0.024 -0.308,-0.12 -0.324,-0.068 -0.338,-0.01 -1.334,-0.416 -1.264,-0.658 -1.03,-0.284 -0.634,-0.37 -0.66,-0.3 -1.476,-0.292 -1.496,-0.198 -0.542,-0.006 -0.454,0.064 -0.436,-0.014 -2.476,-1.428 -0.418,-0.65 0.04,-0.38 0.112,-0.314 1.01,-0.09 -0.71,-0.092 -0.292,0.042 -0.586,0.258 -0.316,0.018 -0.448,-0.172 -0.428,-0.216 -0.702,0.2 -0.358,-0.328 -0.124,-0.346 -0.188,-0.158 -0.264,0.016 -0.356,0.126 -0.354,-0.022 -0.228,-0.238 -0.164,-0.31 -0.242,-0.222 -0.292,-0.17 -0.48,-0.402 -0.25,-0.55 0.03,-0.95 0.076,-0.34 0.474,-0.554 0.336,-0.526 -0.416,-0.058 -0.376,0.242 -0.158,0.248 -0.064,0.3 -0.042,0.998 -0.302,0.29 -0.456,-0.024 0.134,0.584 -0.186,0.554 -0.53,0.652 -0.042,0.296 0.084,0.322 -0.12,0.316 -0.856,0.912 -0.286,0.044 -0.632,-0.006 -0.654,0.144 -0.304,-0.212 -0.248,-0.276 -0.186,-0.328 -0.26,-0.674 -0.208,-0.696 0.65,-0.852 -0.224,-0.77 -0.44,-0.662 -1.112,-0.916 -1.152,-0.87 -0.524,-0.176 -0.858,-0.078 -0.272,-0.084 -0.266,-0.326 -0.198,-0.376 0.538,-0.162 0.918,-0.442 0.522,0.022 1.416,0.24 0.434,0.218 0.404,0.128 0.966,-0.73 0.766,-0.954 0.478,-0.208 0.406,-0.07 0.414,0.092 0.822,0.332 0.646,0.156 0.46,0.03 0.24,0.298 0.272,0.134 0.062,-0.45 0.236,-0.52 0.458,-0.162 0.242,-0.038 0.152,-0.134 -0.034,-0.482 -0.606,-0.06 0.33,-0.414 0.294,-0.202 0.102,-0.202 0.006,-0.252 -1.186,0.486 -1.25,0.204 -0.738,-0.056 -0.736,-0.006 -1.472,0.324 -0.558,-0.012 -1.302,-0.132 -0.72,-0.158 -0.556,0.122 -0.538,0.01 -0.562,-0.372 -0.478,-0.464 -0.238,-0.33 -0.316,-0.24 -0.14,-0.322 -0.35,-1.212 -0.032,-0.868 -0.566,-0.016 -0.55,-0.086 -2.458,-0.824 -0.296,0.202 -0.346,0.104 -0.346,0.038 -0.342,-0.042 -0.342,-0.128 0.03,-0.228 0.252,-0.556 0.25,-0.206 0.344,-0.16 0.218,-0.296 0.356,-0.886 0.028,-0.302 -0.04,-0.308 0.03,-0.234 0.22,-0.122 0.926,-0.288 1.924,-0.436 0.486,-0.26 0.402,-0.416 0.468,-0.252 0.214,-0.256 0.248,-0.206 1.488,-0.55 0.642,-0.044 0.656,0.064 1.298,0.326 1.238,0.526 1.074,0.692 1.152,0.496 z m -162.768,-2.182 0.526,0.542 0.126,0.194 -0.26,0.3 -0.208,0.424 -0.12,0.09 -0.402,-0.162 -0.284,0.416 -0.188,-0.666 -0.408,-0.422 0.254,-0.432 0.092,-0.032 0.124,0.014 0.128,0.114 0.62,-0.38 z m 129.62,-0.088 0.648,0.834 -0.436,0.79 0.3,0.442 0.818,0.028 0.188,0.166 0.144,0.2 0.094,0.272 -0.212,0.218 -0.456,0.2 -0.526,-0.288 -0.138,-0.268 -0.108,-0.1 -0.708,0.204 -0.198,0.02 -0.136,-0.374 0.17,-0.536 -0.494,-0.242 -0.454,-0.554 -0.016,-0.222 0.182,-0.386 -0.024,-0.308 0.258,-0.024 0.472,0.416 0.204,-0.392 0.202,-0.164 0.226,0.068 z m -1.78,0.982 -0.352,0.144 -0.382,-0.002 -0.084,-0.594 0.126,-0.754 0.356,-0.128 0.562,0.16 -0.208,0.19 0.154,0.404 -0.172,0.58 z m -131.98,-0.82 -0.73,0.194 -0.814,-0.14 0.1,-0.334 0.392,-0.39 0.348,0.016 0.634,0.256 0.224,0.23 -0.154,0.168 z m 151.98,-1.918 0.972,0.238 0.22,-0.038 1.41,0.612 0.222,0.304 -0.078,0.206 0.208,0.276 -0.46,0.42 -0.222,0.046 -0.224,-0.158 -0.45,-0.088 -0.52,0.172 -0.33,-0.13 -0.28,-0.384 -0.496,-0.234 -0.702,-0.812 -0.344,0.03 0.09,0.318 0.298,0.21 0.392,0.618 0.226,0.06 0.232,-0.022 0.314,0.258 -0.016,0.398 -0.82,0.156 -0.284,-0.292 -0.062,-0.53 -0.46,0.178 -0.178,0.184 -0.134,0.026 -0.306,-0.552 -0.876,-0.03 -0.582,-0.292 0.288,-0.306 0.042,-0.296 0.378,-0.16 0.382,0.142 0.386,-0.214 0.274,0.054 0.202,-0.136 0.776,-0.086 0.512,-0.146 z m -181.602,2.934 -0.334,0.258 -0.506,-0.25 0.17,-0.358 0.082,-0.494 0.304,-0.392 0.102,-0.46 -0.584,-1.258 0.29,-0.042 0.23,0.136 0.386,0.836 0.336,0.502 -0.134,0.68 -0.342,0.842 z m 35.472,-1.976 0.162,0.092 0.2,-0.29 0.37,0.396 0.228,0.198 0.312,0.198 -0.306,0.008 -0.126,0.182 -0.08,0.036 -1.19,-0.638 -0.762,0.206 -0.522,-0.186 -0.148,-0.128 0.28,-0.35 0.258,-0.802 0.522,0.202 0.126,0.248 -0.032,0.074 0.342,0.15 0.366,0.404 z m 139.034,0.062 -0.244,0.016 -0.204,-0.326 -0.556,-0.362 -0.344,-0.624 1.308,1.03 0.04,0.266 z m -11.762,-1.01 -0.028,0.172 -0.174,-0.24 -0.118,-0.058 0.126,-0.6 0.066,-0.102 0.102,0.41 0.026,0.418 z m -127.774,-0.366 0.048,0.138 -0.264,-0.156 -0.16,-0.094 -0.108,-0.086 -0.584,-0.762 0.25,0.048 0.65,0.67 0.168,0.242 z m -7.886,-2.688 -0.63,0.032 -0.184,-0.072 0.078,-0.524 0.192,-0.316 0.286,0.006 0.318,0.472 -0.06,0.402 z m 135.472,-0.56 -0.202,0.062 -0.058,-0.022 -0.06,-0.224 0.112,-0.38 0.236,-0.004 0.1,0.062 0.02,0.28 -0.148,0.226 z m -0.266,-0.832 -0.192,0.184 -0.182,-0.062 -0.11,-0.236 0.036,-0.17 0.152,-0.11 0.19,0.082 0.106,0.312 z m -134.276,0.708 -0.116,0.076 -0.478,-0.708 0.12,-0.408 0.116,-0.104 0.264,0.25 0.208,0.26 0.152,0.31 -0.266,0.324 z m 2.126,-0.76 0.03,0.16 -0.514,-0.322 -0.014,-0.234 0.066,-0.108 0.306,0.25 0.126,0.254 z m 2.304,-0.186 -0.352,0.164 -0.442,-0.51 0.016,-0.118 0.042,-0.09 0.082,-0.058 0.268,0.264 0.318,0.094 0.068,0.254 z m -6.802,0.488 -0.106,0.214 -0.208,-0.158 -1.096,-0.24 -0.37,-0.026 -0.948,-0.264 -0.288,-0.14 -0.206,-0.184 0.07,-0.338 0.14,-0.204 0.084,-0.568 0.24,-0.232 0.47,0.422 0.522,0.364 0.302,0.166 0.922,0.372 0.326,0.186 0.146,0.63 z m 2.224,-1.682 0.034,0.306 -0.374,-0.074 -0.27,-0.36 0.222,-0.256 0.14,-0.092 0.14,0.34 0.108,0.136 z m -1.446,0.994 -0.164,0.16 -0.284,-0.038 -0.298,-0.188 -0.388,-0.338 -0.436,-0.302 -0.552,-0.19 -0.346,-0.058 -0.138,-0.07 0.132,-0.586 0.364,-0.036 1.176,0.544 0.38,0.296 0.554,0.806 z m 4.82,-1.732 0.356,0.244 0.292,-0.16 -0.012,0.208 -0.058,0.2 -0.344,0.574 -0.576,-0.132 -0.132,-0.186 -0.042,-0.138 0.084,-0.086 0.046,-0.282 0.248,0 0.138,-0.242 z m 3.146,-0.198 0.034,0.418 0.32,0.204 0.082,0.308 -0.056,0.494 -0.3,0.57 -0.134,0.15 -0.398,-0.116 -0.132,-0.19 -0.052,-0.148 0.056,-0.106 -0.294,-0.134 0.19,-0.218 -0.13,-0.306 -0.814,0.192 -0.236,0.006 -0.042,-0.348 0.034,-0.14 0.626,-0.44 0.374,-0.082 0.402,0.088 0.47,-0.202 z m -12.114,1.26 -0.26,0.168 -0.312,-0.264 -0.256,-0.382 -0.134,-0.398 -0.122,-0.652 -0.032,-0.468 0.156,-0.274 0.114,0.01 0.46,0.278 0.304,0.472 0.168,0.148 0.034,0.434 -0.112,0.496 -0.008,0.432 z m -27.76,-2.648 1.216,1.568 0.494,0.21 0.656,0.712 0.16,0.248 -0.166,0.5 -0.144,1.428 -0.314,0.356 -0.766,-0.176 -0.008,-0.25 -0.442,-1.076 -0.8,-0.6 -0.314,-0.032 -0.206,-0.614 -0.404,-0.726 -1.22,-1.328 0.926,0.01 0.45,-0.324 0.104,-0.258 0.074,-0.066 0.704,0.418 z m 28.124,0.032 0.042,0.716 -0.418,-0.188 -0.326,-0.284 -0.522,-0.21 -0.632,-0.068 -0.464,-0.186 -0.324,-0.332 -0.014,-0.154 0.032,-0.124 0.104,-0.098 2.398,0.644 0.124,0.284 z m 125.712,2.588 -1.07,0.946 -0.326,0.458 -0.286,0.492 -0.422,0.546 -0.484,0.482 -0.242,0.142 -0.598,0.26 -0.344,0.1 -0.648,0.034 -1.952,0.384 -0.64,0.044 -0.638,-0.016 -1.208,-0.096 -0.252,-0.05 -0.482,-0.496 -0.544,-0.392 -0.48,-0.042 -0.49,0.042 -3.53,0.028 -1.234,0.074 -1.228,0.174 -0.67,-0.08 -0.662,-0.196 -0.5,-0.07 -0.504,0.02 -2.316,0.296 -0.584,-0.028 -1.172,-0.378 -0.68,-0.076 -0.67,0.102 -0.622,0.34 -0.236,0.228 -0.644,0.78 -0.364,0.568 -0.278,0.708 -0.236,0.722 -0.126,0.592 -0.008,0.62 0.112,0.696 0.174,0.688 0.194,0.526 0.804,1.216 0.164,0.172 0.874,0.342 0.518,0.44 0.49,1.22 0.352,0.624 0.342,0.008 0.384,-0.044 0.668,0.08 0.66,0.16 0.644,-0.374 0.36,-0.708 0.362,-0.526 0.868,-1 0.494,-0.462 0.314,-0.152 0.322,0.066 0.272,0.264 0.316,0.21 0.648,0.114 0.654,-0.07 0.696,-0.326 0.25,-0.2 0.208,-0.252 0.59,-0.206 1.402,-0.002 0.722,0.074 1.292,-0.082 -0.018,-0.184 -0.25,-0.196 -0.064,-0.158 0.24,-0.102 0.832,-0.228 0.848,-0.162 0.618,0.116 0.55,0.318 0.212,0.328 0.094,0.394 -0.212,1.022 -0.104,0.238 -0.44,0.122 -0.414,-0.136 -0.41,-0.528 -0.58,-0.194 -0.822,0.16 -0.284,0.152 -0.252,0.21 -0.464,0.548 -0.386,0.618 -0.838,0.962 -0.966,0.836 -0.468,0.32 -0.524,0.214 -1.678,0.554 -0.442,0.412 -0.344,0.534 -0.38,0.182 -0.44,0.058 -0.33,-0.1 -0.668,-0.302 -0.22,0.248 -0.038,0.378 0.328,0.134 0.532,0.418 0.41,0.59 0.262,0.126 0.586,0.192 0.246,0.184 0.44,0.506 0.694,1.176 0.236,0.636 0.386,0.52 1.172,0.882 0.066,0.25 -0.072,0.292 0.09,0.264 0.42,0.506 0.1,0.328 -0.458,0.416 -0.026,0.6 -0.282,0.808 -0.062,0.272 0.008,0.248 0.198,0.23 0.23,0.182 0.316,0.096 0.276,0.158 0.532,0.63 0.278,0.166 0.176,0.23 -0.018,0.342 0.242,0.2 0.222,0.358 0.342,0.086 0.158,-0.102 0.11,-0.154 0.28,0.058 0.164,0.25 0.096,0.32 0.032,0.352 -0.014,0.668 -0.14,0.24 -0.306,-0.012 -0.55,-0.276 -0.026,0.2 0.038,0.192 -0.28,0.064 -0.32,-0.028 -0.804,0.026 -1.484,0.416 -0.52,0.246 -0.338,0.446 -0.024,0.31 0.13,0.65 -0.198,0.228 -0.68,0.086 -0.95,-0.174 -0.574,-0.174 -0.32,-0.146 -0.416,-0.438 -0.158,-0.56 0.308,-1.666 0.086,-0.214 0.15,-0.19 0.158,-0.302 0.038,-0.356 -0.454,-0.434 -0.684,-0.172 -0.578,-0.362 -2.236,-2.032 -0.126,-0.196 -0.004,-0.336 0.09,-0.314 0.734,-1.11 0.094,-0.212 0.09,-0.876 -0.022,-0.722 -0.082,-0.722 -0.348,-0.454 -0.622,-0.138 -0.642,-0.022 -0.626,0.144 -0.616,0.364 -1.136,0.764 -0.452,0.446 -0.04,0.578 0.26,0.566 0.336,0.516 0.18,0.566 0.248,2.006 -0.008,0.226 -0.292,0.584 -0.116,1.304 0.126,1.842 0.2,1.13 -0.086,0.614 -0.532,1.32 -0.162,0.724 -0.012,0.298 0.626,1.38 0.144,0.546 0.076,0.566 -0.666,-0.278 -0.308,0.014 -0.314,0.084 -0.694,0.09 -0.706,0.012 -0.246,0.104 -0.5,0.368 -0.304,0.148 -0.264,0.028 -0.896,-0.46 -0.53,-0.5 -0.488,-0.542 -0.09,-0.62 0.17,-0.636 0.242,-0.68 0.482,-1.13 -0.024,-0.758 0.166,-0.622 0.276,-0.602 0.1,-0.556 0.066,-2.176 -0.068,-0.194 -0.662,-1.292 -0.076,-0.216 -0.004,-0.348 0.072,-0.334 0.014,-0.298 -0.152,-0.23 -0.268,-0.21 -0.324,-0.092 -0.686,0.09 -1.376,0.348 -0.406,-0.306 -0.304,-0.472 -0.198,-0.66 -0.114,-0.69 0.052,-0.648 0.204,-0.626 -0.164,-0.438 -0.254,-0.476 -0.002,-0.246 0.144,-0.214 0.248,-0.18 0.304,-0.104 0.284,-0.19 0.754,-0.638 0.24,-0.562 0.018,-0.692 0.192,-0.66 0.384,-0.61 0.456,-0.564 0.146,-0.582 -0.222,-0.924 0.088,-0.42 -0.076,-0.494 -0.008,-0.488 0.282,-0.918 0.836,-1.878 0.816,-0.998 0.324,-0.262 0.424,0.464 0.322,0.546 0.006,-0.494 -0.096,-0.474 -0.324,-1.13 -0.282,-2.204 0.078,-0.208 0.286,0.034 0.292,-0.194 0.152,-0.346 -0.302,-0.818 -0.014,-0.29 0.584,-1.15 0.476,-0.418 0.208,-0.258 0.12,-0.702 0.248,-0.264 0.312,-0.19 0.412,-0.486 0.222,-0.612 0.136,-0.046 0.16,-0.022 0.248,0.534 0.278,0.216 0.564,0.174 0.482,-0.206 0.134,-0.268 0.182,-0.23 0.292,-0.24 0.246,-0.274 0.274,-0.634 0.362,-0.578 0.248,-0.202 0.298,-0.126 0.332,-0.078 0.32,-0.01 0.71,0.362 0.412,0.072 0.422,-0.026 0.266,0.06 0.202,0.164 0.184,0.328 0.226,0.284 0.21,0.14 0.23,0.066 1.546,-0.116 1.352,0.32 1.844,0.072 0.632,0.188 0.608,0.246 0.742,0.432 0.272,0.096 0.304,-0.024 0.378,-0.408 0.296,-0.088 0.3,-0.016 1.188,0.076 3.192,0.5 0.472,-0.068 1.924,-0.958 0.772,-0.908 0.69,-0.252 0.232,-0.412 0.14,-0.492 0.244,-0.132 0.578,-0.14 0.228,-0.146 0.41,-0.606 0.484,-0.536 0.238,-0.162 0.684,0.086 0.302,0.234 0.384,0.788 -0.066,0.132 -0.454,0.392 -0.132,0.166 -0.502,1.108 -0.344,0.544 -0.428,0.486 z m -130.11,-6.042 0.302,0.458 0.064,0.296 -0.222,0.34 -0.082,0.522 -0.654,0.41 -0.572,-0.098 -0.186,-0.146 -0.362,-0.792 0.036,-0.672 0.226,-0.256 0.532,0.04 0.54,-0.368 0.378,0.266 z m 146.074,6.862 0.408,0.124 0.424,-0.034 0.21,-0.25 0.058,-0.324 0.214,-0.602 0.494,-0.408 0.346,-0.064 0.246,-0.172 -0.042,-0.446 0.026,-0.438 0.366,-0.468 1.13,-0.652 0.646,-0.232 0.838,-0.074 0.094,0.25 -0.096,0.356 0.162,0.538 -0.08,1.456 -0.192,0.206 -0.866,0.502 -0.946,0.402 -0.266,0.168 -0.234,0.4 0.02,0.398 0.772,0.53 1.198,0.496 0.246,0.232 0.16,0.39 0.044,0.436 0.29,0.208 0.406,0.1 0.268,0.206 0.204,0.29 -2.016,-0.678 -0.528,-0.298 -0.636,-0.036 -0.63,-0.09 -0.642,-0.26 -0.69,-0.062 -0.33,0.188 -0.128,0.368 -0.078,0.412 0.152,0.512 -0.014,0.312 -0.13,0.562 0.5,1.662 0.626,1.32 0.922,1.374 0.456,0.472 0.51,0.426 -0.828,-0.126 -0.25,-0.458 -1.048,-0.456 -0.202,-0.272 -0.684,-1.304 -0.2,-0.244 -0.63,-0.444 -0.278,-0.326 -0.094,-0.44 0.07,-0.462 -0.036,-0.64 0.024,-0.636 0.13,-0.776 -0.226,-0.274 -0.294,-0.256 -0.342,-0.594 -0.102,-0.676 0.028,-0.388 0.14,-0.344 0.19,-0.298 0.042,-0.292 -0.492,-0.422 -0.516,-1.204 -0.046,-0.624 0.656,-1.202 -0.014,-0.584 0.13,-0.346 0.07,-0.368 0.344,-0.8 0.558,-0.682 0.948,-0.956 0.36,-0.208 0.406,-0.136 0.036,0.234 -0.064,0.208 -0.7,0.972 -0.094,0.22 -0.018,0.408 0.334,0.242 0.364,0.494 0.07,0.656 0.014,0.7 -0.08,0.704 -0.134,0.236 -0.574,0.708 -1.306,0.83 -0.112,0.206 0.01,0.228 0.24,0.276 0.308,0.208 z m -170.628,-6.846 -0.032,0.126 -0.58,-0.586 -0.656,-0.326 0.272,-0.084 0.542,0.09 0.216,0.084 0.208,0.292 0.03,0.404 z m 174.676,0.132 -0.888,0.096 -0.202,-0.266 -0.234,-1.2 0.63,-0.96 0.794,-0.564 0.542,-0.142 0.19,-0.008 0.484,0.692 -0.368,1.39 -0.424,0.71 -0.524,0.252 z m -17.1,-3.346 -0.058,0.124 -0.208,-0.654 0.174,-0.328 0.25,0.12 0.062,0.116 -0.238,0.312 0.018,0.31 z m -162.46,1.626 -0.352,0.052 -0.34,-0.12 -0.282,-0.32 -1.508,-0.928 -0.468,-0.014 -0.328,-0.238 -0.4,-0.082 -0.424,-0.62 -0.09,-0.332 0.308,-0.162 0.194,-0.34 0.502,0.15 0.572,0.6 0.582,0.224 0.158,0.114 0.284,0.332 1.33,0.816 0.144,0.278 0.092,0.278 0.026,0.312 z m 69.734,-3.044 -0.274,0.292 -0.292,-0.182 0.452,-0.592 0.106,-0.04 0.008,0.522 z m -17.552,0.238 -0.234,0.022 -0.07,-0.166 0.01,-0.286 -0.02,-0.228 -0.068,-0.17 0,-0.286 0.216,0.142 0.166,0.134 0.192,0.096 0.156,0.064 0.082,0.044 -0.154,0.404 -0.276,0.23 z m 2.944,-1.642 -0.008,0.384 -0.388,-0.226 -0.076,-0.426 0.128,-0.138 0.266,0.074 0.078,0.332 z m 63.838,-0.69 -0.07,0.184 -0.48,-0.45 -0.126,-0.326 0.058,-0.254 0.498,-0.022 0.248,0.16 -0.128,0.708 z m 44.902,-0.868 -0.14,0.17 -0.682,-0.312 0.034,-0.494 -0.092,-0.244 -0.184,-0.256 -0.074,-0.25 0.076,-0.274 0.42,0.35 0.236,0.556 0.324,0.528 0.082,0.226 z m 6.702,-1.858 -0.092,0.064 -0.202,-0.15 -0.126,-0.166 0.008,-0.166 0.144,-0.084 0.292,0.254 0.006,0.14 -0.03,0.108 z m -0.744,-0.592 0.014,0.236 -0.34,-0.536 -0.132,-0.634 0.27,0.226 0.302,0.468 -0.114,0.24 z m -49.59,-1.742 0.188,0.534 0.028,0.204 -1.042,0.28 -0.628,-0.656 0.134,-0.266 0.542,0.012 0.778,-0.108 z m -53.706,2.774 -0.768,0.206 -0.444,-0.288 0.48,-0.354 0.17,-0.024 0.112,-0.07 0.04,-0.144 -0.868,-0.234 -0.248,-0.206 -0.236,-0.524 0.006,-0.334 1.116,-0.882 0.26,-0.094 0.042,0.366 0.77,0.924 0.034,0.616 -0.03,0.222 -0.436,0.82 z m 46.234,-3.746 0.202,0.12 0.28,-0.004 0.332,-0.088 0.816,0.084 1.444,0.018 0.994,0.21 0.972,0.594 0.484,0.12 0.208,0.004 -0.046,0.046 -0.384,0.162 -0.182,0.32 0.53,0.49 0.036,0.326 0.41,0.292 0.502,0.454 0.02,0.148 0.17,0.204 0.086,0.25 -0.354,0.248 -0.474,0.046 -0.352,-0.234 -0.322,-0.292 -0.084,0.362 -0.25,0.208 -0.912,-0.06 -0.652,0.002 -0.648,0.09 0.324,0.056 0.294,0.116 1.01,0.924 0.216,0.342 -0.354,0.68 0.172,0.278 0.39,0.16 0.476,0.338 0.338,0.034 0.244,0.192 0.01,0.332 0.142,0.3 -0.384,0.122 0.38,0.08 0.34,0.154 -0.186,0.156 -0.144,0.19 0.156,0.102 0.466,0.174 0.204,0.162 0.106,0.434 0.456,0.71 0.832,0.916 0.182,0.334 -0.002,0.308 -0.138,0.264 -0.474,0.308 -0.378,0.408 -0.046,0.148 -0.516,0.188 0.236,0.138 0.188,0.188 0.358,0.566 0.854,0.92 0.43,0.344 1.766,1.248 0.94,0.544 1.2,1.244 0.622,0.288 0.122,0.346 -0.52,0.532 -0.756,0.266 -1.25,0.142 -1.254,-0.186 -0.648,-0.152 -0.564,-0.306 -0.444,-0.614 -0.588,-0.332 0.226,0.372 0.142,0.38 -0.074,0.414 -0.23,0.324 -0.396,0.238 -0.424,0.194 -0.18,0.136 -1.076,2.166 -0.174,0.586 -0.328,2.432 -0.006,0.688 0.484,1.286 0.042,0.674 0.096,0.292 -0.064,0.242 -0.228,0.144 -0.924,0.392 -0.652,0.326 -0.53,0.464 -0.428,0.578 -0.376,0.418 -0.5,0.2 -0.364,-0.03 -0.292,-0.192 -0.206,-0.372 -0.118,-0.406 -0.076,0.3 0.014,0.294 0.172,0.314 0.066,0.332 -0.1,0.338 -0.214,0.27 -0.58,0.294 -0.32,0.252 -0.062,0.446 -0.154,0.25 -0.222,0.194 -0.818,0.444 -0.184,0.178 -0.134,0.226 0.436,-0.036 0.4,0.036 0.03,0.442 0.126,0.33 -0.16,0.722 -0.616,0.488 0.308,0.102 0.278,0.16 0.618,0.118 0.208,0.512 -0.092,0.62 -0.112,0.556 -0.444,0.154 -0.276,-0.102 -0.274,0.01 -0.202,0.168 -0.052,0.288 0.382,-0.142 -0.022,0.72 -0.104,0.702 -0.126,0.388 -0.234,0.316 -0.354,0.102 -0.334,-0.238 -0.068,0.276 0.102,0.232 0.476,0.564 -0.292,0.124 -0.212,0.192 -0.096,0.28 -0.518,0.642 -0.23,0.472 -0.098,0.504 -0.242,0.4 -3.918,1.744 -3.17,1.468 -0.228,-0.1 -0.154,-0.224 -0.108,-2.282 -0.392,-1.166 -0.058,-0.658 -0.448,0.586 -0.274,-0.06 -0.296,-0.15 -0.222,-0.192 -0.018,-0.252 0.24,-0.724 -0.29,0.398 -0.316,0.306 -0.328,-0.038 -0.284,-0.152 -0.104,-0.236 -0.15,-0.036 -0.694,0.644 -0.914,0.346 -0.51,-0.006 -0.4,-0.198 0.02,-0.492 -0.042,-0.48 -0.112,-0.282 -0.246,-0.102 -0.226,0.036 -0.656,0.25 -0.234,-0.03 -0.134,0.126 -1.736,-1.748 -0.35,1.416 -1.2,0.752 -0.884,0.438 -0.878,-0.164 -0.89,-0.28 -0.888,0.338 -0.964,0.828 -0.266,0.126 -0.278,-0.002 -0.204,-0.108 0.07,-0.628 0.008,-0.628 -0.072,-1.398 -0.076,-0.276 -0.278,-0.384 -0.368,-0.278 -0.204,0.202 -0.186,0.278 -0.732,-0.012 -0.714,-0.222 -0.608,0.126 -1.208,0.554 -0.64,0.086 -0.344,-0.126 -0.22,-0.298 0.126,-0.274 0.266,-0.21 -0.496,0.166 -0.422,0.28 -0.184,0.18 -0.198,-0.09 -0.528,-0.632 -1.104,0.236 -0.148,0.072 -0.272,0.216 -0.262,-0.108 -0.13,-0.23 -0.046,-1.32 -0.562,-2.538 -0.154,-1.296 -0.124,-0.306 -0.644,-0.466 0.022,-0.668 0.336,-0.56 0.07,-0.652 -0.096,-0.708 -0.202,-0.692 -0.254,-0.522 -0.364,-0.446 -0.482,-0.5 -0.594,-0.374 -1.28,-0.42 -0.674,0.038 -0.252,-0.166 -0.168,-0.214 0.068,-0.42 0.228,-0.288 0.306,-0.072 0.038,-0.164 -0.65,-0.338 -0.542,-0.46 -0.17,-0.276 -0.052,-0.304 0.004,-0.702 0.156,-0.444 0.086,-0.24 0.166,-0.742 0.354,-0.226 -0.056,-0.136 -0.152,-0.102 -0.22,-0.244 -0.182,-0.28 -0.414,-0.476 -0.73,-0.572 -0.124,-0.988 -0.094,-1.456 0.06,-0.662 0.234,-1.238 0.406,-0.39 0.322,-0.108 0.242,-0.166 -0.2,-0.024 -0.172,0.062 -0.308,0.042 0.254,-1.108 0.114,-0.32 0.51,-0.62 0.598,-0.548 0.252,-0.646 0.34,-0.566 1.406,-0.584 -0.506,0.732 0.056,0.266 0.124,0.236 0.364,0.166 0.104,0.902 0.458,0.512 0.46,0.468 0.34,0.23 0.374,0.334 0.262,0.31 0.276,0.26 0.416,0.254 1.126,1.082 0.47,0.318 0.35,0.318 0.248,0.112 0.614,-0.09 1.814,-0.776 0.326,-0.05 0.59,-0.134 1.042,0.042 1.102,0.264 0.358,0.008 0.34,-0.158 0.472,0.046 0.44,0.082 0.22,-0.068 0.64,-0.566 0.872,-0.168 0.282,-0.56 0.218,-0.528 0.104,-0.562 0.364,-0.226 0.51,-0.196 0.756,-0.248 2.622,-0.044 0.254,0.108 0.054,0.288 -0.054,0.218 0.104,0.13 0.348,0.012 0.322,0.132 1.306,0.452 0.556,0.14 0.31,-0.036 0.612,0.404 0.334,-0.138 0.442,-0.284 0.42,-0.382 0.376,-0.302 0.546,-0.118 0.708,0.016 0.836,-0.104 0.63,-0.162 0.704,0.268 0.188,-0.084 0.122,-0.262 0.364,-0.574 0.162,-0.386 0.14,-0.74 0.098,-0.176 0.268,-0.102 0.274,-0.14 0.072,-0.222 0.1,-0.258 -0.082,-0.216 -0.156,-0.182 -0.164,-0.618 0.052,-0.282 0.102,-0.21 0.282,-0.106 0.744,-0.454 0.66,-0.532 0.362,-0.26 0.158,-0.168 0.01,-0.244 -0.288,-0.254 -0.276,-0.122 -0.02,-0.294 0.01,-0.204 0.084,-0.192 -0.042,-0.186 -0.002,-0.278 0.176,-0.3 0.406,-0.444 0.32,-0.288 0.356,0.178 0.414,-0.082 0.394,-0.144 0.218,-0.524 0.034,-0.25 -0.052,-0.2 0.136,-0.746 0.034,-0.108 0.258,-0.47 0.026,-0.316 -0.146,-0.734 0.092,-0.556 0.042,-1.15 0.154,-0.206 0.178,-0.596 0.288,-0.622 0.582,-0.338 0.304,-0.444 0.134,-0.084 0.2,-0.004 0.704,0.324 0.632,-0.36 0.572,-0.042 0.472,0.048 0.266,0.148 0.262,0.106 0.564,-0.35 0.212,0.078 z m 57.606,1.826 -0.226,0.116 -0.364,-0.042 -0.04,-0.284 0.37,-0.51 0.244,-0.538 -0.26,-0.134 -0.254,-0.344 -0.01,-0.4 0.208,-0.74 0.308,0.06 0.296,0.32 0.122,0.6 0.194,0.456 -0.412,0.62 -0.176,0.82 z m -170.206,-6.69 0.688,0.05 1.278,-0.304 0.702,0.03 0.662,0.22 0.588,0.126 1.464,-0.162 0.276,0.042 0.264,0.126 0.224,0.2 0.67,0.728 1.132,0.896 0.326,0.574 0.186,0.646 0.118,0.15 1.28,1.234 0.138,0.516 -0.18,0.714 0.372,0.568 1.24,0.534 0.732,0.388 0.156,0.238 0.108,0.284 0.406,0.42 0.508,0.274 1.586,0.722 2.08,1.508 1.182,0.716 0.978,1.088 0.354,0.52 0.292,0.562 0.594,0.818 1.01,1.01 0.256,0.308 0.272,0.446 0.314,0.414 0.376,0.38 0.448,0.292 0.458,0.094 0.738,0.73 0.398,0.228 -0.062,-0.572 -0.336,-0.5 0.006,-0.3 0.058,-0.27 0.274,-0.226 0.33,-0.064 0.62,0.208 1.006,0.866 0.424,0.504 0.318,0.696 0.268,0.722 0.4,0.36 0.552,0.126 0.614,0.052 0.564,0.222 1.32,1 0.438,0.47 0.332,0.552 0.228,0.654 0.142,0.686 0.088,0.158 0.848,0.828 0.446,0.35 0.544,0.17 1.59,0.186 0.558,0.286 0.464,0.476 0.194,0.484 -0.33,0.428 -1.242,0.656 -1.326,0.454 1.29,-0.156 0.652,-0.19 0.6,-0.296 0.594,-0.378 0.944,-0.528 0.35,-0.108 0.412,0.038 0.374,0.15 0.56,0.518 0.528,0.548 0.394,0.638 0.246,0.71 -0.452,0.372 -0.656,0.274 -0.902,0.686 -0.096,0.272 0.186,0.174 -0.22,0.504 0.506,0.312 0.076,0.264 -0.438,0.378 0.042,0.234 0.528,1 0.252,0.228 0.806,0.508 1.228,0.514 0.68,0.236 0.772,0.182 0.33,-0.004 0.578,-0.084 0.118,0.2 0.248,0.984 0.12,0.624 0.178,1.326 0.224,0.55 -0.014,0.672 0.294,0.572 0.606,0.366 0.642,0.298 0.304,0.292 -0.004,0.44 -0.104,0.348 -0.216,0.27 -0.668,0.574 -0.12,0.248 -0.094,0.632 0.114,0.29 0.268,0.016 0.208,-0.152 0.8,-0.848 0.216,-0.148 0.302,-0.12 0.308,-0.076 1.462,-0.006 0.622,0.134 0.55,0.276 0.486,0.346 1.782,2.21 0.814,1.22 0.064,0.304 0.014,0.316 -0.138,0.244 -0.74,0.834 -0.094,0.23 -0.23,0.908 0.042,0.654 0.246,0.274 0.198,0.298 -0.016,0.27 -0.488,1.344 -0.05,0.23 0.308,2.186 0.022,0.592 -0.062,0.75 0.044,1.208 -0.4,3.736 -0.074,0.222 -0.306,0.572 -0.402,-0.004 -0.326,-0.1 -0.226,-0.218 -0.126,-0.27 -0.184,-0.222 -0.972,-0.69 -0.254,0.114 -0.988,0.856 -0.262,0.126 -0.33,-0.104 -0.52,-0.256 -1.63,-0.9 -0.1,0.288 -0.022,0.39 0.324,0.98 0.046,0.428 -0.296,0.084 -0.166,-0.018 -0.678,-0.568 -0.626,-0.63 -0.71,-0.852 -0.52,-0.404 -0.468,-0.452 -1.32,-1.716 -0.344,-0.262 -2.046,-1.21 -0.412,-0.288 -0.524,-0.5 -0.562,-0.446 -1.234,-0.702 -2.14,-1.78 -0.93,-1.022 -1.034,-1.648 -0.338,-0.42 -1.738,-1.236 -0.948,-0.748 -0.396,-0.43 -0.922,-1.498 -0.27,-0.504 -0.34,-0.446 -0.558,-0.362 -0.492,-0.424 -0.976,-1.354 -0.308,-0.54 -0.232,-0.584 0.042,-1.17 -2.07,-3.542 -0.52,-1.104 -0.482,-1.532 -0.106,-0.154 -1.13,-1.372 -0.398,-0.44 -0.484,-0.412 -0.394,-0.482 -0.78,-1.566 -0.29,-0.434 -0.406,-0.32 -1.476,-0.592 -0.55,-0.33 -0.434,-0.468 -0.266,-0.598 -0.292,-1.268 -0.698,-1.926 -0.78,-2.58 -0.528,-1.156 -0.602,-0.908 -0.176,-0.21 -2.68,-1.634 -0.458,-0.242 -0.486,-0.144 -0.694,-0.104 -0.53,-0.422 -0.216,-0.758 -0.122,-1.016 -0.132,-0.606 -0.146,-0.344 -1.12,-0.718 -0.44,-0.568 -0.366,-0.626 -0.334,-0.484 -1.232,-1.672 -0.422,-0.438 -0.522,-0.306 -1.546,-0.324 -0.454,-0.278 -0.75,-0.95 -0.454,-0.484 -1.36,-1.066 -2.298,-2.23 -0.47,-0.556 -0.352,-0.58 -0.286,-0.622 -0.98,-1.724 0.08,-0.348 0.146,-0.362 -0.022,-0.3 -0.108,-0.296 0.022,-0.266 0.292,-0.158 0.654,-0.202 0.678,0.024 0.628,0.086 0.608,0.166 0.584,0.362 1.044,0.916 0.594,0.318 0.66,0.154 1.356,0.212 z m -6.346,-3.266 -0.11,0.158 -0.334,-0.082 -0.368,-0.51 0.136,-0.098 0.226,0.052 0.432,0.118 0.038,0.19 -0.02,0.172 z" title="Indonesia" id="ID"></path></svg>