<svg xmlns="http://www.w3.org/2000/svg" viewBox="0 0 24.49 36.61"><path d="m 17.8,2.68 -0.888,0.628 -0.138,0.238 -0.25,0.958 -0.03,0.272 -0.286,0.502 -0.27,0.558 -0.314,0.216 -0.468,0.172 -0.266,0.17 -0.336,-0.086 -0.424,0.014 -0.212,0.19 0.01,0.146 0.126,0.166 0.372,0.256 0.414,0.23 -0.046,0.202 -0.222,0.228 -1.406,0.568 -0.418,0.342 -0.146,0.226 0.15,0.378 1.122,1.13 0.19,0.124 0.166,0.658 0.99,0.274 0.406,0.41 0.348,0.098 0.758,-0.036 0.304,0.154 0.172,-0.118 0.1,-0.216 0.638,-0.556 0.21,-0.244 -0.126,-0.338 -0.136,-0.258 0.388,-0.514 0.47,-0.508 0.236,0.016 0.402,0.312 0.332,0.434 0.044,0.336 0.062,0.244 0.314,0.52 0.202,0.18 0.544,0.104 0.128,0.204 -0.098,0.752 0.082,0.25 0.57,0.012 0.606,-0.06 0.212,0.028 0.218,-0.158 0.336,-0.17 0.482,0.058 0.236,0.336 0.106,0.346 -0.414,0.13 -0.432,-0.07 -0.21,0.226 -0.014,0.436 0.146,0.562 0.29,0.398 0.23,0.896 0.192,0.992 0.296,0.598 0.062,0.74 -0.044,0.364 0.054,0.654 -0.126,0.23 0.094,0.612 0.35,1.262 0.154,0.702 0.098,1.528 -0.248,0.57 -0.332,0.542 -0.218,0.64 -0.166,0.69 -0.102,1.11 -0.72,1.296 -0.306,0.322 -0.356,0.198 0.776,0.904 -0.634,0.402 -0.69,0.126 -0.764,-0.226 -0.476,0.028 -0.436,0.292 -0.17,0.176 -0.138,-0.084 -0.286,-0.74 -0.21,0.764 -0.44,0.244 -0.754,-0.052 -1.26,0.204 -0.486,0.216 -0.202,0.34 -0.15,0.392 -0.198,0.23 -0.222,0.122 -0.974,0.288 -0.192,0.116 -0.452,0.63 -0.59,0.364 -0.49,0.11 -0.434,-0.366 -0.178,-0.22 -0.202,-0.112 -0.668,0.018 0.21,0.114 0.136,0.258 0.066,0.496 -0.076,0.486 -0.33,0.246 -0.392,0.046 -0.62,0.502 -0.82,0.136 -0.444,0.462 -2.712,0.78 -0.154,0.008 -0.374,-0.198 -0.406,-0.088 -0.404,0.062 -1.136,0.436 -0.55,-0.086 0.702,-1.084 0.942,-0.548 0.098,-0.15 -0.308,-0.074 -1.792,0.38 -0.622,0.324 -0.622,0.094 0.288,-0.496 0.802,-0.678 0.43,-0.32 0.262,-0.128 0.3,-0.4 0.846,-0.454 -2.724,0.936 -0.716,-0.114 -0.168,-0.26 -0.556,0.124 -0.212,-0.634 0.826,-0.958 0.482,-0.414 0.572,-0.224 0.55,-0.322 0.204,-0.392 -0.258,-0.126 -1.648,0.1 -0.79,-0.084 0.042,-0.312 0.146,-0.346 0.818,-0.592 0.444,-0.094 0.394,0.056 0.384,0.152 0.314,0.198 0.928,-0.114 -0.388,-0.378 -0.068,-0.77 -0.296,-0.258 0.378,-0.358 0.434,-0.216 0.724,-0.742 0.258,-0.114 1.432,-0.18 1.544,-0.39 1.53,-0.54 -0.786,-0.302 -0.376,-0.4 -0.604,0.806 -0.436,0.308 -1.228,0.166 -0.388,-0.09 -0.548,-0.25 -0.17,0.094 -0.158,0.192 -0.814,0.394 -0.854,0.094 0.994,-0.724 1.262,-1.23 0.28,-0.388 0.4,-0.678 -0.124,-0.302 -0.26,-0.172 0.914,-1.4 0.322,-0.254 0.584,-0.042 0.43,-0.222 0.19,0 0.17,-0.084 0.376,-0.42 -0.58,-0.268 -0.6,-0.138 -1.854,0.146 -0.244,-0.032 -0.23,-0.13 -0.15,-0.186 -0.112,-0.478 -0.136,-0.108 -0.418,0 -0.414,0.146 -0.288,-0.014 -0.282,-0.21 0.452,-0.49 -0.582,-0.116 -0.588,0.096 -0.49,-0.15 -0.014,-0.308 0.222,-0.308 -0.292,-0.292 -0.06,-0.37 0.31,-0.182 0.338,0.06 0.69,-0.274 0.886,-0.132 -0.76,-0.27 -0.302,-0.232 -0.014,-0.354 0.06,-0.304 0.878,-0.514 0.936,-0.226 -0.07,-0.338 0.066,-0.368 -0.946,-0.106 -0.934,0.258 0.1,-0.702 0.224,-0.636 0.044,-0.418 -0.044,-0.45 -0.438,0.192 -0.05,-0.634 -0.188,-0.434 -0.65,0.3 0.016,-0.576 0.188,-0.402 0.338,-0.174 0.336,0.076 0.626,-0.006 0.604,-0.304 0.87,-0.078 1.384,0.094 0.952,0.854 0.246,-0.152 0.38,-0.54 0.178,-0.06 1.436,0.236 0.89,0.31 0.238,-0.096 -0.128,-0.598 -0.306,-0.416 0.384,-0.544 0.468,-0.37 0.314,-0.184 0.722,-0.23 0.316,-0.216 0.21,-0.704 0.334,-0.586 -1.814,0.304 -1.726,-0.696 0.274,-0.492 0.364,-0.28 0.628,-0.214 0.06,-0.258 0.318,-0.214 0.526,-0.564 -0.194,-0.738 0.104,-0.54 0.378,-0.352 0.118,-0.506 0.168,-0.374 0.768,-0.134 0.738,-0.346 0.266,0.034 0.874,-0.08 0.294,0.14 -0.068,-0.614 0.536,-0.08 0.208,0.122 0.092,0.436 0.244,0.278 0.076,0.482 -0.164,0.372 -0.274,0.286 0.25,0.292 -0.386,0.53 0.416,-0.226 0.594,-0.518 -0.032,-0.422 -0.1,-0.534 -0.166,-0.482 0.076,-0.532 0.334,-0.332 0.878,-0.168 -0.36,-0.604 0.32,-0.054 0.348,0.126 0.512,0.47 0.534,0.37 0.552,0.292 -0.532,0.584 -0.654,0.406 -0.25,0.442 z m -15.32,11.37 -0.024,0.272 -0.416,-0.342 -0.202,-0.374 -1.14,-0.17 0.474,-0.374 0.232,0.11 0.806,0.016 0.226,0.156 0.044,0.706 z" title="Ireland" id="IE"></path></svg>