<svg xmlns="http://www.w3.org/2000/svg" viewBox="0 0 163.76 174.40"><path d="m 144.38,173.94 -0.344,0.462 -0.672,-1.416 -0.288,-0.086 -0.01,-0.674 0.156,-0.266 0.778,-0.298 0.204,0.166 0.396,1.312 -0.22,0.8 z m -0.878,-2.954 -0.534,0.532 -0.232,-0.32 0.096,-0.222 0.226,-0.122 0.212,-0.172 0.232,0.304 z m -1.634,-2.932 -0.436,0.006 -0.128,-0.242 -0.184,-0.25 0.14,-0.242 0.23,-0.062 0.326,0.392 0.076,0.278 -0.024,0.12 z m 0.53,-1.006 -0.264,0.208 -0.066,-0.028 -0.038,-0.16 -0.01,-0.112 -0.048,-0.202 -0.026,-0.356 0.21,-0.298 0.21,0.062 -0.114,0.304 0.146,0.582 z m -114.894,-1.198 -0.08,0.07 -0.082,0.026 -0.056,-0.008 -0.03,-0.07 0.016,-0.052 0.072,0.06 0.096,-0.056 0.108,-0.178 0.026,-0.058 0.022,0.032 -0.022,0.102 -0.07,0.132 z m 112.67,0.11 0.168,0.21 -0.31,-0.036 -0.288,-0.318 0.076,-0.298 0.108,-0.122 0.246,0.564 z m -1.984,-5.004 -0.246,0.032 -0.152,-0.192 -0.018,-0.224 0.14,-0.146 0.132,-0.076 0.132,0.02 0.132,0.378 -0.12,0.208 z m -1.596,-8.026 -0.17,0.194 -0.578,-0.152 0.042,-0.584 -0.136,-0.572 0.1,-0.24 0.434,-0.41 0.352,-0.18 0.244,0.554 0.114,0.542 -0.402,0.848 z m -110.702,-3.678 -0.042,0.036 -0.004,-0.104 0.052,-0.166 0.06,-0.11 0.018,0.012 -0.016,0.108 -0.03,0.146 -0.038,0.078 z m 111.77,-1.018 -0.274,0.114 -0.274,-0.142 0.214,-0.23 0.036,-0.468 0.28,0.26 -0.016,0.296 0.034,0.17 z m 1.82,-3.734 0.25,0.784 -0.452,-0.342 -0.146,-0.246 0.226,-0.166 0.122,-0.03 z m -1.684,-4.728 -0.178,0.372 -0.036,-0.796 0.084,-0.1 0.09,-0.028 0.114,0.074 -0.074,0.478 z m 0.03,7.582 -0.124,0.134 -0.182,-0.15 -0.522,-1.022 -0.09,-0.656 -0.144,-0.228 0.184,-0.326 0.23,-0.108 0.136,-0.368 0.048,-0.56 0.202,-0.458 0.102,-0.128 0.42,-0.004 0.106,-0.058 -0.058,-0.438 -0.244,-0.19 -0.086,-0.122 0.01,-1.05 0.064,-0.424 0.152,-0.306 -0.108,-0.632 0.072,-0.236 0.302,-0.332 0.134,-0.708 -0.124,-0.212 0.288,-1.092 -0.016,-0.732 0.376,-0.732 0.588,-0.334 0.186,-0.008 0.024,0.626 0.056,0.206 -0.34,0.37 0.324,0.482 -0.042,0.174 -0.13,0.382 -0.214,0.376 -0.298,0.154 -0.232,0.5 -0.132,0.188 0.442,0.526 0.142,1.784 -0.324,0.488 -0.386,0.098 0.09,1.188 -0.07,0.266 -0.382,0.582 -0.072,0.254 -0.214,0.24 0.09,0.298 0.186,0.13 0.004,0.244 -0.172,0.626 -0.014,0.714 -0.238,0.584 z m -78.6,-123.11 -0.014,-0.022 -0.33,-0.49 0.344,0.512 -0.184,0.54 0.038,0.428 0.34,0.472 0.276,0.33 -0.27,0.444 -0.16,0.514 0.18,0.23 -0.084,0.738 0.08,0.138 0.19,0.058 0.296,-0.05 0.226,0.36 -0.204,-0.324 -0.024,-0.036 0.308,-0.196 0.262,-0.038 0.156,0.056 0.208,-0.558 0.184,-0.08 0.356,0.154 0.704,1.052 0.596,0.888 0.126,0.122 0.046,0.046 0.106,0.102 0.588,0.46 0.406,0.29 0.554,-0.104 0.732,-0.02 0.434,0.284 0.25,0.198 0.012,0.028 0.034,0.006 0,0 0.88,0.696 0.38,-0.052 0.252,0.2 0.072,0.49 -0.118,0.51 0.028,0.24 0.392,0.046 0.834,0.336 0.736,0.298 0.382,0.094 0.41,0.22 0.364,0.352 0.71,0.452 0.628,0.346 0.138,0.468 -0.248,-0.1 -0.328,0.052 -0.334,0.208 -0.158,0.132 -0.762,0.806 -0.4,0.248 -0.358,0.362 -0.826,1.09 -0.478,1.016 -0.348,0.954 0.006,0.674 -0.128,0.79 -0.356,0.45 -0.218,0.152 -0.258,0.678 -0.186,0.79 0.108,0.256 0.444,0.344 0.432,0.336 0.55,0.364 0.528,0.346 0.34,0.044 0.094,-0.196 0.124,-0.188 0.388,0.1 0.472,0.338 0.308,0.27 0.136,0.09 0.816,0.454 0.676,0.374 0.856,0.474 0.208,0.29 0.184,0.308 0.404,0.408 0.982,0.722 0.84,0.518 0.684,0.42 0.536,0.294 0.248,-0.046 0.272,-0.158 0.238,-0.09 0.278,0.084 0.42,0.224 0.986,0.684 0.92,0.534 1.002,-0.096 0.266,0.086 0.188,0.484 0.126,0.49 1.12,0.324 0.736,0.146 0.842,0.266 0.426,0.198 0.448,-0.248 0.082,-0.218 0.354,-0.128 0.588,0.056 1.096,0.38 0.458,0.114 0.384,-0.36 0.714,-0.166 0.374,-0.188 0.78,0.4 1.408,0.5 0.726,0.312 0.172,0.306 0.078,0.29 -0.006,0.704 0.178,0.318 1.412,0.714 0.466,0.302 0.376,0.098 0.212,0.012 0.146,0.09 0.126,0.406 0.1,0.094 0.272,0.1 0.296,0.058 0.918,-0.352 0.628,-0.266 0.448,0.068 0.29,0.296 0.042,0.432 0.168,0.456 0.32,0.222 0.344,0.024 0.852,-0.308 0.686,0.236 0.628,0.086 0.7,0.148 0.272,0.112 0.724,0.376 0.886,0.38 0.342,-0.042 1.426,-0.708 0.122,0.086 0.29,0.676 0.434,0.242 0.678,0.212 0.708,-0.39 0.558,0.112 0.676,0.036 0.648,-0.188 0.562,-0.048 0.818,0.34 0.18,-0.078 0.156,-0.218 0.318,-0.976 0.282,-0.864 -0.026,-0.516 -0.258,-0.758 -0.662,-0.988 -0.048,-0.3 0.222,-1.726 0.246,-0.998 0.21,-0.472 0.232,-0.674 0.042,-0.312 -0.024,-0.282 -0.226,-0.172 -0.06,-0.214 0.056,-0.18 0.18,-0.1 0.752,-0.126 0.848,-0.27 0.338,-0.144 0.254,-0.144 0.26,-0.228 0.242,0.01 0.76,0.33 0.266,0.208 0.14,0.63 0.114,0.244 -0.1,0.64 -0.456,1.548 0.09,0.578 0.378,0.422 0.33,0.294 -0.054,0.118 -0.68,0.498 -0.122,0.266 0.15,0.26 0.27,0.22 0.122,0.21 0.126,0.652 0.346,0.184 0.684,0.42 0.602,0.306 1.034,-0.204 0.292,0.138 0.508,0.144 0.396,0.044 0.23,0.108 0.128,0.104 -0.018,0.132 0.022,0.136 0.566,0.036 0.298,0.078 1.006,-0.14 1.01,-0.192 0.464,-0.582 0.206,-0.042 0.58,-0.226 0.572,0.248 0.628,0.338 0.34,0.102 0.67,0.054 0.652,-0.038 1.56,-0.162 0.858,0.084 0.788,-0.484 0.162,0.002 0.346,0.374 0.866,0.034 0.46,-0.18 0.496,-0.138 0.316,-0.044 0.254,-0.004 0.306,0.036 0.29,-0.124 0.132,-0.25 -0.03,-0.378 -0.208,-0.412 -0.182,-0.242 -0.036,-0.128 0.056,-0.298 0.16,-0.42 0.294,-0.48 -0.216,-0.466 -0.302,-0.534 -0.222,-0.052 -0.56,0.124 -0.606,-0.024 -0.478,-0.322 -0.356,-0.404 -0.086,-0.338 0.104,-0.414 0.158,-0.38 0.034,-0.142 0.454,0 0.628,0.084 0.476,0.106 0.382,-0.004 0.694,-0.488 0.316,-0.03 0.364,-0.092 0.158,-0.092 0.11,0.072 0.398,0.06 0.414,-0.024 0.37,-0.134 0.372,-0.21 0.66,-0.44 0.13,-0.252 0,-0.232 -0.124,-0.154 -0.126,-0.074 0.05,-0.202 0.278,-0.34 1.01,-0.512 0.86,-0.632 0.472,-0.474 0.216,-0.574 0.274,-0.624 0.256,-0.246 0.61,-0.156 1.708,-0.23 0.538,-0.252 0.794,-0.468 0.4,-0.368 0.222,-0.298 0.024,-0.332 0.528,-0.104 0.46,-0.538 0.558,-0.542 0.982,-0.458 0.87,-0.616 0.302,0.098 0.316,0.292 0.168,0.322 0.036,0.164 1.112,0.204 0.176,-0.032 0.818,0.288 0.754,0.348 0.416,0.086 0.204,-0.01 0.174,-0.108 0.204,-0.306 0.208,-0.222 0.13,-0.09 -0.006,-0.352 1.092,-0.688 0.98,-0.494 0.844,-0.36 0.248,0.148 0.274,0.274 0.374,0.698 0.226,0.17 0.572,-0.098 0.106,0.078 -0.09,0.25 -0.388,0.31 -0.504,0.278 -0.328,0.228 0.108,0.758 -0.026,0.26 0.142,0.082 1.036,-0.752 0.498,-0.148 0.178,0.182 0.054,0.402 0.41,0.828 0.174,0.42 -1.042,1 -0.382,0.516 0.014,0.182 -0.02,0.18 -0.266,0.256 0.014,0.102 0.214,0.162 0.262,0.122 0.126,-0.004 0.216,-0.242 0.982,-0.342 0.282,0.064 0.692,0.524 0.32,0.03 0.83,0.156 0.532,-0.198 0.39,0.182 0.81,0.656 0.186,0.12 -0.068,0.398 -0.042,0.438 0.206,0.348 0.024,0.308 -0.046,0.282 -0.162,0.194 -0.45,0.108 -0.382,0.336 -0.608,0.486 -0.488,0.388 -0.354,0.344 -0.128,0.36 0.04,0.454 0.102,0.474 1.132,1.736 -0.01,0.3 -0.358,0.084 -0.476,-0.196 -0.41,-0.28 -0.462,-0.744 -0.372,-0.222 -0.37,-0.048 -2.2,0.382 -0.466,0.108 -0.726,0.278 -0.508,0.558 -0.37,0.51 -0.38,0.206 -0.556,0.396 -1.542,1.216 -0.89,0.524 -0.582,0.192 -0.408,0.276 -0.22,0.448 -0.166,0.322 -0.048,0.79 0.102,0.972 0.22,0.62 0.118,0.13 0.018,0.182 -0.222,0.334 -0.292,0.286 -0.142,0.176 -0.13,0.884 -0.258,0.434 -0.476,0.638 -0.422,0.482 -0.662,0.374 -0.252,0.302 -0.242,0.558 -0.142,0.472 -0.008,0.17 0.076,0.15 0.276,0.166 0.334,0.16 0.16,0.25 0.022,0.302 -0.248,0.726 -0.446,1.006 -0.51,0.796 -0.526,0.758 -0.126,0.248 -0.472,0.93 -0.412,1.278 -0.278,0.858 -0.24,0.588 -0.296,0.026 -0.358,-0.188 -0.874,-0.25 -0.558,-0.202 -0.406,-0.182 -0.282,0.008 -0.388,0.118 -0.394,0.082 -0.234,-0.088 -0.542,-0.53 -0.166,0.06 -0.106,0.258 0.366,1.512 0.238,0.562 -0.04,0.938 -0.094,1.15 -0.14,1.254 -0.094,0.29 -0.232,0.332 -0.306,0.09 -0.278,-0.13 -0.222,0.03 -0.074,0.21 0.064,0.542 -0.272,0.62 -0.2,0.53 0.052,0.514 0.096,0.522 0.318,1.128 0.002,0.412 -0.062,0.37 -0.166,0.154 -0.286,-0.026 -0.156,0.152 -0.118,0.232 -0.322,0.854 -0.308,0.09 -0.31,-0.128 -0.464,-0.57 -0.284,-0.166 -0.18,0.01 -0.08,0.15 -0.126,0.34 -0.126,0.228 -0.31,0.2 -0.076,-0.42 -0.166,-2.184 -0.126,-0.696 -0.102,-0.966 -0.15,-0.296 -0.192,-0.53 -0.212,-0.458 -0.178,-0.194 -0.114,-0.854 -0.042,-1.046 0.002,-0.496 -0.25,-1.026 -0.244,-1.164 -0.33,0.048 -0.196,-0.282 -0.142,0.006 -0.464,0.262 -0.37,-0.086 -0.274,0.036 -0.002,0.536 0.046,0.57 -0.104,0.206 -0.724,0.668 -0.202,0.448 0.02,0.47 0.09,0.628 -0.128,0.32 -0.314,0.294 -0.422,0.154 -0.372,-0.072 -0.238,-0.256 -0.222,-0.652 -0.198,-0.356 -0.208,-0.084 -0.162,0.096 -0.022,0.41 0.012,0.338 -0.052,0.038 -0.116,-0.052 -0.132,-0.166 -0.346,-1.636 -0.494,-1.262 -0.03,-0.484 0.18,-0.624 0.222,-0.962 0.586,-0.6 0.076,-0.254 0.096,-0.202 0.142,-0.04 0.752,0.056 0.252,-0.096 0.222,-0.284 0.324,-0.228 0.324,-0.092 0.258,-0.034 0.414,0.216 0.172,-0.124 0.126,-0.4 0.18,-0.396 0.116,-0.192 0.278,-0.086 0.354,-0.02 0.118,-0.074 0.096,-0.134 0.088,-0.526 0.452,-1.178 0.16,-0.524 0.024,-0.092 -0.014,-0.584 0.128,-0.084 0.75,0.286 0.328,-0.004 0.178,-0.118 0.058,-0.214 -0.096,-0.25 -0.534,-0.438 -0.948,-0.59 -0.87,-0.362 -1.608,0.054 -1.592,0.114 -0.466,-0.058 -0.582,-0.164 -1.43,0.024 -1.728,0.09 -0.658,-0.05 -0.324,0.006 -0.65,0.054 -1.06,-0.168 -0.734,-0.216 -0.65,-0.238 -0.772,-0.214 -0.186,0.002 -0.108,-0.078 -0.074,-0.19 -0.026,-0.246 0.16,-1.14 -0.142,-1.732 0.13,-0.632 -0.632,-1.424 -0.216,-0.264 -0.292,-0.012 -0.186,0.184 -0.074,0.334 0.106,0.374 -0.232,0.416 -0.466,0.134 -0.544,-0.14 -0.452,-0.196 -0.582,-0.424 -0.438,-0.598 -0.038,-0.662 -0.198,-0.426 -0.27,-0.208 -0.198,-0.058 -0.178,0.046 -0.156,0.232 0.136,0.23 0.186,0.324 -0.062,0.22 -0.166,0.034 -0.248,-0.094 -0.384,0.05 -0.372,-0.168 -0.222,-0.014 -0.22,-0.062 -0.014,-0.382 -0.338,-0.484 -0.572,-0.542 -0.562,-0.336 -0.27,0.046 -0.136,0.37 0.032,0.138 0.198,0.068 0.284,0.214 0.06,0.224 -0.042,0.196 -0.35,0.358 -0.248,0.34 -0.554,0.494 -0.472,0.566 -0.124,0.428 -0.178,0.384 -0.07,0.422 0.124,0.292 0.228,0.184 0.592,0.134 0.62,0.568 0.5,0.766 0.282,0.232 0.512,0.258 0.986,0.03 0.146,0.21 0.14,0.562 0.194,0.198 0.502,0.264 0.042,0.194 -0.122,0.224 -0.222,0.176 -0.41,0.112 -0.39,0.044 -0.392,-0.072 -0.582,-0.044 -0.66,-0.004 -0.468,1.398 -0.334,0.49 -0.19,0 -0.51,-0.238 -0.218,0.038 -0.588,1.24 -0.082,0.298 -0.04,0.224 0.312,0.478 0.374,0.394 0.446,0.154 0.35,-0.118 0.284,0.158 0.332,0.396 0.57,0.262 0.806,0.126 0.458,0.312 0.056,0.27 -0.04,0.274 -0.072,0.712 -0.078,0.41 -0.434,1.076 -0.31,0.926 0.16,0.44 0.116,0.18 0.11,0.138 0.348,0.346 0.242,0.342 -0.208,0.874 0.114,0.23 0.466,0.154 0.502,0.118 0.176,0.144 -0.436,0.886 0.092,0.616 0.184,0.578 0.132,0.944 0.02,0.1 -0.036,0.236 0.286,0.732 0.442,1.426 0.034,0.532 -0.026,0.562 -0.13,0.938 -0.442,-0.004 0.394,0.626 0.126,0.45 0.054,0.628 -0.474,0.078 -0.336,-0.07 -0.28,-0.55 -0.13,0.5 -0.5,0.462 -0.18,-0.226 -0.104,-0.242 -0.02,-0.428 0.276,-1.634 -0.056,-0.184 -0.124,-0.122 -0.274,-0.066 -0.102,-0.332 -0.418,1.744 0.184,0.712 -0.084,0.324 -0.78,0.272 -0.79,-0.654 -0.1,-0.21 -0.046,0.368 -0.142,0.448 -0.74,-0.082 -0.366,-0.35 0.238,-0.596 0.458,-1.44 0.086,-0.642 -0.614,-0.472 -0.52,-0.29 -0.298,-0.656 0.114,0.72 0.278,0.256 0.404,0.18 0.428,0.368 -0.308,0.448 -0.3,0.278 -0.574,1.056 -0.7,0.59 -0.816,0.444 -2.68,0.652 -0.562,0.264 -0.822,0.812 -0.532,0.77 -0.098,0.78 0.3,0.842 0.244,1.316 0.204,0.268 -0.286,0.48 -0.498,0.51 -0.412,0.686 0.038,0.376 -0.106,0.254 -1.412,0.842 -0.296,0.492 -0.388,0.488 -0.464,-0.28 -0.272,0.004 0.374,0.388 -0.048,0.256 -0.132,0.15 -0.356,0.14 -2.04,0.618 -1.56,0.586 -0.438,-0.024 0.08,-0.178 0.274,-0.158 -0.028,-0.672 -0.286,-0.124 -0.248,-0.048 -1.188,0.82 -0.48,0.81 0.1,0.154 0.27,-0.038 0.798,-0.458 0.372,0.13 0.026,0.18 -1.212,0.7 -2.55,2.264 -0.12,0.446 -0.332,0.504 -0.458,0.474 -0.822,1.146 -1.576,1.702 -0.438,0.634 -2.524,1.308 -0.46,0.388 -1.036,1.272 -1.064,1.04 -1.242,0.862 -2.154,1.098 -1.31,1.038 -0.41,0.69 -0.026,0.246 0.14,0.334 0.24,0.312 0.054,0.248 -0.118,0.444 -0.064,0.246 -0.384,0.608 -0.658,0.434 -2.13,0.906 -0.282,-0.028 -1.738,-0.18 -0.65,0.164 -0.268,0.424 -0.598,1.754 -0.572,0.466 -0.206,0.422 -0.082,0.292 -0.344,-0.008 -0.296,-0.13 -0.216,0.094 -0.248,-0.588 -0.416,-0.12 -0.344,-0.042 -1.468,0.592 -0.514,0.476 -1.08,2.242 -0.268,1.444 0.254,1.592 0.376,1.27 0.074,0.574 -0.046,0.744 -0.192,0.362 -0.136,0.428 0.18,0.882 0.454,1.154 0.11,0.488 0.01,0.502 0.342,1.152 -0.23,-0.208 -0.182,-0.486 -0.432,-0.62 -0.53,0.618 0.292,0.444 0.988,0.528 0.292,0.432 -0.636,3.842 -0.482,1.362 -0.592,0.892 -0.314,0.344 -0.702,1.416 -0.488,1.702 -0.098,0.654 0.22,0.732 -0.25,0.432 -0.312,0.33 0.594,-0.148 0.204,0.396 0.076,0.41 0.008,2.432 -0.066,2.532 -0.458,0.104 -0.502,0.026 -0.444,-0.072 -0.318,-0.098 -0.792,0.134 -0.426,0.28 -0.342,0.464 0.024,0.792 -1.468,1.992 -0.316,0.664 -0.116,0.638 0.19,0.334 0.376,0.342 0.49,0.138 0.946,0.138 0.454,0.182 0.308,0.338 -1.114,-0.36 -1.31,-0.072 -3.132,0.924 -0.824,0.648 -0.46,0.562 -0.316,1.284 -0.054,0.858 -0.372,0.714 -1.626,1.096 -1.028,0.338 -0.39,0.292 -1.212,-0.378 -1.322,-0.96 -0.556,-0.516 -1.962,-2.48 -0.358,-0.314 -0.396,-1.062 -0.062,-0.396 -0.11,-0.158 -0.186,-0.108 -0.09,-0.164 -0.442,-1.216 -0.18,-1.268 -0.282,-1.418 0.236,0.098 0.328,0.466 0.164,0.678 0.02,0.948 0.246,0.11 0.22,-0.09 -0.63,-2.184 -0.548,-0.542 -0.144,-0.036 -0.154,-0.35 -0.016,-0.44 0.048,-0.208 -0.438,-0.716 -0.154,-0.426 -0.972,-2.166 -0.438,-1.554 -0.678,-1.73 -0.438,-0.606 -0.682,-1.336 -0.572,-0.622 -0.606,-0.834 -0.476,-0.37 -0.186,-0.194 -1.41,-2.894 -0.434,-1.602 -0.368,-0.756 -0.182,-0.576 -0.494,-2.462 -0.004,-0.44 -0.06,-0.482 -0.352,-1.044 -0.618,-1.13 -0.178,-0.704 0.002,-0.274 -0.392,-1.1 -0.084,-0.502 -0.264,-0.464 -0.308,-0.426 -0.32,-0.342 -0.754,-1.116 -0.27,-0.272 -0.514,-0.724 -0.366,-1.338 -0.468,-0.524 0.736,0 -0.45,-0.496 -0.212,-0.324 -0.236,-0.2 0.342,-0.5 -0.56,0.014 -0.296,-0.3 -0.406,-0.94 -0.738,-1.064 -0.126,-0.568 -0.652,-1.79 -0.552,-4.306 -0.506,-1.922 0.04,-0.552 -0.612,-1.668 -0.298,-1.12 -0.122,-0.95 -0.162,-0.624 -0.146,-1.24 -0.234,-0.392 -0.026,-0.236 0.156,-0.566 0.438,-0.874 0.162,-0.554 -0.19,-0.78 -0.398,0.82 -0.372,0.23 -0.178,-0.612 -0.002,-0.824 -0.046,-0.198 0.098,-0.276 0.984,0.126 -1.12,-0.506 -0.132,-0.296 -0.042,-0.222 0.24,-0.41 -0.408,-0.346 -0.164,-1.06 -0.12,-0.242 -0.046,-0.196 0.232,-1.466 0.964,-2.886 0.072,-0.654 -0.084,-0.93 -0.214,-0.74 -0.092,-0.784 -0.058,-0.202 -0.35,-0.072 -0.332,-0.29 -0.384,-1.164 0.352,-0.382 0.272,-0.21 -0.374,0.088 -0.308,-0.036 0.584,-0.538 0.522,-0.412 1.19,-0.478 0.506,-0.306 -0.748,0.276 -0.784,0.104 -1.664,-0.056 0.278,-1.088 0.29,-0.364 0.314,-0.204 -0.462,0.062 -0.536,-0.086 0.172,-1.106 0.422,-0.24 0.454,-0.046 0.564,-0.158 -0.604,-0.182 -0.626,-0.088 -0.754,0.182 -0.692,-0.134 -0.842,0.002 0.336,0.148 0.36,0.336 -0.18,0.6 -0.17,0.374 -0.462,0.258 -0.378,0.39 -0.106,0.342 -0.214,0.24 0.37,0.17 0.38,0.122 0.22,0.278 0.26,0.402 -0.014,0.782 -0.996,1.838 -0.344,0.41 -2.494,1.108 -0.978,0.602 -2.088,0.782 -0.812,0.146 -0.9,-0.156 -1.316,-0.594 -2.008,-1.522 -0.522,-0.502 -1.606,-1.958 -1.158,-1.038 -0.878,-0.966 -1.088,-0.916 -1.026,-1.236 -0.218,-0.564 0.076,-0.574 0.382,-0.312 0.448,0.126 0.354,0.484 0.25,0.216 0.21,0.088 1.532,-0.742 0.594,0.03 0.406,-0.372 0.514,0.082 1.048,-0.58 0.44,-0.036 0.524,-0.116 0.844,-1.47 0.632,-0.936 0.41,-0.196 -0.024,-0.228 -0.114,-0.298 -0.306,0.076 -0.214,0.284 -0.158,0.344 -0.16,0.206 -0.496,-0.19 -0.334,0.032 -0.412,0.112 -1.506,0.548 -0.62,0.492 -0.42,0.098 -2.406,-0.542 -2.352,-1.244 -0.99,-0.828 -0.626,-1.058 -0.626,-1.262 0.206,-0.354 0.972,-0.76 0.84,-0.598 -0.754,0.266 -0.816,0.37 -0.404,0.258 -0.458,0.542 -0.608,0.122 -0.24,-0.804 -0.152,-0.784 0.388,-0.264 0.272,-0.166 0.552,-0.14 0.604,-0.1 0.548,0.004 0.774,0.012 0.022,-1.84 0.064,-0.162 0.11,-0.094 0.126,-0.04 0.106,0.028 0.158,0.276 0.198,-0.016 0.21,-0.16 0.468,0.12 0.376,-0.082 0.38,0.108 0.648,0.002 1.17,-0.044 0.65,0.014 0.42,0.292 0.46,0.322 0.498,0.046 0.722,-0.038 0.49,-0.124 0.248,-0.3 0.186,-0.288 1.07,-0.42 1.124,-0.342 0.324,-0.038 0.102,0.2 -0.05,0.334 0.13,0.318 0.452,0.202 0.318,0.05 0.286,-0.046 0.212,-0.102 0.456,-0.5 0.236,-0.114 0.306,0.008 0.344,-0.24 0.006,-0.184 -0.218,-0.088 -0.186,-0.264 0.036,-0.214 -0.054,-0.304 0.038,-0.288 0.146,-0.216 0.256,-0.208 -0.152,-0.43 -0.392,-0.824 -0.41,-1.056 -0.434,-0.88 -0.55,-0.772 -0.284,-0.568 0.03,-1.254 -0.048,-0.254 -0.19,-0.156 -0.254,-0.086 -0.358,0.128 -0.322,0.024 -0.692,-0.028 -0.34,-0.128 -0.924,-1.262 -0.122,-0.496 -0.004,-0.51 0.306,-0.888 0.094,-0.828 0.042,-0.772 -0.05,-0.218 -0.186,-0.26 -0.31,-0.192 -0.83,-0.046 -0.986,-0.256 -0.758,-0.45 -0.528,-0.272 -0.142,-0.178 -0.064,-0.208 0.138,-0.938 0.238,-1.058 0.174,-0.324 0.3,-0.336 0.222,-0.228 0.356,-0.302 0.962,-1.012 0.862,-1.394 0.534,-0.974 0.278,-0.29 0.284,-0.248 0.414,-0.3 0.48,-0.274 0.476,0.012 0.452,0.25 0.336,0.292 0.114,0.646 0.238,0.418 0.256,0.252 0.34,0.122 0.434,-0.03 1.738,-0.74 0.592,-0.15 1.42,-0.092 0.974,-0.286 0.862,-0.3 0.106,-0.538 0.332,-0.822 1.012,-1.072 0.286,-0.478 0.306,-0.916 0.326,-0.836 0.282,-0.348 1.592,-0.92 1.558,-0.846 0.256,-0.384 1.008,-1.76 0.576,-1.198 0.15,-0.386 0.334,-1.042 0.362,-1.04 0.48,-0.242 1.07,-0.396 0.848,-0.388 0.436,-0.444 0.262,-0.388 -0.048,-0.384 -0.234,-0.456 0.048,-0.272 0.042,-0.268 0.618,-0.546 1.158,-1.618 0.696,-0.81 0.23,0 0.726,-0.432 0.69,-0.488 -0.04,-0.222 -0.086,-0.288 -0.396,-0.128 -0.126,-0.346 0.098,-0.496 0.332,-1.334 -0.068,-0.384 -0.404,-1.24 0.09,-0.342 0.166,-0.352 0.452,-0.468 0.582,-0.39 1.864,-0.924 0.378,-0.102 0.646,-0.234 0.396,-0.494 0.048,-0.422 -0.174,-0.262 -0.386,-0.352 -0.726,-0.318 -0.656,-0.278 -1.114,0.03 -0.578,-0.238 -0.158,-0.166 -0.08,-0.588 0.112,-0.996 -0.174,-0.088 -0.248,0.118 -0.588,-0.118 -0.722,0.014 -0.276,-0.278 0.136,-0.334 -0.042,-0.446 -0.108,-0.424 -0.112,-0.088 -0.346,-0.102 -0.538,-0.368 -0.434,-0.454 -0.254,-0.308 -0.078,-0.212 0.024,-0.14 0.316,-0.394 0.376,-0.554 0.138,-0.476 0.042,-0.346 -0.106,-0.254 -0.346,-0.312 -0.37,-0.274 -0.148,-0.238 -0.006,-0.36 0.138,-0.45 0.434,-0.34 0.77,-0.322 0.2,-0.4 -0.026,-0.296 -0.21,-0.088 -0.542,-0.002 -0.912,-0.102 -0.154,-0.164 -0.104,-0.22 -0.002,-0.218 0.194,-0.248 0.232,-0.314 -0.042,-0.306 -0.268,-0.346 -0.642,-0.252 -0.088,-0.358 0.1,-0.298 0.212,-0.426 0.186,-0.296 0.438,-0.844 0.532,-0.184 0.652,-0.274 0.72,-0.302 1.11,0.226 0.54,0.112 1.092,0.258 0.916,0.216 0.936,0.062 0.388,-0.016 0.428,0.256 1.058,0.438 0.86,0.23 0.582,-0.002 0.858,-0.388 0.428,-0.356 0.576,-0.39 0.738,0.016 1.596,-0.602 0.298,0.104 0.474,0.034 0.572,-0.348 0.294,-0.412 0.046,-0.208 0.142,-0.152 0.612,-0.262 0.614,-0.364 0.166,-0.48 0.102,-0.326 0.672,-0.42 0.7,-0.438 0.732,-0.458 0.832,-0.522 0.704,-0.442 0.576,-0.362 0.064,0.078 0.226,0.164 0.244,0.08 0.286,-0.154 0.358,-0.128 0.188,0.072 0.026,0.208 -0.214,0.976 0.018,0.382 0.358,0.794 0.464,1.286 0.436,1.204 0.256,0.788 0.254,0.322 1.058,0.33 0.872,0.27 0.518,0.442 0.572,0.424 0.4,0.26 0.19,0.334 0.04,0.3 -0.036,0.202 -0.218,0.266 -1.004,0.684 -0.12,0.216 -0.03,0.284 0.198,0.846 0.124,0.53 0.036,1.064 0.066,1.01 0.356,0.46 0.292,0.296 0.178,0.268 0.36,0.37 0.302,0.274 0.258,0.162 0.126,0.362 -0.074,0.426 -0.108,0.37 0.034,0.2 0.208,0.142 0.318,0.37 0.042,0.54 -0.022,0.372 0.126,0.334 0.034,0.37 -0.098,0.922 0.016,0.416 -0.278,0.026 -0.238,0.142 -0.338,0.58 -0.39,0.152 -0.442,0.046 -0.456,-0.356 -0.374,-0.372 -0.102,-0.206 -0.094,-0.392 -0.202,-0.256 -0.388,0.12 -0.59,0.054 -0.638,0.086 -0.118,0.086 -0.012,0.166 0.156,0.352 0.132,0.458 0.08,0.64 0.172,0.424 0.054,0.134 1.022,1.272 0.268,0.258 0.056,0.17 -0.106,0.47 z" title="India" id="IN"></path></svg>