<svg xmlns="http://www.w3.org/2000/svg" viewBox="0 0 54.86 55.57"><path d="m 33.64,1.6 0,0.052 0.186,0.498 0.462,1.85 0.264,0.234 0.3,0.196 0.212,0.274 0.084,0.276 -0.026,0.428 0.01,0.496 0.124,0.38 0.172,0.288 0.16,0.144 0.24,0.014 0.288,0.07 0.194,0.286 0.618,2.086 0.058,0.272 0.26,0.088 0.426,-0.04 0.438,0.216 0.468,0.336 0.44,0.634 0.296,0.102 0.928,-0.094 1.268,0.102 0.594,0.326 -0.06,0.202 -0.458,0.224 -0.806,0.264 -0.238,0.446 -0.134,0.578 0.024,0.324 0.198,0.356 0.568,0.708 0.032,0.256 0.102,0.356 0.106,0.244 -0.118,0.47 -0.516,0.326 -0.678,0.352 -1.362,1.568 -0.102,0.338 0.008,0.924 -0.136,0.264 -0.43,-0.004 -0.336,-0.048 -0.018,0.322 -0.214,0.432 -0.122,0.374 0.5,0.882 0.09,0.468 -0.08,0.426 -0.464,0.732 -0.274,0.492 0.066,0.11 0.362,0.196 1.124,1.606 0.362,0.564 0.476,-0.148 0.178,0.01 0.138,0.09 0.086,0.19 0,0.24 -0.12,0.36 0.606,0.146 0.218,0.364 0.706,1.244 -0.026,0.37 -0.338,0.586 -0.004,0.388 0.072,0.348 0.11,0.122 1.042,0.05 0.442,0.14 1.082,0.632 1.232,0.97 1.006,0.794 0.858,0.674 0.92,-0.048 0.25,0.122 0.232,0.21 0.264,0.554 0.526,1.25 0.448,0.414 0.69,0.998 0.648,0.934 -0.426,1.268 -0.418,1.316 0,1.692 0,0.908 0.88,0.038 0.978,0.044 0.008,1.082 0.008,1.086 0.008,1.236 0.288,0.052 0.456,0.266 0.196,0.4 0.244,0.218 0.298,0.036 0.292,0.196 0.29,0.358 0.106,0.268 -0.078,0.186 0.062,0.324 0.202,0.464 0.246,0.218 0.382,0.268 -0.518,0.154 -0.56,-0.118 -1.194,-0.542 -0.388,-0.016 -0.506,0.206 -0.022,0.184 -1.262,-0.606 -0.454,-0.122 -0.164,-0.012 -0.724,0.006 -1.03,0.11 -0.606,0.246 -0.42,0.26 -0.192,0.256 -0.068,0.138 -0.328,0.754 -0.38,0.966 -0.394,0.868 -0.766,1.22 -0.424,0.562 -0.91,1.044 -0.984,0.21 -2.282,-0.206 -2.53,-0.23 -2.518,-0.226 -1.874,-0.17 -0.144,-0.056 -1.854,-1.492 -1.464,-1.182 -1.83,-1.478 -1.868,-1.514 -1.896,-1.538 -1.378,-1.12 -1.672,-1.444 -1.522,-1.318 -1.202,-1.044 -1.542,-0.912 -1.204,-0.716 -1.756,-1.042 -1.402,-0.834 -1.202,-0.716 -1.85,-1.104 -0.614,-0.3 -1.918,-0.37 -1.818,-0.312 -1.882,-0.324 -1.252,-0.216 0.826,-0.788 -0.254,-0.708 -0.602,0.13 -0.554,0.168 -0.336,-1.102 0.428,-0.138 -0.396,-1.442 -0.406,-1.488 -0.392,-1.442 -0.402,-1.478 1.59,-0.95 1.188,-0.71 1.662,-0.996 1.602,-0.962 1.526,-0.918 1.682,-1.014 1.504,-0.908 1.378,-0.37 0.292,-0.286 0.628,-1.244 0.538,-1.064 0.026,-0.246 0.002,-1.514 0.094,-1.782 0.178,-0.954 0.31,-0.846 0.284,-0.618 0.03,-0.578 -0.038,-0.588 -0.294,-0.89 -0.306,-0.93 0.034,-0.896 0.056,-0.48 0.192,-0.77 0.328,-0.564 0.352,-0.348 1.308,-0.36 0.778,-0.214 1.04,-1 0.618,-0.596 0.86,-0.944 0.634,-0.696 0.05,-0.242 0,-0.094 0.544,-0.142 1.006,-0.846 0.594,-0.79 0.188,-0.07 0.53,0.258 0.38,0.072 0.874,-0.3 0.52,0.158 0.438,0.2 0.244,0.014 1.174,0.492 0.294,0.06 0.604,0.06 0.902,0.028 0.582,-0.322 0.41,-0.31 0.288,0.008 0.28,0.074 0.236,0.132 0.198,0.232 0.094,0.332 -0.038,1.058 0.088,0.278 0.16,0.2 0.202,0.038 0.246,-0.23 0.428,-0.334 0.528,-0.364 0.392,-0.334 0.226,-0.126 0.354,0.018 0.346,0.058 z" title="Iraq" id="IQ"></path></svg>