<svg xmlns="http://www.w3.org/2000/svg" viewBox="0 0 108.21 97.57"><path d="m 4.44,0.88 0.118,0.156 0.91,1.49 0.4,0.438 0.234,0.372 0.158,0.414 0.278,0.28 0.368,0.152 0.446,0.4 0.302,0.312 0.506,0.646 0.536,0.24 1.946,0.466 1.082,0.216 0.312,0.062 0.828,-0.312 0.97,0.042 0.36,0.016 1.282,-1.316 0.39,-0.44 0.764,-0.228 0.43,-0.526 0.69,-0.636 0.842,-0.6 0.774,-0.54 0.592,-0.326 1.072,-0.764 0.67,-0.264 0.582,0.008 0.872,0.896 0.734,0.814 0.226,0.356 -0.364,0.32 -0.68,0.308 -0.13,0.226 -0.046,0.29 0.026,0.276 0.092,0.226 0.834,0.522 0.094,0.288 0.006,0.292 -0.094,0.182 -0.186,0.106 -0.58,0.146 -0.498,0.17 -0.172,0.166 -0.15,0.198 0.022,0.22 0.15,0.25 1.018,0.68 0.116,0.25 0.202,0.336 0.25,0.206 0.424,0.056 0.204,0.138 0.984,1.252 0.24,0.088 1.15,-0.276 0.16,0.012 0.01,0.306 0.172,1.772 0.132,0.914 0.198,0.886 0.31,0.808 0.368,0.766 0.508,0.472 1.128,0.568 0.548,0.164 1.442,0.114 1.424,0.25 0.84,0.266 0.258,0.188 0.212,0.288 0.696,1.336 1.096,0.95 2.212,1.422 1.072,0.472 3.612,0.892 2.404,-0.05 6.644,-1.722 2.208,-0.43 0.83,0 -0.494,0.342 -0.83,0.196 0.5,0.242 0.774,0.04 0.358,-0.04 0.26,-0.218 0.042,-0.362 -0.038,-0.358 -0.366,-1.606 -0.212,-1.136 1.558,0.078 0.606,-0.148 0.892,-0.38 0.676,-0.23 0.34,-0.032 0.336,-0.178 0.258,-0.224 0.58,-1.558 0.29,-0.392 0.984,-0.88 0.836,-0.558 0.876,-0.496 1.11,-0.346 1.474,0.036 1.174,0.122 0.68,-0.006 0.322,0.036 0.242,-0.05 0.14,-0.102 0.152,-0.684 0.24,-0.224 0.414,-0.192 0.58,0 0.708,-0.05 0.588,0.046 0.74,0.262 0.966,0.022 0.644,-0.046 0.374,0.262 0.27,0.35 0.13,0.292 0.03,0.4 -0.006,0.304 0.102,0.118 0.392,0.182 0.546,0.136 1.062,0.164 0.998,0.316 0.518,0.214 0.72,0.334 0.858,0.83 0.318,0.13 0.384,0.084 0.274,-0.022 0.644,-0.35 0.56,0.258 0.284,-0.034 0.644,-0.192 0.684,0.24 1.704,0.908 0.188,-0.02 0.154,0.092 0.142,0.208 0.1,0.256 0.126,0.78 0.492,0.57 0.602,0.518 0.702,0.284 1.466,0.678 0.64,0.55 0.648,0.932 0.8,1.226 0.116,0.112 2.056,-0.038 2.312,0.002 0.282,0.49 -0.052,0.97 0.082,0.994 0.208,0.686 0.002,0.632 -0.166,0.32 -0.13,0.366 -0.038,0.16 0.296,0.228 0.26,0.524 0.038,0.73 -0.128,0.386 0.018,0.32 0.13,0.272 0.112,0.454 -0.02,0.274 -0.186,0.272 -0.112,0.34 -0.148,0.43 -0.054,0.34 -0.28,0.158 -0.222,0.114 0.038,0.43 0.112,0.362 0.13,0.428 -0.148,0.294 -0.094,0.338 -0.206,0.542 0.056,0.45 -0.222,0.382 -0.28,0.338 -0.186,0.27 -0.038,0.382 -0.204,0.134 -0.39,0.314 -0.24,0.224 -0.354,0.068 -0.074,0.18 0.056,0.178 0.148,0.112 0.23,0.388 0.48,0.668 -1.384,0.084 -0.406,0.59 -0.474,0.844 0.232,1.704 -0.232,0.874 0.14,0.49 0.354,0.338 0.454,0.188 0.852,0.012 0.564,0.132 0.056,0.226 -0.324,0.33 -0.518,0.618 -0.276,0.27 -0.882,1.24 0.008,0.528 0.082,0.426 0.38,1.334 0.372,1.29 0.666,2.32 -0.012,0.538 -0.208,1.192 -0.014,0.724 0.094,0.938 -0.07,0.484 0.164,1.084 0.186,0.078 1.442,0.21 1.322,0.194 1.762,0.256 0.534,0.634 0.332,1.39 -0.02,1.038 -0.15,0.53 -1.26,1.51 -1.28,1.528 -1.278,1.522 -1.324,1.574 -0.138,0.166 1.07,1.256 0.662,0.776 0.934,1.09 0.118,0.262 -0.008,0.428 0.958,1.656 0.338,0.862 0.304,0.506 0.758,0.79 0.74,0.77 0.802,0.352 0.548,0.078 1.248,0.406 0.456,0.324 0.732,0.816 0.86,-0.112 0.178,0 0.048,0.058 0.026,0.262 -0.126,1.266 0.238,1.274 0.166,1.914 -0.062,0.33 -0.206,0.552 -0.01,0.354 -0.054,0.218 0.056,0.096 0.274,0.13 0.584,0.07 1.41,-0.214 0.164,0.054 0.338,0.226 0.254,0.354 0.022,0.168 -0.356,0.294 -0.058,0.498 0.106,0.746 -0.048,0.09 -0.312,0.168 -0.102,1.076 -0.056,0.098 -0.364,0.11 -1.72,-0.074 -0.196,0.03 -0.646,0.284 -1.108,0.204 -0.304,0.116 -0.408,0.324 -0.294,0.394 -0.056,0.364 -0.058,0.076 -0.634,-0.074 -0.208,0.316 -1.23,0.472 -0.152,0.102 -0.182,0.376 -0.164,1.054 -0.148,0.946 -0.094,0.138 -0.388,0.324 -0.038,0.11 0.052,0.366 -0.176,0.666 -0.138,1.846 -0.154,0.516 -0.306,0.042 -0.24,0.258 -0.44,0.318 -0.95,-0.246 -0.754,-0.258 -2.496,-0.606 -0.274,-0.294 -0.156,-0.518 -0.432,-0.146 -0.62,0.776 -2.108,-0.448 -0.716,0.138 -0.442,-0.242 -1.136,-0.014 -0.896,-0.484 -1.286,0.332 -1.016,0.064 -1.394,-0.848 -1.498,-0.234 -1.216,0.072 -0.626,-0.066 -1.014,-0.304 -0.48,-0.314 -0.79,0.24 -0.356,-0.446 -2.234,-0.414 -0.414,-0.79 -0.31,-0.734 -0.024,-0.756 -0.544,-1.324 -0.182,-1.926 -0.202,-0.754 -0.302,-0.656 -0.402,-0.558 -0.546,-0.598 -0.476,-0.238 -2.088,-0.456 -0.402,0.06 -0.934,0.298 -0.994,0.662 -1.632,0.376 -0.328,0.284 -0.41,0.64 -0.532,0.372 -0.728,-0.096 -0.784,0.378 -1.454,1.054 -0.766,0.322 -0.642,-0.024 -0.69,-0.5 -1.542,-0.672 -0.998,-0.224 -1.384,0.154 -0.656,-0.112 -1.114,-0.79 -0.292,-0.574 -0.636,-0.384 -2.016,-0.862 -1.632,-1.14 -0.3,-0.432 -0.2,-0.638 -0.71,-0.776 -1.594,-0.634 -0.904,-0.676 -1.06,-0.152 -0.986,0.022 -0.434,-0.122 -0.394,-0.29 -1.346,-1.4 -0.016,-0.554 -0.83,-1.372 -0.194,-0.49 -0.178,-1.362 -0.23,-0.356 -0.866,-0.562 -0.134,-0.368 0.184,-0.49 0,-0.372 -0.45,-0.35 -0.676,-0.186 -0.164,-0.42 0.124,-0.818 -0.102,-0.514 -0.596,-0.822 -0.88,-0.842 -0.878,-1.248 -0.344,-0.312 -0.224,-0.818 -0.322,-0.972 -0.496,-0.07 -2.404,1.166 -0.702,-0.656 -2.108,-1.14 -0.146,-0.172 -0.148,-0.262 0.266,-0.152 0.264,-0.062 0.53,0.204 0.318,-0.24 -0.126,-0.388 -0.53,-0.24 -0.72,0.018 0.198,0.364 -0.674,0.344 -0.144,0.45 0.098,0.558 0.058,0.78 -0.274,0.376 -0.212,0.174 -0.906,0.046 -0.424,0.344 -0.274,0.082 -0.382,-0.268 -0.246,-0.218 -0.202,-0.464 -0.062,-0.324 0.078,-0.184 -0.106,-0.27 -0.29,-0.358 -0.292,-0.196 -0.296,-0.036 -0.246,-0.218 -0.196,-0.4 -0.458,-0.264 -0.288,-0.052 -0.008,-1.238 -0.008,-1.086 -0.008,-1.082 -0.978,-0.044 -0.88,-0.038 0,-0.908 0,-1.694 0.418,-1.316 0.426,-1.268 -0.648,-0.934 -0.69,-0.998 -0.448,-0.416 -0.526,-1.25 -0.262,-0.554 -0.232,-0.21 -0.25,-0.122 -0.918,0.048 -0.858,-0.674 -1.006,-0.792 -1.23,-0.97 -1.084,-0.634 -0.442,-0.14 -1.042,-0.048 -0.11,-0.122 -0.072,-0.348 0.002,-0.388 0.338,-0.586 0.026,-0.37 -0.706,-1.244 -0.218,-0.364 -0.604,-0.146 0.12,-0.36 0,-0.24 -0.086,-0.19 -0.14,-0.09 -0.178,-0.01 -0.474,0.148 -0.362,-0.564 -1.126,-1.606 -0.362,-0.196 -0.066,-0.11 0.274,-0.494 0.464,-0.732 0.08,-0.424 -0.088,-0.468 -0.5,-0.882 0.122,-0.374 0.214,-0.43 0.018,-0.324 0.336,0.048 0.43,0.004 0.136,-0.264 -0.008,-0.924 0.102,-0.338 1.364,-1.568 0.678,-0.352 0.516,-0.324 0.118,-0.472 -0.106,-0.244 -0.102,-0.356 -0.032,-0.256 -0.568,-0.708 -0.198,-0.356 -0.024,-0.326 0.134,-0.576 0.238,-0.448 0.806,-0.264 0.458,-0.224 0.062,-0.202 -0.594,-0.326 -1.268,-0.102 -0.928,0.094 -0.296,-0.102 -0.44,-0.632 -0.468,-0.336 -0.438,-0.216 -0.426,0.04 -0.258,-0.086 -0.06,-0.272 -0.616,-2.086 -0.194,-0.286 -0.288,-0.07 -0.242,-0.014 -0.16,-0.144 -0.172,-0.288 -0.124,-0.378 -0.008,-0.498 0.026,-0.428 -0.084,-0.276 -0.212,-0.274 -0.3,-0.198 -0.264,-0.232 -0.462,-1.85 -0.186,-0.498 0,-0.052 0.008,-0.098 -0.046,-0.426 0.214,-0.37 -0.014,-0.146 -0.444,-0.468 -0.624,-0.468 -0.168,-0.082 -0.004,-0.5 0.022,-0.378 -0.056,-0.342 -0.12,-0.196 -0.004,-0.154 0.25,-0.368 -0.162,-0.242 -0.918,-0.598 -0.344,-0.3 -0.636,-0.06 -0.066,-0.198 0.1,-0.418 0.218,-0.508 0.344,-0.5 0.11,-0.264 0.134,-0.45 0.046,-0.32 0.386,-0.45 0.002,-0.118 -0.108,-0.162 -0.308,-0.09 -0.316,-0.038 -0.118,-0.082 -0.042,-0.242 0.04,-0.984 -0.1,-0.592 -0.13,-0.43 0.082,-0.97 -0.22,-0.196 -0.346,-0.51 -0.148,-0.432 0.08,-0.162 0.074,-0.284 0.048,-0.374 -0.014,-0.264 -0.318,-0.258 -0.236,-0.272 -0.028,-0.3 -0.094,-0.368 -0.134,-0.292 -0.06,-0.19 0.116,-0.112 0.45,-0.088 0.654,0.062 0.534,0.004 0.302,-0.188 0.374,-1.774 0.342,-0.468 0.396,-0.272 0.774,0.632 0.32,0.222 0.172,0.02 z m 63.824,85.402 -0.524,0.75 -0.79,0.626 -0.336,-0.194 -0.262,0.008 -0.564,0.24 -0.406,0.042 -0.738,0.426 -0.672,0.214 -0.466,-0.016 -0.162,-0.044 -0.092,-0.29 0.008,-0.116 0.284,0.06 1.038,-0.388 1.294,-0.636 0.124,-0.284 -0.208,-0.462 0.056,-0.104 0.84,0.236 0.938,-0.46 0.784,-0.126 0.368,0.32 -0.514,0.198 z" title="Iran" id="IR"></path></svg>