<svg xmlns="http://www.w3.org/2000/svg" viewBox="0 0 66.56 78.32"><path d="m 39.7,4.56 -0.114,0.466 -0.238,0.116 -0.416,0.272 -0.476,0.372 -0.444,0.418 -0.12,0.454 0.122,0.296 0.12,0.102 0.162,-0.09 0.236,0.056 0.296,0.162 0.494,0.158 0.014,0.156 -0.104,0.2 -0.384,0.354 -0.346,0.4 -0.034,0.244 0.042,0.178 0.12,0.108 0.512,-0.048 0.076,0.146 -0.25,1.026 0.078,0.174 0.45,0.164 0.328,0.246 0.614,0.648 0.244,0.524 -0.168,0.176 -0.386,0.086 -0.314,-0.044 0.356,-0.316 -0.87,-1.152 -0.394,0.002 -0.522,0.488 -1.452,-0.494 -0.278,0.2 -0.206,0.39 -0.504,0.484 -0.714,0.212 -0.796,0.532 -0.838,0.376 -0.64,0.284 -0.368,-0.05 0.584,-0.614 -0.248,-0.012 -0.776,0.434 -0.446,0.366 -0.144,0.616 -0.13,1.012 0.34,0.268 0.596,1.332 0.734,0.568 -0.142,0.542 -0.194,0.428 -0.444,0.37 -0.368,-0.274 -0.226,0.006 -0.17,0.866 0.318,2.302 0.512,1.608 0.508,0.7 1.146,1.086 1.212,0.572 2.18,1.822 1.196,0.576 0.314,0.312 0.724,1.398 0.626,1.61 0.674,2.516 0.48,1.234 0.968,1.392 2.008,1.984 1.826,1.446 1.7,0.892 1.326,0.156 3.138,-0.196 0.546,0.084 0.58,0.24 0.138,0.618 -0.212,0.416 -0.66,0.432 -0.672,0.598 -0.074,0.814 0.628,0.572 3.028,1.514 3.096,1.262 0.964,0.642 1.118,0.998 2.698,1.368 0.456,0.664 1.64,1.426 0.742,1.098 0.142,0.85 -0.354,0.862 -0.164,0.606 -0.278,0.598 -0.698,-0.226 -0.794,-0.616 -1.196,-2.508 -2.182,-0.254 -0.452,-0.186 -0.776,-0.432 -0.046,-0.286 -0.192,-0.356 -0.198,-0.12 -0.834,-0.08 -0.578,0.408 -0.68,0.966 -0.772,1.386 -0.784,2.026 -0.044,0.816 0.426,0.79 1.272,0.44 0.982,0.702 0.648,0.732 0.046,1.762 0.29,0.998 -0.426,0.566 -0.826,-0.146 -1.1,0.36 -0.78,0.644 -0.324,0.612 0.084,1.584 -0.16,0.602 -1.478,1.136 -0.776,1.16 -0.194,0.48 -0.296,0.544 -1.866,0.02 -0.442,-0.674 -0.016,-1.002 0.32,-0.618 0.686,-0.29 0.462,-1.288 -0.146,-0.932 0.27,-0.414 0.254,-0.292 0.522,-0.172 0.738,-0.164 0.074,-1.306 -0.576,-0.594 -0.202,-0.834 -0.268,-1.544 -0.95,-1.978 -0.508,-1.77 -0.398,-0.876 -0.604,-0.458 -1.09,0.006 -0.542,-0.13 -1.928,-1.236 -0.134,-0.188 0.012,-0.33 0.32,-0.498 -0.216,-0.674 -0.228,-0.638 -0.378,-0.544 -0.414,-0.284 -0.868,0.174 -0.304,0.134 -0.548,-0.046 -0.43,0.242 -0.24,0.008 0.676,-0.958 -0.182,-0.226 -0.668,-0.394 -0.908,-0.06 -0.252,-0.048 -0.148,0.246 -0.176,-0.134 0.018,-0.428 -1.054,-1.924 -0.708,-0.786 -0.358,-0.14 -0.646,0.166 -1.082,-0.344 -0.646,-0.076 -0.356,0.084 -0.532,0.25 -0.268,-0.166 -0.094,-0.258 -0.982,-0.802 -1.226,-0.454 -2.386,-2.566 -0.732,-0.962 -1.506,-1.062 -0.952,-1.552 -0.78,-0.57 -1.134,-0.458 -0.262,0.058 -0.34,0.172 -0.268,0.024 -0.212,-0.202 0.216,-0.208 0.242,-0.094 -0.094,-0.596 -1.292,-1.548 -0.756,-0.5 -0.214,-0.308 -0.158,-0.422 -0.162,-0.278 -0.358,-0.16 -0.306,0.028 -0.422,-0.106 0.014,-0.748 0.084,-0.574 -0.064,-0.488 -0.412,-1.286 -0.712,-1.092 -0.42,-2.622 -0.324,-0.742 -0.788,-0.562 -1.778,-0.632 -2.478,-1.702 -0.524,-0.03 -1.49,-0.664 -0.924,-0.114 -1.2,0.596 -1.458,1.636 -1.182,1.694 -0.43,0.328 -1.526,0.576 -1.348,0.274 -0.014,-0.432 -0.048,-0.326 0.228,-0.358 0.376,-0.422 0.346,-0.532 0.144,-0.384 -0.068,-0.256 -0.156,-0.38 -0.212,-0.028 -1.284,0.32 -0.294,-0.082 -0.95,-0.498 -1.022,-0.612 -0.376,-0.436 -0.142,-0.44 0.106,-0.284 -0.084,-0.276 -0.2,-0.372 0.18,-0.422 0.318,-0.526 0.16,-0.358 0.268,-0.092 0.128,-0.218 -0.214,-0.872 -0.112,-0.14 -0.184,-0.108 -0.284,-0.012 -0.496,-0.18 -0.352,-0.302 -0.076,-0.408 -0.186,-0.392 -0.318,-0.36 -0.04,-0.394 0.362,-0.208 0.494,-0.008 0.348,0.078 0.78,-0.634 0.288,-0.056 0.258,-0.136 0.216,-0.868 0.166,-0.26 0.04,-0.152 -0.154,-0.182 -0.63,-0.612 -0.288,-0.64 -0.454,-0.718 -0.422,-0.318 -0.086,-0.248 -0.01,-0.314 0.086,-0.278 0.764,-0.432 0.452,-0.46 0.194,0.176 0.412,0.188 1.118,-0.256 0.694,-0.258 0.488,-0.272 0.302,0.048 1.096,0.406 0.362,-0.206 0.79,-0.55 0.118,-0.29 0.624,-0.88 0.012,-0.214 -0.256,-0.554 0.08,-0.122 0.764,-0.568 0.374,-0.504 0.406,-0.338 0.292,-0.008 0.08,0.116 0.034,0.236 -0.026,0.972 0.112,0.298 0.6,0.696 0.428,0.396 0.994,0.272 0.046,0.13 -0.274,0.522 0.602,0.624 0.108,0.456 0.278,0.256 0.392,-0.126 0.128,-0.242 -0.154,-0.422 -0.114,-0.442 0.022,-0.256 0.108,-0.294 0.274,-0.412 0.744,-0.944 0.268,-0.546 0.048,-0.846 0.002,-0.68 0.248,-0.166 0.534,0.122 0.16,-0.014 0.072,0.418 0.228,0.666 0.268,0.344 0.286,0.082 0.336,0.002 0.832,-0.406 0.542,-0.176 0.308,0.048 0.182,0.276 0.388,0.726 0.222,0.082 0.268,-0.084 0.094,-0.124 -0.086,-0.28 -0.114,-0.606 -0.156,-0.47 -0.204,-0.22 -0.042,-0.286 0.128,-0.516 0.146,-0.432 0.284,-0.118 0.326,-0.054 0.43,0.458 0.51,0.144 0.38,-0.024 0.066,-0.266 -0.024,-0.292 -0.226,-0.376 0.044,-0.57 0.262,-1.064 0.15,0.082 0.564,0.01 0.614,0.06 0.396,0.434 0.388,0.148 0.552,0.046 0.37,-0.06 0.18,-0.164 0.214,-0.508 0.396,-0.63 0.62,-0.324 1.06,-0.06 0.53,-0.118 0.55,0.006 0.414,0.098 0.428,-0.012 1.088,-0.44 1.122,-0.348 0.156,0.058 0.024,0.116 -0.202,0.268 -0.196,0.356 0.132,0.406 0.638,0.814 0.348,0.622 0.328,0.466 0.51,0.246 0.67,0.15 0.568,0.054 0.594,0.176 2.038,0.434 1.026,0.12 0.778,0.018 1.17,0.262 z m -6.818,20.802 0.166,-0.4 -0.062,-0.286 -0.352,0.058 -0.248,0.372 0.166,0.314 0.33,-0.058 z m -0.258,15.296 -0.004,-0.06 -0.042,0.006 -0.018,0.036 0.018,0.024 0.046,-0.006 z m -11.472,-7.268 0.186,0.296 0.022,0.172 -0.126,0.196 0.052,0.44 -0.47,-0.366 -0.71,0.184 -0.436,-0.04 -0.12,-0.328 0.1,-0.192 0.676,-0.042 0.21,-0.094 0.412,0.044 0.204,-0.27 z m -4.286,14.842 0.282,0.472 0.63,1.932 0.06,0.416 -0.126,0.426 -0.16,0.302 -0.626,0.968 0.092,0.798 0.232,0.494 0.034,0.546 -0.116,0.676 -0.388,4.138 -0.188,0.73 -0.118,0.63 -0.428,0.192 -0.552,-0.202 -0.696,-0.356 -0.322,0.022 -0.324,0.122 -0.266,-0.104 -0.254,-0.202 -0.19,1.412 -0.314,0.572 -0.478,0.366 -0.45,0.022 -0.464,-0.122 -0.392,0 -0.298,-0.27 -0.236,-0.476 -0.376,-0.578 -0.382,-0.686 -0.042,-0.622 -0.066,-1.374 0.11,-0.3 0.16,-0.288 0.078,-0.616 -0.054,-0.538 0.112,-0.192 0.222,0.192 0.166,-0.072 -0.01,-0.278 0.05,-0.506 -0.292,-0.424 -0.494,-0.144 -0.048,-0.444 0.052,-0.434 0.26,-0.292 0.088,-0.388 0.002,-1.186 -0.348,-0.438 -0.134,-0.664 -0.18,-0.424 -0.324,-0.428 -0.368,-0.348 -0.226,-0.336 -0.05,-0.88 0.128,-0.736 0.116,-0.316 0.118,0.046 0.364,0.366 0.298,0.082 0.59,0.088 0.58,-0.118 0.712,-0.334 0.686,-0.404 0.994,-1.19 0.612,-0.242 0.314,-0.314 0.108,-0.424 0.26,-0.11 0.306,0.412 0.38,0.044 0.586,0.34 0.252,0.324 0.216,0.39 0.208,0.172 0.222,0.098 0.032,0.092 -0.176,0.092 -0.202,0.446 0.114,0.128 0.332,0.252 z m -7.554,-1.168 -0.186,0.338 -0.264,-0.024 0.104,-0.25 0.244,-0.502 0.296,-0.168 0.132,0.15 -0.14,0.288 -0.186,0.168 z m 31.726,2.472 -0.25,0.064 -0.146,-0.088 -0.08,-0.112 0.098,-0.278 0.51,0.166 -0.006,0.156 -0.126,0.092 z m -30.642,11.936 -0.324,0.712 -0.338,-0.504 -0.014,-0.432 0.046,-0.124 0.416,0.182 0.214,0.166 z m 39.838,6.064 -0.38,0.808 -0.186,0.31 -1.354,1.97 -0.156,0.454 -0.096,0.494 -0.14,0.432 -0.188,0.406 -0.178,0.516 0.034,0.584 0.064,0.286 0.164,0.188 0.268,0.176 0.206,0.272 -0.316,0.246 0.346,0.494 0.296,0.292 0.04,0.292 -0.006,0.292 -0.614,0.548 -0.24,0.302 -0.148,0.366 -0.064,0.376 0.066,0.34 -0.02,0.338 -0.618,-0.042 -0.632,-0.208 -0.638,0.09 -0.908,-0.392 -0.33,-0.07 -0.3,-0.154 -0.754,-1.216 -0.608,-0.514 -0.652,-0.402 -0.666,-0.024 -0.666,0.046 -0.588,-0.248 -1.198,-0.83 -1.27,-0.666 -0.538,-0.432 -0.246,-0.292 -0.288,-0.194 -0.726,-0.192 -0.654,-0.452 -0.296,-0.032 -0.638,0.054 -0.328,-0.032 -0.33,-0.16 -0.636,-0.53 -0.408,-0.736 -0.106,-0.326 0.288,-0.842 0.342,-0.81 0.302,-0.226 0.352,-0.164 0.212,-0.24 0.18,-0.294 0.654,0.848 0.292,0.206 0.296,-0.046 0.524,-0.304 0.044,-0.334 0.58,-0.422 0.736,-0.008 0.34,0.078 0.178,0.382 0.28,0.118 0.324,0.05 1.068,0.726 0.3,0.118 0.302,0.02 0.83,-0.304 0.636,-0.116 1.334,0.168 0.72,-0.182 0.504,-0.022 0.734,-0.28 0.564,-0.466 0.294,-0.116 0.316,-0.034 0.764,0.03 0.768,0.106 0.322,-0.11 0.27,-0.306 0.312,-0.138 0.342,0.092 0.886,-0.524 0.392,-0.036 0.372,0.202 -0.33,0.352 z m -19.788,10.308 -0.27,0.078 -0.352,-0.24 -0.024,-0.336 0.064,-0.1 0.428,0.154 0.134,0.312 0.02,0.132 z" title="Italy" id="IT"></path></svg>