<svg xmlns="http://www.w3.org/2000/svg" viewBox="0 0 124.34 146.39"><path d="m 113.06,10.98 0.704,0.04 0.314,-0.036 0.538,0.118 2.134,1.182 0.644,0.15 0.666,0.018 0.468,-0.096 0.412,-0.324 1.288,-1.434 1.356,-1.31 0.15,0.05 0,0.362 -0.1,0.402 -0.6,1.198 -0.666,1.608 -0.142,0.812 0.216,0.79 0.418,0.652 0.33,0.89 0.38,1.234 0.536,0.156 0.292,0.018 0.536,-0.37 0.506,-0.47 0.436,-0.058 0.458,0.08 -0.602,0.328 -0.568,0.4 -0.488,0.756 -0.182,0.142 -0.562,-0.046 -0.322,0.028 -0.658,0.316 -0.578,0.358 -0.552,0.438 -0.602,0.234 -0.642,0.056 -0.99,0.358 -0.642,0.026 -1.206,-0.312 -0.586,0.084 -1.278,0.704 -1.164,1.016 -1.018,1.138 -0.85,1.364 -0.342,0.708 -0.206,0.792 -0.028,0.524 -0.076,0.502 -0.196,0.35 -0.236,0.284 -0.702,-0.166 -1.152,-0.724 -2.234,-1.054 -2.36,-1.618 -1.328,-0.814 -2.496,0.244 -2.362,1.552 -0.21,-0.132 -0.902,-1.064 -0.438,-0.422 -0.522,-0.12 -0.388,0.014 -0.376,0.078 -0.534,0.548 -0.196,0.394 -0.152,0.448 -0.046,0.316 0.064,0.31 0.506,0.7 0.624,0.52 0.282,0.098 0.598,-0.036 0.278,0.054 1.002,1.042 1.098,0.976 0.242,0.322 -0.406,0.338 -0.444,0.168 -0.518,-0.042 -0.512,-0.128 -0.876,-0.414 -0.376,0.352 -0.584,0.722 -0.322,0.784 -0.262,0.358 -0.644,0.472 -0.682,0.244 -0.358,-0.08 -0.272,-0.296 -0.154,-0.354 -0.078,-0.412 0.144,-0.892 0.354,-0.806 0.136,-0.824 -0.29,-1.162 -0.184,-0.244 -0.724,-0.682 -0.336,-0.666 -0.08,-0.83 0.042,-0.458 0.176,-1.014 0.176,-0.512 0.332,-0.168 0.364,-0.102 0.558,-0.368 0.614,-0.476 0.588,-0.544 0.582,-0.666 0.302,-0.732 -0.498,-0.9 -0.104,-0.536 0.074,-0.506 0.532,-0.27 0.546,0.204 1.102,0.744 0.214,0.074 0.756,0.034 1.036,0.162 0.6,-0.04 0.29,-0.112 0.436,-0.614 0.214,-0.784 -0.078,-1.01 -0.004,-1.004 0.276,-0.82 0.864,-1.322 0.248,-0.78 0.09,-1.904 0.312,-0.84 0.25,-0.874 0.12,-1.836 -0.354,-1.772 -0.356,-0.872 -0.408,-0.83 0.06,-0.794 0.33,-0.738 0.008,-0.222 0.078,-0.198 0.618,-0.14 0.29,-0.158 0.278,-0.356 0.33,-0.208 0.242,0.208 0.2,0.364 0.872,0.894 1.374,1.592 1.618,2.418 1.014,1.174 1.068,1.062 1.198,1.084 1.254,0.93 0.8,0.44 0.586,0.7 0.362,0.114 z m -15.446,-9.574 -0.216,0.504 -0.292,-0.75 -0.058,-0.81 0.168,0.004 0.308,0.122 0.074,0.394 0.016,0.536 z m 1.25,1.696 -0.388,0.056 -0.454,-0.332 -0.056,-0.416 0.328,-0.332 0.326,0.122 0.326,0.428 0.108,0.224 -0.19,0.25 z m -10.182,23.476 -0.128,0.04 -0.132,-0.064 -0.13,-0.57 0.112,-0.3 0.362,-0.21 0.352,-0.058 -0.298,1.048 -0.138,0.114 z m 9.812,5.306 0.22,0.14 1.048,-0.378 -0.2,1.142 -0.112,1.15 0.076,1.904 0.094,0.856 0.182,0.828 0.448,0.592 0.584,0.42 0.846,1.338 0.454,1.64 0.32,0.794 0.24,0.832 0.074,0.38 0.006,0.38 -0.072,0.52 0.08,0.42 -0.092,1.316 -0.378,1.518 -0.048,0.774 -0.33,0.154 -0.2,0.358 -0.17,0.166 -0.19,0.128 -0.274,0.032 -0.198,0.146 -0.078,0.41 -0.126,0.378 -0.24,0.35 -0.188,0.384 -0.154,0.936 -0.056,0.958 -0.23,0.668 -0.558,0.174 -0.638,-0.01 -0.818,0.308 -0.176,0.182 -0.646,1.164 -0.186,0.682 -0.006,0.732 0.18,0.9 0.244,0.878 0.184,1.63 -0.194,2.476 -0.188,0.79 -0.41,0.534 -0.312,0.248 -0.268,0.304 -0.348,0.802 -0.576,1.596 -0.046,0.4 0.002,0.414 -0.156,0.54 -0.1,0.53 0.094,0.616 0.178,0.576 0.772,1.474 0.302,0.436 0.34,0.396 -1.318,0.438 -0.236,0.202 -0.784,0.836 -0.25,0.792 0.02,0.876 -0.13,0.314 -0.214,0.272 -0.224,0.18 -0.876,0.4 -0.56,0.398 -0.556,0.622 -0.22,0.324 -0.43,-0.104 -0.252,-0.288 0.248,-0.36 -0.076,-0.426 0.122,-1.094 -0.138,-0.44 0.448,-0.334 0.212,-0.532 0.464,-0.426 0.334,-0.378 0.058,-0.308 -0.298,-0.332 -0.316,-0.24 -0.436,0 -0.42,0.07 -0.274,0.316 -0.09,0.43 0.022,0.2 -0.036,0.174 -0.66,0.588 0.086,0.614 0.194,0.312 0.248,0.148 -0.074,0.21 -0.314,0.494 -0.218,0.048 -0.402,-0.692 -0.504,-0.378 -0.624,0.002 -0.64,0.138 -0.486,0.46 -0.16,0.382 -0.104,0.394 0.036,0.958 -0.202,0.8 -0.396,0.702 -0.184,0.256 -0.482,0.476 -0.334,0.062 -0.236,-0.216 -0.192,-0.328 0.244,-1.2 -0.01,-0.676 0.564,-0.344 -0.462,-0.48 -0.568,-0.194 -0.798,0.256 -0.226,0.29 -0.154,0.388 -0.43,0.492 -0.472,0.458 -0.538,0.784 -0.36,0.926 -1.18,-0.302 -0.642,-0.068 -0.65,0.024 -1.152,-0.114 -1.264,0.19 -1.44,0.364 0.086,-0.262 1.184,-0.558 0.042,-0.164 -0.114,-0.306 -0.294,-0.014 -0.708,0.106 -0.362,-0.046 -0.146,-0.328 -0.24,-0.14 -0.16,0.134 0.052,0.636 -0.174,0.084 -0.234,-0.164 0.074,-0.496 -0.158,-0.726 -0.02,-0.452 0.248,-0.388 -0.254,-0.164 -0.268,0.062 -0.34,0.186 -0.3,0.264 -0.634,1.326 -0.246,0.756 0.464,0.606 1.268,0.846 0.216,0.208 0.004,0.36 -0.154,0.382 -0.344,0.166 -1.39,0.282 -1.206,0.546 -0.348,0.552 -1.096,2.132 -0.878,1.454 -1.24,0.5 -1.36,-0.446 -0.33,-0.506 -0.266,-0.626 -0.506,-0.566 -0.458,-0.618 -0.266,-0.734 0.042,-1.184 -0.198,-0.714 0.178,-0.19 0.75,-0.436 0.246,-0.244 0.424,-0.568 0.152,-0.316 0.022,-0.478 -0.34,-0.25 -0.88,0.008 -0.878,0.15 -0.626,-0.208 -0.814,-0.58 -0.252,-0.124 -0.876,-0.036 -0.626,0.108 -0.614,0.21 -0.65,0.068 -0.216,0.11 -0.75,0.71 -0.598,0.446 -0.516,0.222 -1.114,0.058 -0.558,0.144 -0.584,0.234 -0.164,-0.02 -0.616,0.324 -0.708,0.28 -0.376,0.28 -0.694,-0.184 -1.372,0.502 -0.664,0.062 -0.684,-0.278 -0.636,-0.45 -0.61,0.194 -0.418,0.662 -0.204,1.316 -0.238,0.592 -0.072,0.71 -0.316,-0.112 -1.836,-1.278 -0.126,-0.046 -1.484,0.22 -0.382,0.106 -0.478,0.258 -0.506,0.116 -0.46,-0.186 -0.442,-0.302 -0.424,0.09 -0.434,0.212 -0.168,-1.932 0.086,-0.254 0.266,-0.338 0.294,-0.29 0.718,-0.1 0.726,0.094 0.52,-0.132 0.44,-0.384 0.462,-0.544 0.522,-0.444 0.708,-0.35 0.684,-0.402 0.602,-0.564 0.57,-0.618 0.524,-0.454 0.57,-0.38 0.868,-0.916 1.15,-1.03 0.442,-0.764 0.274,-0.21 0.99,-0.426 1.314,-0.328 0.62,0.016 0.612,0.67 0.33,-0.092 0.336,-0.174 0.676,-0.096 0.696,0.112 0.68,0.002 0.68,-0.084 1.304,-0.22 0.688,-0.266 0.672,-0.344 2.392,-0.242 1.638,-0.578 0.26,0.042 0.252,0.132 0.02,0.428 -0.208,0.466 0.202,0.282 0.332,0.174 1.542,0.054 0.44,0.1 0.644,-0.318 0.608,-0.394 0.634,-0.52 0.444,-0.586 -0.41,-0.734 -0.09,-0.804 0.344,-0.874 0.498,-0.736 0.592,-0.446 0.546,-0.514 1.104,-1.46 0.798,-1.184 0.288,-1.46 -0.168,-1.732 0.698,-1.292 0.668,-0.222 1.326,-0.59 0.696,-0.172 0.104,0.258 -0.02,0.338 -1.042,1.084 -0.598,0.446 -0.356,0.138 -0.328,0.196 -0.134,0.382 0.532,0.636 0.134,0.47 -0.034,0.45 0.024,0.406 0.6,0.44 0.69,0.146 0.288,-0.004 0.252,-0.116 0.788,-1.078 0.176,-0.188 2.24,-0.792 1.102,-0.606 0.61,-0.158 0.572,-0.316 1.284,-1.22 0.472,-0.564 0.43,-0.624 0.344,-0.726 0.272,-0.786 0.372,-0.49 2.034,-1.17 0.654,-0.638 0.208,-0.31 0.252,-0.898 0.174,-0.934 0.246,-0.734 0.334,-0.688 0.446,-0.702 0.502,-0.654 0.296,-0.67 0.432,-1.606 0.188,-0.892 0.148,-0.322 0.216,-0.27 0.188,-0.344 0.144,-0.384 0.066,-0.38 0.092,-1.164 -0.056,-0.908 -0.336,-0.77 -0.278,-0.218 -0.302,-0.012 -0.456,0.066 -0.386,-0.314 0.08,-0.278 0.394,-0.052 0.268,-0.144 0.194,-0.262 0.362,-0.842 0.216,-0.904 0.02,-0.4 -0.284,-0.73 -0.224,-0.878 -0.006,-0.474 0.246,-0.548 0.352,-0.446 0.314,-0.104 0.34,-0.032 0.31,-0.172 0.288,-0.25 0.162,-0.276 0.252,-0.752 0.098,-0.428 -0.16,-1.152 0.164,-0.316 0.232,-0.196 0.31,0.148 0.32,0.03 0.372,-0.046 0.356,0.122 0.066,0.296 0.224,1.944 0.128,0.262 0.26,0.204 0.292,-0.03 0.252,-0.302 0.17,-0.402 0.336,-0.084 1.026,0.432 0.364,-0.308 0.236,-0.478 0.206,-0.846 -0.1,-0.764 -0.246,-0.284 -0.254,0.05 -0.224,0.21 -0.252,0.114 -1.514,0.402 0.008,-0.852 0.324,-1.28 0.178,-0.406 0.256,-0.192 0.636,0.224 0.31,0.148 0.678,0.636 z m -16.196,25.77 -0.534,0.018 -0.132,-0.07 0.322,-0.176 0.03,-0.294 0.194,-0.524 -0.004,-0.15 -0.424,-0.028 0.022,-0.594 0.316,-0.588 0.87,-0.926 0.238,-0.174 0.036,0.406 -0.264,0.958 -0.052,0.346 0.684,0.072 -0.44,1.146 -0.862,0.578 z m -27.916,11.328 -0.256,0.258 -0.48,-0.084 -0.278,-0.374 0.092,-0.422 0.502,-0.324 0.48,0.65 -0.06,0.296 z m 34.16,10.138 -0.06,0.32 -0.298,-0.07 -0.142,-0.208 0.018,-0.374 0.314,-0.002 0.168,0.334 z m -56.528,2.528 -0.114,0.326 -0.38,-0.23 -0.174,-0.208 0.354,-1.026 -0.042,-0.39 0.022,-0.19 0.702,-0.538 0.122,0.102 0.042,0.15 -0.062,0.23 0.036,0.508 -0.528,0.84 0.022,0.426 z m 31.138,0.442 -0.608,0.576 -0.528,-0.04 -0.264,-0.258 -0.088,-0.318 0.502,-0.5 0.432,-0.708 0.392,-0.314 0.316,-0.176 0.248,0.006 -0.556,0.988 0.154,0.744 z m -3.262,-1.322 -0.104,0.134 -0.1,-0.036 -0.358,0.31 -0.076,-0.298 -0.282,-0.198 -0.034,-0.156 0.806,-0.102 0.26,0.082 -0.112,0.264 z m 0.03,1.538 0.778,0.282 0.794,-0.08 -0.012,1.234 0.114,0.414 0.222,0.37 -0.114,0.538 0.36,0.184 -1.068,0.612 -0.962,0.812 -0.396,0.546 -0.358,0.586 -0.208,0.62 -0.134,0.666 -0.322,-0.264 -0.928,-1.082 -0.588,-0.296 -0.946,-0.158 -0.3,0.036 -1.944,1.01 -0.258,0.738 -0.53,1.11 -0.252,0.366 -0.28,0.106 -0.198,0.19 -0.216,0.944 -0.602,0.58 -0.37,0.018 -0.628,-0.16 -0.284,0.09 0.376,-0.93 -0.6,-0.114 -0.602,0.02 -0.014,-0.606 -0.364,-0.344 0.27,-0.448 0.008,-0.366 0.158,-0.202 0.054,-0.294 -0.022,-0.252 -0.37,-0.076 -0.226,-0.178 0.042,-0.664 -0.212,-0.024 -0.528,0.116 -1.096,0.512 -0.298,0 0.458,-0.366 0.974,-0.5 0.438,-0.288 0.956,-0.808 0.602,-0.382 0.312,-0.678 0.098,-0.412 0.204,-0.364 0.18,-0.582 0.308,-0.194 0.538,-0.5 0.308,0.048 0.344,0.614 0.462,0.47 0.332,-0.04 0.594,-0.242 0.288,-0.054 0.686,0.03 0.618,-0.298 0.252,-0.352 0.094,-0.44 -0.23,-0.738 0.296,0.074 0.286,-0.03 0.67,-0.47 0.69,-0.28 0.714,-0.07 0.804,0.266 0.778,0.424 z m -28.5,0.898 -0.366,0.274 -0.156,-0.418 0.16,-1.188 0.686,0.244 -0.012,0.364 -0.312,0.724 z m 18.516,0.056 -0.162,0.27 -0.498,-0.082 0.2,-0.234 0.152,-0.284 0.112,-0.058 0.094,0.308 0.102,0.08 z m -1.754,1.146 0.274,0.248 0.65,-0.1 0.08,0.07 -0.19,0.224 -0.288,0.222 -0.52,-0.166 -0.328,-0.008 -0.046,-0.37 0.042,-0.134 0.326,0.014 z m -6.124,2.302 0.754,0.2 0.32,0.012 0.294,-0.09 0.452,-0.262 0.47,-0.194 0.338,0.098 0.298,0.234 0.156,0.33 -0.076,0.344 -0.534,0.74 -0.44,0.788 1.008,0.148 1.008,-0.016 -0.234,0.486 -0.04,0.424 0.308,0.202 0.262,0.272 -0.068,0.246 -0.15,0.242 0.55,0.364 -0.036,0.244 -0.142,0.256 -1.374,1.668 -0.404,0.842 -0.28,0.926 -0.258,0.676 -0.188,0.702 -0.142,0.756 -0.256,0.78 0.086,0.69 -0.086,0.708 -0.69,1.744 -0.492,-0.032 -0.618,-0.21 -0.386,0.032 -0.2,0.386 0.354,0.794 -1.1,0.942 -1.216,0.632 -0.008,-0.288 0.116,-0.226 0.174,-0.182 0.126,-0.22 0.178,-0.74 -0.088,-0.746 -0.368,-0.936 -0.026,-0.336 0.254,-0.136 0.17,-0.04 0.092,-0.13 0.004,-0.31 -0.116,-0.23 -0.348,-0.074 -0.332,-0.004 -0.234,0.348 -0.322,0.67 -0.156,0.678 0.068,0.37 0.142,0.332 0.442,0.554 -0.128,0.328 -0.184,0.254 -1.56,-0.578 -0.338,-0.042 -0.28,-0.122 -0.3,-0.762 0.636,-0.184 0.188,-0.092 0.07,-0.244 0.086,-0.744 -0.296,-0.624 -0.252,-0.222 -0.204,-0.254 0.128,-0.526 -0.084,-0.664 -0.008,-0.928 0.11,-0.16 0.59,-0.188 0.426,-0.498 0.376,-0.568 0.55,-1 0.452,-1.082 -0.434,-0.046 -0.368,-0.204 0.4,-0.512 -0.124,-0.648 -0.6,-0.796 -0.33,-0.94 -0.53,-0.416 -0.28,-0.152 -0.342,0.22 -0.28,0.264 0.26,0.612 -0.032,0.542 0.042,0.536 0.264,0.03 0.326,-0.134 0.26,0.094 0.152,0.282 0.042,0.362 -0.116,0.358 -0.238,0.178 -0.292,-0.014 -0.294,-0.194 -0.23,-0.276 -0.55,-0.152 -0.58,0.326 -0.55,0.664 -0.47,0.336 0.22,-0.492 0.106,-0.532 -0.228,-0.374 -0.54,-0.622 -0.126,-0.36 -0.032,-0.436 0.096,-0.432 0.552,0.496 0.284,0.618 0.408,0.272 0.51,0.002 -0.392,-0.908 -0.14,-0.23 -0.548,-0.408 -0.752,-0.686 -0.476,-0.332 0.168,-0.718 0.282,-0.142 0.236,0.034 0.796,0.254 0.074,-0.358 -0.118,-0.192 -0.06,-0.222 0.526,-0.31 0.858,-0.256 0.176,-0.12 0.152,-0.258 0.21,-0.134 0.6,0.004 0.506,-0.248 0.418,-0.67 0.1,-0.368 0.148,-0.308 1.042,-0.544 0.258,-0.084 0.698,0.068 0.636,0.308 0.314,0.648 0.276,0.692 0.662,0.47 z m -7.74,-0.982 -0.388,0.278 -0.292,-0.216 0.142,-0.6 0.096,-0.2 0.332,0.198 0.11,0.54 z m -1.708,3.524 -0.394,0.314 -0.286,0 0.26,-0.368 0.036,-0.174 0.218,-0.494 0.426,-0.176 0.18,-0.022 -0.348,0.512 -0.092,0.408 z m -2.328,2.548 -0.14,0.072 -0.18,-0.6 -0.126,-0.214 0.21,-0.114 0.422,-1.09 0.076,0.432 0.164,0.428 0.164,0.068 -0.16,0.312 -0.234,0.116 -0.196,0.59 z m 60.42,-1.436 -0.098,0.07 -0.27,-0.218 -0.04,-0.194 0.048,-0.12 0.176,-0.026 0.364,0.238 -0.18,0.25 z m -62.73,1.812 0.218,0.18 0.318,-0.102 0.254,-0.024 0.182,0.086 0.23,0.462 0.084,0.274 -0.41,0.038 -0.174,0.064 -0.224,0.334 -0.322,-0.124 -0.202,-0.158 -0.044,-0.222 0.09,-0.808 z m 7.954,3.67 -0.444,0.236 -0.056,-0.226 -0.188,-0.104 0.322,-0.318 -0.012,-0.144 -0.204,-0.214 0.236,-0.812 -0.064,-0.35 0.886,-0.13 0.162,0.33 0.016,1 -0.654,0.732 z m 1.676,-1.282 -0.496,0.03 -0.206,-0.078 -0.082,-0.21 0.696,-0.426 0.54,0.076 -0.24,0.384 -0.212,0.224 z m -3.72,5.052 -0.176,0.114 0.112,-0.516 0.452,-0.452 0.038,0.292 -0.426,0.562 z m 6.968,8.214 -0.492,0.068 -0.01,-0.376 0.39,-0.848 0.042,-0.624 0.364,-0.788 0.154,-0.172 0.116,-0.062 0.126,0.246 -0.14,0.964 -0.366,0.73 -0.184,0.862 z m -1.89,0.866 -0.642,0.14 -0.352,-0.15 -0.324,-0.798 0.614,-0.5 0.82,0.496 0.168,0.142 -0.284,0.67 z m -6.568,13.146 -0.484,0.514 -0.514,-0.464 -0.62,-0.31 0.294,-0.084 0.172,-0.126 0.018,-0.196 0.402,-0.292 0.796,-0.226 0.254,-0.014 0.286,-0.212 0.094,-0.192 0.118,-0.092 0.514,-0.264 0.14,0.304 -0.024,0.238 -0.386,0.132 -0.376,0.318 -0.35,0.396 -0.312,0.168 -0.1,0.112 0.078,0.29 z m -0.722,0.66 0.038,0.148 -0.55,-0.124 -0.224,-0.578 0.366,0.104 0.112,0.198 0.258,0.252 z m -1.83,2.426 -0.236,0.116 -0.314,-0.16 -0.098,-0.724 0.14,-0.352 0.246,-0.078 0.214,0.626 0.148,0.258 -0.1,0.314 z m -4.15,6.704 -0.542,0.288 -0.2,0.342 -0.5,0.116 -0.486,0.48 -0.472,0.086 0.012,0.386 0.202,0.326 -0.314,0.058 -0.33,0.398 -0.026,0.29 0.118,0.232 -0.016,0.118 -0.416,0.344 -0.43,0.016 -0.018,-0.372 0.028,-0.278 0.406,-0.676 0.01,-0.786 0.376,-0.09 0.136,-0.11 0.594,-0.56 0.11,-0.238 -0.308,-0.232 0.024,-0.274 0.07,-0.116 0.488,0.088 0.198,0.204 0.098,0.022 0.286,-0.152 0.134,-0.272 0.532,-0.536 0.216,-0.532 0.43,0.436 -0.116,0.572 -0.294,0.422 z m 78.186,0.228 -0.104,0.004 -0.352,-0.662 0.102,-0.032 0.206,0.104 0.226,0.382 -0.078,0.204 z m -93.984,11.604 -0.474,0.16 -0.508,-0.094 0.082,-0.858 0.176,0.12 0.11,0.292 0.378,0.172 0.236,0.208 z m -6.462,1.396 -0.33,0.968 -0.274,0.14 -0.28,-0.078 -0.288,-0.54 0.202,-0.208 0.28,0.11 0.226,-0.042 0.514,-0.788 0.124,0.128 -0.174,0.31 z m -2.268,1.444 -0.354,0.086 -0.426,-0.106 -0.388,-0.03 -0.004,-0.182 0.406,-0.188 0.008,-0.262 0.1,-0.142 0.918,0.322 -0.04,0.236 -0.22,0.266 z" title="Japan" id="JP"></path></svg>