<svg xmlns="http://www.w3.org/2000/svg" viewBox="0 0 1955.15 86.20"><path d="m 1951.68,37.32 0.184,0.106 0.14,0.144 0.068,0.2 0,0.05 -0.108,-0.002 -0.13,-0.062 -0.094,-0.084 -0.048,-0.022 -0.02,-0.018 0.112,0.012 0.128,0.084 0.096,0.038 0,-0.098 -0.116,-0.17 -0.068,-0.058 -0.088,-0.05 -0.1,-0.034 -0.068,0.03 -0.038,0.014 -0.02,-0.04 0.02,-0.036 0.036,-0.036 0.12,0.032 z m 3.438,2.062 -0.026,0.042 -0.04,-0.036 0.028,-0.066 0.024,-0.056 0.038,0.03 -0.024,0.086 z m -0.832,7.42 -0.054,0.026 -0.064,-0.008 -0.042,-0.038 0,-0.06 0.052,-0.042 0.074,0.014 0.042,0.054 0,0.054 z m -5.508,0.266 0.036,0.038 0.082,-0.01 0.072,-0.006 -0.044,0.038 -0.148,0.016 -0.072,-0.096 0.09,-0.074 0.08,-0.012 0,0.02 0,0.022 -0.038,0 -0.06,0.018 0,0.046 z m -12.8999,0.918 0.066,0.074 0,0.036 -0.032,-0.006 -0.096,-0.022 -0.032,-0.044 0.07,0.03 0.03,-0.006 -0.064,-0.066 -0.056,-0.048 -0.042,-0.02 0,-0.024 0.052,0.012 0.104,0.084 z m -1935.500004,-47.988 0.448,0.472 -0.086,0.238 -0.324,-0.022 -0.148,-0.084 0.252,-0.042 0.042,-0.088 -0.116,-0.138 -0.154,-0.096 -0.106,0 -0.026,0.19 -0.174,-0.148 0.102,-0.148 0.124,-0.098 0.166,-0.036 z m 1865.240004,4.438 -0.356,0.186 -0.108,-0.03 0.422,-0.264 -0.002,0.032 0.044,0.076 z m -0.704,0.434 -0.416,0.216 -0.112,-0.116 0.15,-0.004 0.28,-0.208 0.338,-0.016 -0.04,0.116 -0.2,0.012 z m -1853.328004,6.674 0.934,0.646 -0.396,0.046 -0.976,-0.312 -0.892,-0.638 0.266,-0.138 0.13,0.23 0.406,0.214 0.24,-0.45 0.158,-0.102 -0.712,-0.464 0.282,0.024 0.674,0.316 -0.114,0.628 z m 1854.306004,0.054 0.028,0.128 -0.32,-0.35 -0.19,-0.226 0.012,-0.098 0.086,0.062 0.106,0.11 0.07,0.088 0.208,0.286 z m 0.062,0.716 -0.204,0.024 0.152,-0.08 0.042,-0.11 -0.024,-0.346 0.08,0.028 0.028,0.142 0.014,0.208 -0.088,0.134 z m 0.048,2.094 -0.15,0.02 0.098,-0.114 0.642,-0.126 0.056,-0.036 0.104,0.07 -0.002,0.066 -0.046,0.034 -0.318,0.002 -0.25,0.06 -0.134,0.024 z m -0.032,1.834 0.302,0.22 -0.04,0.152 -0.102,0.174 -0.394,0.444 -0.12,-0.042 0.384,-0.402 0.148,-0.266 -0.22,-0.204 -0.088,0.044 -0.036,0 -0.076,-0.19 0.076,0 0.166,0.07 z m 8.286,10.12 -0.182,0.152 -0.07,-0.138 0.09,-0.17 -0.152,-0.706 -0.252,-0.096 -0.15,-0.212 0.072,0 0.252,0.194 0.202,0.088 0.118,0.464 0.072,0.424 z m -27.826,0.4 -0.052,0.012 -0.106,-0.058 0.014,-0.072 0.074,-0.032 0.094,0.054 -0.024,0.096 z m 29.31,1.886 0.034,0.288 -0.128,-0.038 -0.042,-0.112 -0.042,-0.29 -0.134,-0.284 0.152,0.076 0.126,0.222 0.034,0.138 z m -1850.762004,16.054 -0.016,0.034 -0.068,-0.044 -0.132,-0.082 -0.112,-0.09 -0.002,-0.038 0.158,-0.054 0.202,-0.042 0.044,0.058 -0.038,0.082 -0.036,0.176 z m -5.094,8.61 -0.13,0.03 -0.152,0 -0.076,-0.074 -0.004,-0.06 0.052,0 0.048,0.01 0.216,0.01 0.056,0.044 -0.01,0.04 z m 22.908,32.8 -0.046,0.09 -0.088,-0.032 -0.052,-0.114 -0.018,-0.124 0.034,-0.1 0.058,0.004 0.066,0.124 0.046,0.152 z" title="Kiribati" id="KI"></path></svg>