<svg xmlns="http://www.w3.org/2000/svg" viewBox="0 0 10.73 10.02"><path d="m 8.12,0.74 -0.028,0.238 0.18,0.71 0.402,0.774 0.33,0.626 0.042,0.294 -0.302,-0.042 -0.23,-0.118 -0.442,-0.124 -0.854,0.83 -0.516,0.452 -0.014,0.154 0.688,0.174 0.506,-0.004 0.352,-0.122 0.298,0.194 0.196,0.512 0.078,0.416 0.468,1.478 0.388,0.498 0.484,0.88 0.18,0.456 0.104,0.382 0.296,0.564 -0.976,0.014 -1.23,0.02 -0.998,0.012 -1.126,0.014 -0.496,-0.602 -0.166,-0.66 -0.18,-0.678 -0.494,-0.968 -1.652,-0.234 -0.878,-0.126 -1.446,-0.184 -1.084,-0.138 0.912,-1.044 0.424,-0.562 0.766,-1.218 0.394,-0.87 0.38,-0.966 0.328,-0.752 0.068,-0.138 0.19,-0.256 0.42,-0.262 0.606,-0.246 1.03,-0.108 0.724,-0.006 0.164,0.012 0.456,0.122 1.258,0.602 z m 1.666,2.306 -0.322,0.144 -0.216,-0.062 -0.208,-0.346 -0.342,-0.86 0.186,-0.322 -0.006,-0.138 0.038,-0.104 0.106,-0.066 0.11,-0.406 0.148,-0.124 0.24,0.274 0.676,0.99 -0.004,0.404 -0.04,0.162 -0.366,0.454 z" title="Kuwait" id="KW"></path></svg>