<svg xmlns="http://www.w3.org/2000/svg" viewBox="0 0 12.17 21.76"><path d="m 1.54,0 0.54,0.03 0.576,-0.014 0.402,0.078 0.692,0.872 1.88,1.56 1.026,1.584 0.092,0.346 0.142,0.3 0.246,0.082 0.208,0.136 1.022,1.528 0.12,0.302 -0.018,0.334 0.06,0.248 0.268,0.124 0.332,0.064 0.218,0.23 0.278,1.218 0,0.38 0.078,0.162 1.288,1.894 0.074,0.23 -0.014,0.172 0.038,0.15 0.25,0.334 0.388,0.902 0.2,0.206 0.236,0.788 0.016,1.506 -0.088,0.668 -0.24,0.816 -0.286,0.796 -0.308,0.576 -0.422,0.486 -1.446,1.034 -0.414,0.208 -1.88,0.648 -1.386,0.612 -1.282,0.166 -1.284,-0.338 -0.964,-0.804 -0.494,-1.186 -0.34,-1.236 -0.49,-1.374 -0.378,-4.248 -0.18,-1.188 -0.292,-1.516 0.03,-0.658 0.208,-0.63 -0.002,1.382 0.192,0.172 0.142,-0.178 0.128,-1.432 0.106,-0.606 0.512,-1.58 0.01,-0.28 -0.088,-0.594 0.004,-0.298 0.764,-1.108 0.196,-0.646 0.106,-0.66 -0.042,-0.714 -0.136,-0.704 0.616,0.224 0.34,0.246 0.346,0.166 0.28,-0.084 0.34,-0.002 -0.242,-0.382 -0.716,-0.354 -1.19,-0.218 -0.372,-0.28 -0.142,-0.244 0.072,-0.284 0.074,-0.12 z m -0.072,1.03 -0.352,0.062 -0.278,-0.376 -0.066,-0.16 0.074,-0.112 0.076,-0.056 0.09,0.018 0.132,0.35 0.324,0.274 z m -0.532,3.278 0.162,0.426 -0.462,-0.292 -0.304,-0.244 -0.11,-0.196 0.63,0.22 0.084,0.086 z" title="Sri Lanka" id="LK"></path></svg>