<svg xmlns="http://www.w3.org/2000/svg" viewBox="0 0 13.13 13.24"><path d="m 9.46,9.74 -0.504,0.16 -0.07,0.012 -0.326,-0.036 -0.432,0.038 -0.338,0.088 -0.264,0.034 -0.43,0.458 -0.784,1.236 -0.208,0.26 -0.056,0.488 -0.182,0.386 -0.224,0.3 -0.216,0.074 -0.652,-0.12 -0.836,-0.154 -0.486,-0.374 -0.432,-0.492 -0.226,-0.358 -0.24,-0.196 -0.082,-0.11 -0.338,-0.164 -0.128,-0.086 -0.114,-0.062 -0.136,-0.236 -0.082,-0.206 0.032,-0.574 -0.24,-0.342 -0.41,-0.582 -0.258,-0.478 -0.354,-0.652 -0.218,-0.556 -0.224,-0.576 0.03,-0.248 0.214,-0.168 0.63,-0.29 0.488,-0.224 0.35,-0.41 0.382,-0.612 0.186,-0.366 0.186,-0.168 0.202,-0.258 0.354,-0.574 0.394,-0.636 0.422,-0.682 0.532,-0.198 0.726,-0.228 0.7,-0.596 0.832,-0.5 1.342,-0.544 0.626,-0.138 0.24,-0.08 0.15,0.104 0.16,0.31 0.228,0.262 0.53,0.452 0.224,0.11 0.548,0.672 0.584,0.46 0.674,0.532 0.458,0.264 0.236,0.074 0.192,0.472 0.198,0.35 0.11,0.328 -0.022,0.32 -0.212,0.784 -0.31,0.802 -0.25,0.332 -0.304,0.212 -0.296,0.318 -0.114,0.644 -0.134,0.758 -0.388,0.312 -0.3,0.206 -0.418,0.252 z" title="Lesotho" id="LS"></path></svg>