<svg xmlns="http://www.w3.org/2000/svg" viewBox="0 0 4.31 6.26"><path d="m 2.2,0.4 -0.044,0.234 0.008,0.522 0.158,0.522 0.376,0.516 0.286,0.372 0.386,0.298 0.652,0.282 0.26,0.06 0.036,0.382 -0.05,0.404 -0.226,0.222 -0.212,0.322 -0.16,0.39 -0.166,0.75 -0.024,0.518 -0.376,-0.214 -0.198,-0.146 -0.344,-0.04 -0.342,0.12 -0.256,0.262 -0.354,0.08 -0.29,-0.08 -0.172,-0.196 -0.154,-0.106 -0.438,-0.132 -0.19,-0.286 0.146,-0.134 0.124,-0.212 0.106,-0.298 0.134,-0.274 -0.43,-0.758 -0.09,-0.232 -0.352,-0.426 0.004,-0.218 0.084,-0.206 -0.032,-0.162 0.05,-0.382 0.248,-0.362 0.164,-0.448 0.278,-0.612 0.614,-0.736 0.44,0.114 0.194,-0.004 0.116,0.27 z" title="Luxembourg" id="LU"></path></svg>