<svg xmlns="http://www.w3.org/2000/svg" viewBox="0 0 10.73 12.74"><path d="m 4.26,0.08 -0.014,0.094 0.026,0.278 0.126,0.27 0.446,0.276 0.654,0.548 0.768,1.004 0.352,0.296 0.318,0.074 0.618,0.414 0.432,0.102 0.482,0.114 1.256,0.866 0.566,0.252 0.4,0.326 0.044,0.306 -0.018,0.19 -0.726,0.22 -0.126,0.338 -0.352,-0.04 -0.426,-0.002 -0.138,0.214 0.204,0.352 0.132,0.412 -0.106,0.566 -0.036,0.074 -0.102,-0.02 -0.6,0.328 -0.444,0.154 -0.402,0.078 -0.19,-0.158 -0.094,-0.214 0.018,-0.62 -0.074,-0.21 -0.136,-0.102 -0.276,0.146 -0.318,0.482 -0.298,0.556 -0.446,0.58 -0.368,0.556 -0.396,0.702 -0.27,0.578 0.28,0.328 0.172,0.452 -0.052,0.34 0.05,0.198 -0.088,0.594 -0.016,0.374 -0.876,-0.598 -0.36,-0.842 -1.28,-1.426 -1.466,-0.972 -0.078,-0.154 0.08,-0.188 0.07,-0.148 -0.306,-0.012 -0.212,0.12 -0.204,-0.034 -0.228,-0.366 -0.216,-0.316 -0.01,-0.28 0.098,-0.036 0.146,-0.112 0.31,-0.31 0.062,-0.164 -0.016,-0.248 -0.434,-0.784 -0.062,-0.51 -0.062,-0.95 0.092,-0.224 0.158,-0.11 0.758,-0.118 -0.01,-0.742 0.046,-0.224 0.152,-0.308 0.096,-0.282 0.422,-0.406 0.572,-0.482 0.25,-0.016 0.218,0.068 0.248,0.416 0.27,-0.054 0.056,-0.5 -0.354,-0.654 -0.188,-0.418 0.058,-0.232 0.132,-0.122 0.306,0.076 0.29,0.116 0.182,-0.078 0.29,-0.06 z" title="Montenegro" id="ME"></path></svg>