<svg xmlns="http://www.w3.org/2000/svg" viewBox="0 0 27.57 30.28"><path d="m 0.26,0.08 -0.146,0.04 -0.11,-0.04 0.08,-0.074 0.164,-0.012 0.062,0.02 -0.05,0.066 z m 10.89,21.722 -0.082,0.086 -0.542,-0.052 -0.248,-0.108 0.024,-0.082 0.428,0.078 0.42,0.078 z m 12.75,0.96 0.704,0.288 0.936,-0.134 -0.15,0.086 -0.35,0.08 -0.232,0.07 -0.156,0 -0.186,-0.028 -0.6,-0.2 -0.336,-0.264 0.082,-0.088 0.288,0.19 z m 2.668,0.506 0.208,0.122 0.414,-0.008 0.382,0.31 -0.146,-0.02 -0.208,-0.132 -0.19,-0.056 -0.256,0.016 -0.12,-0.05 -0.084,-0.182 z m -10.902,6.836 -0.112,0.168 -0.138,-0.012 0.122,-0.126 0.084,-0.176 0.134,-0.5 0.278,-0.178 0.192,-0.208 -0.046,0.216 -0.3,0.226 -0.214,0.59 z" title="Marshall Islands" id="MH"></path></svg>