<svg xmlns="http://www.w3.org/2000/svg" viewBox="0 0 92.70 87.21"><path d="m 92.66,35.26 0.004,1.032 0.004,1.554 0.006,1.73 0.004,1.592 0.006,1.812 0.006,1.454 0.004,1.718 0.006,1.706 -0.178,0.196 -0.066,0.958 -0.05,1.26 -0.342,1.304 -0.598,0.96 -0.216,0.912 -0.164,0.522 -0.224,0.284 -0.052,0.34 -0.118,0.48 -0.19,0.31 -0.148,0.16 -0.602,0.188 -1.06,0.918 -0.092,0.734 -1.208,-0.202 -1.284,-0.208 -0.172,0.014 -0.108,0.096 -0.052,0.388 -1.748,0.064 -1.508,0.056 -1.868,0.064 -1.284,0.044 -1.628,0.088 -1.51,0.082 -1.004,0.844 -0.906,0.804 -0.072,0.028 -1.284,0.158 -1.602,-0.14 -0.824,-0.008 -0.324,0.096 -0.062,0.302 -1.18,-0.424 -1.364,-0.43 -0.952,0.27 -0.152,-0.092 -0.124,-0.18 -0.46,-0.104 -0.73,0.046 -0.528,0.128 -0.828,0.636 -0.624,0.554 -0.17,0.126 -0.872,0.336 -1.62,0.78 -0.92,0.574 -0.212,0.104 -0.408,0.13 -0.628,0.026 -0.524,0.144 -0.472,1.508 -0.314,0.15 -1.932,-0.608 -0.39,0.09 -0.336,0.178 -1.078,0.884 -0.534,0.708 -0.292,0.94 0.042,0.29 0.008,0.328 -0.19,0.178 -0.26,0.064 -0.234,-0.01 -0.896,-0.194 -0.28,0.084 -0.122,0.464 0.018,1.012 -0.196,0.688 -0.532,0.212 -0.412,0.272 -0.324,0.078 -0.27,-0.066 -1.558,-1.028 -0.526,-0.164 -0.584,0.114 -0.56,0.436 -0.254,0.286 -0.35,0.338 -0.394,0.45 0.104,0.38 0.278,0.442 0.198,0.548 -0.01,0.49 -1.422,0.696 0.116,0.238 0.214,0.28 0.002,0.506 -0.04,0.886 -0.288,0.32 -0.372,0.316 -0.23,0.406 -0.226,0.2 -0.404,0.25 -0.554,0.252 -0.96,0.22 -0.768,0.148 -0.29,0.144 -0.408,0.296 -0.326,0.356 -0.078,0.384 0.066,0.44 0.114,0.36 0.142,0.246 0.086,0.31 -0.116,0.834 -0.278,0.966 -0.268,0.43 -0.43,0.236 -0.372,0.264 0.122,0.632 0.064,0.906 -0.104,0.724 -0.018,0.446 -0.158,0.464 -0.092,0.326 -0.186,-0.08 -0.772,0.038 -0.84,0.248 -0.294,0.198 -0.064,0.27 -0.186,0.182 -0.268,0.204 -0.258,0.25 -0.464,-0.04 -0.448,-0.172 -0.234,-0.166 -0.014,-0.1 0.146,-0.244 0.126,-0.266 0.012,-0.176 -0.152,-0.432 -0.124,-0.464 0.05,-0.222 -0.11,-0.684 -0.06,-0.034 -0.588,0.176 -0.214,0.044 -0.122,0.076 -0.04,0.13 0.142,0.434 -0.092,0.074 -0.33,-0.01 -0.46,-0.144 -0.502,-0.398 -0.126,0.13 -0.054,0.316 -0.034,0.374 0.128,0.68 -0.134,0.242 -0.336,-0.044 -0.452,0.002 -0.394,0.066 -0.262,0.016 -0.162,0.242 -0.07,0.272 0.158,0.3 -0.024,0.128 -0.122,0.116 -0.154,0.07 -0.128,-0.008 -0.364,-0.334 -0.436,-0.124 -1.014,-0.192 -0.122,-0.456 -0.168,-0.008 -0.234,-0.24 -0.232,-0.318 -0.196,0.016 -0.164,0.09 -0.556,-0.036 -0.494,0.482 -0.366,0.6 -0.392,0.288 -0.432,0.126 -0.166,0.004 0.09,-0.378 -0.062,-0.278 -0.122,-0.246 -1.258,-0.658 -0.196,-0.272 -0.198,-0.748 -0.126,-0.748 0.014,-0.438 0.086,-0.394 -0.036,-0.304 -0.138,-0.232 -0.378,-0.224 -0.392,-0.104 -0.5,0.292 -0.24,0.056 -0.224,-0.02 -0.116,-0.108 0.016,-0.15 0.544,-0.802 0.264,-0.334 0.318,-0.256 0.214,-0.136 0.138,-0.196 0.012,-0.156 -0.05,-0.112 -0.354,-0.148 -0.552,-0.374 -0.294,-0.04 -0.246,-0.17 -0.26,-0.586 -0.122,-0.112 -0.26,-0.06 -0.24,-0.144 0.012,-0.762 0.01,-0.658 -0.536,-1.06 -0.208,-0.668 -0.27,-0.688 -0.248,-0.322 -0.434,-0.27 -0.534,-0.188 -0.474,-0.044 -0.364,0.064 -0.17,0.084 0.008,0.128 0.296,0.434 0.054,0.242 -0.05,0.234 -0.1,0.156 -0.262,0.018 -0.46,0.134 -0.566,0.264 -0.396,0.226 -0.318,0.572 -0.22,0.072 -0.374,-0.072 -1.066,-0.422 -0.878,-0.348 -0.606,-0.2 -0.364,0.128 -0.186,0.062 -0.522,0.232 -0.694,0.846 -0.166,0.28 -0.138,0.09 -0.188,0.148 -0.18,0.004 -0.144,-0.1 -0.046,-0.062 -0.356,-0.61 -0.39,-0.672 -0.32,-0.304 -0.402,-0.014 -0.342,0.21 -0.358,0.432 -0.45,0.4 -0.286,0.12 -0.25,-0.066 -0.614,-0.504 -0.438,-0.36 -0.054,-0.18 0.154,-0.276 0.152,-0.412 0.166,-0.334 0.16,-0.154 0.04,-0.426 -0.372,-0.302 -0.012,-0.146 0.038,-0.4 0.166,-0.846 -0.016,-0.322 0.15,-0.63 -0.244,-0.284 -0.056,-0.21 -0.274,-0.336 -0.314,-0.476 -0.072,-0.382 -0.11,-0.304 -0.302,-0.458 -0.22,-0.072 -0.472,-0.07 -0.078,0.158 -0.174,0.228 -0.16,0.066 -0.258,-0.28 -0.098,-0.24 0.002,-0.218 -0.35,-0.382 -0.544,-0.7 0.056,-0.578 0.336,-0.312 0.1,-0.236 0.03,-0.264 -0.152,-0.32 -0.18,-0.252 0.05,-0.558 -0.044,-0.776 -0.276,-0.388 -0.25,-0.284 -0.35,-0.306 -0.298,-0.472 0.12,-0.648 0.114,-0.446 -0.528,-0.926 0.988,0.366 0.13,-0.12 0.336,-0.224 0.454,-0.472 0.38,-0.626 0.172,-0.774 0.076,-0.668 0.17,-0.566 0.216,-0.48 0.472,-0.5 0.444,-0.354 0.528,-0.368 0.268,0.066 0.502,0.514 1.102,1.03 0.91,0.784 0.332,0.416 0.294,0.004 0.452,-0.76 0.468,-0.654 0.198,-0.16 0.616,-0.072 0.524,-0.028 0.458,0.012 0.84,0.126 0.384,0.116 0.36,0.07 1.056,0.058 1.046,-0.16 0.994,-0.206 0.736,-0.122 0.038,-0.31 -0.042,-0.366 0.118,-0.278 0.232,-0.258 0.196,-0.058 0.084,0.88 0.234,0.132 0.656,0.038 1.066,0 1.144,0 1.144,0 1.146,0 1.144,0 1.144,0 1.146,0 1.144,0 1.146,0 1.144,0 1.144,0 1.144,0 1.146,0 1.144,0 1.146,0 1.144,0 1.146,0 1.186,0 0.32,-1.698 0.292,-1.558 0.244,-1.308 -0.84,-0.924 -0.668,-0.736 -0.156,-1.404 -0.158,-1.45 -0.16,-1.452 -0.162,-1.454 -0.158,-1.456 -0.16,-1.458 -0.16,-1.46 -0.16,-1.462 -0.16,-1.464 -0.16,-1.468 -0.16,-1.468 -0.16,-1.47 -0.16,-1.474 -0.158,-1.476 -0.16,-1.478 -0.162,-1.482 -0.158,-1.482 -0.16,-1.486 -0.16,-1.488 -0.16,-1.49 -0.16,-1.494 -0.16,-1.494 -0.16,-1.5 -0.16,-1.5 -0.16,-1.504 -0.158,-1.506 -0.16,-1.51 -0.16,-1.512 -0.16,-1.516 -0.16,-1.518 -0.16,-1.52 -0.16,-1.524 -0.16,-1.528 -0.15,-1.402 1.724,0 1.838,-0.002 1.79,0 2.626,-0.002 1.966,0 1.714,1.176 1.554,1.11 1.838,1.314 1.838,1.312 1.84,1.31 1.838,1.306 1.838,1.304 1.836,1.304 1.84,1.298 1.838,1.3 1.838,1.296 1.838,1.294 1.838,1.292 1.838,1.29 1.838,1.288 1.838,1.286 1.838,1.284 1.838,1.284 0.822,0.572 0.076,0.236 0.076,0.482 -0.048,0.542 0.008,0.442 0.242,0.298 0.458,0.32 1.798,0.944 0.142,0.186 0.064,0.39 0.214,0.478 0.38,0.28 0.444,0.206 0.542,0.144 1.63,0.148 0.346,0.222 0.704,0.87 0.382,0.172 1.086,0.25 0.786,0.14 0.324,0.08 0.712,0.232 0.774,0.396 0.41,0.358 0,0.112 -0.004,0.312 -0.006,0.934 0.142,0.514 0.162,0.372 -0.008,0.226 -0.196,0.16 -0.152,0.198 -0.084,0.26 -0.222,0.33 -0.178,0.368 0.076,0.276 0.306,0.18 0.458,0.35 0.38,0.148 0.186,0.01 0.248,-0.01 0.214,-0.046 1.372,-0.268 1.272,-0.25 z" title="Mali" id="ML"></path></svg>