<svg xmlns="http://www.w3.org/2000/svg" viewBox="0 0 50.33 110.75"><path d="m 50.28,42.86 -0.33,0.592 -0.858,0.614 -0.606,0.312 -0.354,0.008 -0.3,0.368 -0.246,0.724 -0.256,0.424 -0.264,0.126 -0.17,0.274 -0.08,0.42 0.152,0.224 0.384,0.03 0.03,0.118 -0.324,0.206 -0.404,0.072 -0.48,-0.062 -0.458,0.166 -0.432,0.39 -0.368,0.842 -0.304,1.292 -0.04,0.332 -0.668,-0.376 -0.278,-0.212 -0.358,-0.054 -0.368,0.238 -0.292,0.258 -0.298,0.094 -0.458,0.03 -0.6,-0.134 -0.408,-0.12 -0.062,0.066 0.222,0.544 0.078,0.434 -0.088,0.226 -0.194,0.188 -0.292,0.148 -0.344,0.086 -0.304,-0.008 -0.486,-0.206 -0.372,-0.008 -0.318,0.102 -0.194,0.152 -0.108,0.19 -0.188,1.072 -0.164,0.334 -0.23,0.19 -0.23,0.02 -0.316,-0.052 -0.33,0.044 -1.498,0.414 -0.218,0.04 -0.468,0.032 -0.436,0.012 -0.306,-0.02 -0.718,-0.424 -0.348,-0.044 -0.192,0.12 -0.132,0.568 -0.42,0.362 -0.56,0.786 -0.128,1.148 0.056,0.8 -0.502,0.792 -0.046,0.382 0.27,1.832 -0.044,0.192 -0.104,0.094 -0.314,0.064 -0.53,0.192 -0.35,0.182 -0.168,0.02 -0.494,-0.136 -0.128,-0.002 0.038,0.14 0.394,0.792 0.408,0.376 0.426,-0.042 0.184,0.074 -0.054,0.19 0.164,0.496 0.38,0.8 0.116,0.6 -0.232,0.596 0.042,0.214 0.126,0.126 0.36,0.554 0.766,0.866 0.75,0.936 0.626,0.78 0.458,0.54 1.024,1.002 0.182,0.47 0.04,0.948 0.252,0.548 0.234,0.392 0.162,0.328 0.376,1.072 0.16,0.144 0.82,-0.652 0.19,0.136 0.108,0.246 0,0.312 -0.128,0.354 -0.266,0.328 -1.268,0.756 -0.104,0.65 -0.088,0.986 -0.022,1.21 0.062,0.904 -0.046,0.208 -0.112,0.098 -0.478,-0.04 -0.688,0.456 -0.244,0.04 -0.302,0.174 -0.23,0.216 -0.074,0.328 0.136,0.992 0.246,0.93 0.482,0.682 0.382,0.54 0.534,0.75 0.42,0.652 0.85,0.714 1.192,1.068 0.456,0.59 0.402,0.714 0.284,0.61 0.108,0.808 0.088,0.452 0.026,1.512 -0.218,0.344 -0.168,0.398 0.094,0.416 0.278,0.398 0,0.454 0.26,0.814 0.436,0.498 0.42,0.334 0.186,0.264 -0.06,0.424 0.124,0.45 0.092,0.49 0.17,0.678 0.338,0.574 0.514,1.758 -0.012,0.18 -0.222,0.356 -0.324,0.322 -0.208,0.104 -0.198,0.332 -0.47,0.938 -0.948,1.616 -0.924,1.052 -0.778,0.748 -0.562,0.454 -0.166,0.27 0,0.212 0.102,0.376 -0.04,0.716 -0.12,0.454 -0.16,0.48 -0.09,0.428 -0.25,0.064 -0.536,0.816 -0.232,-0.41 -0.136,-0.426 0.146,-0.966 -0.326,-1.83 0.204,-0.244 0.194,-0.124 0.356,-0.702 0.43,-0.696 0.042,-0.832 0.348,-0.61 -0.082,-0.51 0.018,-0.598 0.074,-0.49 -0.028,-0.402 0.276,-0.416 0.478,-0.312 -0.2,-0.112 -0.2,-0.228 -0.626,0.346 -0.32,-0.114 -0.064,-0.36 0.08,-0.386 0.032,-0.234 0.25,-0.264 -0.018,-0.516 -0.126,-0.454 0.182,-0.562 -0.37,-0.002 -0.17,-0.114 0.106,-0.312 0.336,-0.276 -0.306,-0.528 0.226,-0.566 -0.008,-0.7 -0.154,-0.618 0.008,-0.444 -0.236,-0.788 -0.108,-1.008 -0.498,-0.75 -0.37,-1.094 -0.988,-1.432 0.018,-0.614 -0.052,-0.54 -0.216,-0.262 -0.286,1.91 -0.218,-0.376 -0.07,-1.066 -0.142,-0.506 0.154,-1.006 -0.572,-1 -0.122,-0.726 -0.376,-1.102 0.11,-0.248 0.502,0.248 -0.462,-0.642 -0.376,0.144 -0.32,-0.694 -0.07,-1.882 -0.314,-0.704 0.172,-0.718 -0.358,-2.576 -0.708,-0.836 0.14,-0.72 0.176,-0.64 -0.04,-1.184 0.174,-0.366 0.344,-0.28 -0.322,0.098 -0.274,0.084 -0.642,0.07 -0.726,0.014 -0.252,-0.866 -0.356,-0.416 -0.312,-0.87 -0.188,-0.99 0.122,-0.194 -0.56,-0.404 -0.144,-0.248 -0.586,-0.644 -0.666,-0.49 0.148,0.344 0.18,0.218 -0.332,0.596 0.324,1.004 -0.284,0.64 -0.266,0.832 -0.254,0.396 -0.802,0.852 -0.65,0.288 -0.424,0.054 -0.376,-0.09 -0.46,-0.44 -0.112,-0.368 -0.074,-0.618 -0.162,-0.088 -0.174,0.072 0.272,0.798 -0.004,0.372 0.49,0.716 -0.174,0.2 -0.888,0.392 -0.302,-0.064 -0.214,0.078 -0.058,0.322 -0.112,0.18 -1.398,0.492 -0.292,0.554 -0.18,0.562 -0.696,0.806 -0.932,0.666 -0.23,-0.038 -0.264,-0.156 0.036,-0.72 0.32,-0.61 -0.102,-0.652 -0.078,0.374 -0.602,0.908 -0.274,0.296 -0.552,-0.078 -0.764,0.122 -0.288,-0.932 0.006,-0.342 -0.056,-0.29 0.088,-0.306 -0.028,-0.244 -0.184,0.466 -0.07,0.404 -0.28,0.36 -0.766,0.386 -0.032,-0.49 -0.026,-0.442 0.164,-0.398 -0.024,-0.63 0.244,-0.912 -0.02,-0.312 -0.074,-0.346 -0.136,0.502 -0.078,0.52 -0.154,0.158 -0.282,0.118 -0.516,0.596 -0.302,0.534 -0.8,0.504 -0.422,-0.052 -0.054,-0.64 0.32,-2.27 0.314,-0.32 0.146,-0.394 0.262,-1.33 0.294,-0.502 0.116,-1.056 0.12,-0.182 0.394,-0.83 0.136,-1.524 -0.162,-0.758 -0.37,-0.736 -0.356,-2.212 -0.928,-1.796 -0.076,-0.6 -0.458,-0.726 0.422,-0.052 -0.868,-0.636 -0.12,-0.26 -0.174,-1.492 0.034,-0.834 -0.126,0.11 -0.118,0.514 -0.34,0.21 0.152,0.89 -0.04,0.216 -0.18,0.346 -0.724,-0.36 -0.532,-0.392 -0.602,-0.954 -0.59,-1.07 0.208,-0.166 0.272,-0.02 0.838,0.796 0.542,0.166 0.344,-0.198 0.426,-0.34 0.204,-0.66 -0.208,-0.242 -0.41,-0.132 -0.27,-0.178 -0.392,-0.448 -0.048,-0.228 -0.122,-0.292 -0.396,-0.206 -0.32,-0.262 0.27,-0.462 0.266,-0.344 -0.704,0.016 -0.8,-0.592 -0.166,-0.172 -0.266,-0.118 -0.63,-0.07 -0.524,0.174 0.238,0.846 -0.046,0.28 -0.344,-0.042 -0.716,-1.288 0.216,-0.326 0.308,-0.306 -0.152,-0.044 -0.298,0.02 0.292,-1.144 -0.178,-0.17 -0.092,0.358 -0.158,0.344 -0.61,0.808 -0.302,-0.152 -0.208,-0.202 0.292,-0.424 0.158,-0.114 0.11,-0.228 -0.226,-0.444 -0.36,-0.324 -0.288,-0.558 -0.15,-0.008 0.132,0.658 -0.054,0.94 -0.644,-1.038 -1.29,-1.476 -0.304,-0.444 -0.068,-0.434 -0.144,-0.4 -0.1,-0.438 -0.022,-0.338 -0.28,-0.306 -0.126,-0.536 -0.07,-0.544 0.16,-0.388 0.402,-0.418 0.286,-0.074 0.236,0.184 0.556,0.276 0.376,0.258 0.166,0.338 0.176,-0.042 0.178,-0.216 -0.036,-0.266 -0.18,-0.7 -0.05,-0.85 -0.008,-1.992 -0.044,-0.228 0.31,-0.2 0.126,-0.228 0.126,-0.34 0.08,-0.15 0.18,-0.01 0.284,0.166 0.464,0.57 0.31,0.128 0.308,-0.09 0.322,-0.854 0.118,-0.232 0.156,-0.152 0.286,0.026 0.166,-0.154 0.062,-0.37 -0.002,-0.412 -0.318,-1.128 -0.096,-0.522 -0.052,-0.514 0.2,-0.53 0.272,-0.62 -0.064,-0.542 0.074,-0.21 0.222,-0.03 0.278,0.13 0.306,-0.09 0.232,-0.332 0.094,-0.29 0.14,-1.254 0.094,-1.15 0.04,-0.938 -0.238,-0.562 -0.366,-1.512 0.106,-0.258 0.166,-0.06 0.542,0.53 0.234,0.088 0.394,-0.082 0.388,-0.118 0.282,-0.008 0.406,0.182 0.558,0.202 0.874,0.25 0.358,0.188 0.296,-0.026 0.24,-0.588 0.278,-0.858 0.412,-1.278 0.472,-0.93 0.126,-0.248 0.526,-0.758 0.51,-0.796 0.446,-1.006 0.248,-0.726 -0.022,-0.302 -0.16,-0.25 -0.334,-0.16 -0.276,-0.166 -0.076,-0.15 0.008,-0.17 0.142,-0.472 0.242,-0.558 0.252,-0.302 0.662,-0.374 0.422,-0.482 0.476,-0.638 0.258,-0.434 0.13,-0.884 0.142,-0.176 0.292,-0.286 0.222,-0.334 -0.018,-0.182 -0.118,-0.13 -0.22,-0.62 -0.102,-0.972 0.048,-0.79 0.166,-0.322 0.22,-0.448 0.408,-0.276 0.582,-0.192 0.89,-0.524 1.542,-1.216 0.556,-0.396 0.38,-0.206 0.37,-0.51 0.508,-0.558 0.726,-0.278 0.466,-0.108 2.2,-0.382 0.37,0.048 0.372,0.222 0.462,0.744 0.41,0.28 0.476,0.196 0.358,-0.084 0.01,-0.3 -1.132,-1.736 -0.102,-0.474 -0.04,-0.454 0.128,-0.36 0.354,-0.344 0.488,-0.388 0.608,-0.486 0.382,-0.336 0.45,-0.108 0.162,-0.194 0.046,-0.282 -0.024,-0.308 -0.206,-0.348 0.042,-0.438 0.068,-0.398 0.192,-0.232 0.42,-0.63 0.26,-0.456 0.136,-0.194 0.202,-0.342 0.344,-0.042 0.336,0.108 0.2,0.194 0.2,0.396 0.218,0.324 0.268,0 0.272,-0.046 0.126,0.044 0.26,0.27 0.496,0.648 0.22,0.164 0.208,0.276 0.11,0.552 0.068,0.554 0.622,1.922 0.186,0.404 0.138,0.308 0.29,0.076 0.236,-0.308 0.092,-0.33 0.244,-0.112 0.292,0.06 0.536,0.308 0.288,0.166 0.144,0.948 0.032,1.11 -0.042,0.344 0.234,0.914 0.072,1.048 0.05,0.574 0.006,0.546 -0.042,0.716 -0.126,0.958 -0.21,0.818 0.076,0.68 -0.126,0.31 -0.512,0.158 -0.044,0.26 0.15,0.426 0.358,0.534 0.01,0.336 -0.174,0.228 -0.376,0.022 -0.522,0.212 -0.36,0.688 -0.38,0.564 -0.208,0.112 -0.696,-0.16 -0.166,0.144 -0.244,0.96 -0.2,0.414 -0.298,0.348 -0.274,0.206 -0.248,0.144 -0.552,-0.096 -0.292,0.578 -0.292,0.762 -0.024,0.394 0.152,0.62 -0.08,0.172 -0.298,0.134 -0.49,0.278 -0.302,0.882 0.012,0.856 0.18,0.292 0.338,0.128 0.242,0.262 0.024,0.412 0.208,0.514 -0.098,0.598 -0.688,0.87 -0.02,0.474 0.366,0.146 0.316,-0.068 0.39,-0.206 0.458,-0.332 1.008,-0.484 1.098,-0.276 0.868,-0.052 0.742,0.02 0.364,0.102 0.11,0.178 1.016,-0.282 0.212,-0.016 0.184,-0.016 -0.006,0.188 -0.744,0.774 -0.138,0.36 0.024,0.386 0.304,0.358 0.294,0.276 0.25,0.692 -0.194,0.632 0.124,0.23 0.218,0.258 0.132,0.364 0.018,0.442 -0.124,0.706 1.074,0.368 0.928,0.166 0.676,0.044 0.434,0.162 0.262,0.14 0.184,0.252 0.054,0.276 -0.226,0.194 -0.458,0.618 -0.264,0.826 0.028,0.618 -0.032,0.536 -0.532,0.772 -0.21,0.53 -0.186,0.542 0.006,0.236 0.11,0.164 0.226,0.096 0.392,0.058 0.48,-0.062 1.144,0.13 1.306,0.238 0.518,0.13 0.17,0.24 -0.042,0.522 -0.082,0.486 0.084,0.374 0.21,0.342 0.354,0.114 0.304,0.132 0.058,0.262 -0.094,0.356 0.154,0.28 0.174,0.184 0.376,0.106 0.762,-0.228 0.534,0.102 0.482,0.156 0.41,-0.082 0.406,-0.2 0.888,-0.902 1.034,-0.488 0.34,-0.116 0.228,0.058 0.056,0.062 -0.014,0.184 0.108,0.742 -0.044,0.088 z m -45.628,9.808 0.074,0.564 -0.27,-0.232 -0.352,-0.784 0.01,-0.514 0.252,0.24 0.286,0.726 z m 2.704,0.186 0.122,0.818 -0.384,-0.306 -0.142,-0.422 -0.038,-0.432 0.442,0.342 z m 1.252,1.982 0.642,0.49 0.256,-0.034 0.398,0.31 0.01,0.122 -0.076,0.252 -0.18,0.198 -0.486,0.198 -0.334,-0.16 -0.132,-0.536 -0.392,-0.252 -0.102,-0.214 0.248,-0.292 0.148,-0.082 z m -0.134,5.16 -0.094,0.05 -0.584,-0.494 -0.462,-0.636 0.734,-0.126 0.708,0.138 0.004,0.338 -0.152,0.544 -0.154,0.186 z m 21.802,14.22 -0.212,0.076 -0.318,-0.38 -0.064,-0.904 0.266,-0.208 0.142,-0.05 0.208,0.112 0.08,0.146 0.036,0.182 -0.056,0.186 -0.082,0.84 z m -17.39,1.784 -0.366,0.566 -0.134,-0.846 0.594,-0.47 0.294,-0.45 0.31,-0.306 0.098,0.374 -0.294,0.708 -0.502,0.424 z m 1.842,0.734 -0.116,0.148 -0.23,-0.106 -0.054,-0.064 0.53,-0.638 0.056,0.238 -0.186,0.422 z m 19.704,15.672 -0.036,0.94 -0.282,-0.454 -0.046,-0.518 0.022,-0.482 0.06,-0.078 0.018,0.074 0.168,0.216 0.096,0.302 z m 0.552,2.866 0.126,0.158 0.18,-0.004 -0.05,0.558 -0.44,0.686 -0.262,0.1 -0.116,0 0.098,-1.002 -0.162,-0.572 0.054,-0.38 0.472,0.176 0.1,0.28 z m -1.952,1.188 -0.034,0.208 -0.324,0.426 -0.286,-0.248 -0.072,-0.134 0.29,-0.274 0.308,0.04 0.082,-0.062 0.036,0.044 z m 0.396,1.368 -0.066,0.032 -0.092,-0.018 -0.186,-0.092 -0.214,-0.388 0.114,-0.272 0.078,-0.066 0.188,0.022 0.1,0.052 0.034,0.1 -0.054,0.214 0.008,0.184 0.09,0.232 z m 2.13,1.398 -0.234,0.032 -0.112,-0.922 0.066,-0.132 0.332,0.452 0.472,0.276 -0.186,0.18 -0.338,0.114 z m -2.474,1.212 0.044,0.316 -0.35,-0.336 -0.06,-0.936 0.276,0.59 0.12,0.134 -0.03,0.232 z m 2.684,-0.3 -0.142,1.174 -0.356,-0.162 -0.17,0 -0.212,-0.664 0.016,-0.178 -0.128,-0.436 0.826,-0.076 0.166,0.342 z m -1.864,1.52 -0.032,0.128 -0.038,-0.004 -0.126,-0.09 0.078,-0.54 0.212,-0.442 0.218,-0.648 0.122,-0.14 0.044,0.342 -0.134,0.734 -0.114,0.4 -0.23,0.26 z m 1.798,2.936 -0.128,0.012 -0.118,-0.028 -0.116,-0.088 0.276,-0.61 0.086,0.714 z m -1.864,0.05 0.468,0.982 -0.05,0.152 -0.072,0.076 -0.112,-0.026 -0.188,-0.53 -0.352,-0.342 -0.422,0.064 0.35,-0.434 0.138,-0.098 0.24,0.156 z m -0.152,5.78 -0.272,0.33 -0.092,-0.014 0.126,-0.548 0.452,-0.4 0.398,-0.036 -0.044,0.248 -0.292,0.304 -0.276,0.116 z" title="Myanmar" id="MM"></path></svg>