<svg xmlns="http://www.w3.org/2000/svg" viewBox="0 0 180.48 86.49"><path d="m 162.44,20.4 -0.526,1.204 -1.052,2.404 -0.89,2.024 -0.472,1.136 -0.344,0.864 -0.358,0.818 -0.052,0.49 -0.402,0.788 -0.748,0.95 -0.162,1.028 0.03,0.922 -0.064,0.824 -0.82,0.522 -0.642,0.464 0.184,1.556 0.33,0.586 0.534,0.632 0.562,0.506 0.486,0.426 0.536,-0.204 0.454,-0.65 0.876,-0.572 0.486,-0.014 0.34,0.132 0.76,0.038 0.778,-0.208 0.61,-0.044 0.788,0.14 0.284,0.136 0.662,0.252 0.714,0.55 0.5,0.614 0.364,0.118 0.186,-0.196 0.4,-0.546 0.562,-0.526 0.682,-0.864 0.514,-0.664 0.404,-0.102 0.78,0.002 0.35,-0.16 0.59,-0.084 0.522,0.246 1.452,0.13 0.39,0.34 0.688,1.01 0.39,0.538 0.676,0.27 0.408,0.186 0.362,0.144 0.36,0.26 0.086,0.314 0.146,0.48 0.22,0.276 0.41,0.272 0.312,0.164 0.098,0.346 0.098,0.17 0.286,0.242 0.842,1.032 0.41,0.276 0.624,0.596 0.26,0.494 0.014,0.518 0.162,0.394 0.416,0.592 0.196,0.4 -0.078,0.542 0.068,0.48 -0.162,0.494 -0.67,0.366 -0.232,0.174 -0.484,0.016 -0.82,-0.184 -0.798,0.104 -0.954,-0.204 -0.748,-0.434 -0.4,-0.35 -0.638,-0.206 -0.3,0.108 -0.378,0.45 -0.416,-0.08 -0.384,0.08 -0.988,-0.092 -0.538,-0.114 -0.85,0.314 -0.482,0.098 -0.904,0.384 -0.542,0.666 -0.406,0.158 -0.396,-0.032 -0.282,-0.244 -0.412,-0.294 -0.612,0.016 -0.182,0.126 -0.076,0.27 -0.2,0.82 0.004,0.368 -0.134,0.238 -0.362,0.078 -0.634,-0.022 -0.994,-0.054 -0.672,-0.212 -0.404,0.09 -0.55,0.444 -0.392,0.072 -0.318,0.188 -0.258,0.654 -0.404,0.406 -0.488,0.504 -0.524,1.074 -0.288,0.614 0.092,0.33 0.064,0.4 -0.242,0.454 -0.492,0.422 -0.396,0.078 -0.592,0.406 -0.814,0.73 -0.608,0.612 -0.792,0.148 -0.562,0.156 -1.246,0.19 -0.308,0.048 -1.366,0.094 -1.012,-0.328 -0.532,0.05 -0.472,0.186 -0.24,0.202 -0.084,0.384 -0.084,0.354 -0.384,0.55 -0.774,0.728 -0.638,0.482 -0.49,0.624 -0.278,0.226 -0.56,0.238 -0.302,0.128 -0.702,0.554 -0.558,0.494 -0.368,0.138 -0.444,-0.13 -0.294,-0.042 -0.868,-0.19 -0.588,-0.024 -0.822,-0.122 -1.924,-0.578 -0.618,-0.27 -0.546,-0.736 -0.494,-0.374 -0.67,-0.04 -1.006,0 -0.45,-0.146 -0.756,0.138 -0.826,0.748 -0.39,0.556 -0.338,0.57 -0.414,1.214 -0.184,0.81 -0.14,0.456 -0.442,0.726 -0.048,0.406 0.152,0.352 0.318,0.396 0.19,0.622 0.464,0.66 0.456,0.514 0.858,0.828 0.244,0.434 0.29,0.496 0.062,0.484 -0.054,0.316 -0.308,0.242 -0.602,0.122 -0.29,0.334 -0.442,0.448 -0.524,0.516 -0.246,0.028 -0.296,0.138 -1.482,0.638 -0.564,0.178 -0.444,0.212 -0.526,0.648 -0.414,0.482 -0.512,0.64 -0.226,0.282 -0.454,0.638 -0.598,0.728 -0.332,0.39 -0.18,0.232 -0.164,0.306 -0.626,0.234 -0.516,0.25 -0.78,0.376 -1.118,0.412 -0.904,0.4 -0.574,0.328 -0.854,0.414 -0.58,0.132 -1.168,-0.016 -1.444,0.106 -1.052,0.08 -0.79,-0.1 -1.194,-0.058 -0.914,-0.08 -0.61,0.154 -1.438,0.162 -0.322,0.036 -2.562,0.392 -1.132,0.208 -1.036,0.096 -0.762,0.152 -0.432,0.192 -0.64,0.272 -0.338,0.12 -1.134,0.536 -2.524,1.104 -1.688,0.894 -0.278,0.152 -1.138,0.63 -0.658,0.246 -0.458,0.56 -0.366,0.354 -0.384,0.152 -0.684,-0.36 -0.484,0.02 -1.546,-0.132 0,-1.636 -1.084,0.23 -1.73,0.37 -1.604,0.342 -1.468,-0.784 -1.132,-0.606 -0.984,-0.522 -1.492,-0.346 -1.302,-0.302 -2.348,-0.498 -1.032,-0.436 -0.522,-0.578 -0.932,-1.312 -0.302,-0.26 -0.454,-0.18 -0.47,-0.114 -1.02,0.006 -1.244,-0.102 -1.792,-0.276 -1.424,-0.222 -2.428,-0.41 -0.576,-0.05 -1.27,0.364 -1.628,0.466 -2.922,-0.366 -1.296,-0.17 -2.626,-0.348 -2.972,-0.394 -2.88,-0.408 -2.092,0.224 -1.166,0.126 -1.346,0.18 -0.186,-0.202 -0.054,-0.782 -0.242,-0.606 -0.736,-0.656 -0.494,-0.624 -0.942,-0.846 -0.296,-0.534 -0.1,-0.828 -0.868,-2.162 -0.54,-1.47 -0.136,-0.298 -0.232,-0.48 -0.304,-0.25 -0.646,-0.154 -0.174,-0.26 0,-0.51 0.102,-0.706 0.132,-0.516 -0.094,-0.13 -1.686,0.146 -1.034,-0.342 -0.862,-0.372 -1.224,-0.952 -0.726,-0.368 -0.93,-0.988 -1.352,-0.234 -0.504,-0.388 -0.636,-0.848 -0.554,-0.546 -0.788,-0.344 -1.244,-0.306 -2.124,-0.292 -0.72,-0.124 -1.172,0.196 -0.87,0.016 -1.41,-0.208 -0.804,-0.262 -0.992,-0.008 -0.646,0.004 -0.862,-0.06 -0.416,-0.172 -0.386,-0.21 -0.724,0.052 -0.506,-0.21 -0.472,-0.392 -0.494,-0.186 -0.54,0.012 -0.222,0.174 -0.208,-0.016 -0.134,-0.53 -0.506,-0.858 -0.076,-0.386 -0.31,-0.444 -0.182,-0.404 0.05,-0.558 0.218,-1.086 0.486,-0.984 0.316,-0.256 0.194,-0.292 0.408,-0.51 0.236,-0.408 -0.028,-0.56 -0.278,-0.584 -0.2,-0.754 0.036,-0.434 0.3,-0.516 0.352,-1.146 -0.03,-0.302 -0.138,-0.24 -0.036,-0.534 -0.068,-0.716 -0.422,-1.098 -0.228,-0.584 -0.4,-0.252 -0.468,-0.152 -0.404,-0.792 -0.508,-0.936 -0.318,-0.588 -0.11,-0.36 -0.05,-0.654 -0.238,-0.794 -0.25,-0.436 -0.186,-0.336 -0.096,-0.482 -0.096,-0.176 -0.688,-0.214 -0.492,-0.36 -0.204,-0.484 -0.072,-0.392 -0.148,-0.228 -0.388,-0.072 -0.27,0.352 -0.442,0.176 -0.3,-0.032 -0.294,-0.212 -0.182,-0.222 -0.308,-0.25 -0.436,-0.794 -0.458,-0.21 -0.84,0.036 -0.748,0.368 -0.452,-0.058 -0.384,-0.124 -0.428,-0.396 -0.3,-0.328 -0.446,-0.106 -0.878,-0.578 -0.594,-0.416 -0.05,-0.818 -0.28,-0.564 -0.58,-0.16 -0.584,-0.58 -0.852,-0.312 -0.536,-0.242 -0.466,-0.146 -0.068,-0.22 0.028,-0.188 0.214,-0.314 0.224,-0.294 0.054,-0.272 -0.18,-0.24 -0.482,-0.252 -0.62,-0.226 -0.126,-0.374 -0.37,-0.39 0.064,-0.314 0.294,-0.23 0.296,-0.17 0.07,-0.296 -0.212,-0.272 -0.102,-0.412 0.05,-0.308 -0.062,-0.394 0.022,0.002 0.654,-0.022 0.3,-0.19 0.226,-0.282 0.49,-0.314 0.104,-0.36 0.008,-0.714 0.32,-0.604 0.814,-0.18 0.312,-0.088 0.332,0.088 0.516,-0.086 0.498,-0.03 0.278,0.186 0.368,0.156 0.47,-0.018 0.16,-0.284 0.02,-0.398 0.202,-0.104 0.254,0.276 0.144,0.206 0.21,0.094 0.568,-0.246 0.396,-0.266 0.13,-0.548 0.23,-0.27 0.308,0.138 0.542,-0.004 0.446,-0.424 0.586,-0.338 0.42,-0.154 0.084,-0.286 -0.196,-0.632 0.054,-0.692 0.562,-0.392 0.752,-0.046 0.558,-0.27 0.154,-0.74 0.276,-0.212 0.278,-0.084 0.678,-0.116 0.488,-0.302 0.302,-0.138 0.852,-0.406 0.776,-0.078 0.332,-0.324 0.26,-0.408 0.436,-0.156 0.442,-0.354 0.586,-0.45 0.232,-0.064 0.96,-0.262 0.376,-0.096 0.226,-0.058 0.416,0.018 0.176,-0.478 0.422,-0.35 0.424,-0.118 0.206,-0.35 0.406,-0.446 0.55,-0.246 0.854,-0.038 0.828,0.05 0.498,-0.076 0.408,-0.66 0.078,-0.326 0.094,-0.334 0.332,-0.128 0.4,0.542 0.338,0.336 0.518,0.35 0.268,0.328 0.308,0.046 0.322,-0.246 0.228,-0.598 0.432,-0.092 0.476,0.096 0.126,0.294 0.04,0.288 0.218,0.512 0.524,0.446 0.67,-0.022 0.27,-0.08 0.652,0.062 0.642,0.096 0.7,0.106 0.204,0.016 0.75,0.054 1.09,0.078 0.482,-0.036 0.984,0.146 0.2,0.396 0.182,0.936 0.154,0.89 0.046,0.714 0.256,0.37 0.326,0.12 0.216,0.288 0.38,0.392 0.28,0.56 0.342,-0.038 0.238,-0.132 0.524,-0.042 0.668,0.038 0.466,0.308 0.174,0.408 0.378,0.226 0.306,-0.072 0.916,-0.002 0.316,0.024 0.316,0.224 0.454,0.038 0.25,-0.284 0.79,-0.194 0.456,-0.404 0.352,-0.004 0.266,0.196 0.204,0.264 0.302,-0.118 0.164,-0.218 0.264,0 0.258,0.142 0.662,0.246 0.48,0.46 0.37,0.046 0.48,-0.136 0.22,-0.062 0.21,0.228 0.31,0.122 0.234,-0.168 0.402,-0.12 1.538,0.25 0.354,0.46 0.274,0.216 0.22,0.374 0.402,0.268 0.848,-0.092 0.33,-0.274 0.686,-0.608 0.274,-0.594 0.346,-0.19 0.39,-0.098 0.366,0.002 0.382,-0.02 0.466,-0.436 0.376,-0.152 0.558,-0.554 0.104,-0.25 0.272,-0.648 0.168,-0.41 0.282,-0.656 0.152,-1.058 0.086,-0.562 -0.074,-0.406 -0.332,-0.212 -0.422,-0.1 -0.372,-0.31 -0.276,-0.362 -0.162,-0.506 -0.218,-0.594 0.012,-0.43 -0.062,-0.332 -0.186,-0.284 -0.358,-0.498 -0.174,-0.372 0.058,-0.592 0.422,-1.012 0.04,-0.472 0.052,-0.292 -0.022,-0.266 0.132,-0.61 0.238,-0.256 0.272,-0.654 0.366,-0.302 0.46,-0.02 0.198,-0.178 0.096,-0.656 0.222,-0.506 0.148,-0.358 0.28,-0.392 1.614,-0.756 0.67,-0.942 0.238,-0.476 0.26,-1.024 0.25,-0.43 0.364,0.142 0.428,0.604 0.32,0.006 0.476,0.326 1.298,0.686 0.702,0.214 0.452,0.066 0.598,0.19 0.384,0.4 0.75,0.652 0.634,0.166 1.1,0.066 1.338,0.034 0.38,0.114 0.978,0.468 1.084,0.518 1.02,0.462 0.772,0.356 0.458,0.348 0.43,0.198 0.466,-0.17 0.598,0.038 1.404,0.416 0.888,0.348 0.742,0.258 0.248,0.356 0.024,0.474 -0.1,0.4 0.056,0.968 0.238,0.508 0.088,0.678 0.09,0.648 -0.064,0.638 0.114,0.338 0.232,0.2 0.226,0.444 -0.074,0.468 -0.1,0.272 0.016,0.438 0.268,0.36 0.398,0.07 0.348,0.094 0.432,0.566 0.77,0.652 0.46,0.18 0.53,0.292 1.01,0.288 0.686,0.084 0.404,0.234 0.396,0.558 0.656,0.116 0.42,0.194 0.768,0.23 0.508,-0.132 0.446,-0.196 0.298,0.038 0.576,0.126 0.674,0.028 0.566,-0.134 0.452,-0.394 0.526,-0.532 0.632,-0.27 0.73,-0.096 0.5,-0.216 1.636,-0.36 0.66,-0.064 0.512,-0.346 0.454,-0.272 0.656,-0.118 0.886,0.286 0.848,0.238 1.026,0.078 0.682,0.328 0.482,0.31 0.76,0.246 0.844,-0.114 1.158,-0.098 0.766,0.142 0.8,0.564 0.492,0.45 0.554,0.964 0.58,0.464 0.504,0.38 0.64,0.026 1.594,0.03 0.874,0.2 0.728,0.108 0.174,0.2 -0.072,0.658 0.022,0.938 -0.01,0.43 0.16,0.324 0.248,0.058 0.136,0.458 0.36,0.27 0.646,0.326 1.088,1.106 0.65,0.472 0.51,0.16 0.67,-0.11 1.05,0.004 1.778,0.002 1.218,0.332 0.422,0.226 1.244,0.264 1.368,0.288 1.156,0.302 0.68,-0.39 0.598,-0.036 0.57,0.282 0.572,0.424 0.44,-0.046 0.662,-0.198 2.114,-1.184 0.742,-0.444 0.52,0.114 0.464,-0.156 0.354,-0.134 0.902,-0.184 0.55,-0.05 0.566,-0.106 0.816,-0.072 1.658,-0.778 0.672,-0.152 1.136,0.216 0.612,-0.142 0.61,-0.392 0.788,-0.406 0.206,-0.66 0.404,-0.908 0.872,-0.668 0.708,-0.586 0.722,-0.568 0.888,-0.476 0.836,-0.344 1.064,-0.906 0.848,-0.46 0.422,-0.15 0.502,0.166 0.938,0.122 0.68,-0.036 0.384,0.104 0.764,0.444 0.696,0.388 0.532,0.692 0.99,0.962 0.508,0.322 0.36,0.134 0.892,0.09 0.728,0.048 0.436,-0.22 0.734,-0.402 1.17,-0.512 0.46,0.014 0.754,0.272 1.124,0.502 0.45,0.376 z" title="Mongolia" id="MN"></path></svg>