<svg xmlns="http://www.w3.org/2000/svg" viewBox="0 0 3.84 27.32"><path d="m 3.12,0.26 -0.172,0.22 -0.142,-0.162 -0.04,-0.32 0.25,0.03 0.092,0.066 0.012,0.166 z m 0.386,4.02 -0.272,0.128 0.338,-0.578 0.102,-0.1 0.158,0.21 -0.326,0.34 z m -0.366,10.16 -0.124,0.04 -0.178,-0.02 -0.126,-0.092 -0.028,-0.154 0.362,-0.008 0.134,0.116 -0.04,0.118 z m 0.224,6.99 -0.016,0.15 -0.288,-0.036 -0.078,-0.068 0.162,-0.522 0.412,-0.24 0.2,-0.048 -0.188,0.248 -0.036,0.278 -0.168,0.238 z m -0.504,0.94 -0.232,0.294 -0.164,-0.458 -0.028,-0.184 0.212,-0.168 0.126,0.002 0.086,0.514 z m -2.23,4.682 -0.28,0.268 -0.2,-0.054 -0.126,-0.092 -0.03,-0.154 0.452,-0.148 0.184,0.052 0,0.128 z" title="Northern Mariana Islands" id="MP"></path></svg>