<svg xmlns="http://www.w3.org/2000/svg" viewBox="0 0 177.96 111.36"><path d="m 119.3,43.32 -0.102,1.282 -0.34,1.048 -1.118,2.178 -0.466,1.348 -0.902,3.836 -0.278,2.504 -0.066,1.176 -0.078,0.166 0.084,0.172 -0.216,2.594 0.116,2.208 -0.074,0.342 -0.328,0.664 -0.23,0.918 0.09,0.408 -0.004,0.282 0.336,1.394 0.108,1.046 1.002,1.788 0.562,0.624 0.698,0.54 0.256,0.304 -0.126,0.758 -0.284,0.382 -0.122,0.608 -0.14,-0.502 0.054,-0.652 0.222,-0.35 0.008,-0.256 -0.41,-0.274 -0.75,-0.898 -0.916,-1.592 0.652,2.542 0.224,0.406 0.174,0.168 0.292,0.178 0.076,0.276 0.002,0.204 0.804,1.76 0.91,1.816 0.048,0.496 0.364,0.61 2.318,2.54 1.418,1.892 0.492,1.792 0.296,0.558 0.146,0.764 0.928,0.856 0.284,0.552 0.498,0.306 0.402,0.924 0.756,0.54 -0.18,0.01 -0.662,-0.272 0.044,0.18 0.556,0.382 1.09,0.376 0.272,0 -0.43,-0.196 -0.364,-0.264 0.128,-0.038 0.762,0.328 2.13,0.108 0.938,0.766 1.216,0.33 0.654,0.978 0.76,1.02 0.486,0.048 0.378,0.004 1.14,-0.172 1.772,-0.642 0.61,-0.314 1.19,-0.426 1.822,-0.078 0.564,0.12 1.362,-0.266 0.65,-0.326 0.226,-0.296 0.106,-0.218 1.262,-0.312 0.25,-0.062 1.278,-0.056 0.618,-0.116 0.726,-0.068 0.524,0.46 0,0.224 -0.35,0.212 0.164,0.206 0.622,0.34 1.14,0.138 0.37,-0.054 0.526,-0.502 0.926,-0.486 -0.02,-0.566 -0.166,-0.31 -0.268,-0.02 -0.064,-0.174 0.188,-0.416 -0.048,-0.14 -0.576,0.4 -0.132,0 0.064,-0.186 0.12,-0.148 1.688,-0.872 0.432,-0.358 0.584,-0.316 1.21,-1.186 0.258,-2.236 0.242,-0.392 0.802,-0.688 0.086,-0.208 0.052,-0.468 -0.022,-1.178 0.044,-0.928 -0.034,-1.05 0.144,-0.938 0.13,-0.262 0.46,-1.504 0.956,-0.666 1.658,-0.79 0.38,-0.13 5.282,-0.836 0.742,-0.204 0.908,-0.542 0.664,-0.184 1.21,0.014 0.372,-0.072 0.074,-0.074 0.002,-0.074 0.224,-0.074 0.7,0.072 1.308,0.328 0.476,0.082 1.17,0.38 1.288,0.152 0.184,-0.066 0.17,-0.116 0.13,-0.222 -0.134,-0.194 -0.126,0.014 -0.218,0.104 -0.26,0.01 -0.51,-0.16 0.102,-0.134 0.52,0.012 0.334,-0.064 0.494,-0.234 0.526,0.176 0.692,0.776 0.492,0.246 0.04,1.124 0.074,0.206 0.18,0.296 -0.246,0.87 -0.276,0.718 -0.346,0.588 -0.748,0.926 -0.908,0.74 -1.124,1.642 -0.256,0.768 0.006,0.616 0.19,0.594 -0.054,0.22 -0.138,0.222 -0.228,-0.02 -0.444,0.284 -0.572,0.844 -0.012,0.256 0.25,0.236 0.326,-0.114 0.424,-0.01 0.238,-0.07 0.25,0.018 -0.056,0.484 -0.268,0.344 -0.17,0.108 -0.304,0.058 -0.34,0.196 -0.174,0.18 0.016,0.558 0.188,0.044 0.4,-0.416 0.232,0.02 0.046,0.176 -0.518,1.426 -0.334,1.462 -0.452,0.846 -0.16,1.23 -0.238,0.524 -0.276,0.518 -0.162,-0.028 -0.436,-0.982 -0.446,-0.252 -0.098,-0.238 0.254,-1.192 -0.116,-0.66 -0.236,0.026 -0.296,0.362 -0.394,0.314 0.008,0.454 -0.452,0.754 -0.112,0.248 -0.43,-0.058 -0.5,0.032 -0.346,0.182 -0.354,0.914 -0.884,1.286 -0.352,0.622 -0.288,0.214 -0.226,0.084 -0.252,-0.146 -0.604,-0.352 -0.466,0.168 -0.162,0.404 0.006,0.51 -1.18,0 -2.004,-0.002 -2.552,-0.002 -2.46,-0.002 -2.06,-0.002 -0.008,1.146 -0.006,1.014 -0.006,1.14 -1.136,-0.01 -1.202,-0.01 0.096,0.114 0.412,0.214 0.534,0.51 0.63,0.794 0.764,0.632 0.898,0.47 0.59,0.46 0.286,0.45 0.144,0.382 0,0.316 0.328,0.25 0.586,0.166 0.304,0.282 0,0.23 -0.186,0.522 -0.054,0.576 0.072,0.52 -0.42,0.008 -1.018,0 -1.55,0.002 -1.426,0 -1.124,0 -1.698,0.002 -0.466,0.8 -0.774,1.328 -0.702,1.202 -0.588,1.01 -0.096,0.266 0,0.216 0.728,0.944 -0.134,0.274 -0.254,0.144 -0.082,0.222 0.016,0.36 -0.172,0.478 0.056,0.33 0.092,0.406 -0.152,0.352 -0.124,0.34 -0.146,0.148 -0.166,-0.128 -1.496,-1.568 -1.56,-1.726 -0.614,-0.564 -0.594,-0.428 -0.8,-0.796 -2.1,-1.75 -1.084,-0.8 -1.02,-0.958 -0.916,-0.532 -0.902,-0.346 -0.402,-0.2 -0.352,-0.262 -0.196,-0.016 -0.098,0.356 0.316,0.178 0.378,0.152 0.298,0.01 0.314,0.126 0.926,0.486 0.152,0.25 -2.634,-0.972 -1.072,-0.09 -0.116,-0.152 0.534,-0.508 -0.166,-0.184 -0.19,-0.026 -0.574,0.352 -0.212,0.024 -0.038,-0.232 0.026,-0.218 -0.37,-0.32 -0.234,0.012 -0.192,0.224 -0.5,0.422 0.016,0.166 0.98,0.18 0.338,0.102 -0.078,0.112 -0.84,-0.002 -1.04,0.192 -1.852,1.174 -1.724,0.504 -2.48,1.128 -1.094,0.058 -0.574,0.18 -1.668,-0.432 -2.114,-1.06 -3.2,-0.334 -2.156,-1.39 -2.14,-0.572 -1.358,-1.336 -0.818,-0.058 -0.526,-0.214 -1.944,-0.484 -1.922,-0.32 -1.874,-1.17 -1.226,-0.372 -1.06,-0.466 -2.334,-0.796 -0.866,-0.442 -0.818,-0.684 -1.334,-0.708 -0.57,-0.592 -0.636,-0.212 -0.91,-1.116 -0.474,-0.47 -0.402,-0.22 -0.43,-0.076 -1.242,0.09 -1.854,-0.494 -0.856,-0.126 -1.79,-0.728 -2.376,-0.814 -0.778,-0.936 -0.666,-0.874 -1.2,-1.152 -0.748,-0.492 -1.298,-0.584 -0.72,-0.474 -1.11,-0.364 -1.884,-0.924 -0.598,-0.792 -0.35,-0.704 -1.002,-0.856 -1.098,-1.598 -0.284,-0.59 -0.212,-0.906 -0.254,-0.526 -0.3,-0.412 0.154,-0.3 0.558,-0.37 0.928,-0.084 0.656,-0.4 0.086,-0.33 -0.042,-0.204 -0.42,-0.504 -0.522,-0.134 -0.406,-0.008 -0.104,-0.192 0.306,-0.21 0.35,-0.492 0.516,-0.6 0.364,-0.554 0.068,-0.782 -0.046,-0.782 0.138,-0.662 -1.25,-0.764 -0.146,-0.326 -0.394,-0.878 -0.682,-1.02 0.02,-2.042 -0.822,-1.816 -0.85,-0.904 -0.44,-0.316 -1.194,-1.406 -0.942,-0.818 -0.922,-1.542 -0.912,-0.982 -1.16,-1.65 -0.838,-0.824 -3.818,-2.79 0.214,0 1.12,0.686 0.188,-0.056 0.026,-0.334 -0.128,-0.4 -0.208,-0.096 -0.298,0.09 -0.402,-0.084 -0.202,-0.132 -0.602,-0.084 -0.754,-0.466 -0.324,-0.484 -0.036,-0.552 -1.082,-1.178 -0.41,-0.658 0.21,0.048 0.288,0.264 0.292,0.076 0.34,0.002 0.246,-0.106 -0.088,-0.196 -0.232,-0.164 -1.576,-0.622 -0.52,-0.436 -1.292,-0.728 -0.306,-0.256 -0.204,-0.704 -0.316,-0.034 -0.278,0.196 -0.762,0.192 -0.194,-0.224 -0.028,-0.216 0.538,-0.228 0.494,-0.666 -0.01,-0.232 -0.272,0.268 -0.412,0.298 -0.424,0.166 -0.63,0.138 -0.324,-0.1 -0.282,-0.15 -0.454,-0.582 -0.228,-1.896 0.4,-0.658 0.468,-0.652 0.398,-0.386 0.23,0.292 0.236,0.036 -0.166,-0.33 -0.392,-0.308 -0.138,-0.308 -0.014,-0.282 -0.186,-0.524 -1.16,-1.102 -1.084,0.084 -0.442,-0.038 -0.414,-0.42 -0.352,-0.708 -0.172,-0.594 -0.022,-0.316 -0.104,-0.318 -1.87,-0.52 -0.562,-0.446 -0.564,-0.562 -0.234,-0.458 -0.22,-0.338 -0.18,-0.592 -0.128,-0.69 0.208,-0.894 0.272,-0.432 -1.286,-0.322 -0.502,-0.014 -0.406,0.182 -0.366,-0.234 -0.76,-0.26 -0.904,-0.938 -1.062,-1.704 -1.168,-0.548 -0.376,-0.594 -0.478,-0.536 -0.418,-0.664 -0.064,-0.29 -0.126,-0.162 -0.584,-0.464 -0.656,-0.786 -0.17,-0.632 -0.176,-0.968 -0.438,-0.342 -0.43,-0.158 -0.084,-0.462 0.026,-0.258 -0.146,-0.49 -0.888,-1.176 -0.45,-0.968 -0.248,-0.302 -0.232,-0.442 -0.118,-0.906 -0.368,-1.128 -0.712,-1.358 -0.594,-0.916 -0.296,-0.924 0.132,-0.942 -0.1,-0.582 -0.076,-0.136 0.06,-0.19 0.198,0.106 0.166,-0.17 -0.02,-0.602 -0.208,-0.182 -0.576,-0.188 -0.254,-0.13 -1.4,-0.246 -0.802,-0.342 -0.052,-0.796 -0.376,-0.366 -0.334,-0.226 -1.056,-0.47 -0.166,0.24 -0.142,0.444 -0.44,0.096 -0.384,0.02 -0.644,-0.308 -1.598,-1.174 -0.338,-0.188 -0.498,-0.1 -0.25,-0.196 -1.08,-0.62 0.216,0.33 0.312,0.342 0.278,0.994 -0.326,0.716 -0.19,2.496 0.208,0.496 0.468,0.794 0.324,1.258 0.1,0.936 0.292,0.742 -0.092,1.74 0.112,0.528 0.446,0.866 0.826,0.812 0.172,0.426 1.084,0.618 0.66,0.802 1.308,1.092 0.412,0.46 1.18,1.698 0.038,0.504 0.218,0.618 0.662,-0.128 0.296,0.47 -0.034,0.216 0.08,0.166 0.346,-0.036 0.298,0.128 0.628,1.826 0.336,0.25 0.432,0.106 0.482,0.202 0.032,0.466 -0.018,0.372 0.408,0.538 -0.07,0.728 0.33,0.616 -0.05,0.596 0.136,0.47 1.018,1.064 1.254,0.844 0.262,1.106 0.512,1.01 0.524,0.254 0.528,0.418 -0.066,0.436 0.038,0.266 0.708,0.794 0.114,1.01 0.61,0.662 0.172,0.052 0.134,-0.104 -0.444,-0.664 -0.214,-0.432 -0.028,-0.68 0.15,-0.09 1.266,1.076 0.134,0.802 0.424,0.454 0.032,0.612 0.258,0.364 0.078,0.528 0.408,0.87 0.01,1.206 0.216,0.878 0.798,1.346 0.646,0.282 0.116,0.66 0.672,1.704 0.776,0.922 0.386,0.782 0.052,0.486 -0.29,0.72 -0.032,0.5 0.422,1.524 0.63,0.78 0.706,0.188 0.122,0.112 -0.056,0.208 0.236,0.186 0.266,-0.238 0.13,-0.338 -0.134,-0.394 -0.024,-0.286 0.12,-0.206 0.23,-0.03 1.348,1.04 0.226,0.4 0.5,0.466 0.46,0.574 0.198,0.452 0.368,0.374 0.19,0.868 0.938,0.388 0.498,0.716 0.034,0.454 -0.242,1.16 -0.21,0.334 -0.756,0.494 -0.55,0.586 -0.532,0.362 -0.564,0.22 -0.464,-0.05 -0.448,-0.674 -0.532,-2.042 -0.356,-0.43 -0.25,-0.642 -0.416,-0.532 -1.5,-0.806 -0.756,-0.852 -0.734,-0.57 -0.79,-0.826 -2.152,-1.37 -0.892,-0.698 -0.588,-0.692 -0.378,0.01 -0.292,0.072 -0.112,-0.19 -0.016,-0.36 -0.13,-0.234 -1.258,-1.044 -0.26,-0.578 -0.054,-0.672 0.284,-1.732 0.126,-1.016 -0.08,-0.524 -0.132,-0.072 -0.12,-0.284 -0.028,-0.838 -0.304,-0.912 -1.142,-1.874 -0.834,-0.37 -0.742,-0.27 -2.034,-1.662 -0.552,-0.832 -0.134,-0.474 -0.07,-0.964 -0.28,0.558 -0.374,0.414 -0.862,-0.03 -0.968,0.466 -0.576,-0.438 -0.312,-0.498 -0.474,-0.598 -0.532,-0.118 -0.34,-0.016 -0.638,-0.742 -0.516,-0.236 -0.738,-0.092 -0.628,-0.376 -0.194,-0.412 -0.104,-0.582 -0.234,-0.344 -0.986,-0.682 -0.802,-0.754 -0.756,-0.484 -0.222,-0.396 -0.018,-0.272 1.196,0.076 1.422,0.29 0.682,-0.082 0.424,-0.28 0.406,-0.202 0.064,0.218 -0.074,0.396 0.39,0.364 0.536,0.294 0.38,-0.028 -0.37,-0.322 -0.226,-0.656 0.102,-0.236 -0.006,-0.328 -0.53,0.074 -0.074,-0.166 0.454,-0.5 0.52,-1.316 0.248,-1.3 -0.544,-1.14 -0.918,-0.792 -1.992,-2.326 -1.19,-1.198 -0.344,-0.446 -0.316,-0.21 -0.97,-0.274 -0.814,-0.672 -1.426,-0.952 -0.61,-0.492 -0.42,-1.154 -0.334,-0.158 0.106,-0.8 -0.146,-1.418 -0.24,-0.364 -0.772,-0.354 -0.184,-0.966 -0.038,-0.92 -0.15,-0.642 -1.314,-1.082 -0.074,-0.524 0,-0.498 -0.134,-0.494 -0.702,-1.034 -0.848,-0.904 -0.296,-0.432 -0.036,-0.876 -0.3,-0.236 0.114,-0.06 0.278,0.022 0.158,-0.116 0.018,-0.612 -1.276,-0.962 -0.368,-1.326 -0.68,-0.704 -0.16,-0.254 -0.366,-1.256 1.606,-0.142 1.606,-0.142 1.606,-0.142 1.606,-0.142 1.606,-0.142 1.606,-0.142 1.606,-0.142 1.606,-0.142 0.642,-0.072 -0.356,1 -0.268,0.374 2.662,0.98 2.662,0.978 2.662,0.976 2.662,0.974 2.662,0.974 2.662,0.972 2.662,0.97 2.662,0.968 1.984,-0.004 1.984,-0.004 1.984,-0.004 1.984,-0.004 1.984,-0.004 1.984,-0.004 1.984,-0.004 1.984,-0.004 0.004,-0.736 0.002,-0.736 0.004,-0.738 0.004,-0.738 1.234,0.008 1.234,0.008 1.234,0.006 1.234,0.008 1.234,0.006 1.234,0.008 1.234,0.008 1.234,0.008 0.044,0.012 0.052,0.026 0.5,0.562 0.512,0.88 0.604,0.614 0.696,0.348 1.186,1.024 1.676,1.698 1.336,1.128 0.998,0.564 0.668,0.484 0.342,0.406 0.46,0.88 0.868,2.026 0,0.928 0.332,0.878 0.664,1.136 0.58,0.668 0.496,0.202 0.542,0.402 0.588,0.602 0.678,0.404 0.768,0.206 1.06,0.54 1.352,0.872 0.928,0.444 0.502,0.02 0.44,-0.28 0.376,-0.578 0.37,-0.372 0.364,-0.166 0.148,-0.266 -0.068,-0.368 0.246,-0.824 0.56,-1.284 0.668,-0.696 0.778,-0.108 0.508,-0.242 0.24,-0.376 0.416,-0.04 0.594,0.294 0.966,0.19 1.338,0.084 0.79,-0.028 0.242,-0.144 0.126,0.008 0.01,0.158 0.198,0.068 0.386,-0.024 0.336,0.22 0.432,0.698 1.484,1.116 0.002,0 0.126,0.382 0.516,0.55 0.952,0.846 0.538,0.728 0.126,0.612 0.486,0.966 0.846,1.318 0.376,0.71 -0.092,0.102 0.066,0.37 0.226,0.638 0.418,0.54 0.614,0.442 0.62,0.792 0.626,1.142 0.76,0.868 0.892,0.592 0.504,0.552 0.118,0.51 -0.008,0.436 -0.136,0.362 0.058,0.344 0.25,0.326 0.084,0.4 -0.098,0.554 0.006,0.156 0,0 0.072,0.126 0.792,0.952 0.408,0.768 0.324,1.224 0.002,0.01 0.36,0.732 0.52,0.298 0.798,0.112 0.606,0.254 0.414,0.398 0.524,0.24 0.63,0.082 0.604,0.264 0.58,0.442 1.08,0.29 1.58,0.14 1.202,0.36 0.826,0.58 0.362,0.118 0.098,0.008 0.046,-0.088 0.062,-0.164 0.32,-0.188 0.776,-0.124 z m -98.496,-36.64 -0.186,0.028 -0.348,-0.302 0.026,-0.278 0.076,-0.028 0.348,0.244 0.118,0.214 -0.034,0.122 z m 8.636,17.18 -0.04,0.112 -0.574,-0.396 -1.3,-1.348 -0.472,-0.676 -0.078,-0.318 0.04,-0.708 0.446,0.084 0.516,0.474 0.224,0.44 0.01,0.502 0.964,0.238 0.136,1.086 0.128,0.51 z m 5.346,0.3 -0.422,1.504 -0.432,-0.024 -0.892,-0.474 -0.094,-0.296 0.342,-1.748 0.26,-0.23 0.778,-0.236 0.122,0.216 0.082,0.516 0.256,0.772 z m -33.9,0.404 -0.24,0.244 -0.644,-1.332 -0.006,-0.322 0.188,-0.16 0.312,0.03 0,0.334 0.262,0.282 0.102,0.276 0.026,0.648 z m 17.244,5.544 -0.076,0.204 -0.948,-0.422 0.52,-0.738 -0.076,-0.776 0.226,-0.162 0.206,0.256 0.272,0.988 -0.124,0.65 z m 22.846,12.844 0.07,0.224 -0.038,0.064 -0.23,-0.156 -0.388,0.928 -0.114,0.084 0.234,-1.27 0.246,-0.182 0.272,-0.036 -0.052,0.344 z m -5.372,9.106 -0.114,0.068 -0.48,-0.71 -0.072,-0.488 -0.196,-0.206 -0.484,-0.164 0.418,-0.994 0.354,-2.062 0.156,0.378 -0.374,2.088 0.018,0.272 0.174,0.254 0.188,0.43 0.022,0.464 0.33,0.432 0.06,0.238 z m 8.364,-2.814 0.16,0.688 -0.288,-0.102 -0.376,-0.374 -0.258,-0.478 0.024,-0.214 0.05,-0.04 0.534,0.282 0.154,0.238 z m -6.352,3.748 -0.076,0.29 -1.69,-1.146 0.406,-0.108 0.472,0.08 0.888,0.884 z m 10.63,1.484 -0.122,0.02 -0.288,-0.324 -0.126,-0.798 0.058,-0.084 0.542,0.988 -0.01,0.122 -0.054,0.076 z m 18.538,15.39 -0.164,0.494 -0.424,-0.198 -0.152,-0.31 -0.03,-0.508 0.236,-0.086 0.342,0.216 0.07,0.144 0.122,0.248 z m 111.072,2.228 0.1,0.29 -0.098,-0.034 -0.128,-0.218 -0.092,-0.272 0.078,-0.006 0.068,0.094 0.072,0.146 z m -1.266,5.586 -0.292,0.186 -0.158,-0.656 0.232,-0.64 0.282,-0.368 0.556,-0.042 0.368,-0.122 0.046,0.162 -0.302,0.496 -0.732,0.984 z m -134.572,9.246 -0.338,0.124 -0.498,-0.362 0.132,-0.286 0.284,-0.194 0.266,0.362 0.154,0.356 z m 107.944,0.378 -0.632,0.136 -0.112,-0.128 1.274,-0.602 0.218,0.026 0.076,0.082 -0.66,0.286 -0.164,0.2 z" title="Mexico" id="MX"></path></svg>