<svg xmlns="http://www.w3.org/2000/svg" viewBox="0 0 110.12 36.30"><path d="m 98.2,1.04 -0.342,0.296 -0.116,-0.358 0.024,-0.46 0.462,-0.428 0.658,-0.082 0.094,0.342 -0.078,0.392 -0.154,0.202 -0.548,0.096 z m 2.43,16.798 -0.208,-0.004 -0.484,-0.12 -0.972,-0.594 -0.994,-0.21 -1.444,-0.018 -0.816,-0.084 -0.332,0.088 -0.28,0.004 -0.202,-0.12 -0.214,-0.06 -0.564,0.35 -0.262,-0.106 -0.266,-0.148 -0.472,-0.048 -0.572,0.042 -0.632,0.36 -0.704,-0.324 -0.2,0.004 -0.134,0.084 -0.304,0.444 -0.582,0.338 -0.288,0.622 -0.178,0.596 -0.154,0.206 -0.042,1.15 -0.092,0.556 0.146,0.734 -0.026,0.316 -0.258,0.47 -0.034,0.108 -0.136,0.746 0.052,0.2 -0.034,0.25 -0.218,0.524 -0.394,0.144 -0.414,0.082 -0.356,-0.178 -0.32,0.288 -0.406,0.444 -0.176,0.3 0.002,0.278 0.042,0.186 -0.084,0.192 -0.01,0.204 0.02,0.294 0.276,0.122 0.288,0.254 -0.01,0.244 -0.158,0.168 -0.362,0.26 -0.66,0.532 -0.744,0.454 -0.282,0.106 -0.102,0.21 -0.052,0.282 0.164,0.618 0.156,0.182 0.082,0.216 -0.1,0.258 -0.072,0.222 -0.274,0.14 -0.268,0.102 -0.098,0.176 -0.14,0.74 -0.162,0.386 -0.364,0.574 -0.122,0.262 -0.188,0.084 -0.704,-0.268 -0.63,0.162 -0.836,0.104 -0.708,-0.016 -0.546,0.118 -0.376,0.302 -0.42,0.382 -0.442,0.284 -0.334,0.138 -0.612,-0.404 -0.31,0.036 -0.556,-0.14 -1.306,-0.452 -0.322,-0.132 -0.348,-0.012 -0.104,-0.13 0.054,-0.218 -0.054,-0.288 -0.254,-0.108 -2.622,0.044 -0.756,0.248 -0.51,0.196 -0.364,0.226 -0.104,0.562 -0.218,0.528 -0.282,0.56 -0.872,0.168 -0.64,0.566 -0.22,0.068 -0.44,-0.082 -0.472,-0.046 -0.34,0.158 -0.358,-0.008 -1.102,-0.264 -1.042,-0.042 -0.59,0.134 -0.326,0.05 -1.814,0.776 -0.614,0.09 -0.248,-0.112 -0.35,-0.318 -0.47,-0.318 -1.126,-1.082 -0.416,-0.254 -0.276,-0.26 -0.262,-0.31 -0.374,-0.334 -0.34,-0.23 -0.46,-0.468 -0.458,-0.512 -0.104,-0.902 -0.364,-0.166 -0.124,-0.236 -0.056,-0.266 0.506,-0.732 0.368,0.774 0.14,0.172 0.816,0.522 0.672,0.26 0.726,0.106 0.74,0.022 0.292,-0.036 0.288,-0.104 0.282,0.112 1.546,0.846 0.6,0.152 0.634,-0.064 0.252,0.084 0.89,0.65 0.262,0.078 0.438,-0.05 -0.558,-0.296 -0.368,-0.21 -0.166,-0.396 0.102,-0.422 0.356,-0.282 0.248,-0.306 0.088,-0.912 0.158,-0.462 0.296,-0.438 0.098,-0.424 -0.334,-0.324 -0.074,-0.556 0.072,-0.46 0.19,-0.314 0.3,0.208 0.312,0.192 0.306,-0.02 0.212,-0.076 0.038,-0.238 -0.056,-0.414 0.016,-0.76 0.388,-0.608 0.622,-0.418 0.586,-0.2 2.196,-0.34 3.472,-0.87 1.028,-0.336 0.378,-0.174 0.318,-0.242 0.538,-0.772 1.01,-1.218 0.708,-1 1.492,-1.458 1.19,-1.352 0.16,-0.254 0.198,-0.738 0.016,-0.348 -0.036,-0.352 0.158,-0.164 0.232,-0.098 0.056,0 0.176,0.154 0.414,0.214 0.308,0.276 0.208,0.356 0.148,0.332 0.012,0.284 0.188,0.232 0.526,0.04 0.17,0.292 0.366,0.502 0.336,0.362 0.206,0.14 0.256,-0.076 0.398,-0.33 0.288,-0.404 0.194,-0.546 -0.152,-0.08 0.268,-0.412 0.05,-0.216 -0.124,-0.198 -0.158,-0.198 -0.06,-0.498 -0.11,-0.634 -0.074,-0.288 0.21,-0.206 0.452,-0.262 0.452,-0.304 0.458,-0.244 0.012,0.44 -0.012,0.726 0.138,0.608 0.312,1.076 0.356,0.146 0.428,0.096 0.248,-0.03 0.16,-0.072 0.042,-0.086 -0.266,-0.422 -0.07,-0.994 -0.218,-0.652 -0.334,-0.65 -0.158,-0.184 1.318,-0.184 0.294,-0.204 0.518,-0.446 0.196,-0.25 0.154,-0.564 -0.646,-0.334 -0.254,-0.428 -0.016,-0.462 0.772,-0.86 0.268,-0.206 0.116,0.306 0.34,0.078 0.312,0.012 0.314,-0.018 0.452,-0.434 0.232,-0.624 0.792,-0.882 0.282,-0.676 0.16,-0.708 2,-2.2 0.244,-0.342 1.188,-2.214 0.148,-0.074 0.318,0.214 0.094,0.704 -0.042,0.306 -0.194,0.456 -0.11,0.476 0.136,-0.01 0.566,-0.29 0.59,-0.774 0.334,-0.67 0.284,-0.292 0.57,0.164 0.126,0.116 -0.04,0.482 0.054,0.28 0.218,0.598 0.484,0.364 0.668,0.228 0.62,0.332 0.204,0.218 0.132,0.262 0.136,0.43 0.01,0.436 -0.448,0.426 0.19,0.69 -0.03,0.402 -0.152,0.344 -0.652,0.314 1.778,-0.312 0.438,-0.178 0.608,-0.454 0.324,0.392 0.304,0.678 -0.244,0.17 -0.774,0.25 -0.038,0.102 0.256,0.352 0.322,-0.034 0.638,-0.236 0.586,-0.372 0.284,0.004 0.3,0.076 0.578,0.24 0.324,0.194 0.276,0.25 0.178,0.518 0.668,0.188 1.368,0.726 0.254,0.062 0.266,0.014 0.72,-0.088 0.254,0.102 0.18,0.262 0.06,0.324 -0.02,0.348 -0.074,0.264 -0.168,0.218 -0.49,0.332 -1.234,0.434 -1.35,0.33 -0.678,-0.022 -0.952,-0.282 -0.346,0.036 -0.336,0.13 -0.42,0.898 0.778,0.894 1.338,0.93 0.184,0.232 -0.048,0.286 -0.212,0.17 -0.284,0.094 -0.752,0.148 -0.76,0.11 -0.626,0.16 -0.614,0.208 -0.63,-0.072 -0.868,-0.416 -0.25,-0.03 -0.264,0.214 -0.258,0.584 -0.156,0.146 z m -86.852,-11.6 0.97,0.218 0.372,0.176 1.09,1.736 1.436,1.22 0.61,0.456 0.47,0.216 0.642,0.652 0.56,0.82 1.228,2.306 0.212,1.012 0.084,1.544 -0.27,2.328 -0.33,1.16 0.064,0.548 0.452,0.84 -0.136,0.794 0.088,0.66 -0.032,1.828 0.256,0.54 0.292,0.344 1.542,1.084 0.114,0.402 0.76,1.38 1.408,3.004 0.392,1.35 -0.044,0.364 -0.17,0.15 -0.414,0.132 -0.346,-0.264 -0.116,-0.188 0.036,-0.236 -0.136,-0.232 -0.338,-0.276 -0.194,-0.248 0.054,0.41 0.002,0.532 -0.43,0.046 -0.55,-0.166 -0.688,0.15 -0.812,0.652 -0.39,0.018 -0.296,-0.56 -0.152,-0.38 -0.242,-0.268 -2.582,-1.374 -0.954,-0.352 -1.004,-1.042 -2.26,-1.15 -1.436,-1.122 -0.61,-0.692 -1.468,-0.614 -0.632,-0.724 -0.312,-0.142 -0.312,-0.258 0.33,-0.704 -0.136,-0.734 -0.17,-0.62 -1.036,-1.222 -0.508,-0.852 -0.974,-0.85 -0.39,-0.49 -0.372,-0.568 0.232,-0.2 0.216,-0.12 -0.198,-0.414 -0.558,-0.718 -0.26,-0.826 0,-1.56 -0.792,-2.194 -0.678,-3.042 0.122,-1.066 -0.174,-1.156 -0.45,-1.112 -0.588,-0.794 -0.22,-0.66 0.106,-0.262 0.13,-0.858 0.088,-0.17 0.222,-0.082 0.252,0.022 0.47,0.746 1.226,0.462 0.37,0.11 0.482,-0.184 0.218,0.116 0.22,0.19 0.126,0.532 0.322,0.484 0.644,-0.07 0.228,0.07 0.134,0.014 0.126,0.428 0.058,0.744 -0.06,0.432 -0.464,0.618 -0.062,0.42 0.244,0.26 0.316,0.278 0.182,0.214 0.19,-0.036 0.24,-0.144 0.22,-0.364 0.152,-0.312 0.826,-0.348 0.854,-0.314 0.116,0.032 0.138,0.138 0.272,0.456 0.16,0.096 0.23,0.046 0.4,-0.048 0.464,-0.258 0.244,-0.482 0.108,-0.38 0.668,-0.658 0.074,-0.494 0.192,-0.326 z m -12.646,-1.254 0.396,0.602 -0.198,0.268 -0.1,0.078 -0.238,-0.088 -0.228,0.23 -0.218,0.046 -0.218,-0.416 -0.27,-0.166 -0.058,-0.288 0.362,-0.05 0.216,0.1 0.406,-0.2 0.148,-0.116 z m 2.474,6.564 -0.14,0.156 -0.408,-0.09 0.072,-0.918 0.232,-0.118 0.364,0.166 0.16,0.156 -0.28,0.648 z m 98.764,6.202 -0.782,0.108 -0.542,-0.012 0.1,-0.196 -0.026,-0.258 0.258,-0.068 0.298,0.056 0.694,0.37 z m -92.984,6.69 -0.284,0.102 -0.016,-0.146 0.05,-0.204 0.208,-0.194 0.096,0.11 -0.054,0.332 z m 16.294,1.434 -0.272,0.058 -0.148,-0.038 -0.1,-0.218 0.228,-0.5 0.084,-0.084 0.216,0.544 -0.008,0.238 z m 40.234,1.766 -0.172,0.074 -0.266,-0.198 -0.062,-1.694 0.186,-0.152 0.122,0.022 0.13,0.308 -0.012,0.742 0.024,0.656 0.05,0.242 z" title="Malaysia" id="MY"></path></svg>