<svg xmlns="http://www.w3.org/2000/svg" viewBox="0 0 59.63 96.98"><path d="m 14.94,96.9 -0.616,0.01 -1.054,0.03 -0.624,0.018 -0.698,0.018 -0.864,-0.176 -0.486,0.038 -0.04,-1.998 -0.158,-0.438 -0.166,-0.64 -0.04,-0.41 0.104,-0.412 0.05,-0.652 -0.046,-0.572 -0.516,-0.286 -0.114,-0.09 -0.112,-0.448 -0.044,-0.692 0.362,-0.878 -0.03,-1.686 0.042,-0.592 -0.006,-1.17 -0.008,-1.414 -0.006,-1.266 0.014,-1.09 -0.108,-0.516 -0.09,-0.284 -0.24,-0.576 -0.28,-1.198 -0.33,-0.904 -0.424,-0.596 -0.134,-0.314 -0.136,-0.418 -0.402,-0.74 -0.328,-0.43 -0.09,-0.344 0.012,-0.89 -0.366,-1.594 -0.266,-1.16 -0.4,-1.256 -0.268,-0.838 -0.04,-0.144 -0.03,-0.318 0.796,-0.622 0.796,-0.876 0.932,-1.024 0.832,-0.914 0.732,-0.802 1.002,-1.096 0.99,-1.082 0.232,-0.138 0.098,-0.088 -0.428,-0.96 0.688,-1.114 0.038,-0.724 -0.03,-0.692 0.084,-0.318 0.208,-0.278 0.804,-0.578 0.608,-0.92 0.498,-0.86 0.692,-1.38 0.068,-0.326 0.01,-0.334 -0.188,-0.47 -0.46,-0.754 -0.334,-0.652 -0.298,-1.002 0.3,-0.87 0.106,-0.526 0,-0.284 -0.132,-0.268 -0.336,-0.204 -0.28,-0.132 -0.094,-0.36 -0.002,-0.426 0.126,-0.236 0.744,-0.382 0.168,-0.208 0.088,-0.232 0.008,-0.33 0.23,-0.826 0.284,-0.784 0.02,-0.276 -0.1,-0.242 -0.078,-0.442 -0.05,-0.666 -0.004,-1.862 0.146,-1.918 -0.064,-1.086 -0.476,-1.248 -0.046,-0.9 0.346,-0.628 0.056,-0.37 -0.252,-0.048 -0.52,-0.038 -0.384,-0.116 -0.594,-0.514 -1.032,-0.428 -1.172,-0.39 -1.704,-0.116 -1.416,-1.248 -1.11,-0.2 -0.358,-0.16 -1.066,-0.748 -1.67,-0.07 -1.732,-0.074 -1.08,-0.022 -0.16,-0.1 -0.062,-1.03 -0.012,-0.914 -0.092,-0.794 -0.164,-0.904 -0.252,-0.352 -0.3,-0.61 -0.152,-0.672 -0.018,-0.326 0.056,-0.116 1.202,-0.478 0.514,-0.236 0.762,-0.274 1.356,-0.378 1.21,-0.338 1.11,-0.328 1.176,-0.348 0.478,-0.234 0.594,-0.234 1.422,-0.47 0.406,-0.162 0.816,-0.262 0.41,-0.102 1.574,-0.538 1.804,-0.616 0.632,-0.216 1.206,-0.412 0.234,0.17 0.822,1.416 0.646,0.834 0.736,0.772 0.124,-0.038 0.212,-0.18 0.368,-0.074 1.17,-0.174 0.446,-0.01 0.294,-0.208 0.6,-0.146 0.694,-0.088 0.238,0.094 0.732,1 0.106,0.764 0.152,1.106 0.036,0.54 -0.012,0.722 -0.082,0.904 -0.594,1.042 -0.114,0.518 -0.318,0.802 -0.42,0.396 -0.208,0.324 0.012,0.336 0.224,0.282 0.492,0.508 0.152,0.33 -0.044,0.292 0.002,0.398 0.118,0.276 0.14,0.16 0.486,0.26 0.476,0.654 0.82,0.79 0.98,1.126 0.46,0.346 0.362,0.084 0.18,0.376 -0.1,0.44 -0.282,0.25 0.116,0.36 0.16,0.188 0.178,0.096 0.43,0.022 0.4,-0.074 0.1,-0.126 -0.052,-1.686 -0.288,-0.982 -0.29,-0.384 -0.062,-0.076 0.102,-0.322 0.322,-0.752 0.274,-0.746 0.174,-0.314 0.202,-0.19 1.352,-0.202 0.616,-0.174 0.26,-0.218 0.202,-0.578 0.162,-1.614 0.058,-1.514 -0.14,-0.886 0.194,-1.334 0.296,-0.826 -0.146,-0.162 -0.11,-1.112 -0.88,-1.184 -1.132,-1.522 -0.634,-0.818 -0.72,-0.93 -1.312,-1.456 -0.6,-0.526 -0.316,-0.206 -1.06,-0.168 -0.282,-0.28 -0.268,-0.446 -0.102,-0.824 -0.018,-0.616 -0.12,-1.048 -0.214,-1.48 -0.096,-0.436 -0.302,-1.112 -0.288,-1.058 -0.016,-0.262 0.102,-0.254 0.488,-0.778 0.346,-0.552 0.164,-0.302 0.294,-0.82 0.07,-0.398 0.23,-0.18 0.938,-0.074 0.746,0.014 1.252,-0.018 1.322,0.048 0.186,0.036 0.298,0.086 0.336,-0.014 0.374,-0.116 0.414,-0.284 0.454,-0.452 0.708,0.01 0.958,0.47 0.524,0.41 0.088,0.35 0.642,0.204 1.196,0.056 0.87,-0.182 0.546,-0.42 0.572,-0.222 0.596,-0.026 0.45,0.144 0.306,0.312 0.586,0.224 0.868,0.136 0.948,-0.202 1.028,-0.538 0.586,-0.562 0.144,-0.584 0.17,-0.356 0.196,-0.126 0.544,-0.072 0.894,-0.02 0.778,0.184 0.992,0.582 0.626,-0.386 1.074,-0.662 1.082,-0.35 1.03,-0.002 0.846,-0.252 0.66,-0.5 0.698,-0.318 0.736,-0.134 0.688,-0.242 0.962,-0.52 0.998,-0.756 1.016,-0.772 0.652,-0.496 0.298,0.584 0.534,0.534 -0.318,0.31 -0.384,0.278 0.62,0.372 -0.454,0.562 -0.056,0.39 0.116,0.154 0.1,0.228 -0.298,0.644 -0.396,0.494 -0.102,0.378 0.35,0.666 -0.18,1.184 0.338,1.066 0.094,0.546 0.118,0.366 -0.168,0.654 0.044,1.104 0.078,0.456 -0.202,0.568 0.344,0.196 0.182,0.624 -0.048,0.702 -0.106,0.378 -0.592,0.458 -0.07,0.178 0.008,0.27 0.74,0.008 0.026,0.418 -0.048,0.33 0.028,0.62 -0.098,0.402 0.172,0.46 -0.21,0.51 0.072,0.394 0.01,0.51 0.172,1.29 0.03,1.596 0.038,0.256 0.264,0.18 0.37,0.09 -0.014,0.438 -0.412,0.572 -0.024,0.356 0.06,0.5 0.452,-0.68 0.272,0.002 0.242,0.266 -0.034,0.392 0.084,0.194 -0.036,0.38 0.134,0.482 -0.052,0.42 -0.332,0.294 -0.422,0.504 -0.076,0.472 0.04,0.31 -0.292,0.098 -0.136,0.192 0.198,0.446 -0.012,0.394 -0.516,1.228 -1.376,1.682 -0.594,0.598 -0.556,0.65 0,0.268 -0.054,0.232 -0.648,0.93 -0.696,0.152 -0.386,0.25 0.302,0.82 -0.45,0.19 -0.782,0.646 -2.15,1.242 -0.34,0.288 -0.546,0.762 -0.72,0.184 -0.4,0.216 -0.714,0.078 -0.25,-0.054 -0.244,0.028 -0.206,0.164 -1.418,0.536 -1.324,0.424 -0.326,0.194 -0.216,0.264 -1.172,0.42 -1.836,1.038 -1.502,0.992 -1.088,0.992 -0.288,0.15 -0.336,0.344 -0.114,0.508 -0.11,0.288 -0.806,1.048 -1.212,1.24 -0.236,0.338 -0.482,0.69 -0.046,0.452 -0.43,0.138 -0.36,-0.432 -0.154,0.834 -0.294,0.06 -0.326,-0.172 -0.814,0.414 -0.708,0.478 -1.136,1.006 -1.606,1.952 -2.342,1.888 -0.32,0.054 -0.216,-0.008 -0.738,-0.658 -0.402,-0.048 0.36,0.39 0.238,0.326 -0.06,0.638 0.028,0.958 -0.29,1.866 0.04,0.408 0.334,0.53 0.63,0.648 0.59,0.808 0.76,2.324 0.058,1.2 0.784,1.534 0.03,0.666 0.318,1.658 -0.022,1.344 -0.056,0.824 0.378,0.348 0.14,-0.314 -0.04,-0.522 0.1,-0.836 0.21,-0.372 0.21,0.052 0.062,0.394 0.142,0.35 0.058,0.328 0.01,0.446 -0.29,1.698 0.086,0.692 0.39,1.158 -0.456,1.346 -0.66,3.18 -0.038,0.552 0.16,0.24 0.354,0.082 0.13,-0.408 0.208,0.004 0.11,0.24 -0.294,1.472 -0.29,0.646 -1.03,1.586 -0.554,0.68 -0.92,0.67 -2.16,1.048 -4.33,1.518 -1.716,0.746 -1.026,0.446 -2.168,1.418 -0.948,0.952 -0.39,1.094 -0.374,0.5 -0.368,0.636 0.32,0.546 0.314,0.414 0.372,0.278 0.192,0.24 0.252,0.166 0.252,-0.86 0.126,-0.268 0.216,-0.02 -0.12,1.048 -0.25,3.608 -0.026,0.14 z m 10.29,-87.534 0.15,-0.126 0.058,-0.166 -0.002,-0.162 -0.094,-0.1 -0.136,-0.058 -0.196,0.034 -0.07,0.22 -0.03,0.304 0.124,0.102 0.196,-0.048 z m -0.436,-0.552 -0.098,-0.166 -0.184,-0.078 -0.21,0.064 -0.07,0.208 0.218,0.268 0.232,0.004 0.112,-0.3 z" title="Mozambique" id="MZ"></path></svg>