<svg xmlns="http://www.w3.org/2000/svg" viewBox="0 0 75.98 72.74"><path d="m 65.44,3.92 1.202,-0.24 1.148,-0.23 1.334,-0.23 1.068,-0.184 0.268,-0.048 2.57,0.214 1.12,0.15 0.39,0.148 0.506,0.384 0.936,0.934 -0.24,-0.036 -1.724,0.198 -0.656,0.254 -1.468,1.102 -0.312,-0.142 -0.352,-0.228 -0.298,-0.066 -0.646,0.264 -0.644,0.318 -0.71,0.45 -0.586,0.44 -0.192,0.238 -0.918,0.91 -0.3,0.146 -0.266,0.064 -0.108,-0.042 -0.114,-0.392 -0.564,-0.912 -0.904,-1.196 -0.264,-0.116 -0.182,-0.046 -0.67,0.058 -1.948,0.338 -1.644,0.284 -2.518,0.488 -2.704,0.392 -1.666,0.242 -1.452,0.072 0.002,1.184 0.002,2.406 0.004,2.408 0.004,2.416 0.004,2.42 0.002,2.428 0.004,2.434 0.004,2.442 0.004,2.448 0,1.07 -0.048,0.23 -0.832,0 -1.882,0 -1.582,0 -1.28,0 0.002,1.46 0.002,1.73 0,1.734 0.002,1.738 0.002,1.74 0.002,1.746 0.002,1.748 0.002,1.754 0.002,1.756 0,1.328 0,0.152 0,2.586 0,2.75 0,2.76 0,2.77 0,2.782 0,2.792 0,2.802 0,2.816 0,0.894 -0.576,-0.012 -1.158,0.346 -0.738,0.45 -0.32,0.554 -0.424,0.336 -0.532,0.12 -0.234,0.282 0.064,0.448 -0.206,0.342 -0.47,0.238 -0.762,-0.07 -1.052,-0.376 -1.338,-0.088 -1.624,0.198 -1.17,-0.092 -0.71,-0.386 -0.754,-0.218 -0.798,-0.056 -0.464,-0.16 -0.948,-0.286 -0.18,-0.492 -0.112,-0.37 -0.27,-0.39 -0.03,-0.316 0.212,-0.24 0.03,-0.384 -0.15,-0.532 -0.262,-0.258 -0.372,0.014 -0.232,-0.204 -0.092,-0.42 -0.218,-0.318 -0.522,-0.324 -0.69,0.244 -0.326,0.37 -0.192,0.576 -0.174,0.29 -0.088,0.482 -0.04,0.342 -0.176,0.366 -0.184,0.148 -0.19,-0.068 -0.354,0.148 -0.782,0.538 -0.222,0.284 -0.63,-0.514 -1.84,-1.934 -0.654,-0.502 -0.964,-1.182 -2.12,-3.652 -0.302,-0.702 -0.404,-1.756 -0.464,-1.298 -0.052,-0.748 0.222,-0.424 -0.136,-0.574 -0.238,-0.514 -0.722,-0.672 -0.206,-2.236 -0.484,-1.442 0.106,-1.19 -0.232,-1.082 -0.022,-0.692 0.104,-1.316 -0.388,-1.51 -0.786,-1.472 -0.71,-2.12 -0.102,-0.928 0.076,-2.486 -0.138,-1.014 0.008,-1.188 -0.28,-1.23 -0.116,-0.67 0.198,-0.53 0.116,0.168 0.204,0.08 0.138,-0.704 0.032,-0.622 -0.354,-1.532 -0.79,-1.564 -1.958,-2.54 -0.478,-0.968 -0.272,-0.8 -2.184,-3.332 -0.932,-2.342 -0.652,-2.02 -0.708,-0.93 -3.278,-6.518 -0.726,-1.036 -1.308,-1.238 -0.306,-0.412 -0.504,-1.178 -0.984,-1.576 -0.24,-1.47 -0.066,-1.664 0.12,-1.272 0.896,-0.132 0.626,-0.34 0.562,-0.022 0.556,0.266 0.59,0.02 0.23,-0.044 1.06,0.038 0.608,-0.304 0.722,-0.304 0.416,-0.268 0.584,-0.274 0.774,-0.278 0.44,0.022 0.54,0.104 0.718,0.108 0.406,0.186 0.48,0.592 0.746,0.538 0.548,0.322 0.63,0.422 0.188,0.164 0.278,0.09 0.17,0.028 1.17,-0.066 1.058,-0.058 1.142,0.002 2.146,0.002 2.148,0.004 2.148,0.002 2.148,0.004 2.148,0.004 2.146,0.004 2.148,0.002 2.148,0.004 0.878,0.002 1.534,0.018 1.616,0.02 0.178,0.034 0.18,0.112 0.148,0.108 0.57,0.744 0.728,0.78 0.608,0.368 0.724,0.22 0.68,0.082 0.636,-0.054 1.052,0.1 1.472,0.252 1.53,0.074 1.586,-0.102 1.114,0.138 0.644,0.382 0.66,0.26 0.676,0.136 0.912,-0.08 1.152,-0.296 0.98,0.042 0.454,0.214 0.27,0.006 1.692,-0.31 1.36,-0.248 2.042,-0.398 1.682,-0.328 2.492,-0.484 z" title="Namibia" id="NA"></path></svg>