<svg xmlns="http://www.w3.org/2000/svg" viewBox="0 0 46.09 21.18"><path d="m 0.14,1.16 -0.088,0.126 -0.044,-0.938 0.178,-0.352 0.086,0.73 -0.132,0.434 z m 23.856,5.54 0.632,0.374 0.68,-0.16 0.854,0.588 2.176,1.788 0.764,0.378 0.45,0.144 0.34,0.292 0.304,0.414 0.414,0.292 0.18,0.272 0.044,0.368 0.15,0.226 0.758,0.594 0.452,0.522 0.628,0.266 0.27,0.312 0.352,0.152 0.36,0.32 0.608,0.25 1.378,0.92 1.064,0.874 0.532,0.542 0.572,0.482 0.732,0.386 0.688,0.44 0.346,1.032 -0.19,0.37 -0.394,0.184 -0.366,0.014 -0.342,0.124 -1.142,-0.666 -0.272,-0.098 -0.304,0.042 -0.17,-0.148 -0.12,-0.212 -0.698,-0.248 -0.648,-0.396 -0.188,-0.27 -0.11,-0.336 -0.156,-0.192 -0.914,-0.292 -0.616,-0.326 -0.448,-0.458 -0.694,-0.32 -1.082,-0.656 -0.554,-0.21 -0.486,-0.328 -1.3,-1.19 -0.464,-0.222 -0.404,-0.528 -1.122,-1.254 -0.542,-0.514 -0.588,-0.458 -0.45,-0.536 -0.346,-0.636 -0.804,-0.91 -0.098,-0.388 0.034,-0.398 -0.194,-0.256 -0.328,-0.156 -0.156,-0.268 0.018,-0.362 0.108,-0.186 0.802,0.616 z m 13.16,2.696 -0.298,0.058 0.36,-0.546 0.012,-0.334 0.144,-0.66 -0.018,-0.22 0.238,0.028 0.258,0.19 -0.296,0.164 -0.1,0.286 0.012,0.356 0.114,0.066 -0.19,0.39 -0.236,0.222 z m 4.794,2.76 -0.306,0.048 -0.41,-0.432 -0.782,-0.216 -0.344,-0.378 -0.224,-0.446 0.444,-0.11 0.436,-0.6 -0.296,-0.222 -0.512,-0.04 0.058,-0.234 0.832,-0.278 0.366,0.162 0.162,0.19 -0.024,0.95 0.376,0.302 0.39,0.676 0,0.19 -0.166,0.438 z m 3.426,1.612 0.262,0.112 0.458,-0.02 -0.104,1.024 -0.642,0.164 -0.22,-0.008 -0.144,-0.216 -0.368,-0.142 0.018,-0.35 -0.356,-0.786 0.62,-0.12 0.352,-0.21 -0.02,0.192 0.054,0.222 0.09,0.138 z m -2.62,7.184 -0.178,0.228 -0.22,-0.046 -0.168,-0.086 -0.122,-0.124 0.122,-0.466 0.482,0.228 0.084,0.266 z" title="New Caledonia" id="NC"></path></svg>