<svg xmlns="http://www.w3.org/2000/svg" viewBox="0 0 25.17 24.45"><path d="m 25.32,0.08 -0.156,0.212 -0.172,0.14 -0.358,0.69 -0.124,0.062 -0.026,-0.51 -0.214,-0.068 -0.25,0.182 -0.138,0.262 0.218,0.34 0.192,0.006 0.232,0.094 0.626,2.356 -0.134,0.42 -0.388,0.654 -0.368,0.554 -0.37,0.348 -0.458,1.48 -0.412,2.402 0.296,2.154 -0.15,1.99 0.132,0.468 0.038,0.584 -0.304,0.106 -0.172,-0.018 -0.176,-0.358 0.02,-0.316 0.182,-0.37 0.074,-0.502 -0.086,-0.262 -0.18,0.572 -0.316,0.256 -0.206,0.09 -0.2,0.288 0.212,0.544 0.274,0.398 0.092,0.284 -0.102,0.34 -0.062,1.16 -0.098,-0.032 -0.1,-0.156 -0.29,-0.012 -0.034,0.468 0.022,0.26 -0.246,0.202 -0.088,0.2 0.202,0.144 0.222,0.084 0.274,-0.02 0.224,0.574 0.072,0.466 -0.524,0.43 -0.176,0.356 -0.296,0.432 -0.168,0.424 -0.05,0.304 0.204,0.964 0.358,0.684 0.302,0.434 0.404,0.094 -0.094,0.456 -0.304,0.29 -0.552,0.242 -0.606,0.044 -0.992,-0.228 -0.406,-0.026 -0.158,-0.122 -0.048,-0.224 -0.284,-0.338 -0.52,-0.45 -0.3,0.032 -0.49,-0.098 -0.814,-0.306 -0.376,-0.038 -0.54,0.262 -0.628,0.344 -1.514,-0.536 -1.064,-0.378 -0.956,-0.342 -0.254,-0.13 -0.21,0.028 -0.182,0.178 -0.206,0.316 -0.068,0.092 -0.11,0.086 -0.124,0.024 -0.004,-0.15 -0.468,-0.628 -0.744,-0.754 -2.85,-2.316 -1.048,-1.386 -0.562,-0.998 -0.534,-0.52 -1.54,-1.064 -0.356,-0.424 -1.524,-1.424 -1.164,-0.836 -0.016,-0.356 0.478,-0.444 0.234,0.022 0.256,0.316 0.412,0.362 0.194,0.002 0.288,-0.168 0.006,-0.168 1.562,-0.068 0.28,-0.094 0.282,-0.262 0.146,-0.368 0.024,-0.352 0.06,-0.254 0.25,-0.246 0.458,-0.076 0.352,-0.026 0.104,-0.166 -0.106,-0.538 -0.19,-1.308 -0.04,-0.366 0.064,-0.272 0.144,-0.098 0.692,-0.066 1.31,0.11 0.254,-0.082 0.524,-0.744 0.488,-0.546 0.348,-0.246 0.276,-0.074 0.316,0.486 1.106,0.696 0.188,-0.044 0.108,-0.038 0.036,-0.1 -0.02,-0.32 0.276,-0.292 0.574,-0.262 0.576,-0.462 0.58,-0.664 0.504,-0.39 0.424,-0.116 0.164,-0.18 -0.102,-0.246 0.034,-0.35 0.168,-0.452 0.248,-0.262 0.324,-0.072 0.13,-0.142 -0.068,-0.214 0.062,-0.234 0.294,-0.386 0.7,-0.33 0.4,0.11 0.332,0.444 0.472,0.302 0.608,0.16 0.472,-0.058 0.336,-0.278 0.302,-0.084 0.268,0.11 0.142,-0.064 0.016,-0.232 0.138,-0.054 0.264,0.126 0.232,0.032 0.204,-0.06 0.08,-0.114 0.042,-0.118 0.152,-0.086 0.526,0.086 0.588,-0.134 0.654,-0.358 0.434,-0.156 0.214,0.04 0.256,-0.18 0.298,-0.4 0.682,-0.18 z" title="Nicaragua" id="NI"></path></svg>