<svg xmlns="http://www.w3.org/2000/svg" viewBox="0 0 21.59 26.27"><path d="m 10.56,2.34 -0.238,-0.13 1.262,-0.374 0.798,-0.114 0.142,0.05 -1.442,0.492 -0.522,0.076 z m 2.802,-0.608 1.108,-0.154 -0.006,-0.058 -0.292,-0.094 -0.944,0.016 -0.302,0.066 0.062,0.11 0.374,0.114 z m 3.376,-0.642 -0.238,-0.04 -0.692,0.2 -0.048,0.092 0.192,0.068 0.786,-0.32 z m -6.874,1.904 -0.458,-0.02 -0.668,0.598 0.088,0.11 1.038,-0.688 z m 9.498,-2.986 -0.26,0 -0.482,0.188 -0.15,0.25 0.52,-0.032 0.372,-0.406 z m -15.658,20.518 -0.716,0.372 -0.936,-0.13 -0.712,-0.272 -0.918,0.052 -0.424,0.142 0.168,0.776 0.128,0.246 0.166,0.16 0.22,0.032 0.254,-0.192 0.354,-0.202 0.57,0.094 0.414,0.186 0.148,0.194 0.274,0.184 0.4,0.044 0.774,-0.352 0.744,-0.538 0.218,-0.374 0.082,-0.338 -0.644,0.232 -0.564,-0.316 z m 17.884,-17.29 -0.782,-0.17 -0.504,-0.25 -0.314,-0.452 -0.54,-0.618 -1.418,0.064 -1.18,0.178 -1.634,0.076 -1.058,0.3 -1.916,1 -0.482,0.51 -0.492,1.098 -1.668,1.264 -0.972,0.486 -0.274,-0.186 -0.394,-0.122 -0.314,0.642 -0.194,0.578 -0.652,3.386 -0.444,1.224 -0.598,1.028 -0.94,1.256 -0.432,0.428 -0.264,0.162 -0.33,0.604 -0.264,0.724 -0.18,0.338 1.054,1.244 0.132,0.356 0.138,0.208 -0.998,0.13 0.424,0.402 0.534,0.288 0.358,0.138 0.196,0.29 -0.384,0.134 -0.362,0.008 -1.432,-1.066 -0.796,-0.196 -1.096,0.062 -0.276,0.112 -0.284,0.324 0.402,0.492 0.372,0.29 0.598,0.038 0.72,0.364 1.036,-0.304 0.744,0.374 0.49,0.134 0.44,0.224 0.388,0.048 0.17,-0.1 -0.108,-0.542 0.316,-0.29 0.35,-0.134 0.158,0.236 0.322,0.24 0.252,0.002 0.684,-0.624 0.16,0.124 0.148,0.222 0.032,0.178 0.026,0.188 0.154,0.078 0.538,-0.04 0.274,-0.338 0.214,-0.212 0.16,0.144 0.078,0.416 0.148,0.542 0.642,0.604 0.542,0.172 0.666,-0.118 0.264,-0.108 0.178,0.09 0.178,0.32 0.384,0.366 0.806,0.258 0.248,0.146 0.172,0.246 -0.05,0.35 -0.384,0.87 -0.05,0.256 0.052,0.086 -0.076,0.16 -0.5,0.582 -0.044,0.206 0.166,0.334 0.138,0.276 0,0 0.3,0.134 0.282,0.044 0.534,0.018 0.57,0.018 0.306,-1.37 -0.234,-0.4 -0.29,-0.204 -0.338,-0.1 -0.156,-0.19 -0.054,-0.218 0.06,-0.134 0.398,0.04 0.124,-0.142 0.948,-0.808 0.04,-0.156 -0.132,-0.088 -0.172,-0.046 -0.044,-0.17 0.006,-0.224 0.506,-1.17 0.15,-0.5 0.034,-0.354 -0.032,-0.35 -0.292,-0.55 -0.282,-0.44 -0.01,-0.35 -0.206,-0.184 -0.584,-0.942 0,-0.364 0.33,-0.284 0.462,-0.18 0.154,-0.15 0.276,-0.094 0.734,0.272 0.328,0.236 0.092,-0.048 0.296,-0.256 0.52,0.04 1.258,-0.516 0.188,-0.248 0.14,-0.264 0.012,-0.116 -0.488,-0.51 -0.014,-0.188 0.064,-0.212 0.138,-0.168 0.288,-0.114 0.306,-0.224 0.686,-0.636 0.238,-0.552 0.074,-0.6 0.014,-0.448 -0.188,-0.356 -0.19,-0.23 -0.258,0.036 -0.502,-0.018 -0.47,-0.2 -0.258,-0.324 -0.064,-0.284 0.118,-0.18 0.036,-0.22 -0.076,-0.222 0.03,-0.186 0.212,-0.15 1.486,0.004 0.112,-0.164 0.1,-0.864 0.372,-1.318 0.35,-0.736 0.058,-0.31 -0.006,-1.75 0.044,-0.896 z m -19.452,14.748 0.49,-0.142 0.742,0.604 0.696,-0.196 -0.042,-0.168 -0.118,-0.158 -0.548,-0.494 -0.898,-0.062 -0.508,0.152 0.002,0.178 0.184,0.286 z m 5.924,-12.112 0.556,-0.66 0,-1.05 -0.822,0.858 -0.172,0.516 0.098,0.154 0.34,0.182 z" title="Netherlands" id="NL"></path></svg>