<svg xmlns="http://www.w3.org/2000/svg" viewBox="0 0 44.12 58.32"><path d="m 24.24,4.38 -0.11,0.142 -0.162,0.014 -0.372,-0.122 -0.218,-0.282 0.042,-0.344 0.012,-0.636 0.106,-0.6 -0.03,-0.636 -0.288,-0.128 -0.202,0.036 0.47,-0.898 0.186,-0.138 0.174,0.058 0.434,-0.096 0.228,-0.488 0.182,-0.266 0.194,0.032 0.094,0.15 -0.068,0.742 -0.008,0.618 -0.24,1.888 -0.248,0.326 -0.126,0.264 -0.05,0.364 z m -0.092,2.566 -0.232,0.166 -0.166,-0.028 0.034,-0.33 0.1,-0.23 0.24,0.018 0.058,0.138 -0.034,0.266 z m -17.938,51.368 -0.34,-0.768 -0.34,-0.768 -0.342,-0.768 -0.34,-0.77 -0.238,-0.54 -0.4,-0.19 -0.244,-0.57 -0.248,-0.584 -0.248,-0.584 -0.248,-0.584 -0.248,-0.584 -0.25,-0.586 -0.248,-0.586 -0.248,-0.586 -0.248,-0.586 -0.25,-0.586 -0.248,-0.586 -0.248,-0.588 -0.248,-0.588 -0.248,-0.588 -0.25,-0.588 -0.248,-0.588 -0.248,-0.588 0.792,-0.278 0.964,-0.338 0.966,-0.338 0.964,-0.338 0.966,-0.338 0.964,-0.338 0.964,-0.34 0.966,-0.338 0.964,-0.338 0.966,-0.34 0.964,-0.34 0.964,-0.338 0.966,-0.34 0.964,-0.34 0.964,-0.34 0.966,-0.34 0.964,-0.34 0.598,-0.21 0.248,-0.792 0.206,-0.658 0.206,-0.658 0.206,-0.66 0.208,-0.66 0.206,-0.66 0.206,-0.66 0.206,-0.662 0.208,-0.662 0.206,-0.662 0.206,-0.662 0.206,-0.664 0.206,-0.664 0.208,-0.664 0.206,-0.664 0.206,-0.666 0.206,-0.666 0.19,-0.61 -0.356,-0.588 -0.476,-0.792 -0.5,-0.828 -0.468,-0.78 -0.342,-0.568 -0.412,-0.686 0.044,-0.882 -0.01,-0.442 0.042,-0.678 0.394,-0.942 0.466,-1.2 0.34,-0.798 0.294,-0.696 0.236,-0.558 0.13,-0.576 -0.07,-0.406 -0.154,-0.148 -0.13,-0.192 0.446,-0.308 0.836,-0.2 0.462,0.042 0.644,-0.148 0.512,-0.134 0.04,-0.18 -0.144,-0.304 -0.212,-0.444 -0.722,-0.046 -0.218,-0.124 0.252,-0.656 -0.01,-0.208 -0.096,-0.246 -0.106,-0.412 0.052,-0.532 0.148,-0.362 0.002,-0.292 -0.07,-0.6 0.022,-0.534 0.152,-0.266 0.27,-0.248 0.254,-0.126 0.264,0.008 0.21,0.106 0.09,0.28 -0.056,0.194 -0.15,0.026 -0.052,0.082 0.214,0.374 0.31,0.366 0.24,-0.062 0.268,-0.288 0.284,-0.232 0.354,-0.206 0.258,-0.398 0.22,-0.258 0.196,-0.036 0.572,1.616 0.848,1.51 0.748,0.832 0.778,1.128 1.182,1.036 0.542,0.354 2.198,0.726 1.202,0.272 1.656,0.26 1.146,0.564 0.384,0.036 0.6,-0.168 0.438,0.014 1.096,0.768 0.322,0.728 0.456,0.384 0.402,0.604 0.262,0.632 0.926,0.962 0.652,1.082 0.664,0.8 0.594,0.498 0.9,0.196 0.716,0.224 0.08,0.534 -0.074,0.696 -0.136,0.514 -0.668,1 -0.16,0.616 -0.756,1.016 -0.82,1.702 -0.376,0.38 -1.322,0.876 -0.972,1.054 -1.152,1.828 -0.876,1.808 -0.336,0.578 -0.706,0.12 -0.462,-0.05 -0.32,-0.17 0.126,-0.494 0.076,-0.55 -0.426,0.058 -0.374,0.114 -0.874,1.35 -0.48,0.592 -0.102,0.75 -0.232,0.968 -0.342,0.89 -0.152,0.748 0.006,0.424 0.256,1.034 0.018,1.058 0.148,0.634 0.12,0.76 -0.41,0.234 -0.352,0.116 -1.392,0.084 -1.41,0.244 -1.232,0.44 -0.736,0.438 -0.958,0.978 -0.586,2.478 -0.938,1.044 -0.636,0.218 -1.53,0.092 -2.154,0.288 -0.756,0.25 -1.256,1.508 -0.098,0.474 0.242,0.342 0.08,0.378 -0.114,0.354 -0.57,0.954 -0.616,0.692 -1.64,0.434 -0.602,-0.258 -0.55,-0.13 -1.064,-0.014 -1.732,0.164 -0.638,0.512 -1.006,0.362 -0.928,0.558 -1.752,0.212 -1.202,0.45 z m 31.636,-21 -0.354,0.09 -0.102,-0.042 0.002,-0.752 0.824,-0.948 0.542,-1.096 0.374,0.98 -0.65,0.548 -0.352,0.936 -0.284,0.284 z" title="Oman" id="OM"></path></svg>