<svg xmlns="http://www.w3.org/2000/svg" viewBox="0 0 85.42 69.93"><path d="m 64.22,0.72 -0.55,0.132 -0.262,-0.024 -0.198,-0.46 0.072,-0.284 0.088,-0.09 0.936,0.112 0.08,0.208 -0.014,0.198 -0.152,0.208 z m 2.9,0.168 -0.364,0.044 -0.06,-0.28 0.112,-0.148 0.156,-0.07 0.278,0.086 0.146,0.122 -0.008,0.104 -0.26,0.142 z m -2.916,2.744 -0.122,0.104 -0.228,-0.338 -0.036,-0.142 0.412,-0.176 0.224,0.092 -0.25,0.46 z m 5.902,1.522 0.84,0.294 0.264,-0.032 -0.268,0.29 -0.838,0.158 -0.278,0.14 -0.338,-0.09 -0.182,-0.336 0.8,-0.424 z m -0.2,1.338 -0.416,0.442 0,-0.47 0.15,-0.062 0.136,0 0.13,0.09 z m 2.294,3.308 -0.206,0.096 -0.014,-0.606 0.266,0.116 0.104,0.098 -0.044,0.166 -0.106,0.13 z m -35.924,30.606 -0.036,0.262 -0.106,-0.252 -0.346,-0.404 -0.128,-0.18 0.154,0.028 0.462,0.546 z m 14.254,1.394 -0.1,0.062 0.128,-0.46 0.144,-0.058 -0.172,0.456 z m -16.698,1.356 0.026,0.1 -0.116,-0.006 -0.208,-0.294 -0.074,-0.254 -0.132,-0.29 -0.182,-0.21 -0.02,-0.194 -0.006,-0.306 0.206,0.468 0.196,0.376 0.142,0.308 0.168,0.302 z m -33.566,1.908 -0.102,0.044 -0.108,-0.106 -0.046,-0.162 0.038,-0.262 0.272,0.172 0.108,0.116 -0.162,0.198 z m 44.318,-0.134 -0.222,0.034 -0.542,-0.346 0.208,0 0.31,0.216 0.246,0.096 z m 0.732,-0.086 0.306,0.286 -0.406,-0.196 -0.516,-0.084 0.196,-0.052 0.286,0.008 0.134,0.038 z m -44.73,1.502 -0.222,0.008 -0.202,-0.09 0.05,-0.6 0.054,-0.124 0.312,0.202 0.262,0.524 -0.254,0.08 z m 8.96,3.898 -0.176,0.152 -0.234,-0.108 -0.104,-0.146 -0.038,-0.156 0.054,-0.186 0.524,0.026 0.148,0.082 -0.174,0.336 z m 2.76,0.848 0.808,0.272 0.15,0.442 -0.172,0.294 -0.408,-0.072 -0.202,-0.162 -0.284,-0.528 -0.79,0.12 -0.546,-0.104 -0.302,-0.688 -0.012,-0.312 0.132,-0.19 0.58,-0.208 0.724,0.152 0.276,0.39 0.046,0.594 z m 47.78,0.976 0.028,0.112 -0.204,-0.014 -0.06,-0.038 0.004,-0.208 0.148,-0.252 0.116,-0.212 0.236,-0.198 0.422,-0.198 0.204,-0.084 0.066,0.046 -0.078,0.03 -0.698,0.416 -0.218,0.292 -0.096,0.204 0.018,0.064 0.112,0.04 z m -0.116,1.952 0.04,0.162 -0.21,-0.108 -0.198,-0.298 -0.354,-0.37 -0.084,-0.152 0.272,0.144 0.178,0.216 0.356,0.406 z m 21.656,0.898 0.002,0.11 -0.54,-0.562 0.212,0.044 0.326,0.408 z m -20.844,0.222 0.076,0.214 -0.136,-0.1 -0.434,-0.208 -0.048,-0.174 0.542,0.268 z m 24.648,0.968 -0.114,0.128 -0.01,-0.124 -0.158,-0.06 -0.218,-0.126 -0.296,-0.144 -0.16,-0.024 -0.08,-0.084 0.112,-0.044 0.182,0.066 0.256,0.132 0.296,0.132 0.19,0.148 z m -12.414,13.708 -0.164,0.112 0.06,-0.152 -0.126,-0.332 -0.124,-0.048 0.124,-0.094 0.176,0.25 0.054,0.264 z" title="French Polynesia" id="PF"></path></svg>