<svg xmlns="http://www.w3.org/2000/svg" viewBox="0 0 14.83 3.38"><path d="m 10.14,0.46 0.172,0.116 0.168,-0.016 -0.136,-0.242 0.126,0 1.076,0.148 0.692,0.25 0.712,0.118 0.044,0.818 -0.548,0.328 -0.358,0.34 -0.292,0.418 -0.768,0.486 -0.924,0.146 -0.616,0.014 -0.23,-0.016 -0.224,-0.084 -0.464,0.08 -0.574,-0.214 -0.492,0.054 -0.976,-0.05 -0.366,0.184 -0.35,0.042 -0.342,-0.034 -0.292,-0.084 -0.724,0.006 -0.306,-0.162 0.126,-0.93 0.01,-0.42 -0.178,-0.348 -0.196,-0.218 -0.14,-0.258 0.284,-0.17 0.234,-0.248 0.074,-0.374 0.256,-0.092 0.3,-0.042 1.384,0.174 3.504,0.098 0.2,0.03 0.134,0.152 z m 3.95,1.992 -0.44,0.036 -0.286,-0.048 -0.096,-0.174 0.534,-0.164 0.622,0.024 0.356,0.098 0.044,0.066 -0.734,0.162 z m -13.734,0.268 -0.052,0.006 -0.052,-0.006 -0.024,-0.016 -0.036,-0.054 -0.16,-0.088 -0.038,-0.082 0.036,-0.084 0.066,-0.034 0.324,-0.008 0.034,0.008 0.064,0.06 0.002,0.042 -0.032,0.042 -0.058,0.102 -0.024,0.026 -0.018,0.026 -0.008,0.046 -0.024,0.014 z" title="Puerto Rico" id="PR"></path></svg>