<svg xmlns="http://www.w3.org/2000/svg" viewBox="0 0 7.71 8.72"><path d="m 0.84,8.16 -0.578,0.552 -0.184,-0.548 -0.082,-0.198 1.062,-1.054 0.506,-0.664 0.262,0.284 0.008,0.106 -0.984,1.066 -0.01,0.456 z m 6.64,-4.54 0.154,1.444 -0.334,0.612 -0.19,0.722 -0.084,0.544 -0.234,-0.024 -0.742,0.394 -0.986,0.372 -1.084,0.096 -0.154,-0.11 -0.044,-0.188 0.318,-0.916 0.122,-0.43 0.47,-0.464 0.666,-0.402 0.282,-0.102 -0.032,-0.172 -0.398,-0.266 -0.416,-0.138 -0.394,0.138 -0.124,-0.042 -0.042,-0.118 0.138,-0.166 0.064,-0.308 -0.062,-0.516 -0.042,-0.628 -0.086,-0.488 0.246,-0.792 0.062,-0.378 0.306,-0.808 0.718,-0.49 0.622,0.142 0.328,0.036 0.138,0.096 0.09,0.28 0.458,0.324 0.376,0.042 0.116,1.042 -0.21,0.89 -0.016,0.772 z" title="Palestinian Territories" id="PS"></path></svg>