<svg xmlns="http://www.w3.org/2000/svg" viewBox="0 0 140.73 66.94"><path d="m 79.1,65.48 0.766,0.35 0.704,-0.168 0.872,0.45 0.454,0.104 -0.404,0.322 -0.406,0.408 -1.014,-0.096 -0.858,-0.392 -0.308,-0.298 -0.084,-0.268 0.278,-0.412 z m -43.988,-27.89 -0.024,0.128 -0.318,-0.05 -0.402,0.038 -0.216,-0.372 0.196,-0.154 0.452,-0.038 0.216,0.166 0.096,0.282 z m -3.488,-6.198 0.356,0.048 1.79,-0.104 0.476,0.076 -0.05,0.52 -0.338,0.208 -1.054,0.14 -1.658,-0.336 -0.556,-0.448 -0.08,-0.328 0.01,-0.154 0.35,-0.122 0.754,0.5 z m -14.022,-4.348 0.462,0.286 -0.702,0.062 -0.232,0.14 -0.568,-0.202 -0.686,0.03 -0.43,-0.384 -0.098,-0.4 0.216,-0.248 0.606,-0.002 1.432,0.718 z m -2.774,-0.516 -0.576,0.018 -0.55,-0.544 0.81,-0.286 0.238,0.174 0.176,0.198 0.104,0.254 -0.202,0.186 z m 4.844,-0.22 -0.266,0.086 -1.496,-0.55 -0.534,-0.25 -0.692,-0.634 1.954,0.77 1.034,0.578 z m 3.946,-0.628 -0.112,0.068 -1.166,-0.194 -0.332,-0.262 -0.134,-0.488 0.196,-0.166 0.512,-0.098 0.744,0.092 0.478,0.35 0,0.446 -0.186,0.252 z m -22.8,-5.494 -0.248,0.348 -0.428,-0.124 -0.142,-0.13 0.124,-0.744 0.342,-0.174 0.344,0.3 0.008,0.524 z m 128.896,-17.776 0.118,0.06 0.326,-0.016 0.58,-0.284 0.394,-0.238 0.138,0.098 1.142,-0.134 0.27,0.108 0.18,0.122 0.562,0.164 0.612,0.018 0.758,-0.23 0.332,-0.232 0.064,-0.256 0.016,-0.194 0.098,-0.124 0.172,-0.07 0.27,0.126 0.386,0.102 0.926,0.042 0.182,-0.142 0.314,0.042 0.414,0.18 0.478,-0.058 0.242,0.22 0.1,0.292 0.028,0.634 -0.036,0.64 0.094,0.236 0.324,0.062 0.522,-0.008 0.47,0.172 0.364,0.302 0.12,0.308 0.052,0.212 -0.178,0.12 -0.252,0.456 -0.64,0.594 -0.914,0.534 -0.698,0.664 -0.48,0.792 -0.602,0.336 -0.184,0.18 -0.072,0.214 0.398,0.968 0.122,0.746 0.098,0.912 -0.064,0.256 -0.034,1 -0.092,0.292 0.024,0.238 0.146,0.254 0.066,0.244 -0.274,0.31 -0.502,0.36 -0.372,0.316 -0.1,0.296 0.028,0.184 0.626,0.626 0.114,0.256 -0.084,0.618 -0.36,1.01 -0.344,0.614 -0.06,0.06 -0.394,0.174 -1.888,0.006 -0.458,0.138 0.064,0.124 0.444,0.788 0.462,0.418 0.154,0.096 0.166,0.918 0.75,1.464 0.726,0.202 0.252,0.366 -0.046,0.512 -0.224,0.562 -0.446,0.576 -0.53,0.404 -0.346,0.402 -0.028,0.466 -0.11,0.59 -0.166,0.466 -0.042,0.314 1.328,1.97 0.74,-0.096 0.096,0.046 -0.132,0.468 -0.234,0.548 -0.28,0.104 -0.634,0.168 -0.6,0.708 -0.486,0.85 -0.366,0.412 -0.334,1.008 0.042,0.436 0.162,0.672 0.342,1.748 -0.492,0.078 -1.912,1.138 -0.592,0.002 -1.106,-0.5 -1.952,-0.162 -0.636,-0.15 -0.794,0.328 -0.614,-0.008 -0.488,0.418 -0.35,-0.114 0.402,-0.938 0.63,-1.86 -0.026,-1.138 0.15,-0.992 -0.172,-0.984 -0.316,-0.616 0.43,-1.598 -0.048,-0.826 -0.394,-1.048 1.194,0.16 -0.37,-0.416 -0.364,-0.254 -0.352,0.058 -0.298,-0.016 -1.016,0.406 -0.51,0.122 -0.148,-0.072 0.056,-0.648 -0.264,-0.842 0.408,-0.222 0.474,-0.064 0.404,-0.36 0.25,-0.402 -0.132,-0.718 0.35,-0.682 0.822,-0.578 -0.426,0.088 -0.488,0.36 -0.768,1.304 -0.25,0.66 -0.654,0.214 -0.586,0.106 -0.3,-0.07 -0.36,-0.166 -0.032,-0.486 0.028,-0.388 0.244,-0.772 0.096,-1.092 0.346,-0.98 -0.026,-0.262 -0.098,-0.39 0.308,-0.382 0.382,-0.252 0.58,-0.844 0.81,-2.018 0.934,-2.154 -0.076,-0.264 -0.198,-0.204 0.08,-0.584 0.562,-2.546 0.228,-0.334 0.264,-0.75 0.06,-1.212 0.104,-0.836 -0.024,-0.42 -0.084,-0.506 -0.358,-0.968 -0.376,-2.052 -0.03,-0.688 0.31,-0.348 -0.51,-0.05 -0.232,-0.446 0.052,-0.506 0.568,-0.818 0.53,-0.508 0.524,-0.332 0.29,-0.126 1.21,-0.346 0.318,-0.168 0.298,0.028 0.05,0.166 0.172,0.32 0.192,0.222 0.052,0.164 -0.468,0.686 -0.064,0.234 0.244,0.442 0.036,0.14 z" title="Portugal" id="PT"></path></svg>