<svg xmlns="http://www.w3.org/2000/svg" viewBox="0 0 47.20 50.35"><path d="m 25.22,5.2 0.124,0.432 0.074,0.334 0.186,0.236 0.184,0.314 0.186,0.178 0.13,0.296 -0.038,0.334 0.076,0.434 0.092,0.374 0.092,0.1 0.268,0.098 0.132,0.34 -0.096,0.172 0.038,0.198 0.096,0.192 -0.088,0.19 0.046,0.142 0.18,0.128 0.168,0.474 0.018,0.812 -0.186,0.436 -0.148,0.356 -0.036,0.218 0.11,0.316 -0.186,0.376 -0.222,0.456 0.056,0.318 0.036,0.298 0.018,0.318 0.056,0.298 -0.074,0.318 -0.074,0.278 -0.038,0.318 0.094,0.358 -0.168,0.338 -0.092,0.238 -0.038,0.24 0.168,0.378 0.428,0.16 0.334,0.04 0.314,-0.2 0.242,-0.06 0.446,0.18 0.408,0.318 0.52,0.04 0.464,0.06 0.352,0.1 0.52,-0.12 0.54,0.12 0.63,0.18 0.52,0.158 0.52,-0.04 0.39,-0.018 0.408,-0.18 0.39,0.02 0.296,-0.32 0.168,-0.278 0.148,-0.2 0.428,-0.16 0.296,0.1 0.242,0.52 0.426,0.298 0.168,0.218 0.314,0.102 0.688,0.018 0.428,-0.018 0.482,0.158 0.314,0 0.28,0.28 0.26,0.338 0.036,0.62 0.242,0.48 0.316,0.18 0.166,0.3 -0.054,0.42 -0.15,0.42 0.02,0.462 0.166,0.42 0,0.422 0.112,0.42 0.222,0.362 0.074,0.582 -0.036,0.422 0.148,0.242 0.056,0.342 -0.094,0.28 -0.036,0.384 0.018,0.342 0.112,0.282 0.334,0.362 0.092,0.646 0,0.444 0.148,0.524 0.28,0.244 0.446,0.08 0.518,0.08 0.632,-0.12 0.558,-0.142 0.314,-0.142 0.612,-0.382 0.54,-0.224 0.278,-0.14 0.26,-0.102 0.538,0.242 0.502,0.304 0.388,0.424 0.726,0.464 -0.142,0.114 -0.288,0.382 0.006,0.446 0.204,0.642 -0.18,1.362 -0.562,2.084 -0.23,1.218 0.1,0.346 -0.208,0.61 -0.77,1.312 -0.03,0.886 -0.09,2.666 -0.258,1.884 -0.434,1.396 -0.394,0.746 -0.358,0.09 -0.254,0.224 -0.156,0.354 -0.288,0.296 -0.424,0.238 -0.228,0.26 -0.036,0.282 -0.404,0.182 -0.774,0.082 -0.452,0.226 -0.136,0.37 -0.258,0.294 -0.384,0.218 -0.18,0.362 0.018,0.506 -0.22,0.432 -0.458,0.362 -0.424,0.01 -0.386,-0.342 -0.52,-0.226 -0.65,-0.114 -0.542,0.088 -0.436,0.284 -0.386,0.452 -0.336,0.62 -0.374,0.104 -0.412,-0.416 -0.522,-0.126 -0.63,0.164 -0.504,-0.056 -0.372,-0.278 -0.574,-0.03 -0.774,0.216 -1.568,-0.25 -2.364,-0.716 -1.998,-0.272 -2.45,0.258 -0.208,-0.744 0.13,-0.4 0.398,-0.302 0.25,-0.342 0.102,-0.382 0.274,-0.292 0.448,-0.2 0.19,-0.202 -0.068,-0.206 0.096,-0.18 0.258,-0.158 0.146,-0.248 0.034,-0.338 0.098,-0.168 0.172,-0.124 0.02,-0.236 -0.096,-0.722 0.012,-0.594 0.12,-0.462 0.15,-0.278 0.106,-0.07 0.1,-0.164 0.038,-0.278 0.162,-0.26 0.782,-0.532 0.294,-0.288 0.026,-0.264 0.118,-0.354 0.464,-0.766 0.142,-0.358 0.012,-0.178 0.166,-0.186 0.56,-0.424 0.302,-0.398 0.048,-0.374 -0.134,-0.424 -0.318,-0.474 -0.998,-1.186 -0.776,-0.538 -0.992,-0.442 -0.652,-0.144 -0.314,0.156 -0.318,-0.124 -0.322,-0.4 -0.544,-0.316 -1.146,-0.344 -2.602,-1.378 -1.042,-0.666 -0.35,-0.41 -0.972,-0.736 -1.594,-1.06 -1.222,-0.516 -0.852,0.028 -1.366,-0.306 -1.878,-0.644 -1.082,-0.626 -0.292,-0.604 -0.694,-0.606 -1.098,-0.606 -0.57,-0.398 -0.042,-0.192 -0.326,-0.25 -0.608,-0.308 -0.668,-0.526 -0.728,-0.744 -0.778,-1.152 -0.828,-1.554 -0.888,-1.048 -0.948,-0.54 -0.476,-0.358 0.002,-0.174 -0.142,-0.166 0.128,-0.3 0.344,-1.178 0.5,-1.704 0.52,-1.76 0.61,-2.07 0,-1.466 0.002,-1.54 0.868,-1.266 0.616,-0.898 0.534,-0.854 0.538,-1.46 0.36,-0.972 1.374,-0.232 2.334,-0.504 1.164,-0.252 2.454,-0.53 2.494,-0.54 2.618,-0.034 2.528,-0.034 1.96,1.208 1.498,0.924 1.65,1.016 0.114,0.22 0.114,0.854 z" title="Paraguay" id="PY"></path></svg>