<svg xmlns="http://www.w3.org/2000/svg" viewBox="0 0 4.79 9.81"><path d="m 2.88,9.56 -0.506,0.126 -0.474,0.134 -0.396,-0.004 -0.32,-0.052 -0.212,-0.13 -0.408,-0.52 -0.288,-0.674 0.178,-0.376 0.06,-0.234 -0.39,-1.78 -0.126,-1.37 0.046,-0.28 0.222,-0.324 0.372,-0.716 0.198,-0.69 0.556,-1.596 0.59,-0.616 0.864,-0.452 0.712,0.884 0.864,0.674 0.166,0.754 -0.254,0.614 -0.236,0.972 0.142,0.448 0.052,0.388 0.234,0.65 0.228,0.842 0.038,0.586 -0.122,0.542 -0.302,0.456 -0.592,1.368 -0.176,0.142 z" title="Qatar" id="QA"></path></svg>