<svg xmlns="http://www.w3.org/2000/svg" viewBox="0 0 957.93 594.80"><path d="m 194.62,52.3 -2.606,-1.856 0.214,-0.938 0.282,-0.394 0.008,-0.922 -0.24,-0.704 0.104,-1.448 1.682,1.06 0.16,0.432 1.132,0.738 0.17,1.412 -0.126,0.878 -0.78,1.742 z m -15.118,203.415998 -0.562,1.662 -0.216,0.822 -0.084,1.962 0.056,0.876 0.408,2.3 0.444,1.37 0.568,0.814 0.68,0.598 0.704,0.292 1.36,-0.274 1.34,-0.826 1.458,0.552 1.292,0.188 2.554,-0.826 0.268,0.204 -0.444,0.936 -0.076,1.376 0.51,1.036 0.592,-0.042 0.6,0.172 -0.176,0.632 1.658,1.752 1.512,1.228 -0.346,0.352 -0.962,-0.562 -0.494,0.19 0.126,0.976 -1.046,-0.286 -0.464,0.598 0.028,0.89 0.128,0.858 -0.012,0.622 -0.818,0.242 -0.47,0.462 1.9,1.01 2.678,0.844 0.748,0.344 1.038,0.874 0.468,0.224 0.042,-0.562 0.208,-0.486 1.246,1.082 1.036,0.194 1.042,0.012 2.528,-0.444 0.108,0.288 0.002,0.564 0.506,0.444 0.62,-0.182 0.194,-0.388 0.816,0.522 0.154,-0.47 0.156,-0.198 1.64,1.602 0.366,-0.058 0.346,-0.458 -0.81,-1.208 -0.46,-0.2 -0.42,-0.646 0.706,-0.33 0.698,0.09 0.33,0.534 0.296,0.712 0.152,0.15 2.792,0.97 0.566,-0.27 0.094,-0.522 1.03,-0.422 1.002,-1.15 -0.388,-0.63 -0.408,-0.45 -2.346,-1.43 -0.958,-0.874 -2.472,-3.11 -2.306,-4.152 -1.258,-2.852 -1.154,-3.24 -0.376,-1.672 -0.424,-1.544 -0.972,-1.194 0.434,-1.442 0.158,-1.676 0.514,-1.38 0.13,-0.704 -0.668,-1.712 -0.048,-1.188 -0.174,-0.572 -0.02,-1.048 0.342,-0.674 -0.076,-0.892 0.212,-0.494 0.982,-0.444 0.474,-1.366 0.1,-0.94 0.028,-0.848 0.54,-0.438 1.482,0.002 0.212,-0.328 0.276,-0.79 0.126,-1.084 -0.146,-1.496 0.126,-0.956 0.816,-1.554 0.354,-0.492 0.18,-1.202 -0.444,-0.474 -1.196,-0.596 -1.966,-0.242 -2.624,-0.774 -1.114,-0.95 -1.016,-0.518 -0.768,-0.086 -0.716,0.346 -1.956,1.38 -0.706,0.352 -0.626,0.096 -1.264,-0.44 -0.63,0.112 -0.672,0.644 -0.682,0.424 -0.868,0.268 -0.598,0.808 -0.298,0.686 -0.05,0.842 0.27,1.788 0.058,0.73 0.688,1.08 -0.652,0.248 -0.666,-0.18 -0.622,-0.006 -0.626,0.26 -0.566,0.47 -1.306,1.594 -0.16,0.432 -0.126,0.59 0.43,0.628 0.438,0.41 1.31,0.254 -0.434,0.932 -0.09,0.526 0.226,0.776 -0.644,1.248 -0.196,0.856 -0.046,0.854 -0.246,1.002 -0.222,0.664 -0.204,0.312 -0.696,0.584 -0.31,1.022 -0.418,0.784 -0.452,0.442 -1.028,-0.026 -1.03,-0.404 -0.45,0.202 -0.856,0.782 -0.406,0.522 z m 5.434,-196.097998 0.318,0.354 0.162,0.404 1.236,0.186 3.732,-0.392 0.74,-1.232 0.702,-0.192 0.414,-1.328 -2.052,-1.832 -0.788,-1.436 -0.094,-1.212 -0.804,-0.344 -1.864,0.344 -0.774,1.842 -0.2,0.972 -0.584,0.718 -1.718,0.684 -0.32,0.418 0.732,1.67 1.162,0.376 z m 17.772,-34.274 2.666,-1.304 0.964,1.666 0.836,0.124 0.878,-0.844 0.858,-1.458 1.894,2.186 1.636,1.566 1.79,-1.246 0.802,-1.018 0.574,-2.108 -0.58,-1.792 -0.298,-2.414 2.88,-0.708 1.078,-1.18 -0.718,-1.726 -2.354,-0.744 -0.866,-0.86 -0.292,-1.508 -0.526,-0.71 -1.46,0.832 -0.514,0.29 -1.536,-0.228 -0.664,1.168 -1.428,3.296 -1.764,1.366 -1.39,3.13 -2.104,-0.98 -1.774,0.678 0.598,3.074 0.814,1.452 z m -7.524,14.388 0.878,0.138 0.508,0.622 0.252,0.926 2.52,-0.46 2.376,1.692 0.964,2.286 0.96,0.306 2.424,-0.154 2.802,-1.062 4.296,-3.194 0.638,-1.29 -0.708,-0.962 -3.694,-3.292 -2.452,-3.048 -1.698,-1.11 -3.926,0.334 -4.218,-3.474 -0.476,0.1 -1.218,4.57 -0.28,2.95 -0.71,0.07 -1.096,1.058 0.12,2.058 1.738,0.936 z m 20.142,-33.522 1.856,-0.76 5.956,-1.71 0.004,-0.862 0.29,-1.75 -0.822,-1.136 -6.328,1.036 -0.84,1.22 -0.222,1.928 -0.204,1.012 0.064,0.446 0.246,0.576 z m -49.826,42.89 -2.598,0.254 -0.9,-1.698 -0.348,-0.368 -0.542,0.248 -0.548,0.606 -1.754,0.506 -1.346,0.97 -1.42,1.89 -4.258,4.848 0.526,1.416 0.604,0.678 0.816,1.796 1.446,0.084 0.53,-0.274 0.568,-1.372 1.112,-0.502 1.406,0.202 0.476,0.882 -1.428,2.014 -0.508,1.29 0.588,0.99 1.136,-0.226 0.482,-0.354 0.394,-0.746 0.4,-0.342 1.23,1.208 0.452,-0.468 0.37,-1.576 0.124,-0.824 0.154,-0.398 1.21,1.126 0.53,0.192 0.48,-0.24 0.186,-1.476 -0.112,-1.156 -0.176,-0.774 -0.21,-0.368 -1.308,-0.45 -0.068,-0.326 0.752,-1.792 0.478,-0.52 3.874,-0.248 1.168,-1.642 -0.248,-1.582 0.54,-0.868 2.434,-1.012 3.824,-0.446 1.04,-2.176 3.128,-2.89 -0.63,-1.848 -0.766,-0.136 -3.014,-5.126 -0.654,-0.844 -2.076,0.118 -0.86,-0.584 -0.864,0.12 -3.46,2.076 -1.478,1.55 -0.544,3.822 0.254,1.946 -0.042,3.348 -0.552,1.472 z m 7.432,-19.964 0.598,1.402 0.548,0.156 0.774,-0.222 0.196,-0.882 0.884,-1.316 -0.38,-1.554 -0.912,-0.722 -0.698,0.044 -0.392,0.41 -0.088,0.51 -0.23,0.656 -0.542,0.134 0.05,0.716 0.192,0.668 z m -8.188,270.315998 -0.608,0.234 -1.198,0.94 -1.222,1.44 -0.526,1.212 -0.132,1.35 -0.09,1.374 -0.008,0.884 0.088,0.878 0.122,0.654 0.69,2.14 1.28,1.11 1.366,-0.154 1.516,-0.546 2.502,-1.262 1.2,-1.778 0.456,-1.246 0.97,-1.136 0.266,0.43 0.13,0.952 0.316,-0.176 0.35,-0.628 -0.1,-1.524 -0.55,-1.13 -0.958,-0.83 -4.328,-3.218 -1.532,0.03 z m -20.004,-251.871998 1.412,0.798 1.842,-1.114 0.306,0.98 0.204,1.942 0.458,1.256 1.33,-0.34 0.76,-0.634 0.618,-2.216 0.302,-0.708 1.872,-0.026 0.752,-1.61 0.298,-0.202 0.594,0.3 0.62,-2.358 0.55,-0.464 0.494,-1.878 0.59,-0.812 0.406,0.314 1.498,3.062 3.262,1.34 0.326,-0.136 0.016,-2.926 -0.782,-2.14 -0.572,-0.946 -0.564,-0.456 -0.572,-0.158 -1.93,0.38 -2.568,-1.444 -0.502,0.026 -1.862,1.358 -1.242,2.074 -2.648,0.7 -6.752,2.878 -1.232,1.412 1.372,0.43 1.344,1.318 z m 31.922,20.822 1.992,0.368 0.022,-0.368 -0.144,-0.396 -0.462,-0.904 -0.472,-0.61 -0.028,-0.618 0.092,-1.242 -1.786,-1.484 -1.46,1.486 -1.14,0.426 -2.14,1.776 2.038,1.804 3.488,-0.238 z m -5.752,-4.604 0.116,-1.146 1.386,-2.062 -0.052,-0.436 -0.33,-1.116 -2.062,-0.356 -1.838,2.35 0.18,0.748 2.146,2.46 0.454,-0.442 z m 73.328,-30.432 -1.664,2.6 -1.272,1.442 -0.406,1.098 1.348,2.076 1.358,1.74 1.042,0.53 1.044,-0.086 6.592,-1.928 2.522,-2.224 2.468,-3.958 -0.368,-1.332 -0.066,-1.438 0.124,-1.75 -0.406,-1.434 -0.774,-1.732 -0.808,-0.928 -1.268,-1.018 -1.272,-0.046 -1.488,0.854 -0.304,1.122 -0.256,1.386 -0.25,2.554 -0.394,1.344 -1.346,0.616 -1.354,0.008 -2.802,0.504 z m -41.49,29.442 0.492,0.574 2.184,0.348 4.414,0.162 0.524,-0.756 -0.042,-1.46 0.26,-1.794 0.022,-4.078 -0.246,-1.134 -0.754,-0.512 -1.332,0.098 -0.292,1.102 -3.54,-0.368 -0.196,0.71 0.126,3.854 -0.392,1.338 -1.228,1.916 z m -2.968,-4.012 1.598,-1.558 -0.252,-0.946 -0.458,-0.514 -0.634,-0.256 -0.834,0.994 -0.628,1.3 0.386,0.928 0.822,0.052 z m 21.902,-37.278 1.212,-0.48 0.346,-0.738 -0.528,-1.53 -1.154,-1.184 -1.092,0.22 -1.38,1.178 -0.136,0.862 0.612,0.882 2.12,0.79 z m -5.092,7.248 -0.492,-0.714 -0.294,-0.152 -2.208,3.144 -1.38,-0.548 -1.118,1.07 1.09,3.644 1.934,0.924 1.056,3.374 1.952,0.998 2,-0.108 1.222,-0.4 0.398,-1.836 -0.158,-2.33 -0.49,-1.278 -0.3,-2.05 -0.782,-1.822 -0.644,-0.726 -1.786,-1.19 z m 6.266,16.842 -0.102,1.548 0.092,1.748 0.236,0.562 1.704,2.5 1.404,-0.5 2.124,-1.638 2.492,2.024 1.846,0.542 1.312,-2.916 1.754,-1.03 0.468,-1.758 0.494,-0.504 1.72,-0.546 0.218,-2.306 0.434,-1.616 0.202,-2.244 -0.336,-1.418 -0.366,-1.124 -1.416,-0.684 -1.42,-0.25 -1.596,1.074 -2.768,1.274 -1.9,0.784 -1.142,0.098 -0.242,-1.278 -0.788,-0.382 -2.126,0.432 -0.694,0.698 -0.24,1.156 -0.304,0.598 -0.61,1.882 -0.45,3.274 z m 1.856,250.433998 0.492,0.24 0.494,0.17 0.6,-0.022 0.598,-0.324 1.064,0.474 0.626,-0.446 0.634,-0.172 0.208,-1.098 0.02,-1.494 -0.168,-0.806 -0.326,-0.45 -1.236,-0.992 -1.214,-1.406 -1.792,-1.464 -0.602,-0.862 -0.58,-1.03 -0.65,-0.844 -1.244,-1.262 -0.226,-0.392 -0.24,-0.078 -1.184,0.54 -0.652,1.226 -0.352,0.146 -0.538,0.544 -0.264,0.856 0.534,1.84 0.21,0.438 0.16,0.678 0.258,0.608 1.53,2.592 0.288,0.156 0.442,-0.45 0.348,-0.182 0.696,0.382 0.636,0.13 0.68,0.394 0.442,1.226 -0.018,0.846 0.326,0.288 z m 31.21,-132.664 -0.698,0.072 -0.692,0.298 -1.36,1.396 -1.372,1.142 -5.26,1.632 -3.116,1.722 -1.062,-0.202 -1.746,0.346 -1.312,-0.262 -2.526,-1.168 -1.222,-0.176 -2.064,0.39 -0.25,0.2 -0.69,0.958 0.016,1.502 0.096,1.152 -0.316,0.714 -0.312,0.42 -0.792,0.058 -0.396,-0.822 -0.698,-0.108 -1.836,0.29 -0.902,0.692 -0.46,1.922 -1.428,0.878 -2.444,0.896 -1.326,0.768 -0.648,0.044 -0.636,0.39 -1.284,1.786 -1.314,1.3 -2.022,1.288 0.08,0.998 0.118,0.596 -1.74,1.93 -0.422,1.168 -0.432,2.184 -0.138,0.336 -1.71,-0.71 -1.204,-0.236 -0.55,0.194 -0.814,0.526 -0.196,0.51 0.112,1.122 0.264,0.734 -1.716,3.214 -0.478,0.036 -0.54,-0.92 -0.564,-0.572 -0.708,-0.488 -0.71,-0.168 -0.644,0.568 -0.622,0.952 0.062,0.748 0.234,0.696 0.758,1.202 1.92,-0.218 0.496,0.878 0.394,0.342 -1.576,1.286 -1.708,2.176 -1.424,2.976 -0.436,0.606 0.158,0.786 0.288,0.726 0.506,0.314 1.098,-0.02 1.066,0.968 -0.33,0.31 -3.716,0.946 -0.422,0.344 -1.788,4.832 -0.574,1.182 -0.5,0.684 -0.548,1.262 -0.51,1.514 -0.208,0.168 -1.23,0.318 -1.192,1.01 -1.182,1.28 -0.628,0.438 -0.498,0.692 0.426,1.382 2.054,3.086 -0.41,1.206 0.946,2.556 1.492,-1.326 1.138,-0.608 1.336,-0.086 1.536,1.214 1.51,0.692 2.724,0.214 1.088,0.622 1.132,0.33 1.144,-0.138 1.852,-1.216 0.956,-2.712 1.828,-2.098 0.464,-0.954 -0.44,-1.756 -0.974,-1.376 0.126,-0.472 0.76,0.25 0.872,1.008 0.302,0.148 0.552,-0.02 0.498,-0.722 0.154,-0.914 -0.106,-0.958 -0.422,-1.542 -0.06,-0.812 3.784,-2.352 0.99,-2.028 0.266,-1.28 -0.11,-0.804 -0.47,-1.954 -0.336,-0.886 0.184,-0.728 2.208,0.76 0.628,-0.478 0.34,-0.462 0.254,-0.932 0.06,-1.246 0.14,-1.164 0.326,-0.578 1.998,1.68 0.438,0.076 0.442,-0.568 0.106,-0.582 -0.208,-0.658 0.072,-1.074 1.318,0.026 0.548,-0.24 0.798,-0.87 0.44,-0.868 0.778,-0.822 0.35,-0.63 -0.262,-0.896 -1.2,-0.532 0.202,-0.796 1.116,-1.024 0.326,-0.098 0.682,0.092 0.36,-0.294 0.618,-0.92 0.598,-1.156 1.188,-1.292 0.57,-1.288 0.602,-0.748 0.732,0.088 0.728,-0.194 2.526,-2.402 5.5,-3.316 1.52,-0.616 1.924,-1.486 0.672,-0.086 2.712,-1.07 2.706,-1.562 2.564,-1.172 2.346,-1.498 3.722,-1.828 2.104,-1.47 1.324,-0.588 1.312,-0.838 1.336,-1.244 2.246,-1.794 2.246,-1.118 0.32,-0.678 1.886,-3.24 1.916,-2.972 -0.234,-0.91 0.182,-1.194 0.288,-1.168 -0.168,-1.292 -0.214,-0.712 -0.978,-1.996 -1.198,-1.56 -2.63,-1.416 -2.05,-0.522 -0.656,0.094 -1.522,1.096 -2.442,0.992 -2.714,2.54 -1.584,1.838 -0.584,1.42 -0.54,1.814 -0.606,0.824 -0.662,0.016 -0.61,0.26 -1.228,1.204 -0.638,0.434 z m -45.59,-113.535998 -0.36,0.87 0.406,0.782 0.576,1.652 0.144,0.932 0.012,1.346 0.378,4.456 0.286,1.178 0.338,0.622 2.29,1.148 0.876,-0.626 1.16,-2.408 0.52,-0.174 0.168,-1.53 -0.01,-1.65 0.64,-0.7 4.812,-0.818 -0.784,-1.516 -0.808,-0.924 -2.758,-1.652 -5.378,-0.36 -2.508,-0.628 z m 21.058,-15.152 1.762,-0.738 1.86,-2.17 0.538,-1.414 -0.62,-1.942 -4.886,0.59 -2.464,2.562 -0.388,0.626 -0.114,0.522 1.476,1.042 2.836,0.922 z m 9.568,-26.594 0.234,0.538 1.75,0.932 3.612,0.472 0.688,-0.49 0.738,-1.562 -0.084,-0.554 -0.324,-0.896 -5.134,-1.23 -2.868,0.482 -0.998,1.056 2.294,0.782 0.092,0.47 z m -20.274,58.61 1.018,0.66 0.384,0.51 0.188,0.494 0.718,0.318 2.012,-1.052 1.246,-1.24 -0.614,-2.868 -1.444,-1.18 -3.048,2.116 -0.31,0.376 -0.15,1.866 z m -203.244,415.009998 0.682,-1.998 -0.036,-0.32 -0.496,-0.56 -0.612,-0.408 -0.338,-0.864 -1.24,-0.05 -1.17,0.048 -0.368,-0.042 -1.114,-0.362 -1.074,-0.584 -0.718,-0.342 -0.604,-0.384 -0.326,-0.404 -0.514,0.108 -0.348,0.004 -0.072,1.534 -0.19,1.686 -1.084,0.316 -0.608,-0.066 -0.636,-0.366 -0.542,-0.084 -0.466,-0.26 1.486,-1.968 0.552,-0.936 -0.326,-0.076 -0.304,0.536 -0.936,1.27 -0.89,1.052 -0.694,0.426 -1.624,-0.05 -0.748,0.344 -0.12,0.882 -0.052,0.782 -0.478,1.126 -0.564,0.86 -0.866,0.828 0.224,0.116 1.574,0.126 1.592,0.126 2.562,0.136 2.67,0.142 2.77,0.148 3,0.16 3.162,0.094 0.194,-0.064 -0.236,-0.468 -0.25,-0.842 0.026,-0.674 0.15,-0.678 z m 171.172,-209.786 -0.072,-0.966 -0.288,-0.464 -0.376,0.07 -0.45,-0.932 -0.51,-1.292 -0.71,-0.612 -0.25,-0.068 -0.066,0.244 0.052,0.608 -0.63,-0.496 -0.588,-0.03 -1.212,0.496 -0.318,0.558 0.054,0.704 0.224,0.254 0.764,0.542 0.68,-0.196 1.076,1.216 0.286,1.14 0.26,0.504 0.64,0.558 0.308,0.724 0.102,0.74 0.552,-0.23 -0.086,-0.298 -0.324,-0.546 0.132,-0.588 0.75,-1.64 z m 249.112,-211.203998 -2.62,0.5 -3.952,1.592 -0.782,-0.186 -0.644,0.432 -1.708,-0.43 -2.024,0.144 -0.6,1.07 -0.294,0.996 -0.318,0.376 -1.65,-2.156 -0.228,0.248 -0.738,1.77 -0.538,0.764 -2.088,2.234 -0.508,3.584 -1.228,2.334 -1.072,1.71 -2.482,2.192 -1.876,4.222 1.13,1.134 1.158,-0.134 1.572,0.346 2.582,1.5 0.534,2.88 0.946,2.678 0.772,0.786 0.068,1.538 0.116,0.398 0.78,1.212 1.288,1.004 0.632,0.09 1.706,-1.472 0.53,0.036 0.962,2.546 0.526,0.31 3.092,-0.424 0.464,0.376 2.122,0.532 0.356,0.62 0.346,0.876 1.77,1.922 1.726,1.202 0.746,-0.022 1.214,0.496 0.838,-0.31 1.282,0.75 0.72,0.208 2.292,-0.88 3.48,-0.462 0.568,-0.538 2.182,-3.168 -0.168,-1.322 -0.476,-2.644 -0.358,-0.35 -1.312,-0.668 -1.122,-2.9 -1.546,-1.984 0.352,-0.374 0.352,-0.028 1.238,0.954 0.84,-0.054 0.804,-1.414 0.23,-1.876 -0.086,-2.396 0.082,-0.872 0.156,-0.72 0.126,-1.624 0.058,-1.88 0.134,-0.774 0.19,-0.496 0.43,-2.178 0.816,-1.224 -0.644,-2.28 -0.718,-1.57 -0.516,-0.698 -1.068,-0.686 -0.356,-0.928 -0.574,-0.524 -0.426,-0.968 -2.406,-0.942 -1.514,-0.222 -0.364,0.28 -0.336,1.118 0.152,1.806 -0.818,2.206 -0.45,0.326 -1.172,-0.862 -1.086,1.546 -0.822,2.262 -0.408,0.656 -0.34,-0.452 0.202,-2.396 0.746,-1.45 0.27,-1.94 0.554,-1.53 0.624,-0.62 -0.64,-2.344 -1.286,-2.07 -0.494,-0.32 z m -5.598,109.277998 0.136,-1.004 -0.458,-0.338 -1.468,-0.644 -0.672,0.792 -2.046,-0.52 -1.076,1.046 -1.206,-0.932 -0.324,0.648 -0.06,1.106 2.062,0.496 0.93,0.786 1.484,0.112 1.076,0.79 0.296,-1.306 -0.016,-0.816 0.764,-0.508 0.578,0.292 z m 1.618,-3.172 -0.238,0.248 -0.014,0.492 -0.52,1.57 -0.006,1.202 0.084,0.262 0.244,0.172 0.314,-0.252 0.676,-0.88 0.444,-1.562 -0.044,-0.304 -0.308,-0.666 -0.632,-0.282 z m 17.202,-90.171998 -0.152,2.178 1.238,-0.392 0.924,-1.75 -0.892,-0.42 -0.41,-0.542 -0.63,0.336 -0.078,0.59 z m -14.774,82.121998 0.176,1.476 0.498,0.924 0.588,0.152 0.298,-0.362 -1.16,-2.61 -0.4,0.42 z m 57.72,-15.99 -0.604,-0.438 -0.674,0.012 -0.542,1.472 0.184,1.21 0.632,-0.03 1.484,-0.65 -0.084,-0.804 -0.198,-0.508 -0.198,-0.264 z m -41.15,-35.101998 -0.03,1.638 -0.238,1.076 -0.292,0.898 -0.22,0.94 -0.372,2.52 -0.216,1.152 -1.914,2.914 -0.742,1.508 -0.6,2.581998 -0.852,1.244 0.586,1.01 0.612,0.664 1.934,0.518 1.332,-0.488 2.576,-1.958 2.798,-2.597998 0.922,-1.338 2.74,-0.066 2.74,-0.3 2.452,-0.532 0.314,0.63 0.344,0.324 0.35,0.054 1.158,-1.868 4.02,-0.066 3.246,-2.124 1.246,-0.394 1.248,0.262 0.51,-0.36 2.694,-4.118 0.17,-2.658 -0.184,-2.054 -0.302,-1.916 -0.29,-1.35 -0.33,-1.124 -0.736,-0.708 -0.75,-0.336 -1.39,0.572 -1.018,-1.304 0.14,-1.262 -0.156,-1.188 -0.252,-0.386 -1.758,-1.06 -0.488,-1.458 -0.442,-1.798 -0.7,-0.776 -0.718,-0.022 -1.344,0.712 -1.316,1.626 -0.692,0.438 -0.706,0.022 -0.592,1.222 -0.544,1.902 -0.9,2.284 -0.982,1.042 0.2,-1.198 1.674,-6.742 0.232,-2.096 0.546,-2.326 0.308,-0.518 0.632,-0.342 0.256,-0.502 -0.316,-0.98 -1.414,-1.842 -2.16,-1.254 -0.688,0.096 -0.322,0.524 -0.248,1.206 -0.02,1.844 0.414,1.708 -0.688,0.108 -0.692,-0.336 -0.524,-1.45 -0.494,-1.778 -0.354,-0.052 -0.662,0.322 -0.294,0.332 -0.2,1.146 -0.068,1.756 -1.304,0.656 -0.642,0.846 -0.266,1.422 -0.542,1.002 0.088,0.8 -0.208,2.158 -0.368,0.494 -0.36,0.778 -0.208,1.59 -0.046,0.82 0.234,2.476 0.324,0.694 -0.45,0.14 -1.438,-0.398 -0.582,0.278 -0.558,0.998 -0.742,2.122 -0.116,1.354 z m 33.722,11.888 1.134,-1.068 0.18,-0.458 0.978,-0.092 0.224,0 0.004,-0.806 -0.16,-0.622 -0.286,-0.542 -1.03,-0.106 -0.598,1.868 -1.64,0.22 -0.194,1.226 0.714,0.59 0.674,-0.21 z m -71.1,-47.5 1.122,-2.798 -1.804,-1.172 -4.99,-1.786 -2.354,-1.584 -2.366,-0.222 -1.83,0.1 -1.104,0.6 -0.892,1.592 0.312,2.46 1.404,2.214 1.726,1.424 2.638,3.336 1.61,0.288 1.364,-0.304 1.364,-0.604 1.284,-1.042 1.276,-1.46 1.24,-1.042 z m -38.792,128.787998 1.318,0.376 0.474,-0.668 0.632,-1.68 -0.404,-0.922 -0.292,-0.204 -1.478,0.628 -0.47,-0.398 -0.268,-0.25 -0.566,0.582 -0.976,0.584 -0.404,0.978 0.74,0.918 1.694,0.056 z m 325.516,333.046 -0.442,-0.55 -0.984,-0.982 -0.508,-1.108 -0.386,-1.122 -0.182,-1.038 -0.226,-1.014 -0.326,-0.964 -0.524,-2.032 -1.302,-3.376 -0.45,-1.968 -1.132,-6.562 -0.256,-0.276 -0.088,-0.198 -0.032,-0.92 -0.066,-0.626 -0.212,-0.442 -0.544,-0.564 -0.118,-0.442 -0.028,-1.012 -0.248,-0.938 -0.336,-0.876 -0.198,-1.266 0.094,-2.428 0.162,-0.858 0.354,-0.328 0.174,-0.464 0.16,-0.778 0.05,-0.798 -0.044,-2.438 -0.208,-1.596 -0.156,-0.774 -0.204,-0.736 -0.72,-1.81 -0.996,-2.886 0.104,-0.158 -0.14,-0.64 0.086,-0.734 0.226,-0.698 0.106,-0.542 -0.052,-0.528 -1.208,-2.424 -0.382,-0.214 -0.15,0.558 -0.284,0.524 -0.36,0.236 -1.214,-0.016 0.738,1.266 1.142,1.718 0.202,0.69 -0.128,0.756 -0.224,0.75 0.258,0.062 -0.052,0.528 -0.712,0.206 -0.244,0.614 0.418,0.478 -0.322,0.84 -0.572,0.346 -0.3,0.076 -0.292,-0.028 -0.78,-0.738 -0.212,-0.11 -0.996,0.37 -0.628,0.628 -0.162,0.468 0.086,1.88 0.196,0.928 -0.102,2.28 -0.292,2.198 -0.312,0.926 -0.368,0.878 -0.122,0.79 0.042,3.094 0.294,0.786 0.49,0.522 -0.206,0.338 -0.278,0.14 0.278,0.416 0.568,0.542 0.746,0.986 0.476,0.82 0.65,1.854 0.008,1.998 -0.342,0.962 -0.262,1.008 -0.194,1.29 0.028,1.018 0.404,1.782 0.056,0.836 -0.06,5.626 -0.19,1.116 -0.236,1.096 -0.26,2 -0.228,0.908 -0.634,1.89 0.038,0.408 0.136,0.4 0.736,1.502 0.6,1.576 0.26,2.322 -0.182,0.928 -0.412,0.782 -0.338,0.896 -0.29,0.94 -0.01,0.362 0.122,1.622 0.186,0.85 0.122,0.86 -0.154,0.904 -0.812,2.75 -0.204,1.978 0.484,2.27 0.076,0.666 0.178,0.604 0.302,0.416 0.346,0.358 0.406,-0.662 0.332,-0.722 0.536,-2.172 0.258,-0.82 0.316,-0.78 0.406,-0.73 0.556,-0.46 0.324,-0.126 0.314,0.044 0.312,0.328 0.27,0.412 0.19,0.122 1.226,0.104 1.316,0.274 0.392,0.672 0.102,0.956 0.272,1.106 0.072,1.56 0.18,-0.33 0.106,-0.374 0.046,-0.474 0.102,-0.45 0.404,-1.058 -0.012,-0.368 -0.214,-1.374 -0.306,-1.444 -0.216,-0.326 -0.354,-0.112 -0.368,-0.014 -0.568,0.102 -0.222,-0.402 -0.498,-1.284 -0.468,-1.824 -0.368,-0.826 -0.196,-0.322 -0.232,-0.248 -0.354,-0.202 -0.312,-0.3 -0.422,-0.7 -0.512,-1.22 -0.126,-0.448 -0.06,-1.226 0.158,-1.564 0.432,-1.466 1.798,-5.676 0.31,-1.602 0.44,-0.798 0.736,-0.548 0.818,-0.24 1.964,-0.182 0.488,0.03 0.834,0.278 0.456,0.232 0.43,0.348 0.888,1.186 0.718,0.712 0.7,0.792 0.474,0.67 0.292,1.156 0.23,0.324 -0.04,-1.52 -0.12,-0.43 z m -336.64,-323.558 0.272,-1.246 0.64,-1.176 -1.084,0.066 -0.784,0.46 -0.848,0.754 0.222,0.504 1.582,0.638 z m -7.296,7.432 0.222,-0.248 0.256,0.066 0.298,-0.476 0.388,-0.362 -0.588,-0.674 -2.042,-0.6 -1.386,0.466 -0.476,0.764 1.914,0.334 1.414,0.73 z m 46.178,-160.419998 1.426,0.686 1.126,0.86 0.614,1.45 4.494,2.532 3.662,3.004 1.222,-0.016 2.558,-2.138 1.328,-1.632 0.542,0.106 1.684,-0.904 5.022,-0.872 7.406,-2.114 0.692,-1.052 0.666,-1.678 -0.732,-0.648 -0.206,-0.686 -0.758,-4.51 -0.238,-0.792 -0.266,-0.536 0.492,-2.69 0.608,-1.324 2.492,-0.886 0.458,-0.714 0.614,0.022 0.076,-2.272 -0.212,-1.226 -0.724,-1 -1.624,-0.534 -3.698,-4.116 -0.346,-1.3 -0.732,-1.29 -0.206,-1.64 -0.31,-0.86 -1.596,-3.084 -0.626,-0.324 -0.512,-0.684 -0.458,-1.812 -0.57,-0.734 -3.598,0.35 -0.554,3.052 -1.252,1.778 -1.27,0.902 -1.324,0.264 -1.322,0.648 -1.41,1.124 -1.414,0.73 -0.784,-0.038 -0.78,0.27 -1.646,1.55 -0.71,2.238 -0.974,1.164 -0.306,0.74 -0.56,2.192 -0.1,1.022 1.012,0.428 2.748,-0.792 -1.58,3.08 -0.866,2.92 -1.396,2.922 -1.86,1.164 -1.964,0.734 -1.172,1.996 -0.92,2.016 0.634,2.954 z m 82.95,64.028 3.29,1.203998 1.922,-0.08 0.774,1.11 0.7,-0.674 0.5,-1.315998 -0.686,-1.496 -0.366,-0.104 -5.192,0.598 -0.942,0.758 z m -60.254,29.201998 0.476,0.766 0.5,0.392 1.328,-0.688 0.664,0.258 0.246,-0.378 0.18,-0.484 0.78,-1.116 0.768,-1.468 0.004,-0.616 -0.188,-1.302 -3.786,2.724 -2.434,1.032 -0.844,0.94 0.528,0.184 1.778,-0.244 z m -32.022,-122.503998 7,1.786 1.932,-2.806 -0.502,-1.562 -2.07,-0.556 -5.832,-0.536 -0.948,1.576 0.104,0.802 0.316,1.296 z m 258.042,160.501998 0.404,-0.642 -0.31,-1.068 0.102,-0.802 1.042,-1.882 -0.234,-0.452 -1.25,-1.558 -0.31,-0.792 -0.344,-1.58 -0.502,-1.072 -0.476,1.806 -0.2,1.284 -0.096,1.666 0.176,1.354 -0.388,1.812 -0.282,0.73 -0.12,1.642 1.65,0.168 1.138,-0.614 z m 5.938,3.864 1.188,2.44 1.286,1.516 0.68,0.296 0.646,0.696 1.3,2.974 0.484,0.942 0.512,0.632 4.34,2.058 0.652,0.58 0.658,0.362 0.652,-0.066 0.62,-0.578 0.586,-1.328 0.462,-1.894 0.2,-1.424 0.326,-0.896 0.422,-0.4 0.434,0.008 1.418,1.488 1.442,1.028 1.102,-0.196 1.104,-0.554 3.646,-0.89 1.232,-0.518 1.226,-0.766 1.342,-0.188 0.63,0.872 0.474,1.108 0.578,1.068 0.512,0.458 0.53,0.174 0.86,-0.364 0.854,-0.652 1.964,-2.21 -1.114,-1.998 -1.306,-0.886 -0.452,-0.66 -1.974,-4.688 -0.372,-1.034 -0.268,-1.446 -0.364,-4.57 1.244,-0.706 1.368,-0.664 2.192,0.174 0.34,1.212 -0.092,0.602 -0.666,1.388 -0.746,0.612 -0.196,2.144 0.168,2.476 0.508,1.544 0.572,1.11 1.392,2.204 1.268,0.744 1.292,-0.026 2.21,0.856 1.102,-0.316 1.076,-0.938 2.67,-3.658 -0.388,-1.228 -0.492,-0.91 0.43,-1.124 1.236,-1.646 1.888,-0.914 -0.282,-0.754 -0.306,-0.486 -8.808,-6.328 -0.708,0.076 -1.396,0.874 -0.708,0.2 -1.45,-0.304 -1.446,-0.838 -1.174,-0.924 -2.576,-3.24 -1.456,-1.502 -1.442,-0.682 -1.044,1.714 -1.496,1.738 -0.266,0.566 -0.198,0.858 -0.136,1.394 0.004,1.556 0.078,1.126 0.022,1.118 -0.308,1.098 -0.412,0.482 -0.892,-0.078 -0.306,-0.222 -0.31,-0.436 -0.284,-0.604 -0.604,-2.416 -0.642,-0.608 -0.688,0.288 -0.58,-0.438 -1.712,-2.858 -1.206,-1.398 -1.782,-1.566 -0.574,-0.644 -0.514,-1.212 -0.55,-0.86 -0.592,-0.07 -2.152,1.632 -1.252,0.354 -0.626,0.804 -0.322,0.774 -0.346,0.454 -1.138,0.28 -0.836,0.638 -0.364,0.764 -0.334,1.05 0.52,1.982 0.632,1.458 -1.954,-0.502 -0.502,0.734 -0.302,4.416 0.42,4.596 -0.696,0.044 -1.032,-0.416 -0.196,0.882 0.084,1.22 0.252,0.786 z m 132.718,85.564 0.378,-0.288 -0.414,-1.04 -0.446,-0.69 -0.658,-0.176 -0.044,0.196 -0.02,1.226 0.38,0.536 0.824,0.236 z m -64.25,-118.934 0.358,-1.712 0.776,-0.856 -3.856,0.87 -1.524,1.7 -0.278,0.7 4.218,-0.284 0.306,-0.418 z m -12.794,37.148 1.228,1.392 0.634,0.306 2.076,0.548 0.638,0.584 1.296,1.606 0.678,0.678 1.146,0.542 4.228,0.598 3.068,-0.002 1.356,-0.486 2.768,-1.532 1.396,-1.122 0.372,-0.554 0.988,-4.61 -0.368,-0.128 -0.374,0.156 -0.436,0.768 -0.46,0.444 -0.636,-0.752 -0.768,-0.65 -0.99,-1.212 -2.574,-0.558 -3.156,-0.386 -1.072,0.748 -1.696,-0.182 -0.646,-0.794 0.08,-0.816 0.166,-0.6 -0.054,-1.132 -0.43,-0.58 -5.25,-0.602 -0.3,0.056 -2.15,1.64 -1.488,-0.144 -0.264,-1.29 0.016,-1.83 -1.2,-1.604 -0.554,0.532 -0.538,1.734 -0.478,1.946 -0.402,2.176 -0.21,2.142 3.116,1.842 1.244,1.128 z m 33.456,-23.896 -0.124,-0.978 -0.162,-0.51 -0.2,-0.226 -0.878,0.47 -0.472,0.732 1.278,1.352 0.558,-0.84 z m 145.416,105.404 0.386,-0.076 1.632,-0.92 2.782,-0.32 1.31,-1.318 0.666,-0.298 1.492,0.368 1.278,0.83 0.51,0.076 1.454,-0.358 3.53,-1.29 2.614,-0.468 1.352,-0.444 1.674,-1.72 0.14,-0.91 -0.19,-0.766 -0.292,-0.326 -1.306,-1.02 -0.886,-0.888 -0.458,-0.828 -0.434,-0.49 -0.454,-0.286 -0.78,-0.84 -0.48,-0.212 -2.456,-0.636 -0.66,-0.288 -0.66,-0.054 -0.812,0.434 -0.818,0.09 -0.808,-0.28 -0.812,0.08 -0.864,0.478 -0.872,0.234 -0.636,0.254 -0.958,1.01 -0.946,0.328 -1.754,2.164 -1.932,1.632 -0.348,0.926 -0.814,1.252 -0.312,1.008 0.112,0.806 0.81,3.066 z m -99.166,26.676 0.062,1.368 0.258,0.45 1.018,0.584 0.544,0.766 -0.028,0.462 -0.19,1.036 0.25,-0.02 0.222,-0.414 0.058,-0.656 -0.126,-0.726 -0.564,-1.418 -0.094,-1.386 -0.028,-1.556 -0.122,-1.216 0.13,-0.708 0.932,-0.364 0.386,-1.03 0.046,-1.468 -0.542,-0.67 -0.088,-0.088 -0.538,0.706 -0.484,0.88 -1.194,1.138 -0.156,1.024 0.458,1.148 -0.21,2.158 z m 38.546,-9.264 0.852,1.012 1.142,0.792 3.188,1.498 1.6,-0.146 0.252,-0.332 0.1,-0.444 0.202,-1.712 0.186,-0.564 0.48,-0.156 0.088,-0.86 -0.072,-0.388 -0.258,-0.432 -5.708,-2.176 -0.908,0.12 -0.768,0.548 -1.094,1.208 -0.286,0.458 -0.14,0.59 0.182,0.28 0.962,0.704 z m -313.422,-132.972 0.802,0.274 0.548,1.302 0.77,0.81 0.242,-0.056 0.064,-0.734 0.156,-0.392 0.262,-0.248 -0.158,-1.046 -0.87,-1.642 -0.47,-0.556 -0.63,0.618 -1.518,-0.352 -0.238,0.162 0.19,0.562 0.85,1.298 z m 130.752,52.732 1.038,1.198 0.458,1.266 1.89,2.654 0.394,0.892 0.424,-0.58 0.348,-1.448 -1.248,-2.15 -2.292,-2.664 -1.356,-0.69 0.088,1.066 0.256,0.456 z m -61.556,6.758 0.344,-0.044 0.618,-0.766 -0.09,-0.25 -0.5,-0.676 -0.662,-0.186 -0.524,0.298 -0.004,0.366 0.172,0.722 0.646,0.536 z m 85.34,8.408 0.56,1.384 0.784,0 0.572,-0.122 2.05,-1.452 1.518,-0.328 0.512,0.118 2.406,1.118 2.324,1.536 2.972,0.57 1.21,0.56 1.376,-0.008 1.428,0.166 1.974,0.468 1.45,-0.206 0.224,-0.294 -0.154,-4.16 -0.298,-1.224 -0.376,-0.948 -3.956,-4.68 -1.146,-0.976 -1.404,-0.896 -1.42,-0.384 -1.402,0.216 -2.076,0.654 -0.686,-0.094 -0.59,0.214 -0.568,0.692 -0.56,1.086 -1.044,2.968 -0.584,1.284 -1.196,1.612 -1.266,0.502 -1.318,0.176 -1.316,0.448 z m -110.452,7.408 1.422,-0.866 -0.136,-0.336 -0.888,-0.956 -0.64,-0.212 -1.136,0.236 -0.682,0.602 0.852,1.522 1.208,0.01 z m 114.514,-17.306 0.548,0.062 2.824,-1.64 0.206,-1.04 0.284,-2.406 -0.1,-0.854 -0.23,-0.688 -0.53,-0.454 -0.534,-0.188 -2.48,0.15 -0.602,0.192 -0.598,0.424 -0.518,1.082 0.458,3.678 1.272,1.682 z m -325.168,-3.138 0.756,0.396 0.546,-0.704 -0.12,-0.416 -0.438,-0.764 -0.478,-0.264 -0.804,0.25 -0.296,0.374 0.292,0.654 0.542,0.474 z m 310.614,47.364 -3.002,0.142 -0.638,0.404 -0.216,0.018 -0.268,0.238 -0.1,0.226 0.082,0.49 1.048,0.818 0.442,-0.082 0.332,-0.296 0.304,-0.108 0.304,0.156 0.566,0.718 0.554,0.188 1.392,-1.49 -0.146,-0.622 -0.426,-0.714 -0.228,-0.086 z m -272.326,-117.902 1.206,-0.122 0.852,-1.666 0.078,-0.656 -0.358,-0.784 -1.878,0.244 -0.456,0.752 -0.328,1.148 0.21,0.428 0.674,0.656 z m 433.21,332.126 -0.422,-0.544 -0.876,-1.564 -0.102,-0.754 0.258,-0.684 -0.36,-0.118 -1.574,-0.27 -0.566,0.438 -0.446,0.122 1.352,1.022 0.418,0.538 0.09,0.58 0.208,0.452 0.62,0.916 0.534,0.702 0.318,0.258 0.46,0.11 0.322,0.576 0.696,0.712 0.03,-1.408 -0.408,-0.668 -0.552,-0.416 z m -66.606,50.922 -0.012,0.744 0.582,0.226 0.538,-0.38 0.11,-0.308 -0.154,-1.036 0.456,-0.846 0.092,-0.552 -0.42,-0.144 -1.192,2.296 z m -8.78,13.4 -0.364,0.576 0.112,0.12 0.28,0.062 0.266,-0.472 -0.124,-0.382 -0.17,0.096 z m 16.576,-25.404 -0.656,0.644 -0.628,1.778 -0.52,0.718 -1.382,0.28 -0.602,0.664 -0.608,-0.042 -0.13,0.292 0.268,0.454 0,1.032 0.258,0.292 0.608,0.174 0.292,-0.318 0.378,-0.592 0.512,-0.276 1.038,-0.216 0.722,-0.876 0.694,-1.312 0.314,-0.946 0.126,-0.988 -0.146,-0.89 -0.538,0.128 z m 2.102,-0.932 -0.918,0.686 -0.252,0.468 0.158,0.262 0.726,0.556 0.222,0.046 0.222,-0.21 0.438,-0.828 0.026,-0.812 -0.178,-0.148 -0.444,-0.02 z m -419.834,-326.28 0.422,0.93 0.242,0.184 0.914,-0.794 0.25,1.186 0.412,0.344 0.402,-2.074 0.724,0.044 0.236,-0.256 -0.072,-0.81 -0.204,-0.722 -0.038,-2.152 -0.808,0.048 -0.612,0.354 -0.018,0.844 0.096,1.116 -0.474,0.064 -0.73,-0.99 -1.188,1.86 0.178,0.628 0.268,0.196 z m 415.216,326.738 0.512,-0.1 0.048,-0.208 -0.078,-0.578 -0.398,-0.212 -0.568,0.186 0.09,0.39 0.166,0.286 0.228,0.236 z m -19.016,31.56 -0.708,0.784 -0.984,1.198 -0.838,0.132 0.046,0.196 0.172,0.332 0.344,0.01 1.046,-0.9 1.612,-2.01 -0.304,-0.01 -0.386,0.268 z m 11.004,-15.008 -0.194,0.616 -0.558,0.506 0.046,0.142 0.238,0.144 0.214,-0.438 0.692,-0.568 0.134,-0.296 -0.166,-0.11 -0.406,0.004 z m -45.338,44.252 -0.118,0.102 0.024,0.102 0.074,-0.018 0.136,-0.094 0.094,-0.058 0.08,-0.084 -0.068,-0.068 -0.222,0.118 z m 1.596,-1.65 -0.128,-0.034 -0.148,0.102 -0.056,0.068 0.082,0.034 0.246,0.042 0.148,-0.042 -0.048,-0.146 -0.096,-0.024 z m -0.706,-6.62 -0.536,-0.02 -0.964,1.78 -0.282,0.188 -0.214,0.434 -0.442,0.5 -0.14,0.448 -0.46,0.564 -1.146,0.996 -0.202,0.47 0.074,0.568 0.654,0.56 0.174,-1.398 1.012,-0.742 0.676,-0.832 0.148,-0.436 1.114,-1.11 0.34,-0.178 0.694,-0.096 0.788,-0.74 0.448,0.008 0.29,-0.516 -1.19,0.124 -0.836,-0.572 z m -1.55,8.088 -0.098,0.012 -0.104,0.006 -0.078,-0.04 -0.07,0.014 0,0.056 0.07,0.05 0.028,0.084 0.042,0.102 0.074,-0.02 0.134,-0.026 0.068,-0.006 -0.014,-0.146 -0.052,-0.086 z m 16.244,-15.666 0.004,-0.24 -0.078,-0.192 -0.22,-0.132 -0.372,0.046 -0.53,0.288 -1.618,1.612 -1.09,0.192 -0.416,-0.032 -0.514,-0.92 -0.226,-0.044 -0.29,0.66 0.072,0.594 -0.652,0.278 -0.626,0.774 -0.562,0.242 -0.714,0.928 -1.032,0.704 -0.516,0.708 -0.078,0.81 -0.936,0.766 -0.228,0.414 -0.204,0.852 1.128,-0.996 0.612,-0.174 0.576,-0.974 1.422,-1.244 0.26,-0.404 0.07,-0.458 0.202,-0.256 0.708,0.148 0.726,-0.252 0.514,-0.632 1.444,-1.164 0.856,-0.24 1.038,-0.56 1.074,-0.05 0.26,-0.308 -0.192,-0.406 0.128,-0.338 z m 8.326,-5.978 -1.944,1.44 -0.934,1.172 -0.73,0.292 -1.228,1.974 0.516,0.016 0.834,-0.406 1.1,-1.13 0.396,-0.316 0.576,-0.216 0.776,-0.674 0.222,-0.636 1.788,-1.584 -1.146,-0.04 -0.226,0.108 z m -19.556,18.526 -1.136,0.368 -0.046,0.124 -0.028,0.438 0.416,0.188 0.174,-0.212 1.04,-0.468 -0.084,-0.194 -0.336,-0.244 z m 21.562,-139.372 -0.412,0.688 -0.688,0.47 0.01,0.21 0.22,0.298 0.442,-0.124 0.774,-0.834 -0.084,-0.296 -0.262,-0.412 z m 78.056,-0.668 -0.31,-0.062 -1.77,1.426 -2.476,0.884 0.034,0.464 0.1,0.462 -0.324,1.422 -0.842,1.702 -0.838,0.666 0.026,0.352 0.086,0.23 0.136,0.164 0.918,-1.008 1.824,-1.514 1.79,-1.02 1.89,-0.514 0.258,-0.924 -0.182,-1.542 -0.32,-1.188 z m -496.292,-354.995998 1.706,1.032 1.006,0.032 0.072,1.576 0.902,0.12 4.372,-0.382 -0.222,-0.692 -1.062,-1.004 -5.01,-2.682 -0.534,0.87 -0.694,-1.118 -0.564,-0.418 -0.544,0.616 0.116,0.596 0.456,1.454 z m -0.078,147.995998 -0.318,0.612 0.85,0.932 2.386,0.724 0.542,-0.124 -2.836,-2.162 -0.624,0.018 z m -1.754,1.882 0.414,-0.442 0.844,-1.34 -0.066,-0.21 -0.614,-0.272 -2.024,0.654 -1.094,1.25 -0.172,0.888 0.894,-0.48 1.818,-0.048 z m -7.816,10.694 0.862,0.506 0.282,0.33 0.126,-0.184 0.206,-0.654 -0.208,-0.414 -0.072,-0.76 0.536,-1.222 1.228,-0.574 -1.326,-0.88 -0.704,-0.264 -1.072,-0.168 -1.182,0.414 -0.314,0.67 -0.236,1.016 0.452,0.886 1.422,1.298 z m 26.176,-201.267998 5.208,-1.272 1.788,-0.7 0.16,-0.518 0.304,-1.6 -0.832,-0.788 -2.654,-0.914 -3.306,0.538 -0.604,1.31 -0.742,2.67 0.164,0.474 0.514,0.8 z m -50.404,198.419998 1.01,0.228 0.458,-0.07 1.648,-0.904 1.196,-0.474 2.63,-0.83 1.52,-0.222 0.024,-0.986 -0.228,-1.136 -0.812,-1.152 -0.526,-0.59 -0.672,-1.484 -0.508,-0.596 -0.662,-0.518 -0.466,-0.202 -3.312,0.726 -1.126,0.648 -0.864,1.676 0.128,2.636 -0.186,1.07 -0.31,0.826 -0.056,0.812 0.676,0.912 0.438,-0.37 z m 49.182,5.814 3.088,0.774 0.396,-0.212 0.206,-0.898 0.02,-2.838 -0.724,-1.234 -0.312,-1.066 -1.08,-1.074 -2.848,3.876 -0.132,0.792 0.32,0.9 1.066,0.98 z m 499.566,238.072 -0.966,-0.772 -0.662,-0.268 -0.454,-0.576 -0.394,0.01 0.262,0.592 1.062,0.944 2.268,1.788 -0.238,-0.504 -0.878,-1.214 z m -508.002,-234.566 -0.658,1.478 -0.624,0.874 -1.382,1.366 -0.18,0.898 0.196,0.358 1.346,0.292 2.732,-0.172 0.832,-0.32 1.272,-1.552 0.826,-0.456 1.184,-1.216 -0.07,-0.408 -0.414,-0.914 -2.976,-1.462 -0.956,0.006 -1.128,1.228 z m 334.634,230.65 -1.124,0.816 -0.454,0.52 0.284,0.098 0.772,-0.142 0.376,0.356 0.482,-0.026 0.692,-1.696 -0.126,-0.072 -0.44,0.158 -0.462,-0.012 z m 5.812,0.384 -0.508,-0.384 -0.17,-0.17 -1.87,-0.852 -0.19,0.334 -0.606,1.44 -0.288,0.15 -0.614,1.07 -0.238,0.978 0.242,-0.018 1.046,-0.788 0.354,0.462 0.762,1.674 0.338,-0.096 0.386,-0.326 0.448,-0.51 0.502,-0.382 0.178,-0.308 0.142,-0.78 0.45,-0.878 0.616,-0.416 -0.192,-0.26 -0.788,0.06 z m 292.9479,-128.064 -0.624,-0.282 -1.994,-0.08 0.292,-0.444 -0.112,-0.49 -0.198,-0.494 -0.304,-0.31 -0.336,-0.054 -0.686,0.276 -0.682,0.406 0.346,-0.586 0.392,-0.408 -0.206,-0.328 -0.258,-0.19 -2.084,-2.42 -1.248,-0.888 -1.186,-1.188 -1.174,-2.016 -1.27,-1.614 -1.324,-0.596 -1.36,0.112 -0.974,-0.376 -0.974,-0.504 -2.1699,-0.548 0.034,0.446 2.3519,0.806 0.352,0.362 -0.164,0.314 -0.512,0.08 -1.8079,-0.244 -0.538,-0.198 -0.496,-0.618 -0.26,0.078 -0.198,0.36 0.068,0.82 0.228,0.666 -0.468,0.35 -0.496,-0.162 0.024,-0.826 0.11,-0.652 0.558,-1.152 0.316,-0.246 0.054,-0.244 -1.886,-0.52 -0.52,-0.398 -0.522,-0.174 -1.148,0.552 -3.162,0.048 -0.576,0.18 -0.024,0.398 0.2,0.2 0.494,0.164 0.5,-0.03 0.326,0.548 0.726,0.28 0.38,0.56 0.254,0.964 0.126,0.686 0.074,0.696 -0.308,1.26 -0.444,0.526 -0.516,0.292 0.198,0.722 0.53,0.564 1.016,0.266 0.442,0.47 0.384,0.754 -0.326,0.96 -0.38,0.778 -0.312,0.33 -0.218,0.572 -0.174,0.224 -0.222,0 0.266,-2.132 -0.376,-1.27 -0.682,0.292 -0.286,0.334 -0.614,1.122 -0.156,0.058 -0.138,-0.388 -0.198,-0.812 -0.134,-0.874 -0.144,-0.644 -0.612,-0.67 -0.35,-0.254 -1.064,-0.136 -0.34,-0.142 0.308,-1.44 0.554,-0.844 -0.07,-1.888 -0.252,-0.638 -0.316,-0.558 -0.298,-1.334 0.042,-1.594 0.34,-0.944 0.114,-1.168 -0.382,-0.856 -0.474,-0.436 -0.354,0.352 -0.322,0.532 -0.18,0.168 -1.234,0.116 0.798,-1.302 -0.04,-1.09 -0.148,-0.666 -0.246,-0.522 -0.2,-1.122 -8.768,-6.574 -1.484,-0.836 -0.706,-0.722 -0.62,-0.342 -0.634,0.126 -0.384,0.19 -0.282,-0.256 0.26,-0.604 0.37,-0.202 -0.876,-1.038 -3.18,-2.728 -0.692,-0.372 0.496,0.722 2.374,2.142 0.366,0.612 -0.706,0.78 -0.75,0.328 0.208,-0.876 -0.168,-1 -0.274,-0.554 -0.826,-0.64 -1.288,-0.536 -1.228,-0.678 -0.246,-0.722 -0.084,-1.038 0.774,0.882 0.422,0.268 -0.846,-1.376 -1.038,-1.22 -2.268,-1.096 -0.43,-0.432 -0.644,-0.924 -0.246,-0.074 -0.454,0.166 -1.14,-0.53 -1.13,-0.672 -0.74,-0.458 -3.342,-3.89 -1.808,-0.574 -0.142,-0.478 -0.102,-0.574 -0.33,-0.4 -2.276,-1.05 -2.858,-0.682 -3.028,-1.862 -2.638,-0.554 -2.884,-1.982 -1.7,-1.492 -1.044,-0.572 -0.956,-0.144 -2.558,0.718 -2.862,0.072 -2.618,-0.422 -2.084,0.122 -1.206,-0.278 -1.654,-0.91 -0.478,0.374 -0.428,1.636 -1.24,-0.668 -1.048,-0.894 -1.738,-0.794 -3.306,-0.524 -4.062,-1.246 -2.126,-0.328 -2.138,-0.19 0.216,2.786 -0.126,1.328 -0.806,1.716 -0.888,1.096 -0.226,0.914 2.366,0.696 0.74,3.124 0.952,1.98 0.634,2.036 -0.008,1.406 -2.568,3.432 -2.65,0.414 -2.558,0.196 -1.096,-2.076 -0.584,-2.502 -2.044,-1.318 -2.012,-1.028 -0.924,-0.176 -0.674,-0.506 -0.41,-2.792 -0.45,-2.09 -0.574,-0.776 -0.548,-1.186 -0.522,-0.47 -1.286,-0.198 -3.116,2.998 -1.058,0.876 -0.36,0.004 -4.714,-0.744 -1.232,-0.618 -7.002,-0.398 -1.986,-1.778 -1.2,-0.256 -1.35,0.54 -1.164,0.138 -1.666,-0.348 -1.44,0.518 -3.196,0.542 -1.176,0.606 -1.24,1.068 -2.292,2.648 -0.318,1.262 0,1.558 0.478,2.168 0,2.482 -0.394,0.862 -0.73,0.416 -0.756,2.616 -0.708,1.406 -1.394,0.37 0.792,-1.062 0.742,-0.712 1.188,-3.894 -0.172,-1.204 -0.95,-0.886 -0.592,-0.93 -0.3,-3.734 -0.296,-1.978 -0.104,-2.37 -0.96,-0.788 -3.48,-1.206 -1.61,-0.894 -0.578,-1.386 0.616,-1.958 -0.042,-1.502 0.326,-1.274 0.526,-1.038 0.13,-1.466 -0.27,-1.902 -0.262,-1.382 -0.602,-1.666 -0.432,-0.756 -2.118,-2.396 -3.638,-2.468 -3.734,-1.794 -3.31,-0.61 -4.282,-0.332 -4.43,-0.03 -1.68,0.984 -3.18,0.076 -3.456,1.03 -3.478,1.622 -1.874,0.024 -3.716,0.736 -1.626,0.018 -4.192,-2.538 1.334,-0.344 0.522,-0.36 -1.87,-3.372 -0.996,-1.208 -2.454,-1.52 -0.996,-0.118 -0.82,0.308 -3.248,1.676 -0.816,0.708 1.612,-1.962 0.79,-0.826 0.8,-1.222 -0.186,-0.77 -0.196,-0.376 -3.026,0.166 -0.194,-0.186 -0.638,-1.052 -0.312,-0.37 -2.016,-1.114 -1.458,-0.426 -1.514,-0.044 -0.252,-0.432 0.176,-0.528 0.058,-0.334 0.468,-0.592 1.296,-0.536 3.376,-0.314 0.762,-0.95 -0.106,-0.992 -0.196,-0.756 -1.106,-1.802 -1.486,-1.336 -3.012,-1.616 -3.16,-1.098 -5.434,-0.536 -0.964,0.24 -0.758,0.662 -1.302,1.74 -2.958,5.016 -1.654,2.05 -1.508,1.11 -3.458,0.908 -0.634,-0.208 -0.482,-0.822 0.158,-0.722 0.314,-0.668 0.022,-0.428 -0.174,-0.836 0.096,-0.452 0.348,-0.02 0.816,0.588 0.764,0.082 1.96,-0.924 0,-1.44 -0.52,-0.842 0.258,-2.022 -0.002,-0.526 0.276,-0.36 0.228,0.074 1.414,1.46 0.482,-0.078 0.522,0.164 -1.26,3.494 0.604,0.008 1.62,-1.642 1.11,-1.606 1.166,-2.072 0.138,-1.084 -1.334,-0.13 -8.728,0.786 -3.192,1.564 -0.986,-0.328 -0.706,-1.216 1.076,-0.12 1.272,-0.74 1.06,-1.42 0.68,-0.26 1.77,0.066 1.428,0.568 4.308,0.23 0.102,-1.716 -0.952,-0.542 -2.072,-0.484 -1.282,-0.834 -1.61,-0.526 -3.54,-0.746 -1.486,-0.622 -3.496,-0.57 -0.928,-0.472 -8.162,-0.424 -3.048,-1.286 -1.172,-1.312 -2.814,-0.632 -0.562,0.018 -0.18,0.35 -0.132,0.548 1.798,2.384 0.058,1.638 0.54,0.808 -2.102,1.272 -1.428,0.482 -4.768,-0.056 -0.714,0.552 -1.87,2.536 0.024,1.206 0.176,1.854 1.428,0 0.42,-0.81 0.626,-0.33 2.904,0.294 0.298,0.336 -0.974,0.536 -0.938,0.248 -1.162,2.738 -1.576,0.852 1.084,0.446 0.958,0.754 -0.156,3.312 1.368,2.542 0.256,1.17 -1.976,0.04 -1.75,0.786 -0.624,0 -1.146,-1.966 -1.262,-1.296 -0.62,-0.104 -0.812,1.28 -1.162,-0.71 -0.47,0.114 -0.65,0.536 -0.392,0.712 -0.296,1.104 -0.382,0.596 -0.05,0.804 0.582,0.362 0.422,0.084 1.216,0.58 -1.254,0.316 -0.326,0.378 -0.112,0.438 -0.948,0.592 0.326,0.57 0.402,0.442 0.102,0.45 -0.292,0.162 -0.794,-0.53 -0.828,-0.77 -1.306,-1.586 -0.574,-1.058 -1.12,-0.988 -3.984,-2.742 -1.772,-0.868 -1.154,-0.196 -1.828,0.36 -1.122,1.186 -1.89,0.504 -1.172,0.96 -0.624,1.3 -3.368,0.138 -2.324,-0.972 -1.474,-1.002 -1.658,-2.05 -1.634,-2.65 -0.202,-0.222 -0.198,-0.558 -0.294,-1.31 -0.348,-0.984 -0.514,0.554 -1.328,3.04 -0.55,1.49 -0.722,2.816 -0.536,2.356 -0.072,0.998 0.25,0.86 -0.722,0.72 -0.772,1.758 -1.162,3.452 -0.728,1.246 -0.92,1.07 -0.624,0.398 -0.762,-0.066 -0.694,-0.978 -0.372,-2.264 -0.42,-0.454 -0.498,1.27 -0.738,-0.072 -1.436,-0.94 -1.432,-2.036 -1.482,-0.938 -2.09,-4.982 -0.928,-1.834 -0.506,-1.49 -1.188,-0.158 -0.446,-1.098 0.594,-0.788 1.6,-0.666 1.274,0.1 -0.95,-1.992 -0.458,-1.204 -0.498,-0.656 0.184,1.348 -0.21,0.972 -0.43,0.758 -0.72,0.486 -3.104,-6.02 -1.866,-2.962 -1.038,-1.074 -0.648,-1.944 0.434,-0.386 2.208,2.304 1.562,1.18 2.58,3.042 1.958,-0.23 0.712,-1.358 0.006,-2.744 -0.73,-2.264 -0.926,-0.894 -3.184,-0.188 -0.736,-0.734 0.508,-0.228 0.702,-0.052 1.02,-0.67 1.698,-1.71 0.746,-0.532 -0.122,-1.334 -1.188,-1.836 -1.928,-0.256 -0.42,-0.178 0.764,-0.918 0.664,-0.562 1.126,-1.398 0.262,-1.292 -0.232,0.094 -0.818,-0.06 -0.234,-0.556 0.096,-0.986 -0.886,-0.838 -0.806,-0.564 -1.848,-0.098 0.036,-0.648 0.098,-0.584 -0.786,-0.426 -0.65,-0.752 -0.162,-0.684 -0.234,-0.392 -1.206,-0.71 -3.98,-1.302 -0.426,0.38 -0.656,1.854 -1.606,1.948 -1.216,-1.054 -0.242,-0.106 -0.198,-0.502 0.29,-0.864 0.204,-0.84 -0.276,-0.6 -0.232,-0.228 -0.826,0.608 -1.232,0.384 -0.524,0.584 -1.1,0.414 0.104,-1.444 -4.608,-3.802 -1.432,-0.792 -0.86,-0.072 -2.07,0.852 -0.478,0.46 -0.77,1.246 -1.716,-0.788 -0.42,0.588 -0.624,2.064 0.098,2.014 0.184,0.556 0.16,1.082 0.658,1.672 0.68,1.33 -0.28,0.308 -0.284,0.086 -0.338,0.556 -0.32,1.13 -0.582,1.614 -0.79,0.9 -0.904,-0.188 -2.156,-1.214 -0.496,0.216 -0.138,0.882 1.286,0.752 0.118,0.474 -0.336,0.3 -0.868,0.248 -1.556,-0.052 -1.292,-0.318 -0.806,-1.216 -0.776,-0.168 -2.208,-0.024 -2.006,0.654 -2.24,-0.85 -3.796,0.186 -0.96,-0.148 -1.824,-1.63 -2.61,-1.028 -2.976,-2.506 -0.3,-2.358 0.452,-1.91 1.67,-0.002 1.022,-0.33 -0.142,-0.734 -0.224,-0.386 -2.362,-1.03 -6.408,-0.186 -4.564,-1.532 -6.498,-0.53 -2.93,1.902 -4.24,0.448 -1.142,1.016 -1.946,0.562 0.164,1.406 0.964,1.084 0.47,0.218 0.51,0.424 -0.318,0.376 -0.36,0.168 -0.708,0.866 -0.452,0.796 0.126,1.752 -0.218,1.696 -0.704,2.344 -0.594,1.028 -0.54,1.378 0.462,1.27 0.526,0.526 1.338,0.64 0.46,0.43 -0.268,0.37 -1.976,-0.43 -0.708,-1.374 -0.156,-0.744 -0.17,-1.162 0.672,-1.266 0.684,-0.854 0.592,-2.034 0.072,-1.876 0.018,-3.912 -1.202,-0.89 -0.672,-1.338 1.164,-2.436 0.292,-1.29 -0.502,-1.194 -0.816,-2.61 -0.834,-1.544 -0.548,-0.644 -0.556,-0.332 0.582,2.556 -0.468,1.298 -0.34,0.502 -2.22,0.7 -1.418,0.044 -1.928,-0.728 -2.264,-1.658 -0.566,-1.152 -0.402,-1.696 1.302,-0.738 0.508,-0.482 -1.174,-0.384 -1.182,-0.112 -0.42,2.31 -0.764,-0.172 -3.698,-1.414 -0.996,0.468 -1.206,1.294 -0.534,1 -0.61,1.632 0.23,1.134 0.258,0.424 1.9,0.282 1.668,-0.35 1.876,-1.08 0.432,0.404 0.386,0.584 -0.532,0.832 -1.936,1.202 -3.218,3.1 -1.224,0.364 -1.716,-0.66 -0.93,1.73 -0.424,0.416 -2.888,1.162 -1.258,0.172 -0.37,0.866 -0.756,0.156 -0.84,0.434 -1.408,1.212 -2.142,0.194 -1.458,-0.274 -3.542,0.734 -0.914,0.638 -0.596,0.884 -0.278,1.126 -0.52,1 -2.014,2.158 -1.714,0.886 -1.454,0.246 1.398,-1.214 1.596,-2.256 2.872,-6.744 2.754,-0.442 0.644,-0.902 2.094,-4.198 0.584,-0.628 2.774,-0.08 2.438,-1.378 4.914,-6.828 2.446,-1.154 1.682,-1.648 0.3,-0.818 0.266,-1.082 -0.252,-0.658 -0.146,-0.598 2.164,-1.18 0.83,-1.826 2.914,-1.724 2.28,-2.332 3.196,-1.736 1.816,-2.42 4.116,-3.496 3.866,-6.084 0.632,-3.502 -0.94,-1.15 -1.138,-0.722 -0.634,-1.738 -0.458,-0.206 -1.156,1.096 -1.268,-3.752 -1.552,-2.114 0.072,-0.31 0.172,-0.142 0.744,0.332 2.792,3.12 1.488,0.472 0.436,0.48 0.27,0.788 -0.176,1.306 0.458,-0.1 0.292,-0.548 0.722,-2.538 0.688,-3.454 -0.078,-1.502 -1.646,0.682 -0.764,-5.114 -0.35,-1.564 -0.522,-1.714 -1.046,-0.152 -0.55,0.434 0.438,0.578 0.474,0.958 -0.316,0.974 -0.266,0.44 -1.28,1.294 -0.912,0.118 0.368,-0.55 0.43,-1.226 -0.312,-1.344 -0.328,-0.75 -0.364,-3.902 -1.158,-0.59 -0.652,-0.63 -0.866,0.256 -1.124,1.04 0.416,-0.958 0.434,-1.432 -0.872,-1.76 -0.858,-1.21 -1.042,-0.456 -1.168,-1.564 -1.558,-0.888 -3.612,-0.866 -2.76,1.128 -3.434,-0.914 -4.104,0.71 -1.608,0.014 -0.958,-0.448 -0.862,0.474 -0.438,1.41 -0.268,2.204 -1.012,1.144 -0.55,0.292 -2.618,-0.336 -1.866,1.058 -0.798,-0.832 -1.514,0.058 -0.162,-1.862 0.902,0.076 0.526,0.312 1.696,-3.818 1.398,-2.244 1.346,-2.584 -0.848,-1.602 -1.892,-1.084 -0.886,0.066 -0.442,0.45 -2.056,-0.852 -1.084,0.064 -1.814,1.194 -0.62,-0.098 -0.372,-2.486 -1.828,0.21 -6.274,-0.238 0.68,-0.776 3.302,-1.062 2.652,-1.598 1.962,-2.914 1.826,-0.988 -0.428,-1.47 -0.498,-1.066 -1.036,-0.944 -2.252,-0.624 -1.93,-1.186 -0.848,-1.502 -3.534,-2.062 -0.956,0 -2.546,2.59 -1.29,-0.24 -1.122,0.382 -2.926,3.074 -6.132,7.958 -1.262,2.436 -0.602,1.83 -1.098,0.95 -0.472,2.23 0.082,1.93 0.492,1.01 0.512,1.894 -0.524,2.162 -0.438,1.412 0.418,0.632 1.182,-0.126 2.64,1.208 -0.482,1.11 -1.61,-0.952 -1.404,0.04 -1.218,-1.154 -2.926,1.108 -2.17,-0.258 -2.018,0.442 -3.966,-0.916 -0.36,0.696 0.92,1.194 0.698,1.11 2.06,2.592 0.876,0.824 1.172,2.45 0.146,4.782 -0.64,1.144 -0.718,1.59 -0.384,0.292 -0.554,-0.106 0.9,-1.12 0.488,-2.402 0.456,-1.678 -0.602,-1.146 -0.268,-0.1 -0.296,-0.63 -2.108,-1.602 -1.136,-0.702 -1.2,-0.388 -0.612,-0.44 -1.796,1.462 -0.828,0.332 -0.98,0.768 -0.57,1.052 -1.394,0.248 -0.18,1.14 -0.778,1.132 -0.834,-1.234 -0.814,0.342 -1.832,2.03 -2.144,0.918 0.228,-0.7 0.352,-1.578 -0.516,-0.364 -3.22,1.84 -1.072,1.238 -0.508,-0.458 1.868,-2.716 0.502,-1.682 -0.874,-0.728 -1.916,-0.566 -1.23,-0.054 -1.8,0.61 -2.598,-0.894 -0.386,1.024 -0.666,0.122 -1.604,-0.486 -1.458,0.522 -1.092,1.098 -1.622,-1.086 -0.562,0.046 -0.868,1.698 -0.748,-1.146 -0.632,2.22 0.178,1.608 0.54,0.166 0.46,-0.234 0.268,-0.734 0.348,-0.332 1.28,1.334 0.388,-0.73 0.554,-0.542 0.632,0.802 2.634,-0.87 -0.456,1.07 -2.95,1.354 -5.316,1.716 -1.096,0.672 -3.154,0.59 -2.054,1.68 -2.664,0.002 -4.602,1.322 -3.31,2.98 -1.6,-0.266 -3.24,2.25 -1.288,1.744 -4.672,3.536 -2.808,-1.362 -0.926,0.48 -0.472,1.248 0.096,0.974 1.132,-0.09 0.824,0.43 1.01,0.854 -0.27,1.566 -2.12,3.482 -1.004,1.3 -1.188,0.752 -2.528,-2.854 -0.458,1.258 -0.34,0.622 -1,-0.256 -0.504,2.022 1.826,0.35 1.736,0.91 1.542,1.328 1.09,1.526 1.19,0.964 0.694,0.828 -1.862,0.802 -1.31,-1.852 -0.708,-0.626 -0.8,-0.122 -1.196,0.566 -1.018,2.228 0.99,0.758 2.208,0.738 0.708,0.998 2.876,6.46 0.716,0.658 0.932,0.274 0.38,0.438 -1.132,1.102 -0.42,1.026 -0.978,1.788 -4.176,0.918 -1.242,0.676 -0.344,0.312 -0.524,0.658 -0.338,0.58 -0.162,1.298 0.342,0.85 0.848,0.788 3.33,3.514 -0.214,0.368 -0.912,-0.652 -1.158,-1.07 -1.178,-1.494 -1.572,-1.06 -0.088,-0.876 -0.054,-1.308 0.042,-0.406 0.15,-0.668 1.498,-1.692 1.526,-0.826 1.864,-1.936 1.864,-2.154 -0.382,-0.738 -0.384,-0.532 -1.692,-0.144 -3.438,0.754 -2.064,0.712 -0.914,1.746 -1.39,0.262 -0.692,0.042 -1.906,-0.868 -1.798,0.818 -4.212,0.71 -0.686,0.398 -9.698,0.154 -1.956,0.368 -4.97,1.43 -0.12,1.06 0.19,0.808 -0.772,1.188 -0.338,1.116 0.118,1.314 0.032,1.138 0.174,1.474 0.302,1.334 0.724,0.71 0.666,0.46 0.472,1.458 -0.38,1.688 -0.55,1.928 -0.108,0.892 0.356,1.208 0.438,2.398 0.166,0.592 1.522,1.832 1.036,0.572 1.704,0.132 1.16,0.464 1.69,1.128 0.504,0.512 0.144,0.484 0.4,1.942 0.216,0.608 1.83,2.662 0.616,0.404 2.5,0.508 0.788,0.848 1.088,2.574 0.108,0.61 0.1,0.986 -0.118,0.9 -0.108,0.522 -0.412,0.826 -1.076,3.366 -0.644,2.996 1.026,1.988 1.376,3.812 0.406,1.592 0.474,2.124 -0.2,1.346 -0.226,0.806 -0.914,1.22 -1.142,0.4 -1.232,0.742 0.114,0.922 0.212,1.058 -0.126,0.786 -0.162,0.272 -0.672,0.08 -0.586,-0.268 -0.502,-0.818 -0.476,-1.052 0.338,-1.142 0.996,-2.016 0.62,-2.908 0.158,-1.932 -0.042,-2.05 -0.23,-1.372 -0.792,-1.02 -0.736,0.22 -0.816,0.894 -0.792,3.406 -1.084,2.476 -0.15,1.02 0.024,0.884 -0.082,0.578 -0.216,-1.94 -0.11,-1.46 0.604,-1.838 0.368,-1.712 -0.112,-1.232 -0.432,-2.032 0.084,-1.008 0.126,-0.644 0.258,-2.896 0.958,-0.574 2.384,-2.23 0.33,-0.554 0.722,-1.964 0.336,-0.706 0.382,-1.174 -0.712,-0.934 -0.678,-0.504 -1.282,-0.276 -1.182,0.098 -2.624,0.926 -2.348,-0.164 -0.844,-0.54 -3.678,-4.038 -0.232,-1.528 -0.292,-0.634 -0.356,-0.166 -1.264,-1.002 -2.92,-1.282 -2.984,-2.91 -5.274,-0.264 -1.444,0.324 -1.444,0.902 -1.32,1.834 -0.606,0.51 -0.862,0.17 -0.18,0.652 -0.162,0.892 0.46,0.658 1.616,-0.778 1.322,0.406 0.7,0.864 0.514,1.678 -0.256,0.816 -2.296,1.274 -1.274,-0.102 -2.748,-2.93 -1.064,-0.524 -2.526,0.492 -1.67,1.438 -0.514,0.292 0.398,1.466 0.628,2.62 0.542,1.556 0.68,0.764 2.458,1.872 1.362,0.656 2.062,1.716 1.266,0.192 1.132,-0.412 1.708,1.01 0.976,3.116 0.588,1.068 0.542,0.542 0.764,0.308 0.448,0.042 0.478,-0.406 1.096,-0.084 -0.384,0.892 -0.41,0.282 -2.338,0.376 -1.15,-0.32 -1.418,-0.96 -2.686,-3.14 -3.336,-0.228 -0.374,0.922 -1.048,-1.29 -3.544,-0.288 -2.116,-0.826 -2.254,-1.326 -0.192,-0.644 -0.1,-0.908 0.768,-1.138 0.29,-0.704 0.196,-2.136 -1.436,-2.84 0.148,-2.626 0.676,-0.44 0.876,-3.42 0.528,-1.128 0.282,-0.39 0.264,-0.788 -0.282,-0.992 -0.264,-0.598 -0.296,-1.392 0.066,-1.024 0.002,-1.29 -0.722,-1.954 -0.592,-2.112 -1.216,-1.064 -1.18,-0.022 -0.436,0.292 -0.438,0.504 0.618,1.926 0.624,1.708 0.294,1.324 0.208,2.388 -0.042,2.912 -0.206,1.176 -0.344,0.996 -1.056,1.232 -1.768,1.462 -0.998,0.71 -2.086,0.78 -1.502,1.256 -3.288,7.128 0.36,1.052 1.208,1.148 0.796,0.984 0.388,0.82 0.87,2.566 3.252,7.1 0.184,1.266 -0.768,2.24 -1.512,2.88 -0.602,1.612 -1.416,6.108 -0.1,1.552 0.578,1.456 0.952,1.818 0.326,1.374 -0.646,3.488 0.34,0.868 0.792,0.45 2.162,-0.47 2.538,0.85 1.34,-0.406 2.058,-1.93 0.792,-0.208 2.468,0.264 3.616,1.856 3.836,2.488 0.774,0.834 1.036,0.034 0.756,4.22 0.682,2.274 0.292,1.604 0.206,1.786 -0.71,0.376 -0.626,0.186 -0.516,0.484 -0.722,2.748 -0.09,1.464 0.382,2.344 3.216,1.088 2.232,0.578 1.57,0.116 0.274,0.266 0.196,0.354 -1.87,0.158 -3.388,0.284 -1.202,-0.164 -0.542,-0.284 -0.538,-0.8 -1.032,-0.808 -0.394,-0.546 -0.846,-0.634 0.414,-2.418 0.07,-5.638 -0.126,-2.344 -0.712,-1.94 -2.114,-2.788 -0.726,-1.876 -0.822,-1.258 -0.804,-0.208 -1.17,0.248 -2.906,1.164 -2.61,0.614 -3.06,1.714 -0.552,1.426 -0.502,3.652 0.672,1.788 0.68,1.284 0.62,2.18 0.2,1.314 0.05,1.32 -0.1,1.95 -0.524,1.06 -3.376,4.12 -0.496,1.26 -0.578,3.514 -0.512,1.288 -1.562,1.92 -0.964,0.772 -5.188,3.486 -0.188,0.764 -0.352,2.444 -1.426,1.098 -0.846,0.092 -1.97,-1.214 -1.166,-0.358 -1.194,-0.102 -4.524,0.34 -2.004,-0.826 -1.58,-1.166 -1.622,-0.368 -1.222,-0.958 -0.284,-0.876 -0.296,-1.174 -0.224,-0.608 -0.21,-0.312 0.368,-0.392 0.782,-0.18 2.934,0.2 0.766,-0.442 0.402,0.222 0.814,1.076 1.064,0.972 0.9,-0.164 0.76,-0.8 0.29,-0.006 0.336,0.126 -0.688,0.63 -0.706,0.462 -0.19,0.292 -0.144,0.638 1.002,0.758 0.918,0.412 1.204,-0.404 0.708,-0.794 1.55,-1.164 1.11,0.052 0.064,-1.098 -0.574,-1.688 -0.468,-1.182 1.7,0.312 1.008,-0.974 4.192,-8.418 1.99,-1.61 0.662,-1.046 0.478,-1.458 0.118,-1.61 -0.244,-1.768 0.056,-1.362 0.712,-1.71 1.116,-2.072 0.708,-0.78 -0.102,-0.778 -0.142,-0.642 -2.006,-2.038 -2.126,-1.678 -0.75,-0.926 -0.568,-1.462 -0.28,-1.752 0,-1.16 0.17,-3.55 0.326,-1.686 -0.09,-4.984 -0.392,-6.214 -0.338,-1.698 0.52,-1.176 0.512,-0.966 0.264,-0.904 0.178,-6.184 -0.152,-2.406 -0.692,-3.246 -2.818,-2.712 -1.19,-2.648 0.096,-0.954 0.154,-0.646 1.222,-1.086 0.84,-1.54 0.538,-2.258 1.118,-3.452 0.284,-1.216 0.72,-4.842 0.194,-2.596 0.138,-3.908 -1,-1.002 -1.052,-0.868 -1.94,-0.734 -0.96,0.176 -1.756,-1.568 -0.654,-0.22 -4.742,0.444 -2.712,-0.206 -1.598,0.356 -0.838,-0.046 -0.524,-0.24 0.078,-0.654 0.282,-0.47 -0.082,-0.406 -0.462,-0.084 -1.238,0.506 -1.976,5.422 -1.176,5.202 -1.248,6.952 -0.774,2.896 -1.126,3.044 -1.738,2.39 -2.344,2.408 -1.502,1.126 -2.002,1.146 -0.84,2.482 -0.72,1.014 0.296,0.686 0.868,-0.38 -0.496,1.748 -0.52,1.06 0.05,0.614 0.152,0.79 0.676,0.36 1.8,-0.686 0.382,0.668 0.41,1.016 -0.212,4.034 -0.504,3.426 -0.058,1.25 0.286,0.8 0.234,1.048 -0.532,1.274 -0.424,0.41 -0.8,-0.142 -0.528,2.812 -0.166,1.658 0.008,1.308 0.204,0.806 0.316,0.89 0.21,-0.69 0.166,-0.95 0.564,-0.616 3.14,1.762 0.844,0.874 1.298,0.8 0.378,0.948 0.248,2.932 1.334,2.658 1.052,1.574 0.656,0.62 0.58,0.156 0.906,-0.606 1.212,0.086 -0.65,2.066 -1.094,3.866 -1.826,3.344 -0.748,0.52 -1.202,-1.36 -1.582,-1.11 -0.81,-0.568 -0.512,-1.006 -2.752,-2.692 -0.824,-1.856 -1.38,-0.288 -1.91,-0.87 -0.284,-0.21 -1.576,-1.172 -1.528,-0.64 -0.432,-0.87 -1.168,-0.648 -1.128,-0.44 -1.656,-1.084 -0.76,0.348 0.182,-1.23 -1.888,-1.756 -2.254,-1.584 -4.654,-2.262 -4.098,-1.098 -4.832,-0.322 -4.234,-1.436 -0.6,0.07 -0.542,0.422 -1.426,2.088 -1.586,0.64 -0.594,0.994 0.936,2.146 1.838,5.5 1.088,-0.554 0.422,2.492 -0.664,1.428 -0.996,1.682 -0.834,0.898 -1.846,0.454 -1.484,-0.104 -0.174,1.562 0.428,1.448 -0.104,0.598 -0.142,0.754 -0.216,0.394 -0.176,0.24 -0.57,0.436 -0.682,0.006 -1.648,-0.748 -1.188,-0.672 0.074,-2.634 0.62,-1.156 0.424,-0.264 0.406,-0.462 -0.844,-1.724 -0.618,-0.728 -0.284,-1.188 -0.014,-0.524 -0.778,0.036 -3.172,1.368 -0.656,1.28 -0.36,-0.868 -4.09,3.844 -1.782,1.344 -1.22,-0.196 -1.624,-0.804 -1.934,-0.078 -1.302,-0.382 -0.668,0.178 -1.4,0.946 -1.444,0.124 -1.5,1.346 -1.278,1.62 -0.348,2.608 -0.804,0.266 -0.878,-1.342 -0.478,-0.32 -0.46,0.29 -0.904,0.132 -0.75,0.11 -0.736,0.48 -0.304,-0.058 -2.238,-0.43 -0.626,0.042 -0.8,-0.162 0.184,-0.67 0.278,-0.478 1.258,-0.364 0.692,-0.54 0.784,0.302 0.568,-0.806 -0.074,-1.55 -0.89,-1.49 0.42,-1.156 0.322,-1.432 0.214,-0.16 0.23,-0.502 -0.286,-0.42 -0.682,-0.208 -0.004,-0.354 0.432,-0.298 2.816,-0.594 0.644,-0.432 -1.712,-0.172 -2.154,0.116 -2.184,1.302 -4.094,2.814 -1.906,1.898 0.51,-0.032 0.646,0.274 0.548,1.324 0.42,0.338 -0.296,0.874 -1.094,0.68 -0.44,0.462 -0.418,0.182 -0.354,-0.17 -0.424,-0.356 0.246,-0.674 0.324,-0.624 -0.878,-1.112 -0.41,-0.142 -0.342,0.04 -2.122,0.956 -1.576,1.128 -1.446,0.594 -1.346,0.204 -0.784,0.49 -1.602,1.504 -1.014,0.65 -1.696,1.658 -4.356,2.912 -1.13,0.248 -0.636,-0.236 -0.484,-0.392 -0.33,0.324 0.376,0.702 0.646,1.418 -0.25,0.738 -1.006,-0.204 -2.106,0.662 -2.268,0.974 0.044,1.012 0.144,0.888 -0.386,1.444 -0.4,1.166 -0.332,3.332 -0.298,0.992 -0.896,0.66 -4.522,1.49 -0.778,0.092 -0.336,0.268 -0.246,-0.268 -0.846,-0.34 -1.2,-0.01 -0.55,-0.136 -0.566,-0.542 -0.746,-1.404 -1.068,-2.83 -2.376,-1.436 -1.12,-0.96 -0.21,-0.91 0.208,-0.94 2.44,-3.11 0.868,-1.016 3.622,-0.9 1.43,-0.082 1.466,-0.374 -0.038,-1.814 -1.424,-2.226 -1.522,-2.606 -1.496,-2.868 -2.092,-1.024 -2.476,-0.486 -5.068,0.558 -0.714,-0.108 -3.234,-2.014 -0.33,-0.03 -0.45,0.128 0.14,0.58 0.258,0.42 4.294,4.3 0.2,1.112 0.124,1.5 -0.072,0.63 0.1,0.622 -0.036,1.134 -1.06,4.83 -1.01,3.398 -0.34,1.6 -0.076,1.09 0.41,0.954 1.23,0.308 1.22,0.976 0.63,1.374 0.142,0.952 0.044,2.042 0.29,1.744 -0.968,2.682 -0.538,1.046 -0.692,2.4 0.27,1.698 -0.072,0.666 -0.158,0.772 -0.492,-0.568 -0.408,-0.676 -0.564,-0.604 -0.6,-0.222 -0.634,0.162 -0.46,0.324 0.048,-0.694 0.578,-1.078 -0.28,-0.56 -0.294,-0.42 -1.784,-1.318 -1.274,-0.076 -1.12,0.134 -1.146,-0.156 -0.85,-0.84 -0.768,-0.454 -0.58,-0.07 -0.712,0.754 -1.7,2.89 -1.712,1.886 -2.244,1.416 -1.694,0.458 -0.464,0.336 -1.002,1.642 -1.04,1.26 -2.87,2.092 -0.2,0.856 -0.18,1.172 0.274,1.322 0.552,1.276 1.382,2.556 0.778,0.866 0.53,1.348 0.39,1.55 -0.208,0.314 -1.146,-0.382 -0.818,0.174 -1.174,1.054 -0.088,0.448 -0.42,1.038 -1.07,0.084 -2.884,-1.876 -2.472,-0.956 -0.404,-0.06 -0.556,-0.474 -0.168,-0.394 -1.032,0.078 -0.63,-0.044 -0.596,-0.32 -2.702,-3.044 -2.174,-1.148 -0.508,-0.022 -0.94,0.314 -0.544,2.464 -0.746,0.684 -0.664,-0.042 -0.036,1.206 0.284,0.742 0.254,0.532 0.816,0.856 1.522,2.562 0.804,1.048 0.594,0.396 0.786,0.056 1.746,-0.302 0.578,0.396 0.618,0.598 0.132,1.46 0.478,1.492 0.048,0.836 -0.578,0.98 -1.866,0.71 -1.084,1.018 -0.39,-0.042 -2.232,-1.182 -1.466,-0.454 -1.958,-0.738 -0.354,-0.404 -0.874,-1.986 -1.932,-1.888 -0.87,-0.556 -1.208,0.408 -0.832,-0.204 -1.396,-1.008 -0.93,-1.56 -0.064,-1.918 0.264,-0.42 0.262,-0.226 -0.67,-0.582 -0.032,-1.484 -0.132,-0.97 -0.744,-2.422 -0.758,-1.468 -0.726,-1.584 0.774,-0.822 0.402,-0.72 0.56,-2.09 0.108,-0.712 0.238,-0.708 0.09,-0.658 -0.038,-0.66 -0.532,-1.2 -1.638,-2.438 -1.612,-1.344 -3.066,-1.334 -0.846,0.076 -0.31,-0.194 0.654,-0.242 0.652,-0.528 0.352,-0.814 -0.776,-0.404 -0.63,-0.182 -1.054,-0.666 -0.194,-0.594 0.232,-0.422 -0.246,-1.076 -1.414,-0.342 -0.372,-0.246 -0.03,-0.362 -0.958,-1.176 -1.25,-1.24 0.208,-1.254 -0.9,-0.92 -0.78,-0.652 -1.226,-0.24 -0.492,-0.456 2.832,0.126 2.978,0.95 -0.252,0.37 -0.212,0.568 0.868,1.624 0.832,0.918 1.862,1.13 0.23,0.002 0.406,-0.288 0.922,0.478 0.752,0.626 1.416,0.05 1.714,0.738 -0.116,0.302 -0.196,0.234 0.486,0.886 0.716,-0.13 1.204,-0.728 3.028,2.568 0.838,0.46 4.828,1.306 2.224,0.122 1.202,0.292 1.746,0.662 1.872,1.326 1.53,0.47 2.79,0.43 1.438,-0.064 3.566,-0.872 4.57,-2.334 2.348,-2.052 3.746,-5.366 0.486,-1.258 0.442,-2.974 0.026,-1.274 -0.544,-0.128 -0.718,-0.704 0,-1.732 -0.41,-0.85 -0.53,-3.958 -1.124,-0.436 -0.616,-0.46 -0.734,-0.232 -0.814,-0.626 -0.976,-1.638 -0.958,-1.1 -0.788,-1.488 -0.484,-0.548 -0.354,-0.17 0.244,0.752 0.188,0.806 -1.428,-0.198 -4.14,-3.824 -0.708,-0.3 -0.274,0.346 -1.272,-0.512 -0.408,-0.906 -3.52,-4.248 -6.244,-4.838 -4.268,-2.958 -3.188,-1.324 -0.318,0.156 -0.322,0.55 -0.932,0.152 -0.818,-0.108 -2.87,-1.186 -0.694,-0.162 -3.058,0.046 -0.322,0.334 -1.074,2.51 -0.574,0.506 -1.08,0.462 0.31,-0.756 0.738,-0.55 0.478,-1.826 0.028,-0.758 0.258,-1 -0.052,-0.796 -0.39,-0.258 -0.724,0.264 -1.554,0.962 -0.208,-0.254 0.446,-0.994 -0.12,-0.392 -0.652,0.148 -1.386,-0.458 -1.454,0.166 -0.264,-1.204 -0.95,-0.68 -0.392,-0.578 0.478,-0.67 3.242,1.102 0.902,0.064 0.446,-0.394 0.102,-0.714 -0.028,-0.834 -0.372,-0.482 -2.112,-0.886 -0.976,-1.012 -2.284,-1.388 -0.086,0.65 0.344,1.282 -0.182,0.414 -0.666,-0.36 -0.51,0.264 -0.688,1.538 -0.668,0.388 -0.528,0.12 -2.264,-1.29 -1.01,-0.23 0.306,2.13 -0.01,0.74 -0.144,0.716 -0.202,0.366 -0.402,0.16 -0.974,-0.064 -1.322,-0.838 -0.854,-0.79 -0.266,-0.034 -0.116,0.096 0.208,0.792 -0.056,0.608 -0.128,0.66 -0.18,0.598 -0.25,0.5 -0.524,0.644 -0.906,0.508 -2.494,0.99 -0.198,0.436 -0.804,2.74 -0.218,0.4 -0.294,0.338 -0.858,0.438 -0.376,0.194 -1.16,0.76 -0.708,0.512 -0.852,0.376 0.22,0.498 1.416,0.104 0.218,0.142 0.158,0.254 0.026,0.408 -0.142,0.658 -1.532,3.602 -0.048,0.754 0.5,2.088 0.702,2.448 2.122,1.082 1.576,0.842 1.012,1.988 1.67,2.602 0.884,0.968 0.05,0.3 -0.262,1.778 -1.07,1.772 -1,1.488 -1.036,1.784 -0.81,1.514 -0.878,1.806 -0.102,0.584 -0.016,0.55 0.152,0.606 1.124,2.186 0.438,1.11 0.522,1.196 0.45,1.3 0.26,1.162 0.45,1.126 0.28,0.574 0.464,0.804 0.56,1.192 0.186,0.942 0.846,3.248 0.086,0.822 -0.042,0.608 -0.372,0.148 -0.822,0.096 -0.892,0.398 -0.044,0.134 0.582,0.756 -0.514,1.29 -0.074,1.838 -0.548,0.96 -0.052,0.222 0.024,0.186 0.098,0.146 1.014,0.256 0.088,0.26 0.004,0.538 -0.09,0.496 -0.51,0.368 -0.546,0.542 -0.122,0.5 0.018,0.444 0.186,0.75 0.362,0.872 0.458,0.546 1.626,0.518 0.21,0.426 0.088,0.584 -0.034,0.57 -0.756,1.136 0.006,0.436 0.31,1.052 0.372,1.002 1.586,1.084 0.546,0.592 0.144,0.47 0.08,0.758 -0.01,0.82 -0.124,0.726 -0.498,0.934 -1.15,1.836 -1.158,0.71 -0.07,0.154 0.358,0.584 2.038,2.332 1.33,1.086 1.792,1.46 1.156,1.15 0.374,0.824 0.5,0.916 0.562,0.746 0.406,0.646 0.154,0.416 -0.014,0.446 -0.542,1.342 -0.308,1.034 -0.542,1.51 -0.556,1.048 -1.408,1.908 -2.078,2.36 -0.482,0.71 -0.972,1.234 -1.666,2.466 -0.43,0.542 -1.364,1.952 -0.622,0.62 -0.49,0.578 -1.35,1.83 -1.452,1.382 -1.424,1.28 -0.428,0.646 -0.532,0.494 -0.634,0.468 -0.266,0.262 -1.434,1.738 -1.99,2.396 2.142,-0.398 1.872,-1.214 0.366,0.284 0.408,0.474 -0.058,0.776 -0.1,0.584 -0.734,-0.552 0.172,0.652 0.678,1.222 0.952,0.496 1.44,1.584 1.692,0.174 1.116,-0.292 0.852,0.074 0.848,0.838 0.586,1.062 0.466,0.266 0.632,0.508 -0.088,0.59 -0.192,0.342 -2.542,-0.916 -2.932,-0.494 -0.382,0.434 -0.37,0.666 -0.178,0.522 -0.192,0.292 -0.452,0.188 -0.67,0.058 -0.806,-0.126 -0.482,-0.35 -0.36,0.394 -0.17,0.892 -0.5,0.462 -0.686,-0.358 -0.456,-0.688 -0.41,0.056 -0.248,0.632 0.182,0.862 0.1,1.032 -0.29,0.77 0.298,0.342 0.376,0.552 0.102,0.316 -0.128,0.186 -0.376,0.158 -0.086,0.17 -0.166,0.286 -0.44,0.052 -0.226,0.212 -0.27,0.93 -0.516,1.536 -0.762,1.164 -0.61,0.636 -0.272,0.488 -0.17,0.584 -0.04,0.586 0.584,3.2 -0.006,0.576 -0.138,0.59 -0.1,0.598 0.082,0.518 0.386,0.884 0.41,1.316 0.166,0.838 0.272,0.306 0.262,0.226 0.054,0.142 -0.008,0.146 -0.136,0.166 -1.182,0.438 -0.154,0.37 -0.128,0.414 -0.516,0.61 -0.158,0.568 -0.098,0.65 -0.012,0.232 0.662,0.042 0.232,0.166 0.156,0.816 0.752,0.642 0.696,0.532 0.178,0.246 0.054,0.472 -0.044,0.55 -0.088,0.286 -0.292,0.328 -0.254,0.83 -0.036,0.788 -0.402,1.358 0.09,0.026 0.844,-0.246 0.24,0.14 0.184,0.3 0.06,0.85 0.276,0.382 0.282,0.596 0.088,0.462 0.538,0.55 0.042,0.356 0.328,1.254 0.126,0.72 0.058,0.556 -0.162,0.706 -0.142,0.476 0.766,0.874 0.18,0.034 0.426,-0.344 0.084,-0.024 0.88,-0.03 0.408,0.304 0.302,0.592 0.282,0.472 0.302,0.128 0.856,-0.596 0.474,-0.198 0.312,0.006 1.098,0.534 0.516,0.292 0.118,0.264 0.01,0.312 -0.14,0.462 -0.11,0.502 0.334,0.592 0.388,0.4 0.83,-0.662 0.306,-0.184 0.334,-0.006 0.448,-0.246 0.324,-0.372 0.31,-0.128 0.592,0.088 1.072,-0.088 1.25,0.584 0.108,0.178 0.624,0.682 0.218,0.338 0.206,0.108 0.334,0.332 0.444,0.208 0.31,-0.064 0.148,0.11 0.138,0.26 0.01,0.444 -0.044,1.264 -0.218,0.364 -0.23,0.296 -0.058,0.23 0.022,0.278 0.354,0.542 0.456,0.842 0.106,0.488 0,0.366 -0.622,1.072 -0.208,0.25 -0.144,0.526 -0.076,0.534 0.044,0.22 1.04,0.848 0.77,0.458 0.172,0.224 0.016,0.138 -0.41,0.908 -0.04,0.244 0.618,0.376 0.34,0.59 0.3,0.96 0.586,0.918 1.262,0.81 0.918,0.528 0.19,0.24 0.066,0.286 -0.07,0.626 -0.236,0.762 -0.162,0.422 0.374,0.176 0.962,-0.046 1.168,0.148 1.402,0.836 0.004,0.374 -0.144,0.34 0.096,0.358 0.154,0.304 1.212,0.93 0.116,0.27 0.022,0.452 -0.034,0.33 -0.336,0.07 -0.374,0.154 -0.61,0.394 -0.242,0.558 -0.986,0.768 -0.61,0.346 -0.486,0.016 -1.154,-0.156 -0.406,-0.378 -0.168,-0.348 -0.444,-0.156 -0.59,-0.014 -0.814,0.06 -0.166,0.104 -0.134,0.428 -0.346,0.728 -0.248,0.412 0.206,0.25 0.324,0.524 0.504,0.666 0.518,0.59 0.166,0.36 -0.006,0.256 -0.248,0.302 0.038,0.608 0.504,0.798 -0.17,0.126 -0.05,0.978 0.004,1.042 0.136,0.252 0.272,0.208 0.228,0.38 0.382,0.866 0.026,0.226 0.108,0.016 0.524,0.26 0.55,0.22 0.38,0.014 0.452,-0.05 0.532,-0.294 0.37,-0.284 0.45,-1.444 0.16,-0.208 0.248,-0.114 0.406,-0.012 0.772,0.27 0.904,0.242 0.524,-0.034 1.396,-0.77 0.778,-0.12 0.924,0.18 0.908,0.01 0.684,-0.112 0.47,0.266 0.58,0.588 0.524,0.872 0.548,1.606 1.598,1.806 0.026,0.352 -0.13,0.226 -0.786,0.218 -0.664,0.118 -0.032,0.308 0.176,0.334 0.304,0.488 0.046,0.628 -0.016,0.576 0.13,0.508 0.254,0.208 0.032,0.254 -0.292,0.312 -0.082,0.192 0.114,0.104 1.442,0.06 0.706,0.302 0.536,0.276 0.27,0.026 0.608,-0.176 0.684,-0.112 0.414,-0.016 0.16,0.204 0.128,0.534 0.24,0.534 0.224,0.152 0.4,-0.026 0.24,0.026 0.128,0.202 -0.144,0.304 0.032,0.33 0.176,0.404 0.208,0.934 0.192,0.278 0.128,0.352 0,0.404 -0.16,0.352 -0.112,0.276 0.112,0.628 0.432,0.702 0.32,0.174 0.256,0.626 0.464,0.2 0.688,-0.526 0.528,-0.276 0.66,0.154 0.61,0.098 0.41,0.358 0.302,0.492 0.352,0.274 0.352,-0.144 0.734,0.144 0.336,0.398 0.336,0.224 0.432,-0.324 0.352,-0.4 1.288,-0.418 0.8,-0.104 0.224,-0.082 0.47,-0.3 0.496,-0.2 0.446,0.054 0.44,0.622 0.456,0.428 0.128,0.674 0.556,0.924 1.382,1.262 0.542,0.384 0.368,-0.068 0.192,-0.1 0.09,-0.132 0.084,-0.618 0.174,-0.228 0.28,-0.006 1.082,0.768 0.566,0.084 0.538,0.014 0.724,0.596 0.794,0.518 0.614,0.054 0.49,-0.204 0.336,-0.124 0.208,0.198 0.192,0.446 0.32,0.346 0.368,0.098 0.53,0.022 0.92,0.668 0.864,0.68 0.54,0.038 0.458,-0.2 0.404,-0.052 0.282,0.172 0.08,0.294 -0.208,0.394 0,0.564 0.384,0.54 0.012,0.53 -0.11,0.478 -0.218,0.44 -0.526,0.604 -0.486,0.562 -0.73,0.234 -0.41,0.246 0.108,0.412 0.268,0.384 0.62,0.31 0.704,0.226 0.082,0.25 -0.108,0.126 -0.452,0.116 -0.624,-0.118 -0.208,0.218 -0.288,0.362 -0.192,0.652 -0.144,0.604 0.678,0.164 0.394,0.246 0.124,0.494 0.14,0.55 0.042,0.494 -0.224,0.24 -0.014,0.246 0.106,0.122 0.292,0.054 0.222,0.11 0.018,0.26 -0.426,0.584 -0.398,1.116 -0.214,0.592 0.016,0.642 -0.24,0.356 -0.45,0.018 -1.5,0.062 -1.306,-0.032 -0.564,-0.092 -0.884,-0.056 -0.438,0.152 -0.58,1.024 -0.44,0.4 -0.726,0.362 -0.798,0.104 -0.458,0.42 -0.162,0.66 -0.012,0.584 -0.074,0.292 -0.172,0.256 -0.062,0.182 0.038,0.2 0.186,0.072 0.222,0.092 0,0.144 -0.086,0.182 -0.248,0.2 -0.112,0.308 0.026,0.328 0.048,0.362 1.518,-0.692 0.518,-0.524 1.038,-0.184 -0.146,0.212 -0.514,0.196 -0.516,0.508 0.65,0.052 1.46,-0.26 0.536,-0.796 0.964,0.028 0.274,0.572 0.274,0.772 -0.024,0.286 -0.104,0.22 -0.808,0.17 -1.828,0.962 -0.956,0.272 -1.078,0.49 0.278,0.66 0.072,0.56 -0.884,-0.12 -0.638,-0.186 -0.396,0.086 -1.076,0.592 -0.564,-0.128 -0.566,-0.018 0.242,0.846 0.586,1.02 0.358,0.192 0.562,-0.092 1.334,1.234 0.994,1.222 -0.516,0.084 -0.498,-0.124 -0.72,0.004 -0.286,0.742 -0.298,0.548 -0.054,-0.282 0.022,-0.38 -0.334,-0.246 -0.456,0.372 -0.518,1.626 -0.962,1.166 -0.32,0.714 -0.014,0.52 0.138,0.106 0.21,-0.016 0.006,0.468 -0.144,0.418 -2.15,0.528 -0.284,0.308 -0.618,-0.244 -0.706,-0.642 -0.628,-0.346 -0.404,0.138 -0.412,0.302 0.232,0.188 0.278,0.066 0.73,0.4 -0.382,0.302 -1.424,0.526 0.048,0.272 0.13,0.198 1.648,0.45 1.46,0.772 0.446,0.53 0.382,0.92 0.332,0.418 0.47,0.316 0.434,0.192 0.744,0.076 0.822,-0.294 1.852,2.192 0.732,0.354 1.818,0.44 0.458,0.234 3.436,3.044 1.05,1.312 2.004,1.97 0.588,0.408 0.254,-0.5 0.34,-0.526 0.368,-0.128 1.078,0.208 0.992,0.238 0.724,-0.168 0.862,0.416 0.788,0.476 0.792,0.336 1.544,0.316 0.576,0.438 0.672,0.438 2.634,0.222 0.212,-0.068 0.194,-0.064 0.884,-0.16 0.782,0.03 0.826,0.53 0.528,-0.03 0.564,-0.08 0.726,0.284 0.57,0.316 0.048,0.32 0.5,0.464 1.452,0.706 1.178,0.398 0.368,0.28 0.894,0.462 0.09,0.146 -0.018,0.188 -0.254,0.346 -0.066,0.308 0.12,0.176 0.372,0.168 0.738,0.038 0.266,-0.22 0.55,-0.158 0.544,-0.284 0.728,-0.378 0.99,-0.344 0.396,0 0.38,0.104 0.266,0.192 0.446,0.706 0.446,-0.99 0.116,-0.074 0.406,0.2 0.72,0.276 0.498,0.146 0.268,0.204 0.76,0.9 1.23,-0.046 0.52,0.138 0.28,0.148 0.126,0.174 -0.22,0.892 -0.304,0.926 0.024,0.224 0.494,0.348 0.67,0.37 0.362,0.296 0.246,0.266 0.53,0.202 0.626,0.126 0.296,0.016 0.31,0.222 0.806,0.418 0.102,0.104 0.604,0.154 0.082,0.436 0.108,0.092 0.25,-0.052 0.416,-0.182 0.332,0.14 0.428,0.518 0.59,0.546 0.32,0.368 0.126,0.252 0.302,0.246 0.442,0.288 0.352,0.452 0.314,1.048 0.318,0.242 1.138,0.398 0.4,0.082 1.118,0.14 0.394,-0.1 0.576,-0.902 0.518,-0.93 0.484,-0.194 0.874,-0.45 0.524,-0.426 0.22,-0.46 0.494,-0.868 0.304,-0.49 -0.54,-0.456 -0.284,-0.142 -0.24,-0.222 -0.454,-0.954 -0.416,-0.76 -0.834,-1.306 -1.448,-1.97 -0.294,-0.238 -0.236,-0.274 -0.106,-0.992 -0.416,-0.706 -0.594,-0.486 -0.224,-0.25 -0.144,-0.27 0.28,-1.408 -0.006,-0.398 -0.124,-0.854 0.108,-0.986 0.332,-1.354 0.336,-0.936 0.106,-0.61 -0.47,0.388 -0.56,2.164 -0.188,-1.738 -0.38,-1.656 -0.306,-0.856 -0.432,-0.696 -0.602,-0.542 -0.556,-0.638 -0.606,-0.342 -0.914,-0.262 -0.18,-0.244 -0.078,-0.404 0.05,-0.45 0.22,-0.752 0.482,-0.486 0.654,-0.506 0.146,-0.338 0.108,-0.398 0.204,0.302 0.25,0.164 0.174,-0.702 0.262,-0.502 0.336,-0.432 0.418,-0.992 0.31,-0.542 0.224,-0.612 0.124,-1.004 0.232,-0.096 0.192,-0.176 0.144,-0.286 0.084,-0.314 -0.03,-0.572 -0.342,-0.624 0.09,-0.064 0.164,0.108 0.37,0.32 0.332,0.402 0.092,-0.582 0.288,-0.236 0.352,0.162 0.372,0.024 1.25,-0.464 0.596,-0.128 0.552,-0.328 1.288,-1.262 0.282,-0.058 0.292,0.058 0.27,0.234 0.294,0.136 0.224,-0.064 0.112,-0.192 -0.258,-0.448 -0.09,-0.424 -0.02,-0.462 0.332,-0.118 0.378,0.002 1.512,-0.716 0.176,-0.316 0.082,-0.432 0.676,-0.08 -0.076,-0.37 -0.27,-0.094 -1.264,-0.756 -1.038,-0.536 -0.922,-0.476 -0.134,-0.086 -0.252,-0.232 -0.18,-0.362 -0.038,-0.396 0.09,-0.292 0.224,-0.186 0.264,-0.072 0.234,0.06 0.26,0.178 0.464,0.216 0.602,0.04 0.376,-0.166 0.05,-0.398 -0.716,-1.476 -0.66,-1.194 -0.638,-1.332 -0.27,-0.484 -0.782,-1.12 -0.772,-1.106 -0.61,-0.988 -0.32,-0.304 -0.984,-0.126 -1.876,-0.244 -0.664,-0.116 -0.532,0.294 -0.534,0.23 -0.506,-0.428 -0.4,-0.704 -0.21,-0.592 0.102,-0.606 0.042,-0.896 -0.306,-0.884 -0.338,-0.438 -0.848,-0.33 -1.08,-0.746 -0.29,-1.366 0.524,-1.964 0.844,-1.396 0.614,-0.586 0.292,-0.512 0.096,-0.444 -0.074,-0.424 -0.364,-0.452 -0.564,-0.44 -0.286,-0.542 0.118,-1.164 0.374,-1.682 0.576,-1.35 0.772,-0.75 0.666,-0.538 0.262,-0.502 0.014,-0.714 -0.016,-0.674 0.178,-0.49 0.28,-0.39 0.296,-0.35 0.416,-0.392 0.54,-0.096 0.594,0.312 0.808,0.838 1.184,1.65 0.676,1.078 0.244,0.332 0.618,0.64 0.558,0.258 0.93,-0.4 0.892,-0.466 0.288,-0.296 0.184,-0.442 -0.142,-0.756 -0.186,-0.494 -0.198,-0.63 -0.274,-1.098 -0.194,-1.728 -0.23,-0.55 0.168,-0.064 0.448,0.114 0.414,0.05 0.592,-0.382 0.812,-0.72 1.486,-1.114 0.314,-0.736 0.254,-0.82 0.412,-0.504 0.946,-0.166 0.876,-0.264 0.618,-0.584 0.968,-0.514 0.796,-0.312 0.35,-0.288 0.25,-0.432 0.912,-1.22 0.716,-0.752 0.63,-0.776 0.21,-0.488 0.498,0.09 0.76,0.338 0.816,0.308 0.598,0.478 0.118,0.488 0.058,0.384 0.242,0.198 0.29,0.038 0.436,-0.096 0.762,-0.018 0.934,-0.632 1.3,-1.068 1.19,-0.332 0.626,0.254 0.518,0.786 0.41,0.738 0.422,0.274 0.262,0.008 0.096,0.012 0.524,-0.168 0.04,0.002 0.478,0.03 0.46,0.25 0.762,0.028 1.062,-0.19 0.112,-0.078 0.51,0.102 0.62,0.34 0.482,0.404 0.864,1.324 0.496,0.34 1.012,0.47 0.474,0.41 0.552,0.664 0.288,0.402 0.6,0.726 0.694,1.186 0.124,0.942 0.158,0.794 0.258,0.376 0.212,0.046 0.228,-0.13 0.224,-0.362 0.078,-0.604 -0.068,-1.07 -0.178,-0.876 -0.228,-0.278 -0.11,-0.308 0.15,-0.392 0.386,-0.19 0.48,0.12 0.79,0.504 0.824,0.634 1.014,1.108 0.93,0.702 1.018,0.56 0.808,0.166 0.626,-0.168 0.738,-0.456 0.676,-0.528 0.308,-0.554 0.22,-0.606 1.02,-0.81 0.932,-0.742 0.424,0.134 0.298,0.21 0.956,-0.452 0.332,-0.124 0.91,-0.176 0.94,0.26 0.75,0.796 0.726,0.512 0.65,-0.06 0.538,-0.262 0.356,-0.496 0.27,-0.586 0.36,-0.376 0.054,-0.024 1.158,0.204 0.726,-0.03 0.078,-0.084 0.958,0.16 1.058,0.826 0.656,0.914 0.84,1.162 0.39,0.378 0.568,0.162 0.446,0.07 0.598,0.18 1.58,0.242 0.24,0.142 0.162,0.19 -0.146,0.632 0.14,0.16 1.282,-0.45 0.344,-0.336 0.422,-0.956 0.378,-0.964 0.282,-0.358 0.298,-0.094 0.3,0.144 0.42,0.57 0.568,0.58 0.768,0.22 0.468,0.088 0.726,0.048 1.708,-0.282 1.598,-0.702 0.912,-0.764 0.424,-1.148 0.266,-1.308 0.408,-0.828 -0.17,-0.848 -0.804,-0.808 -0.272,-0.244 -1.956,-0.454 -0.12,-0.328 -0.112,-0.076 -1.928,-0.72 -0.928,-0.308 -0.262,-0.476 -0.172,-0.624 -0.602,-0.558 -1.196,-0.508 -0.208,-0.388 0.198,-0.392 0.636,-0.294 0.306,-0.142 1.078,-0.92 0.414,-0.19 0.958,-0.042 0.888,-0.754 0.612,-0.432 0.32,-0.514 -0.084,-0.532 -0.888,-1.61 -0.264,-0.978 0.158,-0.638 0.51,-0.69 0.29,-0.378 0.348,-0.68 0.228,-0.364 0.896,-0.154 1.086,-0.064 0.746,0.162 1.042,0.084 0.95,0.126 0.48,0.112 0.354,-0.208 0.256,-0.366 -0.008,-0.484 -0.374,-0.47 -1.394,-0.618 -0.598,-0.51 -0.468,0.056 -0.784,-0.16 -0.708,-0.334 -0.626,-0.112 -0.204,-0.464 0.128,-0.652 0.242,-0.374 0.462,-0.186 0.502,0.094 0.546,-0.272 0.158,-0.16 0.046,-0.206 -0.088,-0.294 -0.254,-0.242 -0.36,-0.064 -0.414,0.206 -0.496,0.134 -0.838,-0.302 -0.668,-0.364 0.034,-0.336 0.494,-0.502 0.222,-0.408 0,-0.564 0,-0.66 0.172,-0.774 0.49,-0.53 0.576,-0.284 1.484,0.518 1.856,0.462 0.318,-0.076 0.094,-0.244 0.212,-0.216 2.576,-0.1 0.5,-0.298 0.25,-0.238 2.476,-0.342 0.294,-0.326 0.364,-0.304 0.57,0.006 0.678,-0.122 0.946,-0.372 0.67,-0.204 0.112,-0.016 0.708,0.082 0.878,-0.294 0.19,-0.122 0.142,-0.222 0.766,-0.428 1.47,-0.352 0.358,0.21 0.702,0.096 0.894,-0.158 0.66,-0.27 0.384,0.268 0.522,0.276 0.39,-0.234 0.194,-0.738 0.252,-0.722 0.442,-0.342 0.35,-0.126 0.316,-0.278 0.238,-0.29 1.294,0.044 1.158,-0.722 0.228,0.328 1.504,-0.076 1.868,-0.466 1.118,-0.218 1.93,-0.488 0.892,-0.396 1.278,-0.25 1.172,-0.174 0.766,-0.694 0.618,-0.098 0.752,-0.058 0.46,-0.166 0.3,-0.256 0.194,-0.482 -0.106,-0.616 -0.108,-0.448 0.538,-0.25 0.768,-0.078 0.484,-0.102 1.056,-1.02 0.728,-0.49 0.754,-0.308 1.514,0.168 1.382,0.154 1.386,0.488 0.728,0.608 0.626,0.458 0.592,0.218 0.536,0.14 0.622,-0.208 0.44,-0.28 0.256,-0.402 0.388,-0.288 1.414,-0.224 0.292,0.434 0.672,1.306 0.458,1.734 0.754,2.29 0.332,1.122 -0.146,0.586 0.002,0.802 -0.042,0.88 -0.556,0.994 0.226,0.462 1.366,0.514 1.912,-0.188 1.18,-0.416 0.658,0.152 0.344,-0.25 0.222,-0.736 0.454,-0.166 0.466,0.514 0.338,0.868 0.324,0.558 -0.024,0.664 0.12,0.85 0.238,0.214 0.468,-0.322 0.312,-0.192 0.074,-0.258 -0.132,-0.318 -0.062,-0.324 0.104,-0.298 0.222,-0.122 0.666,0.094 0.97,0.164 1.152,1.208 0.622,0.218 0.262,0.022 0.584,-0.07 0.702,-0.346 0.472,-0.436 0.158,-0.214 0.272,0.038 0.258,0.202 0.018,0.44 -0.206,0.636 -0.7,0.582 -0.87,0.54 -0.528,0.988 -0.112,1.028 0.23,0.522 0.198,0.348 0.056,0.488 0.196,0.064 0.356,-0.2 0.97,-1.012 0.494,-0.25 0.716,-0.16 1.178,0.08 0.792,0.33 0.378,0.458 0.416,0.378 0.288,-0.158 0.148,-0.436 0.008,-0.5 0.122,-0.412 1.288,-1.014 0.858,-0.676 0.294,-0.08 0.574,0.14 0.356,-0.072 0.942,-0.636 0.88,-0.726 0.086,-0.492 0.034,-0.446 0.218,-0.202 1.232,-0.156 0.204,-0.084 1.052,-0.508 1.458,-0.868 0.708,-0.512 1.29,-0.228 0.24,-0.148 0.428,-0.346 0.808,-0.48 0.438,-0.052 -0.272,1.16 -0.482,1.336 -0.272,0.356 -1.308,-0.06 0.002,0.364 0.206,0.556 0.148,0.312 0.158,0.28 0.352,0.484 1.376,1.138 1.75,1.444 1.89,1.616 1.32,1.124 0.534,0.58 0.34,0.452 0.972,1.628 0.924,1.538 1.558,2.696 1.378,2.588 1.52,2.83 0.878,1.628 1.796,3.386 0.48,1.034 0.91,1.952 0.802,1.822 0.71,1.604 0.448,0.144 0.036,-0.434 0.08,-0.29 0.228,-0.164 0.524,-0.474 0.282,-0.114 0.42,0.048 0.44,-0.242 0.162,-0.456 -0.106,-0.846 -0.068,-0.39 0.15,-0.42 0.24,-0.164 0.334,-0.132 0.308,-0.068 0.252,-0.474 0.476,-0.144 0.438,0.088 0.36,0.018 0.318,0.346 0.178,0.474 0.344,0.038 0.562,-0.048 0.078,0.396 -0.16,0.662 -0.198,0.512 -0.034,0.41 0.298,0.2 1.092,-0.178 0.386,0.088 0.124,0.416 0.156,0.344 0.076,0.42 -0.114,0.464 0.196,0.278 0.942,0.006 0.664,-0.224 1.02,-0.018 0.922,0.492 0.638,-0.076 0.642,-0.2 0.942,0.126 0.662,-0.388 0.456,-0.486 0.142,-0.382 0.238,-0.212 0.888,0.002 0.56,-0.038 0.414,-0.562 0.378,-0.254 0.636,-0.048 0.468,0 1.258,0.522 0.766,0.432 0.796,0.614 0.478,0.384 0.322,0.866 0.542,0.636 0.432,0.742 0.104,0.73 0.356,1.31 0.368,0.43 0.436,0 0.55,0.178 0.608,0.142 1.3,0.97 0.478,0.028 0.368,0.232 0.056,0.446 -0.136,0.516 0.142,0.494 0.426,0.63 0.336,0.614 0.414,0.744 0.126,0.424 0.332,0.14 0.448,-0.21 0.712,0.16 2.142,0.422 0.298,0.052 0.228,0.44 0.31,-0.036 0.356,-0.018 0.494,0.052 0.344,-0.406 0.282,-0.356 0.706,-0.44 0.586,-0.598 0.492,-0.532 0.368,-0.07 0.298,0.248 0.012,0.46 -0.368,0.336 -0.288,0.406 0.068,0.406 0.494,0.036 0.548,0.61 0.792,1.426 0.268,0.298 0.392,0.28 0.434,0.126 0.48,0.204 0.356,0.586 0.144,0.528 0.528,0.08 0.334,-0.126 0.222,-0.266 0.342,-0.084 0.514,-0.128 0.53,-0.16 0.292,0.03 0.022,0.002 0.654,-0.022 0.298,-0.192 0.226,-0.282 0.49,-0.314 0.104,-0.362 0.008,-0.712 0.32,-0.604 0.814,-0.18 0.312,-0.088 0.332,0.088 0.516,-0.084 0.498,-0.032 0.278,0.186 0.368,0.158 0.47,-0.018 0.16,-0.286 0.02,-0.398 0.204,-0.104 0.254,0.276 0.142,0.206 0.21,0.094 0.568,-0.246 0.396,-0.266 0.128,-0.546 0.23,-0.272 0.308,0.138 0.542,-0.002 0.446,-0.424 0.586,-0.338 0.42,-0.154 0.086,-0.286 -0.198,-0.632 0.054,-0.692 0.562,-0.392 0.752,-0.046 0.556,-0.268 0.154,-0.74 0.276,-0.212 0.28,-0.084 0.678,-0.118 0.488,-0.3 0.3,-0.138 0.854,-0.406 0.776,-0.08 0.332,-0.324 0.26,-0.408 0.436,-0.156 0.444,-0.354 0.586,-0.45 0.23,-0.064 0.96,-0.262 0.376,-0.096 0.226,-0.058 0.416,0.018 0.176,-0.476 0.422,-0.352 0.424,-0.118 0.208,-0.35 0.406,-0.446 0.548,-0.248 0.856,-0.036 0.828,0.05 0.496,-0.076 0.408,-0.66 0.078,-0.328 0.094,-0.334 0.332,-0.128 0.4,0.542 0.338,0.336 0.52,0.35 0.268,0.328 0.306,0.046 0.322,-0.246 0.228,-0.598 0.432,-0.092 0.476,0.096 0.126,0.294 0.042,0.286 0.218,0.512 0.524,0.446 0.67,-0.022 0.27,-0.08 0.652,0.062 0.642,0.096 0.7,0.106 0.204,0.016 0.75,0.054 1.092,0.078 0.48,-0.036 0.984,0.144 0.202,0.396 0.182,0.936 0.154,0.89 0.044,0.714 0.256,0.37 0.326,0.122 0.216,0.288 0.378,0.392 0.282,0.56 0.342,-0.038 0.238,-0.132 0.524,-0.042 0.668,0.038 0.464,0.31 0.176,0.406 0.376,0.228 0.306,-0.074 0.916,-0.002 0.316,0.026 0.314,0.222 0.456,0.038 0.25,-0.284 0.79,-0.192 0.458,-0.406 0.352,-0.004 0.266,0.196 0.206,0.266 0.3,-0.118 0.164,-0.218 0.264,0 0.258,0.142 0.662,0.248 0.48,0.46 0.372,0.044 0.478,-0.134 0.22,-0.062 0.21,0.228 0.308,0.124 0.234,-0.168 0.402,-0.12 1.538,0.25 0.356,0.458 0.274,0.216 0.22,0.376 0.4,0.268 0.85,-0.092 0.328,-0.274 0.688,-0.608 0.274,-0.594 0.346,-0.192 0.39,-0.096 0.366,0 0.382,-0.02 0.464,-0.436 0.376,-0.152 0.558,-0.554 0.104,-0.25 0.272,-0.646 0.168,-0.412 0.282,-0.656 0.152,-1.058 0.086,-0.562 -0.074,-0.408 -0.33,-0.21 -0.424,-0.1 -0.372,-0.312 -0.276,-0.36 -0.162,-0.506 -0.218,-0.594 0.012,-0.43 -0.062,-0.332 -0.186,-0.284 -0.358,-0.5 -0.174,-0.372 0.058,-0.59 0.422,-1.012 0.04,-0.47 0.052,-0.292 -0.024,-0.266 0.132,-0.608 0.238,-0.256 0.272,-0.654 0.368,-0.302 0.458,-0.02 0.198,-0.178 0.098,-0.656 0.22,-0.506 0.148,-0.36 0.28,-0.39 1.616,-0.756 0.67,-0.942 0.238,-0.476 0.26,-1.024 0.25,-0.43 0.364,0.142 0.428,0.604 0.32,0.006 0.476,0.328 1.296,0.684 0.704,0.214 0.452,0.066 0.598,0.19 0.384,0.4 0.75,0.652 0.634,0.166 1.1,0.066 1.338,0.034 0.378,0.114 0.978,0.468 1.084,0.516 1.02,0.462 0.774,0.358 0.458,0.346 0.43,0.198 0.466,-0.168 0.598,0.038 1.404,0.416 0.888,0.348 0.742,0.258 0.248,0.356 0.024,0.474 -0.1,0.4 0.054,0.968 0.238,0.506 0.088,0.68 0.09,0.646 -0.062,0.638 0.114,0.338 0.232,0.2 0.224,0.444 -0.074,0.468 -0.1,0.272 0.016,0.438 0.27,0.36 0.396,0.07 0.35,0.092 0.432,0.566 0.77,0.652 0.46,0.182 0.53,0.292 1.01,0.286 0.686,0.086 0.404,0.232 0.396,0.56 0.656,0.116 0.42,0.194 0.768,0.23 0.508,-0.132 0.446,-0.194 0.298,0.038 0.576,0.126 0.674,0.026 0.566,-0.132 0.452,-0.394 0.528,-0.532 0.63,-0.27 0.73,-0.096 0.5,-0.216 1.636,-0.36 0.66,-0.062 0.512,-0.348 0.454,-0.272 0.656,-0.118 0.886,0.286 0.848,0.238 1.026,0.078 0.682,0.328 0.482,0.31 0.76,0.246 0.844,-0.114 1.158,-0.098 0.766,0.142 0.8,0.564 0.492,0.452 0.554,0.962 0.578,0.466 0.506,0.38 0.638,0.024 1.594,0.03 0.876,0.202 0.728,0.106 0.174,0.202 -0.072,0.658 0.022,0.938 -0.01,0.43 0.16,0.324 0.248,0.058 0.134,0.458 0.362,0.27 0.646,0.326 1.088,1.106 0.648,0.472 0.512,0.16 0.67,-0.11 1.048,0.002 1.778,0.004 1.218,0.332 0.422,0.226 1.244,0.262 1.37,0.288 1.154,0.302 0.682,-0.39 0.598,-0.036 0.57,0.282 0.57,0.424 0.442,-0.046 0.662,-0.198 2.114,-1.184 0.742,-0.444 0.52,0.114 0.464,-0.158 0.354,-0.134 0.902,-0.184 0.548,-0.05 0.566,-0.106 0.816,-0.072 1.658,-0.778 0.672,-0.152 1.136,0.216 0.612,-0.14 0.61,-0.394 0.79,-0.406 0.206,-0.66 0.404,-0.908 0.872,-0.668 0.708,-0.584 0.722,-0.57 0.886,-0.474 0.836,-0.346 1.064,-0.906 0.848,-0.458 0.422,-0.15 0.502,0.166 0.94,0.122 0.68,-0.038 0.382,0.106 0.766,0.442 0.696,0.388 0.532,0.692 0.99,0.962 0.508,0.322 0.362,0.132 0.89,0.09 0.728,0.046 0.436,-0.22 0.734,-0.402 1.17,-0.51 0.46,0.014 0.754,0.272 1.124,0.502 0.452,0.376 0.292,0.462 1.154,0.746 0.744,0.388 1.258,0.588 1.298,0.132 1.242,0.636 0.64,0.192 0.342,0 1.758,-1.548 1.486,-1.314 1.708,-1.028 1.256,-0.14 0.944,-0.3 0.628,-0.462 0.374,-0.772 0.114,-1.084 -0.252,-0.658 -0.616,-0.228 -0.158,-0.23 0.296,-0.234 0.22,-0.454 0.138,-0.676 0.356,-0.644 0.57,-0.608 0.316,-0.676 0.058,-0.744 0.344,-0.744 0.626,-0.742 0.344,-0.692 0.058,-0.64 0.318,-0.784 0.864,-1.39 0.56,-1.606 0.956,-1.104 1.536,-1.136 0.958,-1.13 0.382,-1.124 -0.03,-0.996 -0.444,-0.864 -0.086,-0.88 0.276,-0.898 -0.242,-0.672 -0.758,-0.446 -0.904,-0.11 -1.05,0.226 -0.59,-0.282 -0.13,-0.788 0.282,-0.638 0.694,-0.488 1.14,-1.19 1.588,-1.9 1.58,-1.054 2.356,-0.304 1.9,-0.626 1.936,-0.636 1.398,-0.316 0.238,0.212 0.762,0.052 1.286,-0.108 1.194,-0.274 1.104,-0.442 0.874,-0.104 0.642,0.234 0.368,0.012 0.254,0.028 0.14,-0.002 0.27,-0.188 0.746,0.334 1.426,0.992 0.894,0.44 0.37,-0.108 0.4,0.274 0.438,0.656 0.542,0.386 0.976,0.178 0.968,0.716 0.39,0.04 0.136,-0.402 0.362,-0.23 0.584,-0.06 0.846,0.354 1.106,0.766 0.694,0.336 0.282,-0.092 0.296,0.142 0.238,0.358 0.022,0.442 -0.082,0.236 0.266,0.372 0.306,0 0.5,0.178 0.392,0.656 0.352,0.304 0.246,0.262 0.044,0.218 0.022,0.22 -0.072,0.17 -0.134,0.282 -0.042,0.302 0.17,0.34 0.622,0.246 0.21,0.254 0.048,0.324 0.194,0.358 0.424,0.414 0.16,0.346 -0.098,0.278 0.126,0.232 0.208,0.182 0.044,0.658 0.018,0.378 0.342,0.424 0.07,0.868 0.238,0.958 0.802,1.31 0.266,0.708 -0.068,0.84 0.116,0.394 0.366,0.19 0.174,0.354 -0.02,0.518 0.142,0.322 0.116,0.342 -0.078,0.532 0.116,0.478 0.188,0.28 0.132,0.516 0.074,0.644 0.538,1.016 0.998,1.388 0.612,1.076 0.222,0.764 0.002,0.628 -0.218,0.492 -0.012,0.358 0.196,0.224 0.058,0.302 -0.078,0.382 0.324,0.452 1.096,0.784 -0.438,1.2 -0.116,0.842 0.058,0.884 0.272,0.622 0.482,0.36 0.3,0.376 0.118,0.392 0.58,0.426 1.04,0.462 1.334,0.082 1.626,-0.302 0.994,-0.05 0.366,0.2 0.126,0.304 -0.118,0.406 0.276,0.266 0.668,0.128 0.458,0.254 0.252,0.384 0.308,0.108 0.366,-0.166 0.356,0.024 0.346,0.212 0.224,-0.074 0.196,-0.232 0.314,0 0.322,0.004 0.2,0.562 0.324,0.316 0.448,0.07 0.682,0.682 1.372,1.938 0.892,0.686 0.894,0.214 1.112,0.044 0.36,0.748 -0.292,0.79 -0.074,0.658 0.252,0.236 0.348,0.772 0.492,0.448 0.094,0.354 0.228,0.396 -0.096,0.73 -0.422,1.066 0.116,0.908 0.652,0.75 0.376,0.722 0.098,0.692 0.162,0.42 0.23,0.148 0.668,-0.052 1.11,-0.25 0.812,0.042 0.52,0.338 1.282,0.012 2.046,-0.312 1.292,-0.096 0.54,0.12 0.48,-0.446 0.422,-1.014 0.394,-0.476 0.37,0.06 0.584,-0.326 0.802,-0.714 0.696,-0.346 0.882,0.036 0.94,0.036 0.588,-0.3 0.552,-0.626 0.958,-0.554 2.042,-0.726 0.49,-0.114 0.234,0.04 0.68,0.114 0.604,0.284 0.57,0.57 0.088,0.366 -0.064,0.48 -0.126,0.278 -0.234,0.312 -0.22,0.506 0.142,0.394 0.33,0.842 0.272,0.608 0.3,0.716 -0.134,0.256 -0.182,0.496 -0.558,0.838 -0.304,0.32 -0.328,0.312 -0.566,0.076 -0.242,0.072 -0.274,0.132 -0.172,0.296 -0.196,0.208 -0.324,0.416 -0.026,0.358 0.146,0.532 0.072,0.544 -0.366,0.486 -0.284,0.746 -0.086,0.224 -0.14,0.564 -0.042,0.196 -0.09,1.184 -0.366,0.806 -0.51,0.936 0.114,0.558 0.09,0.516 -0.126,0.25 -0.032,0.218 -0.074,0.496 -0.16,0.19 -0.464,0.31 -0.278,0.374 0.058,0.566 -0.142,0.49 -0.212,0.432 -0.222,0.282 -0.32,0.18 -0.212,0.152 -0.16,0.548 -0.048,0.424 -0.15,0.422 0.092,0.43 -0.162,0.372 -0.456,0.26 -0.258,0.154 -0.238,0.062 -0.456,0.404 -0.408,1.382 -0.092,0.802 0.094,0.712 -0.572,0.446 -0.424,0.354 -0.266,-0.128 -0.282,-0.12 -0.648,-0.154 -0.324,-0.104 -0.652,-0.232 -1.044,-0.294 -1.02,-0.342 -0.64,-0.18 -0.504,-0.144 -0.382,-0.236 -0.322,-0.422 -0.32,0.17 -0.296,0.5 -0.494,0.296 -0.224,0.546 -0.198,0.418 -0.512,0.558 -0.228,0.23 -1.002,0.378 -0.226,0.126 -0.818,0.08 -0.278,0.166 -0.288,0.352 -0.078,0.35 0.204,0.368 0.318,0.736 0.148,0.502 0.216,0.994 0.726,3.106 -0.234,0.534 -0.218,2.314 0.052,0.416 -0.022,0.648 0.014,0.474 0.15,0.118 0.196,0.166 0.1,0.276 -0.026,0.424 -0.1,0.31 -0.154,0.614 -0.204,0.886 -0.226,0.34 -0.148,0.27 -0.126,0.186 -0.016,0.626 -0.084,0.412 -0.354,0.146 -0.352,0.24 -0.418,-0.088 -0.368,0.048 -0.454,0.16 -0.814,0.186 -0.472,0.248 -0.226,0.18 -0.156,0.216 -0.028,0.208 0.108,0.11 0.458,0.084 0.314,0.388 0.044,0.424 -0.324,0.242 0.152,0.46 0.36,0.448 0.188,0.326 0.038,0.338 0.164,0.19 0.24,-0.174 0.584,-1.494 -0.7,-1.014 0.262,-0.128 1.064,0.298 0.444,-0.084 0.75,0.146 0.488,-0.542 0.264,-0.568 0.566,-0.382 0.692,-1.33 1.154,-1.58 0.408,-0.404 0.808,-0.358 0.208,0.044 0.208,0.124 -0.644,0.84 -0.178,0.58 0.454,-0.002 0.458,-0.18 1.148,-0.966 0.428,-0.526 0.14,0.576 -0.172,2.72 0.996,-0.202 0.534,0.292 0.744,-0.032 0.868,0.626 0.34,-0.088 0.408,-0.022 0.352,0.65 0.564,0.198 0.952,-0.51 1.446,-0.49 0.688,-0.014 1.69,-0.896 0.82,-0.724 3.004,-1.904 1.264,-1.046 1.204,-0.764 0.724,-1.228 1.252,-1.166 0.032,-0.494 0.248,-0.564 1.918,-3.136 0.63,-0.52 0.872,-0.386 0.374,-0.572 0.238,-0.824 1.174,-1.224 0.806,-1.232 0.748,-0.806 0.372,-0.722 1.928,-1.768 1.562,-1.968 1.46,-1.43 0.468,-0.884 1.892,-2.6 0.584,-1.72 0.71,-0.654 0.308,-1.644 0.61,-1.184 0.164,-0.708 0.32,-0.666 2.326,-2.686 0.932,-2.084 1.154,-2.102 0.828,-0.734 0.876,-0.958 0.474,-0.76 1.334,-1.204 0.644,-0.834 0.322,-0.852 0.3,-2.11 0.866,-1.628 -0.252,-0.262 -0.138,-0.504 0.094,-0.564 0.128,-0.336 0.09,-0.528 0.194,-0.59 0.18,-0.358 0.484,-2.28 -0.034,-1.432 -0.264,-0.554 -0.01,-0.746 0.684,-1.06 0.162,-0.176 0.062,-0.25 -0.34,-0.212 -0.16,-0.21 -0.332,-3.642 0.25,-2.246 0.702,-1.656 0.14,-0.574 0.096,-1.614 0.846,-1.63 0.53,-1.85 1.104,-0.974 0.724,-1.204 0.61,-0.544 0.104,-1.242 0.56,-1.106 -0.428,-0.51 -0.446,-0.336 -0.898,-0.892 -0.208,-0.618 0.63,-1.052 0.118,-0.946 -0.056,-1.734 -0.948,-0.534 -1.192,-1.322 -0.196,-0.448 0.266,-0.034 1.65,0.71 0.824,-0.764 0.416,-0.81 -0.16,-1.018 -0.876,-0.392 -1.138,-1.124 -0.05,-0.38 -1.788,-0.958 -1.91,-2.044 -0.592,-1.792 -0.354,-0.482 -1.798,-1.47 -0.352,-0.49 -0.494,-0.2 -2.178,0.806 -1.206,-0.238 -2.296,-0.98 -0.216,0.208 0.33,0.726 -0.062,0.718 0.096,0.992 -0.126,1.656 -0.218,1.186 -0.84,1.65 -0.338,0.312 -0.732,0.132 -0.396,-0.01 0.238,-0.644 0.644,-0.772 0.91,-1.37 -0.004,-1.22 -0.226,-0.12 -0.194,0.002 -0.642,0.478 -0.708,1.734 -1.7,1.162 -1.192,0.408 -2.3,0.202 -0.418,-0.068 -0.182,-0.312 0.518,-0.496 1.142,-0.712 0.716,-1.504 0.792,-0.356 0.274,-0.414 -1.192,-0.226 -0.82,-0.544 -0.77,-0.696 0.36,-0.22 0.27,-0.066 0.348,-0.248 0.858,-1.216 -0.792,-0.076 -0.828,0.084 -1.324,0.96 -0.256,0.512 0.428,0.684 0.48,0.302 -0.576,1.936 -0.766,-0.25 -0.744,0.084 -0.468,0.542 -0.47,-0.208 -0.202,-1.208 0.26,-1.232 0.23,-2.802 0.282,-0.954 0.018,-1.052 -0.148,-0.576 -0.462,-0.032 -0.754,0.104 -1.922,-0.004 -2.17,0.292 -2.322,-1.05 -0.63,-0.144 -0.378,-0.234 -0.26,-1.062 0.13,-0.608 0.154,-0.39 1.562,-1.666 1.18,-0.458 2.38,-1.882 0.988,-1.558 0.614,-0.66 1.872,-1.166 1.226,-1.006 0.996,-0.968 1.092,-0.824 1.058,-1.378 0.666,-0.274 2.146,-2.964 0.376,-0.666 0.22,-0.912 0.21,-0.412 2.496,-3.442 1.704,-1.262 1.21,-1.792 1.472,-0.708 0.354,-0.296 0.63,-1.014 1.034,-0.61 0.326,-0.366 0.792,-1.446 2.496,-1.326 0.27,-0.544 1.066,-3.668 0.59,-0.972 1.11,-1.21 2.018,-1.192 1.436,-1.3 0.852,-1.038 1.52,-2.758 1.71,-1.668 1.404,-0.958 3.434,-1.426 1.862,0.292 1.938,-0.746 1.428,0.034 2.022,0.352 6.012,-0.41 1.132,0.438 0.408,0.478 0.576,1.446 0.662,0.304 1.256,-0.556 0.958,-2.296 0.522,-0.292 1.496,0.926 1.326,0.08 2.664,1.068 0.972,-0.244 1.048,-1.07 2.148,-0.288 1.312,1.668 1.32,0.048 1.052,-0.272 0.284,-0.95 -0.42,-0.34 -0.816,0.292 -0.2,-0.826 0.496,-0.924 0.716,0.632 1.168,-0.06 0.404,-0.084 -0.166,-0.426 -0.268,-0.354 -0.352,-0.794 1.266,-1.086 0.752,-0.362 1.224,-0.104 3.142,1.324 0.69,0.138 0.74,0.534 1.18,0.38 -0.716,0.346 -0.316,0.338 0.74,-0.134 0.64,0.414 0.528,0.092 0.224,-0.162 0.274,-0.526 0.394,-0.534 0.288,-0.158 0.768,0.026 0.998,0.246 0.774,0.41 1.752,2.212 0.81,0.43 0.91,-0.072 0.366,0.138 0.51,0.596 -1.518,0.696 -1.44,0.146 -1.284,-0.19 -2.156,0.89 1.156,2.254 2.12,0.092 2.152,-0.476 0.434,-0.94 0.868,-0.368 0.456,0.048 0.982,0.786 1.36,0.302 0.362,-0.138 1.098,-1.554 0.664,-0.136 0.432,0.034 0.494,-1.348 1.876,-0.11 1.104,1.208 0.668,0.422 1.324,-0.36 0.724,-0.866 0.46,-0.314 1.378,0.824 0.676,-0.506 1.082,-0.088 0.806,0.06 -0.042,-0.876 0.076,-0.988 -1.098,-0.984 -2.182,-1 -1.262,0.648 -0.48,0.07 -0.332,-0.09 -0.354,-0.498 0.332,-0.794 0.336,-0.642 -0.014,-0.8 0.148,-1.146 0.544,-0.484 0.286,-0.078 0.772,-2.368 2.204,-3.178 2.566,-1.968 1.618,-1.514 0.77,-1.086 1.138,-2.516 1.618,-1.848 0.778,-0.592 0.826,-0.774 0.284,-2.436 0.62,-0.576 0.568,-0.418 1.08,-1.302 1.608,-0.844 0.554,-0.616 1.852,0.044 1.52,0.494 0.458,-0.134 1.024,-0.72 1.198,0.174 1.556,-0.466 1.416,-0.856 0.63,-0.084 0.594,0.182 0.718,1.26 0.412,0.316 0.314,0.734 0.954,-0.46 2.584,-1.714 0.31,-0.012 0.4,0.114 0.068,0.664 -0.024,0.536 -0.394,1.724 -0.472,1.296 -1.302,2.502 -0.268,0.376 0.174,0.668 0.198,1.23 -0.642,1.328 -0.248,0.662 0.52,0.152 0.68,-0.74 1.012,-0.464 0.544,0.034 0.546,0.222 -0.86,2.238 -0.138,1.17 -0.132,0.446 -0.022,0.598 0.638,-0.328 0.454,-0.476 0.638,-0.358 1.598,-0.154 0.834,-1.602 0.686,-0.81 6.46,-6.732 1.146,-1.43 0.638,-0.096 0.568,0.238 0.514,-0.03 0.106,-0.502 0.194,-0.19 0.582,0.074 0.37,1.268 0.404,0.63 0.298,-0.118 0.214,-0.194 0.3,-0.482 0.33,-0.394 0.338,-0.646 -0.282,-0.44 -1.114,-0.652 0.046,-1.182 0.634,-1.894 -0.07,-1.234 0.254,-1.282 0.28,-0.65 0.25,-0.284 0.248,-0.436 -0.324,-0.998 0.24,-0.68 0.25,-0.48 5.186,-1.776 0.914,-0.098 0.834,0.356 1.266,1.272 1.412,0.658 1.978,0.28 0.118,0.568 -0.77,-0.192 -0.374,0.18 0.066,0.514 -0.098,0.384 -0.472,-0.454 -1.326,-0.246 -1.218,-0.508 -0.406,0.04 -1.744,1.5 -0.452,0.656 -0.746,2.968 -0.036,2.04 -0.272,1.934 -0.768,0.834 -0.256,0.964 -0.186,1.138 0.946,0.486 0.11,0.37 0.074,0.52 -0.628,1.206 -1.538,1.502 -0.17,0.312 -0.2,0.68 0.876,1.256 -0.702,0.456 -0.666,0.316 -0.64,0.568 -2.126,0.202 -1.458,1.414 -2.51,1.402 -1.112,0.8 -0.364,0.524 -0.884,2.128 -0.52,0.902 -1.708,1.404 -1.292,2.034 -2.042,2.432 -0.806,0.28 -0.922,0.6 -1.106,1.692 -2.824,2.926 -1.436,3.516 -0.78,1.164 -0.808,0.92 -0.548,0.978 -0.974,1.022 -1.964,1.522 -1.334,1.262 -0.72,0.842 -0.258,0.788 -0.364,-0.172 -1.324,0.416 -1.728,-0.358 -1.212,2.326 -1.31,0.236 -1.296,-0.562 -0.638,0.28 -0.236,0.252 -0.214,0.332 0.608,0.746 0.272,0.64 0.086,0.572 0.074,0.988 -0.718,1.83 -0.676,1.428 -1.118,1.352 -2.592,2.458 -0.236,0.302 -0.24,0.58 -1.492,6.302 -0.412,2.788 -0.496,4.408 0.048,1.468 0.318,3.27 0.482,3.324 1.114,5.684 0.256,1.744 0.834,6.926 0.064,1.304 0.248,1.1 0.416,1.118 0.764,1.078 0.07,1.312 0.632,4.136 0.058,3.956 0.118,0.852 0.126,0.616 0.714,0.758 0.238,0.918 0.06,0.686 0.132,0.692 0.558,-0.332 1.992,-1.838 1.614,-1.756 0.232,-0.636 0.548,-0.492 1.092,-0.638 1.572,-1.844 1.282,-2.556 0.74,-1.956 0.166,-0.716 0.04,-0.708 -0.11,-1.532 0.296,-0.57 0.422,-1.714 -0.274,-0.452 -0.716,-0.328 0.222,-0.698 0.52,-0.164 0.422,0.328 0.246,0.738 0.348,0.246 1.16,-1.29 1.034,-0.648 2.524,-1.126 1.042,0.076 0.986,0.976 0.436,-0.042 -0.128,-1.358 -0.586,-0.992 0.008,-0.628 0.318,-0.984 -0.232,-0.648 -0.244,-0.49 -0.152,-1.05 0.438,-2.136 0.496,-1.168 0.362,-0.558 1.204,-0.95 1.282,-1.372 1.436,-1.066 0.914,-0.358 1.09,-0.192 0.922,0.75 1.858,0.042 0.564,-0.162 1.356,-1.506 0.778,-0.616 -0.14,-1.302 -0.472,-1.09 -0.964,-1.378 -0.22,-0.652 -0.312,-1.502 -0.032,-1.364 0.292,-1.572 0.832,-1.846 0.904,-2.496 0.344,-0.388 1.054,-0.598 0.712,-0.48 0.376,-0.254 -0.222,-1.4 0.564,-0.566 0.462,-0.356 1.156,0.138 0.374,-0.322 0.53,-0.14 -0.354,0.74 -0.46,0.502 -1.01,0.694 -0.478,0.994 1.192,1.676 0.736,0.32 0.426,-0.11 0.796,-0.926 0.404,-0.37 0.416,-0.592 -0.232,-2.174 -0.286,-1.186 0.074,-1.256 -0.512,-0.382 -0.668,-0.162 -0.698,0.19 -0.404,-0.35 -0.268,-0.558 -0.064,-0.654 0.134,-1.52 -0.04,-0.818 -0.26,-1.458 0.004,-0.416 0.096,-0.762 0.996,-1.248 0.852,-0.912 0.446,-0.758 0.144,-0.518 0.068,-1.086 -0.454,-0.494 -2.396,-1.146 -0.36,-0.024 -0.742,0.466 -0.308,1.452 -0.424,0.514 0.004,-0.292 0.108,-0.35 -1.202,-0.534 -0.558,-0.48 -0.326,-0.46 -0.212,-0.662 -0.234,-1.014 0.5,-2.082 0.52,-1.864 1.748,-2.806 1.068,-0.986 1.144,-1.51 0.49,-0.268 0.198,-0.246 0.194,-0.366 -0.362,-1.026 0.198,-0.25 0.198,-0.122 0.42,0.184 1.054,-1.874 -0.022,-2.394 0.292,-2.054 0.244,-0.846 0.254,-0.596 0.47,-0.58 0.452,-0.304 0.65,-0.72 0.3,-0.556 0.206,-0.146 0.744,0.044 0.588,0.22 0.66,0.37 -0.124,0.97 0.778,-0.852 0.704,-0.944 0.354,-0.166 0.478,0.128 0.81,0.716 0.618,1.378 0.42,0.372 0.556,-0.03 0.368,-0.192 0.306,-0.948 0.06,-1.716 0.608,-0.294 0.52,-0.114 0.734,-0.792 0.938,-0.354 2.016,-1.362 1.336,-1.402 0.964,-0.05 -0.246,0.802 -0.088,0.772 -0.352,1.896 -0.346,1.006 -0.182,1.228 0.072,0.642 0.21,0.81 0.486,-0.076 0.33,-0.18 0.678,-0.834 2.872,-4.05 1.474,-1.126 2.24,-0.712 0.674,-0.458 2.198,-0.736 1.826,-0.208 1.164,0.334 0.662,-0.01 2.46,-0.366 0.276,0.448 1.924,1.35 1.102,1.956 0.222,0.17 0.184,0.364 0.058,0.79 0.166,0.49 0.312,0.418 0.96,0.908 1.106,0.23 0.256,-0.496 0.15,-0.426 0.5,-2.384 0.428,-0.942 0.006,-0.576 0.106,-0.468 1.072,-0.7 0.842,-0.3 3.034,-2.318 1.346,-1.346 0.566,0.066 0.49,-0.308 0.45,-0.42 0.39,-0.172 0.818,-0.95 1.008,-0.74 -0.17,-0.636 0.19,-0.59 0.566,-0.214 0.492,-0.052 0.628,-0.686 -0.04,-0.534 0.228,-0.224 0.328,0.042 0.442,0.206 0.226,-0.216 -0.394,-0.748 -0.174,-0.71 0.28,-0.386 1.112,0.738 0.434,-0.006 1.454,-1.762 1.306,-1.88 1.118,0.434 1.776,-1.37 0.82,-0.266 1.288,-0.072 0.542,-0.524 0.586,-0.956 0.462,0.108 2.216,-1.14 0.424,-0.814 0.548,-0.228 0.428,-0.08 0.964,-0.676 4.01,-1.948 0.608,-0.784 1.494,-1.15 1.15,-0.368 1.414,-0.304 0.17,-0.372 -1.02,-0.426 -0.244,-0.392 -0.006,-0.422 0.148,-0.354 0.188,-0.674 0.38,-0.15 0.458,0.48 0.482,-0.002 0.222,-0.414 0.228,0.036 0.116,0.542 -0.246,0.632 -0.112,0.498 -0.02,0.554 0.33,0.142 1.75,0.056 2,0.436 5.3,2.324 0.454,0.38 0.428,0.04 0.074,-0.918 0.242,-0.88 0.626,-0.5 1.058,-1.25 0.524,-0.908 0,-1.052 -0.334,-1.096 -0.73,-0.256 -0.442,-0.692 -0.24,-0.844 0.39,-0.614 0.426,-0.246 -0.092,-0.86 -0.316,-0.534 -1.708,-1.148 -0.598,-0.782 -0.018,-0.69 -0.706,-1.758 -0.098,0.378 0.062,0.85 -0.238,0.596 -0.368,-0.094 -0.056,-0.472 0.212,-1.024 -0.296,-0.442 -1.052,-0.22 -0.144,-0.398 1.042,-0.57 0.308,0 0.282,-0.206 -0.218,-2.222 -0.236,-1.566 -0.64,-0.132 -0.474,-0.458 0.13,-0.996 0.014,-0.498 -0.538,-1.712 -0.384,-0.692 -0.468,-0.646 -0.368,0.716 -0.188,0.954 -0.482,0.202 -0.514,-0.034 -1.492,-1.066 -1.428,-1.812 -0.13,-1.67 0.322,-2.148 -0.222,-0.348 -0.224,-0.14 -1.894,0.72 -1.162,1.12 -0.628,0.118 -1.252,-0.754 -2.058,1.262 0.44,-0.734 0.36,-0.286 0.38,-0.542 -0.284,-1.034 -0.302,-0.78 -0.436,-0.55 -0.632,-0.264 -0.622,0.522 -0.49,0.526 -1.014,0.564 -1.95,0.47 -1.31,0 -2.236,0.856 -0.842,-0.034 3.082,-1.22 1.676,-0.09 2.16,-0.794 1.57,-1.544 2.068,1.398 0.712,0.2 1.542,-0.122 1.334,0.824 0.446,-0.238 0.42,-0.75 -0.558,-1.128 -0.482,-0.698 -0.546,-0.218 -1.652,0.118 -1.086,-0.24 -0.624,-0.292 0.404,-0.318 1.188,0.448 1.438,-0.588 1.676,0.9 0.406,0.802 0.478,0.294 1.374,2.024 0.938,0.8 3.012,0.586 1.316,0.906 1.004,-0.368 2.534,-1.974 1.674,-0.532 1.14,-1.306 0.988,-1.5 0.968,-0.44 1.658,-1.598 0.39,-0.762 0.648,-1.908 0.38,-0.794 0.558,-0.964 0.042,-0.792 -0.122,-0.86 -0.466,-0.67 -1.074,-0.952 -0.492,-0.632 -0.346,-1.332 0.036,-1.612 0.24,-1.212 0.322,-1.086 0.376,0.78 1.086,-0.182 0.538,-0.298 0.06,-0.794 -0.134,-0.942 0.264,-0.246 0.564,-0.104 0.08,-0.57 0.198,-0.304 0.206,0.406 0.01,1.59 0.444,0.396 0.622,0.328 0.266,-0.098 0.266,-0.216 0.38,-0.482 0.77,-1.644 0.5,-0.65 -0.042,1.19 -0.294,1.644 -0.166,0.45 -0.436,0.58 -0.208,1.204 -0.09,0.326 -0.626,-0.33 -0.454,0.066 0.336,1.326 0.494,0.986 0.628,0.95 0.678,0.566 0.18,-0.016 0.134,0.202 0.018,0.596 -0.15,1.41 0.12,0.756 0.518,0.564 0.574,0.144 3.434,-0.066 1.178,-0.19 1.76,-1.328 0.668,-0.162 0.752,0.166 2.104,0.73 2.548,1.036 0.958,1.598 0.376,1.606 0.144,1.7 -0.164,0.682 0.032,0.576 0.776,0.86 1.096,1.044 0.21,0.244 0.23,0.42 0.264,0.188 0.782,0.112 0.618,-0.202 0.618,-0.058 1.152,0.496 1.458,0.766 1.418,1.05 0.634,0.782 1.142,1.678 0.582,0.51 0.944,0.586 0.358,0.092 0.35,-0.106 0.722,-0.818 0.446,-0.656 0.382,-0.79 0.102,0.68 0,0.582 -0.372,0.42 -0.002,0.72 0.562,0.844 0.664,0.128 0.832,-0.228 0.276,-0.392 0.248,-0.54 -0.186,-1.792 0.256,-0.244 0.6259,0.354 0.2,0.506 0.096,0.62 0.248,0.068 1.646,-0.088 0.126,-0.228 -0.084,-0.56 -0.24,-0.53 -0.286,-0.376 -0.722,-0.44 -0.734,-0.332 -0.602,-0.086 -0.2619,-0.248 0.066,-0.46 -0.1974,-0.538 0.122,-0.318 0.5099,-0.42 0.06,-0.386 -0.5399,-0.468 -0.566,-0.146 -0.494,0.26 0.112,-0.394 0.376,-0.388 0.57,-0.166 0.5879,0.084 1.122,-0.332 1.09,-0.752 0.53,-0.496 0.512,-0.61 -0.058,-1.072 -0.35,-1.03 -0.522,-0.28 -0.58,0.064 -0.51,-0.084 -0.498,-0.272 1.978,-0.364 0.22,-0.364 0.328,-1.646 -0.12,-0.412 -0.41,0.108 -0.628,-0.024 0.144,-0.336 0.214,-0.29 -1.138,-1.572 -1.272,-0.938 0.36,-0.156 0.626,0.034 0.966,0.278 0.636,0.708 0.224,0.478 0.272,0.162 0.574,0.048 0.978,0.336 0.056,0.462 0.224,0.162 0.654,-0.198 1.82,-0.306 0.574,0.08 0.83,0.332 0.258,0.008 0.36,-0.12 0.292,-0.528 -0.452,-1.06 -0.948,-0.958 -0.552,-0.726 -0.278,-0.58 0.166,-0.22 0.252,0.088 0.812,0.916 0.634,0.572 0.658,0.41 0.588,0.304 1.294,0.286 0.59,-0.472 0.112,-0.736 -0.124,-1.548 0.126,-0.574 0.784,-0.866 1.356,-1.096 0.876,-0.35 0.304,0.034 0.324,0.344 0.336,0.098 0.576,-0.816 -0.252,-1.176 z m -438.5839,-142.332 -0.432,0.468 -0.104,0.642 -0.036,0.836 -0.19,1.41 -0.39,0.52 -1.36,-0.218 -0.378,0.126 -0.374,0.318 0.784,1.662 1.51,1.11 1.084,1.154 0.508,0.348 3.292,1.05 0.162,-0.162 0.934,-1.928 1.194,-0.876 0.384,-0.69 0.226,-0.92 0.302,-0.744 0.192,-0.988 -0.566,-0.848 -1.876,-0.808 -4.866,-1.462 z m -256.202,71.358 -0.124,0.264 -0.13,0.506 0.072,1.89 0.228,0.924 0.376,0.778 0.296,0.224 -0.042,-0.676 -0.58,-2.656 0.03,-1.198 -0.126,-0.056 z m 20.412,63.226 -0.892,-0.224 -0.658,-0.352 -1.034,-0.036 -0.638,-0.172 -0.188,0.498 1.024,2.13 1.084,1.064 0.988,-0.176 0.216,-0.216 0.286,-0.726 -0.296,-0.428 0.002,-0.392 0.106,-0.97 z m -15.788,-41.292 0.456,-1.396 -0.09,-0.68 -0.632,-0.052 -1.068,1.478 0.122,0.258 0.284,0.318 0.928,0.074 z" title="Russia" id="RU"></path></svg>