<svg xmlns="http://www.w3.org/2000/svg" viewBox="0 0 63.16 29.52"><path d="m 10.16,4.06 0.178,0.198 -0.434,0.336 -0.572,-0.182 -0.126,-0.19 -0.014,-0.1 -0.4,0.064 -0.794,-0.166 -1.108,-0.804 -1.172,-1.514 -1.126,-0.838 -0.21,-0.26 -0.028,-0.432 0.152,-0.166 0.7,0.18 0.906,0.692 1.486,0.718 0.404,0.366 0.258,0.878 0.252,0.262 0.802,0.674 0.424,0.158 0.224,0.03 0.198,0.096 z m -9.244,-1.31 -0.564,0.134 -0.348,-0.18 0.154,-0.428 0.192,-0.222 0.706,0.394 -0.14,0.302 z m 22.67,8.088 0.01,0.13 -0.754,-0.47 -0.572,-0.576 -1.63,-0.626 -0.35,-0.322 -0.294,-0.04 -0.836,-0.524 -0.822,-0.354 -0.5,-0.456 -0.128,-0.186 -0.3,-0.112 -0.516,-0.5 -0.502,-0.332 -0.178,-0.606 -0.484,-0.416 -0.122,-0.182 1.554,0.336 0.72,0.664 0.616,0.376 0.214,0.272 0.554,0.374 0.498,0.034 0.498,0.376 0.454,0.1 0.358,0.196 2.31,1.678 -0.276,0.446 0.306,0.324 0.172,0.396 z m -17.912,-3.444 -0.108,0.078 -0.188,-0.304 -0.136,-0.094 0.004,-0.338 -0.566,-0.55 -0.046,-0.38 0.328,-0.372 0.442,0.216 0.438,0.468 0.514,0.152 -0.106,0.31 -0.462,0.558 -0.114,0.256 z m 2.718,1.042 -0.124,0.084 -0.612,-0.032 -0.464,-0.582 0.004,-0.43 0.366,-0.394 0.442,-0.07 0.242,0.152 0.224,0.33 0.082,0.42 -0.05,0.372 -0.11,0.15 z m -3.19,0.358 -0.068,0.14 -0.292,-0.696 0.014,-0.35 0.05,-0.224 0.108,-0.068 0.236,0.774 -0.048,0.424 z m 6.51,0.398 0.352,0.46 0.406,1.028 -0.074,0.354 -0.29,0.02 -0.082,0.222 -0.392,-0.5 -0.524,-0.134 -0.382,-0.306 -0.13,-0.606 -0.038,-0.382 -0.3,-0.066 -0.86,0.096 -0.274,0.326 -0.392,-0.104 -0.084,-0.294 0.06,-0.288 0.524,-0.284 0.108,-0.366 0.52,-0.628 0.322,-0.108 0.608,0.226 0.074,0.894 0.218,0.292 0.63,0.148 z m 16.76,0.404 1.392,1.68 -0.054,0.298 -0.19,0.192 -0.054,0.564 0.176,0.216 0.38,0.1 0.646,0.602 0.258,0.738 0.024,0.226 0.27,0.334 0.01,0.706 0.614,0.98 0.054,0.472 -0.056,0.212 -0.256,-0.124 -0.734,-1.112 -0.84,-0.48 -0.096,-0.206 -0.848,-0.648 -0.568,-1.09 -0.616,-1.936 0.29,-0.458 -0.694,-0.938 0.034,-0.25 0.292,0.058 0.204,-0.012 0.098,-0.112 0.264,-0.012 z m -5.96,1.094 -0.268,0.076 -0.398,-0.208 -0.172,-0.188 0.082,-0.294 0.232,-0.112 0.264,0.198 0.028,0.202 0.232,0.326 z m -12.902,1.16 0,0.082 -0.31,-0.158 -0.682,-0.762 0.122,-0.254 0.626,-0.494 0.192,-0.066 0.176,0.306 -0.152,0.452 -0.206,0.114 -0.084,0.424 0.318,0.356 z m 4.036,-0.166 -0.552,0.446 -0.404,-0.15 -0.326,-0.382 0.108,-0.46 0.06,-0.122 0.162,-0.026 0.162,-0.094 0.176,-0.204 0.602,0.162 0.148,0.112 -0.358,0.282 0.12,0.09 0.078,0.134 0.024,0.212 z m 0.52,0.776 -0.126,0.022 -0.13,-0.224 0.306,-0.608 0.148,0.49 0.096,0.184 -0.294,0.136 z m -3.118,-0.354 -0.012,0.198 -0.322,-0.062 -0.716,-0.298 -0.026,-0.136 0.408,-0.05 0.296,0.038 0.248,0.174 0.124,0.136 z m 8.662,2.058 -0.074,0.014 -0.264,-0.07 -0.32,-0.022 -0.196,-0.196 0.232,-0.28 0.292,-0.182 0.134,0.046 0.126,0.118 0.294,0.044 0.032,0.36 -0.256,0.168 z m 5.498,-0.724 0.324,0.08 0.156,-0.012 0.37,0.304 0.494,0.448 -0.202,0.232 -0.402,-0.12 -0.134,0.048 -0.042,-0.032 -0.084,-0.224 -0.438,-0.222 -0.392,-0.018 -0.05,-0.264 0.4,-0.22 z m -2.344,1.566 1.236,0.908 0.532,-0.084 1.624,0.016 0.958,0.648 0.562,0.298 0.316,0.58 0.39,0.132 0.24,0.296 0.138,0.54 -0.098,0.088 -0.496,0.202 -0.36,0.084 -0.942,-0.192 -0.9,-0.416 -1.79,-0.05 -0.834,-0.118 -0.288,-0.158 -0.266,-0.212 -0.42,-0.504 -0.328,-0.592 -0.054,-0.348 -0.028,-0.66 0.102,-0.242 0.342,-0.24 0.364,0.024 z m 10.088,1.996 0.062,0.606 -0.028,0.208 -0.426,-0.444 -0.2,0.158 -0.186,-0.21 0.014,-0.46 0.03,-0.49 -0.084,-0.372 -0.212,-0.536 0.238,0.086 0.792,1.454 z m 0.942,4.312 0.706,0.334 0.412,-0.056 0.61,0.23 0.462,-0.13 0.29,0.296 0.73,1.158 0.006,0.376 0.478,0.268 -0.404,0.05 -0.562,-0.138 -0.436,0.094 -0.456,-0.224 -0.768,-0.116 -0.668,-0.27 -1.396,-0.854 0.008,-0.426 -0.226,-0.208 -0.066,-0.528 -0.5,-0.166 -0.584,-0.032 -0.046,-0.25 0.108,-0.442 0.436,0.006 0.524,0.184 1,0.644 0.248,0.11 0.094,0.09 z m 24.796,2.102 -0.448,0.098 -0.142,-0.028 -0.336,0.052 -0.362,0.41 -0.266,-0.058 -0.208,0.016 -0.158,-0.336 -0.004,-0.164 0.256,0.026 0.134,-0.328 0.276,-0.164 0.644,-0.076 0.572,0.108 0.204,0.074 -0.18,0.296 0.018,0.074 z m -31.192,5.914 -0.39,0.196 -0.358,-0.098 -0.272,-0.148 -0.22,-0.438 -0.476,-0.274 -0.678,-0.114 -0.278,-0.19 -0.072,-0.094 -0.47,-0.084 -0.134,-0.238 0.04,-0.246 0.076,-0.13 0.434,0.12 2.086,1.156 0.496,0.358 0.216,0.224 z m 35.662,-0.756 -0.496,0.092 -0.198,-0.022 -0.328,-0.492 0.244,-0.112 0.364,0.042 0.11,0.29 0.304,0.202 z" title="Solomon Islands" id="SB"></path></svg>