<svg xmlns="http://www.w3.org/2000/svg" viewBox="0 0 94.21 78.55"><path d="m 54.12,0.7 -0.18,0.536 1.05,0 1.842,0 1.842,0 1.842,0 1.842,-0.002 1.84,0 1.842,0 1.842,0 1.842,0 1.842,0 1.84,0 1.844,-0.002 1.84,0 1.842,0 1.842,0 1.842,0 1.842,-0.002 0.062,1.372 0.248,1.094 0.868,1.562 0.732,0.84 0.264,0.462 0.024,0.214 -0.034,0.2 -0.222,-0.23 -0.376,-0.156 -0.052,0.73 0.086,0.518 0.09,0.974 0.308,1.044 -0.222,0.964 0.03,1.632 0.388,1.952 -0.078,1.244 0.634,2.896 0.616,1.604 0.338,0.394 0.382,0.212 0.732,0.136 1.078,0.814 0.854,0.86 0.304,0.45 0.412,0.492 0.284,-0.088 0.174,-0.132 0.278,0.398 1.354,0.858 0.2,0.398 -0.488,0.39 -0.562,0.672 -0.142,0.268 -0.066,0.158 -0.066,0.2 -0.148,0.198 -0.322,0.272 -0.128,0.118 -0.076,0.188 -0.194,0.122 -0.212,0.006 -0.184,0.084 -0.278,0.128 -0.414,-0.066 -0.422,0.118 -0.154,0.148 -0.336,0.13 -0.334,0.028 -0.118,0.044 -0.316,0.218 -0.388,0.306 -0.454,0.194 -0.16,0.064 -0.208,0.21 -0.322,1.048 -0.236,0.274 -0.396,0.028 -0.514,0 -0.446,0.09 -0.606,-0.116 -0.294,0.014 -0.078,0.224 -0.108,0.898 0.014,0.386 -0.24,0.454 -0.268,0.57 0.098,0.96 0.046,0.95 -0.492,1.428 -0.07,0.328 -0.498,1.13 -0.256,0.422 -0.636,2.108 -0.248,0.648 -0.532,0.682 0.12,1.11 0.128,1.174 0.12,1.108 0.18,1.654 -0.452,1.544 0.018,0.842 -0.316,1.24 -0.25,0.574 -0.222,0.338 -0.186,0.352 -0.344,0.772 -0.292,1.018 -0.13,1.042 -0.01,0.606 -0.058,0.276 -0.098,0.176 -0.674,0.114 -0.938,0.124 -0.504,0.136 -0.338,0.212 -0.416,0.494 -0.824,1.352 -0.43,0.828 -0.676,1.132 -0.786,0.8 -0.166,0.39 -0.13,0.724 -0.29,1.146 -0.266,0.812 0.048,0.656 -0.248,1.134 0.036,0.552 -0.276,0.308 -0.37,0.292 -0.252,0.074 -0.54,-0.334 -0.412,-0.338 -0.168,-0.09 -0.358,0.212 -0.43,0.314 -0.492,0.732 -0.382,0.74 0.22,1.57 -0.02,0.342 -0.112,0.374 -0.596,1.168 -0.148,0.37 -0.216,0.7 -0.23,1.222 -0.008,0.294 0,0 -0.006,0 -1.044,-0.004 -0.018,-0.006 -0.016,-0.018 -0.016,-0.026 -0.018,-0.038 -0.04,-0.16 -0.022,-0.25 0.036,-0.432 0.116,-0.514 0.362,-0.722 0.018,-0.06 0.004,-0.034 0,-0.038 -0.034,-0.13 -0.042,-0.112 -0.02,-0.168 0.062,-0.376 0.006,-0.116 -0.008,-0.148 -0.028,-0.096 -0.252,-0.626 -0.084,-0.1 -2.43,-1.994 -0.444,-0.542 -0.048,-0.036 -0.06,-0.028 -1.234,-0.456 -0.06,-0.046 0.008,-0.066 0.038,-0.086 0.148,-0.264 0.02,-0.068 0.022,-0.106 -0.556,-4.216 0.002,-0.082 0.024,-0.056 0.02,-0.034 0.074,-0.09 0.064,-0.092 0.074,-0.164 0.018,-0.06 0.078,-0.756 -0.006,-0.66 0.324,-1.102 0.036,-0.47 -2.68,-0.034 -0.016,0.024 -0.002,0.03 0.006,0.032 0.004,0.036 -0.002,0.074 -0.02,0.136 -0.006,0.074 0.002,0.072 0.042,0.266 0.07,0.198 0.01,0.066 0.004,0.072 -0.008,0.138 -3.73,0.016 1.476,1.656 0.018,0.034 0.026,0.09 0.01,0.068 0.028,0.582 -0.078,0.92 0.016,0.592 0.086,0.384 0.4,0.756 -0.026,0.142 -0.092,0.178 -2.646,2.244 -0.074,0.106 -0.368,0.936 -0.35,0.542 -0.154,0.156 -0.614,0.762 -2.414,2.39 -0.396,0.16 -1.202,0.066 -0.636,0.018 -0.072,0.018 -0.108,0.04 -0.066,0.062 -0.078,0.046 -0.078,-0.024 -0.09,-0.066 -1.484,-1.338 -2.648,-1.69 -0.254,0.154 -1.498,0.728 -0.308,0.188 -0.172,0.134 -0.008,0.814 -0.262,0.412 -0.472,0.452 -1.296,0.286 -0.674,0.244 -0.69,0.366 -0.112,0.092 0,-0.002 -0.264,0.254 -0.522,0.51 -0.056,0.396 0.084,0.356 -4.466,-0.014 -0.294,-0.284 -0.62,-1.248 -0.028,-0.012 -0.456,0.078 -4.072,-0.146 -0.582,0.13 -1.164,0.516 -0.586,0.086 -0.604,-0.236 -2.142,-2.488 -0.462,-0.298 -0.17,-0.16 -0.316,-0.436 -0.458,-0.26 -0.154,-0.188 -0.05,-0.266 0.014,-0.548 -0.15,-0.342 -0.338,-0.078 -2.88,0.578 -0.412,-0.066 -0.604,0.104 -0.208,0.102 -0.244,0.328 -0.05,0.34 0.008,0.344 -0.074,0.338 -0.22,0.378 -0.82,0.844 -0.182,0.368 0.038,0.928 -0.054,0.47 -0.124,0.218 -0.356,0.356 -0.13,0.206 -0.06,0.29 -0.02,0.612 -0.064,0.286 -0.448,0.72 -0.106,0.254 -0.026,0.518 -0.072,0.158 -1.302,0.41 -0.486,0.262 -0.298,0.404 -0.072,0.172 0,0 -0.558,-0.144 -0.708,-0.104 -1.362,-0.128 -0.538,-0.188 -0.258,-0.282 0.082,-0.72 -0.136,-0.154 -0.216,-0.128 -0.15,-0.312 0.032,-0.374 0.718,-0.832 0.148,-0.444 0.114,-1.546 0.074,-0.544 -0.054,-0.638 -0.57,-1.174 -0.496,-0.816 -0.81,-1.21 -0.316,-0.396 -1.636,-1.668 -0.19,-0.248 -0.396,-0.706 0.196,-0.622 0.24,-0.924 0.028,-0.428 -0.112,-0.442 -0.414,-0.332 -0.368,-0.04 -0.164,-0.168 -0.32,-0.244 -0.316,-0.19 -0.28,-0.364 -0.194,-0.51 0.138,-1.826 -0.094,-0.244 -0.418,-0.068 -0.098,-0.132 0.016,-0.35 -0.224,-1.042 -0.252,-0.864 0.134,-0.476 -0.348,-0.652 -0.668,-0.28 -0.63,0.086 -0.676,0.13 -0.408,-0.036 -0.278,-0.122 -0.198,-0.238 -0.1,-0.284 0.092,-0.424 0.372,-0.78 0.462,-0.64 0.942,-0.586 0.25,-0.31 0.144,-0.346 0.024,-0.396 -0.064,-0.418 -0.106,-0.382 -0.278,-0.506 -0.254,-0.596 -0.006,-0.4 0.122,-0.288 0.252,-0.348 0.5,-0.392 0.12,-0.078 0.314,-0.21 0.274,-0.154 0.684,-0.412 0.16,-0.198 -0.058,-0.238 -0.168,-0.194 -0.276,-0.272 -0.056,-0.334 -0.08,-0.57 -0.142,-0.364 -0.102,-0.266 0.194,-0.2 0.29,-0.278 0.362,-0.17 0.558,-0.144 0.22,-0.2 0.064,-0.38 -0.018,-0.364 0.202,-0.27 0.27,-0.58 0.218,-0.264 0.366,-0.302 0.366,-0.378 0.162,-0.44 0.046,-0.422 -0.2,-1.284 0.422,-0.536 0.54,-0.444 0.776,0.03 1.204,-0.098 0.82,-0.184 0.584,0.006 1.334,0.24 0.11,-0.058 0.03,-0.048 0.072,-0.34 -0.002,-0.856 -0.002,-2.592 -0.002,-2.596 -0.002,-2.602 -0.002,-2.61 -0.002,-2.616 -0.002,-2.622 -0.002,-2.63 -0.002,-2.636 0,-0.74 0,-0.738 0,-0.74 0,-0.742 1.384,0.002 1.386,0 1.384,0 1.384,0.002 0.018,-0.012 0.018,-0.01 0.016,-0.012 0.018,-0.008 0.002,-2.964 0,-2.974 0.002,-2.984 0,-2.994 2.144,0 2.146,0.002 2.144,0 2.144,0 2.144,0 2.144,0 2.146,0 2.144,0.002 2.144,0 2.144,0 2.144,0 2.144,0 2.144,0.002 2.144,0 2.146,0 2.144,0 0.654,0 0.288,-0.044 0.55,-1.122 0.234,-0.084 0.358,0.066 0.124,0.264 z" title="Sudan" id="SD"></path></svg>