<svg xmlns="http://www.w3.org/2000/svg" viewBox="0 0 73.03 167.81"><path d="m 73.04,47.26 -1.488,0.316 -1.118,-0.634 -0.558,0.318 -0.974,0.014 -1.108,0.25 -0.374,0.494 -0.294,0.198 -1.026,-0.698 -0.97,-1.158 -0.708,0.882 -0.458,0.166 -0.414,-0.798 -0.36,-0.13 -0.194,0.266 -0.17,0.706 -0.272,0.554 -0.072,0.35 -0.046,1.408 -0.07,0.326 -0.942,-0.182 0.056,0.37 0.206,0.186 0.084,0.234 -0.342,0.306 -0.934,-0.03 -0.096,0.326 0.262,0.512 -0.206,0.45 -0.19,0.176 -1.118,0.278 -0.646,-0.064 -0.186,0.29 -0.05,0.376 0.122,0.37 0.286,0.196 0.094,0.234 -0.02,0.506 -0.238,0.092 -0.672,-0.89 -0.206,0.046 0.154,0.462 0.384,0.504 0.222,0.514 0.194,0.616 -0.038,0.468 -0.836,1.504 -0.736,0.946 -0.548,0.85 -0.324,0.9 0.376,0.452 0.416,0.652 0.294,1.25 0.35,1.112 0.706,1.058 -0.142,0.61 -0.164,0.474 -1.174,1.042 -1.332,1.564 -1.436,3.968 -0.478,0.53 -1.256,0.666 -0.462,0.644 -0.936,0.764 -1.634,0.656 -0.74,0.912 -0.334,0.94 -0.372,0.068 -0.37,-0.368 -0.492,-0.274 -0.064,0.614 0.022,0.45 -0.788,-0.666 -0.372,0.612 -0.29,1.018 -1.134,1.368 -1.222,-0.246 -0.136,0.24 0.324,0.174 0.05,0.218 -0.222,0.116 -0.336,-0.012 -0.518,0.27 -0.34,-0.02 -0.162,0.644 -0.264,0.778 -0.69,0.322 -0.356,0.066 -0.176,0.442 1.062,0.092 -0.084,0.374 -0.024,0.374 -0.11,0.4 -1.208,0.576 -0.186,0.452 -0.252,0.28 -0.538,-0.016 0.02,-0.26 0.088,-0.294 -0.8,0.026 -0.25,-0.65 -0.152,0.166 0.09,0.524 0.208,0.544 0.234,0.798 -0.19,0.502 -0.21,0.25 0.154,0.23 0.426,0.176 0.172,0.314 -0.506,0.268 -0.632,0.92 -0.656,0.022 -0.4,0.608 -0.426,-0.002 -0.346,-0.382 -0.554,-0.314 -0.178,0.552 -0.028,0.44 0.312,1.11 0.596,0.856 0.552,0.37 -0.398,0.25 -0.296,0.552 -0.358,1.72 -0.194,0.676 -0.21,1.188 0.132,1 0.108,0.49 0.27,0.666 -0.734,-0.086 -0.776,-0.388 0.108,0.806 -0.476,0.952 0.088,0.836 0.1,0.542 -0.148,0.898 0.224,0.282 0.122,0.534 -0.202,0.394 0.088,0.338 0.034,1.194 0.152,1.862 -0.056,0.392 0.426,1.608 -0.098,0.562 -0.058,0.714 0.612,0.686 0.544,-0.01 0.552,-0.01 0.21,0.17 0.212,0.484 0.17,0.572 0.454,-0.046 0.726,-0.464 0.472,-0.11 0.312,0.892 0.848,1.176 0.494,0.526 0.838,0.278 0.884,0.944 -0.124,1.136 0.368,0.378 1.042,0.446 0.37,0.602 0.178,0.512 0.274,0.424 0.322,1.278 -0.112,0.786 -0.42,0.27 -0.994,0.84 -0.442,0.626 -0.346,0.388 -0.986,0.834 -0.362,0.15 -0.346,0.432 -0.334,0.19 -0.3,-0.108 -1.12,0.782 -0.756,-0.216 -0.318,-0.386 0.202,-1.536 -0.126,-0.496 -0.146,-0.25 -0.496,0.286 0.088,0.588 -0.858,0.024 -0.808,-0.498 -0.104,0.98 -1.736,-0.812 -0.478,0.206 -0.766,-0.408 -0.498,0.488 -0.592,-0.176 -0.41,-0.58 -0.568,1.02 -1.24,0.29 -1.166,0.162 0.562,0.34 2.616,-0.064 0.74,0.252 0.962,-0.168 0.852,0.8 0.614,0.192 0.726,0.918 0.372,-0.25 0.584,0.038 0.54,0.262 1.714,-0.034 0.582,-0.64 0.858,0.14 0.438,-0.166 0.336,-0.392 0.368,-0.09 0.334,0.074 0.356,-0.31 0.28,-0.124 0.288,0.15 0.322,0.742 -0.668,0.384 -0.474,0.018 -0.232,1.212 -0.286,0.52 -0.206,0.25 -1.05,0.514 -0.694,0.65 -0.818,0.522 -0.356,-0.114 -0.538,0.53 -1.194,0.626 -0.614,0.844 -1.374,0.752 -0.7,0.612 -1.902,0.032 -1.816,-0.134 -0.57,0.29 0.584,0.09 0.408,0.284 0.49,-0.12 1.152,0.142 0.592,0.156 0.76,0.996 -0.558,0.352 -0.968,0.272 0.364,1.404 0.298,0.944 -0.392,0.568 -0.03,2.574 -0.55,0.048 -0.234,1.06 0.172,0.54 -0.014,1.25 0.114,0.768 0.27,0.706 -0.12,0.734 -0.87,1.714 0.018,0.802 0.158,0.476 0.116,0.758 -0.396,1.454 -0.278,1.21 -0.332,1.016 -0.742,1.214 -0.37,0.906 -0.864,2.814 -0.428,0.556 -0.526,0.426 -0.586,-0.394 -0.538,-0.214 -0.656,0.026 -1.028,0.324 -1.546,-0.216 -1.51,0.104 -0.382,0.278 0.23,1.014 -0.558,0.132 -0.544,-0.288 -0.48,0.344 -0.4,0.376 -0.786,0.892 -0.264,0.548 -0.068,1.03 0.414,0.922 0.366,1.078 -0.942,1.294 -0.526,0.044 -1.536,-0.36 -2.722,0.81 -2.444,-0.64 0.306,-0.694 -0.01,-0.51 0.138,-0.786 0.082,-0.806 -0.022,-0.54 -0.18,-0.578 -0.602,-0.756 -1.358,-2.562 -0.402,-1.086 -0.28,-0.454 0.202,-0.024 1.12,0.584 0.26,-0.072 0.274,-0.218 -0.334,-0.838 -0.288,-0.378 -0.194,-0.568 0.654,-0.154 0.474,0.034 0.348,-0.64 -0.202,-1.038 -0.508,-0.32 -0.424,-0.14 -0.814,-1.64 -0.848,-0.852 -1.514,-3.302 -0.554,-2.284 -0.514,0.218 -0.25,-0.998 -0.18,-0.95 -0.036,-0.698 -0.808,-0.4 -0.032,-0.492 -0.146,-2.2 -0.866,-0.296 -0.56,-1.24 -0.1,-2.358 -0.57,-0.43 -0.458,0.12 0.022,-0.586 0.11,-0.552 -0.268,-2.196 -0.09,-2.014 -0.216,-0.612 -0.124,-0.716 0.11,-0.62 0.164,-0.358 0.558,-0.094 0.522,0.548 0.462,1.38 0.408,0.18 0.556,-0.36 0.39,-1.006 0.222,-1.514 0.26,-1.45 -0.308,-1.556 -0.328,-1.372 -0.024,-0.404 0.862,-1.164 0.264,-0.948 0.286,-0.906 0.316,-0.308 0.468,-0.07 0.546,-0.17 0.688,-0.608 0.618,-0.816 0.472,-0.75 0.16,-1.488 0.006,-0.75 0.208,-0.558 0.2,-1.092 -0.196,-1.08 -0.61,-1.644 -0.734,-2.326 -0.114,-1.276 0.334,-0.238 0.638,-0.212 1.21,-0.062 0.128,-0.15 0.122,-0.562 0.274,-0.762 0.29,-0.556 0.2,-0.798 0.096,-0.724 -0.692,-1.094 -0.906,-1.124 -0.614,-0.374 -1.092,-0.948 -0.768,-0.794 0.44,-3.042 0.328,-2.282 0.052,-0.556 0.012,-0.864 -1.06,-3.71 0.042,-0.83 0.1,-0.75 -0.114,-1.282 -0.062,-1.15 0.182,-0.35 0.432,-0.652 -0.414,-1.012 -0.034,-0.084 -0.78,-2.516 1.192,-2.51 -0.208,-1.306 0.71,-0.95 1.296,-2.184 0.728,-1.236 0.154,-0.216 0.576,-0.544 1.094,-0.646 1.212,-0.316 0.54,0.004 2.084,0.438 1.626,0.34 0.238,-0.342 0.34,-0.702 0.438,-1.002 0.038,-1.118 -0.158,-1.648 -0.238,-0.99 -1.144,-0.646 -1.254,-0.886 1.542,-2.822 1.068,-1.972 1.332,-2.986 0.414,-1.25 0.3,-0.498 0.392,-4.66 0.26,-1.314 0.218,-0.69 0.002,-0.708 -0.142,-1.198 -0.374,-2.72 2.104,-0.338 0.684,-0.192 0.636,-0.326 1.244,-0.848 0.61,-0.752 -0.34,-2.576 0.752,-0.876 1.836,-3.068 1.984,-2.962 0.93,-1.128 0.096,-0.552 0.076,-0.89 -0.414,-1.404 -0.444,-0.872 -0.866,-1.658 0.372,-1.162 0.638,-0.226 0.842,-0.458 0.658,-0.998 0.064,-0.128 1.112,-3.952 2.17,-2.02 0.866,-1.106 1.348,0.832 1.976,1.252 0.878,-1.842 0.29,-0.686 0.29,-1.012 -0.116,-1.76 -0.05,-2.298 0.088,-0.928 0.788,-0.414 0.424,-0.106 2.196,0.956 0.552,-0.016 1.036,0.128 1.158,0.418 2.426,1.112 1.002,0.458 0.56,0.088 0.484,-0.516 1.034,-1.33 -1.522,-0.988 1.002,-1.002 0.52,-1.014 0.446,-1.25 0.162,-1.468 -0.062,-0.792 -0.308,-0.542 -0.93,-1.352 2.106,-0.194 0.73,-0.056 1.532,0.892 0.068,0.194 0.01,0.464 0.054,0.48 1.486,1.214 0.428,0.642 0.914,0.972 0.242,0.524 0.846,0.612 0.606,0.654 0.708,0.528 0.826,0.82 1.11,0.652 0.936,0.212 2.36,1.114 0.402,0.36 0.68,0.774 0.688,0.892 0.476,1.828 0.762,0.094 0.208,0.626 0.666,1.07 0.924,0.942 -0.034,0.316 -0.736,0.864 -0.08,1.168 0.07,1.486 0.232,1.208 -0.024,0.352 -0.182,0.416 -0.218,0.65 -0.08,0.566 0.02,0.276 0.074,0.152 0.388,0.012 0.694,0.134 0.408,0.25 0.232,1.374 -0.078,0.264 -0.584,0.62 -0.172,0.492 -0.016,0.72 0.104,0.792 0.202,0.882 0.458,0.942 0.62,0.982 0.408,0.804 0.192,0.564 0.07,0.396 -0.278,0.496 -0.25,0.978 -0.046,1.116 -0.114,0.726 -0.544,0.998 -0.378,0.352 -0.108,0.524 -0.046,0.878 0.112,1.068 0.038,0.72 0.116,0.518 0.172,0.338 0.874,0.594 0.49,1.216 0.306,0.974 0.618,2.526 z m -31.21,77.592 -0.14,0.366 -0.142,-0.448 0.056,-0.088 0.096,-0.442 0.272,-0.242 0.434,0.146 -0.002,0.11 -0.416,0.358 -0.158,0.24 z m -1.006,4.836 -0.25,0.104 -0.124,-0.032 0.154,-0.506 0.114,-0.218 0.378,-0.204 0.116,0.036 -0.388,0.82 z m 4.156,11.856 -0.102,0.658 -0.292,-0.05 -0.266,-0.486 0.538,-0.742 0.822,0.04 0.282,0.156 -0.982,0.424 z m -0.45,0.914 -0.464,0.25 -0.272,0.742 -0.376,0.126 -0.36,0.246 -0.128,2.332 0.658,0.882 -0.362,0.124 -0.33,0.264 -0.236,0.39 -0.242,0.838 -0.906,0.474 -0.342,0.35 -0.506,0.778 -0.264,1.126 -0.512,0.48 -0.576,0.114 0.336,-0.92 0.442,-0.752 -0.424,-0.518 -0.256,-0.81 -0.332,-0.624 0.264,-0.698 -0.13,-1.144 0.042,-1.122 0.384,-0.566 0.44,-0.462 0.684,-1.066 0.742,-0.776 1.036,-0.348 0.468,0.322 0.202,-0.706 0.334,-0.162 0.314,0.164 0.672,0.672 z m -14.3,15.926 -0.29,0.508 -0.256,-0.036 -0.17,-0.678 -0.04,-1.748 0.102,-0.868 1.224,-3.144 0.546,-0.258 0.768,-1.94 0.208,-0.868 0.334,-0.782 0.196,-0.702 0.166,-0.284 0.358,0.132 0.16,0.13 -0.378,0.408 0.044,0.53 -0.026,0.218 -0.954,2.298 -0.254,1.484 -0.338,0.362 -1.4,5.238 z" title="Sweden" id="SE"></path></svg>