<svg xmlns="http://www.w3.org/2000/svg" viewBox="0 0 17.55 11.59"><path d="m 17.62,2.96 -0.496,-0.198 -0.598,-0.084 -0.112,0.108 -0.24,0.11 -0.122,0.196 0.092,0.768 -0.144,0.132 -0.68,-0.076 -0.224,0.088 -0.37,0.534 -0.378,0.226 -0.48,0.16 -0.356,0.192 -0.45,0.168 -0.382,0.102 -0.152,0.232 -0.092,0.258 0.024,0.248 0.39,0.49 0.052,0.522 -0.042,0.638 -0.09,0.34 -0.154,0.226 -0.958,0.292 -0.994,0.522 -0.022,0.12 0.454,0.462 0.018,0.116 -0.376,0.262 -0.036,0.264 0.042,0.304 0.2,0.314 0.072,0.282 -0.546,0.204 -0.74,-0.076 -0.876,-0.39 -0.306,0.056 -0.296,0.204 -0.304,-0.088 -0.334,-0.242 -0.472,-0.502 -0.23,-0.31 -0.094,-0.328 -0.128,-0.048 -0.196,0.096 -0.162,0.4 -0.436,0.714 -0.324,0.194 -0.486,-0.042 -0.684,0.012 -0.426,0.06 -0.52,-0.252 -0.126,0.048 0,0.166 -0.194,0.26 -0.32,0.172 -1.478,-0.386 -0.21,-0.32 0.334,-0.152 0.462,-0.414 0.314,0.046 0.388,-0.088 0.168,-0.176 -0.244,-0.524 -0.616,-0.648 -0.326,-0.246 -0.45,-0.164 -0.076,-0.174 0.248,-1.026 -0.076,-0.146 -0.512,0.048 -0.12,-0.106 -0.042,-0.178 0.034,-0.244 0.346,-0.402 0.384,-0.354 0.104,-0.198 -0.014,-0.158 -0.494,-0.156 -0.296,-0.162 -0.236,-0.056 -0.162,0.09 -0.118,-0.102 -0.122,-0.296 0.12,-0.454 0.444,-0.418 0.476,-0.372 0.414,-0.272 0.238,-0.116 0.114,-0.468 0.248,0.05 0.49,0.024 0.548,0.106 0.508,0.132 0.45,0.164 0.94,0.172 0.858,0.104 0.258,0.096 0.21,-0.008 0.262,0.14 0.152,-0.108 0.112,-0.186 0.466,-0.224 0.43,-0.29 0.302,-0.368 0.17,-0.292 0.296,-0.208 0.314,-0.06 0.288,-0.104 1.214,-0.138 1.248,0.11 0.594,-0.206 0.49,-0.356 0.718,-0.1 0.036,-0.006 1.07,0.276 0.082,-0.16 0.046,-0.072 -0.02,-0.778 0.34,-0.356 0.312,-0.152 1.07,0.05 0.14,0.24 0.056,0.372 0.096,0.498 0.178,0.136 0.098,0.196 -0.02,0.344 0.21,0.256 0.488,0.692 z" title="Slovenia" id="SI"></path></svg>