<svg xmlns="http://www.w3.org/2000/svg" viewBox="0 0 239.83 227.17"><path d="m 0.82,227.06 -0.518,0.11 -0.298,-0.38 0.754,-1.044 2.492,-1.974 0.994,-1.894 1.92,-0.654 0.126,1.056 -0.13,1.308 -1.686,1.036 -1.87,0.7 -1.784,1.736 z m 158.134,-66.914 -0.678,0.808 -1.016,-1.218 -0.674,-1.57 0.358,-0.598 1.806,-0.08 0.442,0.818 0.074,0.466 -0.312,1.374 z m 13.408,-101.831998 0.772,0.67 1.67,-0.138 0.922,4.762 0.518,4.974 0.84,0.356 1.602,-0.68 1.428,-0.332 0.732,0.368 1.304,1.438 0.562,1.008 -0.49,0.789998 -1.194,0.882 -0.198,2.616 1.202,0.906 1.984,2.21 1.118,0.286 1.994,-0.904 1.872,1.712 1.854,2.066 -4.334,2.592 -0.38,0.724 -0.6,1.904 -0.638,1.558 -0.59,0.916 -1.296,1.57 -0.698,0.542 -1.568,-0.12 -0.588,0.622 -0.544,1.266 -0.548,0.908 -1.392,0.232 -0.71,-1.256 0.234,-0.388 0.1,-0.744 -0.248,-1.78 1.328,-1.83 0.3,-1.018 -0.264,-0.368 -0.366,0.1 -0.966,-0.56 -0.286,0.028 -0.8,1.072 -1.11,0.72 -1.126,0.182 -4.526,1.376 -0.684,-0.482 -0.308,-2.742 1.84,-1.416 0.282,-2.402 0.464,-1.608 0.542,-1.07 0.996,-2.774 0.25,-0.2 -2.484,-2.214 -0.982,-1.444 -1.07,-2.905998 -0.328,-2.37 -1.45,-2.03 0.178,-2.612 -1.052,0.206 -0.812,-1.844 0.756,-1.04 3.84,-1.184 2.29,-1.158 0.856,0.052 z m 29.57,-1.514 -0.824,0.07 -1.514,-2.11 -0.292,-1.844 0.27,-0.756 0.73,-0.028 1.138,2.52 1.228,0.758 -0.736,1.39 z m -87.708,1.088 0.064,1.954 0.914,-0.194 1.078,2.072 1.176,1.094 0.332,0.748 0.25,0.96 0.712,1.924 0.338,2.016 -0.85,0.212 -1.17,-2.876 -0.956,-1.646 -1.202,-1.412 -0.972,-0.07 -0.438,-0.618 -1.576,-5.132 -0.29,-1.194 -0.9,-1.93 -0.398,-2.416 0.002,-1.902 1.204,0.45 1.056,1.194 0.916,2.688 0.164,0.83 -0.418,1.1 0.43,1.298 0.534,0.85 z m 99.894,-8.678 1.674,0.184 1.682,-0.462 0.29,0.494 -2.166,1.532 -2.412,-0.814 -2.17,-0.208 -2.562,1.698 -0.836,-0.678 1.302,-1.638 1.42,-0.544 0.228,-1.004 0.542,-0.172 1.876,-0.104 1.132,1.716 z m -68.818,-30.394 0.292,0.064 0.284,-0.34 0.206,-0.9 0.228,-0.498 1.42,0.584 2.014,1.796 0.598,0.882 0.84,1.81 0.682,3.022 -0.542,2.166 -0.714,2.038 -0.252,1.12 0.26,1.602 -0.106,1.552 -0.26,1.368 1.08,-1.56 2.308,-5.044 0.344,-0.314 0.36,0.172 1.034,1.042 0.938,2.576 0.206,0.848 0.168,1.038 0.096,1.28 -0.052,1.46 -0.086,1.014 -0.49,0.654 -0.238,0.596 0.53,0.044 0.606,0.78 0.554,1.652 0.62,0.662 2.25,-0.558 1.462,0.862 0.802,2.69 1.236,-0.606 0.004,-1.434 0.272,-0.616 1.658,0.49 0.858,0.67 0.876,1.408 -1.496,2.292 1.234,2.184 2.072,1.574 1.25,1.644 0.226,0.686 0.204,0.91 -0.814,1.176 -0.828,0.662 -2.086,0.114 -1.896,0.828 -3.47,0.586 -0.516,0.374 -0.122,0.334 -0.204,1.012 -1.334,2.322 -1.292,2.808 -0.534,1.68 -0.402,2.338 -0.148,1.422 0.288,1.372 -0.076,1.381998 -0.972,1.08 -0.616,0.042 -0.772,-0.212 -0.76,0.62 -0.048,0.93 0.044,1.306 -0.194,3.954 -0.236,2.95 -0.354,2.718 -0.398,1.456 -0.508,0.404 -1.63,0.266 -1.256,2.514 -1.014,4.448 -0.528,1.73 -1.1,2.714 0.2,0.958 0.342,1.034 -0.6,1.842 -0.928,2.056 0.018,0.792 0.312,1.444 0.152,1.496 -0.716,1.282 -1.316,0.65 -1.34,-0.728 -0.652,-0.86 -0.604,-1.38 -0.642,-0.904 -0.668,-0.544 -2.57,-3.092 -2.372,-4.95 -2.166,-1.946 -1.412,-0.926 -0.68,-0.9 -0.664,-1.212 -0.574,-1.368 -0.534,-1.734 -0.258,-1.082 -0.048,-1.63 0.17,-0.96 0.254,-0.494 1.72,-0.406 0.618,0.23 0.608,0.856 0.554,0.336 1.268,-4.282 7.214,-2.474 2.318,-0.43 2.326,0.026 -0.362,-1.176 -0.308,-1.496 -0.342,-0.364 -1.758,0.84 -2.692,0.882 -1.312,0 -1.354,-0.588 -1.35,0.324 -1.392,1.278 -1.404,0.806 -1.364,0.324 -2.884,-0.13 -0.714,-0.66 -0.962,-1.532 -0.234,-0.788 -0.2,-0.968 -0.188,-2.926 0.208,-0.8 0.294,-0.46 0.302,-0.284 0.634,-0.014 0.622,0.508 1.456,1.672 -0.332,-1.794 4.19,-2.173998 1.946,-1.912 1,-0.322 1.002,0.14 -0.22,-1.022 -0.008,-0.95 0.712,-0.776 0.512,-0.334 1.542,-0.382 3.518,0.066 1.268,-0.526 0.95,-1.332 -1.012,0.464 -1.014,0.088 -0.474,-0.276 -1.074,-1.166 -0.488,-1.538 1.392,-3.092 0.484,-1.444 -1.416,0.208 -0.472,0.506 -1.622,2.846 -1.198,1.272 -1.478,0.61 -1.478,-0.052 -0.322,-0.402 -0.452,-1.876 -0.142,-0.99 0.06,-0.544 0.468,-1.564 0.244,-1.662 -0.042,-1.438 -0.344,-0.29 -0.546,1.408 -0.494,1.948 -0.678,0.972 -0.7,-0.266 -0.298,-0.746 -0.26,-1.144 -0.274,-0.442 -0.304,0 -0.626,0.458 -0.62,0.846 0.214,1.28 0.056,1.418 -0.268,1.122 -0.202,1.366 0.638,0.858 0.52,1.326 -0.78,0.622 -0.764,0.904 -0.702,1.39 -0.718,1.078 -1.138,0.114 -1.418,0.596 -2.834,0.21 -1.332,-1.754 -0.244,-0.836 -0.266,-0.562 -0.884,-0.926 -1.29,-2.748 -0.994,-3.156 -0.67,-0.308 -0.992,-1.048 -0.54,-0.9 -0.514,-1.206 -0.154,-1.434 0.05,-1.312 0.594,-0.584 -1.404,-1.482 -1.378,-1.968 0.508,-0.664 0.512,-0.292 4.084,2.298 0.272,-0.286 0.448,-1.14 -0.16,-0.384 -0.684,-0.264 -0.932,0.008 -0.232,-0.236 -0.36,-1.242 -0.314,-1.534 -0.134,-1.026 -0.052,-1.206 0.694,-1.816 0.38,-1.636 -0.592,-0.76 -1.678,0.046 -0.558,0.232 0.206,2.35 -0.534,1.614 -1.024,1.254 -0.734,-0.61 -0.566,-3.088 -0.74,-2.168 -0.278,-1.374 -0.212,-1.986 -0.3,-1.454 -0.544,-1.764 -0.072,-1.092 0.068,-0.81 0.414,-1.844 -0.314,-1.544 -0.384,-1.36 -0.024,-0.778 0.36,-0.962 0.324,-0.32 0.348,0.07 1.03,1.146 0.566,1.366 0.196,-0.11 0.368,-2.032 0.522,-0.46 2.014,-0.672 2.242,2.626 0.58,0.582 0.464,0.188 -0.24,-1.162 -0.146,-1.514 0.342,-0.574 1.81,1.354 0.848,-0.082 1.988,-1.772 3.286,-0.932 1.242,1.402 0.064,0.746 -0.026,1.002 -0.08,0.3 -0.726,1.162 -4.144,0.946 -2.716,3.606 3.704,-0.578 0.666,0.412 0.28,2.902 0.27,0.304 0.952,0.42 0.646,0.86 0.66,1.632 0.694,1.094 0.406,-0.136 0.148,-1.186 -0.166,-1.41 -0.086,-1.614 0.048,-1.75 0.112,-1.454 0.778,-1.028 1.13,-3.358 1.2,-2.296 1.336,1.022 1.238,2.864 1.116,4.042 1.082,4.262 1.212,5.206 0.584,1.816 0.53,0.428 2.448,5.294 0.276,0.146 -0.506,-4.016 -1.268,-6.914 -0.856,-5.412 -0.194,-2.092 -0.138,-2.962 0.054,-0.852 0.11,-0.774 0.62,-3.212 0.812,-1.572 -0.246,-2.228 0.208,-1.722 0.852,-1.368 0.792,-0.1 0.77,1.04 1.474,3.666 z m 88.344,-6.872 -5.324,1.23 -0.538,-0.862 8.628,-3.616 0.446,-0.354 1.602,-0.452 1.376,0.824 -0.408,0.636 -5.782,2.594 z m -77.37,-6 -1.216,1.838 -2.036,-1.414 0.242,-1.456 0.484,-0.888 1.278,0.334 1.248,1.586 z m 12.102,1.696 0.564,0.368 3.092,-0.134 0.592,0.808 0.234,1.954 0.472,0.668 0.658,0.208 1.642,2.374 0.558,0.34 0.486,-1.316 0.372,-3.298 0.02,-3.912 -0.158,-1.912 0.184,-1.232 0.55,-0.48 0.692,0.128 0.676,-0.688 0.584,-1.216 0.626,-0.168 1.366,0.924 0.36,0.724 -0.366,1.492 -0.142,2.118 -0.618,4.332 1.34,0.266 1.878,-0.912 0.476,-1.252 1.01,-2 1.068,0.316 0.512,-0.266 0.258,-0.874 0.098,-1.042 0.59,0.174 0.808,2.006 0.376,0.31 0.688,-0.516 0.278,0.02 0.68,0.798 3.168,1.446 1.098,0.77 0.472,0.718 0.478,0.422 3.37,-0.01 2.38,0.508 0.878,1.132 0.736,2.16 0.282,4.926 -0.666,1.318 -4.82,5.938 -1.208,1.886 -0.584,1.728 -0.986,3.746 -0.478,1.124 -2.256,1.764 -0.528,0.188 -1.696,-0.862 -0.518,0.08 -2.062,1.91 -0.71,1.15 -0.696,1.444 -1.04,0.634 -1.06,-0.34 -4.8,-0.75 -0.642,-1.014 -0.526,-1.956 0.954,-2.52 -5.354,0.94 -5.896,-0.51 -0.312,-0.356 -0.252,-0.978 -2.028,-0.67 -1.524,-0.806 -1.28,-1.362 -1.266,-1.776 0.406,-0.834 0.416,-0.488 1.088,-0.206 0.966,0.248 1.72,-0.014 0.4,-1.806 0.684,-0.522 0.546,-1.302 -1.816,-0.824 -1.892,-0.124 -1.262,1.084 -1.462,0.49 -1.336,0.064 -2.57,-0.306 -1.218,-0.77 -1.666,-2.02 -0.58,-1.12 -0.224,-0.882 -0.166,-1.34 1.904,-1.208 0.74,-0.952 0.728,-1.306 -2.876,-0.746 -1.204,-1.102 -1.194,-1.626 0.968,-0.92 3.872,-0.736 1.026,0.616 1.016,1.186 1.126,0.728 1.088,-1.534 -1.024,-0.728 -0.916,-2.572 -0.194,-1.286 0.122,-0.99 0.48,-0.148 0.358,0.43 1.352,2.432 1.026,0.754 0.288,-2.24 0.046,-1.072 -0.188,-0.888 -0.482,-1.644 -0.432,-2.032 0.668,-0.518 0.662,0.224 1.42,1.396 1.432,0.978 0.654,0.984 1.22,2.44 1.148,1.62 z" title="Svalbard and Jan Mayen" id="SJ"></path></svg>