<svg xmlns="http://www.w3.org/2000/svg" viewBox="0 0 62.42 49.20"><path d="m 55.08,13.52 -0.362,0.722 -0.116,0.514 -0.036,0.432 0.022,0.25 0.04,0.16 0.018,0.038 0.016,0.026 0.016,0.018 0.018,0.006 1.044,0.004 0.006,0 0,0 -0.006,0.23 0.042,1.144 0.036,1 0.06,1.634 0.002,0.426 -0.04,0.53 -0.124,0.21 -0.296,0.3 -0.374,0.274 -0.944,0.07 -0.788,-0.01 -0.558,-0.06 -0.764,-0.024 -0.718,0.058 -0.264,0.232 -0.388,0.818 -0.56,1.186 -0.296,0.502 -0.076,0.292 0.088,0.174 0.37,0.252 0.816,0.356 0.934,0.208 0.696,0.09 0.474,0.098 0.366,0.108 1.326,0.908 0.424,0.422 0.238,0.374 0.056,0.398 0.19,0.402 0.766,0.794 0.442,0.458 1.15,0.588 0.442,0.666 0.426,0.322 0.404,0.348 0.216,0.518 0.498,1.502 0.336,0.788 0.344,0.644 0.136,1.046 0.272,0.468 0.28,0.57 0.464,0.516 0.494,0.392 0.09,0.106 -1.032,1.01 -1.158,1.132 -1.338,1.312 -1.458,1.424 -1.142,1.128 -1.126,1.112 -1.316,1.314 -0.972,0.97 -0.162,0.136 -0.282,0.18 -0.926,0.004 -0.956,-0.114 -0.88,-0.59 -0.894,0.458 -0.566,0.144 -0.338,0.052 -0.798,0.074 -1.118,0.246 -0.506,0.306 -0.274,0.242 -0.226,0.446 -0.114,0.046 -0.206,-0.052 -0.286,-0.18 -0.598,-0.258 -0.302,-0.568 -0.276,-0.342 -0.23,-0.18 -0.948,0.566 -0.46,0.132 -0.376,-0.016 -0.688,-0.318 -0.76,-0.272 -0.392,0.002 -0.586,0.34 -0.666,0.508 -0.342,0.502 -0.166,0.298 -0.122,-0.238 -0.112,-0.222 -0.224,-0.284 -0.322,-0.112 -0.292,0.056 -0.342,0.056 -0.154,-0.162 -0.032,-0.39 -0.094,-0.36 -0.16,-0.27 -0.492,-0.27 -1.268,-0.548 -0.974,-1.094 -0.49,-0.508 -0.358,-0.328 -0.508,-0.86 -0.578,-0.592 -0.7,-0.276 -0.462,0.136 -0.476,0.634 -0.898,0.596 -0.412,0.02 -0.528,-0.322 -0.664,-0.23 -1.19,-0.1 -0.492,0.282 -0.644,0.456 -0.546,0.272 -0.338,0.032 -0.316,-0.11 -0.358,-0.058 -0.31,-0.01 -0.636,-0.416 -0.33,-0.306 -0.22,-0.294 -0.36,-0.2 -0.42,-0.168 -0.3,-0.262 -0.15,-0.328 -0.238,-0.42 -0.308,-0.378 -0.972,-0.68 -0.29,-0.402 -0.204,-0.392 -0.396,-0.432 -0.426,-0.578 -0.136,-0.846 -0.018,-0.682 -0.09,-0.316 -0.18,-0.316 -0.21,-0.268 -0.338,-0.3 -0.792,-0.438 -0.82,-0.508 -0.392,-0.296 -0.746,-0.108 -0.446,-0.29 -0.374,-0.638 -0.15,-0.51 -0.378,-0.398 -0.162,-0.288 -0.09,-0.332 0.3,-1.01 -0.434,-0.358 -0.646,-0.464 -0.464,-0.508 -0.282,-0.466 -0.83,-0.616 -1.808,-0.922 -1.044,-0.588 -0.57,-0.528 -0.498,-0.518 -0.05,-0.212 0.322,-0.516 0.048,-0.426 -0.264,-0.468 -1.084,-0.884 -0.864,-0.972 -0.654,-0.304 -1.576,-0.27 -0.452,-0.108 -0.472,-0.186 -0.466,-0.438 -0.158,-0.518 0.228,-0.83 -0.146,-0.254 -0.266,-0.07 0,0 0.072,-0.172 0.298,-0.404 0.486,-0.262 1.302,-0.41 0.072,-0.158 0.026,-0.518 0.106,-0.254 0.448,-0.72 0.064,-0.286 0.02,-0.612 0.06,-0.29 0.13,-0.206 0.356,-0.356 0.124,-0.218 0.054,-0.47 -0.038,-0.928 0.182,-0.368 0.82,-0.844 0.22,-0.378 0.074,-0.338 -0.008,-0.344 0.05,-0.34 0.244,-0.328 0.208,-0.102 0.604,-0.104 0.412,0.066 2.88,-0.578 0.338,0.078 0.15,0.342 -0.014,0.548 0.05,0.266 0.154,0.188 0.458,0.26 0.316,0.436 0.17,0.16 0.462,0.298 2.142,2.488 0.604,0.236 0.586,-0.086 1.164,-0.516 0.582,-0.13 4.072,0.146 0.456,-0.078 0.028,0.012 0.62,1.248 0.294,0.284 4.466,0.014 -0.084,-0.356 0.056,-0.396 0.522,-0.51 0.264,-0.254 0,0.002 0.112,-0.092 0.69,-0.366 0.674,-0.244 1.296,-0.286 0.472,-0.452 0.262,-0.412 0.008,-0.814 0.172,-0.134 0.308,-0.188 1.498,-0.728 0.254,-0.154 2.648,1.69 1.484,1.338 0.09,0.066 0.078,0.024 0.078,-0.046 0.066,-0.062 0.108,-0.04 0.072,-0.018 0.636,-0.018 1.202,-0.066 0.396,-0.16 2.414,-2.39 0.614,-0.762 0.154,-0.156 0.35,-0.542 0.368,-0.936 0.074,-0.106 2.646,-2.244 0.092,-0.178 0.026,-0.142 -0.4,-0.756 -0.086,-0.384 -0.016,-0.592 0.078,-0.92 -0.028,-0.582 -0.01,-0.068 -0.026,-0.09 -0.018,-0.034 -1.476,-1.656 3.73,-0.016 0.008,-0.138 -0.004,-0.072 -0.01,-0.066 -0.07,-0.198 -0.042,-0.266 -0.002,-0.072 0.006,-0.074 0.02,-0.136 0.002,-0.074 -0.004,-0.036 -0.006,-0.032 0.002,-0.03 0.016,-0.024 2.68,0.034 -0.036,0.47 -0.324,1.102 0.006,0.66 -0.078,0.756 -0.018,0.06 -0.074,0.164 -0.064,0.092 -0.074,0.09 -0.02,0.034 -0.024,0.056 -0.002,0.082 0.556,4.216 -0.022,0.106 -0.02,0.068 -0.148,0.264 -0.038,0.086 -0.008,0.066 0.06,0.046 1.234,0.456 0.06,0.028 0.048,0.036 0.444,0.542 2.43,1.994 0.084,0.1 0.252,0.626 0.028,0.096 0.008,0.148 -0.006,0.116 -0.062,0.376 0.02,0.168 0.042,0.112 0.034,0.13 0,0.038 -0.004,0.034 z" title="South Sudan" id="SS"></path></svg>