<svg xmlns="http://www.w3.org/2000/svg" viewBox="0 0 59.13 92.78"><path d="m 59.12,23.68 0.002,2.636 0.002,2.63 0.002,2.622 0.002,2.616 0.002,2.61 0.002,2.602 0.002,2.596 0.002,2.592 0.002,0.856 -0.072,0.34 -0.03,0.048 -0.11,0.058 -1.334,-0.24 -0.584,-0.006 -0.82,0.184 -1.204,0.098 -0.776,-0.03 -0.54,0.444 -0.422,0.536 0.2,1.284 -0.046,0.422 -0.162,0.44 -0.366,0.378 -0.366,0.302 -0.218,0.264 -0.27,0.58 -0.202,0.27 0.018,0.364 -0.064,0.38 -0.22,0.2 -0.558,0.144 -0.362,0.17 -0.29,0.278 -0.194,0.2 0.102,0.266 0.142,0.364 0.08,0.57 0.056,0.334 0.276,0.272 0.168,0.194 0.058,0.238 -0.16,0.198 -0.684,0.412 -0.274,0.154 -0.314,0.21 -0.12,0.078 -0.5,0.392 -0.252,0.348 -0.122,0.288 0.006,0.4 0.254,0.596 0.278,0.506 0.106,0.382 0.064,0.418 -0.024,0.396 -0.144,0.346 -0.25,0.31 -0.942,0.586 -0.462,0.64 -0.372,0.78 -0.092,0.424 0.1,0.284 0.198,0.238 0.278,0.122 0.408,0.036 0.676,-0.13 0.63,-0.086 0.668,0.28 0.348,0.652 -0.134,0.476 0.252,0.864 0.224,1.042 -0.016,0.35 0.098,0.132 0.418,0.068 0.094,0.244 -0.138,1.826 0.194,0.51 0.28,0.364 0.316,0.19 0.32,0.244 0.164,0.168 0.368,0.04 0.414,0.332 0.112,0.442 -0.028,0.428 -0.24,0.924 -0.196,0.622 -0.24,-0.042 -0.488,-0.154 -0.596,-0.132 -0.732,-0.106 -0.696,0.254 -0.752,0.326 -0.236,0.242 -0.21,0.144 -0.332,-0.024 -0.304,0.042 -0.164,0.232 -0.276,0.258 -1.084,0.532 -0.228,0.194 -0.136,0.192 0,0.21 0.11,0.432 -0.002,0.538 -0.242,0.436 -0.28,0.292 -0.322,0.112 -0.266,0.062 -0.176,0.18 -0.566,0.988 -0.244,0.182 -0.498,-0.03 -1.428,1.478 -0.142,0.436 -0.522,0.618 -0.66,0.686 -0.59,0.332 -0.048,0.128 -0.158,0.13 -0.364,0.148 -1.26,0.836 -1.514,-0.034 -0.668,0.328 -0.65,0.144 -0.952,0.162 -0.284,-0.016 -1.22,0.068 -1.43,-0.024 -0.548,0.118 -0.514,0.316 -0.382,0.278 -0.054,0.094 0.056,0.116 -0.014,0.092 1,0.682 0.25,0.334 -0.252,0.324 -0.12,0.048 -0.014,0.02 -0.164,0.256 -0.586,0.768 -0.892,0.908 -0.456,0.26 -0.182,0.17 -0.238,0.602 -0.152,0.084 -0.614,0.078 -1.212,0.066 -1.678,0.196 -1.006,0.066 -0.626,-0.056 -0.88,0.416 -0.314,0.106 -0.192,0.036 -0.872,0.402 -0.724,0.626 -0.258,0.118 -1.02,0.266 -0.406,0.43 -0.186,0.036 -0.654,-0.568 -0.446,-0.514 -0.218,-0.522 -0.026,-0.166 -0.124,0.03 -0.358,0.232 -0.31,0.262 -0.142,0.5 -1.054,0.336 -0.902,0.29 -0.41,0.364 -0.632,0.18 -0.806,-0.074 -0.628,-0.148 -0.614,-0.05 0.294,-0.454 0.114,-0.338 0.028,-0.414 -0.044,-0.28 -0.368,-0.14 -0.232,-0.22 -0.528,-1.306 -0.542,-1.344 -0.764,-1.324 -0.832,-0.846 -0.602,-0.516 -0.192,-0.066 -0.31,-0.162 -0.216,-0.15 -1.104,-0.9 -1.144,-1.008 -0.294,-0.46 -0.572,-0.686 -0.64,-0.708 -0.332,-0.322 -0.154,-0.582 0.44,-0.526 0.472,-0.664 0.58,-0.442 0.752,-0.03 1.238,0.182 1.336,0.064 1.324,-0.138 0.342,-0.096 0.34,0.008 0.712,0.154 1.24,-0.034 0.64,-0.268 -0.69,-0.458 -0.742,-0.726 -0.694,-0.796 -0.422,-0.722 -0.386,-0.93 -0.356,-1.15 -0.218,-1.492 0.032,-0.846 0.112,-0.602 0.372,-0.984 -0.246,-0.576 0.054,-0.466 -0.036,-0.69 -0.12,-0.352 -0.482,-1.146 -0.098,-0.126 -0.426,-0.794 -0.188,-1.328 -0.482,-0.878 -0.774,-0.424 -0.44,-0.518 -0.162,-0.912 -0.306,-0.24 -1.216,-0.318 -1.016,-0.008 -0.738,-1.03 -0.948,-1.326 -0.882,-1.232 -0.564,-2.472 -0.324,-1.416 0.366,-0.43 0.724,-1.01 0.924,-1.936 2.082,-2.998 1.066,-1.538 2.126,-2.3 2.612,-2.832 1.472,-1.6 0.238,-2.92 0.252,-3.096 0.19,-2.346 0.236,-2.79 0.2,-2.336 0.144,-1.706 0.204,-2.422 0.174,-0.466 1.026,-1.906 0.08,-0.256 -0.19,-0.32 -1.464,-1.624 -0.456,-0.362 -0.264,-0.846 0.376,-0.474 -1.76,-2.736 -0.436,-0.336 -0.192,-0.334 -0.022,-0.496 -0.032,-1.9 -0.468,-2.99 -0.616,-3.496 2.068,-0.998 1.57,-0.76 2.004,-0.97 1.856,0.994 2.69,1.436 2.69,1.432 2.688,1.432 2.69,1.43 2.688,1.426 2.69,1.422 2.688,1.422 2.69,1.42 2.688,1.416 2.69,1.414 2.688,1.412 2.69,1.41 2.688,1.408 2.69,1.406 2.688,1.402 z" title="Chad" id="TD"></path></svg>