<svg xmlns="http://www.w3.org/2000/svg" viewBox="0 0 106.06 28.32"><path d="m 0.98,0.92 -0.41,0.072 -0.366,-0.166 -0.208,-0.442 0.462,-0.378 0.238,0.26 0.176,0.29 0.108,0.364 z m 97.386,22.236 0.452,0.048 0.276,-0.078 1.238,-1.126 0.324,-0.028 -0.032,0.862 0.318,0.388 -0.402,0.1 -0.764,-0.042 -0.174,0.494 0.77,0.632 0.384,0.086 0.312,-0.006 0.586,-0.144 0.468,-0.228 0.726,-0.528 0.436,-0.206 0.824,-0.008 0.43,-0.5 0.2,-0.154 0.482,0.022 0.438,0.196 0.262,0.454 0.138,0.552 -0.106,0.548 -0.292,0.534 -0.534,0.326 0.122,0.39 -0.142,0.198 -0.268,0.012 -0.228,-0.09 -0.336,-0.458 -0.404,-0.244 -0.968,0.016 -0.436,0.032 -0.076,0.35 -0.23,0.27 -0.24,0.148 -0.326,-0.064 -0.06,0.148 0.174,0.368 0.424,0.464 0.732,0.324 0.43,0.066 0.058,-0.618 0.52,-0.072 0.458,0.184 0.334,0.456 -0.272,0.15 -0.238,0.242 -0.05,0.312 -0.464,0.34 -0.278,0.038 -0.876,-0.168 -0.522,-0.382 -0.124,-0.272 -0.322,-0.102 -0.362,0.35 -0.388,0.076 -0.76,-0.292 -0.702,-0.468 -0.438,-0.176 -0.682,-0.112 -0.378,1.062 -0.522,0.452 -0.676,0.042 -0.324,-0.088 -0.18,-0.418 0.046,-0.446 0.11,-0.428 0.212,-0.436 0.132,-0.476 -0.056,-0.45 -0.244,-0.328 0.128,-0.59 -0.24,-0.46 0.084,-0.338 0.39,-0.232 -0.166,-0.204 -0.208,-0.052 -0.15,-0.268 -0.116,-0.324 0.152,-0.608 0.226,-0.584 -0.028,-0.658 0.382,-0.622 0.328,-0.696 0.244,-0.276 0.308,-0.042 0.134,0.194 0.066,0.378 -0.122,0.246 0.288,0.112 0.076,0.806 -0.18,0.332 -0.028,0.32 -0.374,0.682 0.108,0.548 0.758,0.24 z m 0.548,-0.432 -0.346,0.066 -0.108,-0.278 0.012,-0.368 -0.192,-0.292 -0.11,-0.324 0.096,-0.306 0.556,-0.036 0.574,0.098 0.146,0.518 -0.414,0.708 -0.214,0.214 z" title="French Southern and Antarctic Lands" id="TF"></path></svg>