<svg xmlns="http://www.w3.org/2000/svg" viewBox="0 0 79.35 54.80"><path d="m 78.76,39.7 -0.284,0.026 -0.682,-0.164 -1.358,-0.328 -1.166,-0.658 -0.762,-0.43 -0.12,0.058 -0.342,0.294 -0.234,0.362 -0.186,0.7 -0.298,0.824 -1.41,0.032 -1.202,0.062 -0.776,0.312 -0.76,0.43 -0.19,0.51 -0.164,0.662 -0.444,1.498 -0.402,1.364 -0.208,0.882 -0.306,0.604 -0.86,0.794 -0.974,0.534 -0.518,0.25 -0.228,0.312 -0.05,0.294 -0.184,0.09 -0.402,-0.052 -0.424,0.05 -0.932,0.308 -1.008,0.378 -1.208,0.376 -0.69,0 -0.274,0.084 -0.122,0.19 0.122,0.358 0.118,0.266 0.106,0.344 -0.284,0.278 -0.198,0.478 -0.154,0.84 -0.428,0.25 -0.688,0.408 -0.758,0.536 -0.196,0.11 -0.436,0.152 -0.434,-0.046 -0.394,-0.078 -0.428,0.138 -0.444,0.414 -0.206,-0.126 -0.104,-0.418 -0.222,-0.272 -0.694,-0.614 -0.594,-0.438 -0.256,-0.03 -0.544,0.114 -0.682,0.082 -0.554,-0.088 -0.44,-0.176 -0.678,-0.604 -0.248,-0.326 -0.186,-0.25 -0.462,0.068 -0.13,-0.272 -0.018,-0.32 0.128,-0.386 -0.038,-0.73 -0.26,-0.524 -0.296,-0.228 0.038,-0.16 0.13,-0.366 0.166,-0.32 -0.002,-0.632 -0.208,-0.686 -0.082,-0.994 0.052,-0.97 -0.282,-0.49 -2.312,-0.002 -2.056,0.038 -0.116,-0.112 -0.8,-1.226 -0.648,-0.932 -0.64,-0.55 -1.466,-0.678 -0.702,-0.284 -0.602,-0.518 -0.492,-0.57 -0.126,-0.78 -0.1,-0.256 -0.142,-0.208 -0.154,-0.092 -0.188,0.02 -1.704,-0.908 -0.684,-0.24 -0.644,0.192 -0.284,0.034 -0.56,-0.258 -0.644,0.35 -0.274,0.022 -0.384,-0.084 -0.318,-0.13 -0.858,-0.83 -0.72,-0.334 -0.518,-0.214 -0.998,-0.316 -1.062,-0.164 -0.546,-0.136 -0.392,-0.182 -0.102,-0.118 0.006,-0.304 -0.03,-0.4 -0.13,-0.292 -0.27,-0.35 -0.374,-0.262 -0.644,0.046 -0.966,-0.022 -0.74,-0.262 -0.588,-0.046 -0.708,0.05 -0.58,0 -0.414,0.192 -0.24,0.224 -0.152,0.684 -0.14,0.102 -0.242,0.05 -0.322,-0.036 -0.68,0.006 -1.174,-0.122 -1.474,-0.036 -1.11,0.346 -0.876,0.496 -0.836,0.558 -0.984,0.88 -0.29,0.392 -0.58,1.558 -0.258,0.224 -0.336,0.178 -0.34,0.032 -0.676,0.23 -0.892,0.38 -0.606,0.148 -1.558,-0.078 -0.092,-0.494 -0.28,-1.804 -0.136,-1.828 0.008,-0.844 0.164,-1.698 -0.014,-0.858 -0.066,-0.778 0.064,-0.764 0.126,-0.86 0.064,-0.876 -0.094,-0.612 -0.3,-0.494 -0.51,-0.612 -0.08,-0.364 -0.03,-0.404 -0.488,-0.046 -0.44,-0.418 -0.362,-0.228 -0.78,-0.254 -0.388,-0.012 -0.358,0.186 -0.262,0.374 -0.184,-0.59 0.006,-0.618 0.622,-1.278 0.39,0.374 0.474,0.15 0.604,0.022 0.594,-0.098 -0.116,-0.438 -0.276,-0.25 -0.344,-0.196 -0.122,-0.58 0.042,-0.602 0.162,-0.57 -0.186,-0.23 -0.28,-0.142 -0.65,0.016 -0.842,-0.15 -0.848,-0.066 -0.2,0.672 0.468,0.88 -0.396,-0.432 -0.376,-0.572 -0.524,-1.032 -0.338,-1.212 -0.06,-1.312 0.286,-1.086 0.368,-1.024 0.22,-1.314 0.304,-1.292 0.302,0.58 0.348,0.52 0.48,0.478 0.264,0.114 0.792,0.198 0.51,-0.074 0.542,-0.284 0.534,0.092 0.442,0.532 0.392,0.596 0.596,0.126 1.228,-0.43 0.584,-0.098 0.508,0.198 0.262,0.036 0.266,-0.034 -0.23,-0.528 -0.094,-0.514 0.308,-0.272 0.968,0.29 0.618,-0.192 0.158,-0.108 0.138,-0.134 0.074,-0.444 -0.03,-0.458 -0.08,-0.43 -0.18,-0.378 -0.446,-0.53 -1.726,-1.266 -0.582,-0.506 -0.484,-0.656 -0.308,-0.926 -0.25,-0.968 -0.232,-0.72 -0.602,-1.676 -0.234,-0.2 -0.294,-0.088 -0.714,-0.052 -0.724,0.122 -1.184,0.29 -0.678,-0.09 -0.314,0.178 -0.776,0.708 -0.364,0.604 -0.508,1.38 0.384,0.444 -0.008,0.292 -0.292,2.028 0.178,0.982 -0.064,0.072 -0.138,-0.228 -0.44,-1 -0.774,-1.224 -0.648,-1.878 1.138,-1.232 0.974,-0.876 0.796,-0.528 0.244,-0.128 1.09,-0.438 1.406,-0.396 1.038,-0.292 1.352,-0.25 0.444,-0.046 0.65,0.004 0.528,0.234 0.318,0.184 1.128,0.754 1.15,0.768 0.988,0.85 0.28,0.346 0.156,0.414 0.118,0.406 0.838,1.284 0.34,0.586 0.49,0.762 0.394,0.372 0.384,0.458 0.258,0.376 0.294,0.178 0.328,0.07 0.748,-0.12 0.9,-0.238 0.538,-0.1 0.24,0.014 1.484,0.084 1.336,0.076 1.648,0.094 0.49,0.088 0.588,0.082 0.292,0.012 0.26,-0.326 0.172,-0.178 0.134,-0.142 -0.028,-0.16 -0.208,-0.136 -0.328,-0.452 -0.188,-1.634 -0.118,-1.404 0.39,-0.438 0.45,-0.318 0.646,-0.958 0.348,-0.296 0.51,-0.246 1.708,-0.064 0.72,-0.188 0.232,-0.31 0.378,-0.788 0.126,-0.642 0.212,-0.294 0.254,-0.218 0.262,0.008 0.506,0.188 0.384,0.106 0.274,0.142 0.25,0.228 0.242,0.394 0.038,0.26 0.112,0.15 0.194,0.002 0.144,0.002 0.098,-0.056 0.062,-0.132 -0.048,-0.176 -0.33,-0.504 -0.726,-0.914 -0.474,-0.374 -0.236,-0.202 -0.058,-0.192 0.308,-0.29 0.298,-0.166 0.524,0.124 0.698,0.068 0.308,-0.146 0.318,-0.736 0.792,0.78 0.824,0.872 0.302,0.162 0.59,0.092 0.49,0.032 0.206,0.094 0.22,0.226 0.436,0.952 0.436,0.25 0.542,0.18 1.75,-0.016 0.538,0.048 0.438,0.446 0.274,0.184 0.118,0.158 -0.03,0.196 -0.108,0.25 -0.014,0.48 -0.028,0.372 -0.14,0.176 -0.042,0.164 0.116,0.144 0.81,0.352 0.274,0.378 0.206,0.168 0.048,0.236 -0.136,0.156 -0.38,-0.078 -0.186,0.248 0,0.444 0.272,0.416 0.08,0.38 -0.18,0.366 -0.21,0.516 -0.006,0.364 0.124,0.208 0.622,0.376 1.43,0.948 0.33,0.04 1.354,-0.22 0.63,-0.022 0.372,0.148 1.048,0.134 0.332,0.152 0.356,0.01 0.484,-0.044 0.328,-0.424 0.168,-0.096 0.148,-0.07 0.298,-0.01 0.828,0.27 0.874,0.568 0.576,0.518 0.286,0.468 0.36,1.012 0.436,1.554 0.524,1.046 0.616,0.542 0.432,0.996 0.376,2.166 0.232,0.442 0.238,0.23 0.704,0.624 1.438,1.032 0.848,0.608 1.312,0.968 1.204,0.886 1.206,1.364 0.24,0.2 1.06,0.736 1.18,0.752 0.826,-0.17 1.244,1.156 0.506,0.428 0.214,0.146 0.902,0.456 1.436,0.952 1.812,1.36 1.2,0.786 0.324,0.092 0.324,-0.004 0.346,-0.168 0.376,-0.132 0.64,0.174 0.694,0.314 0.442,0.238 0.508,0.344 0.402,0.328 0.304,0.15 1.038,0.286 0.178,0.17 0.114,0.19 0.018,0.198 -0.584,1.036 -0.078,1.318 -0.004,0.99 0.07,0.762 z m -75.286,-10.33 -0.052,0.336 -0.304,-1.012 -0.152,-1.118 0.194,-0.316 0.218,0.018 -0.208,0.404 0.304,1.688 z" title="Turkmenistan" id="TM"></path></svg>