<svg xmlns="http://www.w3.org/2000/svg" viewBox="0 0 7.75 7.15"><path d="m 6.46,0.84 -0.306,0.056 0.036,-0.226 0.536,-0.39 0.82,-0.264 0.208,-0.01 -0.118,0.35 -1.176,0.484 z m -1.436,5.926 -0.91,0.318 -2.372,0.076 -0.982,-0.116 -0.754,0.09 1.374,-0.694 0.162,-0.292 0.584,-0.054 0.166,-0.088 0.194,-1.534 -0.076,-0.366 -0.116,-0.202 -0.236,-0.146 -0.53,-0.198 -0.088,-0.106 0.334,-0.17 0.712,-0.094 0.532,-0.184 1.102,-0.038 0.536,-0.164 0.902,-0.046 -0.444,0.706 -0.208,0.262 0.082,0.634 -0.102,0.43 0.118,0.544 0.27,0.358 -0.174,0.35 -0.026,0.532 -0.05,0.192 z" title="Trinidad and Tobago" id="TT"></path></svg>