<svg xmlns="http://www.w3.org/2000/svg" viewBox="0 0 101.03 67.31"><path d="m 90.28,45.62 -0.204,0.092 -1.962,-0.128 -1.602,0.174 -1.142,1.294 -0.68,-0.004 -0.958,0.336 -0.65,0.418 -0.77,0.904 -0.596,-0.406 -0.73,0.012 -0.712,0.246 -0.856,0.604 -0.476,0.106 -0.952,-0.172 -1.11,0.346 -2.396,1.974 -0.806,1.438 -0.294,0.28 -0.404,0.35 -0.432,0.176 -0.228,-0.016 1.142,-1.02 0.35,-0.382 0.06,-0.282 0.006,-0.458 -0.346,-0.568 -0.934,1.406 -0.53,0.204 -0.674,0.422 -0.034,0.938 0.078,0.696 0.276,0.874 0.652,1.426 1.332,2.03 0.638,0.744 0.468,0.296 0.564,0.042 1.084,-0.626 0.462,-0.098 1.008,0.238 0.36,-0.416 0.524,-0.232 0.672,-0.03 0.768,0.188 0.832,0.316 -0.342,0.714 -0.356,0.568 -0.126,0.628 -0.198,0.698 -0.918,0.312 -0.982,-0.038 -1.036,0.202 -0.374,-0.27 -0.248,-0.248 -0.46,-0.248 -0.606,-0.136 -0.544,0.166 -0.644,0.95 -1.14,0.648 -0.376,0.74 -1.122,-0.166 -0.96,0.13 -1.386,0.674 -1.056,1.44 -1.164,0.898 -0.922,0.284 -0.866,-0.088 -0.56,-0.268 -1.152,-0.944 0.068,-0.338 0.16,-0.17 0.218,-0.488 0.46,-1.792 -0.062,-0.584 -0.258,-0.918 -0.914,-0.716 -0.734,0.136 -0.418,-0.19 -1.506,-1.22 -0.82,-0.086 -0.906,0.246 -0.334,-0.178 -0.246,-0.426 1.796,-1.51 1.764,-1.25 0.774,-0.128 1.044,-0.584 1.116,-0.876 -0.158,-0.69 -0.24,-0.512 -0.534,0.14 -0.388,0.17 -0.934,-0.548 -0.342,-0.404 -1.462,0.42 -0.814,-0.062 -1.796,0.386 -0.826,-0.376 -1.65,-1.056 -0.62,-0.212 -0.528,0.046 -0.288,-0.348 0.352,-0.174 0.41,-0.02 0.426,-0.128 0.12,-0.184 -0.026,-0.348 -0.858,-0.264 -0.798,-0.076 -0.506,-0.312 -0.386,-0.358 0.904,-0.006 0.91,0.272 1.422,0.1 1.292,0.28 0.322,-0.348 0.75,-0.604 0.142,-0.192 -1.256,0.414 -1.274,-0.264 -0.464,-0.368 -0.394,-0.542 -0.166,-0.618 0.108,-0.576 -0.138,-1.042 -0.42,-0.93 -0.148,-0.51 -0.444,-0.458 0.436,1.036 0.162,0.688 0.262,0.632 -0.062,1.672 -0.162,0.586 -0.524,0.148 -0.688,-0.088 -0.7,-0.182 0.174,-0.918 -0.374,0.318 -0.526,0.894 -0.464,0.132 -1.03,-0.098 -1.912,0.59 -0.132,0.642 -0.288,0.866 -0.278,0.504 -0.086,0.304 -0.814,1.302 -0.104,0.124 -1.538,1.798 -0.196,0.134 -0.996,0.418 -0.59,0.366 -0.452,0.164 -0.764,-0.182 -0.318,0.258 -0.15,0.32 -0.002,0.662 0.388,0.474 0.318,1.574 -0.118,0.664 -0.302,-0.43 -0.474,-0.454 -0.92,-0.388 -1.01,0.134 -1.102,0.656 -0.748,0.244 -0.392,-0.168 -0.24,0.01 -0.084,0.188 0.018,0.154 0.12,0.12 -0.016,0.086 -0.156,0.054 -1.736,-0.462 -0.75,-0.438 -0.59,-0.822 0.294,-0.266 0.256,-0.118 0.904,-0.068 0.156,-0.084 0.016,-0.19 0.068,-0.248 -0.024,-0.362 -0.1,-0.384 0.396,-0.562 0.59,-0.464 0.346,-0.466 0.052,-0.684 0.622,-0.334 0.55,-0.574 0.136,-0.626 0.194,-0.394 -0.352,-0.906 -0.074,-0.598 -0.016,-0.502 0.172,-0.278 0.514,-0.314 0.54,-0.244 0.224,0.024 0.082,0.154 0.02,1.02 0.108,0.02 0.172,-0.126 0.282,-0.6 0.194,0.174 0.3,0.066 0.224,-0.156 0.146,0.018 0.18,0.154 0.36,0.218 0.336,0.072 0.278,-0.144 0.238,-0.26 0.254,0.088 0.482,0.708 0.224,-0.078 1.11,-0.142 0.178,-0.192 0.132,-0.174 -1.16,-0.94 0.058,-0.702 0.044,-0.806 -0.138,-0.48 -0.226,-0.38 -0.886,-0.442 -0.686,-0.458 -0.144,-0.208 -0.018,-0.268 -0.03,-0.416 -0.272,-0.358 -0.022,-0.304 0.172,-0.474 0.042,-0.504 -0.058,-0.2 -0.16,-0.164 -0.308,-0.016 -0.406,-0.292 -0.278,-0.394 -0.748,-0.568 -0.228,-0.092 -0.14,-0.282 -0.068,-0.336 0.158,-0.418 0.198,-0.646 0.138,-0.606 0.002,-0.362 -0.09,-0.896 -0.39,-0.686 -0.182,-0.09 -0.314,0.192 -0.358,0.162 -0.282,-0.152 -0.322,-0.372 -0.516,-1.038 -0.966,-0.208 -0.4,-0.05 -0.378,0.5 -0.118,-0.152 -0.106,-0.32 -0.2,-0.126 -0.264,0.148 -0.076,-0.142 0.114,-0.434 -0.314,-0.214 -0.742,0.004 -0.396,-0.16 -0.046,-0.326 -0.234,-0.214 -0.42,-0.104 -0.41,-0.266 -0.396,-0.43 -0.594,-0.28 -0.79,-0.13 -0.064,-0.046 -0.074,-0.062 -0.51,0.292 -0.306,0.232 -0.376,-0.144 -0.608,0.516 -1.236,0.026 -0.606,-0.032 -0.3,-0.128 -1.16,0.784 -0.122,0.288 -0.26,0.096 -0.73,0.156 -0.768,0.22 -0.162,0.758 -0.228,0.41 -0.412,0.6 -1.426,0.208 -1.232,0.292 -1.262,0.182 -1.654,0.732 -0.538,0.644 -0.532,0.18 -0.482,0.054 -0.312,-0.36 -1.05,-0.964 -0.404,-0.456 -0.532,-0.134 -0.578,0.076 -0.556,0.224 -0.584,0.042 -0.662,-0.324 -0.07,0.032 -0.254,0.044 -1.644,-0.392 -0.152,-0.066 -0.072,-0.016 -0.226,-0.03 -1.238,0.048 -1.154,-0.792 -0.354,-0.024 -0.274,0.32 -0.202,0.356 -0.796,0.354 -0.204,0.142 -0.116,-0.11 -0.054,-0.306 0.06,-0.272 -0.118,-0.256 -0.302,-0.292 -0.074,-0.122 -0.38,0.022 -0.104,0.028 -0.038,-0.006 -0.528,-0.248 -0.348,-0.598 -0.542,-0.318 -0.414,-0.108 -0.188,-0.258 -0.122,-0.342 -0.128,-0.258 -0.014,-0.026 -0.088,-0.392 -0.126,-0.04 -0.022,-0.01 -0.534,0.068 0.062,-1.378 0.854,-0.994 0.21,-0.502 0.32,-1.09 0.24,-0.512 0.288,-0.424 0.23,-0.41 0.082,-0.352 0.232,-0.04 0.68,0.318 0.61,0.164 0.168,-0.156 0.07,-0.204 -0.028,-0.158 -0.488,-0.47 -0.306,-0.3 -0.02,-0.184 0.11,-0.414 0.06,-0.464 -0.07,-0.504 -0.334,-1.118 -0.062,-0.476 0.318,-0.58 1.036,-1.384 0.346,-0.522 0.472,-0.63 1.282,-1.512 0.808,-0.882 0.548,-0.49 0.802,-0.85 0.352,-0.442 1.464,-0.288 0.182,-0.414 0.268,-0.452 0.208,-0.194 0.028,-0.762 -0.272,-0.934 -0.218,-0.33 -0.162,-0.226 0.106,-0.21 0.162,-0.06 0.2,-0.03 0.248,-0.226 -0.056,-0.246 -0.618,-0.6 -0.268,-0.462 -0.418,-1.192 -0.848,-1.24 -0.268,-0.402 -0.038,-0.38 0.124,-0.38 -0.118,-0.486 -0.3,-0.62 0.048,-0.068 -0.03,-0.766 0.214,-0.166 0.338,-0.112 0.476,0.038 0.408,0.118 0.488,0.35 0.152,-0.056 0.834,-0.66 0.86,-0.996 0.246,-0.578 0.214,-0.264 0.748,-0.14 0.652,-0.058 0.414,0.01 1.018,-0.098 0.602,-0.11 0.522,-0.176 1.126,-0.066 1.756,0.118 1.154,0.008 0.784,0.094 1.918,0.53 0.714,0.096 0.332,0.282 0.638,0.104 1.16,0.282 1.006,0.152 0.68,-0.062 0.38,0.08 0.72,1.25 0.148,0.146 0.288,0.03 0.588,-0.108 0.836,0.042 0.496,0.262 -0.072,0.742 0.13,0.108 0.232,-0.042 0.266,-0.418 0.224,-0.434 0.166,-0.136 0.854,0.294 0.39,-0.048 0.36,-0.33 0.22,-0.056 0.606,0.234 0.746,0.164 0.604,0.01 0.376,0.178 0.274,0.774 0.238,0.16 0.23,0.048 0.348,-0.692 0.316,-0.268 0.438,-0.198 0.282,-0.086 0.2,-0.246 0.268,-0.238 0.232,-0.02 0.188,0.092 0.216,0.33 0.316,0.752 0.384,0.754 0.268,0.274 0.692,-0.232 0.468,-0.236 0.858,-0.044 1.138,-0.166 0.87,-0.216 0.544,0.038 0.33,0.24 0.502,0.462 0.136,0.664 0.652,0.458 0.534,0.084 0.182,-0.476 0.312,-0.332 -0.118,-0.458 -0.052,-0.584 -0.234,-0.542 -0.156,-0.584 0.286,-0.836 0.312,-0.732 0.156,-0.398 0.494,-0.736 0.506,-0.526 0.758,-0.846 0.554,-0.28 0.5,0.128 0.278,0.116 0.718,-0.502 1.278,-0.026 1.064,0.064 0.108,0.016 0.524,0.26 0.55,0.22 0.38,0.014 0.452,-0.05 0.532,-0.294 0.37,-0.284 0.45,-1.444 0.16,-0.208 0.248,-0.114 0.406,-0.012 0.772,0.27 0.904,0.242 0.524,-0.034 1.396,-0.77 0.778,-0.12 0.924,0.18 0.908,0.01 0.684,-0.112 0.47,0.266 0.58,0.588 0.524,0.872 0.548,1.606 1.598,1.806 0.026,0.352 -0.13,0.226 -0.786,0.218 -0.664,0.118 -0.032,0.308 0.176,0.334 0.304,0.488 0.046,0.628 -0.016,0.576 0.13,0.508 0.254,0.208 0.032,0.254 -0.292,0.312 -0.082,0.192 0.114,0.104 1.442,0.06 0.706,0.302 0.536,0.276 0.27,0.026 0.608,-0.176 0.684,-0.112 0.414,-0.016 0.16,0.204 0.128,0.534 0.24,0.534 0.224,0.152 0.4,-0.026 0.24,0.026 0.128,0.202 -0.144,0.304 0.032,0.33 0.176,0.404 0.208,0.934 0.192,0.278 0.128,0.352 0,0.404 -0.16,0.352 -0.112,0.276 0.112,0.628 0.432,0.702 0.32,0.174 0.256,0.626 0.464,0.2 0.688,-0.526 0.528,-0.276 0.66,0.154 0.61,0.098 0.41,0.358 0.302,0.492 0.352,0.274 0.352,-0.144 0.734,0.144 0.336,0.398 0.336,0.224 0.432,-0.324 0.352,-0.4 1.288,-0.418 0.8,-0.104 0.224,-0.082 0.47,-0.3 0.496,-0.2 0.446,0.054 0.44,0.622 0.456,0.428 0.128,0.674 0.556,0.924 1.382,1.262 0.542,0.384 0.368,-0.068 0.192,-0.1 0.09,-0.132 0.084,-0.618 0.174,-0.228 0.28,-0.006 1.082,0.768 0.566,0.084 0.538,0.014 0.724,0.596 0.794,0.518 0.614,0.054 0.49,-0.204 0.336,-0.124 0.208,0.198 0.192,0.446 0.32,0.346 0.368,0.098 0.53,0.022 0.92,0.668 0.864,0.68 0.54,0.038 0.458,-0.2 0.404,-0.052 0.282,0.172 0.08,0.294 -0.208,0.394 0,0.564 0.384,0.54 0.012,0.53 -0.11,0.478 -0.218,0.44 -0.526,0.604 -0.486,0.562 -0.73,0.234 -0.41,0.246 0.108,0.412 0.268,0.384 0.62,0.31 0.704,0.226 0.082,0.25 -0.108,0.126 -0.452,0.116 -0.624,-0.118 -0.208,0.218 -0.288,0.362 -0.192,0.652 -0.144,0.604 0.678,0.164 0.394,0.246 0.124,0.494 0.14,0.55 0.042,0.494 -0.224,0.24 -0.014,0.246 0.106,0.122 0.292,0.054 0.222,0.11 0.018,0.26 -0.426,0.584 -0.398,1.116 -0.214,0.592 0.016,0.642 -0.24,0.356 -0.442,0.046 -1.5,0.062 -1.306,-0.032 -0.564,-0.092 -0.884,-0.056 -0.438,0.152 -0.58,1.024 -0.44,0.4 -0.726,0.362 -0.798,0.104 -0.458,0.42 -0.162,0.66 -0.012,0.584 -0.074,0.292 -0.172,0.256 -0.062,0.182 0.038,0.2 0.186,0.072 0.222,0.092 0,0.144 -0.086,0.182 -0.248,0.2 -0.112,0.308 0.026,0.328 0.046,0.362 z m -34.812,7.234 0.774,0.398 -0.79,-0.106 -1.734,-0.374 -0.766,-0.354 -0.198,-0.396 -0.112,-0.54 0.428,0.566 0.3,0.248 2.098,0.558 z" title="Ukraine" id="UA"></path></svg>