<svg xmlns="http://www.w3.org/2000/svg" viewBox="0 0 29.82 32.03"><path d="m 28.44,23.96 -0.276,0.25 -0.296,0.47 -0.348,1.134 -1.17,1.564 -0.238,0.886 -1.262,0.926 -0.89,1.044 -0.58,-0.026 -0.524,0.448 -3.014,1.36 -1.082,-0.256 -0.802,0.004 -0.744,-0.6 -1.698,-0.216 -1.066,0.24 -1.43,0.66 -0.432,-0.01 -0.31,-0.036 -0.774,-0.274 -0.422,-0.582 -2.202,-0.672 -1.77,-1.522 -2.092,-0.03 -1.604,0.2 -0.248,-0.202 -0.162,-0.388 -0.332,-0.564 -1.38,-1.338 -1.084,-1.324 -0.212,-1.3 0.15,-1.41 0.326,-1.666 -0.058,-0.52 0.402,-0.294 0.394,-0.06 0.382,-0.43 0.342,-0.648 0.058,-0.49 -0.264,-0.908 -0.184,-1.264 -0.218,-0.63 0.438,-0.99 0.018,-0.482 -0.252,-0.424 -0.068,-0.434 0.114,-0.446 -0.022,-0.426 -0.16,-0.41 0.12,-0.34 0.402,-0.27 0.302,-0.41 0.198,-0.554 0.102,-0.422 0.004,-0.292 -0.122,-0.274 -0.248,-0.258 0.116,-0.512 0.476,-0.768 0.31,-0.68 0.138,-0.592 -0.008,-0.48 -0.158,-0.362 0.066,-0.246 0.294,-0.13 0.132,-0.384 -0.044,-0.954 -0.304,-0.784 0.232,-0.622 0.664,-0.718 0.348,-0.578 0.028,-0.44 0.208,-0.254 0.318,0.476 0.944,0.126 0.952,0.016 0.154,-0.12 0.374,-0.778 0.492,-0.222 0.536,-0.058 0.586,0.04 0.624,0.514 1.766,1.686 1.296,1.174 0.394,0.554 0.344,0.416 0.256,0.386 -0.11,1.008 0.018,0.442 0.06,0.126 0.296,0.012 0.44,-0.074 0.37,-0.214 0.288,-0.324 0.282,-0.264 0.23,-0.14 0.082,-0.214 0.132,-0.222 0.134,-0.048 0.256,0.164 0.606,0.576 0.468,0.534 0.116,0.304 0.18,0.318 0.194,0.278 0.136,0.272 0.454,0.352 0.464,0.224 0.31,-0.23 0.786,0.736 1.73,0.614 0.318,0.372 0.3,0.53 0.604,0.802 0.838,0.724 0.674,0.306 0.648,0.174 0.362,0.16 0.248,0.278 0.394,0.298 0.25,0.112 0.084,0.268 0.256,0.586 0.268,0.742 0.29,0.69 0.63,0.664 0.712,0.516 0.738,0.292 0.414,0.364 0.18,0.376 -0.498,0.56 -0.54,0.706 -0.476,0.554 -0.492,0.388 -0.164,0.268 -0.11,0.414 0.006,2.204 -0.04,0.822 0.034,0.218 0.072,0.146 0.31,0.22 0.37,0.184 z" title="Uruguay" id="UY"></path></svg>