<svg xmlns="http://www.w3.org/2000/svg" viewBox="0 0 1.29 3.80"><path d="m 1,1.14 -0.166,0.09 -0.412,-0.384 0.05,-0.448 0.25,-0.246 0.236,-0.144 0.242,-0.016 0.084,0.37 -0.058,0.522 -0.226,0.256 z m -0.29,0.936 -0.09,0.062 0.042,0 -0.042,0.042 -0.028,-0.042 -0.044,-0.026 -0.056,-0.012 -0.066,0.002 0,-0.042 0.084,0.026 0.126,-0.026 0,-0.046 -0.038,-0.042 -0.016,-0.03 0.046,-0.044 0.156,-0.1 0.066,-0.052 0.008,0.022 0.002,0.02 0.008,0.02 0.024,0.02 -0.08,0.078 -0.102,0.17 z m -0.608,1.714 -0.056,0.002 -0.05,-0.02 0.014,-0.018 0.064,-0.014 0.03,-0.038 -0.01,-0.05 0.002,-0.056 0.05,-0.034 0.04,-0.002 0.018,0.022 0.01,0.052 -0.03,0.04 -0.034,0.032 -0.016,0.05 -0.032,0.034 z" title="Saint Vincent and the Grenadines" id="VC"></path></svg>