<svg xmlns="http://www.w3.org/2000/svg" viewBox="0 0 67.14 38.70"><path d="m 59.14,13.76 -2.83,1.036 -0.746,0.46 -0.678,0.568 -0.508,0.71 -0.356,1.246 0.27,1.138 -0.026,0.61 -0.73,0.404 -0.682,0.29 -0.758,0.444 -0.46,0.11 -0.376,0.352 -0.438,0.246 -1.578,0.64 -1.724,0.494 -2.74,0.592 -1.058,0.642 -0.962,0.44 -1.462,0.132 -2.008,0.61 -1.116,0.488 -1.386,0.794 -0.306,0.25 -0.244,0.584 -0.426,0.504 -0.834,0.826 -0.626,0.424 -0.418,0.022 -0.812,0.232 -0.962,0.048 -1.616,-0.29 -0.416,0.202 -0.342,0.322 -1.246,0.566 -1.266,1.13 -0.926,0.3 -1.498,0.354 -1.048,0.47 -0.704,0.188 -0.906,0.098 -1.678,-0.048 -1.59,0.17 -1.474,0.318 -0.692,0.602 -0.79,0.954 -1.29,0.394 -0.304,0.342 -0.398,0.702 -0.834,0.182 -0.756,0.118 -0.772,-0.306 -1.456,0.848 -0.55,0.14 -0.836,0.034 -0.594,0.178 -0.426,-0.05 -0.53,-0.332 -1.128,-0.402 -0.824,0.262 -0.07,-0.802 -1.366,-2.452 0.284,-2.138 0,-0.302 -0.272,-0.956 -0.814,-0.874 0.024,-1.108 -0.272,-0.792 -0.216,-0.816 0.07,-0.216 0.012,-0.196 -0.416,-1.258 -0.138,-0.254 -0.052,-0.264 0.136,-0.202 -0.004,-0.234 -0.22,-0.386 -0.234,-0.736 -1.11,-0.578 0.226,-0.542 0.216,0.19 0.292,0.162 0.06,-0.35 0.004,-0.262 -0.464,-1.638 0.688,-2.188 -0.226,-1.974 1.05,-0.798 0.264,-0.24 0.152,-0.21 0.248,-0.452 0.338,-0.146 0.12,-0.476 -0.01,-0.238 -0.218,-0.204 -0.164,-0.554 0.054,-0.704 0.054,-0.294 0.114,-0.538 0.368,-0.2 0.086,-0.16 -0.284,-0.34 0.026,-0.204 0.624,-0.57 0.246,-0.17 0.404,-0.176 0.316,0.002 0.364,0.1 0.326,0.16 0.316,0.29 0.334,0.33 0.512,0.126 0.348,-0.032 0.284,0.146 0.24,-0.08 0.272,-0.17 0.436,0.01 0.392,-0.192 1.116,-0.092 1.076,0.058 1.124,-0.16 1.122,0.012 1.132,0.012 0.25,0.024 0.246,0.1 0.954,0.504 0.724,0.104 1.454,0.138 1.55,0.148 1.344,0.126 1.14,-0.12 0.946,-0.098 0.256,0.016 0.286,0.312 0.57,0.778 0.538,0.732 0.942,0.04 0.604,-0.276 0.664,-0.388 0.406,-0.3 0.47,-1.192 0.304,-0.772 0.698,-0.87 0.584,-0.728 0.772,-0.966 0.428,-0.534 0.844,-1.056 0.806,-0.412 1.556,-0.794 1.526,-0.782 0.994,-0.51 0.846,-0.232 1.418,-0.2 1.666,-0.236 1.666,-0.236 1.778,-0.25 1.98,-0.28 1.358,-0.192 1.73,-0.246 1.44,-0.204 1.28,-0.18 1.318,-0.186 0.248,0.588 0.248,0.588 0.25,0.588 0.248,0.588 0.248,0.588 0.248,0.588 0.248,0.586 0.25,0.586 0.248,0.586 0.248,0.586 0.248,0.586 0.25,0.586 0.248,0.584 0.248,0.584 0.248,0.584 0.248,0.584 0.244,0.57 0.4,0.19 0.238,0.54 0.34,0.77 0.342,0.768 0.34,0.768 0.336,0.77 z m -58.91,7.806 -0.176,0.128 -0.054,-0.224 0.116,-0.504 0.184,-0.146 0.124,0.374 -0.08,0.206 -0.114,0.166 z m 1.106,7.678 -0.074,0.122 -0.102,-0.026 -0.348,-0.306 0.382,-0.342 0.204,0.318 -0.062,0.234 z m -0.178,1.536 -0.372,0.176 0.254,-0.456 0.26,-0.094 0.072,0.018 -0.214,0.356 z m 61.784,6.114 0.348,0.068 0.526,-0.198 1.508,-0.026 1.818,0.636 -0.344,0.166 -0.204,0.23 -0.798,0.21 -0.796,0.49 -2.304,0.238 -0.676,-0.132 -0.556,-0.474 -1.03,-0.616 0.406,-0.394 0.088,-0.18 0.152,-0.172 0.582,-0.298 0.582,0.048 0.698,0.404 z" title="Yemen" id="YE"></path></svg>