<svg xmlns="http://www.w3.org/2000/svg" viewBox="0 0 120.34 171.02"><path d="m 83.3,1.54 0.03,0.318 0.04,0.144 0.268,0.838 0.4,1.256 0.266,1.16 0.366,1.594 -0.012,0.89 0.09,0.344 0.328,0.43 0.402,0.74 0.136,0.418 0.134,0.314 0.424,0.596 0.33,0.904 0.28,1.198 0.24,0.576 0.09,0.284 0.108,0.516 -0.014,1.09 0.006,1.266 0.008,1.414 0.006,1.17 -0.042,0.592 0.03,1.686 -0.362,0.878 0.044,0.692 0.112,0.448 -0.148,0.07 -0.282,0.08 -1.296,-0.71 -1.264,-0.75 -0.182,-0.022 -0.266,0.078 -0.716,0.544 -0.67,0.852 -0.308,0.728 -0.494,0.752 -0.796,1.212 -0.082,0.262 -0.008,0.988 0.038,0.942 0.07,0.132 0.43,0.044 0.308,0.772 0.704,1.232 1.182,0.792 1.098,0.36 1.532,0.09 1.212,-0.026 -0.07,-0.832 0.12,-1.334 0.154,-0.896 0.17,-0.04 0.318,0.086 0.176,0.092 0.486,-0.038 0.864,0.176 0.698,-0.018 0.624,-0.018 1.054,-0.03 0.616,-0.01 -0.208,1.446 -0.804,2.27 -0.274,1.044 -0.686,3.742 -0.896,1.894 -0.502,0.784 -1.452,1.388 -0.404,0.282 -0.358,0.18 -0.636,0.16 -2.488,2.82 -0.926,1.364 -0.824,1.994 -0.818,1.098 -1.202,2.348 -1.074,1.818 -1.03,1.664 -1.782,2.296 -0.792,0.666 -0.534,0.304 -1.416,1.338 -1.994,2.16 -1.526,1.92 -2.282,2.188 -1.322,0.96 -1.984,1.894 -0.554,0.28 -2.236,1.766 -1.608,1.076 -2.602,1.25 -1.034,0.35 -2.47,-0.324 -1.03,0.172 -0.862,0.756 -0.08,1.088 -0.36,0.164 -0.544,-0.048 -1.726,-0.454 -0.936,0.086 -0.546,0.582 -0.44,0.736 -1.3,0.038 -2.316,-0.762 -2.724,-0.464 -0.63,-0.052 -1.32,0.566 -0.46,0.082 -1.922,-0.122 -1.066,-0.356 -1.02,-0.002 -0.782,0.294 -0.948,0.104 -2.562,2.05 -1.324,0.002 -1.142,0.238 -0.566,-0.008 -1.06,-0.288 -0.394,0.02 -0.604,0.128 -0.604,0.362 -1.376,0.156 -0.534,0.31 -2.324,1.882 -0.53,-0.076 -0.428,-0.122 -1.208,-0.024 -1.366,-1.002 -0.524,0.064 0.14,-0.3 0.042,-0.532 -0.29,-0.376 -0.194,-0.168 -0.536,0.032 -0.286,-0.452 -0.82,-0.042 -0.284,0.114 -0.394,0.024 -0.034,-0.458 0.03,-0.288 -0.024,-0.442 -0.098,-0.542 -0.318,-0.172 -0.244,-0.072 -0.58,0.038 -0.4,0.058 -0.188,0.158 -0.214,0.398 -0.002,1.208 -0.288,-0.346 -0.328,-0.724 -0.106,-0.772 0.118,-0.91 0.622,-0.346 -0.048,-0.614 -0.132,-0.532 -0.694,-1.36 -0.27,-0.622 -0.588,-0.42 -0.458,-1.012 -0.46,-0.366 -0.192,-0.708 -0.45,-0.564 -0.152,-0.892 0.248,-0.51 0.392,-0.28 0.4,0.442 0.498,-0.172 0.706,-0.644 0.418,-0.976 0.026,-1.558 -0.108,-0.97 -0.56,-2.5 -0.264,-0.574 -1.264,-1.782 -1.466,-2.378 -1.854,-3.73 -0.886,-2.232 -1.342,-4.48 -1.182,-2.522 -1.452,-2.344 -0.186,-0.152 0.222,-0.284 0.782,-0.54 0.354,-0.146 0.19,0.068 0.184,-0.148 0.178,-0.366 0.04,-0.342 0.088,-0.484 0.174,-0.29 0.192,-0.576 0.326,-0.37 0.69,-0.246 0.522,0.326 0.218,0.318 0.09,0.42 0.232,0.204 0.372,-0.014 0.262,0.258 0.152,0.532 -0.03,0.384 -0.212,0.24 0.03,0.314 0.27,0.39 0.112,0.372 0.18,0.492 0.948,0.286 0.464,0.16 0.798,0.054 0.754,0.22 0.71,0.384 1.168,0.092 1.626,-0.198 1.338,0.088 1.05,0.376 0.762,0.07 0.472,-0.238 0.206,-0.342 -0.064,-0.448 0.234,-0.282 0.53,-0.12 0.424,-0.336 0.32,-0.554 0.738,-0.45 1.158,-0.346 0.576,0.012 0,-0.894 0,-2.816 0,-2.802 0,-2.792 0,-2.782 0,-2.77 0,-2.758 0,-2.75 0,-2.586 0.27,0.186 1.778,1.372 0.48,0.722 0.238,0.458 0.764,1.666 0.568,1.498 0.462,1.132 0.036,0.518 0.066,0.506 0.066,0.25 -0.042,0.276 -0.326,0.618 -0.332,0.472 -0.4,0.646 -0.038,0.854 0.12,1.008 0.246,0.502 0.308,0.166 0.736,-0.25 0.466,0.078 0.658,0.192 2.156,-0.118 0.26,0.062 0.814,0.072 0.272,-0.084 0.244,-0.214 0.282,-0.604 0.252,-0.2 0.458,-0.102 0.542,-0.164 0.448,-0.348 0.71,-1.194 1.422,-1.058 0.436,-0.252 0.276,-0.284 0.24,-0.382 0.498,-1.328 0.376,-1.104 0.128,-0.52 0.336,-0.848 0.406,-0.542 0.398,-0.286 0.2,-0.072 0.512,-0.146 0.658,-0.136 0.692,0.152 0.742,0.328 0.838,0.552 0.858,0.684 0.394,0.348 0.426,0.156 0.758,0.054 0.496,-0.012 0.772,0.68 0.39,0.042 0.874,0.206 1.08,0.212 0.678,-0.024 0.728,-0.368 0.524,-0.016 0.678,0.03 0.746,-0.1 0.546,-0.158 0.418,-0.32 0.368,-0.35 0.424,-1.042 0.244,-0.836 0.376,-0.962 0.462,-1.302 0.166,-0.906 0.168,-0.25 0.672,-0.276 0.554,-0.19 1.496,-0.356 0.306,-0.19 0.28,-0.426 0.652,-0.722 0.804,-0.602 0.416,-0.344 0.76,-2.916 0.092,-0.36 0.552,-0.772 0.342,-0.326 0.22,-0.006 0.312,-0.204 0.406,-0.4 0.482,-0.248 0.558,-0.092 0.362,-0.266 0.166,-0.436 0.288,-0.212 0.41,0.012 0.234,-0.138 0.056,-0.29 0.248,-0.25 0.438,-0.206 0.228,-0.246 0.022,-0.282 0.522,-0.686 1.022,-1.09 0.962,-0.606 0.904,-0.124 0.858,-0.226 0.81,-0.33 0.594,-0.518 0.38,-0.704 0.654,-0.394 1.318,-0.116 0.072,-0.006 1.604,-0.28 1.342,0.228 1.618,0.644 1.514,0.228 1.412,-0.188 1.148,-0.042 0.882,0.104 0.696,0.224 0.5,0.348 z m -14.318,47.984 0.922,-0.41 0.416,-0.25 0.3,-0.206 0.388,-0.312 0.134,-0.758 0.114,-0.644 0.296,-0.318 0.304,-0.21 0.25,-0.334 0.31,-0.802 0.212,-0.784 0.022,-0.32 -0.11,-0.328 -0.198,-0.35 -0.194,-0.472 -0.234,-0.074 -0.458,-0.264 -0.674,-0.532 -0.584,-0.462 -0.548,-0.67 -0.224,-0.11 -0.53,-0.454 -0.228,-0.26 -0.16,-0.312 -0.15,-0.102 -0.238,0.08 -0.626,0.138 -1.342,0.544 -0.832,0.5 -0.7,0.596 -0.726,0.228 -0.532,0.198 -0.422,0.682 -0.394,0.636 -0.354,0.574 -0.204,0.258 -0.184,0.166 -0.186,0.368 -0.382,0.612 -0.35,0.41 -0.488,0.224 -0.63,0.29 -0.214,0.168 -0.03,0.248 0.224,0.576 0.216,0.556 0.354,0.652 0.26,0.478 0.41,0.584 0.24,0.342 -0.032,0.574 0.082,0.206 0.136,0.238 0.114,0.06 0.128,0.086 0.34,0.166 0.082,0.11 0.238,0.196 0.228,0.358 0.432,0.492 0.486,0.374 0.834,0.154 0.652,0.12 0.216,-0.074 0.222,-0.302 0.182,-0.384 0.058,-0.488 0.208,-0.26 0.782,-1.238 0.43,-0.458 0.264,-0.034 0.338,-0.088 0.432,-0.038 0.324,0.038 0.07,-0.014 0.508,-0.164 z m 51.19,121.342 -0.242,0.152 -1.134,-0.134 -0.122,-0.314 0.334,-0.484 0.198,-0.204 0.586,0.11 0.468,0.392 0.084,0.132 -0.172,0.35 z" title="South Africa" id="ZA"></path></svg>