<svg xmlns="http://www.w3.org/2000/svg" viewBox="0 0 43.69 39.57"><path d="m 34.04,39.92 -0.508,-0.344 -0.694,-0.224 -0.884,-0.104 -1.146,0.042 -1.412,0.19 -1.514,-0.23 -1.618,-0.644 -1.342,-0.228 -1.604,0.28 -0.072,0.006 -0.276,-0.218 -0.44,-0.47 -0.73,-0.084 -0.198,-0.108 -0.164,-0.176 -0.108,-0.224 -0.042,-0.25 0.12,-0.772 -0.066,-0.086 -0.194,-0.094 -0.402,-0.092 -0.962,-0.35 -1.212,-0.34 -1.966,-0.372 -0.764,-0.096 -0.178,-0.114 -0.22,-0.284 -0.378,-0.886 -0.354,-0.584 -0.846,-0.902 -0.134,-0.278 0.042,-0.716 0.062,-0.576 0.09,-0.488 -0.04,-0.458 -0.012,-0.568 0.026,-0.38 -0.114,-0.164 -0.306,-0.116 -0.874,-0.052 -1.056,0.022 -0.034,-0.576 -0.102,-0.892 -0.196,-0.512 -0.244,-0.266 -0.486,-0.278 -0.982,-0.38 -1.338,-0.578 -1.144,-0.856 -1.31,-1.062 -0.41,-0.184 -0.484,-0.996 -0.736,-1.704 0.048,-0.566 -0.112,-0.278 -0.716,-0.834 -0.158,-0.434 -0.126,-0.438 -1.138,-1.22 -0.388,-0.532 -0.296,-0.684 -0.294,-0.546 -0.248,-0.22 -0.324,-0.37 -0.224,-0.424 -0.104,-0.316 0.086,-0.422 0.11,-0.29 1.082,0.3 0.592,0.026 0.464,-0.148 0.572,0.2 0.684,0.548 0.744,0.106 0.806,-0.34 1.088,0.104 1.37,0.546 1.136,0.11 1.352,-0.488 1.206,-1.348 1.136,-1.266 1.116,-1.46 0.672,-1.178 0.986,-0.958 1.3,-0.738 1.324,-0.622 2.026,-0.762 0,0.002 0.404,-0.63 0.136,-0.684 0,-0.952 0.104,-0.616 0.212,-0.282 0.336,-0.218 0.434,-0.284 1.334,-0.722 1.118,-0.462 1.36,-0.304 1.49,-0.002 1.436,-0.004 0.816,-0.002 0.012,0.914 0.062,1.03 0.16,0.098 1.08,0.022 1.732,0.074 1.67,0.068 1.066,0.748 0.358,0.16 1.108,0.2 1.416,1.246 1.704,0.116 1.172,0.39 1.032,0.428 0.594,0.514 0.384,0.116 0.52,0.038 0.252,0.048 -0.054,0.37 -0.348,0.628 0.046,0.9 0.478,1.248 0.064,1.088 -0.146,1.918 0.004,1.862 0.05,0.666 0.078,0.44 0.102,0.242 -0.02,0.276 -0.284,0.784 -0.228,0.824 -0.008,0.33 -0.088,0.234 -0.17,0.206 -0.744,0.382 -0.126,0.236 0.002,0.428 0.094,0.36 0.28,0.132 0.336,0.204 0.132,0.268 0.002,0.284 -0.108,0.526 -0.3,0.87 0.3,1.004 0.334,0.652 0.462,0.752 0.192,0.466 -0.01,0.334 -0.07,0.326 -0.69,1.38 -0.498,0.86 -0.608,0.92 -0.804,0.578 -0.208,0.278 -0.082,0.316 0.028,0.692 -0.036,0.726 -0.688,1.114 0.426,0.96 -0.096,0.09 -0.232,0.136 -0.99,1.082 -1.002,1.098 -0.732,0.802 -0.832,0.912 -0.932,1.024 -0.798,0.878 z" title="Zimbabwe" id="ZW"></path></svg>