<svg xmlns="http://www.w3.org/2000/svg" width="27.04" height="21.13"><path d="m 26.54,2.6 0.368,0.502 0.052,3.402 0.084,0.242 -0.196,0.036 -0.22,0.258 -0.258,0.398 -0.354,0.206 -0.284,0.232 -0.268,0.288 -0.24,0.062 -0.31,-0.366 -0.214,-0.374 0.052,-0.082 0.15,-0.026 0.056,-0.194 -0.09,-0.28 -0.21,-0.106 -0.264,-0.008 -0.254,0.126 -0.27,0.248 -0.152,0.266 -0.022,0.534 0.07,0.6 -0.002,0.292 -0.148,0.362 -0.052,0.532 0.106,0.412 0.096,0.246 0.01,0.208 -0.252,0.656 0.218,0.124 0.722,0.046 0.212,0.444 0.144,0.304 -0.04,0.18 -0.512,0.134 -0.644,0.148 -0.462,-0.042 -0.836,0.2 -0.446,0.308 0.13,0.192 0.154,0.148 0.07,0.406 -0.13,0.576 -0.236,0.558 -0.294,0.696 -0.34,0.798 -0.466,1.2 -0.394,0.942 -0.042,0.678 0.01,0.442 -0.044,0.882 -0.374,0.486 -0.084,0.014 -0.446,-0.058 -0.15,-0.02 -0.426,-0.056 -0.66,-0.086 -0.858,-0.114 -1.014,-0.132 -1.13,-0.15 -1.208,-0.16 -1.25,-0.164 -1.248,-0.164 -1.21,-0.16 -1.13,-0.148 -1.014,-0.134 -0.856,-0.114 -0.66,-0.086 -0.426,-0.056 -0.15,-0.02 -0.472,-0.062 -0.254,-0.328 -0.308,-0.396 -0.31,-0.398 -0.308,-0.398 -0.308,-0.398 -0.308,-0.398 -0.308,-0.398 -0.308,-0.398 -0.308,-0.398 -0.308,-0.4 -0.308,-0.398 -0.31,-0.4 -0.308,-0.4 -0.308,-0.4 -0.308,-0.4 -0.308,-0.4 -0.308,-0.4 -0.208,-0.268 -0.114,-0.302 -0.022,-0.792 0,-0.174 0.208,-0.32 0.1,0.228 0.232,0.31 0.394,-0.076 0.184,0.052 0.136,1.098 0.29,0.39 0.352,0.156 1.194,0.086 0.742,-0.148 1.462,-0.716 0.768,-0.258 2.124,0.044 1.702,0.298 2.65,0.176 0.514,-0.046 1.43,-0.576 0.876,-0.508 0.522,-0.146 0.344,-0.492 0.226,-0.64 0.202,-0.418 0.258,-0.2 0.244,-0.356 0.198,-0.578 0.492,-0.584 1.972,-1.422 1.152,-1.204 0.102,-0.39 0.626,-0.584 0.502,-0.64 2.35,-1.832 0.47,-0.758 0.278,-0.85 0.034,-0.06 0.202,-0.036 0.288,0.128 0.03,0.636 -0.106,0.6 -0.012,0.636 -0.042,0.344 0.218,0.282 0.372,0.122 0.162,-0.014 0.096,-0.142 z m -0.092,2.566 0.034,-0.266 -0.058,-0.138 -0.24,-0.018 -0.1,0.23 -0.034,0.33 0.166,0.028 0.232,-0.166 z m -10.192,4.876 -0.05,0.12 -0.158,-0.01 -0.396,-0.108 -0.128,-0.172 0.248,-0.206 0.11,-0.01 0.158,0.216 0.216,0.17 z m -6.362,1.128 -0.416,0.034 -0.376,-0.232 0.794,-0.31 0.214,-0.14 0.232,-0.286 0.186,0.246 -0.206,0.386 -0.146,0.166 -0.282,0.136 z m -4.016,-0.182 -0.094,0.044 -0.1,-0.33 0.006,-0.104 0.258,-0.15 0.158,0.27 -0.228,0.27 z m 7.358,0.68 0.002,0.208 -0.57,-0.06 -0.152,0.108 -0.468,-0.06 -0.458,-0.15 0.31,-0.25 0.808,-0.294 0.336,0.268 0.192,0.23 z" title="United Arab Emirates" id="AE"></path></svg>