<svg xmlns="http://www.w3.org/2000/svg" width="31.43" height="25.55"><path d="m 21.36,0.36 0.516,0.434 0.894,1.176 1.274,1.908 0.312,0.54 0.206,0.624 0.178,0.754 0.292,0.666 1.292,1.674 0.558,0.618 0.91,0.796 0.324,0.178 0.424,0.05 0.782,0.002 0.72,0.312 0.356,0.218 0.368,0.316 0.33,0.366 0.332,0.972 -1.25,-0.32 -1.26,0.05 -0.71,0.208 -0.692,0.286 -0.662,0.402 -0.414,0.782 -0.348,1.804 -0.51,1.682 0.018,0.776 0.222,0.746 -0.026,0.352 -0.232,0.15 -0.292,0.316 -0.39,1.532 -0.194,0.306 -0.25,0.19 -0.068,-0.18 0.016,-0.402 -0.55,-0.354 -0.29,0.398 -0.202,0.842 -0.402,0.882 -0.02,0.168 0.1,2.718 -0.16,-0.012 -1.15,0.276 -0.24,-0.088 -0.984,-1.252 -0.204,-0.138 -0.424,-0.056 -0.25,-0.206 -0.202,-0.336 -0.116,-0.25 -1.018,-0.68 -0.15,-0.25 -0.022,-0.22 0.15,-0.198 0.172,-0.166 0.498,-0.17 0.58,-0.146 0.186,-0.106 0.094,-0.182 -0.006,-0.292 -0.094,-0.288 -0.834,-0.522 -0.092,-0.226 -0.026,-0.276 0.046,-0.29 0.13,-0.226 0.68,-0.308 0.364,-0.32 -0.226,-0.356 -0.734,-0.814 -0.872,-0.896 -0.582,-0.008 -0.67,0.264 -1.072,0.764 -0.592,0.326 -0.774,0.54 -0.842,0.6 -0.69,0.636 -0.43,0.526 -0.764,0.228 -0.39,0.44 -1.282,1.316 -0.36,-0.016 -0.022,-0.654 0.018,-0.518 -0.082,-0.298 -0.416,-0.41 -0.006,-0.176 0.112,-0.11 0.318,0.066 0.41,-0.024 0.196,-0.162 -0.438,-0.54 -0.39,-0.362 -0.33,-0.244 -0.074,-0.146 0,-0.104 0.07,-0.124 0.564,-0.298 0.056,-0.274 -0.038,-0.306 -0.896,-0.452 -0.67,0.166 -0.602,-0.508 -0.386,-0.392 -0.482,-0.422 -0.43,-0.232 -0.414,-0.53 -0.718,-0.546 -0.46,-0.156 0.006,-0.084 0.084,-0.1 0.192,-0.084 1.28,0.022 0.156,-0.098 0.08,-0.236 0.174,-0.348 0.204,-0.512 -0.016,-0.432 -1.286,-0.698 -0.932,-0.644 -0.646,-0.848 -0.438,-0.778 0.016,-0.262 0.126,-0.248 1,-0.718 0.068,-0.186 -0.022,-0.126 -0.358,-0.368 -0.448,-0.38 -0.14,-0.28 -0.282,-0.142 -0.536,-0.01 -0.94,-0.468 -0.2,-0.046 -0.044,-0.092 0.046,-0.094 0.67,-0.19 -0.01,-0.156 -0.204,-0.206 -0.378,-0.15 -0.348,-0.374 -0.12,-0.336 1.21,-0.984 0.358,-0.198 0.792,0.182 1.646,0.654 -0.112,0.362 0.166,0.204 0.378,0.276 0.726,0.28 0.614,0.144 0.31,-0.124 0.472,-0.104 0.614,0.324 0.566,0.41 0.282,0.166 0.152,0.05 0.43,-0.136 0.516,-0.528 0.204,-0.638 0.056,-0.308 -0.3,-0.424 -0.62,-0.46 -0.694,-0.404 -0.446,-0.358 -0.286,-0.706 -0.288,-0.078 -0.072,-0.092 -0.048,-0.242 0.012,-0.336 0.098,-0.26 0.282,-0.112 0.284,-0.04 0.256,-0.248 0.322,-0.486 0.136,-0.27 0.604,0.154 0.082,0.436 0.108,0.092 0.25,-0.052 0.416,-0.182 0.332,0.14 0.428,0.518 0.59,0.546 0.32,0.368 0.126,0.252 0.302,0.246 0.442,0.288 0.352,0.452 0.314,1.048 0.318,0.242 1.138,0.398 0.4,0.082 1.118,0.14 0.394,-0.1 0.576,-0.902 0.518,-0.93 0.484,-0.194 0.874,-0.45 0.524,-0.426 0.22,-0.46 0.494,-0.868 0.306,-0.486 z m -16.954,9.134 0.056,-0.244 -0.158,-0.11 -0.166,-0.006 -0.144,0.122 0,0.304 0.2,0.054 0.212,-0.12 z m -2.968,-3.038 -0.122,0.084 -0.186,-0.084 -0.056,-0.188 0.014,-0.198 0.184,-0.046 0.15,0.056 0.042,0.178 -0.026,0.198 z m 6.122,15.678 -1.082,-0.216 -1.946,-0.466 -0.536,-0.24 -0.506,-0.646 -0.302,-0.312 -0.446,-0.4 -0.368,-0.152 -0.278,-0.28 -0.158,-0.414 -0.234,-0.372 -0.4,-0.438 -0.91,-1.49 -0.118,-0.156 -0.19,-0.248 -0.084,-0.138 0.554,-0.114 0.922,-0.334 0.252,0.162 0.27,0.338 0.136,0.29 0.024,0.536 0.11,0.086 0.45,-0.18 0.202,0.216 0.346,0.258 0.6,0.256 0.864,-0.402 0.43,-0.104 0.354,0.008 0.192,0.126 0.068,0.416 -0.07,0.514 -0.1,0.282 0.182,0.204 0.708,0.494 0.294,0.274 -0.142,0.474 0.528,1.158 0.178,0.45 0.206,0.56 z" title="Azerbaijan" id="AZ"></path></svg>