<svg xmlns="http://www.w3.org/2000/svg" width="10.09" height="11.97"><path d="m 8.64,0.48 -0.112,0.146 -0.514,1.044 -0.1,0.158 0.056,0.096 0.22,0.198 -0.13,0.33 -0.05,0.088 -0.098,0.306 0.054,0.282 0.124,0.104 0.334,0.136 0.5,0.098 0.59,0.236 0.398,0.042 0.094,0.17 -0.018,0.302 0.096,0.262 0.002,0.47 -0.118,0.414 -0.608,0.194 -0.314,0.212 -0.084,0.108 0.076,0.124 0.04,0.166 -0.572,0.414 -0.588,0.538 -0.14,0.362 -0.118,0.43 -0.172,0.274 -0.448,0.396 -0.458,0.796 -0.224,0.516 -1.122,1.24 -0.998,0.62 -0.29,0.21 -1.766,-0.036 -0.134,-0.836 -0.268,-1.142 -0.608,-1.03 -0.064,-0.432 0.028,-0.832 0.002,-1.168 -0.04,-0.628 0.014,-0.458 0.076,-0.796 -0.01,-0.476 -0.398,-0.548 -0.496,-0.584 -0.272,-0.286 -0.014,-0.23 0.002,-0.214 0.08,-0.31 0.194,-0.346 0.218,-0.038 0.536,0.138 0.558,0.294 0.296,0.662 0.228,0.094 0.412,-0.002 1.054,-0.086 0.262,0.01 0.478,-0.158 0.476,-0.278 0.138,-0.288 0.11,-0.65 0.1,-1.166 0.244,-0.012 0.664,0.414 0.144,0.028 0.138,-0.014 0.232,-0.206 0.282,-0.168 0.21,0.004 0.772,-0.194 0.414,0.352 0.26,0.11 z" title="Burundi" id="BI"></path></svg>