<svg xmlns="http://www.w3.org/2000/svg" width="7.09" height="5.59"><path d="m 5.4,0.7 -0.458,0.244 -0.452,0.304 -0.452,0.262 -0.21,0.206 0.074,0.288 0.11,0.634 0.06,0.498 0.158,0.198 0.124,0.198 -0.05,0.216 -0.268,0.412 0.152,0.08 -0.194,0.546 -0.288,0.404 -0.398,0.33 -0.256,0.076 -0.206,-0.14 -0.336,-0.362 -0.366,-0.502 -0.17,-0.292 -0.526,-0.04 -0.188,-0.232 -0.012,-0.284 -0.148,-0.332 -0.208,-0.356 -0.308,-0.276 -0.414,-0.214 -0.176,-0.154 0.64,0.01 0.682,-0.09 0.702,-0.298 0.676,-0.36 0.568,-0.412 0.534,-0.464 0.558,-0.366 0.87,-0.426 0.292,0.034 -0.002,0.302 -0.114,0.358 z m 0,0 0.636,0 0.158,0.184 0.334,0.65 0.218,0.652 0.07,0.994 0.266,0.422 -0.042,0.086 -0.16,0.072 -0.248,0.03 -0.428,-0.096 -0.356,-0.146 -0.312,-1.076 -0.138,-0.608 0.012,-0.726 -0.01,-0.438 z" title="Brunei Darussalam" id="BN"></path></svg>