<svg xmlns="http://www.w3.org/2000/svg" width="68.20" height="76.81"><path d="m 64.46,60.44 0.112,-0.986 -0.114,-0.854 -0.114,-0.22 -1.65,-1.016 -1.498,-0.924 -1.96,-1.208 -2.528,0.034 -2.618,0.034 -2.494,0.54 -2.454,0.53 -1.164,0.252 -2.334,0.504 -1.374,0.232 -0.36,0.972 -0.538,1.46 -0.534,0.854 -0.616,0.898 -0.868,1.266 -0.002,1.54 0,1.466 -0.61,2.07 -0.52,1.76 -0.5,1.704 -0.344,1.178 -0.128,0.3 -0.08,-0.096 -0.444,-0.352 -0.396,-0.664 -0.108,-0.302 -0.05,-0.012 -2.38,0.02 -2.29,0.022 -0.234,0.14 -0.33,-0.002 -0.242,-0.13 -0.236,0.01 -0.342,0.128 -0.306,0.266 -0.874,1.768 -0.432,0.756 -0.322,0.678 -0.234,1.162 -0.098,0.194 -0.272,-0.402 -0.402,-1.062 -0.18,-0.606 -0.258,-0.686 -0.46,-0.862 -0.53,-0.26 -0.33,-0.086 -0.474,-0.164 -0.838,-0.206 -0.366,-0.042 -2.398,-0.028 -0.19,-0.022 -0.94,0.094 -0.476,-0.064 -0.5,-0.48 -1.114,-0.844 -0.224,-0.268 -0.428,-0.176 -0.254,-0.018 -0.156,0.166 -0.192,0.704 -0.228,0.636 -0.238,0.366 -0.796,0.27 -0.742,0.282 -0.408,0.066 -0.218,0.318 -0.096,0.446 -0.182,0.402 -1.072,0.606 -0.238,0.254 -0.124,0.598 -0.598,0.742 -0.184,0.29 -0.94,0.204 -1.222,0.22 -0.714,-0.014 -0.488,-0.058 -0.148,-0.134 -0.33,-0.21 -0.056,-0.234 -0.004,-0.332 0.092,-0.598 -0.046,-0.828 -0.384,-0.964 0.03,-0.31 -0.05,-0.472 -0.194,-0.886 -0.496,-0.446 -0.14,-0.736 -0.058,-0.646 -0.418,-0.808 -0.068,-1.028 0.01,-0.88 -0.656,-1.022 -0.684,-1.084 -0.552,-0.148 -0.136,-0.13 -0.06,-0.31 -0.012,-0.482 0.044,-0.292 0.426,-0.474 0.016,-0.072 -0.086,-0.1 -1.1,-0.708 -0.278,-0.206 -0.086,-0.252 0.008,-0.228 0.262,-0.232 0.134,-0.172 -0.258,-0.504 0.026,-0.456 -0.164,-0.196 0.018,-0.148 0.16,-0.126 0.714,-0.146 0.222,-0.462 0.008,-0.384 -0.108,-0.272 -0.66,-0.686 -0.014,-0.116 0.692,-0.954 0.496,-0.626 0.136,-0.128 -0.042,-0.136 -0.122,-0.166 -0.314,-0.24 -0.408,-0.264 -0.338,-0.32 -0.44,-0.474 -0.554,-0.406 -0.41,-0.404 -0.21,-0.336 -0.004,-0.344 -0.056,-0.57 -0.268,-0.924 -0.072,-0.624 -0.116,-0.69 -0.116,-0.45 -0.064,-0.434 -0.192,-0.47 -0.106,-0.344 0.154,-0.242 0.154,-0.188 -0.018,-0.118 -1.058,-0.502 -0.176,-0.128 -0.25,-1.004 -0.768,-0.892 -0.09,-0.664 0,-0.008 0,-0.26 -0.062,-0.418 -0.234,-0.326 -0.35,-0.226 -0.11,-0.268 0.116,-0.282 0.682,-0.558 0.366,-0.094 0.096,-0.284 0.222,-0.224 0.642,-0.82 0.378,-0.538 0.378,-0.324 0.438,-0.224 0.19,-0.188 -0.1,-0.578 0.03,-0.39 0.152,-0.246 0.438,-0.26 0.394,-0.198 0.084,-0.098 -0.034,-0.146 -0.362,-0.296 -0.746,-0.258 -0.494,0.026 -0.302,-0.228 -0.166,-0.194 -0.978,-2.392 -0.162,-0.558 0.012,-0.216 0.656,-1.18 0.266,-0.386 0.46,-0.556 -0.082,-0.22 -0.806,-0.922 -0.248,-0.438 0.006,-0.438 0.08,-0.53 0.468,-0.286 0.134,-0.432 0.098,-0.426 0.2,-0.14 0.204,-0.242 0.242,-0.348 0.376,-0.304 0.222,-0.232 0.048,-0.646 0.184,-0.176 0.514,-0.206 0.052,-0.166 -0.116,-0.434 -0.256,-0.458 -0.208,-0.224 -0.274,-1.124 -0.286,-0.558 0.12,-0.224 0.198,-0.284 0.192,-0.562 0.062,-0.654 -0.048,-2.404 0.012,-0.474 0.252,-0.33 0.37,-0.384 0.314,-0.146 0.296,-0.242 -0.022,-0.454 0.196,-0.268 0.242,-0.336 -0.75,-1.322 -0.66,-1.162 -0.618,-1.09 -0.716,-1.26 -0.47,-0.83 -0.586,-1.03 -0.514,-0.904 -0.702,-1.232 0.652,-0.022 1.314,0.044 1.272,0.22 0.862,0.096 0.36,0.188 0.08,0.302 0.238,0.14 0.276,-0.054 0.312,-0.02 0.698,-0.308 0.564,-0.206 0.486,-0.246 0.25,-0.24 0.606,-0.842 0.488,-0.464 0.45,-0.162 0.878,-0.068 0.278,0.132 0.358,-0.016 0.31,-0.478 0.472,-0.528 0.93,-0.658 0.472,-0.18 0.294,-0.23 0.504,-0.034 0.444,-0.24 2.142,-1.662 0.868,-0.428 0.54,-0.078 0.448,-0.102 0.76,-0.238 1.904,-0.232 1.222,-0.094 0.392,0.23 0.44,-0.066 0.374,-0.372 0.31,-0.12 0.228,0.01 0.328,0.44 0.16,0.468 -0.106,0.356 0.02,0.518 0.146,0.676 -0.082,0.604 -0.462,0.788 -0.232,0.322 -0.058,0.332 0.04,0.448 0.212,0.728 0.382,1.012 0.058,0.748 -0.268,0.486 -0.124,0.42 0.022,0.354 0.094,0.248 0.172,0.142 0.094,0.282 0.02,0.424 0.224,0.41 0.426,0.396 0.174,0.376 -0.08,0.36 0.022,0.226 0.124,0.088 0.116,-0.072 0.156,-0.1 0.138,0.036 0.3,0.502 0.038,0.102 0.162,0.416 0.05,0.314 0.438,0.176 0.474,0.138 0.262,0.164 0.524,0.498 0.44,0.328 0.552,0.268 0.182,0.43 0.338,0.648 0.93,0.248 1.084,0.124 0.692,0.142 0.844,-0.344 0.558,0.048 0.578,0.234 0.246,0.16 0.43,0.334 0.666,0.428 0.544,0.158 0.388,-0.238 0.358,-0.084 0.278,0.1 0.146,0.466 0.146,0.314 0.322,0.238 0.69,0.61 0.39,0.25 0.44,-0.018 0.908,0.402 0.968,0.39 0.5,0.064 0.492,-0.058 0.326,0.152 0.132,0.47 0.842,0.94 0.396,0.37 0.472,0.316 1.202,-0.006 0.36,0.094 0.536,-0.084 1.612,-0.16 0.292,-0.05 0.912,0.41 1.078,0.592 0.714,0.464 0.498,0.256 0.26,0.416 0.212,0.434 0.098,0.468 -0.13,0.464 -0.196,0.188 -0.066,0.3 0.082,0.45 0.358,0.402 0.132,0.494 0.196,0.876 0.22,0.276 0.142,2.714 -0.722,0.022 -1.018,0.032 0.298,0.26 0.842,1.012 0.774,0.934 0.124,1.5 0.076,0.946 0.11,1.336 0.064,0.798 1.934,0.072 2.228,0.082 2.678,0.1 2.354,0.088 0.232,-0.01 0.408,-0.108 0.272,-0.142 0.166,0.004 0.028,0.324 -0.056,0.408 0.002,0.47 -0.674,0.928 -0.042,0.292 0.102,1.224 0.238,0.992 0.12,0.896 0.27,0.28 0.798,0.474 1.206,0.876 0.482,0.114 0.408,-0.12 0.244,0.358 0.048,0.578 0.666,1.614 0.422,1.026 0.194,0.358 0.316,0.184 -0.06,0.134 -0.262,0.054 -0.118,0.192 -0.366,1.152 -0.482,1.518 -0.326,1.07 0.294,0.016 0.012,0.296 0.066,0.452 -0.362,0.056 -0.108,0.162 -0.416,0.878 -0.544,1.15 -0.564,1.192 -0.334,0.706 0.57,0.522 0.95,0.872 -0.15,0.242 -0.408,0.122 -0.342,0.084 -0.262,0.33 -0.146,0.242 z" title="Bolivia" id="BO"></path></svg>