<svg xmlns="http://www.w3.org/2000/svg" width="219.99" height="229.55"><path d="m 98.3,18.54 0.168,0.054 0.376,0.046 0.892,0.214 1.164,0.242 0.318,-0.084 0.19,-0.17 0.044,-0.498 0.036,-0.352 -0.262,-0.31 -0.326,-0.352 -0.3,-0.438 -0.36,-0.126 0.046,-0.226 0.234,-0.234 0.24,-0.128 0.138,-0.158 0.152,-0.584 0.1,-0.104 0.102,-0.026 0.12,0.022 0.238,0.152 0.916,0.464 0.402,-0.07 1.536,-0.122 0.232,-0.268 0.326,-0.06 0.552,-0.268 0.218,-0.018 0.196,0.064 0.246,-0.05 0.362,-0.25 0.152,-0.026 0.058,0.276 0.234,0.286 0.284,0.262 0.136,0.06 0.476,-0.084 0.25,0.074 0.108,0.244 0.032,0.212 0.2,0.18 0.256,0.004 0.136,0.074 0.234,0.116 0.198,0.266 0.46,0.212 0.786,0.296 0.366,0.004 0.34,0.09 0.208,0.09 0.226,-0.166 0.804,-0.458 0.392,-0.256 0.264,-0.194 0.198,-0.184 0.148,-0.048 0.1,0.11 0.086,0.148 0.288,0.086 0.672,0.172 0.308,0.048 0.432,-0.146 0.37,-0.25 0.176,-0.086 0.274,0.25 0.188,0.35 0.126,0.154 0.278,-0.036 0.55,0.054 0.406,0.112 0.252,-0.01 0.344,-0.156 0.186,-0.308 0.488,-0.282 0.464,-0.26 0.266,-0.346 0.394,-0.576 0.132,-0.246 0.028,-0.416 0.554,-1.208 0.21,-0.222 0.124,-0.382 0.222,-0.442 0,-0.37 0.162,-0.358 0.318,-0.308 0.234,-0.194 0.376,-0.52 0.262,-0.49 0.654,-1.086 0.05,-0.308 0.26,-0.184 0.086,-0.234 0.278,-0.29 0.292,-0.228 0.126,-0.338 0.214,-0.35 0.468,-0.262 0.174,-0.12 0.532,-0.964 0.06,-0.43 0.48,-0.016 0.754,0.498 0.602,0.734 0.806,2.358 0.134,2.178 0.326,1.14 0.938,2.376 0.06,0.44 0.15,0.532 0.296,0.564 0.328,0.928 0.012,0.172 -0.212,0.252 0.312,0.018 0.282,0.15 0.184,0.588 0.234,0.398 0.424,0.544 0.868,0.178 0.656,0.066 0.746,0.308 0.548,0.394 0.424,1.338 -0.138,0.84 0.042,0.592 -0.22,0.232 -0.614,0.388 -0.134,0.206 -1.254,1 -0.274,0.472 -0.672,0.634 -0.666,1.208 -0.974,1.104 -0.344,0.28 -0.526,0.064 -0.32,0.17 -0.756,0.902 -1.016,0.3 -0.094,0.522 -0.586,1.192 -0.518,0.652 -0.33,0.22 -0.83,1.188 -0.106,0.52 0.004,0.91 -0.554,0.554 -0.576,0.352 -0.072,0.778 -0.26,0.266 -0.222,0.172 -1.172,-0.204 -1.82,0.846 -0.622,0.21 1.986,0.042 0.638,0.45 1.398,-0.298 1.692,-1.072 0.646,-0.226 1.312,-0.728 0.534,-0.486 0.972,-0.582 0.208,-0.256 0.544,-0.272 0.296,0.346 0.024,0.218 -0.448,0.426 0.116,0.274 0.294,0.344 0.106,0.476 0.04,0.362 0.182,0.634 0.602,0.858 0.02,0.284 -0.084,0.374 0.288,0.308 0.298,0.182 1.024,0.924 0.8,-0.516 0.494,-0.15 0.314,-0.216 0.66,-0.144 0.54,0.216 1.03,0.31 0.754,-0.33 1.524,-0.756 -0.476,1.338 -0.346,1.228 -0.262,0.496 -0.26,1.336 -0.256,0.358 -0.208,0.408 0.34,-0.142 0.292,-0.194 0.374,-0.514 0.28,-0.894 1.104,-2.386 0.316,-0.212 0.918,-0.272 1.58,-1.908 0.618,0.006 0.396,0.438 0.374,0.26 0.096,-0.522 0.54,-0.212 -0.57,-0.258 -0.092,-0.234 -0.054,-0.39 0.388,-0.528 -0.232,-0.468 0.804,-0.588 -0.062,-0.442 0.288,-0.364 0.364,-0.376 0.412,-0.182 0.076,-0.322 0.26,-0.132 0.204,-0.048 0.402,0.36 0.436,-0.424 0.424,-0.166 0.19,0.074 0.238,0.188 0.25,0.08 0.202,-0.034 0.526,-0.272 0.486,0.438 0.292,0.096 -0.08,-0.246 -0.154,-0.228 0.12,-0.186 0.23,-0.116 0.728,0.104 0.382,0.196 0.414,0.362 0.574,0.026 0.452,-0.038 0.284,0.204 0.462,-0.002 0.232,0.318 0.704,0.446 0.152,0.302 0.566,0.146 0.532,0.186 0.566,0.05 0.572,-0.044 0.024,0.382 0.418,0.104 0.538,-0.084 0.406,0.47 1.086,0.354 0.752,0.542 0.494,-0.096 0.552,0.144 0.592,1.178 0.134,0.836 0.264,-0.116 0.246,-0.374 0.316,-0.684 0.594,-0.226 0.284,0.262 0.594,0.42 0.512,0.46 0.216,0.296 0.386,0.048 -0.322,0.364 0.324,-0.038 0.39,-0.258 0.334,0.536 0.252,0.584 0.05,0.594 -0.238,0.34 -0.208,0.214 -0.232,0.42 -0.274,0.076 -0.274,0.136 0.312,0.306 0.214,0.294 0.468,-0.796 0.33,-0.224 0.476,-0.124 0.248,0.566 0.052,0.536 -0.776,0.222 -0.002,0.422 -0.232,0.24 -0.152,0.276 -0.122,0.576 -0.158,0.478 -0.462,2.12 -0.008,0.35 0.564,-0.374 1.04,-1.08 0.316,-1.15 0.41,-1.134 0.446,-0.356 0.278,0 0.414,0.124 0.024,0.372 -0.064,0.214 -0.444,0.564 -0.188,0.308 0.182,0.304 1.006,-0.934 0.452,-0.328 0.384,0.066 0.762,-0.432 1.536,-0.09 0.116,-0.494 0.306,-0.21 0.844,0.056 1.644,0.44 0.586,0.36 0.878,0.334 0.462,0.398 1.93,0.732 1.402,0.078 0.694,-0.332 0.866,0.348 0.458,0.39 0.9,0.21 0.908,0.11 0.694,-0.28 1.792,-0.092 2.25,-0.414 1.342,0.098 1.52,0.27 1.084,0.694 0.912,0.392 0.552,0.386 0.89,0.402 1.898,1.078 0.666,0.624 1.176,0.848 1.182,0.356 0.638,0.888 0.506,0.4 1.252,1.5 1.42,1.05 0.95,1.05 1.824,0.676 0.712,1.116 1.234,0.136 0.526,0.166 0.64,0.47 0.878,0.262 1.144,-0.074 1.262,0.054 1.022,-0.22 2.416,0.418 0.38,0.206 0.5,0.474 0.882,1.77 0.526,1.964 0.26,1.502 0.602,1.168 0.328,2.196 0.28,0.692 0.022,0.534 0.238,0.12 0.16,1.484 -0.062,0.598 -0.232,0.778 -0.016,0.348 0.034,0.22 -0.102,0.326 -0.032,0.312 0.234,0.7 0.012,0.56 -0.314,0.68 -0.428,1.778 -1.072,2.95 -1.028,1.696 -1.438,1.752 -0.938,0.916 -0.372,0.094 -0.34,-0.182 0.242,0.484 -0.21,0.426 -0.952,1.292 -0.946,0.844 -0.982,1.468 -0.074,0.034 -1.258,0.568 -0.744,0.464 -0.952,0.844 -0.874,1.332 -0.18,0.17 -0.322,-0.094 0.01,0.676 -0.752,1.072 -0.23,0.158 0.006,-0.304 0.13,-0.232 0.06,-0.246 -0.004,-0.292 -0.21,0.212 -0.446,0.804 0.15,0.588 -0.322,0.89 -1.232,2.544 -1.508,2.142 -0.348,0.662 -1.238,1.446 -0.91,0.698 -0.256,0.004 -0.29,-0.06 -0.146,-1.112 -0.724,-0.672 -0.208,-0.118 -0.296,0.712 -0.248,0.196 -0.358,0.042 0.382,0.31 0.112,0.36 -0.39,0.72 -0.012,0.654 -0.696,0.722 -0.404,0.528 -0.204,0.662 -0.124,0.618 0.306,-0.168 0.146,0.13 0.114,0.192 -0.07,0.284 -0.224,0.538 0.034,1.338 -0.074,0.304 0.222,0.33 0.236,-0.562 0.136,0.158 -0.658,3.592 0.258,1.62 0.096,1.838 0.296,1.798 0.326,1.608 0.026,0.128 -0.45,1.87 -0.576,1.848 -0.346,1.51 -0.218,1.632 -0.218,0.786 -0.07,0.804 0.25,1.908 0.094,0.362 -0.698,0.852 -0.754,0.414 -0.416,0.412 -0.92,1.54 -0.5,2.28 -0.012,1.214 0.236,2.548 -0.176,1.042 -0.292,0.698 -0.344,0.458 -0.878,0.55 -0.788,1.342 -0.342,1.412 -0.54,0.516 -0.11,0.792 -0.434,0.856 -1.126,1.278 -0.732,0.372 -0.348,0.358 -0.222,0.75 -0.706,1.236 -0.52,1.606 0.136,0.546 0.008,0.084 0.19,1.86 -0.07,0.474 -0.686,0.514 -2.584,0.96 -0.688,0.398 -1.542,1.636 -0.096,0.386 0.064,0.552 0.252,0.318 -0.26,0.344 -0.308,0.618 -0.45,-0.038 -2.574,0 -1.392,0.196 -0.724,-0.038 -0.326,-0.148 -0.364,-0.242 -0.11,-0.318 0.198,-0.48 -0.118,-0.286 -0.382,0.01 -0.418,0.136 -0.072,0.286 0.03,0.206 0.156,0.298 0.086,0.368 -0.172,0.318 -0.816,0.042 -0.916,0.292 -1.144,0.122 -0.912,0.212 -0.42,-0.268 0.42,-0.134 0.604,0.064 0.648,-0.222 -0.152,-0.262 -0.916,-0.336 -1.018,0.206 -0.564,0.402 -1.234,-0.038 -1.512,0.306 -0.246,0.312 0.042,0.604 0.294,0.132 0.29,0.276 -0.278,0.258 -0.27,0.114 -1.596,0.282 -1.48,1.182 -0.618,0.148 -0.55,0.522 -0.056,0.446 -0.174,0.27 -0.352,0.014 -0.772,-0.244 -1.002,-0.006 -0.724,0.194 -3.698,1.922 -1.328,0.772 -1.514,1.574 -2.554,1.768 -1.342,1.058 -0.254,0.274 -0.212,0.014 -0.42,0.22 0.166,0.182 0.286,0.016 -0.118,0.618 -0.534,0.422 -1.002,1.11 -0.222,-0.082 0.318,-0.578 -0.492,-0.022 -0.724,-0.212 -0.314,0.238 0.174,0.572 -0.272,0.246 -0.494,0.028 -0.448,-0.068 -0.492,-0.418 0.222,0.758 1.04,0.184 0.432,0.178 0.162,0.292 -0.808,1.354 -0.676,0.176 -0.074,0.192 0.372,0 0.206,0.376 -0.242,1.516 -0.334,0.288 -0.196,0.008 -0.194,0.26 0.266,0.496 0.276,0.362 -0.038,0.704 -0.104,0.582 -0.006,0.566 0.348,1.096 0.126,1.126 0.14,0.41 0.08,0.456 -0.232,0.426 0.132,0.684 -0.396,1.166 0.208,1.684 -0.084,1.584 -0.156,0.834 -0.252,0.652 -0.584,0.84 -0.012,0.842 -1.258,0.786 -1.39,1.098 -1.284,1.304 -1.382,1.842 -1.612,2.812 -1.494,4.034 -1.798,3.064 -0.72,1.11 -0.972,1.244 -1.294,1.452 -1.732,1.456 -1.896,1.3 -0.684,0.586 -0.668,0.826 -0.166,-0.342 0.144,-0.564 -0.092,-0.422 -0.02,-0.546 0.382,-0.102 0.572,0.348 0.292,-0.236 0.212,-0.232 0.69,-0.146 1.316,-1.426 0.976,-0.526 0.55,-0.898 0.094,-0.476 -0.022,-0.966 0.312,-0.246 0.706,0.084 0.144,-0.276 -0.062,-0.304 0.138,-0.664 0.958,-0.588 0.454,-0.708 -0.152,-1.804 0.176,-0.082 0.394,0.28 0.186,-0.116 0.198,-0.79 -0.096,-0.41 -0.464,-0.108 -1.604,0.89 -0.522,-0.038 -0.086,-0.698 -0.78,-0.32 -0.304,-0.58 -0.09,-0.396 -0.27,-0.162 0.016,0.686 0.074,0.666 0.7,0.778 -0.17,0.31 -0.332,0.36 -0.232,0.802 0.026,1.042 -0.188,-0.318 -0.24,-0.184 -0.098,1.12 -0.464,0.43 -0.146,0.422 0.122,0.49 -0.24,0.338 -1.182,0.91 -1.178,0.622 -0.256,0.292 -0.126,0.696 -0.18,0.714 -0.522,0.63 -0.414,1.252 0.01,0.54 0.138,0.796 0.222,0.524 -0.352,0.35 -0.474,0.68 -0.376,0.768 -0.936,2.89 -0.806,1.75 -0.622,0.858 -0.886,0.906 -2.524,2.282 -0.152,-0.032 -0.37,-0.184 -0.31,-0.218 -0.07,-0.146 -0.036,-0.218 0.042,-0.822 -0.006,-2.204 0.11,-0.416 0.164,-0.268 0.492,-0.388 0.478,-0.554 0.54,-0.706 0.498,-0.56 -0.178,-0.376 -0.416,-0.364 -0.738,-0.292 -0.71,-0.516 -0.63,-0.664 -0.292,-0.69 -0.268,-0.744 -0.254,-0.586 -0.084,-0.268 -0.25,-0.112 -0.396,-0.298 -0.248,-0.278 -0.362,-0.16 -0.648,-0.174 -0.674,-0.306 -0.838,-0.724 -0.604,-0.802 -0.298,-0.53 -0.318,-0.372 -1.73,-0.616 -0.786,-0.734 -0.31,0.23 -0.462,-0.224 -0.456,-0.352 -0.136,-0.272 -0.192,-0.278 -0.18,-0.318 -0.116,-0.304 -0.468,-0.534 -0.606,-0.576 -0.256,-0.164 -0.136,0.048 -0.13,0.22 -0.084,0.214 -0.228,0.142 -0.282,0.264 -0.29,0.324 -0.37,0.214 -0.44,0.074 -0.296,-0.01 -0.06,-0.128 -0.016,-0.442 0.11,-1.006 -0.256,-0.388 -0.342,-0.416 -0.394,-0.554 -1.296,-1.174 -1.766,-1.686 -0.624,-0.514 -0.586,-0.04 -0.536,0.058 -0.494,0.222 -0.374,0.778 -0.154,0.12 -0.952,-0.016 -0.946,-0.126 -0.318,-0.474 0.252,-0.308 0.89,-0.684 0.492,-0.61 0.094,-0.534 0.426,-0.48 0.76,-0.424 0.846,-0.78 0.932,-1.136 0.568,-0.836 0.2,-0.54 0.366,-0.416 0.532,-0.292 0.464,-0.608 0.398,-0.924 0.542,-0.734 0.688,-0.544 0.386,-0.452 0.082,-0.358 0.194,-0.228 0.308,-0.1 0.148,-0.188 -0.01,-0.276 0.084,-0.188 0.176,-0.1 0.296,0.036 0.416,0.17 0.25,-0.032 0.086,-0.234 -0.11,-0.268 -0.306,-0.3 0.116,-0.326 0.804,-0.528 0.592,-0.2 0.376,-0.326 0.356,-0.518 0.578,-0.36 0.798,-0.204 0.212,-0.194 -0.03,-0.25 0.164,-0.18 0.472,-0.13 0.256,-0.244 0.042,-0.358 0.152,-0.332 0.262,-0.306 0.292,-0.114 0.322,0.078 0.302,-0.116 0.284,-0.31 0.34,-0.144 0.396,0.02 0.204,-0.068 0.68,-0.144 0.376,-0.26 0.308,-0.582 0.274,-0.224 0.24,0.13 0.414,-0.194 0.588,-0.518 0.112,-0.01 0.434,-0.242 0.448,-0.896 0.23,-0.598 -0.054,-0.49 -0.148,-0.35 0.05,-0.514 0.148,-1.394 0.04,-0.57 0.238,-0.396 -0.016,-0.392 -0.424,-0.88 -0.428,-0.772 -0.23,-1.306 -0.152,-0.496 -0.356,-0.132 -0.324,-0.432 -0.408,-0.038 -0.192,-0.166 -0.198,-0.136 -0.29,0.04 -0.248,0.252 -0.458,0.008 -0.29,0.104 -0.34,0.224 -0.324,-0.102 -0.204,-0.198 -0.438,-0.002 0.03,-0.886 0.772,-1.312 0.208,-0.61 -0.1,-0.346 0.23,-1.218 0.562,-2.084 0.18,-1.362 -0.204,-0.642 -0.006,-0.448 0.29,-0.38 0.14,-0.114 -0.724,-0.464 -0.39,-0.424 -0.5,-0.302 -0.538,-0.242 -0.26,0.102 -0.278,0.14 -0.538,0.222 -0.612,0.384 -0.316,0.14 -0.558,0.142 -0.63,0.122 -0.52,-0.08 -0.446,-0.082 -0.28,-0.242 -0.148,-0.526 0,-0.444 -0.092,-0.644 -0.334,-0.364 -0.112,-0.282 -0.018,-0.342 0.038,-0.382 0.092,-0.282 -0.056,-0.342 -0.148,-0.242 0.038,-0.422 -0.074,-0.584 -0.222,-0.362 -0.112,-0.42 0,-0.42 -0.166,-0.42 -0.018,-0.46 0.148,-0.42 0.056,-0.42 -0.166,-0.3 -0.316,-0.18 -0.242,-0.48 -0.038,-0.62 -0.26,-0.338 -0.278,-0.28 -0.316,0 -0.482,-0.16 -0.426,0.02 -0.688,-0.02 -0.316,-0.1 -0.166,-0.218 -0.426,-0.298 -0.242,-0.518 -0.296,-0.1 -0.428,0.16 -0.148,0.2 -0.166,0.28 -0.296,0.32 -0.39,-0.02 -0.408,0.18 -0.39,0.02 -0.52,0.04 -0.52,-0.16 -0.63,-0.18 -0.54,-0.12 -0.52,0.12 -0.352,-0.1 -0.464,-0.06 -0.52,-0.04 -0.408,-0.32 -0.446,-0.178 -0.242,0.06 -0.316,0.2 -0.334,-0.04 -0.428,-0.16 -0.166,-0.378 0.038,-0.24 0.092,-0.24 0.166,-0.338 -0.092,-0.358 0.038,-0.318 0.074,-0.278 0.074,-0.318 -0.056,-0.298 -0.018,-0.318 -0.038,-0.298 -0.056,-0.318 0.222,-0.456 0.186,-0.376 -0.112,-0.316 0.038,-0.218 0.148,-0.356 0.186,-0.436 -0.018,-0.812 -0.166,-0.474 -0.182,-0.128 -0.046,-0.142 0.088,-0.188 -0.096,-0.192 -0.038,-0.198 0.096,-0.172 -0.132,-0.34 -0.266,-0.098 -0.092,-0.098 -0.092,-0.376 -0.074,-0.434 0.038,-0.334 -0.13,-0.294 -0.186,-0.178 -0.186,-0.314 -0.186,-0.236 -0.074,-0.334 -0.124,-0.432 0.37,-0.08 0.146,-0.242 0.26,-0.328 0.342,-0.086 0.408,-0.12 0.15,-0.242 -0.95,-0.872 -0.57,-0.522 0.334,-0.708 0.564,-1.19 0.544,-1.152 0.416,-0.876 0.106,-0.162 0.364,-0.056 -0.066,-0.452 -0.012,-0.296 -0.292,-0.016 0.326,-1.068 0.482,-1.52 0.366,-1.15 0.118,-0.192 0.262,-0.054 0.06,-0.132 -0.316,-0.184 -0.194,-0.358 -0.422,-1.026 -0.666,-1.616 -0.048,-0.578 -0.244,-0.356 -0.408,0.12 -0.482,-0.114 -1.206,-0.876 -0.798,-0.474 -0.27,-0.28 -0.12,-0.898 -0.238,-0.99 -0.102,-1.224 0.042,-0.292 0.674,-0.928 -0.002,-0.468 0.056,-0.41 -0.028,-0.324 -0.166,-0.004 -0.27,0.142 -0.41,0.108 -0.232,0.01 -2.354,-0.088 -2.678,-0.1 -2.228,-0.084 -1.934,-0.072 -0.064,-0.798 -0.11,-1.334 -0.078,-0.948 -0.124,-1.5 -0.776,-0.934 -0.842,-1.012 -0.296,-0.26 1.018,-0.032 0.722,-0.022 -0.142,-2.714 -0.22,-0.276 -0.196,-0.876 -0.132,-0.496 -0.358,-0.4 -0.082,-0.452 0.066,-0.3 0.196,-0.186 0.13,-0.464 -0.098,-0.466 -0.212,-0.434 -0.26,-0.416 -0.498,-0.256 -0.712,-0.464 -1.08,-0.59 -0.912,-0.412 -0.292,0.05 -1.612,0.16 -0.536,0.084 -0.36,-0.094 -1.202,0.004 -0.472,-0.316 -0.396,-0.37 -0.842,-0.94 -0.13,-0.47 -0.326,-0.15 -0.494,0.058 -0.5,-0.064 -0.968,-0.39 -0.908,-0.4 -0.44,0.016 -0.39,-0.25 -0.69,-0.61 -0.322,-0.238 -0.146,-0.316 -0.146,-0.464 -0.278,-0.1 -0.358,0.084 -0.388,0.238 -0.544,-0.158 -0.666,-0.428 -0.43,-0.334 -0.246,-0.158 -0.578,-0.234 -0.558,-0.048 -0.844,0.344 -0.692,-0.142 -1.084,-0.124 -0.928,-0.25 -0.338,-0.648 -0.182,-0.428 -0.552,-0.268 -0.44,-0.328 -0.524,-0.498 -0.26,-0.166 -0.474,-0.138 -0.438,-0.176 -0.048,-0.314 -0.164,-0.414 -0.038,-0.102 -0.298,-0.502 -0.14,-0.036 -0.154,0.1 -0.116,0.072 -0.126,-0.088 -0.022,-0.224 0.08,-0.36 -0.172,-0.376 -0.426,-0.396 -0.224,-0.41 -0.02,-0.424 -0.094,-0.282 -0.17,-0.144 -0.096,-0.248 -0.02,-0.352 0.124,-0.42 0.268,-0.486 -0.058,-0.75 -0.382,-1.012 -0.212,-0.728 -0.04,-0.448 0.058,-0.332 0.232,-0.322 0.462,-0.79 0.082,-0.602 -0.146,-0.678 -0.02,-0.518 0.106,-0.356 -0.16,-0.466 -0.328,-0.44 -0.228,-0.01 -0.31,0.12 -0.374,0.372 -0.44,0.066 -0.39,-0.23 -1.224,0.096 -1.902,0.23 -0.76,0.238 -0.448,0.102 -0.542,0.078 -0.868,0.428 -2.142,1.662 -0.444,0.242 -0.504,0.034 -0.294,0.23 -0.472,0.18 -0.928,0.658 -0.472,0.528 -0.31,0.478 -0.358,0.016 -0.278,-0.132 -0.878,0.066 -0.45,0.164 -0.488,0.464 -0.606,0.84 -0.25,0.24 -0.488,0.248 -0.564,0.206 -0.698,0.308 -0.312,0.02 -0.276,0.054 -0.238,-0.14 -0.08,-0.302 -0.36,-0.19 -0.86,-0.096 -1.274,-0.22 -1.314,-0.042 -0.652,0.02 -0.536,0.014 -0.93,-0.118 -0.678,-0.02 -0.594,0.298 -0.864,0.37 -0.394,0.094 -0.29,0.014 -0.282,-0.046 -0.33,-0.192 -0.462,-0.442 -0.356,0.17 -0.256,0.19 0.004,-0.962 0.006,-1.446 0.006,-1.274 0.004,-1.018 0.004,-1.188 0.004,-0.838 0.242,-0.318 0.148,-0.356 -0.178,-0.476 0.04,-0.436 0.124,-0.304 0.162,-0.296 -0.374,0.148 -0.164,0.082 -0.2,0.224 -0.484,0.304 -0.324,0.304 -0.382,0.248 -0.484,0.546 -0.398,0.3 -0.414,0.192 -0.688,0.642 -0.57,0.128 -1.508,0.098 -1.568,-0.002 -1.434,-0.002 -0.216,-0.008 0.014,-0.53 0.036,-0.374 -0.49,-0.394 -0.034,-0.486 -0.13,-0.336 -0.164,-0.41 -0.342,-0.262 -0.482,-0.102 -0.79,-0.226 -1.172,-0.236 -1.12,-0.016 -1.098,0.022 0.67,-0.824 0.67,-0.822 -0.02,-0.716 -0.542,-0.624 -0.292,-0.388 -0.452,-0.534 -0.558,-0.37 -0.304,-0.492 0.028,-0.298 -0.048,-0.196 -0.212,-0.114 -0.212,-0.18 -0.292,-0.198 -0.342,-0.262 0,-0.262 -0.13,-0.278 -0.212,-0.326 0,-0.262 -0.196,-0.41 -0.212,-0.294 -0.212,-0.196 -0.31,-0.278 0.016,-0.228 0.228,-0.114 0.098,-0.262 -0.032,-0.262 -0.26,-0.164 -0.31,-0.082 -0.408,-0.474 -0.294,-0.246 -0.196,-0.148 -0.114,-0.164 0.114,-0.114 0.13,-0.164 0.034,-0.262 -0.066,-0.244 0,-0.212 0.196,-0.066 0.212,0.034 0.212,-0.13 0.278,-0.048 0.31,-0.034 0.164,-0.146 -0.016,-0.26 -0.196,-0.506 -0.196,-0.212 -0.066,-0.31 0.16,-0.596 0.102,-0.382 0.358,-0.404 1.092,-0.866 0.98,-0.588 0.478,-0.06 0.354,-0.218 0.224,-0.334 0.062,-0.364 -0.05,-0.318 -0.182,-0.468 -0.218,-0.584 -0.164,-0.326 0.146,-0.39 0.26,-0.534 0.532,-0.806 0.496,-0.868 0.054,-0.252 0.064,-0.53 0.228,-1.08 0.126,-0.584 -0.066,-0.226 0.114,-0.196 0.31,-0.164 0.748,-0.148 0.508,-0.322 0.782,-0.606 0.652,-0.644 0.54,-0.208 0.978,-0.596 0.562,-0.378 0.22,-0.118 0.552,-0.274 0.99,-0.094 0.824,-0.098 0.466,-0.18 0.682,-0.074 0.458,-0.202 0.51,-0.006 0.958,-0.206 0.326,-0.308 0.278,-0.368 0.374,-0.314 0.438,-0.082 0.488,0.054 0.584,-0.006 0.708,-0.098 0.342,0.244 0.15,0.298 0.436,0.302 0.31,-0.016 0.31,-0.066 0.424,0.26 0.278,-0.032 0.178,-0.146 0.034,-0.364 0.1,-0.198 0.208,-1.14 0.344,-1.882 0.312,-1.706 0.344,-1.886 0.358,-1.948 0.362,-1.972 0.296,-1.618 0.254,-1.39 0.158,-0.854 0.244,-1.118 0.096,-0.982 0.098,-0.282 -0.062,-0.238 -0.212,-0.338 0.002,-0.148 0.024,-0.196 -0.024,-0.172 -0.222,-0.184 -0.172,-0.11 -0.136,-0.16 -0.062,-0.222 -0.112,-0.222 -0.05,-0.234 -0.162,-0.184 -0.048,-0.234 0.112,-0.222 0.048,-0.234 -0.048,-0.22 -0.062,-0.258 -0.124,-0.246 -0.188,-0.15 -0.45,-0.166 -0.452,-0.398 -0.534,-0.356 -0.68,-0.676 -0.148,-0.32 -0.002,-0.878 0.03,-0.952 0.044,-1.438 0.022,-0.732 0.384,-0.042 0.338,-0.02 0.354,-0.05 0.308,-0.05 0.284,-0.106 0.212,-0.13 0.252,-0.084 0.198,0.03 0.198,-0.116 0.218,-0.11 0.212,-0.09 0.308,-0.076 0.288,0.176 0.162,0.176 0.188,0.084 0.176,-0.02 0.122,0.016 0.126,0.14 0.162,0.01 0.232,-0.026 0.218,-0.03 0.1,-0.042 0.016,-0.09 -0.056,-0.156 -0.076,-0.146 0.06,-0.226 0.006,-0.272 0.01,-0.346 -0.172,-0.192 -0.172,-0.362 -0.192,-0.292 -0.298,-0.196 -0.278,-0.076 -0.232,0.122 -0.216,0.02 -0.162,-0.11 -0.262,-0.004 -0.284,-0.036 -0.298,-0.042 -0.54,0.08 -0.192,-0.098 -0.262,-0.01 -0.304,0.106 0.008,-1.39 0.008,-1.31 0.004,-0.92 0.272,0.02 0.338,-0.166 0.502,-0.026 0.386,-0.174 0.216,-0.014 0.408,0.084 0.426,0.18 0.418,0.026 1.096,0 1.184,0 1.318,0 1.32,0 1.144,0 0.354,0.01 -0.206,-0.306 -0.24,-0.396 0.092,-0.312 0.118,-0.314 0.138,-0.164 0.356,0.174 0.298,0.534 0.248,0.402 0.242,0.198 0.3,0.022 0.34,-0.068 0.34,-0.166 0.58,-0.736 0.576,-0.63 0.298,-0.212 0.316,-0.194 0.236,-0.074 0.322,0.024 0.272,0.172 0.176,0.3 0.644,1.044 0.486,0.788 0.164,0.492 0.01,1.2 -0.03,1.062 0.064,0.138 0.096,0.04 1.062,-0.25 1.442,1.288 1.066,0.952 0.46,0.304 0.256,0.084 0.62,-0.064 0.736,-0.124 0.358,-0.136 0.396,-0.298 0.642,-0.414 0.524,-0.228 0.206,-0.03 0.208,0.074 0.442,0.248 0.242,0.46 -0.222,0.534 0.038,0.332 0.464,-0.018 0.372,-0.552 0.26,-0.436 0.544,-0.354 0.53,-0.502 0.37,-0.48 0.434,-0.28 0.654,-0.342 0.518,-0.208 0.484,0.022 0.36,-0.226 0.466,-0.424 0.326,-0.34 0.226,-0.122 0.454,0.034 0.566,-0.046 0.556,-0.414 0.506,-0.5 0.268,-0.844 0.176,-0.748 0.152,-0.152 0.184,-0.12 0.216,-0.078 0.52,-0.054 0.912,-0.398 0.628,-0.404 0.596,-0.086 0.176,-0.108 0.216,-0.374 0.108,-0.658 -0.082,-0.398 -1.096,-0.124 -0.718,0 -1.188,-0.102 -0.566,-0.164 -0.122,-0.114 -0.012,-0.126 0.114,-0.286 0.11,-0.534 -0.162,-0.724 -0.592,-1.134 -0.422,-1.116 -0.056,-0.778 0.01,-0.822 0.034,-0.538 -0.304,-0.42 -1.642,-1.326 -0.568,-0.626 -0.188,-0.434 -0.648,-0.798 0.164,-0.246 0.374,0.008 0.318,0.208 0.292,0.444 0.208,0.1 0.286,0 1.514,-0.002 0.354,0.076 0.214,0.15 0.182,0.186 0.272,0.518 0.292,0.252 0.6,-0.008 0.94,-0.01 0.528,-0.046 0.316,0.144 0.392,0.12 0.826,-0.276 0.23,-0.006 0.248,0.122 0.89,0.926 0.51,0.39 0.43,0.518 0.626,0.002 0.52,-0.444 0.138,-1.494 0.156,-0.434 0.262,-0.122 0.312,-0.014 0.37,-0.234 0.4,-0.304 0.348,-0.102 1.446,0.326 0.402,-0.156 1.464,-0.394 1.496,-0.508 0.42,-0.64 0.626,-0.172 0.492,-0.468 0.396,0.048 0.6,0.02 0.372,-0.082 0.188,-0.088 0.206,-0.22 0.338,-0.626 0.41,-0.238 0.514,-0.252 0.352,-0.296 0.29,-0.366 0.134,-0.318 -0.004,-0.252 -0.17,-0.49 -0.208,-0.46 -0.224,-0.152 -0.168,-0.058 0.51,-0.108 0.42,0.162 0.656,0.024 0.286,-0.124 0.414,0.06 0.524,-0.33 0.336,0.108 0.222,0 0.202,0.25 0.158,0.282 0.49,0.342 -0.048,0.52 -0.09,0.46 -0.064,0.532 -0.028,0.404 -0.208,0.414 -0.312,0.386 -0.092,0.156 -0.044,0.204 0.21,0.124 0.372,0.036 0.464,0.016 0.316,0.12 0.408,0.024 0.492,0.332 0.238,0.2 0.02,0.154 -0.156,0.368 -0.062,0.34 0.122,0.216 0.144,0.156 0.398,0.768 0.19,0.266 0.16,0.086 0.038,0.148 -0.136,0.28 -0.164,0.356 -0.37,0.374 -0.05,0.296 -0.294,0.186 -0.69,0.442 0.12,0.7 0.024,0.354 -0.012,0.276 -0.236,0.37 -0.408,1.09 -0.15,0.544 -0.132,1.256 0.008,0.422 0.188,0.566 0.4,1.258 0.228,0.202 0.526,0.294 0.066,0.85 -0.046,0.888 -0.024,0.344 0.086,0.148 0.236,0.072 0.168,0.106 0.026,0.262 -0.016,0.274 0.392,0.158 0.342,0.1 0.316,0.376 0.57,0.586 0.228,0.108 0.114,0.242 0.482,0.494 0.734,0.18 0.74,0.218 0.292,0.31 0.304,0.252 0.23,0.012 0.194,-0.04 0.32,-0.218 0.256,-0.188 0.446,0.012 0.524,-0.032 0.09,-0.154 0.05,-0.198 -0.108,-0.506 0.186,-0.154 0.434,-0.086 0.086,-0.27 0.098,-0.148 0.124,-0.172 0.148,-0.024 0.186,0.098 0.286,0.062 0.322,0.086 0.172,0.172 0.286,0.014 0.318,-0.032 0.128,-0.11 0.094,-0.192 0.07,-0.414 0.204,-0.012 0.41,-0.092 0.436,-0.182 0.584,-0.028 0.546,0.004 0.274,-0.122 0.254,-0.266 0.492,-0.754 0.258,-0.174 0.278,-0.13 0.236,0.024 0.482,-0.126 0.396,-0.18 0.148,0.046 0.308,0.386 0.156,0.084 0.228,0.028 0.746,0.196 0.396,-0.062 0.428,-0.124 0.412,-0.046 0.296,0.086 0.214,-0.112 0.186,-0.074 z m 34.71,0.02 -0.56,0.254 -0.322,-0.098 -0.296,-0.664 0.1,-0.552 0.406,-0.184 0.314,0.04 0.116,0.07 0.28,0.906 -0.038,0.228 z m 0.82,8.62 -0.61,0.188 -0.114,-0.176 0,-0.702 0.172,-0.384 0.776,-0.108 0.08,-0.114 0.222,-0.072 0.124,0.242 -0.018,0.402 -0.632,0.724 z m -1.534,1.414 -0.1,0.82 -1.01,-0.346 0.076,-0.838 0.472,-0.236 0.418,-0.446 0.144,-0.546 0.008,-0.744 0.156,-0.128 0.136,-0.052 0.122,0.05 0.048,1.116 0.058,0.684 -0.528,0.666 z m 3.862,-0.718 0.23,0.292 -0.794,1.166 -0.438,0.168 -0.48,0.034 -0.622,-0.348 -0.968,0.026 -0.302,-0.082 -0.032,-0.508 0.406,-0.542 0.812,0.03 1.398,-0.436 0.79,0.2 z m 1.652,2.122 -1.488,0.174 -0.68,-0.278 0.154,-0.234 0.508,-0.374 0.618,-0.264 0.554,-0.118 0.578,0.148 0.158,0.314 -0.048,0.316 -0.354,0.316 z m -6.786,0.106 -1.536,1.092 -0.52,-0.358 -0.108,-0.208 0.088,-0.21 -0.018,-0.088 0.172,-0.374 0.858,-0.306 0.432,-0.052 0.552,0.096 0.092,0.268 -0.012,0.14 z m 5.748,0.546 0.524,0.024 0.742,-0.106 0.498,-0.26 0.556,-0.052 0.55,0.028 1.854,0.29 1.114,0.09 0.408,0.092 0.398,0.132 0.292,0.142 0.072,0.308 -0.27,0.496 -0.202,0.52 -0.188,0.726 -0.146,0.146 -0.244,-0.038 0.152,0.65 -0.054,0.26 -0.122,0.252 -0.298,0.524 -0.452,0.668 -0.134,0.14 -0.344,0.232 -0.28,0.296 0.06,0.28 0.14,0.282 -0.166,0.352 -0.534,0.514 -0.32,0.124 -0.294,0.052 -0.272,-0.05 -0.482,-0.516 -0.05,0.404 -0.13,0.414 -0.164,0.226 -0.622,-0.024 -0.346,-0.222 -0.562,-0.246 -0.106,0.664 -0.35,0.458 -0.352,0.144 -0.552,0.096 -0.316,0.196 -0.596,-0.152 -0.554,-0.304 -0.314,-0.026 -0.244,0.246 -1.286,0.046 -0.59,0.25 -0.36,-0.07 -0.53,-0.504 -0.084,-0.334 -0.316,-0.678 -0.284,-0.806 -0.202,-0.732 0.17,-0.632 0.344,0.02 0.406,0.094 0.086,-0.044 0.02,-0.204 -0.09,-0.168 -0.654,0.026 -0.414,-0.376 -0.072,-0.58 0.084,-1.208 0.054,-0.248 0.29,-0.346 0.094,-0.306 -0.072,-0.324 0.124,-0.59 0.27,-0.51 1.032,-0.644 1.198,-0.23 3.482,0.626 z m -12.37,6.716 -0.594,0.106 0.766,-1.396 0.684,-0.65 0.01,-1.288 0.742,-1.146 0.682,-0.466 0.958,-0.136 0.524,0.698 -0.65,1.98 -0.19,0.012 -0.87,1.044 -0.968,0.73 -1.094,0.512 z m 39.008,-0.646 -0.36,0.268 -0.118,0.138 -0.296,-0.104 0.054,-0.154 0.088,0.016 0.096,-0.448 0.506,0.054 0.03,0.23 z m 2.154,9.048 -0.552,0.548 0.182,-0.634 -0.092,-0.438 0.072,-0.338 0.378,-0.328 0.114,-0.048 -0.032,0.404 0.026,0.124 -0.096,0.71 z m 32.304,57.278 -0.22,0.124 -0.022,-0.364 0.574,-0.458 0.094,-0.542 0.3,0.25 0.08,0.278 -0.004,0.116 -0.802,0.596 z m -0.896,2.156 -0.192,0.338 -0.222,-0.05 -0.088,-0.226 -0.164,-0.22 0.088,-0.172 0.148,-0.098 0.41,0.014 0.02,0.414 z m -29.332,56.9 0.176,0.166 -0.324,-0.016 -0.364,0.146 -0.558,0.13 -0.224,-0.244 0.482,-0.34 0.176,-0.254 0.126,0.054 0.162,0.184 0.348,0.174 z m -6.348,4.55 -0.004,0.318 -0.234,-0.162 -0.62,0.124 -0.216,-0.24 0.836,-1.026 0.168,0.15 0.13,0.186 0.09,0.26 -0.096,0.168 -0.054,0.222 z m -18.658,15.494 -0.104,0.076 -0.352,-0.774 0.708,-0.742 0.236,0.3 -0.188,0.588 -0.208,0.416 -0.092,0.136 z m 0.554,8.562 -0.386,0.286 0.07,-1.498 0.208,-0.5 0.226,-0.374 0.28,-0.23 0.208,0.326 -0.178,0.722 -0.49,0.886 0.062,0.382 z" title="Brazil" id="BR"></path></svg>