<svg xmlns="http://www.w3.org/2000/svg" width="18.77" height="10.13"><path d="m 16.24,3.48 -0.032,0.142 -0.158,0.382 -0.104,0.412 0.086,0.34 0.356,0.402 0.478,0.322 0.606,0.024 0.56,-0.124 0.222,0.052 0.304,0.538 0.218,0.464 -0.296,0.48 -0.16,0.42 -0.056,0.298 0.036,0.13 0.18,0.24 0.21,0.412 0.03,0.378 -0.134,0.25 -0.288,0.124 -0.308,-0.036 -0.254,0.006 -0.316,0.044 -0.496,0.138 -0.46,0.18 -0.866,-0.032 -0.346,-0.374 -0.162,-0.002 -0.786,0.484 -0.858,-0.086 -1.56,0.162 -0.654,0.038 -0.67,-0.054 -0.34,-0.102 -0.628,-0.34 -0.572,-0.246 -0.58,0.226 -0.206,0.042 -0.464,0.58 -1.01,0.192 -1.006,0.14 -0.298,-0.076 -0.568,-0.036 -0.02,-0.136 0.018,-0.132 -0.13,-0.104 -0.23,-0.108 -0.396,-0.046 -0.508,-0.144 -0.292,-0.138 -1.032,0.204 -0.602,-0.306 -0.684,-0.422 -0.346,-0.182 -0.124,-0.652 -0.122,-0.21 -0.27,-0.222 -0.15,-0.26 0.122,-0.266 0.68,-0.498 0.054,-0.118 0.316,-0.928 0.438,-0.34 0.432,-0.47 0.326,-0.748 0.628,-0.77 0.692,-0.79 0.476,-0.644 0.314,-0.3 0.652,-0.322 0.544,-0.19 0.378,-0.43 0.454,-0.242 0.466,-0.108 0.694,0.06 0.652,0.152 0.716,0.216 0.082,0.174 -0.062,0.304 -0.102,0.312 -0.002,0.158 0.108,0.088 0.7,0.06 0.858,-0.048 0.48,0.042 1.072,0.286 0.312,0.202 0.328,0.154 0.322,-0.026 0.404,-0.332 0.426,-0.28 0.264,-0.046 0.19,0.09 0.34,0.268 0.708,0.252 0.628,0.19 0.206,0.18 -0.072,0.774 z" title="Bhutan" id="BT"></path></svg>