<svg xmlns="http://www.w3.org/2000/svg" width="42.05" height="48.51"><path d="m 41.98,1.16 0.066,0.974 -0.42,1.212 -0.316,0.908 -0.828,1.5 -0.74,1.344 -0.782,2.24 0.004,1.638 -0.086,1.03 -0.256,0.63 -0.616,1.694 -0.092,1.458 0.22,1.782 -0.21,1.69 -0.642,1.596 -0.276,1.256 0.16,1.514 -1.178,1.26 -1.482,1.252 -0.96,0.362 -0.746,0.422 -0.532,0.478 -0.174,0.26 -0.388,0.58 -0.882,1.798 -0.46,0.788 -0.602,0.674 -0.896,0.822 -0.328,0.388 -0.134,0.564 0.058,1.036 0.086,3.158 -0.15,0.916 -0.246,1.506 -0.88,1.688 -0.66,0.938 -0.66,0.288 -0.868,0.254 -0.416,0.318 -0.254,0.47 -0.484,0.408 -0.714,0.35 -0.904,0.858 -1.09,1.368 -0.746,0.784 -0.4,0.202 -0.414,0.018 -0.43,-0.164 -0.358,-0.022 -0.18,0.074 -0.116,-0.06 -0.17,-0.128 0.006,-0.316 -0.05,-0.522 -0.21,-0.538 0.25,-0.432 0.224,-0.328 -0.04,-0.172 -0.224,-0.274 -0.25,-0.394 -0.236,0.028 -0.502,0.3 -0.522,0.236 -0.488,0.098 -0.384,0.244 -0.21,0.132 -0.33,0 -0.184,-0.146 -0.402,-0.14 -0.218,0.048 -0.124,0.068 -0.052,0.496 -0.048,0.42 -0.078,0.394 -0.144,0.184 -0.606,0.196 -0.412,0.27 -0.354,0.182 -0.22,-0.046 -0.44,-0.358 -0.438,-0.332 -0.242,-0.28 -0.136,-0.2 -0.088,-0.088 -0.276,-0.014 -0.082,0.184 -0.138,-0.086 -0.43,-0.378 -0.508,-0.596 -0.184,-0.092 -0.28,0.01 -0.444,0.22 -0.436,0.342 -0.786,0.316 -0.656,0.176 -0.06,0.216 -0.154,0.372 -0.216,0.232 -0.582,0.072 -0.21,0.332 -0.502,0.64 -0.332,0.292 -0.088,-0.124 -0.202,-0.156 -0.412,-0.496 -0.408,-0.618 -0.108,-0.28 -0.116,-0.16 -0.018,-0.62 -0.614,-0.736 -1.54,-1.308 -0.164,-0.39 -1.316,-1.196 0.336,-0.862 0.25,-0.4 0.302,-0.276 1.212,-0.676 0.184,0.026 0.836,0.878 0.266,0.07 0.298,-0.024 0.352,0.036 0.174,-0.172 0.026,-0.226 -0.254,-0.254 -0.038,-0.272 0.18,-0.294 0.1,-0.328 0.262,-0.384 0.028,-0.182 -0.276,-0.198 -0.566,-0.302 -0.386,-0.292 -0.148,-0.278 0.106,-0.356 0.31,-0.29 -0.018,-0.158 -0.274,-0.26 -0.2,-0.278 -0.204,-0.174 -0.57,-0.104 0.11,-0.374 0.208,-0.552 0.052,-0.422 -0.158,-1.108 0.012,-0.2 0.156,-0.102 0.338,0.122 0.342,0.168 0.932,-0.24 0.324,-0.038 0.27,0.212 0.37,0.166 2.144,-0.462 0.042,-0.47 0.122,-0.426 0.016,-0.318 -0.088,-0.206 -0.106,-0.154 -0.064,-0.32 -0.002,-0.342 0.206,-0.162 0.684,-0.408 0.212,0.014 0.478,0.224 0.448,0.348 0.4,0.732 0.274,0.632 0.442,0.764 0.934,0.312 1.116,0.198 0.604,-0.052 0.862,-0.652 0.488,-0.508 0.158,-0.274 0.284,0.142 0.322,0.668 0.206,0.26 0.052,0.248 -0.144,0.308 0.14,0.198 0.6,0.142 0.526,-0.134 0.236,-0.272 0.394,-0.356 0.004,-0.3 -0.212,-0.194 0,-0.268 0.22,-0.21 0.212,-0.576 0.066,-0.42 0.208,-0.268 0.394,-0.186 0.142,-0.168 0.22,-0.996 -0.114,-0.36 0,-0.298 0.25,-0.382 0.046,-0.624 -0.106,-1.022 -0.07,-0.702 -0.076,-0.736 0.192,-0.966 0.2,-1.006 -0.036,-0.25 -0.278,-0.306 -0.342,-0.278 -0.88,-0.23 -0.328,-0.366 -0.256,-0.388 -0.186,-0.124 -0.964,-0.152 -0.212,-0.22 0.086,-0.628 0.086,-0.926 -0.034,-0.642 0.17,-0.52 0.194,-0.39 0.426,-0.412 0.224,-0.486 0.124,-0.12 0.806,-0.082 0.292,-0.202 0.23,-0.206 0.098,-0.276 0.276,-0.458 0.244,-0.31 0.028,-0.21 -0.052,-0.292 -0.244,-0.574 -0.292,-0.478 -0.176,-0.172 -0.356,-1.124 -0.33,-0.264 -0.644,-0.144 -1.206,-0.128 -0.73,0.202 -1.11,0.378 -0.848,0.262 -0.552,0.148 -0.324,-0.04 -0.148,-0.172 0.216,-0.146 0.106,-0.342 -0.138,-0.49 -0.214,-0.448 -0.122,-0.632 0.052,-0.782 0.208,-0.736 0.446,-0.956 0.028,-0.39 1.346,0.012 1.344,0.012 1.468,-0.01 1.418,-0.008 1.106,0.032 0.532,-0.248 0.506,0.376 0.248,0.082 0.084,-0.03 0.194,0.264 0.63,-0.028 0.1,0.06 0.054,0.32 0.584,-0.008 0.288,0.07 0.234,-0.008 0.34,-0.184 0.244,0.06 0.444,0.24 0.316,0.206 0.442,-0.068 1.024,0.036 0.794,0.198 0.786,0.548 0.526,0.316 0.472,0.468 0.174,-0.084 0.164,-0.128 0.092,-0.056 -0.006,-0.4 -0.264,-0.682 -0.102,-0.578 0.058,-0.474 0.2,-0.342 0.342,-0.206 0.034,-0.32 0.004,-0.044 0.384,-0.762 0.38,-0.758 0.458,-0.884 0.378,-0.73 -0.05,-0.362 0.038,-0.54 0.078,-0.602 -0.02,-0.358 0.11,-0.242 0.262,-0.9 0.154,-0.522 0.226,-0.234 0.352,-0.168 0.512,-0.006 1.336,-0.114 1.248,-0.234 0.414,-0.104 0.782,-0.376 0.302,-0.016 0.258,0.144 1.508,0.432 0.414,0.17 0.152,-0.026 0.228,0.038 0.354,0.004 0.344,-0.052 0.22,0.052 0.278,0.286 0.186,-0.032 0.242,-0.208 0.454,-0.212 0.878,-0.236 0.142,0.106 0.304,0.524 z" title="Republic of Congo" id="CG"></path></svg>