<svg xmlns="http://www.w3.org/2000/svg" width="25.17" height="15.91"><path d="m 19.96,2.08 0.17,0.108 0.4,0.366 -0.094,0.622 -0.458,1 -0.242,0.808 -0.026,0.618 0.046,0.29 0.082,-0.004 0.436,0.044 0.224,0 0.702,0.166 0.562,0.244 0.11,0.258 0.072,0.314 0.67,0.428 0.766,0.278 0.26,-0.09 0.952,-1.002 0.368,0.166 0.222,0.532 -0.01,0.284 -0.262,1.062 -0.046,0.57 0.226,0.376 0.024,0.294 -0.066,0.266 -0.38,0.024 -0.51,-0.144 -0.43,-0.458 -0.326,0.056 -0.282,0.118 -0.146,0.432 -0.128,0.516 0.042,0.286 0.202,0.222 0.156,0.468 0.114,0.608 0.086,0.278 -0.094,0.124 -0.268,0.084 -0.224,-0.082 -0.388,-0.726 -0.182,-0.276 -0.308,-0.05 -0.542,0.178 -0.832,0.406 -0.338,-0.002 -0.284,-0.082 -0.268,-0.344 -0.228,-0.666 -0.072,-0.418 -0.158,0.012 -0.534,-0.12 -0.248,0.166 -0.002,0.68 -0.048,0.848 -0.268,0.546 -0.744,0.944 -0.272,0.41 -0.11,0.296 -0.022,0.256 0.114,0.442 0.154,0.422 -0.13,0.24 -0.392,0.126 -0.278,-0.256 -0.106,-0.456 -0.602,-0.624 0.274,-0.522 -0.046,-0.13 -0.994,-0.272 -0.428,-0.396 -0.6,-0.696 -0.112,-0.298 0.026,-0.972 -0.036,-0.236 -0.08,-0.116 -0.29,0.008 -0.406,0.338 -0.374,0.504 -0.764,0.57 -0.08,0.12 0.258,0.554 -0.012,0.214 -0.624,0.882 -0.118,0.29 -0.79,0.55 -0.362,0.206 -1.096,-0.404 -0.304,-0.048 -0.488,0.27 -0.692,0.258 -1.118,0.258 -0.412,-0.188 -0.194,-0.176 -0.096,-0.268 -0.282,-0.47 -0.316,-0.278 -0.22,-0.304 -0.294,-0.332 -0.19,-0.278 0.252,-0.892 -0.184,-0.312 -0.094,-0.448 0.048,-0.304 -0.1,-0.074 -1.01,-0.176 -0.838,0.056 -0.6,0.298 -0.49,0.496 -0.06,0.108 0.032,0.088 0.244,0.454 -0.414,0.48 -0.634,0.372 -0.448,0.038 -0.198,-0.072 -0.008,-0.512 0.372,-0.19 0.336,-0.334 0.112,-0.472 0.04,-0.332 -0.352,-0.402 0.042,-0.248 0.22,-0.468 0.126,-0.414 0.176,-0.358 0.698,-0.586 0.7,-0.592 0.106,-0.628 0.056,-0.766 0.098,-0.184 0.946,-0.46 0.236,-0.182 0.12,-0.26 0.744,-0.862 0.736,-0.856 0.15,-0.288 0.124,-0.17 0,-0.14 -0.094,-0.108 -0.35,-0.07 -0.12,-0.274 0.382,-0.488 0.478,-0.298 0.464,-0.006 0.186,0.138 -0.01,0.162 0.2,0.174 0.352,0.056 0.434,-0.06 0.432,-0.182 0.266,-0.434 0.154,-0.33 0.678,-0.376 0.462,0.19 1.286,0.05 0.936,-0.102 0.586,-0.256 0.726,0 0.488,0.144 0.086,-0.022 0.136,-0.032 0.132,-0.138 0.46,-0.094 0.06,-0.114 -0.018,-0.118 -0.082,-0.058 -0.566,0.06 -0.214,-0.09 -0.056,-0.208 0.182,-0.364 0.416,-0.296 0.352,-0.072 0.254,0.08 0.618,0.548 0.15,0.018 0.086,-0.098 0.128,-0.056 0.214,0.108 0.24,0.34 0.042,0.052 1.382,-0.12 0.31,0 0.938,0.598 z" title="Switzerland" id="CH"></path></svg>