<svg xmlns="http://www.w3.org/2000/svg" width="34.23" height="35.85"><path d="m 17.3,1.68 0.35,0.376 0.444,0.258 0.674,-0.032 0.488,0.154 0.422,0.29 0.284,0.642 0.31,0.462 0.134,0.66 0.49,0.346 0.384,0.158 0.52,0.478 0.538,0.244 0.556,-0.056 0.26,0.25 0.416,0.176 0.416,0.012 0.366,-0.552 0.484,-0.218 1.222,-0.44 0.482,-0.2 0.488,-0.126 1.176,-0.04 1.094,0.136 0.542,0.102 0.372,-0.076 0.352,0.262 0.364,0.55 0.298,0.176 0.304,0.19 0.226,0.434 0.264,0.43 0.144,0.19 0.328,0.424 0.282,0.006 0.278,-0.184 0.12,-0.136 0.054,0.28 -0.11,0.454 0.022,0.282 0.154,0.108 -0.084,0.362 -0.322,0.616 -0.002,0.364 0.32,0.114 0.228,0.386 0.136,0.66 0.138,0.22 0.014,0.136 0.232,1.598 0.286,1.602 -0.182,0.208 -0.25,0.062 -0.162,0.074 -0.046,0.15 0.106,0.218 -0.07,0.2 -0.312,0.138 -0.678,0.508 -0.046,0.202 -0.18,0.432 -0.15,0.264 -0.222,0.49 -0.352,1.296 -0.13,1.074 -0.02,0.332 -0.136,0.23 -0.154,0.334 -0.736,0.918 -0.376,0.75 0.048,0.326 0.018,0.328 -0.112,0.236 0.02,0.634 0.09,0.53 0.132,0.52 0.534,1.472 0.278,0.894 0.172,0.72 0.152,0.484 0.142,0.196 0.058,0.186 0.792,0.134 0.156,0.106 0.216,0.938 -0.04,0.424 -0.156,0.162 0.004,0.358 -0.036,0.446 -0.116,0.176 -0.444,0.022 -0.302,0.168 -0.396,-0.068 -0.038,-0.11 -0.214,-0.04 -0.588,-0.254 0.096,-0.814 -0.272,-0.034 -0.21,0.108 -0.418,0.976 -0.2,0.168 -2.936,-0.504 -0.638,-0.406 -0.764,-0.092 -1.332,0.046 -1.098,0.122 -0.314,0.246 2.772,-0.144 0.298,0.028 0.14,0.148 -3.504,0.322 -1.336,0.192 -0.396,-0.052 -0.3,-0.312 -1.452,-0.038 -0.298,0.102 -0.18,0.23 0.572,-0.05 0.902,-0.012 0.242,0.176 -2.824,0.23 -1.958,0.44 -0.83,0.326 -2.732,1.07 -1.666,0.504 -0.436,0.186 -0.758,0.524 -0.974,0.33 -1.092,0.616 -0.666,0.138 -0.15,-0.196 -0.018,-1.04 -0.092,-1.394 0.034,-0.534 0.088,-0.502 0.002,-0.416 0.332,-0.156 0.088,-0.174 0.05,-0.542 0.31,-0.494 0.006,-0.86 0.092,-0.178 0.07,-0.228 -0.132,-0.564 -0.172,-1.064 -0.084,-0.07 -0.076,0.046 -0.174,0.02 -0.686,-0.368 -0.53,-0.064 -0.372,-0.314 -0.026,-0.358 -0.18,-0.21 -0.126,-0.414 -0.186,-0.474 -0.522,-0.288 -0.49,-0.07 -0.348,0.062 -0.408,-0.018 -0.468,-0.16 -0.324,-0.18 -0.306,-0.348 -0.284,-0.276 -0.226,0.034 -0.276,-0.066 -0.272,-0.126 -0.088,-0.098 1.136,-1.108 0.386,-0.542 0.042,-0.332 0.004,-0.334 0.124,-0.342 0.032,-0.522 -0.628,-1.9 -0.16,-0.588 -0.168,-0.172 -0.108,-0.066 0.318,-0.244 0.438,0.064 0.672,0.19 0.146,-0.188 0.508,-0.96 -0.014,-0.356 -0.05,-0.246 0.298,-0.658 0.236,-0.254 0.122,-0.274 -0.038,-0.376 -0.178,-0.14 -0.236,0.026 -0.282,-0.092 -0.43,-0.216 -0.218,-0.192 0.068,-0.87 0.04,-0.27 0.152,-0.156 0.236,-0.042 0.666,-0.026 0.54,0.1 0.474,0.058 0.252,0 0.204,0.258 0.272,0.264 0.24,-0.002 0.084,-0.196 -0.056,-0.858 -0.16,-0.454 -0.362,-0.438 -0.936,-0.374 -0.022,-0.522 0.094,-0.566 0.202,-0.21 0.696,-0.36 -0.122,-0.194 -0.222,-0.206 -0.442,-0.208 0.102,-0.678 0.022,-0.606 -0.374,0.068 -0.384,0.036 -0.324,-0.186 -0.272,-0.368 -0.05,-1.012 0,-1.17 -0.052,-0.518 0.104,-0.276 0.33,-0.254 0.36,-0.33 0.128,-0.21 0.166,-0.004 0.432,-0.126 0.392,-0.288 0.366,-0.6 0.494,-0.482 0.556,0.036 0.164,-0.088 0.196,-0.016 0.232,0.318 0.234,0.242 0.166,0.006 0.124,0.458 1.014,0.192 0.434,0.126 0.366,0.334 0.128,0.008 0.154,-0.07 0.12,-0.116 0.024,-0.128 -0.158,-0.3 0.07,-0.27 0.164,-0.242 0.262,-0.016 0.394,-0.068 0.452,0 0.336,0.044 0.134,-0.242 -0.128,-0.68 0.034,-0.376 0.054,-0.316 0.126,-0.128 0.502,0.398 0.46,0.144 0.33,0.012 0.092,-0.076 -0.14,-0.434 0.038,-0.13 0.122,-0.076 0.216,-0.044 0.586,-0.176 0.06,0.034 0.11,0.684 -0.05,0.224 0.124,0.464 0.152,0.43 -0.012,0.176 -0.126,0.266 -0.148,0.244 0.016,0.1 0.234,0.166 0.448,0.172 0.464,0.04 0.258,-0.25 0.268,-0.204 0.186,-0.182 0.064,-0.27 0.294,-0.198 0.84,-0.248 0.772,-0.038 0.192,0.078 z m 13.678,29.826 -0.154,0.222 -0.744,-0.142 0.176,-0.186 0.722,0.106 z" title="Côte d'Ivoire" id="CI"></path></svg>