<svg xmlns="http://www.w3.org/2000/svg" width="343.21" height="252.24"><path d="m 209.26,241.76 0.28,0.264 0.182,0.382 0.15,0.704 0.09,0.648 -0.566,0.412 -0.508,0.166 -1.018,1.578 -0.212,0.498 -0.172,0.208 -0.054,0.216 0.02,0.216 -0.264,0.756 -0.232,0.93 -0.148,0.38 -0.292,0.292 -0.37,0.148 -0.24,0.022 -0.218,0.08 -0.538,0.506 -0.606,0.38 0.102,0.174 0.006,0.166 -0.266,0.184 -0.294,-0.036 -0.854,0.15 -0.312,0.284 -0.32,0.524 -0.122,0.072 -0.516,0.122 -0.392,0.046 -0.67,-0.37 -0.332,-0.108 -0.884,-0.15 -0.862,-0.25 -0.604,-0.286 -1.238,-0.7 -0.144,-1.266 -0.212,-0.684 -0.014,-0.244 0.082,-2.11 0.086,-0.232 0.158,-0.202 0.546,-0.472 0.626,-0.374 0.898,-0.784 0.652,-0.358 0.546,-0.516 -0.32,0.022 -0.236,-0.066 0.232,-0.442 0.25,-0.236 0.29,-0.128 0.58,0.092 0.536,-0.092 0.396,-0.392 0.376,-0.084 1.432,0.128 0.992,-0.18 0.496,-0.362 0.234,-0.014 0.732,0.102 0.272,0.376 -0.024,-0.252 0.032,-0.246 0.134,0.026 0.958,0.466 0.002,-0.57 0.054,-0.15 0.298,-0.238 0.15,0.004 0.372,0.46 0.362,0.268 0.45,0.142 z m -2.826,-6.562 0.208,0.208 0.556,-0.146 0.102,0.264 -0.004,0.124 -0.198,0.304 -0.46,-0.234 -0.458,0.054 -0.332,-0.02 -0.09,-0.144 0.254,-0.296 0.422,-0.114 z m 12.678,-3.276 -0.55,0.126 -0.118,-0.026 0.192,-0.31 0.498,-0.214 -0.022,0.424 z m 0.822,0.228 -0.108,0.12 -0.164,-0.218 -0.046,-0.312 -0.118,-0.168 0.27,-0.212 0.12,-0.234 0.32,0.046 0.132,0.07 -0.282,0.244 -0.066,0.104 -0.058,0.56 z m 4.294,-7.248 0.046,0.28 -0.438,-0.426 -0.126,-0.024 -0.208,-0.16 -0.122,-0.268 0.34,-0.01 0.312,0.318 0.196,0.29 z m 25.976,-10.31 -0.188,0.37 -0.332,-0.062 -0.01,-0.262 -0.068,-0.076 0.092,-0.244 0.06,-0.068 0.376,0.208 0.07,0.134 z m 9.194,-5.916 -0.418,0.286 -0.26,-0.136 -0.004,-0.384 0.132,-0.346 -0.152,-0.25 0.148,-0.296 0.31,-0.088 0.112,0.186 0.174,0.098 0.054,0.102 0.002,0.194 -0.166,0.32 0.13,0.174 -0.062,0.14 z m 8.028,-16.444 -0.49,0.152 -0.184,0 0.016,-0.46 0.4,-0.438 0.162,0.146 0.092,0.228 0.004,0.372 z m 5.17,-10.158 -0.02,0.12 -0.478,-0.418 -0.23,-0.068 0.11,-0.238 0.322,-0.06 0.256,0.524 0.04,0.14 z m 1.3,-1.372 -0.054,0.298 -0.15,-0.042 -0.2,-0.53 0.108,-0.13 0.284,0.032 0.012,0.372 z m -0.606,-0.458 -0.082,0.126 -0.694,-0.37 -0.752,-0.078 -0.26,-0.326 -0.046,-0.512 0.792,0.022 0.976,0.462 0.21,0.236 -0.144,0.44 z m -2.434,-9.936 -0.46,0.188 -1.46,-0.562 -1.032,-0.618 -0.616,-0.75 -0.088,-0.31 0.718,0.052 0.702,0.27 0.156,0.412 0.284,0.13 0.192,0.24 1.3,0.558 0.2,0.168 0.104,0.222 z m 9.132,-170.054 0.254,0.028 0.14,-0.002 0.27,-0.188 0.746,0.334 1.426,0.992 0.894,0.44 0.37,-0.108 0.4,0.274 0.438,0.656 0.542,0.386 0.976,0.178 0.968,0.716 0.39,0.04 0.136,-0.402 0.362,-0.23 0.584,-0.06 0.846,0.354 1.106,0.766 0.694,0.336 0.282,-0.092 0.296,0.142 0.238,0.358 0.022,0.442 -0.082,0.236 0.266,0.372 0.306,0 0.5,0.178 0.392,0.656 0.352,0.304 0.246,0.262 0.044,0.218 0.022,0.22 -0.072,0.17 -0.134,0.282 -0.042,0.302 0.17,0.34 0.622,0.246 0.21,0.254 0.048,0.324 0.194,0.358 0.424,0.414 0.16,0.346 -0.098,0.278 0.126,0.232 0.208,0.182 0.044,0.658 0.018,0.378 0.342,0.424 0.07,0.868 0.238,0.958 0.802,1.31 0.266,0.708 -0.068,0.84 0.116,0.394 0.366,0.19 0.174,0.354 -0.02,0.518 0.142,0.322 0.116,0.342 -0.078,0.532 0.116,0.478 0.188,0.28 0.132,0.516 0.074,0.644 0.538,1.016 0.998,1.388 0.612,1.076 0.222,0.764 0.002,0.628 -0.218,0.492 -0.012,0.358 0.196,0.224 0.058,0.302 -0.078,0.382 0.324,0.452 1.096,0.784 -0.438,1.2 -0.116,0.842 0.058,0.884 0.272,0.622 0.482,0.36 0.3,0.376 0.118,0.392 0.58,0.426 1.04,0.462 1.334,0.082 1.626,-0.302 0.994,-0.05 0.366,0.2 0.126,0.304 -0.118,0.406 0.276,0.266 0.668,0.128 0.458,0.254 0.252,0.384 0.308,0.108 0.366,-0.166 0.356,0.024 0.346,0.212 0.224,-0.074 0.196,-0.232 0.314,0 0.322,0.004 0.2,0.562 0.324,0.316 0.448,0.07 0.682,0.682 1.372,1.938 0.892,0.686 0.894,0.214 1.112,0.044 0.36,0.748 -0.292,0.79 -0.074,0.658 0.252,0.236 0.348,0.772 0.492,0.448 0.094,0.354 0.228,0.396 -0.096,0.73 -0.422,1.066 0.116,0.908 0.652,0.75 0.376,0.722 0.098,0.692 0.162,0.42 0.23,0.148 0.668,-0.052 1.11,-0.25 0.812,0.042 0.52,0.338 1.282,0.012 2.046,-0.312 1.292,-0.096 0.54,0.12 0.48,-0.446 0.422,-1.014 0.394,-0.476 0.37,0.06 0.584,-0.326 0.802,-0.714 0.696,-0.346 0.882,0.036 0.94,0.036 0.588,-0.3 0.552,-0.626 0.958,-0.554 2.042,-0.726 0.49,-0.114 0.234,0.04 0.68,0.114 0.604,0.284 0.57,0.57 0.088,0.366 -0.064,0.48 -0.126,0.278 -0.234,0.312 -0.22,0.506 0.142,0.394 0.33,0.842 0.272,0.608 0.3,0.716 -0.134,0.256 -0.182,0.496 -0.558,0.838 -0.304,0.32 -0.328,0.312 -0.566,0.076 -0.242,0.072 -0.274,0.132 -0.172,0.296 -0.196,0.208 -0.324,0.416 -0.026,0.358 0.146,0.532 0.072,0.544 -0.366,0.486 -0.284,0.746 -0.086,0.224 -0.14,0.564 -0.042,0.196 -0.09,1.184 -0.366,0.806 -0.51,0.936 0.114,0.558 0.09,0.516 -0.126,0.25 -0.032,0.218 -0.074,0.496 -0.16,0.19 -0.464,0.31 -0.278,0.374 0.058,0.566 -0.142,0.49 -0.212,0.432 -0.222,0.282 -0.32,0.18 -0.212,0.152 -0.16,0.548 -0.048,0.424 -0.15,0.422 0.092,0.43 -0.162,0.372 -0.456,0.26 -0.258,0.154 -0.238,0.062 -0.456,0.404 -0.408,1.382 -0.092,0.802 0.094,0.712 -0.572,0.446 -0.424,0.354 -0.266,-0.128 -0.282,-0.12 -0.648,-0.154 -0.324,-0.104 -0.652,-0.232 -1.044,-0.294 -1.02,-0.342 -0.64,-0.18 -0.504,-0.144 -0.382,-0.236 -0.322,-0.422 -0.32,0.17 -0.296,0.5 -0.494,0.296 -0.224,0.546 -0.198,0.418 -0.512,0.558 -0.228,0.23 -1.002,0.378 -0.226,0.126 -0.818,0.08 -0.278,0.166 -0.288,0.352 -0.078,0.35 0.204,0.368 0.318,0.736 0.148,0.502 0.216,0.994 0.726,3.106 -0.234,0.534 -0.218,2.314 0.052,0.416 -0.022,0.648 0.014,0.474 0.15,0.118 0.196,0.166 0.1,0.276 -0.026,0.424 -0.1,0.31 -0.154,0.614 -0.204,0.886 -0.226,0.34 -0.148,0.27 -0.126,0.186 -0.016,0.626 -0.084,0.412 -0.354,0.146 -0.352,0.24 -0.418,-0.088 -0.368,0.048 -0.454,0.16 -0.814,0.186 -0.472,0.248 -0.226,0.18 -0.156,0.216 -0.028,0.208 0.108,0.11 0.458,0.084 0.314,0.388 0.044,0.424 -0.324,0.242 -0.16,-0.266 -0.27,-0.084 -0.502,-0.374 -0.368,-0.412 -0.274,-0.456 0.012,-0.974 -0.046,-0.146 -0.5,-0.2 -0.148,-0.292 -0.238,-0.138 -0.338,0.088 -0.254,-0.092 -0.202,-0.16 -0.24,-0.018 -0.208,0.252 -0.112,0.542 -0.35,0.898 -0.032,0.542 -0.15,0.772 -0.15,0.978 -0.126,0.204 -0.39,0.03 -0.134,0.064 -0.206,0.332 -0.246,0.056 -0.218,-0.194 -0.342,-0.194 -0.326,-0.026 -0.292,0.194 -0.344,0.422 -0.196,0.34 -0.07,0.32 -0.054,0.394 -0.348,0.376 -0.316,0.198 -0.654,0.554 -0.208,0.23 -0.468,0.002 -0.51,-0.022 -0.688,0.15 -1.12,0.076 -0.67,-0.114 -0.828,0.106 -0.646,0.18 -0.092,0.27 0.024,0.4 0.128,0.26 0.158,0.174 0.268,0.536 0.282,0.518 0.426,0.334 0.178,0.36 0.008,0.334 -0.202,0.42 -0.306,0.548 -0.286,0.338 -0.214,-0.012 -0.328,-0.196 -0.222,-0.248 -0.53,-0.092 -1.296,0.158 -0.648,-0.11 -0.31,-0.202 -0.542,-0.014 -0.838,-0.27 -0.512,-0.086 -0.242,-0.172 -0.046,-0.396 -0.24,-0.272 -0.136,-0.326 -0.304,-0.41 -0.292,-0.206 -0.288,-0.086 -0.314,0.248 -0.336,0.224 -0.25,-0.05 -0.122,0.062 -0.136,0.186 -0.54,0.38 -0.126,0.348 -0.214,0.738 -0.15,0.758 -0.128,0.268 -0.218,0.046 -0.222,0.228 -0.466,0.71 -0.422,0.654 -0.612,0.442 -0.29,0.404 -0.148,0.368 -0.436,0.514 -0.64,0.092 -0.51,0.15 -0.312,0.04 -0.224,0.208 -0.164,0.316 -0.078,0.126 -0.29,0 -0.288,0.268 -0.706,0.61 -0.576,0.114 -0.72,0.406 -0.634,0.308 -0.264,0.174 -0.07,0.192 -0.092,0.244 -0.306,0.048 -0.296,-0.012 -0.66,0.558 -0.334,0.474 -1.298,1.008 -0.53,0.566 -0.136,0.732 -0.068,-0.054 -0.462,0.638 -0.908,0.606 -1.94,0.136 -0.614,-0.43 -0.222,0.296 -0.172,0.398 -0.51,0.132 -0.794,0.036 -0.446,0.262 -0.238,0.292 -1.09,0.094 -0.4,0.39 -0.68,0.138 -2.834,1.7 -0.618,0.714 -0.586,0.834 -0.41,0.418 -0.368,0.292 -0.334,0.12 -0.328,0.288 -0.332,0.036 -0.338,-0.132 -0.378,0.046 -0.25,0.348 0.21,0.454 -0.116,0.192 -0.744,0.246 -1.108,0.162 -0.468,0.296 -0.164,0.168 -0.244,0.084 -0.236,-0.584 -0.084,-0.772 0.458,-0.186 0.422,-0.098 2.338,-1.068 -0.292,-0.804 0.208,-0.35 0.524,-0.57 0.34,-0.282 -0.184,-0.104 -1.534,0.188 -0.878,-0.014 -0.452,-0.058 0.136,-0.488 -0.076,-0.488 -0.106,-0.182 0.782,-0.556 0.354,-0.136 0.27,0.008 -0.02,-0.336 -0.224,-0.506 0.242,-0.654 1.592,-0.77 0.382,-0.7 0.638,-0.654 1.168,-1.628 0.07,-0.278 0.34,-0.766 0.06,-0.306 -0.54,-0.448 -0.214,-0.628 -1.58,-1.136 -0.134,-0.978 -0.148,0.042 -0.24,0.684 -0.206,0.22 -0.732,0.02 -0.346,-0.258 -2.036,-0.168 -0.498,0.442 -0.464,0.682 -0.454,0.488 -0.456,0.25 -0.396,0.444 -1.636,2.628 -0.618,0.2 -2.91,1.582 -1.458,0.62 -1.122,1.092 -0.386,0.66 -0.342,0.732 -0.208,1.106 -1.036,1.342 -0.356,0.288 -0.362,0.116 -0.482,-0.042 -0.416,0.084 -0.708,-0.118 -0.868,0.424 -0.976,0.366 -0.842,-0.922 -0.602,-0.228 -0.982,0.256 -0.456,0.41 -0.944,2.026 -0.354,1.158 0.024,0.474 0.55,1.436 0.622,0.802 1.394,0.914 2.964,0.628 0.696,-0.224 0.746,-0.002 0.786,0.596 0.492,0.984 0.044,0.67 0.016,0.232 0.18,0.198 0.106,0.338 -0.312,0.28 -0.24,0.14 -0.202,1.038 -0.012,1.146 0.254,0.38 0.638,0.534 0.986,0.44 0.912,0.094 1.742,-0.212 0.712,-0.69 -0.042,-0.298 0.018,-0.386 1.534,-1.014 0.874,-0.9 -0.136,-0.238 -0.168,-0.158 0.154,-0.092 0.478,-0.064 2.132,-0.94 1.678,0.768 0.958,0.884 0.948,0.148 0.656,0.452 0.758,0.384 0.988,0.026 0.834,0.08 0.254,-0.356 0.262,-0.234 0.296,0.046 0.334,0.466 0.948,0.358 0.874,-0.018 0.612,-0.13 0.364,0.166 -0.526,0.596 0.078,0.96 -0.402,0.304 -0.386,0.488 0.228,0.322 0.202,0.136 -0.02,0.39 -0.352,0.222 -0.652,0.58 -0.376,-0.01 -0.178,-0.112 -0.126,-0.208 -0.094,-0.334 -0.228,-0.22 -0.632,-0.084 -0.656,0.08 -1.476,0.86 -1.442,0.684 -1.51,0.542 -0.506,0.342 -0.36,0.094 -0.626,-0.258 -0.378,0.016 -0.08,0.178 0.482,0.476 0.126,0.372 -0.05,0.286 -0.274,0.126 -0.398,-0.208 -0.364,0.298 -0.164,0.502 -0.008,1.194 -0.24,0.266 -0.666,0.146 -0.708,0.38 -0.252,-0.176 -0.1,-0.214 0.074,-0.548 -0.088,-0.268 -0.324,0.014 -0.488,0.164 -0.372,0.36 -0.128,0.218 0.49,0.702 0.466,0.072 0.114,0.158 -0.37,0.342 -0.922,0.508 -0.154,0.426 -0.274,0.408 -0.376,0.324 -0.256,0.342 -0.312,0.178 -0.51,0.2 -0.626,0.816 -0.458,0.762 -0.544,0.392 -0.43,1.284 -0.77,0.696 -0.284,1.112 0.2,0.682 0.846,-0.006 0.422,0.24 0.876,0.896 1.048,0.584 1.088,0.328 1.334,0.826 0.368,0.35 0.314,0.71 0.578,2.04 0.416,1.008 0.028,0.526 0.624,0.99 0.666,1.7 0.768,1.468 0.146,1.154 -0.248,0.526 0.002,0.682 0.766,0.626 1.704,0.726 0.272,0.214 0.334,0.352 0.016,1.094 0.264,0.348 0.222,0.212 1.032,0.462 0.432,0.384 0.458,0.612 0.132,0.548 0.056,0.742 -0.576,0.026 -0.464,-0.084 -1.846,-0.964 -0.48,-0.026 -0.678,0.134 -0.966,-0.178 -1.02,-1.07 -0.736,-0.324 -0.79,-0.164 -1.884,0.92 -0.48,-0.066 -0.138,0.104 -0.212,0.158 0.874,0.198 0.876,-0.302 0.84,-0.446 1.226,0.238 0.206,0.402 0.202,0.678 0.84,0.458 0.66,0.202 0.84,0.6 0.82,0.936 1.738,1.084 0.704,1.024 0.272,0.66 0.244,0.942 -0.608,0.304 -0.53,0.042 -0.83,0.148 -0.61,0.334 -0.612,0.584 -1.754,0.918 -0.332,0.574 -0.228,0.5 -0.428,0.246 -1.074,-0.234 -1.012,0.02 -1.146,0.674 -0.286,0.274 0.19,-0.054 0.18,-0.086 0.516,0.102 0.798,-0.36 0.78,1.098 1.522,-0.178 1.43,-0.912 0.554,-0.016 0.462,0.14 0.518,0.36 1.376,1.598 0.756,0.174 0.74,0.374 0.41,0.042 0.37,0.112 -0.996,0.584 -1.286,1.26 -0.572,0.3 -0.384,0.336 1.036,-0.168 0.736,-0.602 0.372,-0.148 0.298,0.14 0.152,0.742 -0.284,2.276 -0.362,0.04 -0.352,-0.618 -0.412,-0.196 -0.346,0.128 -0.686,-0.004 -0.262,0.28 -0.22,0.396 0.41,0.082 0.808,0.69 0.082,0.366 -0.216,0.238 -0.566,-0.102 0.688,0.514 -0.182,0.532 -0.222,0.21 -0.4,0.134 -0.246,0.46 0.354,0.766 0.358,0.98 0.044,0.472 -0.56,-0.204 -0.874,0.598 -0.46,0.05 -0.312,-0.788 -0.398,0.124 -0.266,0.228 -0.354,0.844 -0.432,0.762 -0.372,0.208 -0.446,-0.06 -0.368,0.022 0.09,0.206 0.388,0.25 0,0.292 -0.828,0.926 -0.134,0.358 0.02,0.304 -0.434,0.37 0.234,0.622 -0.122,0.438 -0.38,0.592 -0.4,0.39 -0.47,0.632 -0.596,0.366 -0.786,1.322 -0.232,0.66 -0.058,0.682 -0.246,0.236 -0.422,0.296 -0.48,-0.15 -0.016,-0.454 -0.208,-0.04 -0.118,-0.298 -0.036,-0.378 0.05,-0.306 -0.2,0.094 -0.124,0.354 -0.316,0.288 -0.33,-0.116 -0.356,-0.236 0.01,0.34 0.19,0.342 0.082,0.342 0.492,0.074 0.33,0.392 0.26,0.602 0.052,0.226 0.202,0.268 0.028,0.23 -0.47,0.212 -0.588,0.396 -0.706,0.678 -0.582,0.452 -0.526,0.004 -0.318,-0.052 -0.454,-0.26 -0.522,-0.108 0.7,0.914 0.382,0.162 0.48,-0.034 0.466,-0.34 0.662,0.036 0.166,0.526 -0.176,0.594 -0.362,0.77 -0.074,0.666 0.448,0.952 0.02,0.286 -0.168,0.142 -0.526,-0.25 -0.434,-0.316 -0.438,0.084 -0.454,-0.134 -0.466,0.112 -0.19,0.22 0.128,0.362 0.418,0.3 0.234,0.462 -0.28,0.162 -1.186,-0.108 -0.264,0.088 -0.354,0.508 0.23,0.752 -0.262,0.466 -0.488,0.11 -0.642,0.376 -0.396,0.088 0.02,0.164 0.29,0.164 0.154,0.222 -0.35,0.766 -0.542,0.252 -0.832,-0.126 -0.654,0.172 -0.566,-0.326 -0.604,-0.006 -0.41,0.412 -0.044,0.478 -0.398,0.048 -0.214,-0.036 -0.302,0.034 0.032,0.256 0.172,0.224 0.816,0.1 0.146,0.322 0.032,0.496 -0.854,0.854 -0.364,0.576 -0.548,-0.016 -0.414,0.462 -0.222,0.626 -0.274,-0.124 -0.634,0.1 -0.186,0.298 0.148,0.124 0.014,0.214 -0.254,0.702 -0.276,0.198 -0.12,-0.288 -0.09,-0.446 -0.222,-0.034 -0.37,0.41 -0.432,0.294 -0.37,0.122 -0.28,-0.272 -0.686,-0.142 -0.28,1.178 -0.568,0.428 -0.266,0.134 -0.464,0.04 0.296,0.162 0.092,0.302 -0.166,0.3 -0.464,0.06 -0.27,0.234 -0.104,1.05 -0.276,0.368 -0.704,0.03 -0.526,-0.244 -0.168,0.192 -0.088,0.188 -0.276,0.19 -0.532,0.05 -1.182,0.47 -0.542,-0.136 -0.646,-0.178 -0.446,0.174 -0.148,0.36 -0.206,0.28 -0.648,0 -0.52,-0.346 -0.53,-0.25 -0.586,0.216 -0.446,0.44 -0.548,0.148 -0.102,0.274 -0.238,0.136 -0.58,-0.058 -0.22,-0.68 -0.334,-0.1 -0.33,0.344 -0.118,0.268 -0.154,0.204 0.054,0.554 -0.326,0.012 -0.426,-0.34 -0.448,-0.06 -0.418,0.316 -0.212,-0.078 -0.224,-0.066 -0.366,0 -0.14,0.084 -0.268,0.05 -0.18,0.172 -0.016,0.014 -0.472,-0.116 -0.578,-0.46 -0.414,-0.764 -0.526,-0.412 -0.232,-0.362 -0.09,-0.65 -0.096,-0.31 0.032,-0.344 0.16,-0.306 -0.566,0.154 -0.418,0.286 0.086,0.36 -0.104,0.334 -0.624,0.174 0.038,0.14 0.042,0.148 0.488,0.456 0.1,0.382 0.198,0.204 0.382,0.594 -0.01,1.148 0.21,0.324 -0.07,0.322 -0.152,0.434 -0.014,0.006 -0.112,-0.132 -0.184,0.026 -0.074,0.146 -0.012,0.132 -0.032,0.006 -0.324,0.096 -0.272,0.082 -0.22,0.116 -0.346,0.342 -0.658,0.084 -0.338,-0.8 -0.454,0.534 -0.136,1.09 -0.168,0.186 -0.282,0.156 -0.534,-0.38 -0.466,0.254 -0.364,0.258 -0.15,0.238 -0.268,0.258 -0.514,-0.25 -0.414,-0.374 0.104,-0.282 -0.058,-0.184 -0.186,-0.14 -0.206,0.02 0.102,0.366 0.068,0.7 -0.188,0.202 -0.29,0.156 -0.626,-0.128 -0.426,-0.26 -0.518,-0.22 -0.456,-0.04 -0.1,0.442 -0.296,0.356 -0.274,0.044 -0.274,-0.056 -0.36,0.384 -0.17,0.28 -0.444,0.296 -1.18,0.144 -0.412,0.292 -0.552,-0.046 -0.428,0.07 -0.246,-0.016 -0.22,-0.158 -0.248,-0.004 -0.114,0.488 -0.668,0.206 -0.6,0.056 -0.668,0.644 -0.476,0.39 -0.354,0.04 -0.26,-0.138 -0.13,-0.576 -0.132,-0.068 -0.076,0.542 -0.126,0.45 -0.244,0.246 -0.772,0.56 -0.222,0.556 0.148,0.514 1.038,0.126 0.128,0.282 -0.1,0.23 -0.248,0.192 -0.074,0.288 1.114,0.916 0.034,0.346 -0.172,0.198 -0.208,0.426 -0.588,0.36 -1.244,0.184 -1.038,-0.186 -0.314,-0.41 0.02,-0.292 0.258,0.084 0.292,-0.026 -0.088,-0.268 -0.124,-0.156 -0.478,-0.238 -0.388,-0.642 0.074,-0.534 -0.21,-0.414 -0.232,-0.346 -0.232,-0.208 -0.126,-0.258 0.236,-0.812 -0.13,-0.472 0.444,-0.58 0.11,-0.654 0.792,-0.234 0.054,-0.624 -0.568,-0.018 -0.394,-0.458 -0.09,0.194 -0.316,0.02 -0.52,-0.884 -0.156,-0.112 -0.252,-0.016 0.126,0.932 -0.61,0.35 -0.5,0.154 -0.708,0.064 -0.404,0.108 -0.376,-0.088 0.092,-0.282 0.2,-0.336 -0.178,-0.282 -0.4,-0.216 -0.612,0.012 -0.422,-0.06 -0.42,0.024 -0.154,-0.126 -0.39,-0.442 -0.33,-0.274 -0.148,-0.274 0.148,-0.318 -0.124,-0.194 -0.638,-0.022 0.004,0.456 0.066,0.538 0.186,0.408 -0.132,0.228 -0.324,0.156 -0.346,-0.432 -0.158,-0.106 -0.166,0.02 -0.126,0.43 -0.314,0.382 -0.564,-0.042 -0.44,0.236 -0.532,0.108 -0.362,-0.316 -0.598,-0.508 -0.238,-0.058 -0.664,0.248 -0.954,0.092 -0.212,-0.264 -0.46,0.2 -0.444,-0.61 -0.526,-0.04 -0.656,-0.462 -0.236,-0.246 -0.074,-0.352 -0.2,-0.184 -0.256,0.024 -0.286,-0.188 -0.452,-0.186 -0.364,-0.11 -0.18,0.084 -0.19,0.044 -0.034,-0.236 0.014,-0.712 -0.034,-0.632 -0.1,-0.286 -0.244,-0.216 -0.22,-0.104 -0.098,-0.326 0.08,-0.64 0.18,-0.434 0.284,-0.078 0.384,-0.312 0.196,-0.444 0.246,-0.412 -0.876,-0.578 -0.46,-0.208 -0.51,0.088 -0.634,0.184 -0.33,0.036 -0.166,-0.072 -0.37,-0.52 -0.2,-0.09 -0.448,-0.034 -0.378,0.004 -0.216,0.226 -0.336,0.076 -0.336,0.012 -0.34,-0.282 -0.512,-0.368 -0.802,-0.26 -0.098,-0.298 -0.204,-0.358 -0.304,-0.332 -0.504,-0.44 -0.422,-0.228 -0.206,0.14 -0.28,0.25 -1.084,0.526 -0.48,0.206 -0.256,0.146 -0.214,0.22 -0.066,0.542 -0.106,0.604 -0.312,0.306 -0.296,0.232 -0.31,0.024 -0.304,-0.01 -0.286,0.096 -0.872,0.606 -0.41,-0.048 -0.338,-0.342 -0.144,-0.248 -0.39,0.056 -0.5,0.29 -0.232,0.52 -0.122,0.486 -0.11,0.216 -0.168,0.062 -0.148,0.01 -1.558,-1.402 -0.096,-0.072 -0.28,0.288 -0.254,0.744 -0.182,0.142 -0.124,-0.058 -0.644,-0.952 -0.166,-0.09 -0.146,0.032 -0.194,0.308 -0.408,0.454 -0.312,0.276 -0.008,0.306 -0.34,0.27 -0.394,0.27 -0.132,0.028 -0.262,-0.108 -0.342,-0.358 -0.248,-0.374 -0.614,-0.372 -0.688,-0.314 -0.456,-0.246 -0.26,-0.06 -0.242,0.11 -0.122,0.15 -0.172,0.372 -0.412,0.608 -0.368,0.484 -0.342,0.31 -0.272,0.214 -0.204,-0.2 -0.376,-0.164 -0.442,0 -0.582,0.308 -0.458,-0.616 -0.12,-0.03 -0.176,0.052 -0.204,0.146 -0.14,0.344 -0.148,0.47 -0.292,0.308 -0.242,0.136 0.07,0.264 0.138,0.286 -0.01,0.25 0.088,0.394 0.152,0.394 0.542,0.646 0.208,0.336 0.042,0.292 0.02,1.036 -0.022,0.432 -0.108,0.832 -0.008,0.48 0.226,0.216 0.218,0.258 -0.01,0.14 -0.096,0.05 -0.31,0.286 -0.13,0.038 -0.204,-0.118 -0.264,-0.088 -0.21,-0.114 -0.234,-0.184 -0.554,0.02 -0.91,0.28 -0.188,-0.08 -0.13,-0.158 -0.072,-0.328 0.044,-0.384 -0.08,-0.246 -0.17,-0.146 0.122,-0.686 -0.324,-0.272 0.046,-0.084 -0.108,-0.742 0.014,-0.184 -0.056,-0.062 -0.228,-0.058 -0.34,0.116 -1.034,0.488 -0.888,0.902 -0.406,0.2 -0.41,0.082 -0.482,-0.156 -0.534,-0.102 -0.762,0.228 -0.376,-0.106 -0.174,-0.184 -0.154,-0.28 0.094,-0.356 -0.058,-0.262 -0.304,-0.132 -0.354,-0.114 -0.21,-0.342 -0.084,-0.374 0.082,-0.486 0.042,-0.522 -0.17,-0.24 -0.518,-0.13 -1.306,-0.238 -1.144,-0.13 -0.48,0.062 -0.392,-0.058 -0.226,-0.096 -0.11,-0.164 -0.006,-0.236 0.186,-0.542 0.21,-0.53 0.532,-0.772 0.032,-0.536 -0.028,-0.618 0.264,-0.826 0.458,-0.618 0.226,-0.194 -0.054,-0.276 -0.184,-0.252 -0.262,-0.14 -0.434,-0.162 -0.676,-0.044 -0.928,-0.166 -1.074,-0.368 0.124,-0.706 -0.018,-0.442 -0.132,-0.364 -0.218,-0.258 -0.124,-0.23 0.194,-0.632 -0.25,-0.692 -0.294,-0.276 -0.304,-0.358 -0.024,-0.386 0.138,-0.36 0.744,-0.774 0.006,-0.188 -0.184,0.016 -0.212,0.016 -1.016,0.282 -0.11,-0.178 -0.364,-0.102 -0.742,-0.02 -0.868,0.052 -1.098,0.276 -1.008,0.484 -0.458,0.332 -0.39,0.206 -0.316,0.068 -0.366,-0.146 0.02,-0.474 0.688,-0.87 0.098,-0.598 -0.208,-0.514 -0.024,-0.412 -0.242,-0.262 -0.338,-0.128 -0.18,-0.292 -0.012,-0.856 0.302,-0.882 0.49,-0.278 0.298,-0.134 0.08,-0.172 -0.152,-0.62 0.024,-0.394 0.292,-0.762 0.292,-0.578 0.552,0.096 0.248,-0.144 0.274,-0.206 0.298,-0.348 0.2,-0.414 0.244,-0.96 0.166,-0.144 0.696,0.16 0.208,-0.112 0.38,-0.564 0.36,-0.688 0.522,-0.212 0.376,-0.022 0.174,-0.228 -0.01,-0.336 -0.358,-0.534 -0.15,-0.426 0.044,-0.26 0.512,-0.158 0.126,-0.31 -0.076,-0.68 0.21,-0.818 0.126,-0.958 0.042,-0.716 -0.006,-0.546 -0.05,-0.574 -0.072,-1.048 -0.234,-0.914 0.042,-0.344 -0.032,-1.11 -0.144,-0.948 -0.288,-0.166 -0.536,-0.308 -0.292,-0.06 -0.244,0.112 -0.092,0.33 -0.236,0.308 -0.29,-0.076 -0.138,-0.308 -0.186,-0.404 -0.622,-1.922 -0.068,-0.554 -0.11,-0.552 -0.208,-0.276 -0.22,-0.164 -0.496,-0.648 -0.26,-0.27 -0.126,-0.044 -0.272,0.046 -0.268,0 -0.218,-0.324 -0.2,-0.396 -0.2,-0.194 -0.336,-0.108 -0.344,0.042 -0.202,0.342 -0.136,0.194 -0.26,0.456 -0.42,0.63 -0.192,0.232 -0.186,-0.12 -0.81,-0.656 -0.39,-0.182 -0.532,0.198 -0.83,-0.156 -0.32,-0.03 -0.692,-0.524 -0.282,-0.064 -0.982,0.342 -0.216,0.242 -0.126,0.004 -0.262,-0.122 -0.214,-0.162 -0.014,-0.102 0.266,-0.256 0.02,-0.18 -0.014,-0.182 0.382,-0.516 1.042,-1 -0.174,-0.42 -0.41,-0.828 -0.054,-0.402 -0.178,-0.182 -0.498,0.148 -1.036,0.752 -0.142,-0.082 0.026,-0.26 -0.108,-0.758 0.328,-0.228 0.504,-0.278 0.388,-0.31 0.09,-0.25 -0.106,-0.078 -0.572,0.098 -0.226,-0.17 -0.374,-0.698 -0.274,-0.274 -0.248,-0.148 -0.844,0.36 -0.98,0.494 -1.092,0.688 0.006,0.352 -0.13,0.09 -0.208,0.222 -0.204,0.306 -0.174,0.108 -0.204,0.01 -0.416,-0.086 -0.754,-0.348 -0.818,-0.288 -0.176,0.032 -1.112,-0.204 -0.036,-0.164 -0.168,-0.322 -0.316,-0.292 -0.302,-0.098 -0.87,0.616 -0.982,0.458 -0.558,0.542 -0.46,0.538 -0.528,0.104 -0.024,0.332 -0.222,0.298 -0.4,0.368 -0.794,0.468 -0.538,0.252 -1.708,0.23 -0.61,0.156 -0.256,0.246 -0.274,0.624 -0.216,0.574 -0.472,0.474 -0.86,0.632 -1.01,0.512 -0.278,0.34 -0.05,0.202 0.126,0.074 0.124,0.154 0,0.232 -0.13,0.252 -0.66,0.44 -0.372,0.21 -0.37,0.134 -0.414,0.024 -0.398,-0.06 -0.11,-0.072 -0.158,0.092 -0.364,0.092 -0.316,0.03 -0.694,0.488 -0.382,0.004 -0.476,-0.106 -0.628,-0.084 -0.454,0 -0.014,-0.258 0.07,-0.774 -0.206,-0.18 -0.628,-0.19 -0.708,-0.252 -0.34,-0.268 -0.19,-0.09 -0.266,0.044 -0.426,0.282 -0.404,0.332 -0.32,0.028 -0.328,-0.154 -0.312,-0.204 -1.072,-0.286 -0.48,-0.042 -0.858,0.048 -0.7,-0.06 -0.11,-0.088 0.002,-0.16 0.104,-0.31 0.06,-0.306 -0.082,-0.174 -0.714,-0.214 -0.652,-0.154 -0.694,-0.058 -0.466,0.108 -0.456,0.24 -0.376,0.432 -0.544,0.188 -0.65,0.322 -0.314,0.3 -0.476,0.644 -0.692,0.79 -0.628,0.77 -0.326,0.748 -0.432,0.47 -0.438,0.338 -0.316,0.93 -0.33,-0.294 -0.378,-0.422 -0.09,-0.578 0.448,-1.536 0.106,-0.64 -0.114,-0.244 -0.14,-0.63 -0.266,-0.208 -0.76,-0.33 -0.242,-0.01 -0.26,0.228 -0.254,0.144 -0.338,0.144 -0.848,0.27 -0.752,0.126 -0.18,0.1 -0.056,0.18 0.06,0.214 -0.484,-0.082 -0.506,-0.046 -0.408,0.03 -0.998,0.408 -0.338,0.04 -0.376,-0.042 -0.512,-0.012 -0.974,0.012 -0.838,-0.104 -0.682,-0.57 -0.482,-0.252 -0.514,-0.194 -0.518,-0.146 -0.172,-0.306 -0.164,-0.154 -0.426,-0.05 -0.338,0.112 -0.21,0.77 -0.18,0.152 -0.428,0.068 -0.45,-0.196 -0.622,-0.396 -0.244,-0.44 -0.208,-0.142 -0.328,0.194 -0.018,0.564 -0.064,0.378 -0.39,0.154 -0.226,-0.112 -0.182,-0.388 -0.458,-0.922 -0.454,-0.54 -0.458,-0.36 -1.502,0.01 -1.114,-0.106 -0.504,-0.148 -0.19,-0.356 0.184,-0.712 0.216,-0.556 -0.006,-0.13 -0.184,-0.066 -0.32,-0.044 -1.202,0.356 -0.328,-0.042 -0.208,-0.122 -0.254,-0.104 -0.21,-0.166 -0.146,-0.242 -1.04,-0.594 -0.306,-0.326 -0.554,-0.408 -0.468,-0.278 -0.296,-0.796 -0.27,-0.766 -0.148,-0.408 -0.446,-0.216 -0.482,-0.164 -0.816,0.334 -0.67,0.254 -0.492,0.026 -0.71,-0.786 -0.57,-0.85 -0.674,-0.742 -0.448,-0.374 -0.794,-0.036 -0.894,-0.418 -1.2,-0.952 -0.866,-0.71 -1.492,-0.79 -0.348,-0.332 -0.132,-0.282 -0.204,-0.556 -0.312,-0.528 -1.058,-0.23 -1.196,-0.164 -1.262,0.324 -0.908,1.58 -0.438,0.344 -0.376,0.02 -0.308,-0.402 -0.254,-0.422 -0.138,-0.468 -0.628,-0.346 -0.71,-0.452 -0.364,-0.352 -0.41,-0.22 -0.382,-0.094 -0.736,-0.298 -0.834,-0.336 -0.392,-0.046 -0.028,-0.24 0.118,-0.51 -0.072,-0.49 -0.252,-0.2 -0.38,0.052 -0.88,-0.696 -0.044,-0.036 -0.25,-0.198 -0.434,-0.284 -0.732,0.02 -0.554,0.104 -0.406,-0.29 -0.588,-0.46 -0.106,-0.102 -0.174,-0.168 -0.596,-0.888 -0.704,-1.052 -0.356,-0.154 -0.184,0.08 -0.208,0.558 -0.156,-0.056 -0.262,0.038 -0.308,0.196 -0.296,0.05 -0.19,-0.058 -0.08,-0.138 0.084,-0.738 -0.18,-0.23 0.16,-0.514 0.27,-0.444 -0.276,-0.33 -0.34,-0.472 -0.038,-0.428 0.184,-0.54 0.09,-0.462 -0.056,-0.17 -0.268,-0.258 -1.022,-1.272 -0.054,-0.134 -0.172,-0.424 -0.08,-0.64 -0.132,-0.458 -0.156,-0.352 0.012,-0.166 0.118,-0.086 0.638,-0.086 0.59,-0.054 0.388,-0.12 0.202,0.256 0.094,0.392 0.102,0.206 0.374,0.372 0.456,0.356 0.442,-0.046 0.39,-0.152 0.338,-0.58 0.238,-0.142 0.278,-0.026 0,-0.042 -0.016,-0.374 0.098,-0.922 -0.034,-0.37 -0.126,-0.334 0.022,-0.372 -0.042,-0.54 -0.318,-0.37 -0.208,-0.142 -0.034,-0.2 0.108,-0.37 0.074,-0.426 -0.11,-0.314 -0.018,-0.048 -0.258,-0.162 -0.302,-0.274 -0.36,-0.37 -0.178,-0.268 -0.292,-0.296 -0.356,-0.46 -0.066,-1.01 -0.036,-1.064 -0.124,-0.53 -0.198,-0.846 0.03,-0.284 0.12,-0.216 1.004,-0.684 0.218,-0.266 0.036,-0.202 -0.04,-0.3 -0.19,-0.334 -0.4,-0.26 -0.572,-0.424 -0.518,-0.442 -0.872,-0.27 -1.058,-0.33 -0.254,-0.322 -0.256,-0.788 -0.436,-1.204 -0.464,-1.286 -0.358,-0.794 -0.018,-0.382 0.214,-0.976 -0.026,-0.208 -0.188,-0.072 -0.358,0.128 -0.286,0.154 -0.244,-0.08 -0.226,-0.164 -0.046,-0.056 -0.018,-0.022 -0.424,0.106 -0.85,0.06 -0.294,-0.01 -0.412,-0.014 -0.852,-0.224 -1.15,-0.302 -1.186,-0.42 -0.628,-0.334 -0.22,-0.116 -0.538,-0.348 -0.382,-0.3 -0.068,-0.786 -0.278,0.06 -0.652,0.284 -0.752,0.18 -0.416,0.002 -0.168,-0.126 -0.25,-0.83 -0.182,-0.234 -0.338,-0.092 -0.368,-0.146 -0.186,-0.216 -0.042,-0.274 0.164,-0.314 0.194,-0.242 0.034,-1.48 -0.126,-0.526 -0.106,-0.442 -0.27,-0.55 -0.252,-0.34 -0.38,-0.316 -0.59,-0.328 -0.526,-0.122 -0.636,0.24 -0.202,-0.092 -0.266,-1.016 -0.17,-0.208 -1.13,-0.418 -0.512,-0.096 -0.59,0.13 -0.336,0.112 -0.27,-0.186 -0.422,-0.236 -0.414,-0.162 -0.514,-0.006 -0.332,0.1 -0.084,-0.058 -0.16,-0.186 -0.684,-0.562 -0.024,-0.142 1.048,-0.554 0.618,-0.21 0.324,-0.168 0.068,0.036 0.16,0.256 0.408,0.168 0.288,-0.046 0.15,-0.128 0.508,-0.306 0.396,-0.356 0.222,-0.292 -0.12,-0.46 -0.624,-0.558 -0.396,-0.298 -0.122,-0.202 0.102,-0.606 0.144,-0.602 -0.096,-0.23 -0.118,-0.196 -0.052,-0.658 -0.272,-0.796 -0.296,-0.464 -0.082,-0.628 -0.016,-0.588 0.358,-0.924 -0.132,-0.4 -0.376,-0.356 -1.296,-0.644 -1.328,-0.426 -0.506,0.016 -0.314,-0.026 -0.372,0.376 -0.222,0.492 -0.31,0.044 -0.566,-0.208 -0.378,-0.316 -0.268,-0.658 -0.208,-0.848 -0.118,-0.266 0.06,-0.23 0.13,-0.204 0.362,-0.192 0.06,-0.196 -0.054,-0.242 -0.292,-0.306 -0.298,-0.432 -0.466,-0.898 0.09,-0.496 0.074,-0.714 -0.028,-0.376 0.472,-0.098 0.602,-0.194 0.28,-0.322 0.194,-0.328 0.042,-0.204 -0.182,-0.786 -0.24,-0.35 -0.024,-0.272 0.118,-0.208 0.158,-0.358 0.304,-0.736 0.296,-0.47 0.162,-0.118 0.362,-0.11 0.884,-0.13 0.95,-0.33 1.128,-0.988 0.376,-0.282 0.492,-0.142 0.352,0.01 0.064,-0.12 -0.228,-0.614 0.056,-0.222 0.134,-0.174 0.17,-0.08 0.782,0.324 0.598,-0.034 0.728,-0.192 1.57,-1.084 0.196,0.016 0.158,0.146 0.19,0.654 0.216,1.376 0.12,0.172 1.092,0.018 0.744,-0.5 0.326,-0.118 0.528,0.082 0.28,-0.234 0.292,-0.164 0.338,0.576 0.436,-0.276 0.47,-0.438 0.23,-0.454 0.318,-0.49 0.248,-0.622 0.1,-0.588 0.122,-0.276 0.264,-0.284 0.65,-1.214 0.468,-0.31 0.444,-0.11 1.098,0.21 0.57,-0.026 1.672,0.16 0.772,-0.234 0.54,-0.232 0.792,0.036 0.938,-0.184 1.25,-1.53 0.016,-0.326 0.076,-0.346 0.452,-0.342 0.562,-0.314 1.12,-0.75 2.278,-1.19 0.816,-0.478 0.34,0.012 0.84,-0.3 1.472,-0.584 0.416,-0.728 0.388,-0.146 1.72,-0.13 0.108,-0.084 0.06,-0.124 -0.096,-0.528 -0.112,-0.454 0.134,-0.134 0.144,-0.208 -0.022,-0.292 -0.278,-0.948 -0.148,-0.9 -0.098,-0.814 0.018,-0.304 0.208,-0.526 0.27,-0.478 0.974,-0.446 0.646,-0.134 0.026,-0.292 -0.522,-0.182 -0.378,-0.292 -0.066,-0.166 0.018,-0.19 0.088,-0.174 0.656,-0.328 0.618,-0.326 0.754,0.198 0.148,-0.126 0.044,-0.326 -0.162,-0.328 -0.152,-0.538 -0.348,-0.276 -0.014,-0.33 0.214,-0.57 -0.296,-1.056 -0.322,-0.934 -0.546,-1.604 -0.362,-0.464 -0.202,-0.742 -0.226,-0.39 0.02,-0.578 0.038,-0.406 -0.058,-0.806 -0.106,-0.876 0.106,-0.89 0.204,-0.588 -0.054,-0.226 0.108,-0.168 0.308,-0.056 0.146,-0.242 -0.146,-0.248 -0.532,-0.192 -0.594,-0.298 -0.714,0.034 -0.732,0.052 -0.366,-0.22 -0.32,-0.282 -0.018,-0.18 0.44,-0.476 0.612,-0.494 0.95,-0.218 1.046,-0.326 0.53,-0.236 0.706,-0.17 0.816,-0.072 0.41,0.048 1.05,-0.316 1.652,-0.612 1.5,-0.514 0.504,-0.306 0.376,0.306 0.174,0.674 0.438,0.348 0.434,0.168 0.25,-0.008 0.748,-0.262 0.808,-0.192 0.318,0.104 0.41,0.344 0.46,0.308 0.24,-0.014 0.21,-0.238 0.212,-0.48 0.134,-0.612 0.028,-0.648 -0.08,-0.396 -0.162,-0.146 -0.736,-0.234 -0.702,-0.382 -0.08,-0.35 0.016,-0.25 0.186,-0.612 0.458,-1.126 0.46,-1.558 0.244,-1.234 0.77,-1.846 0.606,-1.932 0.98,-2.792 0.164,-0.554 0.09,-0.886 0.052,-0.366 0.342,-0.192 0.576,0.188 1.406,0.64 1.07,0.538 0.448,0.182 0.666,0.19 1.03,0.224 0.596,-0.066 0.522,-0.132 0.696,-0.012 1.086,0.166 0.336,0.006 0.418,0.022 0.296,0.272 0.148,0.614 0.224,0.276 0.406,-0.102 0.864,-0.542 0.552,-0.426 0.69,-0.618 0.684,-0.084 0.726,-0.138 0.252,-0.306 0.268,-0.72 0.446,-0.544 0.074,-0.692 -0.156,-0.488 -0.31,-0.796 0.01,-0.538 -0.15,-1.562 -0.2,-1.41 0.204,-1.138 0.36,-1.276 0.14,-0.392 0.228,-0.514 0.322,-0.618 0.452,-0.194 1.27,-0.132 1.176,-0.26 0.6,-0.268 0.624,-0.162 0.372,-0.196 0.64,-0.906 0.304,-0.522 0.224,-1.388 -0.164,-0.668 0.136,-0.592 0.31,-0.348 0.436,-0.35 0.292,-0.06 0.622,-0.106 1.02,0.036 0.52,0.17 0.528,0.08 0.334,-0.126 0.222,-0.266 0.342,-0.084 0.514,-0.128 0.53,-0.16 0.292,0.03 0.06,0.394 -0.048,0.308 0.102,0.412 0.21,0.272 -0.068,0.294 -0.296,0.17 -0.292,0.23 -0.064,0.314 0.37,0.39 0.126,0.374 0.62,0.224 0.482,0.252 0.18,0.242 -0.054,0.272 -0.222,0.292 -0.214,0.314 -0.028,0.188 0.068,0.22 0.464,0.146 0.538,0.242 0.852,0.312 0.584,0.58 0.58,0.16 0.28,0.564 0.05,0.818 0.594,0.416 0.878,0.578 0.446,0.106 0.298,0.328 0.43,0.396 0.382,0.124 0.454,0.058 0.748,-0.368 0.84,-0.036 0.458,0.21 0.436,0.792 0.308,0.25 0.182,0.222 0.294,0.212 0.298,0.032 0.444,-0.176 0.27,-0.35 0.388,0.072 0.146,0.228 0.072,0.39 0.206,0.484 0.492,0.36 0.688,0.214 0.096,0.176 0.096,0.482 0.186,0.334 0.25,0.436 0.238,0.794 0.05,0.656 0.11,0.36 0.318,0.586 0.508,0.936 0.404,0.792 0.468,0.154 0.398,0.25 0.228,0.584 0.422,1.098 0.068,0.716 0.036,0.534 0.138,0.242 0.03,0.302 -0.352,1.146 -0.298,0.516 -0.038,0.434 0.202,0.754 0.278,0.584 0.028,0.558 -0.236,0.408 -0.406,0.51 -0.196,0.292 -0.316,0.256 -0.484,0.984 -0.218,1.086 -0.05,0.558 0.184,0.404 0.308,0.444 0.076,0.384 0.506,0.858 0.134,0.53 0.208,0.018 0.222,-0.174 0.542,-0.012 0.492,0.188 0.472,0.392 0.506,0.208 0.724,-0.052 0.386,0.21 0.416,0.172 0.862,0.06 0.646,-0.002 0.992,0.006 0.802,0.264 1.41,0.208 0.872,-0.016 1.172,-0.196 0.718,0.124 2.126,0.292 1.244,0.306 0.788,0.344 0.554,0.544 0.634,0.848 0.504,0.388 1.354,0.234 0.93,0.988 0.726,0.368 1.222,0.954 0.864,0.372 1.034,0.342 1.686,-0.146 0.094,0.128 -0.13,0.516 -0.102,0.706 0,0.51 0.174,0.26 0.644,0.154 0.304,0.25 0.232,0.48 0.134,0.298 0.542,1.468 0.868,2.162 0.1,0.83 0.296,0.534 0.942,0.846 0.494,0.626 0.736,0.656 0.242,0.606 0.054,0.782 0.186,0.202 1.346,-0.18 1.166,-0.126 2.092,-0.224 2.88,0.408 2.97,0.394 2.626,0.348 1.294,0.17 2.924,0.366 1.626,-0.466 1.27,-0.364 0.576,0.05 2.428,0.41 1.424,0.22 1.792,0.276 1.244,0.102 1.02,-0.006 0.47,0.116 0.454,0.178 0.302,0.26 0.932,1.312 0.522,0.578 1.034,0.436 2.348,0.498 1.3,0.302 1.492,0.346 0.984,0.522 1.132,0.606 1.466,0.784 1.606,-0.342 1.728,-0.37 1.084,-0.232 0,1.636 1.546,0.13 0.484,-0.018 0.684,0.36 0.384,-0.152 0.366,-0.354 0.458,-0.56 0.658,-0.246 1.138,-0.628 0.278,-0.152 1.69,-0.894 2.524,-1.104 1.132,-0.536 0.338,-0.12 0.64,-0.274 0.432,-0.19 0.764,-0.152 1.036,-0.096 1.132,-0.208 2.56,-0.392 0.322,-0.036 1.438,-0.162 0.612,-0.152 0.914,0.08 1.194,0.056 0.792,0.1 1.05,-0.078 1.444,-0.106 1.168,0.016 0.58,-0.132 0.856,-0.414 0.574,-0.328 0.902,-0.398 1.12,-0.414 0.78,-0.376 0.516,-0.25 0.626,-0.236 0.164,-0.304 0.18,-0.234 0.332,-0.39 0.598,-0.728 0.456,-0.638 0.224,-0.284 0.512,-0.638 0.414,-0.482 0.528,-0.65 0.444,-0.21 0.564,-0.178 1.482,-0.638 0.294,-0.138 0.246,-0.028 0.524,-0.516 0.444,-0.448 0.29,-0.334 0.602,-0.122 0.308,-0.242 0.054,-0.316 -0.062,-0.484 -0.29,-0.496 -0.244,-0.434 -0.86,-0.828 -0.456,-0.514 -0.464,-0.662 -0.19,-0.622 -0.318,-0.396 -0.152,-0.352 0.048,-0.406 0.442,-0.724 0.14,-0.458 0.184,-0.81 0.414,-1.214 0.338,-0.57 0.39,-0.556 0.826,-0.748 0.756,-0.138 0.45,0.148 1.006,0 0.67,0.04 0.494,0.374 0.546,0.738 0.618,0.27 1.924,0.578 0.822,0.122 0.588,0.026 0.87,0.19 0.292,0.042 0.446,0.13 0.368,-0.14 0.558,-0.494 0.702,-0.554 0.302,-0.128 0.558,-0.24 0.28,-0.226 0.49,-0.624 0.636,-0.484 0.776,-0.728 0.382,-0.548 0.084,-0.354 0.084,-0.384 0.24,-0.202 0.472,-0.186 0.532,-0.05 1.012,0.33 1.368,-0.094 0.306,-0.048 1.246,-0.19 0.562,-0.156 0.792,-0.15 0.608,-0.612 0.814,-0.73 0.592,-0.406 0.394,-0.078 0.492,-0.422 0.242,-0.454 -0.064,-0.4 -0.092,-0.33 0.29,-0.614 0.524,-1.076 0.488,-0.502 0.404,-0.406 0.258,-0.654 0.318,-0.188 0.39,-0.072 0.55,-0.444 0.404,-0.09 0.672,0.212 0.994,0.054 0.634,0.022 0.362,-0.08 0.132,-0.238 -0.004,-0.368 0.202,-0.82 0.076,-0.27 0.182,-0.126 0.612,-0.016 0.412,0.294 0.284,0.244 0.394,0.032 0.406,-0.16 0.542,-0.664 0.904,-0.386 0.48,-0.098 0.852,-0.314 0.538,0.114 0.988,0.092 0.382,-0.08 0.416,0.08 0.378,-0.45 0.3,-0.108 0.636,0.208 0.4,0.348 0.748,0.436 0.954,0.204 0.798,-0.104 0.82,0.184 0.484,-0.016 0.23,-0.172 0.672,-0.366 0.16,-0.496 -0.066,-0.478 0.078,-0.542 -0.198,-0.4 -0.416,-0.592 -0.162,-0.396 -0.014,-0.518 -0.26,-0.494 -0.624,-0.596 -0.41,-0.276 -0.844,-1.032 -0.286,-0.242 -0.098,-0.17 -0.098,-0.346 -0.312,-0.166 -0.41,-0.27 -0.22,-0.276 -0.144,-0.48 -0.086,-0.314 -0.362,-0.26 -0.362,-0.146 -0.408,-0.184 -0.676,-0.27 -0.39,-0.538 -0.688,-1.01 -0.39,-0.34 -1.452,-0.13 -0.522,-0.246 -0.59,0.084 -0.352,0.162 -0.78,-0.002 -0.404,0.1 -0.514,0.666 -0.682,0.864 -0.562,0.526 -0.4,0.546 -0.186,0.196 -0.364,-0.118 -0.5,-0.614 -0.714,-0.55 -0.662,-0.25 -0.284,-0.138 -0.79,-0.14 -0.61,0.044 -0.778,0.208 -0.76,-0.038 -0.342,-0.132 -0.484,0.014 -0.876,0.572 -0.454,0.65 -0.538,0.204 -0.486,-0.426 -0.56,-0.504 -0.536,-0.632 -0.33,-0.586 -0.184,-1.556 0.642,-0.464 0.82,-0.522 0.062,-0.826 -0.03,-0.922 0.162,-1.028 0.748,-0.95 0.402,-0.788 0.05,-0.492 0.36,-0.818 0.344,-0.864 0.47,-1.136 0.89,-2.024 1.052,-2.404 0.526,-1.204 1.154,0.746 0.744,0.388 1.258,0.588 1.298,0.132 1.242,0.636 0.64,0.192 0.342,0 1.758,-1.548 1.486,-1.314 1.708,-1.028 1.256,-0.14 0.944,-0.3 0.628,-0.462 0.374,-0.772 0.114,-1.084 -0.252,-0.658 -0.616,-0.228 -0.158,-0.23 0.296,-0.234 0.22,-0.454 0.138,-0.676 0.356,-0.644 0.57,-0.608 0.316,-0.676 0.058,-0.744 0.344,-0.744 0.626,-0.742 0.344,-0.692 0.058,-0.64 0.318,-0.784 0.864,-1.39 0.56,-1.606 0.956,-1.104 1.536,-1.136 0.958,-1.13 0.382,-1.124 -0.03,-0.996 -0.444,-0.864 -0.086,-0.88 0.276,-0.898 -0.242,-0.672 -0.758,-0.446 -0.904,-0.11 -1.05,0.226 -0.59,-0.282 -0.13,-0.788 0.282,-0.638 0.694,-0.488 1.14,-1.19 1.588,-1.9 1.58,-1.054 2.356,-0.304 1.9,-0.626 1.936,-0.636 1.398,-0.316 0.238,0.212 0.762,0.052 1.286,-0.108 1.194,-0.274 1.104,-0.442 0.874,-0.104 0.642,0.234 0.378,0.028 z" title="China" id="CN"></path></svg>