<svg xmlns="http://www.w3.org/2000/svg" width="18.77" height="17.64"><path d="m 12.72,1.54 0.14,0.226 0.162,0.354 0.072,0.456 0.714,1.526 0.57,0.852 1.248,1.552 0.538,0.286 0.91,1.246 0.314,0.206 0.18,0.368 0.944,0.302 0.262,0.224 -0.032,0.104 -0.098,0.11 -0.138,0.11 -0.184,0.076 -0.444,-0.228 -0.438,-0.258 -0.24,0.118 -0.09,0.336 -0.162,0.172 -0.202,0.068 -0.084,0.112 -0.018,1.132 0.016,1.066 0.33,0.024 0.552,0.37 0.236,0.218 0.074,0.202 -0.068,0.098 -0.404,0.232 -0.394,0.294 -0.196,0.366 0.344,0.594 0.074,0.402 -0.012,0.422 -0.096,0.202 -0.762,0.482 -0.166,0.17 0.02,0.122 0.422,0.334 0.198,0.322 0.166,0.388 0.024,0.338 -0.382,-0.626 -0.528,-0.598 -0.46,-0.368 -0.036,-0.858 -0.184,-0.466 -0.692,-0.43 -0.592,-0.302 -0.44,0.062 0.27,0.494 0.694,0.634 0.046,0.242 -0.01,0.326 -0.478,-0.05 -0.424,-0.132 -0.514,-0.042 -0.342,-0.194 -0.726,-0.758 0.516,-0.644 0.16,-0.424 -0.014,-0.88 -0.118,-0.426 -0.56,-0.648 -0.89,-0.714 -1.248,-0.582 -0.586,-0.47 -1.462,-0.36 -0.556,-0.238 -0.434,-0.442 -0.064,-0.318 0.154,-0.49 -0.404,-0.622 -1.74,-1.226 -0.974,-0.45 -0.208,-0.266 -0.154,-0.082 0.148,0.846 0.426,0.51 1.11,0.474 0.306,0.278 0.124,0.36 -0.644,0.688 -0.33,0.174 -0.096,0.376 -0.21,0.114 -0.222,-0.216 -0.9,-1.08 -1.742,-0.518 -0.316,-0.318 -0.648,-0.988 -0.298,-0.9 0.106,-0.602 0.716,-0.938 0.224,-0.408 -0.046,-0.252 0.022,-0.37 -0.266,-0.258 -0.662,-0.338 -0.422,-0.27 0.116,-0.134 0.758,-0.364 0.048,-0.328 -0.004,-0.108 0.124,-0.024 0.11,-0.086 0.068,-0.092 0.206,-0.316 0.182,-0.178 0.21,-0.028 0.254,0.13 0.956,0.342 1.064,0.378 1.514,0.536 0.628,-0.344 0.54,-0.262 0.376,0.038 0.814,0.306 0.49,0.098 0.3,-0.032 0.52,0.45 0.284,0.338 0.048,0.224 0.158,0.122 0.406,0.026 0.992,0.228 0.606,-0.044 0.552,-0.242 0.304,-0.29 z" title="Costa Rica" id="CR"></path></svg>