<svg xmlns="http://www.w3.org/2000/svg" width="60.35" height="20.02"><path d="m 17.14,0.18 1.47,0.282 1.188,-0.08 0.568,-0.166 -0.052,0.17 0.522,0.418 0.19,0.028 0.768,-0.212 2.006,-0.08 0.206,0.118 0.354,0.408 0.512,0.252 0.53,0.192 0.554,0.05 0.552,-0.086 0.518,0.042 0.648,0.396 0.204,0.046 0.58,-0.108 -0.17,0.364 0.976,0.508 0.716,1 0.52,0.41 0.55,0.368 0.464,0.25 0.52,0.12 1.578,-0.048 0.374,0.03 0.334,0.142 0.318,0.056 0.184,-0.054 3.048,1.552 0.97,0.828 0.592,0.43 1.282,0.62 0.514,0.136 0.27,-0.082 -0.052,-0.136 -0.376,-0.344 -0.056,-0.126 0.482,0.106 0.87,0.7 0.24,0.258 0.434,0.24 0.438,0.172 -0.208,0.276 -0.356,0.024 -0.682,-0.114 0.542,0.45 0.092,0.326 0.252,0.028 0.376,-0.358 0.238,-0.302 0.958,0.78 0.516,0.356 -0.132,0.208 -0.042,0.206 0.576,-0.192 0.218,0.022 0.21,0.11 0.23,0.334 0.538,0.074 0.542,-0.008 1.1,0.276 1.042,0.562 0.98,0.114 0.988,0.02 0.5,0.296 0.212,0.4 -0.24,0.282 -0.136,0.294 0.368,0.362 -0.802,0.154 -0.114,0.218 0.042,0.234 0.16,0.128 0.458,-0.112 0.664,0.1 1.046,0.088 0.7,-0.072 1.424,0.246 0.432,0.132 0.844,0.462 0.39,0.304 0.838,0.82 0.722,0.322 0.626,0.078 0.218,-0.054 0.198,0.09 0.174,0.114 0.172,0.358 -0.096,0.376 -0.358,0.306 -0.198,0.222 -0.894,0.026 -1.25,0.102 -1.208,0.332 -0.59,0.264 -0.27,0.174 -0.636,0.162 -0.042,-0.138 0.012,-0.174 -0.166,-0.322 -0.144,0.29 -0.236,0.212 -0.398,0.18 -1.468,0.012 -0.59,-0.244 -0.606,-0.166 -2.208,-0.174 -0.53,0.014 -1.474,0.182 -1.482,0.098 -0.62,0.112 -0.614,0.168 -1.194,-0.006 -1.41,0.192 -1.414,0.036 0.906,-1.346 1.91,-1.298 0.36,-0.28 0.256,-0.358 0.06,-0.27 -0.084,-0.23 -0.456,-0.408 -0.092,-0.302 -0.136,-0.196 -0.662,-0.17 -0.67,-0.102 -0.706,-0.002 -1.482,-0.14 -0.788,-0.01 -0.668,-0.278 -1.108,-0.988 -0.518,-0.278 -0.266,-0.222 -0.208,-0.256 -0.26,-1.456 -0.22,-0.7 -0.336,-0.61 -0.512,-0.462 -0.536,-0.158 -2.056,0.396 -0.478,-0.06 -0.466,-0.134 -3.104,-0.946 -1.28,-0.52 -0.522,-0.258 -0.446,-0.368 -0.462,-0.604 -0.518,-0.54 0.002,0.218 -0.08,0.142 -2.598,0.064 -0.414,-0.124 -0.266,-0.148 -0.188,-0.218 -0.14,-0.438 -0.248,-0.368 -0.08,0.392 -0.128,0.362 -0.348,0.202 -0.398,0.034 -0.482,-0.48 -2.106,-0.1 -0.186,-0.082 -0.692,-0.466 -0.59,-0.584 0.586,-0.206 1.212,-0.27 0.262,-0.18 0.152,-0.232 -0.11,-0.344 -0.242,-0.25 -0.248,-0.146 -0.274,-0.092 -0.362,-0.04 -4.686,-0.062 -0.27,0.188 -0.42,0.382 -0.832,0.49 -0.548,0.508 -0.206,0.262 -0.256,0.188 -0.576,0.314 -0.492,0.484 -0.596,0.216 -0.326,-0.132 -0.322,0.002 -0.234,0.12 -0.246,0.054 -1.202,0.058 -0.18,0.124 -0.172,0.346 -0.196,0.674 -0.184,0.222 -0.602,0.084 -0.574,0.184 -1.168,0.64 -0.302,0.094 0.066,-0.47 -0.058,-0.458 -0.33,-0.016 -0.376,0.076 -0.314,0.128 -0.58,0.342 -0.294,0.086 -0.274,-0.174 0.056,-0.224 1.934,-0.824 0.216,-0.062 0.344,0.062 0.336,-0.028 0.262,-0.232 -0.318,-1.092 0.122,-0.744 0.448,-0.576 0.896,-0.874 0.432,-0.288 4.418,-1.826 0.452,-0.094 2.872,-0.368 0.438,-0.128 1.332,-0.542 1.398,-0.222 1.498,0.174 z m 13.964,3.022 0.01,0.16 -0.982,-0.444 -0.422,-0.462 -0.17,-0.106 0.276,-0.01 1.106,0.758 0.182,0.104 z m 4.038,0.676 0.77,0.128 0.268,-0.078 0.256,-0.022 0.27,0.054 0.378,0.502 -0.332,0.062 -0.264,0 -0.194,-0.09 -0.692,-0.022 -0.456,-0.146 -0.25,-0.126 -0.122,-0.152 0.368,-0.11 z m 3.384,1.612 -0.114,0.1 -0.304,-0.224 -0.44,-0.098 -0.258,-0.35 -0.248,-0.134 -0.02,-0.128 0.408,-0.084 0.284,0.038 0.316,0.266 0.182,0.492 0.194,0.122 z m 0.83,0.952 -0.184,0.016 -0.558,-0.25 -0.166,-0.21 0.196,-0.282 0.042,-0.306 0.076,-0.02 0.09,0.372 0.426,0.158 0.026,0.082 0.262,0.314 -0.21,0.126 z m 1.182,1.056 -0.23,0.184 -0.252,-0.266 -0.16,-0.028 -0.222,-0.106 -0.43,-0.296 -0.104,-0.306 0.358,-0.024 0.452,0.054 0.79,0.174 -0.07,0.346 -0.132,0.268 z m -27.464,2.284 -0.522,0.318 -1.114,0.448 -0.598,0.016 -0.604,-0.168 -0.416,-0.374 -0.238,-0.37 0.02,-0.178 0.378,0.296 0.326,0.146 0.268,-0.098 0.19,-0.16 -0.612,-1.196 0.028,-0.252 0.486,-0.658 1.322,0.2 0.23,0.116 0.184,0.416 0.294,0.326 0.346,0.872 0.032,0.3 z" title="Cuba" id="CU"></path></svg>