<svg xmlns="http://www.w3.org/2000/svg" width="12.66" height="7.46"><path d="m 12.14,0.48 -2.926,2.068 -0.19,0.614 0.13,0.424 0.412,0.514 0.108,0.134 0.148,0.39 -0.638,0.116 -0.64,0.038 -0.356,-0.052 -0.336,0.024 -1.038,1.114 -0.558,0.378 -0.664,0.224 -0.676,0.134 -0.34,0.018 -0.3,0.14 -0.21,0.258 -0.004,0.25 -0.09,0.206 -0.372,-0.042 -0.154,-0.404 -0.264,-0.174 -0.658,0.09 -0.32,-0.012 -1.052,-0.384 -0.318,-0.16 -0.198,-0.33 -0.542,-1.192 -0.09,-0.886 0.504,0.228 0.472,-0.276 0.454,-0.45 0.542,-0.184 0.338,0.08 0.336,0.08 0.604,-0.144 0.26,-0.668 0.086,-0.768 1.02,0.22 1.036,0.114 0.846,0.038 0.836,-0.124 2.558,-0.822 0.724,-0.492 0.45,-0.168 0.778,-0.406 0.814,-0.226 z" title="Cyprus" id="CY"></path></svg>