<svg xmlns="http://www.w3.org/2000/svg" width="9.23" height="10.07"><path d="m 8.32,6.9 -0.486,0.762 -0.622,0.976 -0.706,1.108 -0.442,0.008 -0.342,-0.064 -0.236,-0.188 -0.484,-0.206 -0.546,-0.014 -0.52,0.192 -0.88,0.238 -0.796,0.078 -0.642,0.132 -0.53,0.154 -0.48,-0.084 -0.414,-0.138 -0.092,-1.18 -0.096,-1.28 0.01,-1.002 0.146,-0.552 0.13,-0.216 0.752,-0.762 0.26,-0.312 0.858,-1.264 0.738,-1.086 0.55,-0.81 0.17,-0.16 0.232,-0.156 0.164,0.046 1.072,0.782 0.188,-0.022 0.358,-0.242 0.324,-0.836 0.228,-0.306 0.098,0.008 0.688,-0.234 0.622,-0.266 0.08,0.276 0.94,1.124 0.31,0.552 0.314,1.012 -0.164,0.562 -0.246,0.368 -0.362,0.326 -1.258,0.802 -1.398,0.51 -0.892,1.022 -0.664,-0.07 0.102,0.386 0.246,0.044 0.388,-0.074 0.77,-0.296 0.682,-0.142 0.738,-0.01 0.668,0.128 z" title="Djibouti" id="DJ"></path></svg>