<svg xmlns="http://www.w3.org/2000/svg" width="20.55" height="13.43"><path d="m 1.3,11.06 0.024,-0.968 0.15,-0.394 -0.138,-0.414 -0.622,-0.44 -0.38,-0.568 -0.338,-0.502 0.076,-0.072 0.676,-0.022 0.238,-0.186 0.454,-0.514 0.09,-0.414 -0.036,-0.314 -0.296,-0.374 -0.116,-0.396 0.364,-0.344 0.478,-0.504 0.066,-0.194 -0.01,-0.192 -0.558,-0.53 -0.038,-0.23 0.26,-0.576 -0.026,-0.382 -0.258,-1.194 -0.122,-0.178 0.248,-0.1 0.164,-0.356 0.216,-0.318 0.288,-0.17 0.328,-0.108 0.65,0.01 0.9,0.276 0.256,-0.004 0.864,-0.252 0.716,-0.14 0.676,0.16 0.274,0.216 0.556,0.342 0.28,0.102 0.88,-0.006 0.242,0.034 0.738,0.564 0.622,0.226 0.362,0.01 0.648,-0.218 0.322,0.006 0.368,0.486 0.072,0.69 0.308,0.628 0.472,0.402 2.326,-0.168 0.518,0.33 -0.176,0.272 -0.33,0.146 -1.106,-0.064 -0.482,0.032 -0.098,0.272 -0.002,0.252 0.646,0.06 0.634,0.126 0.648,0.204 0.656,0.138 0.74,0.09 0.73,0.146 1.216,0.494 1.342,1.12 0.36,0.256 0.238,0.35 -0.114,0.434 -0.48,0.708 -0.272,0.226 -0.396,0.14 -0.272,0.288 -0.262,0.494 -0.16,0.042 -0.188,-0.02 -0.322,-0.28 -0.23,-0.43 -0.65,-0.404 -0.77,0.052 -1.136,-0.238 -0.686,0.114 -0.688,0.028 -0.702,-0.122 -0.708,-0.042 -0.706,0.152 -0.684,0.258 -0.252,0.166 -0.44,0.402 -0.234,0.15 -1.666,0.202 -0.478,-0.296 -0.446,-0.404 -0.64,-0.054 -0.93,0.312 -0.58,0.114 -0.236,0.132 -0.07,0.154 -0.002,0.564 -0.13,0.342 -0.906,1.292 -0.51,0.912 -0.21,0.28 -0.244,0.062 -0.446,-0.524 -0.284,-0.188 -0.352,-0.096 -0.15,-0.278 0.006,-0.396 -0.092,-0.384 -0.218,-0.302 z" title="Dominican Republic" id="DO"></path></svg>