<svg xmlns="http://www.w3.org/2000/svg" width="35.34" height="22.73"><path d="m 34.56,1.72 0.298,0.342 0.376,0.552 0.102,0.316 -0.128,0.186 -0.376,0.158 -0.086,0.17 -0.166,0.286 -0.44,0.052 -0.226,0.212 -0.27,0.93 -0.516,1.536 -0.762,1.164 -0.61,0.636 -0.272,0.488 -0.17,0.584 -0.04,0.586 0.584,3.2 -0.006,0.576 -0.138,0.59 -0.1,0.598 0.082,0.518 0.386,0.884 0.41,1.316 0.166,0.838 0.272,0.306 0.262,0.226 0.054,0.142 -0.008,0.146 -0.136,0.166 -1.182,0.438 -0.154,0.37 -0.128,0.414 -0.516,0.61 -0.158,0.568 -0.098,0.65 -0.012,0.232 -0.142,0.028 -0.784,-0.134 -0.864,-0.422 -0.378,-0.318 -0.372,0.004 -0.45,0.208 -1.612,0.602 -0.396,-0.14 -0.92,-0.592 -0.466,-0.646 -1.038,-1.288 -0.084,-0.308 -0.136,-0.246 -1.108,-0.32 -0.41,-0.478 -0.34,-0.066 -0.5,-0.24 -1.298,-1.022 -0.322,-0.096 -0.078,0.172 0.022,0.242 -0.082,0.14 -0.166,-0.004 -0.3,-0.376 -0.36,-0.332 -1.122,0.624 -0.406,0.166 -0.356,0.038 -1.778,0.816 -0.542,0.44 -0.224,-0.046 0.052,-0.414 0.74,-2.074 0.132,-1.654 0.27,-0.228 0.08,-0.23 -0.116,-0.53 -0.768,-0.34 -0.31,0.05 -0.28,0.57 -0.29,0.41 -0.678,0.25 -0.584,-0.432 -1.366,-0.578 -0.344,-0.772 -0.082,-0.778 -0.722,-0.752 -0.3,-0.89 0.12,-0.622 0.656,-0.41 0.186,-0.356 -0.826,0.056 -0.168,-0.086 -0.036,-0.32 -0.366,-1.096 0.324,-0.432 0.142,-0.42 -0.266,-0.358 0.07,-0.41 0.208,-0.414 -0.126,-0.962 0.82,-0.51 0.796,-0.36 1.69,-0.184 -0.166,-0.884 0.682,-0.04 1.15,-1.066 1.14,0.188 1.65,-0.732 3.178,0.01 0.434,-0.424 -0.076,-0.426 0.01,-0.454 0.598,0.126 1,-0.08 3.744,0.894 0.922,0 1.274,0.906 0.688,0.234 2.026,0 3.126,0.4 0.614,-0.612 0.066,-0.156 z m -28.562,7.184 -0.46,0.534 -0.274,-0.212 -0.144,-0.256 -0.594,1.208 -0.668,0.206 -0.39,-0.238 0.036,-0.45 -0.38,-1.186 -0.582,-0.348 -0.818,-0.032 -0.592,-0.49 2.282,-0.334 0.236,-0.568 0.464,-0.596 0.348,-0.064 0.296,0.138 0.056,0.462 0.074,0.184 1.034,0.26 0.404,0.776 0.152,0.93 -0.48,0.076 z m 2.356,2.982 -0.466,0.112 -1.106,-0.764 0.256,-0.518 0.316,-0.204 0.94,0.318 0.132,0.786 -0.072,0.27 z m -4.076,-0.762 0.398,0.26 0.368,-0.082 0.374,-0.182 0.808,0.17 1.844,1.312 0.17,0.35 -1.102,0.16 -0.25,0.4 -0.264,0.28 -0.312,0.09 -0.532,0.562 -0.718,0.538 -0.15,0.322 -1.302,-0.06 -0.71,0.204 -0.574,0.6 -0.236,1.156 -0.42,0.9 -0.428,0.324 -0.446,0.05 -0.106,-0.336 0.042,-0.336 0.938,-1.272 0.196,-0.414 -0.468,-0.184 -0.392,-0.444 -0.856,-0.52 -0.154,-0.418 0.204,-0.032 0.188,-0.12 0.228,-0.352 0.106,-0.404 -0.684,-1.184 0.348,-0.184 0.436,0.042 0.446,0.344 0.49,-0.404 0.208,-0.06 0.342,0.144 0.346,-0.784 0.822,-0.258 0.408,-0.242 0.394,0.064 z" title="Estonia" id="EE"></path></svg>