<svg xmlns="http://www.w3.org/2000/svg" width="37.56" height="32.55"><path d="m 37.56,30.66 -0.624,0.266 -0.688,0.234 -0.098,-0.008 -0.228,0.306 -0.326,0.836 -0.358,0.244 -0.188,0.022 -1.07,-0.782 -0.166,-0.044 -0.232,0.154 -0.168,0.16 -0.498,-0.594 -0.364,-0.524 -0.508,-0.626 -0.494,-0.282 -0.53,-0.354 -0.52,-0.822 -0.53,-0.906 -0.786,-0.742 -1.47,-1.07 -1.35,-1.356 -1.032,-1.418 -0.666,-0.74 -0.284,-0.188 -1.376,-0.464 -0.96,-0.65 -0.74,-0.536 -0.454,-0.144 -0.44,-0.018 -0.938,0.106 -0.78,-0.336 -0.328,0 -0.522,-0.098 -0.41,-0.12 -0.482,0.144 -0.988,0.24 -0.406,-0.052 -0.22,-0.334 -0.13,-0.256 -0.344,-0.266 -0.284,0 -0.158,0.238 -1.032,0.602 -1.726,0.334 -0.41,-0.024 -0.306,-0.242 -0.872,-1.034 -0.25,-0.168 -0.198,-0.016 -0.404,-0.122 -0.378,-0.198 -0.332,-0.424 -0.334,-0.242 -0.358,0.83 -0.628,1.448 -0.336,0.776 -0.434,0.998 -0.136,0.03 -0.222,-0.072 -0.862,-1.244 -0.542,-0.468 -0.404,0.044 -0.294,0.23 -0.186,0.416 -0.202,0.256 -0.218,0.1 -0.47,-0.05 -0.722,-0.198 -0.746,0.042 -0.768,0.284 -0.102,0.008 -0.18,-1.656 -0.12,-1.108 -0.128,-1.174 -0.12,-1.11 0.534,-0.682 0.248,-0.648 0.636,-2.108 0.254,-0.42 0.5,-1.13 0.07,-0.328 0.494,-1.428 -0.046,-0.95 -0.1,-0.96 0.27,-0.57 0.24,-0.456 -0.016,-0.384 0.108,-0.898 0.078,-0.224 0.294,-0.014 0.606,0.116 0.446,-0.09 0.514,0 0.396,-0.028 0.234,-0.274 0.322,-1.048 0.208,-0.21 0.162,-0.064 0.454,-0.194 0.388,-0.306 0.316,-0.218 0.118,-0.044 0.334,-0.028 0.334,-0.128 0.154,-0.148 0.422,-0.118 0.414,0.066 0.278,-0.13 0.186,-0.084 0.21,-0.006 0.194,-0.122 0.078,-0.186 0.126,-0.12 0.322,-0.272 0.148,-0.198 0.066,-0.2 0.066,-0.158 0.142,-0.268 0.564,-0.672 0.486,-0.39 1.696,3.384 0.688,1.996 0.608,2.078 0.45,3.114 0.428,1.584 0.692,0.78 0.474,1.474 0.406,0.056 0.294,0.404 0.504,1.382 0.362,0.514 0.19,-0.442 -0.022,-0.254 -0.142,-0.426 0.13,-0.548 0.282,-0.328 0.644,0.448 0.352,0.338 0.094,0.678 0.148,0.376 0.672,0.796 0.568,0.232 0.736,0.058 0.616,0.174 0.494,0.292 0.926,0.808 2.118,0.708 1.702,2.168 1.002,1.5 3.294,2.27 0.57,1.086 0.296,1.064 0.692,-0.05 1.188,1.162 0.346,0.882 0.972,0.32 0.166,-0.522 0.47,0.428 0.2,0.67 z m -17.064,-19.43 0.188,0.56 -0.548,-0.214 -0.09,-0.116 0.24,-0.222 0.052,-0.136 0.158,0.128 z m 0.362,2.24 0.232,0.308 0.162,-0.03 0.128,-0.102 0.09,-0.218 0.886,0.43 -0.05,0.286 -0.53,0.014 -0.61,-0.122 -0.566,0.042 -0.674,-0.124 -0.156,-0.486 0.43,0.234 0.222,-0.058 0.04,-0.062 -0.304,-0.328 -0.428,-0.066 0.03,-0.258 0.192,-0.102 0.118,-0.126 -0.246,-0.354 0.482,0.08 0.304,0.214 0.2,0.25 0.048,0.578 z" title="Eritrea" id="ER"></path></svg>