<svg xmlns="http://www.w3.org/2000/svg" width="84.08" height="64.48"><path d="m 30.5,2.44 0.41,0.024 1.726,-0.334 1.032,-0.602 0.156,-0.238 0.284,0 0.344,0.266 0.13,0.256 0.22,0.336 0.406,0.052 0.986,-0.238 0.484,-0.144 0.408,0.118 0.522,0.098 0.328,0 0.78,0.338 0.936,-0.108 0.442,0.018 0.454,0.144 0.738,0.536 0.962,0.65 1.376,0.464 0.284,0.188 0.664,0.74 1.032,1.418 1.35,1.356 1.472,1.07 0.786,0.74 0.53,0.906 0.52,0.822 0.53,0.354 0.492,0.28 0.51,0.626 0.364,0.524 0.496,0.594 -0.55,0.81 -0.738,1.086 -0.858,1.264 -0.26,0.312 -0.752,0.762 -0.13,0.216 -0.146,0.552 -0.01,1.002 0.096,1.28 0.092,1.18 0.414,0.138 0.48,0.084 0.53,-0.154 0.642,-0.132 0.796,-0.078 0.88,-0.238 0.52,-0.192 0.546,0.014 0.484,0.206 0.236,0.188 0.342,0.064 0.442,-0.008 -0.094,0.222 -0.242,0.324 -0.298,0.324 -0.262,0.336 -0.582,0.94 -0.018,0.12 0.072,0.186 0.314,0.428 0.328,0.694 0.184,0.636 0.142,0.308 0.398,0.352 0.574,0.726 0.304,0.49 0.634,0.262 0.206,0.62 0.474,0.912 0.512,0.728 0.496,0.57 0.552,0.22 0.222,0.018 1.158,1.054 0.882,0.802 0.218,0.128 1.59,0.526 1.83,0.604 1.468,0.484 1.87,0.616 1.844,0.61 1.73,0.58 2.428,0.816 1.956,0.658 1.544,0.52 0.328,0.162 1.838,0 1.866,0 1.91,0 -1.384,1.338 -1.566,1.514 -1.644,1.588 -1.06,1.022 -1.678,1.622 -1.398,1.348 -1.438,1.472 -1.3,1.332 -1.692,1.844 -1.096,1.192 -1.716,1.87 -1.078,1.172 -0.164,0.068 -1.542,-0.088 -1.5,-0.088 -1.916,-0.11 -0.22,0.004 -0.558,0.11 -0.338,0.108 -1.38,0.316 -0.254,0.082 -1.146,0.502 -1.17,0.592 -0.616,0.456 -0.476,0.66 -0.204,0.47 -0.214,0.206 -0.364,0.18 -2.45,0.446 -0.712,0.06 -1.146,0.356 -0.612,0.596 -0.174,0.3 -0.822,-0.008 -1.436,0.088 -0.614,0.096 -0.3,0.016 -0.55,-0.002 -0.452,-0.108 -0.3,-0.162 -0.372,-0.366 -0.832,-0.742 -0.604,-0.464 -1.326,0.534 -1.194,0.53 -1.694,0.754 -0.966,0.54 -0.29,0.542 -0.746,0.986 -0.666,0.606 -0.25,0.074 -1.51,-0.126 -0.544,-0.124 -0.9,-0.11 -1.21,-0.214 -0.81,-0.23 -0.88,-0.028 -1.268,-0.078 -0.782,-0.166 -0.794,-0.548 -1.02,-0.658 -1.052,-0.678 -1.084,-0.698 -1.28,-0.804 -1.398,-0.878 -0.32,-0.088 -0.14,-0.016 -1.518,-0.04 -1.578,-0.042 -1.066,-0.028 -0.336,-0.102 -0.244,-0.2 -0.33,-0.65 -0.416,-0.462 -0.464,-0.59 -0.038,-0.796 0.128,-0.87 0.12,-0.288 -0.068,-0.286 0.018,-0.394 -0.26,-0.366 -1.552,-0.42 -0.252,0.032 -0.258,0.158 -0.294,0.112 -0.212,-0.106 -0.13,-0.156 -0.004,-0.258 0.026,-0.192 -0.09,-0.106 -0.494,-0.392 -0.464,-0.516 -0.28,-0.57 -0.272,-0.468 -0.136,-1.046 -0.344,-0.644 -0.336,-0.788 -0.498,-1.502 -0.216,-0.518 -0.404,-0.348 -0.426,-0.322 -0.442,-0.666 -1.15,-0.588 -0.442,-0.458 -0.766,-0.794 -0.19,-0.402 -0.056,-0.398 -0.238,-0.374 -0.424,-0.422 -1.326,-0.908 -0.366,-0.108 -0.474,-0.098 -0.696,-0.09 -0.934,-0.208 -0.816,-0.356 -0.37,-0.252 -0.088,-0.174 0.076,-0.292 0.296,-0.502 0.56,-1.186 0.388,-0.818 0.264,-0.232 0.718,-0.058 0.764,0.024 0.558,0.06 0.788,0.01 0.944,-0.07 0.374,-0.274 0.296,-0.3 0.124,-0.21 0.04,-0.53 -0.002,-0.426 -0.06,-1.634 -0.036,-1 -0.042,-1.144 0.006,-0.23 0.008,-0.294 0.23,-1.222 0.216,-0.7 0.148,-0.37 0.596,-1.168 0.112,-0.374 0.02,-0.342 -0.22,-1.57 0.382,-0.74 0.492,-0.732 0.43,-0.314 0.358,-0.212 0.168,0.09 0.412,0.338 0.54,0.334 0.252,-0.074 0.37,-0.292 0.276,-0.308 -0.036,-0.552 0.248,-1.134 -0.048,-0.656 0.266,-0.812 0.29,-1.146 0.13,-0.724 0.166,-0.39 0.786,-0.8 0.676,-1.132 0.43,-0.828 0.824,-1.352 0.416,-0.494 0.338,-0.212 0.504,-0.136 0.938,-0.124 0.674,-0.114 0.098,-0.176 0.058,-0.276 0.01,-0.606 0.13,-1.042 0.292,-1.018 0.344,-0.772 0.186,-0.352 0.222,-0.338 0.25,-0.574 0.316,-1.24 -0.018,-0.842 0.452,-1.544 0.1,-0.008 0.768,-0.284 0.746,-0.042 0.722,0.198 0.47,0.05 0.22,-0.1 0.202,-0.256 0.186,-0.416 0.296,-0.23 0.404,-0.044 0.54,0.468 0.862,1.242 0.222,0.074 0.138,-0.032 0.432,-0.998 0.338,-0.774 0.628,-1.448 0.358,-0.83 0.334,0.24 0.332,0.424 0.376,0.198 0.406,0.122 0.196,0.016 0.25,0.168 0.872,1.034 z" title="Ethiopia" id="ET"></path></svg>