<svg xmlns="http://www.w3.org/2000/svg" width="61.27" height="137.53"><path d="m 46.84,16.72 -0.376,0.194 -1.16,0.76 -0.708,0.512 -0.852,0.376 0.22,0.498 1.416,0.104 0.218,0.142 0.158,0.254 0.026,0.408 -0.142,0.658 -1.532,3.602 -0.048,0.754 0.5,2.088 0.702,2.448 2.122,1.082 1.576,0.842 1.012,1.988 1.67,2.602 0.884,0.968 0.05,0.3 -0.262,1.778 -1.07,1.772 -1,1.488 -1.036,1.784 -0.81,1.514 -0.878,1.806 -0.102,0.584 -0.016,0.55 0.152,0.606 1.124,2.186 0.438,1.11 0.522,1.196 0.45,1.3 0.26,1.162 0.45,1.126 0.28,0.574 0.464,0.804 0.56,1.192 0.186,0.942 0.846,3.248 0.086,0.822 -0.042,0.608 -0.372,0.148 -0.822,0.096 -0.892,0.398 -0.044,0.134 0.582,0.756 -0.514,1.29 -0.074,1.838 -0.548,0.96 -0.052,0.222 0.024,0.186 0.098,0.146 1.014,0.256 0.088,0.26 0.004,0.538 -0.09,0.496 -0.51,0.368 -0.546,0.542 -0.122,0.5 0.018,0.444 0.186,0.75 0.362,0.872 0.458,0.546 1.626,0.518 0.21,0.426 0.088,0.584 -0.034,0.57 -0.756,1.136 0.006,0.436 0.31,1.052 0.372,1.002 1.586,1.084 0.546,0.592 0.144,0.47 0.08,0.758 -0.01,0.82 -0.124,0.726 -0.498,0.934 -1.15,1.836 -1.158,0.71 -0.07,0.154 0.358,0.584 2.038,2.332 1.33,1.086 1.792,1.46 1.156,1.15 0.374,0.824 0.5,0.916 0.562,0.746 0.406,0.646 0.154,0.416 -0.014,0.446 -0.542,1.342 -0.308,1.034 -0.542,1.51 -0.556,1.048 -1.408,1.908 -2.078,2.36 -0.482,0.71 -0.972,1.234 -1.666,2.466 -0.43,0.542 -1.364,1.952 -0.622,0.62 -0.49,0.578 -1.35,1.83 -1.452,1.382 -1.424,1.28 -0.428,0.646 -0.532,0.494 -0.634,0.468 -0.266,0.262 -1.434,1.738 -1.99,2.396 -0.202,0.038 -0.518,0.386 -0.81,0.094 -0.352,0.294 -1.238,-0.84 -0.206,-0.054 -0.728,0.208 -0.698,0.61 -1.29,0.186 -0.64,0.198 -0.408,0.282 -0.084,-0.666 0.176,-0.846 0.284,-0.566 0.026,-0.368 -0.208,0.038 -0.414,0.83 -0.22,0.968 -0.442,0.486 -0.972,0.198 -0.946,-0.776 -0.45,0.006 0.282,0.556 0.19,0.61 -0.024,0.34 -0.504,-0.06 -0.562,0.364 -0.492,0.532 -0.24,0.002 -0.332,-0.744 -0.608,0.348 -0.52,0.466 -1.054,0.144 -0.628,0.612 -1.112,0.414 -0.61,-0.01 -1.394,0.496 -0.464,0.764 -0.406,0.28 -0.578,-0.236 -1.782,0.372 -1.704,0.488 -0.724,-0.028 -0.724,-0.202 -0.768,0.676 -0.816,0.904 -0.898,0.322 -0.322,-0.116 0.258,-0.474 0.594,-0.49 0.408,-0.666 0.056,-0.556 -0.28,-0.218 -0.384,-0.068 -0.482,-0.576 -0.462,-1.252 -0.25,-0.07 -0.126,0.33 -0.142,0.958 -0.144,0.276 -0.244,0.22 -0.294,0.22 -0.288,0.108 -1.03,-0.014 -0.136,-0.484 0,-0.202 0.184,-0.638 -0.16,-0.112 0.152,-0.5 0.242,0.028 0.288,-0.076 0.144,-0.256 -0.01,-0.308 -0.4,-0.08 -0.024,-0.21 0.356,-0.88 0.05,-0.244 -0.138,-0.05 -0.222,0.096 -1.474,-0.276 -1.818,-1.128 -0.448,-0.058 -0.274,-1.01 -0.438,0.128 -0.64,0.592 -0.48,-0.45 -0.516,-0.296 -0.142,-0.462 0.008,-0.684 -0.044,-0.81 -0.14,-0.95 -0.102,-1.354 0.096,-1.062 0.412,-0.788 0.158,-0.504 0.192,-1.29 0.044,-1.514 -0.11,-0.516 0.028,-0.344 0.328,0 -0.072,-0.296 -0.144,-0.162 -0.16,-0.336 0.136,-0.178 0.392,-0.012 0.032,-0.114 0.044,-0.16 -0.304,-0.888 -0.036,-0.424 -0.42,-1.29 -0.482,-1.228 -0.722,-0.89 0.256,-1.47 0.292,-1.334 -0.058,-0.644 -0.112,-0.786 -0.886,-0.864 -0.13,-1.22 -0.216,-1.316 0.082,-0.808 0.144,-0.622 0.292,-0.62 1.47,-1.96 0.09,-1.028 0.996,-0.076 -0.462,-0.92 -0.108,-0.518 -0.024,-0.606 1.432,-0.416 0.536,0.342 1.26,-0.422 1.12,-0.826 -0.02,-0.44 -0.172,-0.394 -0.238,-0.76 0.168,-0.212 0.408,0.156 -0.188,-0.378 0.034,-0.4 0.446,0.166 0.726,-1.118 0.026,-0.856 1.256,-0.448 1.45,-1.756 0.668,-0.548 0.646,-0.398 1.376,-1.766 0.588,-0.082 0.302,-1.196 1.17,-1.598 0.356,-0.204 0.546,-1.448 1.438,-1.68 0.912,-2.154 0.502,-0.768 0.156,-0.82 0.56,-0.07 0.504,-0.604 1.092,-0.42 1.08,0.116 0.45,0.288 0.414,-0.09 -0.042,-0.74 -0.296,-0.458 0.242,-0.442 0.57,-0.334 -0.058,-0.74 -0.124,-0.446 -0.474,-0.594 0.236,-1.336 0.056,-1.47 0.224,-1.706 -0.594,-0.906 -2.26,-1.548 -0.42,0.054 -0.502,-0.196 -0.524,-1.178 0.234,-1.02 0.028,-0.376 -0.204,0.012 -0.332,0.498 -0.72,0.568 -0.936,-0.436 -0.46,0.096 -0.598,-2.534 -0.306,-0.974 -0.49,-1.216 -0.874,-0.594 -0.172,-0.338 -0.116,-0.518 -0.038,-0.72 -0.112,-1.068 0.046,-0.878 0.108,-0.524 0.378,-0.352 0.544,-0.998 0.114,-0.726 0.046,-1.116 0.25,-0.978 0.278,-0.496 -0.07,-0.396 -0.192,-0.564 -0.408,-0.804 -0.62,-0.982 -0.458,-0.942 -0.202,-0.882 -0.104,-0.792 0.016,-0.72 0.172,-0.492 0.584,-0.62 0.078,-0.264 -0.232,-1.374 -0.408,-0.25 -0.694,-0.134 -0.388,-0.012 -0.074,-0.152 -0.02,-0.276 0.08,-0.566 0.218,-0.65 0.182,-0.416 0.024,-0.352 -0.232,-1.208 -0.07,-1.486 0.08,-1.168 0.736,-0.864 0.034,-0.316 -0.924,-0.942 -0.666,-1.07 -0.208,-0.626 -0.762,-0.094 -0.476,-1.828 -0.688,-0.892 -0.68,-0.774 -0.402,-0.36 -2.36,-1.114 -0.936,-0.212 -1.11,-0.652 -0.826,-0.82 -0.708,-0.528 -0.606,-0.654 -0.846,-0.612 -0.242,-0.524 -0.914,-0.972 -0.428,-0.642 -1.486,-1.214 -0.054,-0.48 -0.01,-0.464 -0.068,-0.194 -1.532,-0.892 0.302,-0.512 1.198,-0.032 0.99,0.466 0.218,-0.2 0.13,-0.414 -0.422,-1.664 0.076,-0.436 0.436,-0.524 0.692,-0.418 1.09,-0.06 0.744,0.062 0.158,0.046 1.11,1.836 0.954,1.782 0.506,0.756 1.238,2.136 0.464,1.23 0.158,0.878 0.504,-0.004 1.742,0.384 1.464,0.324 0.408,0.49 1.008,-0.098 0.778,-0.442 1.372,-0.558 0.368,-0.688 0.458,-0.738 0.804,0.116 0.88,0.582 0.998,0.764 0.89,0.352 1.194,0.552 0.556,0.712 0.78,0.204 0.816,-0.712 0.482,-1.942 0.428,-0.87 0.606,-0.638 0.694,-0.282 0.53,-0.102 0.402,-0.498 0.57,-1.108 0.112,-1.348 -0.11,-2.448 0.104,-0.812 0.466,-1.332 0.626,-3.552 0.28,-1.032 0.342,-0.628 0.47,-0.374 0.854,-1.088 1.22,-2.168 0.33,-0.184 0.876,-0.11 1.088,0.08 0.98,0.382 0.106,-0.03 0.44,-0.2 0.798,-0.676 1.368,-1.348 0.876,-0.372 0.796,0.052 0.882,1.476 1.246,1.638 0.8,0.792 2.182,1.482 1.916,0.97 1.076,3.188 -0.532,1.262 -0.264,0.434 -0.938,1.25 -1.002,1.756 -0.076,0.912 0.332,0.918 0.424,0.594 z m -23.112,58.008 -0.838,0.44 -0.674,-0.274 -0.012,-0.854 0.418,-0.414 0.756,-0.166 1.036,0.414 0.152,0.22 -0.594,0.166 -0.244,0.468 z m -20.378,22.476 0.06,0.232 0.328,-0.064 0.444,-0.424 0.314,0.198 -0.036,0.604 -0.212,-0.024 -0.058,-0.1 -0.274,0.344 -0.048,0.208 -0.316,0.132 -0.584,-0.59 -0.368,-0.972 0.856,-0.002 -0.082,0.232 -0.024,0.226 z m 1.308,32.276 -0.078,0.53 -0.382,-0.058 -0.388,0.096 -0.312,-0.526 -0.166,-0.888 0.058,-0.192 0.244,-0.202 0.186,0.488 0.838,0.752 z m 3.05,2.19 -0.41,0.05 -0.578,-0.562 -0.072,-0.22 0.226,-0.128 -0.15,-0.452 0.044,-0.2 0.446,0.358 0.244,0.416 -0.238,0.096 0.404,0.43 0.084,0.212 z m 1.016,-0.384 0.71,0.262 0.298,-0.094 0.34,0.594 -0.576,0.376 -0.04,0.468 0.228,0.29 0.08,0.42 -0.574,0 -0.274,-0.354 -0.12,-0.45 -0.268,-0.318 -0.356,-0.242 0.174,-0.324 0.1,-0.464 0.278,-0.164 z m -1.92,2.598 -0.562,0.386 -0.214,-0.092 0.054,-0.652 0.334,-0.298 0.562,-0.034 -0.174,0.69 z m -1.15,0.368 -0.492,0.112 -0.306,-0.326 0.116,-0.242 0.342,-0.27 0.372,0.038 0.08,0.316 -0.112,0.372 z" title="Finland" id="FI"></path></svg>