<svg xmlns="http://www.w3.org/2000/svg" width="18.82" height="9.40"><path d="m 12.88,0 0.858,0.526 1.074,-0.184 0.452,0.144 0.264,0.438 -0.158,0.406 -0.34,-0.058 -0.292,0.11 0.058,0.536 0.198,0.23 1.134,0.59 0.208,0.036 -0.038,-0.248 -0.198,-0.406 -0.074,-0.436 0.168,-0.362 0.296,-0.114 1.292,-0.182 0.302,0.172 0.64,1.028 -0.6,0.142 -0.252,0.446 0.528,0.194 0.418,0.286 -0.222,0.438 -0.04,0.22 -0.93,0.31 -0.824,0.2 -0.376,0.516 -0.664,0.376 -1.952,0.656 0.228,0.534 0.03,0.256 -0.084,0.694 -2.686,-0.83 -0.364,0.088 0.718,1.416 -0.532,0.262 -0.526,-0.17 -0.478,0.118 -0.304,1.026 -0.766,-0.656 -0.654,-0.932 -0.002,-0.52 0.632,-0.97 -0.192,-0.41 1.47,-1.314 0.264,-0.39 0.458,-0.222 0.476,-0.076 0.202,-0.168 -0.034,-0.32 -0.19,-0.544 0.016,-0.884 1.178,-1.198 -0.172,-0.77 0.382,-0.03 z m -7.08,1.128 -0.77,0 -0.152,-0.292 0.002,-0.74 0.584,-0.064 0.57,0.308 -0.038,0.31 -0.196,0.478 z m -0.98,0.594 0.812,0.17 0.746,-0.632 0.514,-0.202 0.424,0.136 0.298,0.382 0.432,-0.06 1.222,-0.39 0.16,0.132 0.436,-0.454 0.374,0.21 0.296,0.396 -0.144,0.458 -0.338,0.292 -0.214,0.408 -0.25,0.328 -0.432,0.306 -0.332,0.488 -0.796,1.146 -1.16,1.468 -0.384,0.132 -0.8,0.088 -0.344,-0.102 -0.294,0.034 -0.236,0.796 -0.366,0.604 -0.172,0.126 -0.38,0.056 -0.18,0.092 -0.136,0.224 -1,-0.058 -0.706,-0.372 -0.836,-0.824 1.116,-1.008 0.962,0.046 0.794,-0.676 0.646,-0.342 0.256,-0.346 0.282,-0.266 0.002,-0.346 -0.216,-0.154 -0.292,0.016 -0.288,0.15 -0.676,0.196 -0.462,-0.396 0.304,-0.148 0.342,0.008 1.046,-0.372 0.2,-0.156 -0.322,-0.526 -0.63,-0.32 -0.51,-0.536 -0.094,-0.2 0.026,-0.318 -0.282,-0.628 0.296,-0.032 0.394,0.404 0.892,0.572 z m -4.112,2.92 0.402,0.124 0.4,-0.046 -0.226,0.932 -0.176,0.448 -0.474,-0.036 -0.47,-0.61 -0.164,-0.324 0.524,-0.232 0.184,-0.256 z m 14.482,2.044 0.034,0.8 -0.45,-0.254 -0.16,-0.388 0.25,-0.264 0.206,0.02 0.12,0.086 z m -6.982,2.01 -0.36,0.176 -0.1,-0.078 -0.114,-0.344 -0.006,-0.444 -0.042,-0.2 0.224,0.064 0.406,0.354 -0.008,0.472 z" title="Falkland Islands" id="FK"></path></svg>