<svg xmlns="http://www.w3.org/2000/svg" width="139.94" height="24.27"><path d="m 0.46,0.52 -0.426,0.46 -0.028,-0.15 0.128,-0.276 0.18,-0.314 0.168,-0.188 0.218,-0.054 0.156,0.26 -0.176,0.226 -0.22,0.036 z m 77.114,11.662 -0.098,0.03 -0.044,-0.028 0.022,-0.144 0.032,-0.05 0.092,-0.004 0.16,0.04 0.012,0.036 -0.176,0.12 z m -1.312,0.482 -0.046,0.074 -0.342,-0.028 -0.048,-0.042 0.03,-0.032 0.164,-0.034 0.02,-0.102 -0.084,-0.022 0.072,-0.054 0.134,-0.01 0.076,0.064 0.042,0.092 -0.018,0.094 z m 37.422,2.992 -0.326,0.126 -0.41,-0.058 -0.126,-0.458 -0.188,-0.122 0.042,-0.226 0.288,-0.184 0.61,0.15 0.226,0.326 -0.144,0.216 0.028,0.23 z m 26.202,8.344 0.058,0.272 -0.358,-0.132 -0.048,-0.096 0.208,-0.096 0.14,0.052 z" title="Federated States of Micronesia" id="FM"></path></svg>