<svg xmlns="http://www.w3.org/2000/svg" width="5.71" height="11.20"><path d="m 5.7,1.16 -0.268,0.868 -0.398,-0.136 -0.11,-0.094 -0.086,-0.226 0.042,-0.646 -0.014,-0.936 0.458,0.77 0.376,0.4 z m -1.262,0.37 -0.14,1.612 -0.228,-0.008 -0.408,-0.446 -0.306,-0.092 -0.096,0.238 0.016,0.286 0.158,0.18 0.488,1.076 0.044,0.314 -0.06,0.152 -0.474,-0.31 -1.144,-1.392 -0.89,-2.302 1.2,-0.37 0.87,0.606 0.97,0.456 z m -3.12,1.064 0.504,0.464 0.178,0.328 -0.29,0.316 -0.35,0.082 -0.424,-0.074 -0.698,-0.342 -0.244,-0.784 0.482,0.018 0.57,-0.15 0.272,0.142 z m 3.164,3.976 -0.11,0.446 -0.154,-0.004 -0.528,-0.552 -0.42,-0.302 -0.14,-0.256 -0.118,-0.438 0.242,-0.054 0.288,0.1 0.722,0.4 0.204,0.416 0.014,0.244 z m -0.43,4.262 0.112,0.356 -0.13,-0.04 -0.378,-0.406 -0.66,-0.968 -0.23,-0.802 -0.032,-0.372 0.164,0.042 0.136,0.33 0.626,0.216 0.166,0.164 -0.002,0.402 0.21,0.476 0.018,0.602 z" title="Faroe Islands" id="FO"></path></svg>