<svg xmlns="http://www.w3.org/2000/svg" width="80.38" height="78.85"><path d="m 42.8,3.36 0.334,-0.098 0.566,-0.352 0.472,-0.112 0.27,0.27 0.152,0.154 0.296,0.608 0.084,0.632 0.132,0.526 0.24,0.212 0.902,0.07 0.666,0.194 0.176,0.176 0.228,1.164 0.124,0.164 0.166,-0.136 0.164,-0.192 0.228,-0.03 0.39,0.074 0.514,0.024 0.53,0.128 0.732,0.656 -0.028,0.216 -0.142,0.378 -0.05,0.302 0.126,0.122 0.194,0.312 -0.046,0.36 -0.188,0.252 -0.076,0.208 0,0.134 0.07,0.112 0.15,0.098 1.082,0.132 0.99,-0.132 0.624,-0.368 0.106,-0.388 0.176,-0.436 0.372,-0.368 0.256,-0.124 0.236,0.15 -0.396,1.538 0.29,0.392 0.042,0.584 0.104,0.512 0.354,-0.01 0.428,0.094 0.304,0.188 0.354,0.304 0.51,0.28 0.358,0.098 0.13,0.232 0.29,0.27 0.456,0.564 0.408,0.376 0.198,0 0.38,-0.148 0.564,-0.094 0.444,0.008 0.19,0.286 0.438,0.132 0.154,0.106 0.172,0.198 0.292,0.08 0.352,-0.08 0.256,-0.262 0.342,-0.12 0.344,0.04 0.198,0.144 0.376,0.214 0.212,-0.046 0.426,0.132 0.428,0.416 0.18,0.416 0.046,0.228 0.184,0.248 0.718,1.116 0.228,0.054 0.25,-0.168 0.162,-0.24 0.234,-0.048 0.376,0.112 0.242,0.126 0.116,0.482 0.082,0.092 0.162,-0.104 0.29,-0.022 0.464,0.118 0.636,-0.136 0.51,-0.202 0.26,0.008 0.42,0.562 0.48,0.21 1.056,0.17 1.134,0.264 0.446,0.214 0.304,0.106 0.032,0.742 -0.092,0.112 -1.13,1.484 -0.476,0.53 -0.242,0.754 -0.166,1.156 -0.334,1.094 -0.5,1.036 -0.182,0.776 0.136,0.516 -0.086,0.81 -0.306,1.102 -0.052,0.83 0.204,0.56 0.282,0.114 -0.678,0.376 -0.154,0.33 -0.266,0.434 -0.432,0.182 -0.434,0.06 -0.352,-0.056 -0.2,-0.174 0.01,-0.162 -0.186,-0.138 -0.462,0.004 -0.478,0.298 -0.382,0.488 0.118,0.272 0.352,0.072 0.092,0.108 0,0.14 -0.124,0.168 -0.148,0.288 -0.738,0.856 -0.744,0.862 -0.12,0.26 -0.236,0.182 -0.946,0.46 -0.098,0.184 -0.054,0.766 -0.106,0.628 -0.702,0.59 -0.698,0.586 -0.174,0.358 -0.126,0.414 -0.218,0.468 -0.044,0.248 0.354,0.402 -0.042,0.332 -0.112,0.472 -0.334,0.334 -0.372,0.19 0.008,0.512 0.198,0.072 0.448,-0.038 0.634,-0.372 0.414,-0.48 -0.244,-0.454 -0.03,-0.088 0.06,-0.108 0.49,-0.496 0.6,-0.298 0.838,-0.056 1.01,0.176 0.1,0.074 -0.048,0.304 0.094,0.448 0.182,0.314 -0.25,0.89 0.19,0.278 0.294,0.334 0.22,0.304 0.316,0.278 0.282,0.47 0.096,0.266 -0.452,0.46 -0.764,0.432 -0.086,0.278 0.01,0.314 0.086,0.248 0.422,0.318 0.454,0.718 0.288,0.64 0.63,0.612 0.154,0.182 -0.04,0.152 -0.166,0.26 -0.216,0.868 -0.258,0.136 -0.288,0.056 -0.78,0.634 -0.348,-0.078 -0.494,0.008 -0.362,0.208 0.04,0.394 0.318,0.36 0.186,0.392 0.076,0.408 0.352,0.302 0.496,0.18 0.284,0.012 0.184,0.108 0.112,0.14 0.214,0.872 -0.128,0.218 -0.268,0.092 -0.16,0.358 -0.318,0.526 -0.18,0.422 0.2,0.372 0.084,0.276 -0.106,0.284 0.142,0.44 0.376,0.436 1.022,0.612 0.95,0.498 0.294,0.082 1.284,-0.32 0.212,0.028 0.156,0.38 0.068,0.256 -0.144,0.384 -0.354,0.542 -0.376,0.422 -0.228,0.358 0.048,0.326 0.014,0.432 -0.306,0.128 -0.01,-0.084 -0.126,-0.074 -0.108,0.042 -0.084,0.094 -0.012,0.166 -0.652,0.276 -0.45,0.286 -1.778,1.704 -0.832,0.498 -0.164,0.3 -0.17,0.56 -0.488,0.48 -0.428,0.228 -1.058,0.234 -1.064,0.508 -0.48,-0.22 -1.24,0.024 -0.774,-0.612 -1.488,-0.388 -0.484,-0.894 -0.678,-0.058 -0.444,0.028 -0.266,-0.136 -0.068,-0.306 -0.006,-0.294 -0.47,0.136 -0.36,0 -0.214,0.118 -0.168,0.136 -0.2,-0.086 -0.116,0.03 0.01,0.172 -0.432,0.044 -0.47,-0.106 -1.23,-0.462 -0.188,-0.072 -0.854,-0.178 -0.344,-0.186 -0.28,-0.458 -0.212,-0.144 -0.126,-0.086 -0.796,0.232 -0.276,0.36 -0.43,0.422 -2.952,2.064 -0.54,0.862 -0.624,1.266 -0.048,0.59 0.268,1.88 0.6,0.984 0.076,0.228 -0.334,0.002 -0.558,-0.124 -0.462,-0.152 -0.442,0.084 -0.424,0.204 -0.372,0.124 -0.268,0.034 -0.178,0.118 -0.086,0.234 -0.016,0.164 -0.47,-0.04 -1.086,-0.336 -0.976,-0.232 -0.574,0.264 -0.368,0.246 -0.258,-0.038 -0.198,-0.26 -0.132,-0.254 -0.382,-0.234 -0.864,-0.35 0.044,-0.168 0.148,-0.236 -0.004,-0.146 -0.166,-0.216 -0.796,-0.232 -0.376,-0.058 -0.238,0.16 -0.172,0.196 -0.442,-0.72 -0.316,-0.148 -0.476,-0.024 -0.546,-0.22 -0.568,-0.282 -1.378,-0.45 -0.378,-0.054 -0.152,0.072 -0.102,0.27 -0.054,0.76 -0.058,0.084 -0.64,0.026 -0.788,-0.106 -0.362,0.052 -0.322,0.002 -0.304,-0.202 -1.362,0.23 -0.226,-0.112 -0.328,-0.342 -0.368,-0.278 -0.284,-0.142 -0.244,-0.164 -0.22,-0.026 -0.336,0.158 -0.464,0.068 -0.384,-0.02 -0.206,0.022 -0.864,-0.844 -0.126,-0.23 -0.43,-0.064 -0.532,-0.01 -1.356,-0.548 -0.618,-0.294 -0.09,-0.176 0.008,-0.142 -0.106,0.032 -0.19,0.25 -0.1,0.204 -0.132,0.038 -0.194,-0.032 -0.18,-0.116 -0.11,-0.148 0.118,-0.258 0.208,-0.338 0.086,-0.368 -0.02,-0.33 -0.342,-0.212 -0.504,-0.088 -0.37,-0.026 -0.48,-0.188 -0.228,-0.136 -0.22,-0.368 -0.008,-0.268 0.914,-0.236 0.822,-0.97 0.78,-3.536 0.564,-4.218 0.418,-0.8 0.528,-0.22 -0.426,-0.584 -0.266,0.296 -0.112,0.314 -0.14,0.158 0.314,-3.91 0.224,-1.44 0.382,-1.512 0.782,0.6 0.648,0.61 0.334,0.528 0.424,1.752 0.322,0.368 0.48,0.368 -0.19,-0.402 -0.33,-0.308 -0.516,-2.338 -0.324,-0.666 -0.504,-0.56 -1.624,-1.182 -0.146,-0.23 -0.08,-0.452 0.538,0.02 0.464,0.22 -0.054,-0.252 -0.138,-0.264 -0.216,-0.962 -0.18,-2.254 0.024,-0.386 -0.08,-0.476 -0.52,-0.106 -0.416,-0.018 -0.448,-0.188 -2.212,-1.336 -0.756,-1.384 -0.774,-1.024 -0.186,-0.448 0.012,-0.454 0.402,-0.96 -0.354,-0.608 -0.346,-0.12 -0.3,-0.302 0.272,-0.502 0.226,-0.322 0.454,-0.086 0.594,0.106 0.564,0.292 0.442,0.078 -1.306,-0.782 -2.12,0.264 -0.458,-0.1 -0.384,-0.174 -0.152,-0.576 0.302,-0.258 0.272,-0.48 -0.308,-0.336 -0.4,-0.128 -0.628,0.006 -0.586,0.102 -0.148,-0.194 0.358,-0.536 -0.304,-0.196 -0.406,0.092 -0.588,0.11 -0.562,-0.168 -0.532,-0.61 -0.352,0.004 -0.242,0.076 -0.358,-0.236 -0.378,-0.058 -0.27,0.078 -0.358,-0.35 -2.208,-0.704 -0.952,-0.086 -0.874,0.318 -0.482,-0.11 -0.354,-0.456 -0.296,-0.764 -1.408,-0.59 0.278,-0.388 0.656,-0.092 0.754,-0.268 0.272,-0.346 -0.59,-0.402 -0.436,-0.1 -0.18,-0.144 -0.184,-0.362 0.26,-0.166 0.184,0.088 0.532,0.052 0.908,-0.088 -0.338,-0.366 -0.352,-0.082 -0.162,-0.092 -0.74,-0.04 -0.336,0.126 -0.756,-0.048 -0.164,-0.394 -0.08,-0.34 0.234,-0.756 1.064,-0.678 2.652,-0.742 1.14,0.108 0.79,-0.134 0.948,-0.468 0.418,-0.402 1.348,-0.236 1.28,0.426 1.18,1.608 0.564,0.544 1.382,-0.944 2.058,0.028 0.424,0.532 0.172,-0.448 0.378,-0.526 0.302,0.24 0.154,0.326 2.172,-0.092 0.342,-0.094 -0.584,-0.382 -0.476,-0.916 -0.1,-3.386 -0.602,-0.95 -0.69,-1.522 -0.318,-0.906 -0.03,-0.314 0.106,-0.454 0.848,0.024 0.656,0.116 1.25,-0.342 0.6,0.234 -0.036,0.708 0.184,0.892 0.208,0.432 0.318,0.49 1.006,-0.044 1.086,0.288 1.374,0.044 2.006,0.496 0.854,-0.288 0.828,-0.614 1.576,-0.404 0.126,-0.212 -0.908,0.084 -0.832,-0.39 -0.112,-0.422 0.096,-0.38 0.338,-0.876 2.412,-1.386 1.728,-0.41 1.804,-0.766 0.908,-0.786 0.6,-1.018 0.194,-0.224 0.25,-0.188 -0.232,-0.366 0.156,-3.92 0.168,-0.71 0.352,-0.582 0.536,-0.45 0.812,-0.488 2.994,-0.674 0.444,-0.274 0.062,0.424 0.218,0.542 0.15,0.296 -0.126,0.386 0.098,0.318 0.406,0.572 0.506,0.538 0.452,0.344 0.138,-0.052 z m -22.68,40.532 -0.198,0.704 -0.376,-0.648 -0.496,-0.568 -0.114,-0.526 0,-0.14 0.582,0.384 0.602,0.794 z m 59.826,24.25 -0.146,1.118 0.106,0.326 0.204,0.228 0.094,0.25 0.17,2.964 -0.032,0.236 -0.686,1.186 -0.154,0.346 -0.034,1.464 -0.116,0.392 -0.244,0.386 -0.434,1.248 -0.376,0.56 -1.028,-0.684 -0.606,-0.296 -0.296,-0.318 -0.194,-0.22 0.126,-0.294 0.276,-0.306 0.044,-0.242 -0.65,-0.272 -0.298,-0.182 0.004,-0.32 0.224,-0.498 -0.102,-0.412 -0.376,0.02 -0.292,-0.062 -0.038,-0.214 0.214,-0.274 0.276,-0.358 -0.008,-0.396 -0.334,-0.17 -0.302,-0.322 -0.122,-0.438 0.234,-0.3 0.38,-0.192 -0.28,-0.45 -0.188,-0.01 -0.15,-0.098 0.124,-0.208 0.294,-0.312 0.41,-0.934 0.57,-0.442 1.012,-0.284 0.274,-0.126 0.25,-0.33 0.278,-0.212 0.338,0.028 0.312,0.126 0.192,0.136 0.144,-0.142 0.14,-0.41 -0.086,-0.36 0.044,-0.99 0.18,-0.562 0.292,-0.032 0.268,0.31 -0.012,0.274 0.1,0.648 0.01,0.426 z" title="France" id="FR"></path></svg>