<svg xmlns="http://www.w3.org/2000/svg" width="32.43" height="34.69"><path d="m 25.76,0.78 -0.028,0.39 -0.446,0.956 -0.208,0.736 -0.052,0.782 0.122,0.632 0.214,0.448 0.138,0.49 -0.106,0.342 -0.216,0.146 0.148,0.172 0.324,0.04 0.552,-0.148 0.848,-0.262 1.11,-0.378 0.73,-0.202 1.206,0.128 0.644,0.144 0.33,0.264 0.356,1.124 0.176,0.172 0.292,0.478 0.244,0.574 0.052,0.292 -0.028,0.21 -0.244,0.31 -0.276,0.458 -0.098,0.276 -0.23,0.206 -0.292,0.202 -0.806,0.082 -0.124,0.12 -0.224,0.486 -0.426,0.412 -0.194,0.39 -0.17,0.52 0.034,0.642 -0.086,0.926 -0.086,0.628 0.212,0.22 0.964,0.152 0.186,0.124 0.256,0.388 0.328,0.366 0.88,0.23 0.342,0.278 0.278,0.306 0.036,0.25 -0.2,1.006 -0.192,0.966 0.076,0.736 0.07,0.702 0.106,1.022 -0.046,0.624 -0.25,0.382 0,0.298 0.114,0.36 -0.22,0.996 -0.142,0.168 -0.394,0.186 -0.208,0.268 -0.066,0.42 -0.212,0.576 -0.22,0.21 0,0.268 0.212,0.194 -0.004,0.3 -0.394,0.356 -0.236,0.272 -0.526,0.134 -0.6,-0.142 -0.14,-0.198 0.144,-0.308 -0.052,-0.248 -0.206,-0.26 -0.322,-0.668 -0.284,-0.142 -0.158,0.274 -0.488,0.508 -0.862,0.652 -0.604,0.052 -1.116,-0.198 -0.934,-0.312 -0.442,-0.764 -0.274,-0.632 -0.4,-0.732 -0.448,-0.348 -0.478,-0.224 -0.212,-0.014 -0.684,0.408 -0.206,0.162 0.002,0.342 0.064,0.32 0.106,0.154 0.088,0.206 -0.016,0.318 -0.122,0.426 -0.042,0.47 -2.144,0.462 -0.37,-0.166 -0.27,-0.212 -0.324,0.038 -0.932,0.24 -0.342,-0.168 -0.338,-0.122 -0.156,0.102 -0.012,0.2 0.158,1.108 -0.052,0.422 -0.208,0.552 -0.11,0.374 0.57,0.104 0.204,0.174 0.2,0.278 0.274,0.26 0.018,0.158 -0.31,0.29 -0.106,0.356 0.148,0.278 0.386,0.292 0.566,0.302 0.276,0.198 -0.028,0.182 -0.262,0.384 -0.1,0.328 -0.18,0.294 0.038,0.272 0.254,0.254 -0.026,0.226 -0.174,0.172 -0.352,-0.036 -0.298,0.024 -0.266,-0.07 -0.836,-0.878 -0.184,-0.026 -1.212,0.676 -0.302,0.276 -0.25,0.4 -0.336,0.862 -0.55,-0.502 -0.476,-0.918 -0.554,-0.566 -1.166,-0.91 -0.312,-0.672 -1.334,-1.478 -1.916,-1.478 -1.386,-1.282 -0.21,-0.284 0.234,0.034 1.338,0.64 0.182,-0.072 0.154,-0.144 -0.576,-0.336 -0.552,-0.264 -0.518,-0.164 -0.518,0.014 -0.29,-0.27 -0.188,-0.412 -0.096,-0.352 -0.23,-0.37 -0.734,-0.76 -0.178,-0.294 -0.402,-0.4 0.244,-0.054 0.788,0.384 0.07,-0.154 -0.068,-0.224 -0.792,-0.364 -0.428,-0.024 -0.1,-0.256 0.058,-0.296 -0.566,-1.106 -0.588,-0.83 -0.092,-0.392 1.586,1.804 0.212,0.03 0.28,-0.016 0.656,-0.202 -0.126,-0.242 -0.296,-0.258 -0.286,0.12 -0.374,0.024 -0.196,-0.108 -0.088,-0.186 0.374,-0.876 -0.162,0.046 -0.118,0.154 -0.206,0.076 -0.316,0.044 -0.782,-0.468 -0.688,-1.264 -0.182,-0.26 -0.184,-0.44 -0.182,-0.182 -0.792,-1.798 0.302,0.134 0.362,0.52 0.702,-0.11 0.274,-0.3 0.238,0.01 0.246,-0.068 0.308,-0.284 0.9,-1.24 0.238,-1.632 -0.078,-0.97 -0.132,-0.964 0.298,-0.308 0.118,0.204 0.058,0.342 0.14,0.254 0.32,0.226 0.596,0.06 0.92,0.358 0.328,0.226 0.09,-0.454 1.06,-0.386 -0.322,-0.138 -0.94,0.152 -1.292,-0.578 -0.43,-0.366 -0.4,-0.698 -0.414,-0.364 0.028,-0.326 0.928,-0.302 0.246,0.034 0.098,0.36 0.25,0.148 0.094,-0.05 0.042,-0.306 0.002,-0.824 -0.282,-1.182 0.086,-0.228 0.254,-0.082 0.226,-0.156 0.158,-0.028 0.314,0.028 0.158,0.274 0.086,0.15 0.318,0.07 0.26,0.146 0.224,-0.04 0.186,-0.17 0.272,-0.036 0.846,0.004 0.766,0.002 1.524,0.004 1.526,0.006 1.526,0.004 1.148,0.004 -0.004,-0.674 -0.006,-1.042 -0.006,-1.232 -0.008,-1.182 -0.006,-1.092 -0.006,-1.29 0.062,-0.372 0.076,-0.152 -0.028,-0.214 1.182,-0.014 2.136,0.094 0.934,-0.012 0.266,0.018 1.168,-0.066 0.944,0.082 0.402,0.09 0.362,0.046 1.132,0.056 1.478,-0.07 0.502,0.016 0.278,0.18 z" title="Gabon" id="GA"></path></svg>