<svg xmlns="http://www.w3.org/2000/svg" width="37.58" height="18.91"><path d="m 36.22,12.78 -0.136,0.268 -0.322,0.486 -0.256,0.248 -0.284,0.04 -0.282,0.114 -0.098,0.26 -0.012,0.336 0.048,0.242 0.072,0.09 0.288,0.08 0.284,0.706 0.446,0.356 0.696,0.404 0.618,0.462 0.302,0.424 -0.058,0.308 -0.202,0.636 -0.516,0.53 -0.43,0.134 -0.152,-0.05 -0.28,-0.164 -0.566,-0.41 -0.614,-0.324 -0.472,0.106 -0.31,0.122 -0.614,-0.144 -0.726,-0.28 -0.378,-0.276 -0.166,-0.204 0.112,-0.362 -1.646,-0.654 -0.794,-0.182 -0.358,0.198 -1.21,0.984 -0.144,0.1 -0.924,0.136 -0.002,0.08 0.21,0.212 -0.04,0.066 -1.55,0.022 -0.516,0.128 -1.38,-0.166 -0.454,0.074 -0.388,0.154 -0.944,0.176 -0.652,0.206 -0.832,0.108 -0.858,0.01 -0.294,0.062 0.012,-0.142 -0.046,-0.218 -0.174,-0.158 -0.244,-0.1 -0.448,0.038 -0.414,-0.106 -0.294,-0.276 -0.068,-0.212 0.17,-0.172 -0.124,-0.142 -0.516,-0.34 -0.844,-0.85 -0.478,-0.19 -0.19,-0.534 -0.19,-0.114 -0.402,-0.05 -0.424,0.052 -0.092,0.06 -0.13,0.086 -0.332,0.666 -0.234,0.226 -0.572,-0.106 -0.474,-0.156 -0.386,-0.088 -0.75,-0.056 -0.852,-0.012 -0.574,0.474 -0.248,-0.062 -0.436,-0.232 -0.704,-0.192 -0.372,-0.15 1.076,-1.406 0.32,-0.838 0.01,-0.508 0.014,-0.64 -0.56,-1.332 -0.48,-1.896 -0.5,-1.984 -0.39,-0.596 -1.63,-0.69 -0.378,-0.784 -1.262,-1.014 -1.754,-0.442 -0.348,-0.188 -1.524,-1.28 -1.192,-0.826 0.256,-0.5 0.34,-0.528 0.368,-0.128 1.078,0.208 0.994,0.238 0.724,-0.17 0.862,0.416 0.788,0.476 0.792,0.336 1.544,0.318 0.576,0.438 0.672,0.438 2.634,0.222 0.212,-0.068 0.194,-0.064 0.884,-0.158 0.782,0.028 0.826,0.532 0.528,-0.032 0.564,-0.08 0.726,0.284 0.57,0.316 0.048,0.318 0.5,0.464 1.452,0.706 1.178,0.4 0.366,0.28 0.896,0.462 0.09,0.146 -0.018,0.19 -0.256,0.346 -0.064,0.306 0.12,0.178 0.372,0.168 0.736,0.038 0.266,-0.22 0.55,-0.158 0.546,-0.284 0.728,-0.378 0.99,-0.344 0.396,0 0.38,0.106 0.266,0.19 0.446,0.706 0.446,-0.988 0.114,-0.074 0.408,0.2 0.718,0.274 0.498,0.146 0.27,0.204 0.76,0.9 1.23,-0.046 0.52,0.138 0.28,0.148 0.124,0.174 -0.22,0.892 -0.304,0.928 0.026,0.222 0.492,0.35 0.672,0.368 0.36,0.296 0.246,0.266 0.53,0.202 0.626,0.124 0.296,0.016 0.31,0.224 0.806,0.418 z" title="Georgia" id="GE"></path></svg>