<svg xmlns="http://www.w3.org/2000/svg" width="16.63" height="20.47"><path d="m 16.64,9.64 -0.174,0.12 -0.468,0.264 -0.214,0.35 -0.126,0.338 -0.29,0.228 -0.278,0.29 -0.088,0.232 -0.258,0.186 -0.05,0.308 -0.654,1.088 -0.262,0.488 -0.376,0.52 -0.234,0.194 -0.318,0.308 -0.162,0.358 0,0.37 -0.222,0.442 -0.124,0.382 -0.21,0.222 -0.554,1.208 -0.028,0.416 -0.132,0.246 -0.394,0.576 -0.266,0.346 -0.466,0.26 -0.488,0.282 -0.184,0.308 -0.346,0.156 -0.252,0.01 -0.406,-0.112 -0.55,-0.054 -0.278,0.036 -0.126,-0.152 -0.188,-0.35 -0.274,-0.25 -0.176,0.086 -0.37,0.25 -0.434,0.148 -0.308,-0.05 -0.672,-0.172 -0.286,-0.088 -0.086,-0.148 -0.1,-0.11 -0.148,0.048 -0.198,0.186 -0.264,0.192 -0.392,0.256 -0.806,0.458 -0.226,0.164 -0.208,-0.09 -0.342,-0.09 -0.364,-0.004 -0.786,-0.298 -0.46,-0.212 -0.2,-0.266 -0.232,-0.114 -0.136,-0.074 0.064,-0.05 0.204,-0.038 0.182,-0.004 0.284,-0.406 0.468,-0.254 0.816,-1.406 0.344,-0.582 0.042,-0.318 0.096,-0.664 -0.182,-0.808 0.086,-0.226 0.7,-0.974 0.302,-0.532 0.018,-0.458 0.088,-0.33 -0.086,-0.172 -0.16,-0.05 -0.268,-0.428 -0.172,-0.354 -0.476,-0.364 -0.326,-0.372 -0.534,-0.856 0.048,-0.48 -0.152,-0.172 -0.164,-0.178 0.012,-0.216 -0.112,-0.54 -0.136,-0.504 -0.052,-0.32 0.134,-0.548 -0.08,-0.608 -0.174,-0.32 -0.048,-0.49 0.036,-0.436 0.148,-0.248 -0.03,-0.306 0.676,-0.974 0.514,-0.564 0.472,-0.396 0.398,-0.296 0.538,-1.48 0.39,-0.52 0.408,-0.076 2.204,1.226 1.034,0.114 2.082,0.662 0.754,0.848 1.746,1.412 0.918,0.444 0.008,0.37 -0.2,0.588 0.588,-0.514 0.908,0.814 0.258,0.398 0.282,0.736 -0.098,0.474 -0.126,0.244 -0.006,0.19 0.27,-0.262 0.152,-0.206 0.046,-0.494 0.22,-0.612 0.296,-0.012 0.236,0.366 0.488,1.586 0.184,0.324 0.07,0.504 -0.026,0.224 z" title="French Guiana" id="GF"></path></svg>