<svg xmlns="http://www.w3.org/2000/svg" width="24.87" height="36.08"><path d="m 17.82,0.28 0.358,0.342 0.08,0.196 -0.13,0.738 -0.264,0.514 -0.166,0.484 0.024,0.24 0.16,0.242 0.546,0.378 0.278,0.246 0.332,0.372 0.38,0.364 0.65,0.474 0.276,0.086 -0.014,0.132 -0.09,0.182 -0.06,1.764 -0.05,0.456 -0.046,0.23 -0.062,0.658 -0.068,0.094 -0.122,-0.008 -0.114,0.026 -0.028,0.13 0.046,0.136 0.392,0.094 -0.086,0.1 -0.29,0.09 -0.136,0.198 0.06,0.226 -0.162,0.182 0.046,0.122 0.104,0.088 0.166,-0.032 0.458,-0.304 0.192,-0.032 0.238,0.062 0.438,0.464 0.018,0.226 -0.178,0.774 -0.174,0.598 -0.032,0.798 0.184,0.446 -0.026,0.246 -0.2,0.212 -0.452,0.308 0.034,0.21 0.206,0.392 0.382,0.436 0.746,0.54 0.392,0.702 0.01,0.286 -0.228,0.286 -0.27,0.248 -0.088,0.358 0.122,2.352 -0.59,1.02 -0.006,0.292 0.06,0.336 0.156,0.206 0.3,0.056 0.246,0.196 -0.086,0.716 -0.13,0.728 -0.022,0.354 -0.072,0.168 -0.234,0.136 -0.084,0.23 0.06,0.284 -0.044,0.21 0.124,0.272 0.27,0.338 0.432,0.84 0.164,0.066 0.076,0.178 -0.048,0.17 0.168,0.372 0.48,0.372 0.504,0.324 0.408,0.046 0.096,0.29 0.268,0.37 0.194,0.162 0.31,0.106 0.254,0.056 0.014,0.312 -0.46,0.212 -0.31,0.322 -0.236,0.49 -0.328,0.54 -1.128,0.28 -0.432,0.002 -2.314,0.014 -2.166,1.06 -1.248,0.378 -0.768,0.596 -1.032,0.424 -0.72,0.516 -1.498,0.246 -2.454,0.808 -0.768,0.322 -0.776,0.562 -1.262,0.658 -0.498,-0.008 -0.988,-0.616 -0.744,-0.308 -1.82,-0.472 -1.358,-0.184 -0.656,-0.202 -0.18,-0.034 0.154,-0.222 0.38,-0.014 0.396,0.066 0.302,-0.168 0.442,-0.022 0.116,-0.178 0.036,-0.444 -0.004,-0.36 0.154,-0.16 0.04,-0.424 -0.218,-0.938 -0.154,-0.108 -0.792,-0.132 -0.06,-0.188 -0.142,-0.196 -0.152,-0.484 -0.172,-0.72 -0.278,-0.894 -0.534,-1.472 -0.132,-0.522 -0.09,-0.53 -0.02,-0.634 0.11,-0.236 -0.016,-0.328 -0.05,-0.328 0.376,-0.75 0.736,-0.92 0.154,-0.332 0.138,-0.23 0.02,-0.332 0.13,-1.072 0.352,-1.296 0.222,-0.49 0.15,-0.266 0.18,-0.432 0.046,-0.202 0.678,-0.51 0.312,-0.136 0.07,-0.202 -0.106,-0.218 0.046,-0.15 0.162,-0.074 0.25,-0.06 0.182,-0.21 -0.286,-1.602 -0.232,-1.598 -0.014,-0.136 -0.136,-0.22 -0.136,-0.66 -0.23,-0.388 -0.32,-0.112 0.002,-0.364 0.322,-0.618 0.084,-0.36 -0.154,-0.108 -0.022,-0.282 0.11,-0.454 -0.054,-0.28 -0.06,-0.296 -0.334,-0.702 -0.082,-0.498 0.172,-0.29 -0.006,-0.636 -0.18,-0.982 -0.03,-0.62 0.124,-0.258 -0.06,-0.248 -0.244,-0.234 -0.018,-0.226 0.208,-0.222 -0.026,-0.172 -0.258,-0.126 -0.23,-0.304 -0.206,-0.478 0.042,-0.77 0.386,-1.416 0.048,-0.118 0.438,0.008 0.002,0.06 1.362,-0.014 1.556,-0.016 1.858,-0.018 1.69,-0.016 0.074,-0.064 0.28,-0.078 1.706,0.144 1.068,-0.072 0.452,0.046 0.332,0.096 0.736,-0.058 0.394,0.036 0.296,0.352 0.12,-0.002 0.166,-0.15 0.294,-0.172 0.3,-0.134 0.216,-0.278 0.13,-0.21 0.194,0.042 0.28,-0.012 0.186,-0.176 0.074,-0.272 z" title="Ghana" id="GH"></path></svg>