<svg xmlns="http://www.w3.org/2000/svg" width="344.59" height="505.73"><path d="m 240.6,1.74 5.394,2.994 2.852,3.448 0.598,-0.114 3.866,1.314 3.67,1.634 6.102,4.22 0.856,1.374 -0.66,1.12 -1.516,0.768 -7.798,1.363999 -14.146,1.666 -8.094,3.21 -2.574,0.164 -0.224,4.716 1.1,0.256 1.802,-0.63 6.34,-4.73 2.372,-0.784 4.426,0.396 5.746,1.784 2.318,-0.626 4.134,0.466 4.834,-1.364 5.71,-2.962 1.562,6.58 2.104,6.454 1.666,-0.708 1.426,0.36 0.482,2.092 0.78,0.882 1.616,-0.472 4.95,1.814 3.398,3.238 1.28,1.498 0.614,2.124 0.348,1.692 -0.534,2.07 -2.124,3.656 -2.686,3.322 -3.624,2.534 -4.176,1.578 -32.09,5.222 -1.086,1.23 -0.644,3.118 0.428,4.008 1.5,0.622 3.504,-2.246 6.062,-2.144 4.454,0.102 10.648,1.83 3.142,4.738 1.662,7.148 3.684,-1.592 0.788,-1.222 0.58,-2.13 0.462,-2.302 0.346,-2.472 0.386,-1.694 0.428,-0.902 0.918,-0.756 2.114,-0.914 5.544,-0.89 1.334,0.254 0.958,3.434 0.208,1.99 0.07,2.574 -0.03,3.148 -0.13,3.704 -0.472,3.624 -1.534,6.236 -1.234,3.346 -1.332,2.392 -2.55,5.392 -0.884,1.426 -2.804,6.15 -0.696,2.812 -0.042,2.042 0.482,0.388 0.814,-1.918 0.302,-1.376 0.524,-1.448 4.132,-3.846 0.886,-1.08 2.704,-4.652 1.726,-1.758 1.418,-1.854 0.752,-1.32 4.154,-9.514 2.166,-2.902 2.274,-0.006 0.402,4.898 2.726,0.75 1.184,-0.21 1.902,1.18 0.834,0.968 1.418,0.492 1.462,1.144 1.29,-1.23 0.376,-0.774 1.246,-3.53 1.684,-3.158 1.56,-3.986 0.518,-0.974 0.82,-0.886 0.852,-0.35 2.32,-1.894 0.588,-0.132 1.252,0.6 5.532,0.312 3.018,0.976 4.202,2.694 2.928,1.466 1.356,1.292 1.974,2.754 1.592,2.858 0.74,0.834 -0.028,0.9 -0.55,1.238 -3.944,4.292 -1.292,2.838 -3.732,5.284 -1.824,1.796 -1.982,0.702 -2.206,0.168 -1.432,0.748 -0.212,0.71 1.02,2.14 0.448,1.516 -0.064,1.342 -1.074,1.98 -0.406,0.446 -3.876,1.46 -1.956,2.464 -2.552,0.298 -1.804,-0.28 -2.48,2.63 0.97,2.124 0.888,0.916 2.762,1.916 0.026,1.096 -1.32,2.202 -1.802,2.578 -2.13,1.776 -0.8,0.264 -1.01,-0.446 -0.932,0.096 -2.052,0.816 -1.954,0.13 -3.49,-1.154 -1.888,-1.34 -0.994,-0.464 -1.252,0.128 -0.482,0.542 -1.974,3.186 -0.968,2.156 -0.622,2.192 -0.266,2.372 0.09,2.548 0.24,1.736 0.39,0.936 0.468,0.566 0.82,0.296 1.804,-0.28 0.708,0.16 0.216,0.508 0.39,1.604 -0.068,1.504 -0.328,2.104 -0.252,2.438 -0.18,2.764 0.096,1.5 0.73,0.328 0.342,-0.108 0.398,0.492 0.452,1.086 0.34,1.146 0.226,1.204 -0.118,0.99 -0.466,0.776 -1.05,0.874 -2.586,1.718 -0.262,0.522 -0.204,1.04 -0.144,1.556 -0.312,1.41 -0.48,1.26 -0.436,0.75 -0.838,0.332 -1.098,0.044 -1.234,0.72 -2.908,4.17 -0.044,0.46 1.088,1.326 -0.046,1.156 -1.342,4.918 -0.368,2.41 -0.292,3.276 -0.478,2.737998 -0.666,2.212 -0.656,2.536 -0.644,2.848 0.1,2.17 0.846,1.502 1.118,-1.214 1.39,-3.964 1.512,-1.728 1.632,0.542 1.422,0.792 1.816,1.558 1.52,0.968 1.312,1.27 0.542,1.066 0.544,1.498 0.004,0.942 -0.962,0.506 -0.318,-0.162 -2.408,-2.47 -1.172,-0.618 -1.556,0.744 -1.356,1.118 1.218,4.462 1.302,2.032 2.376,0.922 1.24,0.968 0.906,1.234 0.708,0.6 0.95,-0.264 1.278,-1.212 1.782,-0.066 0.804,0.602 0.582,1.12 0.262,2.084 -0.058,3.028 -0.194,2.262 -0.33,1.512 -0.642,2.016 -0.536,0.366 -0.754,-0.11 -0.702,-0.412 -0.65,-0.718 -0.984,-0.56 -1.978,-0.606 -2,-1.32 -1.12,-0.326 -2.37,0.168 -2.556,0.836 -0.1,1.094 -3.676,3.794 -0.754,-0.052 -1.02,-1.298 -1.428,-1.248 -0.836,0.008 -1.236,1.58 -0.308,0.61 0.016,0.574 0.91,1.354 0.37,0.31 0.47,0.26 1.634,0.324 0.71,0.354 0.668,4.152 1.06,2.54 0.454,0.516 0.4,0.186 1.3,-0.092 1.672,-0.854 0.584,0.684 1.232,0.834 0.72,0.208 0.876,-0.034 0.986,0.316 1.352,2.31 -0.532,2.888 0.846,2.294 1.352,2.35 0.32,0.856 0.13,1.544 0.03,1.014 0.102,0.926 0.172,0.832 0.178,1.628 0.186,2.412 -0.048,1.956 -0.286,1.508 -0.564,1.09 -0.84,0.676 -0.686,-0.178 -0.532,-1.032 -0.75,-1.104 -0.966,-1.176 -1.606,-0.138 -2.364,3.464 -1.054,0.172 -0.858,0.342 -0.914,1.498 -1.346,0.898 -1.188,-0.356 -2.086,-1.74 0.758,1.164 1.084,1.358 0.676,0.702 0.498,0.152 0.546,-0.162 0.788,-0.554 1.778,-1.542 0.47,-0.236 0.398,0.11 0.326,0.456 0.376,1.322 0.422,2.176 -0.054,1.842 -0.532,1.51 -0.456,0.966 -0.378,0.424 0,0.334 0.994,0.384 1.406,-1.958 0.446,-2.452 0.644,-2.85 1.138,-0.954 1.288,0.954 1.04,2.662 1.47,4.842 0.62,0.5 0.788,1.15 0.348,1.406 -0.092,1.658 -0.168,1.2 -0.244,0.744 -0.304,0.472 -0.548,0.3 -1.008,0.24 -2.252,-0.502 -1.172,-0.012 0.146,1.616 -2.372,1.384 -2.674,0.542 -2.532,-1.08 -2.102,-1.666 0.69,-2.342 0.394,-2.62 -1.016,-1.746 -0.222,-0.038 0.35,2.694 -0.294,1.026 -1.148,1.246 -0.81,0.574 -0.072,0.334 0.398,0.29 0.258,0.556 0.122,0.822 -0.136,0.828 -0.396,0.834 -0.216,0.698 -0.036,0.564 0.362,0.684 0.762,0.802 0.826,0.396 3.87,0.172 1.55,0.43 3.676,1.882 0.164,0.576 -0.622,3.338 -0.34,3.176 -0.714,0.578 -3.868,0.136 -1.246,0.492 -1.824,1.444 -1.752,1.724 -0.908,0.012 -3.596,-1.504 -1.378,-1.008 -2.96,-2.868 -2.228,-4.412 -1.022,1.842 -0.626,0.876 -0.646,0.454 -0.622,0.07 -0.6,-0.314 -0.68,-0.694 -1.142,-1.616 -1.362,-1.606 -0.954,-0.766 -0.036,0.218 0.564,0.946 0.824,1.088 2.086,3.178 0.734,0.798 -0.074,0.566 -1.316,0.502 -1.6,1.08 -0.782,0.792 -1.208,1.916 -0.42,0.296 -1.808,0.48 -0.596,-0.116 -1.336,-1.052 -2.014,-0.69 -1.186,-0.614 -1.648,-1.116 0.568,1.22 3.174,1.85 0.348,0.594 -0.65,1.104 -0.398,0.402 -0.756,0.084 -1.114,-0.23 -1.14,0.046 -1.166,0.324 -0.5,0.412 0.164,0.502 0.278,0.456 0.392,0.412 0.368,-0.004 0.888,-1.246 0.672,-0.088 1.778,0.308 1.798,-0.974 1.296,-0.422 0.972,-0.108 3.534,-1.498 0.734,-1.684 1.186,-0.678 2.636,-0.52 2.552,0.266 1.312,0.218 1.062,1.596 1.424,1.126 1.188,1.28 1.392,0.42 0.806,1.694 2.256,1.882 1.436,0.404 0.886,0.892 0.072,3.754 0.094,1.608 -0.382,4.412 -1.154,1.008 0.23,2.296 -0.302,1.844 -1.146,-0.698 -1.174,-1.214 -2.814,-1.892 -2.618,-1.222 -1.018,-1.112 -1.198,-0.864 -1.626,-3.536 -1.058,-4.45 -0.464,-2.222 -0.89,-0.124 -1.144,0.596 -1,0.63 -0.478,1.074 -3.396,1.472 -1.234,1.004 -0.704,-0.03 -2.536,1.508 1.016,0.72 0.474,0.09 1.026,-0.406 0.616,-0.52 2.312,-1.428 1.856,-0.246 0.674,-0.618 1.418,-0.884 0.962,-0.234 0.134,0.224 0.104,0.404 0.678,5.406 -0.284,1.424 -0.764,0.616 -1.634,1.006 -0.424,0.488 0.482,0.852 1.536,-0.802 0.996,-0.874 0.532,0.318 0.87,1.334 0.982,0.682 2.496,2.036 1.182,1.116 1.664,1.074 1.88,1.484 0.49,0.522 1.718,0.766 0.368,0.262 0.71,2.592 0.592,0.288 1.71,0.164 -0.3,1 -1.67,2.21 -0.864,0.704 -0.214,0.432 0.082,0.772 0.05,1.29 0.348,2.36 0.392,-2.184 0.274,-1.036 0.366,-0.31 0.36,-0.046 1.168,-0.984 1.174,0.528 0.304,2.478 0.15,2.296 -0.102,1.972 0.128,3.042 -0.044,1.022 0.278,0.882 0.288,3.632 0.288,1.084 -0.578,0.968 -1.786,0.42 -0.706,-0.476 -1.766,0.16 -0.002,-0.852 -0.086,-0.98 -0.006,-0.686 -0.118,-0.622 -0.084,-3.596 -0.5,0.892 -0.03,0.73 -0.132,0.742 -0.306,3.854 -0.456,0.94 -1.414,-0.226 -1.392,0.138 -0.77,-0.142 -2.604,-1.75 -1.008,-1.592 -0.892,-2.406 -0.55,-2.262 -0.208,-2.118 -0.626,-1.732 -1.04,-1.342 -1.228,-1.09 -1.416,-0.838 -1.244,-1.084 -1.072,-1.332 -1.178,-1.04 -1.288,-0.744 -1.832,-0.32 -2.678,0.118 -1.808,-0.84 -0.43,0.072 -0.422,0.434 0.31,1.234 2.076,0.564 1.6,0.128 2.122,-0.08 1.298,0.316 0.476,0.71 0.328,1.26 0.18,1.804 -0.42,1.424 -1.526,1.574 -0.804,0.736 -2.35,1.408 -0.796,0.312 -1.96,0.096 -1.506,-0.134 -1.982,-0.7 -1.124,-0.142 -2.326,-0.094 -0.534,0.234 0.6,0.75 0.986,0.424 0.694,0.504 0.072,0.954 -0.25,1.41 -0.258,0.982 -0.426,0.736 -1.526,1.388 -0.632,0.438 -2.844,1.446 -0.198,0.278 0.666,-0.038 1.798,-0.512 0.518,0.014 2.952,1.25 2.352,-0.074 4.764,-1.154 0.392,0.022 0.312,0.182 0.316,0.432 0.32,0.684 -0.384,0.662 -1.088,0.636 -1.694,0.626 -0.734,0.422 -0.702,0.64 -1.306,1.534 -0.382,1.584 1.374,0.6 0.618,-0.76 0.728,-1.694 0.656,-0.998 1.546,-0.678 1.888,0.344 1.458,-0.402 2.98,-1.686 0.534,-0.104 4.384,0.966 3.974,1.89 2.096,0.692 2.774,0.408 4.988,-0.186 0.438,0.296 -0.162,0.666 -0.29,0.562 -0.832,0.782 -1.01,0.516 -0.624,0.146 -0.532,0.368 -1.194,0.36 -0.306,0.292 0.414,1.272 -0.196,0.196 -1.052,0.022 -1.772,0.826 -1.454,-0.058 -0.304,0.12 0.276,0.306 0.292,0.59 0.31,0.872 -0.17,0.622 -0.652,0.37 -0.494,0.12 -1.706,-0.518 -0.276,0.078 0.25,0.374 0.142,0.568 0.034,0.764 -0.418,0.638 -0.872,0.514 -1.626,1.412 -0.708,0.402 -1.492,0.332 -0.314,0.184 0.606,1.076 -0.068,0.43 -1.008,1.158 -1.526,0.72 -0.208,0.388 -0.14,1.04 -0.112,0.414 -0.404,0.594 -1.448,1.128 -1.026,0.56 -0.508,0.458 -0.63,0.764 -0.794,0.404 -0.958,0.046 -0.908,0.286 -1.492,0.81 -1.04,0.268 -3.284,1.392 -1.544,0.222 -1.336,0.496 -2.75,1.322 -1.31,0.424 -0.908,0.502 -0.992,0.144 -1.614,-0.326 -0.87,-0.012 -0.536,0.198 -0.49,0.404 -0.81,1.104 -0.688,0.084 -2.256,-0.874 0.046,0.396 0.596,0.946 -0.028,0.668 -1.342,0.678 -0.722,0.172 -1.066,-0.278 -1.41,-0.732 -1.81,-1.532 -2.218,-2.35 -1.068,-0.798 0.078,0.758 0.248,0.74 0.418,0.718 0.084,0.52 -0.248,0.322 -0.326,0.162 -0.406,0.002 -0.07,0.182 0.662,1.116 0.522,1.142 -0.048,1.08 -0.62,1.02 -0.532,0.596 -0.444,0.176 -2.634,2.524 -0.734,0.318 -0.334,0.31 -0.274,0.464 -0.766,2.07 -0.31,0.63 -0.616,0.818 -0.258,0.142 -0.074,0.334 0.112,0.524 -0.17,0.872 -0.45,1.216 -1.534,3.336 -1.236,3.084 -0.542,1.004 -0.396,0.424 -0.25,-0.152 -0.614,0.078 -0.298,0.538 -0.27,0.97 -0.294,0.738 -0.318,0.506 -2.48,2.176 -0.638,0.402 -0.574,-0.254 -0.678,0.098 -1.406,-1.146 -0.244,-0.422 -0.908,-0.946 0.03,0.494 0.152,0.272 0.126,0.398 0.318,0.488 0.704,2.554 -0.556,0.522 -0.498,0.594 -1.27,1.002 -1.374,1.672 -0.506,0.466 -0.114,-1.362 0.058,-0.408 -0.776,-0.662 0.024,0.476 -0.08,0.444 -0.562,1.764 -0.156,0.304 -0.278,-0.068 -0.604,0.324 -0.618,-0.154 -0.526,-0.8 -0.208,-0.416 -0.956,1.142 -0.464,-0.03 -0.078,0.956 -0.45,0.87 -0.594,0.376 -0.83,-0.03 -0.508,0.514 -1.126,-0.55 -0.26,-1.034 0.892,-1.422 0.252,-0.588 -0.164,-0.726 0.216,-0.94 1.704,-2.998 1.154,-1.528 -0.066,-0.274 -1.568,-0.334 -1.37,-0.526 -1.334,-0.18 -0.59,0.178 0.94,0.88 1.33,0.852 -0.654,0.812 -0.564,0.86 -0.584,2.33 -0.374,0.95 -1.45,-1.09 -0.686,-0.37 0.436,1.21 1.27,1.144 0.082,0.376 -0.008,1.354 -2.432,1.19 -2.538,0.18 -1.822,0.336 -3.074,0.408 -1.194,0 -0.102,0.456 3.006,2.072 0.438,0.378 -0.418,0.71 -0.622,0.44 -0.976,1.514 -0.51,0.52 -1.264,0.714 -2.326,-0.796 -1.196,0.356 -1.144,-0.25 -0.024,0.87 0.342,0.634 0.346,1.57 0.768,-0.122 0.976,-0.494 0.754,1.186 0.496,2 0.866,1.01 0.384,0.78 0.156,0.734 -0.54,0.73 -1.118,1.028 -1.24,0.192 0.068,0.812 -0.536,0.582 -1.138,-0.17 -0.532,-0.408 -0.552,-0.192 -2.264,-0.218 2.28,1.56 0.81,0.724 0.36,-0.428 0.79,-0.104 1.166,0.396 -0.194,2.612 0.51,2.102 0.062,0.47 -1.242,1.252 -0.02,1.166 -0.74,0.324 -0.796,-0.074 -0.042,1.274 -0.54,0.792 0.096,0.496 0.154,0.442 -0.492,0.804 -0.444,0.976 -0.636,0.852 -0.336,-0.088 -1.01,0.056 -1.214,-0.072 -0.984,-1.108 -0.408,-0.37 -0.46,-0.242 0.176,0.714 0.276,0.428 0.908,0.8 1.672,0.986 -0.052,0.698 -0.446,0.302 -1.042,1.89 -0.37,0.042 -0.468,0.486 -1.444,-0.164 -0.606,-0.194 -1.782,0.124 -0.606,-0.166 -0.52,0.08 0.484,0.532 1.02,0.478 1.16,0.48 1.764,0.362 -0.064,0.684 -0.442,0.56 0.254,0.834 -0.198,0.596 -0.084,0.708 -0.412,1.64 0.48,1.12 0.522,0.546 -0.06,0.718 0.246,1.144 -0.784,1.018 -0.65,-0.038 -0.926,0.228 -0.308,0.448 1.468,0.422 -0.134,0.758 -0.4,0.948 -0.42,2.042 -0.854,3.476 -0.4,3.42 -1.834,2.788 -0.65,0.078 -0.164,0.11 -0.894,-0.142 -1.404,-0.642 -1.086,-0.212 -0.734,-0.008 -0.094,0.32 0.608,0.516 0.93,0.216 0.744,0.342 1.334,0.318 0.464,0.616 0.318,0.656 -0.046,0.36 -0.002,0.424 0.238,2.278 -0.628,0.784 -0.48,0.708 -1.666,-0.098 -0.29,-0.248 -1.608,-0.746 0.098,0.35 1.164,1.012 0.406,0.504 -0.272,0.104 -0.47,0.038 -0.654,0.34 -1.182,-0.184 0.066,-0.51 0.224,-0.526 -0.54,0.09 -0.602,0.266 -0.35,-0.098 -0.292,0.03 -0.166,-0.264 -0.228,-1.03 0.272,-0.518 0.974,-1.344 0.31,-0.724 -0.27,-0.33 -0.696,0.776 -0.718,1.23 -0.32,0.742 -0.45,0.144 -1.118,-0.374 -3.182,-1.722 0.094,-1.05 -0.03,-0.872 0.928,-0.11 0.674,-0.38 0.604,-0.466 0.68,-0.85 0.624,-1.408 -0.08,-0.108 -1.83,1.796 -1.126,0.598 -0.544,0.11 -0.272,-0.264 -0.906,-0.576 -0.588,-0.262 -1.342,-0.428 -0.238,-0.23 -0.394,-0.184 -0.536,-1.84 0.692,-2.248 0.476,-0.656 0.302,-0.76 0.17,-1.01 -0.118,-0.432 -0.404,0.148 -0.188,0.346 0.03,0.542 -0.232,0.376 -1.6,0.862 -1.604,0.698 -0.76,0.66 -0.494,0.514 -0.386,0.504 -0.59,-0.044 -0.814,0.102 -0.558,0.328 -0.816,-0.202 -0.532,-0.486 -0.642,-0.056 -0.72,0.234 -0.498,-0.02 0.042,0.33 0.332,0.81 -0.55,0.054 -1.044,0.032 -0.526,-0.236 -0.412,-0.308 -0.342,-0.43 0.206,-0.564 1.68,-1.036 0.762,-0.602 -0.498,-0.206 -1.612,0.186 -0.268,-0.156 -1.08,0.094 0.046,-1.55 -0.262,-0.386 -0.018,-0.182 -0.374,-0.434 -0.354,-0.108 -0.22,-0.156 -1.824,-0.35 -0.238,-0.87 -0.126,-0.898 -0.348,-1.118 -0.874,-0.292 -0.472,-0.486 0.376,-0.498 0.164,-0.632 -0.404,-0.29 -0.258,-0.446 0.038,-0.29 -0.328,-0.786 -0.098,-0.614 0.376,-0.578 1.032,-0.654 0.334,-0.264 0.172,-0.286 1.184,-0.482 -1.008,-0.34 -0.63,-0.052 -0.46,0.16 -0.424,0.64 -0.396,0.424 -1.544,0.138 -0.228,-0.22 -0.108,-0.904 0.088,-0.698 0.642,-0.984 -0.74,-0.488 -0.678,-0.16 -0.77,-0.458 -0.712,-0.484 -0.612,-0.564 -0.596,-0.666 -0.19,-0.084 0.214,-0.698 0.122,-0.576 0.018,-1.24 -0.24,-0.516 0.534,-1.064 0.718,-1.166 1.588,-1.738 -1.68,0.838 -1.38,1.822 -0.292,0.084 -0.102,-0.33 -0.524,-1.182 -0.394,-0.324 -0.176,-0.356 -0.786,-0.634 -0.34,-0.488 -0.484,-0.944 -0.688,-1.128 -0.978,-2.234 -1.58,-2.59 -0.39,-1.464 0.49,-1.866 -0.542,-1.292 1.5,-0.6 2.146,-0.674 1.114,-0.562 0.642,-0.168 1.364,-0.104 0.456,-0.566 -0.758,0.144 -0.51,-0.074 -0.032,-0.264 0.188,-0.47 0.122,-0.608 -0.26,0.11 -1.334,1.046 -1.972,0.828 -1.54,0.46 -0.25,-0.024 -0.54,0.278 -0.31,0.08 -0.24,-0.08 -0.544,-0.792 -0.146,-0.518 0.978,-1.41 0.73,-1.932 0.966,-1.27 0.682,-0.16 1.142,0.068 0.402,0.112 -0.128,-0.754 0.048,-0.366 0.926,-0.44 1.08,-0.196 0.768,0.138 0.484,0.888 0.622,1.632 0.838,0.55 -0.038,-0.782 -0.434,-1.01 -0.162,-1.556 -0.552,-0.658 -0.442,-0.324 -1.224,0.158 -0.736,-1.144 -0.166,-0.42 -0.018,-0.56 -0.736,-1.648 -0.236,-0.828 -0.39,-1.104 -0.208,-0.06 0.264,1.39 0.344,0.974 0.492,2.132 0.244,0.856 -0.33,0.676 -0.622,0.668 -0.55,0.398 -1.3,0.476 0.28,-1.04 0.178,-1.024 -0.654,0.364 -0.608,0.744 -0.21,1.028 -0.39,0.93 -1.158,2.274 -0.456,1.256 -0.432,0.618 -0.492,0.17 -0.426,-0.49 -0.362,-1.154 -0.17,-0.906 -0.02,-2.36 0.046,-1.106 -0.198,-1.496 -0.626,-3.506 -0.132,-1.258 -1.058,-0.67 -0.016,-0.216 -0.276,-0.72 -0.214,-0.722 0.176,-0.264 0.252,-0.19 1.582,-1.068 1.172,-1.2 1.402,-1.89 0.572,-0.588 2.056,-0.454 0.912,-0.062 -0.008,-0.338 -0.306,-0.134 -1.388,0.088 -1.85,0.76 -0.318,0.274 -0.81,1.178 -0.624,0.642 -1.756,1.462 -1.14,0 -1.176,-1.752 -1.314,0.336 -0.886,-0.116 -0.258,-0.264 -0.196,-2.408 0.714,-2.83 -0.772,-0.028 -0.16,-0.114 -0.408,-0.648 -0.266,-0.194 0.198,-0.344 1.902,-1.352 2.846,-2.668 1.224,-1.054 0.756,-0.456 0.572,-0.522 0.696,-1.136 0.23,-0.498 0.388,-0.402 0.818,-0.454 0.894,-0.688 1.45,-1.552 0.19,-0.576 -0.316,-0.134 -0.678,0.532 -1.378,1.42 -0.984,0.796 -3.358,3.542 -1.43,1.28 -0.778,0.816 -0.604,0.776 -0.638,0.552 -0.676,0.33 -1.44,0.246 -0.708,0.286 -0.426,-0.208 -0.188,-1.656 0.144,-0.984 -0.068,-0.974 0.36,-1.4 0.534,-0.994 0.224,-0.542 0.094,-0.372 1.1,-1.034 0.606,-0.458 0.428,-1.04 2.442,-0.37 0.63,0.038 0.334,-0.14 0.25,-0.302 -0.242,-0.234 -0.732,-0.166 -1.946,0.032 -1.798,-0.178 -0.82,-0.18 -0.396,0.104 -0.654,-0.304 -0.714,-0.582 -1.108,-2.144 0.444,-2.772 0.038,-1.332 1.408,-1.17 0.752,-0.388 1.068,-0.884 1.426,-1.508 1.702,-0.924 0.868,-0.172 0.72,0.132 2.664,1.31 1.37,0.256 1.204,-0.314 1.51,0.458 2.672,1.876 0.516,-0.278 -0.15,-0.454 -2.98,-1.986 0.016,-0.596 0.762,-0.156 0.814,-0.58 -0.458,-0.344 -1.98,0.298 -0.572,0.476 -1.92,0.246 -1.002,-0.404 -0.9,-0.202 -1.35,-0.864 -1.13,0.282 -0.714,0.34 -1.262,0.322 -0.456,0.23 -2.466,2.704 -1.038,0.56 -0.738,-0.184 0.518,-1.756 0.15,-0.696 0,-0.758 0.214,-1.042 1.264,-1.994 0.794,-2.196 0.336,-1.37 0.622,-0.154 0.848,0.202 2.548,0.888 2.12,1.056 1.564,0.282 1.028,0.03 0.44,-0.336 0.348,-0.586 0.134,-0.406 0.1,-0.832 0.118,-0.296 0.344,-0.364 0.702,-1.27 0.214,-0.906 -0.23,-0.53 -0.468,0.054 -0.914,0.348 -0.124,0.144 0.016,0.284 -0.882,1.402 -0.962,0.322 -2.214,0.468 -1.01,0.034 -1.796,-0.65 -0.272,-0.254 -0.186,-0.478 -2.204,0.108 -0.658,0.144 -0.524,-0.062 0.256,-0.832 0.696,-0.926 0.976,-3.03 0.818,-0.78 1.624,-0.728 1.694,0.118 2.93,2.354 0.884,0.204 0.81,-0.19 1.938,-0.786 0.356,-0.32 0.698,-0.978 0.814,-1.68 -0.04,-0.398 -1.25,0.94 -0.666,0.252 -0.564,0 0.524,-3.084 0.204,-2.38 0.196,-0.594 1.642,0.178 2.244,-0.324 0.534,-0.524 -0.008,-0.232 -0.9,-0.318 -0.434,-0.67 -0.754,0.212 -1.01,0.446 -1.268,-0.05 0.106,-1.034 0.93,-2.178 0.096,-0.998 0.362,-2.002 0.038,-1.032 0.47,-1.006 1.466,-0.718 0.616,-0.43 0.034,-0.472 -0.878,-1.802 0.222,-0.5 0.69,-0.456 0.256,-0.334 -0.176,-0.208 -0.634,-0.2 -0.976,0.4 -1.08,0.192 -0.956,-0.602 -0.748,-0.29 -0.472,0.09 -1.286,1.03 -0.45,0.034 -0.556,-0.286 -3.684,-0.892 -0.458,-0.316 -1.32,-1.55 -1.088,-1.028 -1.448,-1.126 -1.878,-0.858 -2.306,-0.588 -1.38,-0.554 -0.68,-0.784 -1.166,-1.73 -0.886,-1.448 -0.166,-0.718 0.52,-0.89 0.53,-0.64 0.998,-0.526 1.722,0.174 0.924,0.234 1.018,0.502 0.77,0.094 1.598,-0.142 1.626,0.32 0.962,0.352 1.264,0.732 3.488,3.098 1.456,1.07 0.632,0.128 2.61,1.14 0.418,-0.022 1.068,-0.534 0.106,-0.346 -0.36,-0.342 -1.152,-0.266 -1.352,-1.264 -0.838,-1.006 -0.096,-1.67 0.11,-0.94 0.21,-0.428 0.148,-1.446 -0.784,-0.862 -0.546,-0.272 -1.454,-1.262 -0.122,-0.314 0.698,-0.148 0.684,0.086 1.466,0.64 0.768,0.088 0.56,-0.25 0.064,-0.258 -0.892,-0.728 -1.116,-1.306 -2.332,-0.194 -1.512,0.148 -0.966,-0.45 -1.028,-0.732 -0.662,-0.188 -1.35,0.46 -0.682,0.058 -0.622,-0.162 -0.614,-2.32 0.164,-0.698 0.482,-0.302 0.364,-0.754 0.254,-0.79 0.8,-0.774 4.39,-1.73 1.108,-1.292 -0.048,-0.2 -0.748,0.24 -0.956,0.584 -0.638,0.12 -2.584,-0.754 -0.404,0.172 -1.046,1.082 -1.42,1.17 -0.654,-0.072 -0.876,-0.692 -0.138,-0.494 -0.064,-0.594 0.962,-0.816 0.308,-0.432 0.622,-1.166 -0.032,-0.578 -1.062,0.318 -0.138,-0.538 0.016,-0.922 -0.102,-1.17 -0.26,-1.16 -0.872,-1.79 -0.362,-0.46 -0.298,-0.666 -0.658,-2.442 0.19,-0.614 0.584,-0.466 0.112,-0.214 -1.394,0.386 -0.152,0.424 0.262,0.626 0.188,0.832 0.112,1.036 0.194,0.904 0.504,0.988 0.404,0.518 0.658,1.368 0.288,1.498 -0.084,0.786 -0.51,0.798 -0.824,0.858 -0.25,0.71 -0.112,0.706 -0.642,0.652 -0.394,-0.244 -0.312,-0.038 0.368,1.16 0.238,1.184 -0.286,1.182 -0.762,0.714 -0.414,0.022 -0.814,0.578 -2.084,0.302 -0.726,-0.142 -1.33,-0.586 -1.578,-0.32 -0.626,-0.792 -0.82,-1.446 -0.414,-1.3 -0.008,-1.154 0.222,-0.842 0.452,-0.532 0.544,-3.414 0.768,-2.782 1.934,-2.892 0.552,-1.052 0.182,-0.566 -0.002,-0.432 -0.312,-0.274 -2.378,3.59 -1.466,0.38 -0.438,-0.804 0.132,-1.432 0.262,-0.334 1.186,0.136 0.46,-0.8 -0.742,-1.212 -0.79,-0.32 -0.184,-0.306 0.812,-0.928 1.88,0.068 0.424,-0.65 0.68,-0.702 0.756,-1.308 0.282,-1.104 0.064,-0.95 -0.164,-0.768 -0.016,-0.772 0.128,-0.776 -0.198,-0.86 -0.522,-0.944 -1.162,-0.924 -0.342,1.044 -0.362,0.428 -0.508,0.096 -0.468,-0.44 -0.49,-0.158 -0.48,-0.392 -0.5,-0.126 -0.194,-0.316 -0.126,-0.888 -0.01,-1.132 0.564,-0.532 0.786,-0.418 0.526,-0.794 0.346,-1.154 0.05,-1.266 -0.246,-1.376 -0.638,-1.242 -1.182,1.208 -0.464,0.296 -0.106,-0.864 -0.164,-0.64 -0.496,-0.872 -0.654,-0.636 -0.628,-0.424 -0.028,-0.646 0.148,-0.73 0.28,-0.852 0.362,-1.786 0.398,0.16 0.332,-0.164 -0.192,-1.482 -0.32,-1.25 -0.376,-0.714 -0.014,-0.31 -0.086,-0.364 -0.29,-0.882 -0.326,-0.648 -0.568,-1.842 -0.41,-0.706 -0.526,-0.366 -0.566,-0.02 -0.91,0.488 -1.678,0.56 -1.33,0.266 -0.222,-0.146 0.666,-0.702 0.98,-0.732 1.296,-0.498 0.378,-1.224 -0.14,-1.062 0.054,-1.01 -0.356,-1.066 0.346,-0.592 1.18,-0.598 0.536,-0.092 0.532,-0.762 -1.496,-1.846 -1.568,-1.214 -0.392,-0.496 -0.344,-0.816 -0.296,-1.14 -0.484,-1.144 -0.668,-1.152 -0.976,-1.114 -2.516,-2.048 -0.864,-1.42 -0.796,-2.184 -0.398,-0.936 -0.414,-0.694 -1.752,-1.632 -0.212,-0.724 1.81,-1.936 0.176,-0.776 -0.74,-2.37 -0.756,-1.744 -0.824,-0.622 -1.226,-0.32 -1.124,-0.78 -1.022,-1.24 -1.02,-0.91 -1.528,-0.868 -2.556,-2.242 -3.94,-2.416 -1.76,-1.42 -1.048,-0.518 -1.38,-0.132 -2.67,-1.334 -2.244,-0.428 -1.384,0.196 -0.452,-0.222 -1.024,-1.362 -1.602,-0.784 -0.828,0.298 -1.028,1.46 -1.24,1.434 -0.66,0.194 -0.98,-1.31 -0.494,-0.918 -0.472,-0.314 -0.45,0.296 -0.876,1.206 -0.834,0.868 -1.234,1.028 -0.986,0.492 -1.266,0.12 -0.318,0.372 -0.488,0.016 -0.656,-0.336 -0.616,-0.668 -0.574,-1.002 -0.506,-0.542 -0.44,-0.08 -1.01,0.52 -1.278,1.524 -0.584,0.366 -0.49,-0.158 -0.6,-0.474 -1.202,-1.216 -0.666,0.118 -0.484,0.426 0.134,1.008 1.126,2.38 1.006,1.686 -0.85,0.198 -7.424,-2.282 -0.946,-0.552 -1.366,-1.39 -1.136,-0.856 -1.934,-2.222 -1.49,-1.208 -0.494,-0.948 -0.13,-0.654 0.474,-0.886 3,-3.006 1.146,-0.61 2.332,-0.73 0.55,-0.458 0.184,-0.364 -0.612,-0.658 -3.054,0.236 -2.72,-0.44 -2.368,-1.214 -0.412,-0.404 -0.402,-0.746 -0.39,-1.088 0.088,-1.222 0.568,-1.358 0.334,-0.936 0.098,-0.508 -2.976,3.344 -1.216,1.164 -0.964,-0.356 -0.676,-0.55 -0.332,-0.614 0.012,-0.678 0.11,-0.496 0.206,-0.31 -1.574,-1.388 -0.708,-1.094 -0.076,-1.132 0.558,-1.172 0.546,-0.852 0.534,-0.534 1.456,-0.464 5.316,-0.89 3.806,0.854 1.296,-2.838 0.876,-0.91 2.56,-0.95 3.94,-0.132 2.782,0.526 1.304,0.67 1.776,1.474 0.102,-0.444 -0.428,-1.332 -0.03,-1.11 0.718,-1.938 0.33,-1.222 -0.224,-1.278 -0.78,-1.334 -1.38,-1.72 -0.744,-0.142 -0.826,0.416 -0.992,0.954 -2.062,2.392 -0.974,0.498 -1.624,0.126 -0.898,-0.3 -0.868,-0.358 -1.356,-1.266 -0.494,-0.238 -0.6,0.556 -0.704,1.346 -0.678,0.94 -0.654,0.536 -0.61,0.232 -0.852,-0.11 -3.51,-2.088 -0.792,-0.934 -0.046,-1.42 -1.078,-1.382 -1.218,-0.242 -0.148,-0.464 1.544,-2.146 1.152,-0.88 -0.184,-0.266 -1.672,-0.046 -1.128,1.146 -0.646,0.194 -1.486,0.032 -1.56,-0.574 -0.664,-0.502 -0.688,-1.156 -0.772,-0.652 -2.33,-0.992 -0.526,-0.542 -0.498,-0.902 -1.904,-2.566 -1.152,-1.897998 -0.15,-1.082 1.33,-2.334 0.058,-0.542 -0.57,-1.014 -0.238,-0.75 0.196,-1.038 1.164,-2.31 0.432,-0.628 2.086,-1.366 2.09,-1.996 0.76,-0.45 0.678,-0.104 2.746,0.12 0.85,-0.494 0.722,-0.98 1.186,-0.996 2.474,-1.518 5.5,-2.308 0.358,-0.274 0.032,-0.44 -0.494,-1.198 -0.104,-0.58 1.126,-1.08 2.542,-1.71 1.738,-0.826 1.118,-0.06 0.902,-0.37 1.266,-1.084 0.716,-0.192 4.326,-0.426 1.914,0.592 0.94,-0.012 0.604,-0.42 0.798,-1.234 1.492,-3.084 0.786,-1.93 0.742,-2.958 0.958,-4.676 0.716,-4.626 0.474,-4.578 0.37,-2.82 0.262,-1.016 0.898,-1.292 0.936,-1.012 1.608,-0.898 -0.146,-0.42 -0.682,-0.704 -0.634,-0.27 -0.586,0.162 -1.07,1.062 -1.386,0.718 -1.346,-0.112 -0.97,0.266 -0.89,0.968 -1.442,0.776 -0.962,-0.176 -1.738,-1.39 -0.876,-0.26 -2.222,0.132 -0.65,-0.518 -0.568,-1.014 -0.452,-1.42 -0.338,-1.836 0.046,-1.918 0.8,-3.492 0.306,-0.958 2.166,-3.954 1.334,-1.866 1.328,-1.404 0.966,-0.828 0.912,-0.372 0.876,-0.876 1.61,-2.836 1.662,-2.45 2.068,-4.602 1,-1.218 3.502,-2.032 0.952,-0.032 0.808,0.506 0.766,1.058 2.15,4.576 0.168,-0.14 -0.376,-1.726 -0.784,-5.218 0.126,-2.17 1.23,-2.336 0.504,-0.418 1.298,0.156 2.094,0.724 1.4,0.792 1.062,1.284 1.262,0.794 0.654,-0.04 0.466,-0.612 0.668,-2.004 0.87,-3.426 0.348,-4.272 -0.172,-5.152 -0.252,-3.816 -0.336,-2.428 0.184,-2.038 1.054,-2.462 0.966,-1.81 2.304,-2.576 1.87,-0.688 1.108,0.174 1.458,1.212 2.022,0.742 1.826,2.33 2.958,5.29 1.962,2.624 1.626,1.172 1.602,1.986 2.368,4.168 1.24,1.772 0.736,0.64 0.65,0.102 -0.242,-1.176 -1.132,-2.47 -1.732,-2.742 -3.842,-4.986 -2.118,-3.568 -1.898,-4.116 -1.396,-2.474 -2.532,-2.472 0.034,-0.99 3.056,-3.508 5.616,-3.084 6.33,-2.432 2.118,0.25 3.722,-1.022 0.35,-1.55 0.8,-0.698 3.466,-2.176 0.994,0.03 1.526,1.034 1.626,1.962 0.752,1.766 1.022,3.01 0.5,4.192 -0.076,12.888 0.028,2.38 0.196,0.914 0.706,-1.362 0.842,-2.542 0.758,-1.81 0.582,-2.814 0.408,-3.84 0.242,-2.876 -0.99,-3.28 -0.048,-5.46 0.496,-2.948 1.386,0 5.734,10.07 2.256,2.134 2.568,5.234 3,-0.552 2.768,0.638 1.224,-0.19 0.604,-0.808 -0.86,-2.166 -3.932,-6.028 -1.786,-4.81 -1.25,-6.102 -0.304,-3.29 0.956,-0.596 4.392,0.07 6.6,2.858 8.44,9.696 4.154,3.146 7.444,10.764 2.246,1.596 0.906,0.334 0.684,-1.302 0.422,-1.42 0.032,-1.902 -0.36,-2.392 -0.208,-2.788 -0.052,-3.194 0.504,-6.42 1.2,-2.122 0.53,-2.416 -0.494,-4.406 -1.406,-3.052 -5.474,-7.994 -0.022,-0.966 1.106,-1.066 1.64,-0.626 13.566,1.938 2.344,0.708 1,0.694 0.438,0.914 0.562,0.39 2.914,-1.088 -0.07,-1.996 -0.364,-1.276 -15.744,-3.51 -2.934,-1.208 -1.494,-0.092 -1.544,0.928 -3.202,0.458 -1.478,-0.176 -1.916,-4.23 1.734,-5.164 1.46,0.118 2.774,2.022 1.644,-2.828 2.608,-2.356 2.58,-0.834 5.628,-5.133999 1.04,-0.452 1.312,0.276 2.908,1.332 1.15,1.274 1.318,2.709999 0.764,0.834 0.908,0.154 1.244,1.216 1.8,-3.954 1.626,-4.297999 1.868,-2.746 2.642,1.604 1.672,2.078 1.528,2.46 2.162,1.351999 3.664,8.23 0.684,0.008 0.324,-0.688 0.346,-1.512 0.124,-2.258 0.45,-3.092 -0.326,-1.15 -3.07,-3.473999 -0.58,-1.346 -0.588,-2.23 -0.01,-1.854 0.57,-1.47 0.6,-0.674 1.984,0.612 0.656,-0.48 0.62,-1.252 0.746,-2.362 0.588,-0.604 1.328,-0.07 2.042,1.52 1.788,0.128 0.644,-0.698 0.098,-1.484 0.156,-0.948 0.212,-0.4 6.48,-0.082 1.608,-0.356 1.256,-1.134 1.538,-0.134 1.344,0.678 1.664,1.444 1.654,-0.068 2.464,-2.36 2.32,-1.124 12.806,0.312 4.21,1.434 z m -83.698,66.787999 -1.138,0.716 -2.376,-4.332 -3.762,-4.39 -3.318,-2.96 -3.118,-7.902 -0.246,-2.854 0.442,-2.524 2.722,-0.386 2.178,-1.166 5.544,5.018 2.772,4.19 0.94,3.386 -0.146,6.67 -0.494,6.534 z m 147.058,9.522 -0.578,1.27 -1.48,-0.508 -1.896,-3.578 -1.264,-2.966 -0.09,-3.518 0.65,-1.576 1.012,-0.264 1.39,3.016 1.426,4.022 0.83,4.102 z m 5.908,71.492 -2.376,3.622 -3.514,-0.278 -2.08,-1.668 -0.594,-2.518 0.792,-2.82 2.524,-2.276 3.168,-1.43 2.872,0.86 0.396,2.846 -1.188,3.662 z m -7.774,54.109998 -0.744,0.948 -0.494,-2.854 -0.446,-3.843998 -0.1,-4.38 1.138,-2.212 0.594,-0.494 0.396,0.494 -0.1,1.968 0,3.898 0.396,2.655998 -0.64,3.82 z m 5.858,8.806 -1.09,0 -0.404,-0.682 0.258,-1.21 1.518,-3.932 0.506,-0.322 0.742,0.428 0.226,2.024 -0.496,2.01 -1.26,1.684 z m -301.494,8.21 -2,0.226 -1.97,-0.998 -0.676,-0.774 0.03,-1.186 0.298,-0.412 1.064,-0.412 0.884,-0.092 0.596,0.184 1.402,0.732 1.014,0.73 0.666,0.228 -0.19,1.046 -1.118,0.728 z m 297.964,31.278 -0.644,0.614 -2.178,-9.766 0,-3.606 0.148,-2.784 0.99,-0.216 0.842,1.502 0.396,5.734 0.446,8.522 z m 3.266,14.452 0.446,2.348 0.198,2.138 0.694,1.352 1.486,-0.192 0.594,2.5 -1.088,0.958 -4.306,-0.382 -1.782,0.19 -1.238,-1.532 0.05,-2.7 0.148,-2.722 1.238,-1.564 1.04,1.37 1.238,-0.978 1.282,-0.786 z m -207.772,53.692 -0.794,1.284 -0.646,0.734 -1.404,2.178 -0.242,0.076 -0.378,-0.282 -0.294,-0.572 -0.53,-0.138 -0.184,-0.362 -0.074,-0.294 -0.236,-0.188 -0.374,-0.118 -0.6,0.224 -0.55,-0.224 -0.416,-0.958 0.768,-0.644 0.474,-0.55 1.834,-0.216 0.518,0.252 0.326,-0.006 0.496,-0.15 1.084,-0.686 0.162,-0.32 0.97,0.402 0.09,0.558 z m 8.318,31.652 -0.526,0.114 -1.508,-0.878 -0.246,-0.332 -0.094,-0.406 0.058,-0.482 0.48,-0.9 0.902,-1.322 0.654,-0.248 0.406,0.83 0.398,1.112 0.052,0.562 -0.026,0.662 -0.104,0.56 -0.182,0.46 -0.264,0.268 z m 157.74,2.056 0.198,1.01 0.02,0.476 -0.042,0.398 -0.11,0.286 -0.264,0.252 0.492,0.666 0.16,0.448 0.03,0.356 -0.314,0.688 -2.236,0.908 -0.622,0.436 -0.776,1.078 -0.944,0.924 -0.314,-0.004 -0.366,-0.958 -1.492,-0.706 -2.806,0.368 -3.286,0.888 -1.166,0.414 -0.59,-0.22 -0.18,-0.332 -0.008,-0.462 0.388,-1.356 0.158,-0.346 0.754,-0.452 0.51,-1.2 -0.166,-1.31 0.196,-1.834 0.516,-0.286 1.29,0.654 0.834,0.138 1.478,0.084 1.986,-0.22 1.596,-0.748 2.912,-2.14 0.516,0.028 0.37,0.76 0.272,0.372 0.866,0.582 0.14,0.36 z m -147.3,1.134 -0.75,0.046 -1.744,-0.31 -0.14,-0.2 -0.022,-0.378 0.232,-1.092 0.768,-0.146 0.914,0.598 0.986,0.85 0.136,0.4 -0.38,0.232 z m -5.928,15.226 1.87,1.328 1.982,0.914 0.194,0.416 0.154,0.63 0.036,0.328 -0.044,0.304 -0.126,0.28 0.144,0.36 0.416,0.44 0.042,0.514 -0.496,0.88 -0.698,0.976 -3.692,1.998 -1.306,0.338 -3.228,1.364 -0.988,-0.056 -0.218,-0.064 -0.61,-0.6 -0.836,-0.558 -0.392,-0.434 -0.346,-0.624 0.138,-0.386 0.622,-0.152 0.884,0.01 1.298,-0.454 -0.36,-0.41 -0.34,-0.25 -0.236,-0.544 -0.542,0.106 -0.406,-0.312 -0.782,-0.198 -2.042,-0.188 -1.332,-0.536 -0.392,-0.322 -0.346,-0.556 -0.3,-0.784 0.436,-3.06 0.3,-0.784 0.692,-0.258 1.692,0.684 0.228,-0.294 -1.852,-1.136 -0.68,-0.678 -0.2,-0.536 -0.12,-0.79 0,-0.464 0.084,-0.468 0.166,-0.47 0.45,-0.636 1.876,-1.016 2.044,0.348 3.548,1.248 0.44,0.264 1.088,1.066 2.086,3.222 z m 9.64,6.356 -0.88,0.566 -0.178,-0.126 -0.178,-0.432 -0.454,-1.968 -0.134,-0.936 0.112,-1.168 -0.176,-0.826 0.794,-0.964 0.642,-0.166 0.866,0.252 1.466,0.98 -0.106,0.318 -0.318,0.51 -0.882,0.666 -0.312,1.496 -0.06,0.748 0.042,0.56 -0.244,0.49 z m 78.484,59.172 -0.874,0.008 -0.29,-1.064 0.086,-1.164 0.984,-0.366 0.53,0.802 -0.19,1.192 -0.246,0.592 z m -51.838,59.12 -0.644,1.388 -0.644,-0.302 -0.318,-0.62 -0.634,-0.288 -0.684,0.086 -0.01,-0.246 2.222,-1.484 1.06,-0.4 -0.076,0.626 -0.202,0.548 -0.07,0.692 z" title="Greenland" id="GL"></path></svg>