<svg xmlns="http://www.w3.org/2000/svg" width="3.49" height="3.60"><path d="m 2.62,1.6 -0.66,0.064 -0.434,-0.05 -0.1,-0.416 0.222,-0.352 -0.16,-0.428 0.102,-0.254 0.222,-0.168 0.364,0.224 0.058,0.32 0.228,0.292 1.026,0.624 -0.868,0.144 z m -1.472,1.298 -0.454,0.26 -0.222,-0.08 -0.276,-0.5 -0.194,-1.388 0.15,-0.23 0.108,-0.086 0.598,0.17 0.25,0.196 0.25,0.124 -0.126,0.254 0.062,1.042 -0.146,0.238 z m 2.016,0.68 -0.312,0.022 -0.138,-0.05 -0.042,-0.348 0.242,-0.24 0.142,-0.058 0.21,0.27 0.05,0.224 -0.152,0.18 z" title="Guadeloupe" id="GP"></path></svg>