<svg xmlns="http://www.w3.org/2000/svg" width="16.28" height="15.62"><path d="m 1.7,0 0.138,0.022 0.84,-0.022 0.228,0.296 -0.026,0.434 -0.864,1.268 -0.162,0.534 -0.334,0.454 -0.29,0.036 -0.996,-0.266 -0.168,-0.162 -0.06,-0.216 0.098,-0.506 0.074,-0.154 0.478,-0.096 0.154,-0.082 0.256,-0.544 0.084,-0.498 0.214,-0.376 0.336,-0.122 z m 14.556,8.882 0.006,1.292 0.006,1.092 0.006,1.182 0.006,1.232 0.006,1.042 0.004,0.674 -1.15,-0.004 -1.526,-0.004 -1.526,-0.004 -1.524,-0.004 -0.766,-0.002 -0.844,-0.002 -0.274,0.036 -0.186,0.17 -0.224,0.04 -0.26,-0.146 -0.318,-0.07 -0.084,-0.15 -0.158,-0.274 -0.314,-0.03 -0.158,0.03 -0.226,0.156 -0.254,0.082 0.048,-0.126 -0.502,-0.336 -0.362,-0.034 -0.334,-0.104 0.27,-0.876 0.338,-0.774 0.504,-0.586 0.268,-0.14 0.086,-0.29 0.4,-0.956 0.496,-0.774 -0.154,-0.784 0.118,-1.318 0.144,0.038 0.022,0.124 0.038,0.184 0.186,0.164 0.616,0.254 1.836,0 1.096,0 1.622,0 1.716,0 1.306,-0.004 z" title="Equatorial Guinea" id="GQ"></path></svg>