<svg xmlns="http://www.w3.org/2000/svg" width="65.99" height="45.50"><path d="m 5.12,0.78 0.546,0.464 0.434,-0.316 0.45,0.038 0.246,0.156 0.252,0.06 0.316,0.002 0.544,0.784 -0.228,0.694 0.596,-0.136 0.518,0.578 0.236,-0.046 0.118,-0.234 0.334,-0.268 0.23,0.36 0.28,0.69 0.354,0.21 0.312,0.73 0.246,0.924 0.224,0.132 0.384,0.002 0.39,-0.126 -0.148,0.8 0.046,0.708 0.644,0.51 -0.384,0.282 -0.404,0.408 -0.822,0.314 -0.214,-0.132 -0.718,-0.71 -0.334,-0.836 -0.754,-1.192 -0.148,-0.35 -0.194,-0.224 -0.682,-0.144 -0.6,-0.286 -0.5,-0.6 -0.156,-0.368 -0.192,-0.256 -0.678,0.014 -0.428,-0.282 -0.422,-0.384 -1.906,-1.108 -0.748,0.112 -0.344,-0.312 0.018,-0.554 0.394,-0.33 -1.65,-0.126 -0.586,-0.198 0.404,-0.12 2.3,-0.018 0.862,-0.092 0.076,0.238 0.762,0.49 0.724,0.048 z m 60.842,44.114 0.024,0.612 -0.872,-0.56 -0.202,-0.264 0.28,-0.342 0.548,-0.012 0.134,0.208 0.088,0.358 z" title="South Georgia and South Sandwich Islands" id="GS"></path></svg>