<svg xmlns="http://www.w3.org/2000/svg" width="22.49" height="23.66"><path d="m 17.26,0.02 -0.054,1.42 -0.062,1.644 -0.046,1.206 -0.062,1.608 -0.062,1.642 -0.086,2.234 -0.054,1.44 0.026,0.034 0.67,-0.07 0.99,0.064 0.242,-0.004 0.302,0.124 0.234,0.038 0.504,0.324 0.59,0.246 0.378,-0.496 -0.198,-0.298 -0.15,-0.152 0.024,-0.134 2.052,1.284 -0.242,0.198 -0.522,0.456 -0.948,0.782 -0.848,0.698 -0.818,0.632 -0.734,0.57 -0.088,0.056 -0.932,0.408 -0.156,0.186 -0.2,0.804 -0.092,0.2 0.17,0.446 0.168,0.688 -0.054,0.362 -0.644,0.442 -0.296,0.398 -0.13,0.258 -0.116,-0.066 -0.2,-0.02 -0.46,0.1 -0.224,0.022 -0.184,0.114 -0.02,0.248 0.124,0.402 0.044,0.206 -0.13,0.096 -0.568,0.242 -0.224,0.238 -0.214,0.368 -0.248,0.156 -0.26,-0.028 -0.184,0.054 -0.394,0.278 -0.592,0.536 -0.316,0.398 -0.008,0.296 0.062,0.268 -2.156,-0.944 -0.716,-0.162 -3.028,0.02 -1.298,-0.372 -1.478,-0.716 -1.002,-0.652 -2.334,-1.826 0.146,-0.148 0.124,-0.34 0.152,-0.352 -0.094,-0.406 -0.056,-0.328 0.174,-0.48 -0.016,-0.358 0.08,-0.222 0.256,-0.144 0.134,-0.274 -0.728,-0.944 0.002,-0.216 0.096,-0.266 0.588,-1.01 0.702,-1.202 0.772,-1.328 0.466,-0.8 1.698,-0.002 1.124,-0.002 1.428,0 1.55,-0.002 1.018,0 0.42,-0.01 -0.072,-0.52 0.056,-0.576 0.184,-0.522 0,-0.23 -0.304,-0.284 -0.586,-0.164 -0.328,-0.25 -0.002,-0.316 -0.142,-0.382 -0.286,-0.45 -0.59,-0.46 -0.898,-0.472 -0.764,-0.632 -0.63,-0.794 -0.532,-0.51 -0.412,-0.214 -0.096,-0.112 1.202,0.008 1.136,0.01 0.008,-1.14 0.006,-1.012 0.008,-1.148 2.06,0.002 2.462,0.002 2.552,0.004 2.004,0.002 z" title="Guatemala" id="GT"></path></svg>