<svg xmlns="http://www.w3.org/2000/svg" width="17.06" height="9.92"><path d="m 16.74,0.04 -0.018,0.462 0.332,0.654 -0.048,0.486 -0.144,0.46 -0.126,0.182 -0.166,0.106 -0.504,-0.004 -0.212,0.092 -0.336,0.18 -0.008,0.212 0.268,0.202 0.22,0.282 0.256,0.222 0.44,0.256 0.042,0.284 0.012,0.716 -0.024,0.56 -1.238,0.406 -0.95,0.072 -0.804,-0.044 -0.35,0.17 -0.7,0.418 -0.854,0.254 -0.438,0.018 -0.21,0.152 -0.332,0.434 -0.926,1.896 -0.306,0.454 -0.248,0.296 -0.284,-0.402 0.22,-0.744 -0.238,0.01 -0.472,0.602 -0.23,0.018 0.03,-0.712 -0.262,-0.026 -0.304,0.05 -0.424,-0.372 -0.042,-0.278 0.034,-0.388 0.258,-0.248 -0.036,-0.104 -0.25,-0.03 -0.28,0.066 -0.172,-0.118 0.284,-0.504 0.992,-0.422 0.498,-0.044 0.512,-0.096 -0.28,-0.364 -0.606,-0.144 -0.484,0.1 -0.242,0.262 -0.298,0.044 -0.5,-0.618 0.008,-0.31 0.186,-0.368 0.29,-0.166 1.15,0.004 0.436,-0.208 0.176,-0.038 0.166,-0.188 -0.036,-0.126 -0.188,-0.006 -0.43,0.246 -1.384,-0.092 -0.442,0.148 -0.77,0.566 -0.948,0.312 -0.688,-0.132 0.22,-0.758 -0.098,-0.102 -0.216,-0.126 -1.008,0.242 -0.762,-0.346 -0.302,-0.418 0.052,-0.526 0.36,-0.356 0.056,-0.178 -0.38,-0.034 -0.7,0.222 -1.542,-0.86 0.308,-0.054 0.76,0.09 0.59,-0.108 0.416,-0.182 0.566,-0.25 0.546,-0.082 1.71,0.112 1.486,-0.3 1.104,-0.564 1.02,-0.52 1.322,0.006 1.416,0.006 2.014,0.008 1.596,0.006 1.888,0.014 z m -12.668,4.52 -0.292,0.698 -0.36,-0.078 -0.252,-0.416 -0.028,-0.176 0.732,-0.056 0.2,0.028 z m 2.43,1.964 -0.052,0.132 -0.32,-0.112 0.466,-0.48 0.304,-0.084 -0.01,0.368 -0.234,0.078 -0.154,0.098 z m -1.956,0.406 -0.264,0.178 -0.272,-0.084 -0.146,-0.16 0.022,-0.286 0.308,-0.404 0.276,0.052 0.076,0.704 z m 0.992,1.424 0,0.234 -0.238,-0.044 -0.07,-0.07 0.142,-0.422 0.208,-0.188 0.256,0.03 0.076,0.056 -0.05,0.162 -0.112,0.134 -0.212,0.108 z m -2.184,0.888 -0.45,0.084 -0.204,-0.282 -0.03,-0.11 0.234,-0.094 0.106,-0.004 0.178,-0.206 0.22,-0.136 0.098,-0.044 0.114,0.01 0.082,0.452 -0.108,0.19 -0.24,0.14 z m 1.226,-0.132 -0.052,0.158 -0.33,-0.024 0.074,-0.16 -0.072,-0.046 0.094,-0.48 0.05,-0.074 0.16,0.178 0.022,0.074 0.054,0.374 z" title="Guinea-Bissau" id="GW"></path></svg>