<svg xmlns="http://www.w3.org/2000/svg" width="27.55" height="41.15"><path d="m 23.56,16.86 -0.298,0.352 -0.054,0.226 -0.192,0.398 -0.15,0.216 0.218,0.496 0.248,0.022 0.096,0.064 0.062,0.096 -0.014,0.106 -0.096,0.094 -0.238,0.12 -0.226,0.286 0.022,0.316 -0.142,0.164 -0.456,0.088 -0.892,0 -0.436,0.022 -0.35,0.054 -0.23,0.204 -0.292,0.144 -0.23,0.032 -0.202,0.238 -0.202,0.336 0.068,0.232 0.208,0.306 0.122,0.314 -0.16,0.51 -0.176,0.394 -0.104,0.3 -0.142,0.576 -0.342,0.636 -0.244,0.36 0,0.394 0.124,0.556 0.698,0.812 0.232,0.388 0.19,0.622 0.63,0.49 0.398,0.396 -0.038,0.522 0.054,0.164 0.246,0.132 0.3,0.1 0.33,-0.008 0.296,-0.044 0.068,-0.074 0.684,-0.01 0.078,0.132 0.04,0.752 0.028,0.306 0.162,0.122 0.098,0.188 0.006,0.168 0.03,0.422 0.102,0.222 -0.016,0.448 0.07,0.166 0.19,0.112 0.238,0.322 0.09,0.04 0.046,0.114 0.204,0.458 0.104,0.138 0.072,0.02 0.032,0.16 0.148,0.428 0.1,0.106 0.19,0.314 0.078,0.344 0.252,0.388 0.258,0.272 0.116,0.282 0.33,0.622 0.32,0.438 0.432,0.114 0.362,0.062 0.226,0.168 0.222,0.182 -0.238,0.084 -0.214,0.112 -0.298,-0.086 -0.412,0.046 -0.428,0.124 -0.396,0.06 -0.746,-0.196 -0.226,-0.028 -0.156,-0.084 -0.308,-0.386 -0.148,-0.046 -0.396,0.18 -0.482,0.126 -0.236,-0.024 -0.278,0.13 -0.258,0.174 -0.492,0.754 -0.254,0.266 -0.272,0.122 -0.546,-0.004 -0.584,0.028 -0.438,0.182 -0.408,0.092 -0.204,0.012 -0.07,0.414 -0.094,0.192 -0.128,0.11 -0.318,0.032 -0.286,-0.014 -0.172,-0.172 -0.322,-0.086 -0.286,-0.062 -0.184,-0.098 -0.15,0.024 -0.124,0.172 -0.098,0.148 -0.086,0.272 -0.434,0.086 -0.186,0.154 0.108,0.506 -0.05,0.198 -0.09,0.154 -0.524,0.03 -0.446,-0.01 -0.256,0.186 -0.32,0.218 -0.194,0.04 -0.23,-0.012 -0.302,-0.254 -0.292,-0.31 -0.74,-0.218 -0.734,-0.18 -0.482,-0.494 -0.114,-0.242 -0.226,-0.108 -0.572,-0.586 -0.316,-0.376 -0.342,-0.102 -0.392,-0.156 0.016,-0.274 -0.026,-0.262 -0.17,-0.108 -0.236,-0.07 -0.086,-0.148 0.024,-0.344 0.046,-0.89 -0.066,-0.85 -0.526,-0.294 -0.228,-0.202 -0.4,-1.258 -0.188,-0.566 -0.008,-0.422 0.132,-1.256 0.15,-0.544 0.408,-1.09 0.234,-0.37 0.014,-0.276 -0.024,-0.354 -0.12,-0.7 0.688,-0.442 0.296,-0.186 0.05,-0.296 0.368,-0.374 0.164,-0.356 0.136,-0.28 -0.038,-0.148 -0.16,-0.086 -0.19,-0.266 -0.398,-0.768 -0.144,-0.156 -0.122,-0.216 0.062,-0.338 0.156,-0.37 -0.02,-0.154 -0.238,-0.198 -0.492,-0.332 -0.408,-0.024 -0.316,-0.12 -0.464,-0.016 -0.37,-0.036 -0.212,-0.124 0.044,-0.204 0.092,-0.156 0.312,-0.388 0.208,-0.412 0.028,-0.404 0.064,-0.53 0.09,-0.462 0.048,-0.52 -0.49,-0.342 -0.156,-0.282 -0.202,-0.25 -0.224,0 -0.336,-0.106 -0.524,0.328 -0.414,-0.06 -0.284,0.124 -0.656,-0.026 -0.422,-0.16 -0.508,0.106 -1.19,-1.318 -1.196,-1.326 -1.178,-1.304 -0.078,-0.178 0.492,-0.622 0.44,-0.446 0.366,-0.254 0.174,-0.222 -0.134,-0.96 0.008,-0.344 -0.172,-0.376 -0.122,-0.42 0.146,-0.352 0.178,-0.244 0.23,-0.096 0.548,-0.084 0.388,-0.036 0.138,-0.14 0.224,-0.162 0.296,-0.01 0.576,0.114 0.264,-0.212 0.478,-0.288 1.072,-0.494 0.24,-0.324 0.168,-0.5 -0.018,-0.238 -0.11,-0.088 -0.266,-0.082 -0.408,-0.012 -0.326,0.13 -0.338,-0.072 -0.28,-0.308 -0.016,-0.256 0.166,-0.36 -0.096,-0.24 -0.536,-0.76 0.002,-0.21 0.39,-0.342 0.22,-0.29 0.302,-0.696 0.24,-0.232 0.746,-0.082 0.19,-0.148 0.38,-0.368 0.568,-0.42 0.816,-0.336 0.234,-0.61 0.146,-0.168 0.65,-0.32 0.114,-0.172 -0.016,-0.152 -1.044,-1.37 0.208,0.092 0.808,0.896 0.448,0.194 0.094,0.004 0.004,-0.232 0.412,0.096 1.06,0.614 1.554,1.01 2.182,1.908 0.62,0.726 0.418,0.342 0.648,0.832 0.19,0.404 -0.018,1.618 -0.576,1.092 -0.14,0.822 -0.03,1.094 -0.334,0.626 0.442,-0.34 0.138,-0.986 0.378,-0.6 0.49,-0.658 0.654,-0.158 0.704,0.28 0.568,0.05 0.5,0.194 1.064,1.052 1.04,0.832 0.38,0.666 1.102,0.334 0.652,0.526 0.21,0.456 0.128,1.188 -0.212,1.796 z" title="Guyana" id="GY"></path></svg>