<svg xmlns="http://www.w3.org/2000/svg" width="2.79" height="2.23"><path d="m 2.4,0.14 0.02,0.026 0.122,0.226 -0.038,0.252 0.228,0.122 0.056,0.25 -0.252,0.134 -0.014,0.292 -0.112,0.18 -0.724,-0.32 -0.596,-0.166 -0.538,0.066 -0.196,-0.188 -0.034,-0.194 0.62,-0.336 0.048,-0.168 0.016,-0.014 0.18,-0.172 0.268,-0.05 0.14,-0.084 0.366,0 0.224,0.066 0.216,0.078 z m -1.506,1.996 -0.676,0 -0.144,-0.06 -0.072,-0.128 0.24,-0.232 0.912,-0.32 -0.228,0.336 -0.032,0.404 z m 1.314,0 -0.138,0.092 -0.384,-0.44 -0.024,-0.144 0.296,-0.026 0.334,0.2 -0.02,0.182 -0.064,0.136 z" title="Hong Kong" id="HK"></path></svg>