<svg xmlns="http://www.w3.org/2000/svg" width="34.82" height="20.39"><path d="m 19.6,0.3 -0.428,0.336 -0.078,-0.152 0.206,-0.312 0.258,-0.178 0.25,0.018 -0.06,0.134 -0.148,0.154 z m -3.082,0.484 -0.9,0.454 -0.282,-0.008 0.412,-0.35 0.666,-0.3 0.564,-0.148 0.462,0.064 -0.922,0.288 z m 18.312,8.026 -1.446,-0.086 -0.682,0.178 -0.298,0.402 -0.256,0.18 -0.214,-0.042 -0.434,0.158 -0.654,0.356 -0.588,0.134 -0.526,-0.086 -0.152,0.086 -0.042,0.118 -0.08,0.114 -0.204,0.06 -0.234,-0.032 -0.262,-0.126 -0.138,0.054 -0.016,0.232 -0.142,0.062 -0.268,-0.11 -0.302,0.084 -0.336,0.278 -0.472,0.058 -0.608,-0.16 -0.47,-0.302 -0.334,-0.444 -0.4,-0.112 -0.7,0.33 -0.292,0.386 -0.064,0.236 0.068,0.214 -0.128,0.142 -0.326,0.072 -0.248,0.262 -0.168,0.452 -0.034,0.35 0.102,0.246 -0.162,0.18 -0.426,0.116 -0.502,0.39 -0.58,0.664 -0.576,0.462 -0.574,0.262 -0.276,0.292 0.02,0.32 -0.036,0.1 -0.11,0.038 -0.186,0.044 -1.106,-0.696 -0.318,-0.486 -0.274,0.074 -0.348,0.246 -0.49,0.546 -0.524,0.744 -0.254,0.084 -1.31,-0.112 -0.692,0.066 -0.142,0.098 -0.064,0.272 0.04,0.364 0.19,1.308 0.106,0.538 -0.104,0.166 -0.352,0.026 -0.458,0.076 -0.25,0.246 -0.06,0.254 -0.024,0.354 -0.144,0.366 -0.282,0.262 -0.28,0.094 -1.562,0.07 0.028,-0.604 -0.45,-0.246 -0.256,-0.504 -0.224,-0.34 0.074,-0.204 -0.022,-0.242 -0.636,-0.188 -0.594,0.146 -0.342,-0.096 -0.252,-0.128 0.434,-0.298 0.03,-0.182 -0.14,-0.13 -0.142,-0.088 0.042,-0.338 0.088,-0.4 0.244,-0.934 -0.09,-0.164 -0.398,-0.282 -0.504,-0.028 -0.556,0.088 -0.268,-0.144 -0.234,-0.322 -0.396,-0.154 -0.702,0.256 -0.744,0.386 -0.228,0.14 -0.188,-0.018 -0.084,-0.29 -0.038,-0.342 -0.046,-0.084 -0.396,-0.122 -0.462,-0.088 -0.236,-0.094 -0.222,-0.232 -0.554,-0.302 -0.126,-0.224 -0.74,-0.512 -0.15,-0.254 -0.17,-0.186 -0.356,-0.236 -0.278,0.056 -0.938,-0.294 -0.142,-0.026 0.13,-0.258 0.296,-0.398 0.644,-0.444 0.054,-0.36 -0.168,-0.688 -0.17,-0.446 0.092,-0.2 0.202,-0.804 0.156,-0.186 0.932,-0.408 0.086,-0.056 0.736,-0.57 0.816,-0.632 0.848,-0.698 0.948,-0.782 0.522,-0.458 0.242,-0.198 0.546,0.162 0.43,-0.37 0.248,-0.124 0.582,-0.442 0.18,-0.096 0.972,-0.182 0.47,0.004 0.412,0.45 0.326,0.246 0.614,-0.21 0.514,-0.046 2.126,0.418 0.844,-0.184 1.55,-0.04 0.698,0.104 0.984,-0.59 0.632,-0.12 0.742,-0.276 -0.098,-0.284 -0.178,-0.128 1.132,0.124 1.686,0.6 1.796,-0.108 0.648,-0.324 0.418,-0.092 1.84,0.616 0.484,0.474 0.378,0.046 0.294,-0.108 0.08,-0.098 -0.362,-0.104 -0.166,-0.148 1.45,0.292 2.728,2.234 0.056,0.182 -1.166,-0.66 -0.616,0.05 -0.162,0.106 0.036,0.36 0.056,0.168 0.264,0.02 0.196,-0.098 0.482,0.118 0.32,0.24 0.386,0.368 0.232,0.398 0.25,0.006 0.246,-0.24 0.464,-0.03 0.3,0.268 0.214,-0.016 -0.298,-0.416 -0.702,-0.414 0.166,-0.018 1.556,0.742 0.44,0.932 0.366,0.21 0.37,0.29 z" title="Honduras" id="HN"></path></svg>