<svg xmlns="http://www.w3.org/2000/svg" width="33.04" height="32.18"><path d="m 16.84,0.28 0.302,0.122 1,0.556 0.692,0.626 0.384,0.694 0.52,0.536 0.656,0.38 0.52,0.514 0.384,0.648 0.538,0.364 0.69,0.078 0.436,0.222 0.184,0.366 0.376,0.33 0.566,0.296 0.878,0.162 1.684,0.04 0.15,0.008 0.38,0.092 0.444,-0.116 0.542,-0.23 0.174,-0.138 0.568,-0.756 0.314,0.066 0.624,-0.092 0.378,-0.168 0.028,0 -0.024,0.194 -0.042,0.338 -0.306,0.238 0.31,0.55 0.296,0.892 -0.166,0.44 0.202,0.342 0.568,0.246 0.052,0.098 -0.174,0.102 -0.144,0.29 -0.016,0.528 0.496,0.5 1.008,0.468 0.322,0.078 0.124,0.18 0.168,0.118 0.1,0.144 0.006,0.186 -0.074,0.128 -0.478,0.044 -0.544,-0.004 -0.388,-0.226 -0.036,0.166 -0.006,0.188 -0.376,0.114 0.208,1.294 -0.084,0.372 -0.138,0.126 -0.128,-0.052 -0.158,-0.014 -0.078,0.122 0.066,0.276 -0.37,0.032 -0.588,-0.142 -0.27,-0.25 -0.046,-0.254 -0.004,-0.238 -0.188,-0.39 -0.468,-0.404 -0.978,-0.066 -0.362,-0.128 -0.374,-0.146 -0.408,-0.11 -0.376,0.01 -0.454,0.108 -0.792,-0.178 -0.268,0.238 -0.416,0.274 -0.346,-0.006 -0.688,-0.636 -0.206,-0.04 -0.602,0.324 -0.246,0.018 -0.188,-0.102 -0.814,-0.244 -0.368,-0.052 -0.27,0.116 -0.478,-0.124 -1.16,-0.834 -0.718,0.634 -1.46,-0.158 -0.434,0.434 -0.496,0.822 -0.402,0.392 -0.35,-0.14 -0.414,-0.362 -0.724,-0.93 -0.366,-0.168 -0.42,-0.04 -0.366,0.104 -0.196,0.188 -0.15,1.358 -0.132,1.194 -0.008,0.714 0.804,0.66 0.95,1.134 0.304,0.13 0.152,0.37 0.222,0.954 0.25,1.07 0.482,0.708 0.434,0.504 0.53,0.444 0.666,0.694 0.544,0.762 0.144,0.28 1.058,1.004 1.026,1.022 0.916,0.358 0.144,0.188 0.008,0.784 0.1,0.294 0.612,0.82 1.25,1.198 0.144,0.276 0.042,0.204 -0.08,0.156 -0.328,0.164 -0.268,-0.182 -1.164,-1.168 -1.126,-0.738 -1.27,-1.392 -1.7,-0.552 -1.158,-0.612 -0.702,0.092 -0.774,0.192 -0.478,0.006 -0.34,-0.11 -0.24,-0.38 0.036,-0.294 -0.042,-0.382 -0.678,-0.614 -0.926,-0.584 -0.876,-0.756 -1.76,-2.048 -0.354,-0.662 0.346,-0.126 0.262,0.012 0.296,-0.136 0.48,-0.002 0.568,0.134 -0.502,-0.44 -0.626,-0.432 -1.62,-1.72 -0.484,-0.816 -0.056,-0.88 0.12,-1.208 -0.292,-0.868 -1.25,-1.126 -0.458,-0.594 -0.922,-0.354 -0.414,0.034 -0.248,0.44 -0.18,0.976 -0.818,1.284 -0.272,0.556 -0.428,0.722 -0.372,0.05 -0.218,-0.064 -0.664,-1.216 -0.634,-0.924 -0.088,-0.438 -0.058,-0.54 -0.484,-1.994 0.34,-0.28 0.21,0.32 1.478,0.386 0.32,-0.17 0.194,-0.262 0,-0.166 0.126,-0.048 0.52,0.252 0.424,-0.058 0.684,-0.012 0.488,0.042 0.324,-0.194 0.436,-0.714 0.162,-0.4 0.196,-0.096 0.128,0.048 0.094,0.33 0.23,0.308 0.472,0.502 0.334,0.242 0.302,0.086 0.296,-0.202 0.306,-0.058 0.876,0.392 0.74,0.074 0.546,-0.204 -0.072,-0.282 -0.2,-0.314 -0.042,-0.304 0.036,-0.264 0.376,-0.262 -0.018,-0.116 -0.454,-0.462 0.022,-0.12 0.994,-0.522 0.958,-0.292 0.154,-0.226 0.088,-0.34 0.042,-0.638 -0.052,-0.522 -0.388,-0.49 -0.024,-0.248 0.092,-0.258 0.152,-0.234 0.384,-0.1 0.45,-0.168 0.356,-0.194 0.48,-0.16 0.378,-0.224 0.37,-0.534 0.224,-0.088 0.678,0.076 0.146,-0.132 -0.094,-0.768 0.122,-0.196 0.24,-0.11 0.112,-0.108 0.598,0.084 0.514,0.19 z m -9.574,12.208 -0.692,0.17 -0.33,-0.304 -0.086,-0.25 -0.57,-0.08 -0.344,-0.346 -0.07,-0.154 0.488,-0.382 0.26,-0.618 0.33,0.372 0.4,0.698 0.214,0.194 0.4,0.7 z m -1.81,2.5 -0.044,0.304 -0.34,-0.386 -0.172,-0.692 -0.43,-1.122 -0.056,-0.316 0.222,-0.312 -0.012,-0.318 -0.304,-0.988 0.254,-0.162 0.152,-0.02 0.062,0.686 0.138,0.394 0.414,0.484 -0.084,0.798 0.084,1.134 0.084,0.252 0.032,0.264 z m 1.928,-0.778 0.142,0.348 -0.528,-0.314 -0.474,-0.12 -0.1,-0.236 0.068,-0.194 0.102,-0.188 0.358,0.026 0.054,0.184 0.378,0.494 z m 2.004,3.322 -0.144,0.208 -0.364,-0.382 -0.334,-0.272 -0.238,-0.324 -0.468,-0.404 -0.158,-0.462 -0.698,-0.944 -0.104,-0.256 0.348,0.382 0.29,0.24 0.24,0.058 0.608,0.602 0.598,0.772 0.712,0.67 -0.148,0.02 -0.14,0.092 z m 0.002,3.222 0.08,0.114 -0.008,0.078 -0.292,-0.11 -0.078,0.036 -1.374,-1.698 -0.148,-0.332 0.492,0.396 1.328,1.516 z m 0.236,-1.088 0.088,0.274 -0.7,-0.516 -0.266,-0.346 -0.048,-0.156 0.926,0.744 z m 0.788,0.688 0.37,0.578 -0.354,-0.12 -0.368,-0.356 -0.216,-0.388 0.568,0.286 z m 7.936,5.432 -0.886,0.02 -0.77,-0.14 -0.376,-0.238 0.028,-0.202 0.116,-0.336 0.858,0.04 1.306,0.238 0.32,0.278 -0.1,0.128 -0.496,0.212 z m 2.294,1.112 -0.392,0.08 -2.498,-0.06 -0.726,-0.16 -0.808,-0.41 -0.164,-0.126 0.812,-0.12 0.756,0.12 0.232,0.298 2.042,0.238 0.746,0.14 z m 2.658,1.75 0.408,-0.14 0.346,0.102 0.22,0.436 0.434,0.288 0.706,0.504 0.446,0.386 1.01,0.692 0.24,0.096 0.504,0.206 0.01,0.28 0.216,0.318 0.228,0.366 -1.036,-0.72 -0.966,-0.806 -1.89,-1.244 -1.34,-0.302 -1.834,-1.002 -1.194,-0.356 0.456,-0.082 0.524,-0.002 2.828,1.338 -0.316,-0.358 z m -5.706,-0.76 1.038,0.214 0.76,-0.098 0.688,0.132 0.428,0.242 0.102,0.12 -0.554,0.016 -0.628,-0.098 -0.712,0.246 -0.628,-0.13 -0.238,-0.162 -0.168,-0.2 -0.088,-0.282 z m 5.372,1.736 0.766,0.522 -2.246,-0.686 0.254,-0.062 0.238,-0.014 0.988,0.24 z" title="Croatia" id="HR"></path></svg>