<svg xmlns="http://www.w3.org/2000/svg" width="15.90" height="12.13"><path d="m 10.18,0.34 0.228,0.138 -0.086,0.168 -0.566,-0.104 -0.586,-0.19 -0.192,0.046 -0.118,-0.024 -0.342,-0.182 0.3,-0.14 0.31,-0.046 0.34,0.01 0.712,0.324 z m 4.966,1.894 0.124,0.176 0.258,1.194 0.026,0.382 -0.26,0.576 0.038,0.228 0.558,0.532 0.01,0.192 -0.066,0.194 -0.476,0.504 -0.366,0.344 0.116,0.396 0.296,0.376 0.038,0.314 -0.09,0.414 -0.454,0.514 -0.238,0.184 -0.676,0.022 -0.076,0.074 0.336,0.502 0.38,0.568 0.622,0.44 0.138,0.414 -0.15,0.392 -0.026,0.968 -0.476,-0.47 -0.522,-0.392 -0.314,-0.152 -0.326,-0.098 -2.49,0.05 -0.28,0.068 -0.216,0.126 -0.232,0.062 -0.684,0.118 -0.68,0.026 -1.59,-0.316 -0.63,-0.164 -0.634,-0.104 -0.728,0.034 -0.724,0.096 -0.58,0.228 -0.434,0.402 -0.082,0.374 -0.256,0.096 -0.586,-0.594 -0.54,-0.422 -0.614,-0.318 -1.258,-0.454 -0.23,-0.276 -0.102,-0.334 0.508,-1.028 0.578,-0.188 0.318,-0.036 0.714,0.126 0.698,0.234 0.636,0.152 0.986,0.06 0.536,0.252 3.786,0.392 0.718,0.124 0.28,-0.042 0.244,-0.154 0.204,-0.278 0.234,-0.208 1.122,-0.046 0.236,-0.094 0.164,-0.29 -0.004,-0.302 -0.66,-0.404 -1.032,-0.888 -0.908,-1.046 0.392,-0.354 -0.15,-0.646 0.148,-0.598 0.216,-0.586 -0.9,-0.502 -1.064,-0.502 -1.474,-0.158 -0.454,-0.126 -0.236,-0.376 0.212,-0.504 0.478,-0.28 0.548,-0.172 0.562,-0.12 1.354,-0.144 1.344,0.162 1.162,0.52 1.18,0.408 1.49,0.136 0.67,0.148 0.31,-0.128 z m -5.754,5.558 -0.098,0.416 -1.436,-0.494 -1.164,-0.624 0.05,-0.338 0.594,-0.078 0.57,0.208 0.842,0.416 0.642,0.494 z" title="Haiti" id="HT"></path></svg>