<svg xmlns="http://www.w3.org/2000/svg" width="9.36" height="25.90"><path d="m 8.66,4.64 -0.296,0.04 -0.692,0.31 -0.094,0.094 -0.122,0.18 -0.022,0.138 -0.098,1.488 -0.376,-0.042 -0.458,-0.324 -0.09,-0.28 -0.138,-0.096 -0.328,-0.036 -0.62,-0.142 -0.72,0.49 -0.306,0.808 -0.062,0.378 -0.244,0.792 0.086,0.488 0.042,0.63 0.062,0.514 -0.064,0.31 -0.138,0.164 0.04,0.118 0.124,0.044 0.394,-0.14 0.414,0.14 0.398,0.266 0.032,0.172 -0.282,0.102 -0.666,0.402 -0.47,0.466 -0.122,0.43 -0.318,0.916 0.044,0.188 0.154,0.11 1.084,-0.098 0.986,-0.37 0.742,-0.394 0.234,0.024 -0.156,1.008 0.004,0.004 -0.128,0.616 0.05,0.104 0.168,0.536 -0.318,0.978 -0.352,0.796 -0.124,0.376 -0.344,0.838 -0.352,0.97 -0.188,0.668 0.042,0.236 -0.086,1.222 0.05,0.346 -0.412,1.058 -0.082,0.522 -0.166,0.706 -0.284,1.492 -0.388,0.5 -0.192,-0.556 -0.444,-1.596 -0.314,-1.096 -0.43,-1.35 -0.724,-1.648 -0.066,-0.398 -0.156,-0.576 -0.498,-1.504 -0.408,-1.088 -0.466,-1.392 0.578,-0.552 0.01,-0.456 0.984,-1.068 -0.008,-0.104 -0.262,-0.284 0.038,-0.048 1.09,-1.994 0.704,-1.98 0.662,-2.766 0.472,-1.41 0.4,-0.936 0.176,-0.776 0.644,-0.054 0.48,0.082 0.576,0.026 0.46,-0.292 0.22,-0.874 0.262,-0.142 0.134,0.208 0.136,-0.23 0.602,-0.386 0.298,-0.248 0.298,-0.306 0.16,-0.11 -0.1,0.41 -0.08,0.268 0,0.35 0.122,0.192 0.166,0.38 0.102,0.38 -0.216,0.314 0.02,0.328 0.058,0.276 0.176,0.322 -0.316,0.58 -0.312,0.532 z" title="Israel" id="IL"></path></svg>