<svg xmlns="http://www.w3.org/2000/svg" width="61.29" height="41.38"><path d="m 50.14,4.16 0.644,0.052 1.052,-0.478 0.44,-0.314 1.082,-1.09 0.638,-0.304 0.986,0.076 0.474,-0.076 0.012,0.106 -0.606,0.442 -0.484,0.152 -0.696,0.658 -0.662,1.48 -0.49,0.724 0.004,0.322 0.596,0.57 0.654,0.322 0.6,-0.292 0.262,0.114 0.236,0.422 0.134,0.418 0.03,0.414 -0.108,0.864 -0.36,0.866 -0.488,0.724 0.068,0.228 0.392,0.116 1.858,-0.468 0.194,0.034 0.106,0.234 0.022,0.432 0.102,0.39 0.184,0.35 -0.058,0.356 -0.814,1.126 0.962,-0.708 0.758,-0.2 1.3,0.356 0.532,0.408 0.31,0.718 0.45,-0.238 0.196,0.014 0.294,0.408 0.01,0.436 -0.216,0.618 -0.074,0.572 -0.226,0.234 -0.422,0.17 -0.12,0.19 0.186,0.434 0.274,0.424 0.388,0.018 0.07,0.196 0.008,0.234 -0.052,0.276 -0.126,0.188 -0.202,0.104 -0.266,0.302 0.976,0.66 0.124,0.246 0.014,0.358 -0.076,0.394 -0.166,0.428 -0.294,0.252 -0.704,0.042 -0.432,0.278 0.148,0.46 -0.012,0.582 -0.13,0.686 -0.554,1.034 -0.52,0.55 -0.51,0.356 -0.908,-0.126 -0.494,-0.274 0.054,0.89 -0.504,0.546 0.094,0.456 0.176,0.232 -0.086,0.584 -0.24,0.578 -0.402,0.624 -0.456,0.39 -0.906,0.47 -0.774,0.778 -0.528,0.308 -1.316,-0.014 -1.342,0.5 -1.896,1.052 -1.278,0.84 -0.986,0.95 -1.302,1.544 -0.966,0.648 -0.558,0.174 -1.086,0.138 -0.91,0.418 -3.022,0.78 -1.022,0.426 -0.132,0.386 -0.424,0.582 -0.026,0.21 0.184,0.162 0.036,0.21 -0.374,0.686 -0.748,0.494 -0.352,-0.008 -0.428,-0.426 -0.186,0.016 -0.074,0.066 -0.004,0.132 0.246,0.512 -0.452,0.236 -1.968,0.596 -3.35,-0.44 -1.326,-0.458 -1.638,-0.732 -0.974,-0.194 -1.382,-0.048 -1.136,-1.024 -0.526,-0.634 -0.042,-0.264 0.06,-0.302 0.118,-0.206 0.176,-0.11 0.374,-0.012 0.05,-0.09 -0.286,-0.51 -0.274,0.166 -0.73,0.72 -0.326,-0.026 -0.428,-0.36 -0.016,-0.35 -0.834,-0.134 -0.726,-0.438 -0.722,-0.63 -0.108,-0.24 0.348,-0.354 -0.068,-0.068 -0.262,-0.06 -0.526,0.116 -0.794,0.798 -0.342,0.184 -5.186,0.186 -1.316,0.082 -0.254,0.122 -0.228,-0.518 -0.204,-1.16 -0.076,-0.766 0.052,-0.372 0.182,-0.446 0.282,0.076 0.268,0.354 0.244,0.502 0.278,0.244 1.81,-0.612 0.736,-0.412 0.312,-0.39 0.368,-0.668 0.39,-0.342 0.186,-0.322 0.366,-1.026 0.252,-0.476 0.304,-0.354 0.352,-0.228 0.8,-0.162 -0.526,-0.242 -0.504,0 -1.708,1.086 -0.574,0 0.024,-0.17 0.242,-0.306 0.588,-0.53 -0.404,-0.04 -0.154,-0.24 -0.018,-0.506 0.3,-0.818 1.392,-1.08 0.482,-0.16 0.146,-0.214 -0.182,-0.174 -0.292,-0.106 -1.4,1.114 -1.02,0.384 -0.302,-0.074 -0.528,-0.43 -0.17,-0.194 -0.228,-0.494 0.028,-0.298 0.484,-0.876 -0.078,-0.17 -0.334,-0.086 -0.898,-0.808 -1.42,0.082 -3.518,-0.47 -0.728,0.2 -1.198,0.694 -0.724,0.228 -0.334,-0.15 -0.304,-0.368 -0.276,-0.494 -0.248,-0.626 0.106,-0.434 0.464,-0.248 0.34,-0.118 0.958,0.15 1.168,-0.438 0.744,-0.092 0.214,-0.07 0.438,-0.466 0.216,-0.118 0.336,0.164 0.164,0.316 1.174,-0.492 0.404,-0.246 0.046,-0.154 0.176,-0.176 0.584,0.266 0.474,0.008 0.59,-0.184 1.044,-0.08 2.338,-0.042 0.35,-0.402 0.164,-0.356 0.206,-0.906 -0.092,-0.186 -1.458,0.834 -0.334,-0.014 -1.69,-0.442 -0.61,-0.5 0.2,-0.402 0.896,-0.868 0.924,-0.696 1.36,-0.756 0.318,-0.294 0.034,-0.35 -0.908,-0.622 -1.714,0.172 -0.44,-0.738 -1.426,-0.438 -0.948,0.274 -0.504,-0.448 -1.232,0.62 -2.708,0.894 -1.078,0.618 -0.58,0.206 -0.668,-0.504 -1.152,-0.57 -1.296,-0.178 -0.116,-0.336 0.756,-1.03 0.518,-0.188 0.52,0.096 0.994,0.718 0.686,0.226 -0.86,-1.056 0.022,-0.406 -0.066,-0.61 -0.264,-0.262 -0.264,-0.676 0.108,-0.228 0.338,-0.082 0.692,0.23 1.646,1.172 0.808,-0.208 0.442,-0.432 0.606,-0.32 -0.172,-0.166 -1.422,-0.02 -0.762,-0.24 -0.384,-0.344 -0.334,-0.586 0.118,-0.27 0.396,-0.216 1.214,0.064 -0.8,-1.022 -0.556,-0.588 -0.06,-0.284 0.038,-0.356 0.074,-0.24 0.114,-0.12 1.392,0.6 0.306,0.024 -0.282,-0.386 -0.612,-0.57 -0.026,-0.214 0.258,-0.174 0.126,-0.326 0.012,-0.268 0.422,-0.232 0.428,-0.01 0.43,0.212 1.332,1.112 0.19,0.312 0.064,0.41 -0.066,0.51 0.056,0.204 0.52,-0.174 0.416,0.214 0.206,-0.058 0.518,-0.766 0.356,0.182 0.214,0.358 0.068,0.324 0.032,0.444 -0.092,0.924 0.024,0.13 0.362,-0.522 0.616,-0.04 0.08,-0.262 0.018,-0.972 -0.05,-0.824 -0.068,-0.168 -2.028,-1.144 -0.352,-0.272 -0.442,-0.564 0.09,-0.284 0.396,-0.254 0.594,-0.102 1.382,0.014 0.14,-0.12 -0.268,-0.298 -0.638,-0.192 -0.15,-0.174 -0.076,-0.332 -0.758,0.182 -0.846,0.008 -0.814,-0.204 -0.016,-0.258 0.32,-0.38 0.666,-0.63 0.308,-0.158 0.93,0.11 0.922,-0.178 0.748,0.216 0.594,0.624 0.842,1.096 1.14,0.698 0.106,0.22 0.606,0.57 1.208,1.532 1.226,0.886 0.056,0.226 -0.202,0.264 -0.472,0.31 0.108,0.17 0.616,0.226 0.444,0.596 0.03,0.26 -0.402,1.84 -0.214,0.39 -0.244,0.206 -1.132,-0.346 0.268,0.584 0.81,0.62 0.182,0.346 -0.12,0.34 0.088,0.078 0.296,-0.182 0.124,0.192 -0.052,0.566 -0.126,0.47 -0.202,0.372 0.06,0.162 0.316,-0.05 0.296,0.096 0.464,0.514 0.376,1.566 0.186,0.504 0.136,-0.448 0.168,-1.142 0.158,-0.584 0.15,-0.026 0.128,-0.192 0.108,-0.36 0.22,-1.272 0.76,-0.966 0.362,-0.298 0.342,-0.064 0.164,0.12 0.57,1.014 0.346,0.17 0.176,-0.054 0.244,-0.69 0.308,-1.324 0.07,-1.484 -0.166,-1.646 0.096,-1.18 0.362,-0.706 0.474,-0.218 0.59,0.272 0.43,0.432 0.848,1.64 0.686,0.858 0.588,0.916 0.304,0.298 0.584,0.15 0.156,-0.06 0.104,-0.21 0.054,-0.364 -0.126,-2.342 0.164,-0.73 0.248,-0.522 1.052,-0.306 0.574,-0.328 0.558,-0.538 0.462,-0.29 0.368,-0.038 0.382,0.21 0.402,0.458 0.624,0.892 0.786,1.474 1,1.096 0.522,1.736 0.112,0.292 0.124,0.034 0.132,-0.226 0.084,-0.318 0.024,-0.772 -0.28,-1.024 -0.934,-2.594 -0.016,-0.494 0.118,-0.396 0.658,-0.044 1.532,0.24 0.488,0.404 1.042,1.588 0.292,0.384 0.178,0.096 0.066,-0.192 0.404,-0.294 0.278,-0.356 0.466,-0.876 1.018,-1.58 0.212,-0.046 0.296,0.124 0.522,0.414 0.248,0.332 0.49,0.252 0.502,-0.088 0.694,-0.554 0.786,-0.34 0.268,-0.786 0.05,-0.36 -0.632,-2.354 0.266,-0.484 1.37,-0.586 1.198,-0.046 0.284,0.162 0.754,1.15 0.512,0.576 0.258,0.462 0.062,1.018 0.31,0.374 z" title="Iceland" id="IS"></path></svg>