<svg xmlns="http://www.w3.org/2000/svg" width="11.95" height="4.74"><path d="m 6.06,0.38 0.684,0.21 0.708,0.11 0.304,0.006 0.286,0.068 0.646,0.506 0.52,0.276 1.97,0.618 0.656,1.066 0.124,0.334 -0.508,0.196 -0.642,0.07 -0.612,0.01 -0.566,-0.202 -0.246,-0.156 -0.59,-0.076 0.148,-0.144 -0.262,-0.066 -0.328,0.014 -0.242,0.41 -0.268,0.324 -0.516,-0.032 -0.198,-0.276 -0.27,0.124 -0.22,0.204 -0.26,0.764 -0.422,-0.38 -0.458,-0.316 -0.574,-0.132 -1.16,-0.022 -0.548,-0.102 -0.456,-0.646 -0.18,-0.184 -0.458,-0.168 -0.456,-0.742 -0.164,-0.102 -1.238,-0.158 -0.254,-0.406 0.076,-0.368 0.412,-0.45 0.202,-0.128 0.684,0.02 0.654,-0.136 0.288,-0.192 0.3,-0.128 2.368,0.326 0.546,0.002 z" title="Jamaica" id="JM"></path></svg>