<svg xmlns="http://www.w3.org/2000/svg" width="24.37" height="27.34"><path d="m 23.54,8.28 -0.832,0.77 -0.196,0.084 -1.082,0.318 -2.212,0.652 -1.482,0.436 -1.896,0.556 -1.574,0.464 -1.558,0.456 -1.444,0.424 0.824,0.892 1.258,1.362 0.84,0.906 0.99,1.164 0.884,1.038 0.938,1.098 -0.658,0.372 -1.084,0.612 -0.11,0.112 -0.094,0.114 -0.448,1.09 -0.352,0.858 -0.122,0.106 -1.512,0.316 -1.53,0.316 -0.964,0.202 -0.29,0.22 -0.628,1.066 -0.65,1.096 -1.084,0.896 -1.204,0.992 -0.298,0.064 -0.87,-0.152 -1.488,-0.26 -1.438,-0.252 -0.984,-0.17 -1.194,-0.21 0.174,-0.838 -0.048,-0.454 0.284,-1.492 0.166,-0.706 0.082,-0.522 0.412,-1.058 -0.05,-0.346 0.086,-1.222 -0.042,-0.236 0.188,-0.668 0.352,-0.97 0.344,-0.838 0.124,-0.376 0.352,-0.796 0.318,-0.978 -0.168,-0.536 -0.05,-0.104 0.128,-0.616 -0.004,-0.004 0.156,-1.008 0.084,-0.544 0.19,-0.722 0.336,-0.612 -0.156,-1.442 0.018,-0.78 0.21,-0.888 -0.116,-1.042 0.098,-1.488 0.022,-0.138 0.122,-0.18 0.094,-0.094 0.692,-0.31 0.296,-0.04 0.604,0.14 0.346,0.312 0.578,0.882 0.9,0.256 0.362,0.25 0.492,0.466 0.602,0.17 1.904,0.29 1.518,-0.98 1.284,-0.83 1.458,-0.944 0.992,-0.644 1.692,-1.098 1.116,-0.694 1.466,-0.918 1.448,-0.906 0.402,1.478 0.392,1.442 0.406,1.488 0.396,1.442 -0.428,0.138 0.336,1.102 0.554,-0.168 0.602,-0.13 0.254,0.708 z" title="Jordan" id="JO"></path></svg>