<svg xmlns="http://www.w3.org/2000/svg" width="44.83" height="56.87"><path d="m 44.82,8.48 -0.69,0.984 -0.828,1.18 -1.526,2.17 -1.16,1.142 -0.876,0.864 -0.082,0.156 0.004,0.962 0.01,2.352 0.018,4.702 0.018,4.7 0.018,4.7 0.008,2.35 0.004,0.79 0.77,0.988 0.752,0.966 0.994,1.276 0.534,0.684 0.088,0.228 -0.028,0.458 -0.818,0.958 -0.67,0.436 -0.902,0.208 -0.27,-0.04 -0.354,-0.136 -0.138,0.23 -0.104,0.358 -0.2,-0.076 -0.15,-0.106 0.09,0.636 0.092,0.314 -0.138,0.42 -0.438,0.37 -0.04,0.314 -0.948,0.82 -1.346,0.09 -0.708,0.408 -0.314,0.334 -0.24,0.73 0.084,1.118 -0.376,0.86 -0.07,0.432 -0.696,0.558 -0.308,0.512 -0.228,0.522 -0.198,0.228 -0.236,1.168 -0.324,0.71 -0.088,0.236 -0.08,0.212 -0.25,0.416 -0.164,0.288 -0.118,0.188 -0.82,1.82 -0.64,0.822 -0.502,-0.094 -0.334,0.318 -0.036,0.15 -0.178,-0.084 -0.418,-0.302 -0.862,-0.618 -0.862,-0.618 -0.862,-0.618 -0.862,-0.618 -0.862,-0.618 -0.862,-0.618 -0.862,-0.618 -0.862,-0.618 -0.506,-0.362 -0.222,-0.214 -0.176,-0.426 -0.084,-0.106 -0.23,-0.134 -0.27,-0.03 -0.078,-0.082 0.002,-0.206 0.092,-0.296 0.318,-0.566 0.034,-0.334 -0.062,-0.378 -0.098,-0.606 -0.086,-0.138 -0.572,-0.318 -1.196,-0.664 -1.196,-0.664 -1.196,-0.664 -1.198,-0.664 -1.196,-0.664 -1.196,-0.664 -1.196,-0.664 -1.196,-0.664 -1.198,-0.664 -1.196,-0.664 -1.198,-0.664 -1.196,-0.664 -1.196,-0.664 -1.196,-0.664 -1.196,-0.664 -1.198,-0.664 -0.45,-0.25 -0.404,-0.21 -0.428,0 -0.018,-0.95 0.136,-2.418 -0.016,-2.124 0.122,-1.064 0.528,-0.674 0.244,-0.49 0.174,-0.684 0.276,-0.558 0.626,-0.454 0.112,-0.25 0.664,-0.758 0.398,-0.974 0.3,-0.332 0.376,-0.306 0.264,-0.162 0.436,-0.162 0.342,-0.092 0.062,-0.078 0.03,-0.158 -0.114,-0.604 0.146,-0.198 0.232,-0.404 0.266,-0.376 0.24,-0.24 0.134,-0.246 0.062,-0.424 0.01,-0.302 -0.002,-0.492 -0.076,-1.118 -0.282,-0.936 -0.174,-1.048 0.128,-0.344 -0.222,-0.614 -0.11,-0.034 -0.18,-0.134 -0.232,-0.58 -0.174,-0.528 -0.108,-0.132 -0.752,-0.462 -0.374,-1.09 -0.42,-0.242 -0.228,-1.084 -0.044,-0.308 0.238,-1.082 -0.024,-0.248 -0.252,-0.228 -0.706,-0.234 -0.572,-0.446 0.074,-0.156 0.042,-0.162 -0.302,-0.108 -0.876,-1.85 1.126,-1.112 1.142,-1.126 1.458,-1.426 1.338,-1.31 1.156,-1.132 1.032,-1.01 -0.026,0.192 0.004,0.256 0.128,0.156 0.212,0.108 0.294,-0.114 0.258,-0.158 0.252,-0.034 1.55,0.42 0.26,0.366 -0.018,0.394 0.068,0.286 -0.12,0.288 -0.128,0.868 0.04,0.796 0.462,0.59 0.416,0.462 0.33,0.65 0.244,0.2 0.336,0.104 1.066,0.028 1.578,0.042 1.518,0.04 0.138,0.016 0.322,0.088 1.398,0.876 1.28,0.804 1.084,0.698 1.052,0.678 1.022,0.66 0.792,0.546 0.782,0.166 1.27,0.08 0.878,0.028 0.812,0.23 1.208,0.214 0.9,0.11 0.544,0.124 1.51,0.126 0.25,-0.074 0.666,-0.606 0.746,-0.986 0.292,-0.542 0.964,-0.54 1.694,-0.752 1.194,-0.532 1.328,-0.534 0.604,0.462 0.832,0.742 0.372,0.366 0.298,0.162 0.452,0.108 0.55,0.002 0.3,-0.016 0.614,-0.096 1.436,-0.088 0.844,0.024 z m -4.994,34.232 -0.208,0.048 0.108,-0.32 0.616,-0.41 0.25,0.092 0.048,0.092 -0.014,0.086 -0.104,0.084 -0.696,0.328 z" title="Kenya" id="KE"></path></svg>