<svg xmlns="http://www.w3.org/2000/svg" width="61.84" height="30.00"><path d="m 61.64,8 0.112,0.454 0.096,0.528 -0.06,0.124 -0.108,0.084 -1.72,0.13 -0.388,0.146 -0.416,0.728 -1.472,0.584 -0.84,0.3 -0.34,-0.012 -0.816,0.478 -2.278,1.19 -1.12,0.75 -0.562,0.314 -0.452,0.342 -0.076,0.346 -0.016,0.326 -1.25,1.53 -0.938,0.184 -0.792,-0.036 -0.54,0.232 -0.772,0.234 -1.672,-0.16 -0.57,0.026 -1.098,-0.21 -0.444,0.11 -0.468,0.31 -0.65,1.214 -0.264,0.284 -0.122,0.276 -0.1,0.588 -0.248,0.622 -0.318,0.49 -0.23,0.454 -0.47,0.438 -0.436,0.276 -0.338,-0.576 -0.292,0.164 -0.28,0.234 -0.528,-0.082 -0.326,0.118 -0.744,0.5 -1.092,-0.018 -0.12,-0.172 -0.216,-1.376 -0.19,-0.654 -0.158,-0.146 -0.196,-0.016 -1.57,1.084 -0.728,0.192 -0.598,0.034 -0.782,-0.324 -0.17,0.08 -0.134,0.174 -0.056,0.222 0.228,0.614 -0.064,0.12 -0.352,-0.01 -0.492,0.142 -0.376,0.282 -1.128,0.988 -0.95,0.33 -0.884,0.13 -0.362,0.11 -0.162,0.118 -0.296,0.47 -0.304,0.736 -0.158,0.358 -0.118,0.208 0.024,0.272 0.24,0.35 0.182,0.786 -0.042,0.204 -0.194,0.328 -0.28,0.322 -0.602,0.194 -0.472,0.098 -0.314,-0.064 -0.59,-0.022 -0.466,0.128 -0.288,0.22 -0.568,0.274 -0.706,0.092 -0.898,0.036 -0.432,-0.024 -1.304,-0.184 -0.43,0.064 -0.41,0.142 -0.744,0.15 -0.396,0.456 -0.208,0.418 -0.112,0.06 -0.464,-0.384 -0.354,-0.36 -0.232,-0.3 -0.292,0.008 -1.038,0.544 -0.154,-0.018 -0.296,-0.208 0.054,-0.514 -0.02,-0.328 -0.334,-0.174 -0.708,-0.044 -0.24,-0.186 0.014,-0.278 0.064,-0.266 -0.08,-0.206 -0.184,-0.156 -0.372,0.042 -0.426,0.212 -0.312,0.242 -0.392,0.114 -0.476,0.044 -0.296,0.146 -0.338,0.59 -1.154,0.124 -0.372,-0.134 -0.304,-0.418 -0.398,-0.676 -0.222,-0.084 -0.376,-0.084 -0.614,0.04 -0.826,0.284 -0.2,-0.234 -0.214,-0.068 -0.194,0.194 -0.198,-0.022 -0.816,0.054 -1.034,-0.026 -0.59,-0.132 -0.382,0.008 -0.76,0.302 -0.402,-0.002 -0.528,0.054 -0.098,-1.022 -0.288,-0.692 0.088,-0.48 0.192,-0.66 0.16,-0.372 0.326,0.158 0.374,0.272 0.248,-0.072 0.066,-0.224 -0.096,-0.294 -0.014,-0.22 0.14,-0.29 0.206,-0.27 1.32,-0.444 1.13,-0.324 0.588,0.216 1.138,0.496 0.586,0.256 0.408,0.15 0.358,0.726 0.234,-0.034 0.236,-0.146 0.14,-0.178 0.114,-0.618 0.53,-0.348 1.166,-0.412 0.082,-0.242 -0.018,-0.134 0.184,-0.118 0.584,-0.12 1.18,-0.114 0.4,0.086 0.458,0.244 0.354,0.242 0.336,-0.008 0.278,-0.05 0.12,0.068 0.088,0.214 0.144,0.192 0.452,-0.262 0.408,-0.338 0.322,-0.048 0.296,-0.128 0.086,-0.226 0.232,-0.376 0.666,-0.718 0.346,-0.116 0.224,0 0.012,0.116 0.108,0.106 0.582,0.166 0.178,-0.19 0.094,-0.262 -0.204,-0.416 -0.004,-0.174 0.076,-0.16 0.108,-0.096 0.93,0.396 0.206,-0.008 0.424,-0.222 0.388,-0.39 0.14,-0.308 1.902,-1 0.134,-0.182 -0.026,-0.132 -0.798,-0.234 -0.36,0.13 -0.332,0 -0.202,-0.148 -0.968,-0.056 -0.212,-0.104 -0.642,-0.724 -0.442,-0.276 -0.356,-0.182 -0.386,0.026 -0.46,0.19 -0.142,-0.086 -0.04,-0.304 0.002,-0.382 -0.094,-0.41 -0.274,-0.096 -0.354,0.162 -0.528,-0.166 -0.45,-0.06 -0.116,-0.866 -0.182,-0.37 -0.186,-0.388 -0.196,-0.112 -0.32,-0.194 -0.02,-0.458 -0.068,-0.13 -0.114,-0.062 -0.154,0.052 -0.198,0.232 0.098,0.506 -0.076,0.506 -0.116,0.254 -0.224,0.188 -0.256,0.004 -0.444,-0.256 -0.07,1.532 -0.086,0.094 -0.53,-0.216 -0.424,0.092 -0.632,-0.094 -0.474,-0.252 -0.356,-0.07 -0.574,-0.214 -0.438,-0.28 -0.27,-1.028 -0.256,-0.368 -0.242,-0.078 -0.978,0.356 -0.358,-0.276 -0.66,-0.352 -0.5,-0.132 -0.134,-0.19 0.022,-0.234 1.54,-1.15 0.606,-0.792 0.38,-0.336 0.544,-0.222 0.424,-0.13 0.216,-0.73 0.082,-0.084 0.302,-0.054 0.684,-0.3 1.102,-0.642 0.022,-0.176 -0.112,-0.152 -0.462,-0.33 -0.528,-0.262 -0.32,0.136 -0.182,0.134 -0.302,-0.34 0,-0.35 0.334,-0.6 0.28,-0.3 0.118,-0.58 0.396,-0.388 0.414,-0.616 0.502,-0.504 0.928,-0.378 0.518,0.124 0.486,-0.088 0.752,-0.306 0.144,-0.02 0.316,-0.004 1.936,0.468 0.64,0.022 1.5,0.608 0.69,0.132 0.488,0.172 0.22,0.262 0.352,0.322 1.884,0.26 0.518,0.172 0.186,0.282 0.538,0.358 0.458,0.082 -0.4,-1.4 0.16,-0.834 0.596,-2.286 0.312,-0.346 0.598,-0.306 0.94,-0.342 0.356,-0.478 0.77,0.048 0.334,-0.042 0.23,-0.086 0.126,-0.268 0.868,0.466 1.452,0.944 1.096,0.598 1.292,0.564 1.788,0.514 1.512,0.17 0.26,-0.122 0.606,-0.782 0.286,-0.034 0.516,0.068 1.604,0.036 1.634,0.038 0.77,-0.076 1.672,-0.326 0.246,-0.016 0.388,0.022 1,0.444 0.748,0.062 0.508,-0.002 0.296,0.036 0.62,-0.016 1.006,0.052 1.244,0.288 1.498,-0.052 0.48,-0.054 0.834,0.052 0.662,0.274 0.838,0.29 0.526,0.122 0.352,0.062 0.628,0.022 0.376,-0.09 0.214,0.126 0.212,0.708 0.52,0.464 0.406,0.438 0.34,0.484 0.346,0.198 0.61,0.006 1.15,0.138 0.66,0.192 0.844,0.834 0.768,0.848 z m -50.534,17.034 0.052,-0.104 -0.206,-0.534 0.278,-0.5 -0.55,-0.084 -0.282,-0.148 -0.316,-0.506 -0.104,-0.024 -0.164,0.138 -0.088,0.332 0.078,0.358 0.224,0.242 0.148,0.08 0.022,0.016 -0.006,0.118 -0.18,0.592 0.294,0.076 0.516,0.01 0.284,-0.062 z m 3.218,-0.42 0.056,-0.33 -0.136,0.016 -0.162,0.09 -0.31,0.09 -0.068,0.164 0.208,0.208 0.264,0.076 0.148,-0.314 z m -6.05,0.91 -0.02,-0.15 -0.192,-0.07 -0.544,-0.08 -0.388,-0.116 -0.084,-0.002 0.036,0.144 0.166,0.254 0.228,0.272 0.294,0.03 0.504,-0.282 z" title="Kyrgyzstan" id="KG"></path></svg>