<svg xmlns="http://www.w3.org/2000/svg" width="29.67" height="24.54"><path d="m 11.82,24.54 -0.92,-0.738 -1.826,-0.258 -0.198,-0.326 -0.176,-0.064 -0.168,0.424 -1.004,0.406 -0.42,-0.246 -0.306,-0.296 0.044,-0.364 0.292,-0.296 0.498,-0.212 0.23,-0.748 -0.38,-0.958 -0.332,-0.28 -0.352,-0.22 -0.37,0.356 -0.31,0.61 -0.324,0.314 -0.458,0.07 -0.67,-0.026 -0.26,-0.91 -0.086,-0.78 0.092,-0.892 0.102,-0.528 -0.644,-0.728 -0.038,-0.694 -0.31,-0.358 -0.092,0.182 0.008,0.2 -0.088,-0.144 -1.02,-2.04 -0.17,-0.946 0.176,-0.73 0.102,-0.244 -0.294,-0.384 -0.412,-0.436 -0.73,-0.572 -0.048,-0.906 -0.164,-1.068 -0.218,-0.362 -0.334,-0.658 -0.182,-0.546 -0.062,-1.444 0.094,-0.116 0.518,-0.042 0.664,-0.104 0.106,-0.232 -0.118,-0.194 0.424,-0.328 0.61,-0.718 0.47,-0.75 0.34,-0.474 0.202,-0.47 0.684,-0.666 0.946,-0.46 0.64,-0.108 0.668,-0.156 0.638,-0.224 0.304,-0.022 0.792,0.27 0.43,0.068 0.452,-0.004 0.466,0.03 0.406,-0.028 0.972,-0.188 1.034,0.15 0.922,-0.118 1.14,-0.218 0.56,0.138 0.51,0.218 0.07,0.442 0.12,0.202 0.17,0.156 0.226,0 0.292,-0.308 0.242,-0.318 0.08,-0.058 0.012,0.156 0.122,0.344 0.216,0.338 0.22,0.224 0.366,0.298 0.238,0.014 0.782,-0.282 1.168,0.41 0.136,0.206 0.378,0.416 0.408,0.298 0.912,0.02 0.324,-0.736 -0.156,-0.448 -0.52,-0.782 -0.142,-0.462 0.166,-0.082 0.88,-0.088 0.142,-0.09 0.194,-0.506 0.24,0.058 0.488,0.066 0.516,-0.346 0.306,-0.364 0.166,0.166 0.184,0.256 0.2,0.148 0.372,0.22 0.408,0.308 0.254,0.302 0.206,0.118 0.524,-0.084 0.14,0.012 0.302,-0.368 0.212,-0.2 0.182,0.056 0.264,-0.004 0.544,-0.468 0.312,-0.428 0.172,-0.118 0.488,0.214 0.196,-0.044 0.284,-0.588 0.304,-0.232 0.09,0.318 -0.236,0.602 -0.252,0.544 -0.47,0.476 -0.024,0.35 -0.162,1.042 0.062,0.332 0.11,0.284 0.154,0.152 0.408,1.02 0.374,0.926 0.368,0.76 0.064,0.48 -0.338,1.218 -0.392,1.118 0.034,0.556 0.17,0.556 0.18,0.742 0.066,0.948 -0.098,0.618 -0.178,0.384 -0.34,0.392 -0.294,0.202 -0.356,-0.334 -0.284,-0.014 -0.378,0.1 -0.298,0.154 -0.608,0.578 -0.674,0.562 -0.932,0.144 -0.362,0.416 -0.388,0.058 -0.736,0.022 -0.482,0.096 0.022,0.21 -0.04,0.988 0.01,0.232 -0.074,0.062 -0.334,0.03 -0.564,-0.152 -0.764,-0.244 -0.544,-0.038 -0.28,0.43 -0.166,0.168 -0.208,0.026 -0.214,0.076 -0.072,0.192 -0.018,0.24 0.104,0.41 0.04,0.652 -0.028,0.444 0.2,0.282 1.168,0.944 0.344,0.236 0.04,0.14 -0.204,0.514 0.182,0.722 -0.366,-0.014 -0.612,-0.31 -0.292,-0.19 -0.354,0.152 -0.124,-0.028 -0.238,-0.356 -0.312,-0.362 -0.322,-0.024 -0.68,0.142 -0.696,0.1 -0.264,-0.002 -0.11,0.066 -0.402,0.54 -0.17,-0.092 -0.702,-0.206 -0.638,-0.078 -0.13,0.138 0.078,0.44 0.14,0.428 -0.084,0.182 -0.352,0.226 -0.462,0.406 -0.286,0.316 -0.198,0.078 -0.706,-0.014 -0.704,0.042 -0.284,0.298 -0.264,0.232 -0.226,0.066 z m -7.752,-4.962 -0.1,0.054 -0.096,-0.002 -0.096,-0.084 0.01,-0.328 0.07,-0.2 0.164,-0.038 0.048,0.598 z m 1.528,3.218 -0.206,0.22 -0.326,-0.454 0.002,-0.126 0.53,0.36 z" title="Cambodia" id="KH"></path></svg>