<svg xmlns="http://www.w3.org/2000/svg" width="7.29" height="5.70"><path d="m 1.34,3.04 -0.106,0.076 -0.512,-0.326 -0.292,-0.076 -0.43,-0.526 0.166,-1.82 0.138,-0.234 0.104,-0.094 0.238,-0.034 0.29,0.228 -0.076,1.17 0.382,0.788 0.246,0.626 -0.148,0.222 z m 5.672,1.028 0.282,0.788 -0.002,0.594 -0.12,0.188 -0.252,-0.124 -0.464,-0.472 -0.882,-0.46 0.406,-0.038 0.236,0.046 0.25,-0.042 0.156,-0.26 0.032,-0.154 0.22,-0.124 0.138,0.058 z m -3.86,1.286 0.394,0.35 -1.096,-0.144 -0.172,-0.316 -0.008,-0.232 0.41,0.05 0.472,0.292 z" title="Comoros" id="KM"></path></svg>