<svg xmlns="http://www.w3.org/2000/svg" width="35.58" height="38.77"><path d="m 34.68,3.54 0.152,0.46 0.36,0.448 0.188,0.326 0.038,0.338 0.164,0.19 -0.286,0.21 -0.376,-0.128 -0.626,-0.076 -0.802,0.662 -0.444,0.232 -0.312,0.65 -0.626,0.386 -0.342,0.41 -0.444,0.71 -0.292,0.684 -0.674,0.7 -0.394,0.878 -0.022,0.752 0.43,0.768 0.04,0.652 -0.3,1.34 0.166,1.418 -0.186,0.554 -2.064,0.968 -0.54,0.482 -0.758,1.25 -0.924,0.464 -0.574,0.508 -0.794,0.3 -0.508,0.876 -0.558,0.496 -0.664,0.302 -0.498,0.388 -1.112,0.024 -0.786,0.27 -0.558,0.726 -1.678,0.83 -0.228,0.626 0.112,0.964 0.01,0.738 -0.146,0.606 -0.368,-0.17 -0.198,0.198 -0.218,0.56 0.062,0.636 0.576,0.206 0.47,0.26 0.662,0.132 0.49,0.294 1.042,1.34 0.85,0.584 0.22,0.216 0.488,0.294 0.45,0.46 0.254,0.412 -0.198,0.112 -0.338,0.602 -0.316,0.762 -0.304,0.412 -0.35,0.228 -0.378,0.134 -0.75,0.058 -0.678,-0.052 -0.218,-0.082 -0.932,0.048 -0.264,0.054 -1.338,-0.058 -0.7,0.062 -0.446,0.148 -0.454,0.308 -0.39,0.462 -0.344,0.494 -0.7,0.902 -0.49,0.438 -0.002,0.632 -0.012,0.192 -0.172,0.134 -0.058,-0.058 -0.284,-0.046 -1.138,-0.578 -0.938,0.352 -0.236,0.458 -0.248,0.148 -0.374,-0.898 -0.61,-0.028 -0.968,-0.792 -0.416,0.162 -0.106,0.318 -0.532,0.728 -0.742,0.6 -0.24,0.08 -0.274,-0.042 0.04,-0.166 -0.302,-0.674 -1.172,-0.272 -0.422,-0.288 -0.214,-0.062 1.148,-0.754 0.3,-0.134 -0.224,-0.176 -0.248,-0.086 -0.942,0.112 -0.492,-0.248 -0.716,0.08 -0.498,-0.196 1.032,-0.742 0.046,-0.438 -0.012,-0.334 0.522,-0.988 0.526,-0.546 1.362,-0.778 0.592,-0.108 0.43,0.032 0.352,-0.072 -0.37,-0.298 -0.362,-0.136 -0.704,0.028 -0.73,-0.448 -0.064,-0.474 1.416,-3.002 0.02,-0.274 -0.22,-0.734 -0.072,-0.716 -1.016,-0.412 -0.45,-0.05 -1.302,-0.81 -0.52,-0.41 -0.206,0.122 -0.038,0.648 -0.186,0.144 -0.342,0.126 -0.172,-0.74 -0.282,-0.536 -0.864,-0.546 -0.308,-0.3 0.148,-0.652 -0.072,-0.058 0.136,-0.732 0.53,-0.566 1.298,-1.008 0.334,-0.474 0.66,-0.558 0.296,0.012 0.306,-0.048 0.092,-0.244 0.07,-0.192 0.264,-0.174 0.634,-0.308 0.72,-0.406 0.576,-0.114 0.706,-0.61 0.288,-0.268 0.29,0 0.078,-0.126 0.164,-0.316 0.224,-0.208 0.312,-0.04 0.51,-0.15 0.64,-0.092 0.436,-0.514 0.148,-0.368 0.29,-0.404 0.612,-0.442 0.422,-0.654 0.466,-0.71 0.222,-0.228 0.218,-0.046 0.128,-0.268 0.15,-0.758 0.214,-0.738 0.126,-0.348 0.54,-0.38 0.136,-0.186 0.122,-0.062 0.25,0.05 0.336,-0.224 0.314,-0.248 0.288,0.086 0.292,0.206 0.304,0.41 0.136,0.326 0.24,0.272 0.046,0.396 0.242,0.172 0.512,0.086 0.838,0.27 0.542,0.014 0.31,0.202 0.648,0.11 1.296,-0.158 0.53,0.092 0.222,0.248 0.328,0.196 0.214,0.012 0.286,-0.338 0.306,-0.548 0.202,-0.42 -0.008,-0.334 -0.178,-0.36 -0.426,-0.334 -0.282,-0.518 -0.268,-0.536 -0.158,-0.174 -0.128,-0.26 -0.024,-0.4 0.092,-0.27 0.646,-0.18 0.828,-0.106 0.67,0.114 1.12,-0.076 0.688,-0.15 0.51,0.022 0.468,-0.002 0.208,-0.23 0.654,-0.554 0.316,-0.198 0.348,-0.376 0.054,-0.394 0.07,-0.32 0.196,-0.34 0.344,-0.422 0.292,-0.194 0.326,0.026 0.342,0.194 0.218,0.194 0.246,-0.056 0.206,-0.332 0.134,-0.064 0.39,-0.03 0.126,-0.204 0.15,-0.978 0.15,-0.772 0.032,-0.542 0.35,-0.898 0.112,-0.542 0.208,-0.252 0.24,0.018 0.202,0.16 0.254,0.092 0.338,-0.088 0.238,0.138 0.148,0.292 0.5,0.2 0.046,0.146 -0.012,0.974 0.274,0.456 0.368,0.412 0.502,0.374 0.27,0.084 0.172,0.274 z m -31.554,22.24 -0.314,0.208 -0.018,-0.372 0.244,-0.314 0.254,-0.042 -0.166,0.52 z" title="North Korea" id="KP"></path></svg>