<svg xmlns="http://www.w3.org/2000/svg" width="27.65" height="37.44"><path d="m 3.52,6 0.172,-0.134 0.012,-0.192 0.002,-0.632 0.49,-0.438 0.7,-0.902 0.344,-0.494 0.39,-0.462 0.454,-0.308 0.446,-0.148 0.7,-0.062 1.338,0.058 0.264,-0.054 0.932,-0.048 0.218,0.082 0.678,0.052 0.75,-0.058 0.378,-0.134 0.35,-0.228 0.304,-0.412 0.316,-0.762 0.338,-0.602 0.198,-0.112 1.372,3.19 1.31,2.052 1.118,1.48 1.592,2.838 0.466,1.512 0.044,0.934 0.266,1.282 -0.226,0.734 0.066,1.154 -0.1,0.592 -0.196,0.436 -0.006,0.836 0.062,0.446 0.006,0.592 0.126,0.23 0.182,0.084 0.29,-0.214 0.354,-0.09 -0.062,0.71 -0.428,1.794 -0.372,1.302 -0.506,1.132 -0.644,1.034 -0.772,0.404 -0.542,0.144 -1.036,0.052 -0.86,-0.174 -0.738,0.126 -0.296,0.214 -0.22,0.368 0.162,0.57 -0.022,0.42 -0.316,-0.032 -0.626,-0.244 -0.694,-0.034 -0.324,-0.122 -0.328,-0.602 -0.334,0.022 -0.58,0.358 -0.888,0.08 -0.312,0.194 -0.112,0.25 0.128,0.316 0.448,0.414 -0.15,0.418 -0.464,0.208 -0.376,-0.514 -0.234,-0.504 -0.262,-0.028 -0.408,0.144 -0.082,0.544 0.19,0.37 0.312,0.43 -0.438,0.494 -0.116,0.352 -0.314,0.252 -0.848,-0.562 0.122,-0.4 0.368,-0.384 0.044,-0.4 -0.122,-0.236 -1.212,1.008 -0.748,1.14 -0.4,-0.084 -0.166,-0.292 -0.234,-0.12 -0.808,0.734 -0.148,0.582 -0.296,0.022 -0.13,-0.246 -0.01,-0.528 -0.138,-0.444 -0.838,-0.648 -0.38,-0.568 0.206,-0.318 0.7,0.172 0.554,-0.022 -0.11,-0.27 -0.182,-0.128 0.37,-0.152 0.308,-0.31 -0.256,-0.084 -0.388,0.18 -0.324,-0.088 -0.128,-0.746 -0.394,-0.766 -0.206,-0.744 0.39,-0.428 0.198,-0.668 0.364,-0.968 0.182,-0.314 0.502,-0.228 0.178,-0.25 -0.276,-0.128 -0.44,-0.114 0.01,-0.28 0.3,-0.152 0.336,-0.31 0.648,-0.376 0.202,-0.71 -0.188,-0.18 -0.406,-0.168 0.092,-0.36 0.168,-0.274 -0.064,-0.164 -0.478,-0.464 -0.316,-0.422 0.094,-0.482 -0.072,-0.73 0.042,-0.614 -0.022,-0.334 -0.234,-0.75 -0.106,-0.754 -0.306,0.11 -0.248,0.188 -0.886,-0.266 -0.282,-0.016 -0.114,-0.56 0.318,-0.69 0.754,-0.61 0.434,-0.076 0.326,-0.268 0.51,-0.084 0.612,0.416 0.548,0.084 0.304,0.714 0.188,0.152 0.04,-0.262 0.444,-0.308 0.106,-0.232 -0.096,-0.128 -0.51,-0.126 -0.458,-0.888 -0.064,-0.39 -0.166,-0.248 0.246,-0.712 -0.53,-0.814 -0.258,-0.256 0.038,-0.734 -0.276,-0.466 -0.154,-0.256 -0.094,-0.444 0.08,-0.2 0.24,-0.076 0.06,-0.19 z m -0.636,0.318 -0.026,0.934 -0.31,-0.04 -0.21,-0.094 -0.09,-0.182 -0.212,-0.866 0.238,-0.358 0.458,0.284 0.152,0.322 z m 24.672,1.824 -0.256,0.208 -0.302,-0.208 -0.038,-0.222 0.158,-0.192 0.368,-0.116 0.172,0.168 -0.102,0.362 z m -25.252,6.896 -0.076,0.45 -0.372,-0.296 -0.108,-0.988 0.382,0.288 0.174,0.546 z m 13.044,11.652 -0.53,0.42 -0.714,-0.564 -0.17,-0.31 0.542,-0.458 0.46,-0.522 0.302,-0.032 0.11,1.466 z m -3.792,-0.05 -0.062,0.666 -0.396,0.034 -0.236,-0.428 -0.252,0.208 -0.13,0.004 -0.2,-0.534 -0.034,-0.416 0.466,-0.318 0.284,0.19 0.404,0.098 0.156,0.496 z m -10.628,0.508 -0.074,0.164 -0.244,-0.048 -0.252,-0.468 -0.104,-0.372 -0.25,-0.204 0.398,-0.322 0.506,0.58 0.02,0.67 z m 9.132,0.788 -0.064,0.21 -0.284,-0.318 0.282,-0.348 0.066,0.456 z m -8.786,1.658 -0.36,0.104 -0.202,-0.234 -0.14,-0.062 0.08,-0.306 0.584,-0.602 0.116,-0.208 0.542,0.126 0.202,0.32 -0.248,0.484 -0.574,0.378 z m 2.916,0.18 0.094,0.322 -0.454,-0.06 -0.24,-0.31 0.032,-0.266 0.27,-0.038 0.298,0.352 z m -2.394,7.53 -0.252,0.148 -0.234,-0.088 -0.062,-0.07 -0.284,-0.382 -0.072,-0.196 0.19,-0.376 0.776,-0.618 2.008,-0.596 0.362,-0.026 0.792,0.256 0.17,0.478 -0.146,0.412 -0.182,0.276 -0.918,0.464 -0.716,0.222 -1.432,0.096 z" title="South Korea" id="KR"></path></svg>