<svg xmlns="http://www.w3.org/2000/svg" width="9.41" height="2.92"><path d="m 8.96,0.32 -0.262,0.09 -0.204,-0.036 0.46,-0.246 0.118,-0.084 0.102,-0.044 0.106,0 0.134,0.05 0,0.038 -0.454,0.232 z m -0.872,0.022 -0.056,0.034 -0.18,-0.026 -0.412,0.242 -0.178,-0.014 0.054,-0.084 0.086,-0.08 0.096,-0.058 0.09,-0.024 0.288,-0.048 0.136,-0.006 0.094,0.054 -0.018,0.01 z m -7.806,2.126 0.182,0.114 0.228,-0.07 0.066,-0.126 0.866,0.092 0.13,0.246 -0.66,0.006 -0.296,0.158 -0.148,0.032 -0.566,-0.038 -0.082,-0.57 0.158,-0.06 0.122,0.216 z" title="Cayman Islands" id="KY"></path></svg>