<svg xmlns="http://www.w3.org/2000/svg" width="228.52" height="124.83"><path d="m 228.52,57.76 -0.52,-0.17 -1.02,-0.036 -0.622,0.106 -0.292,0.06 -0.436,0.35 -0.31,0.348 -0.136,0.592 0.164,0.668 -0.224,1.388 -0.304,0.522 -0.64,0.906 -0.372,0.196 -0.624,0.162 -0.6,0.268 -1.176,0.26 -1.27,0.132 -0.452,0.194 -0.322,0.618 -0.228,0.514 -0.14,0.392 -0.36,1.276 -0.204,1.138 0.2,1.41 0.15,1.562 -0.01,0.538 0.31,0.796 0.156,0.488 -0.074,0.692 -0.446,0.544 -0.268,0.72 -0.252,0.306 -0.726,0.138 -0.684,0.084 -0.69,0.618 -0.552,0.426 -0.864,0.542 -0.406,0.102 -0.224,-0.276 -0.148,-0.614 -0.296,-0.272 -0.418,-0.022 -0.336,-0.006 -1.086,-0.166 -0.696,0.012 -0.522,0.132 -0.596,0.066 -1.03,-0.224 -0.666,-0.19 -0.448,-0.182 -1.07,-0.538 -1.406,-0.64 -0.576,-0.188 -0.342,0.192 -0.052,0.366 -0.09,0.886 -0.164,0.554 -0.98,2.792 -0.606,1.932 -0.77,1.846 -0.244,1.234 -0.46,1.558 -0.458,1.126 -0.186,0.612 -0.016,0.25 0.08,0.35 0.702,0.382 0.736,0.234 0.162,0.146 0.08,0.396 -0.028,0.648 -0.134,0.612 -0.212,0.48 -0.21,0.238 -0.24,0.014 -0.46,-0.308 -0.41,-0.344 -0.318,-0.104 -0.808,0.192 -0.748,0.262 -0.25,0.008 -0.434,-0.168 -0.438,-0.348 -0.174,-0.674 -0.376,-0.306 -0.504,0.306 -1.5,0.514 -1.652,0.612 -1.05,0.316 -0.41,-0.048 -0.814,0.072 -0.706,0.17 -0.53,0.236 -1.046,0.326 -0.95,0.218 -0.612,0.494 -0.44,0.476 0.018,0.18 0.32,0.282 0.366,0.22 0.732,-0.052 0.714,-0.034 0.594,0.298 0.532,0.192 0.146,0.248 -0.146,0.242 -0.308,0.056 -0.108,0.168 0.054,0.226 -0.204,0.588 -0.106,0.89 0.106,0.876 0.058,0.806 -0.038,0.406 -0.02,0.578 0.226,0.39 0.202,0.742 0.362,0.464 0.546,1.604 0.322,0.934 0.296,1.056 -0.214,0.57 0.014,0.33 0.348,0.276 0.152,0.538 0.162,0.328 -0.044,0.326 -0.148,0.126 -0.754,-0.198 -0.618,0.326 -0.656,0.328 -0.088,0.174 -0.018,0.19 0.066,0.166 0.378,0.292 0.522,0.182 -0.026,0.292 -0.646,0.134 -0.974,0.446 -0.27,0.478 -0.208,0.526 -0.018,0.304 0.098,0.814 0.148,0.9 0.278,0.948 0.022,0.292 -0.144,0.208 -0.134,0.134 -0.774,-0.854 -0.844,-0.834 -0.66,-0.192 -1.15,-0.138 -0.61,-0.006 -0.346,-0.198 -0.34,-0.484 -0.406,-0.438 -0.52,-0.464 -0.212,-0.708 -0.214,-0.126 -0.376,0.09 -0.628,-0.022 -0.352,-0.062 -0.526,-0.122 -0.838,-0.29 -0.662,-0.274 -0.834,-0.052 -0.48,0.054 -1.498,0.052 -1.244,-0.288 -1.006,-0.052 -0.62,0.016 -0.296,-0.036 -0.508,0.002 -0.748,-0.062 -1,-0.444 -0.388,-0.022 -0.246,0.016 -1.672,0.326 -0.77,0.076 -1.634,-0.038 -1.604,-0.036 -0.516,-0.068 -0.286,0.034 -0.606,0.782 -0.26,0.122 -1.512,-0.17 -1.788,-0.514 -1.292,-0.564 -1.096,-0.598 -1.452,-0.944 -0.868,-0.466 -0.126,0.268 -0.23,0.086 -0.334,0.042 -0.77,-0.048 -0.356,0.478 -0.94,0.342 -0.598,0.306 -0.312,0.346 -0.596,2.286 -0.16,0.834 0.4,1.4 -0.458,-0.082 -0.538,-0.358 -0.186,-0.282 -0.518,-0.172 -1.884,-0.26 -0.352,-0.322 -0.22,-0.262 -0.488,-0.172 -0.69,-0.132 -1.5,-0.608 -0.64,-0.022 -1.936,-0.468 -0.316,0.004 -0.144,0.02 -0.752,0.306 -0.486,0.088 -0.518,-0.124 -0.928,0.378 -0.502,0.504 -0.414,0.616 -0.396,0.388 -0.118,0.58 -0.28,0.3 -0.334,0.6 0,0.35 0.302,0.34 -0.484,0.314 -0.538,0.098 -0.278,0.192 -0.296,0.462 -0.276,0.396 -0.162,0.14 -0.248,-0.026 -0.288,-0.308 -0.41,0.014 -0.488,0.38 -0.58,0.618 -0.73,0.942 -0.762,0.5 -0.964,0.424 -0.698,0.188 -0.552,0.322 -0.922,0.652 -0.184,0.384 -0.668,0.226 -0.538,0.26 -0.498,0.434 -0.122,0.766 -0.316,0.44 -0.762,0.602 -0.64,0.608 -0.418,0.596 -0.442,0.63 -0.138,0.346 -0.016,0.474 0.208,0.398 0.04,0.378 -0.158,0.274 -0.432,0.104 -0.452,-0.08 -0.694,-0.27 -0.738,-0.484 -0.27,-0.238 -0.362,-0.408 0.052,-0.378 0.186,-0.738 0.126,-0.506 -0.3,-0.242 -0.222,-0.26 -0.158,-0.25 -0.312,-0.494 -0.392,0.122 -0.34,0.122 -0.394,-0.174 -1.162,0.076 -0.876,0.056 -0.824,0.052 -1.044,0.068 -1.26,0.082 -0.362,-0.108 -0.226,-0.164 -0.228,-0.682 -0.132,-0.58 -0.244,-1.086 -0.164,-0.842 -0.194,-1.004 -0.128,-1.112 -0.092,-0.792 -0.954,-0.026 -0.762,-0.02 -1.03,-0.028 0.008,-0.632 0.012,-0.798 0.014,-0.91 0.192,-1.196 0.072,-1.004 0.09,-1.23 0.056,-0.814 0.064,-0.898 -0.532,0.278 -0.586,0.306 -0.55,0.286 -0.378,-0.726 -0.368,-0.708 -0.558,-1.078 -0.418,-0.808 -0.726,-0.474 -0.542,-0.35 -0.558,-0.59 -0.482,-0.614 -0.458,-0.584 -0.548,-0.506 -0.526,0.16 -0.594,0.318 -0.572,0.304 -0.606,0.324 -0.296,0.158 -0.704,-0.06 -0.614,-0.052 -1.098,-0.094 -0.926,-0.08 -0.946,-0.082 -1.318,-0.114 -1.336,-0.114 -0.892,0.152 -1.132,0.19 -1.188,0.2 -0.982,0.166 -1.244,0.208 -0.93,0.156 -0.458,-0.022 -0.576,-0.656 -0.924,-1.054 -0.558,-0.64 -0.548,-0.628 -0.792,-0.906 -0.636,-0.688 -0.622,-0.672 -0.358,-0.622 -0.178,-0.784 -0.324,-0.356 -0.72,-0.48 -0.776,-0.516 -0.776,-0.516 -0.776,-0.516 -0.776,-0.518 -0.776,-0.518 -0.776,-0.518 -0.776,-0.52 -0.776,-0.52 -0.776,-0.52 -0.776,-0.522 -0.758,-0.516 -0.776,-0.522 -0.776,-0.524 -0.776,-0.524 -0.776,-0.524 -0.776,-0.524 -0.638,-0.382 -0.594,0.1 -0.888,0.268 -0.932,0.28 -0.922,0.278 -1.652,0.496 -1.062,0.32 -0.83,0.268 -0.884,0.286 -1.16,0.374 -0.972,0.314 -1.138,0.368 -1.01,0.326 -0.848,0.272 -0.884,0.286 -0.7,0.224 0,1.812 0,1.804 0.002,1.798 0,1.792 0,1.784 0.002,1.776 0,1.77 0,1.762 0,1.756 0.002,1.75 0,1.744 0,1.738 0.002,1.73 0,1.724 0,1.718 0.002,1.712 -0.24,-0.014 -0.538,0.1 -0.9,0.238 -0.748,0.12 -0.328,-0.074 -0.294,-0.178 -0.258,-0.376 -0.384,-0.458 -0.394,-0.372 -0.49,-0.762 -0.34,-0.586 -0.838,-1.284 -0.118,-0.406 -0.156,-0.414 -0.28,-0.346 -0.988,-0.85 -1.15,-0.768 -1.128,-0.754 -0.318,-0.184 -0.528,-0.234 -0.65,-0.004 -0.444,0.046 -1.352,0.25 -1.038,0.292 -1.406,0.396 -1.09,0.438 -0.244,0.128 -0.796,0.528 -0.974,0.876 -1.138,1.232 -0.148,-0.792 -0.05,-1.222 0.02,-0.394 0.31,-1.03 0.314,-0.708 0.252,-0.738 0.114,-0.966 -0.234,-1.556 -0.262,-0.346 -0.314,-0.112 -0.336,-0.032 -0.618,0.064 -0.288,0.126 -0.502,-0.526 -0.606,-0.084 -0.32,0.146 -0.324,0.076 -0.352,-0.146 -0.304,-0.312 -0.186,-0.336 -0.144,-0.38 -0.476,-0.764 -0.472,-0.416 -0.572,-0.092 -0.934,0.024 -0.294,-0.052 -0.016,-0.434 0.118,-0.96 0.002,-0.502 -0.066,-0.474 -0.156,-0.39 -0.198,-0.338 -0.556,-0.556 -0.42,-0.784 -0.702,-1.618 -0.614,-1.824 -0.27,-0.276 -0.548,-0.29 -1.198,-0.232 -0.79,-0.24 -0.31,-0.232 -0.13,-0.402 0.004,-0.432 0.064,-0.51 0.184,-0.432 0.628,-0.334 1.366,-0.074 1.166,0.036 1.058,0.772 0.346,0.176 0.376,0.05 0.748,-0.244 0.372,-0.07 0.936,0.08 -0.28,-0.366 -0.352,-0.192 -0.364,0.016 -0.314,-0.15 -0.518,-0.708 -0.898,-0.808 -0.208,-0.334 -0.064,-0.536 0.174,-0.462 0.636,-0.474 0.542,-0.646 0.246,-0.858 0.222,-0.396 0.46,-0.622 0.696,0.12 1.084,-0.45 1.774,0.088 2.124,-0.128 0.584,0.046 1.354,0.44 0.778,0.19 0.946,0.096 0.682,-0.194 -0.642,-0.6 -1.394,-0.712 -0.358,-0.608 0.638,-1.656 0.864,-1.514 0.528,-1.804 -0.148,-1.8 -0.252,-0.498 0.082,-0.586 0.3,-0.496 0.212,-0.494 -0.184,-0.596 -0.38,-0.932 -0.196,-0.302 -0.666,-0.504 -1.338,-0.022 -1.092,-0.276 -0.354,0.222 -0.2,0.34 -0.25,0.224 -0.85,0.452 -0.284,0.09 -0.296,-0.09 -0.418,-0.508 -0.372,0.056 -1.126,-0.318 -0.53,-0.692 -0.198,-0.096 -1.82,-0.554 -0.632,-0.106 -1.45,0.57 -1.05,0.73 -0.296,0.106 -0.542,0.462 -0.306,0.074 -0.314,-0.08 -0.298,0.028 -0.634,0.692 -1.148,0.804 -0.57,0.506 -0.636,0.314 -0.708,0.198 -0.722,0.032 -0.266,0.182 -0.826,0.064 -0.504,0.148 -0.018,0.274 0.1,0.612 -0.428,-0.216 -0.45,0.416 0.148,0.392 -0.27,-0.094 -1.264,-0.756 -1.038,-0.536 -0.922,-0.476 -0.134,-0.086 -0.252,-0.232 -0.18,-0.362 -0.038,-0.396 0.09,-0.292 0.224,-0.186 0.264,-0.072 0.234,0.06 0.26,0.178 0.464,0.216 0.602,0.04 0.376,-0.166 0.05,-0.398 -0.716,-1.476 -0.66,-1.194 -0.638,-1.332 -0.27,-0.484 -0.782,-1.12 -0.772,-1.106 -0.61,-0.988 -0.32,-0.304 -0.984,-0.126 -1.876,-0.244 -0.664,-0.116 -0.532,0.294 -0.534,0.23 -0.506,-0.428 -0.4,-0.704 -0.21,-0.592 0.102,-0.606 0.042,-0.896 -0.306,-0.884 -0.338,-0.438 -0.848,-0.33 -1.08,-0.746 -0.29,-1.366 0.524,-1.964 0.844,-1.396 0.614,-0.586 0.292,-0.512 0.096,-0.444 -0.074,-0.424 -0.364,-0.452 -0.564,-0.44 -0.286,-0.542 0.118,-1.164 0.374,-1.682 0.576,-1.35 0.772,-0.75 0.666,-0.538 0.262,-0.502 0.014,-0.714 -0.016,-0.674 0.178,-0.49 0.28,-0.39 0.296,-0.35 0.416,-0.392 0.54,-0.096 0.594,0.312 0.808,0.838 1.184,1.65 0.676,1.078 0.244,0.332 0.618,0.64 0.558,0.258 0.93,-0.4 0.892,-0.466 0.288,-0.296 0.184,-0.442 -0.142,-0.756 -0.186,-0.494 -0.198,-0.63 -0.274,-1.098 -0.194,-1.728 -0.23,-0.55 0.168,-0.064 0.448,0.114 0.414,0.05 0.592,-0.382 0.812,-0.72 1.486,-1.114 0.314,-0.736 0.254,-0.82 0.412,-0.504 0.946,-0.166 0.876,-0.264 0.618,-0.584 0.968,-0.514 0.796,-0.312 0.35,-0.288 0.25,-0.432 0.912,-1.22 0.716,-0.752 0.63,-0.776 0.21,-0.488 0.498,0.09 0.76,0.338 0.816,0.308 0.598,0.478 0.118,0.488 0.058,0.384 0.242,0.198 0.29,0.038 0.436,-0.096 0.762,-0.018 0.934,-0.632 1.3,-1.068 1.19,-0.332 0.626,0.254 0.518,0.786 0.41,0.738 0.422,0.274 0.262,0.008 0.096,0.012 0.524,-0.168 0.04,0.002 0.478,0.03 0.46,0.25 0.762,0.028 1.062,-0.19 0.112,-0.078 0.51,0.102 0.62,0.34 0.482,0.404 0.864,1.324 0.496,0.34 1.012,0.47 0.474,0.41 0.552,0.664 0.288,0.402 0.6,0.726 0.694,1.186 0.124,0.942 0.158,0.794 0.258,0.376 0.212,0.046 0.228,-0.13 0.224,-0.362 0.078,-0.604 -0.068,-1.07 -0.178,-0.876 -0.228,-0.278 -0.11,-0.308 0.15,-0.392 0.386,-0.19 0.48,0.12 0.79,0.504 0.824,0.634 1.014,1.108 0.93,0.702 1.018,0.56 0.808,0.166 0.626,-0.168 0.738,-0.456 0.676,-0.528 0.308,-0.554 0.22,-0.606 1.02,-0.81 0.932,-0.742 0.424,0.134 0.298,0.21 0.956,-0.452 0.332,-0.124 0.91,-0.176 0.94,0.26 0.75,0.796 0.726,0.512 0.65,-0.06 0.538,-0.262 0.356,-0.496 0.27,-0.586 0.36,-0.376 0.054,-0.024 1.158,0.204 0.726,-0.03 0.078,-0.084 0.958,0.16 1.058,0.826 0.656,0.914 0.84,1.162 0.39,0.378 0.568,0.162 0.446,0.07 0.598,0.18 1.58,0.242 0.24,0.142 0.162,0.19 -0.146,0.632 0.14,0.16 1.282,-0.45 0.344,-0.336 0.422,-0.956 0.378,-0.964 0.282,-0.358 0.298,-0.094 0.3,0.144 0.42,0.57 0.568,0.58 0.768,0.22 0.468,0.088 0.726,0.048 1.708,-0.282 1.598,-0.702 0.912,-0.764 0.424,-1.148 0.266,-1.308 0.408,-0.828 -0.17,-0.848 -0.804,-0.808 -0.272,-0.244 -1.956,-0.454 -0.12,-0.328 -0.112,-0.076 -1.928,-0.72 -0.928,-0.308 -0.262,-0.476 -0.172,-0.624 -0.602,-0.558 -1.196,-0.508 -0.208,-0.388 0.198,-0.392 0.944,-0.436 1.078,-0.92 0.414,-0.19 0.958,-0.042 0.888,-0.754 0.612,-0.432 0.32,-0.514 -0.084,-0.532 -0.888,-1.61 -0.264,-0.978 0.158,-0.638 0.51,-0.69 0.29,-0.378 0.348,-0.68 0.228,-0.364 0.896,-0.154 1.086,-0.064 0.746,0.162 1.042,0.084 0.95,0.126 0.48,0.112 0.354,-0.208 0.256,-0.366 -0.008,-0.484 -0.374,-0.47 -1.394,-0.618 -0.598,-0.51 -0.468,0.056 -0.784,-0.16 -0.708,-0.334 -0.626,-0.112 -0.204,-0.464 0.128,-0.652 0.242,-0.374 0.462,-0.186 0.502,0.094 0.546,-0.272 0.158,-0.16 0.046,-0.206 -0.088,-0.294 -0.254,-0.242 -0.36,-0.064 -0.414,0.206 -0.496,0.134 -0.838,-0.302 -0.668,-0.364 0.034,-0.336 0.494,-0.502 0.222,-0.408 0,-0.564 0,-0.66 0.172,-0.774 0.49,-0.53 0.576,-0.284 1.484,0.518 1.856,0.462 0.318,-0.076 0.094,-0.244 0.212,-0.216 2.576,-0.1 0.5,-0.298 0.25,-0.238 2.476,-0.342 0.294,-0.326 0.364,-0.304 0.57,0.006 0.678,-0.122 0.946,-0.372 0.67,-0.204 0.112,-0.016 0.708,0.082 0.878,-0.294 0.19,-0.122 0.142,-0.222 0.766,-0.428 1.47,-0.352 0.358,0.21 0.702,0.096 0.894,-0.158 0.66,-0.27 0.384,0.268 0.522,0.276 0.39,-0.234 0.194,-0.738 0.252,-0.722 0.442,-0.342 0.35,-0.126 0.316,-0.278 0.238,-0.29 1.294,0.044 1.158,-0.722 0.228,0.328 1.504,-0.076 1.868,-0.466 1.118,-0.218 1.93,-0.488 0.892,-0.396 1.278,-0.25 1.172,-0.174 0.766,-0.694 0.618,-0.098 0.752,-0.058 0.46,-0.166 0.3,-0.256 0.194,-0.482 -0.106,-0.616 -0.108,-0.448 0.538,-0.25 0.768,-0.078 0.484,-0.102 1.056,-1.02 0.728,-0.49 0.754,-0.308 1.514,0.168 1.382,0.154 1.386,0.488 0.728,0.608 0.626,0.458 0.592,0.218 0.536,0.14 0.622,-0.208 0.44,-0.28 0.256,-0.402 0.388,-0.288 1.414,-0.224 0.292,0.434 0.672,1.306 0.458,1.734 0.754,2.29 0.332,1.122 -0.146,0.586 0.002,0.802 -0.042,0.88 -0.556,0.994 0.226,0.462 1.366,0.514 1.912,-0.188 1.18,-0.416 0.658,0.152 0.344,-0.25 0.222,-0.736 0.454,-0.166 0.466,0.514 0.338,0.868 0.324,0.558 -0.024,0.664 0.12,0.85 0.238,0.214 0.468,-0.322 0.312,-0.192 0.074,-0.258 -0.132,-0.318 -0.062,-0.324 0.104,-0.298 0.222,-0.122 0.666,0.094 0.97,0.164 1.152,1.208 0.622,0.218 0.262,0.022 0.584,-0.07 0.702,-0.346 0.472,-0.436 0.158,-0.214 0.272,0.038 0.258,0.202 0.018,0.44 -0.206,0.636 -0.7,0.582 -0.87,0.54 -0.528,0.988 -0.112,1.028 0.23,0.522 0.198,0.348 0.056,0.488 0.196,0.064 0.356,-0.2 0.97,-1.012 0.494,-0.25 0.716,-0.16 1.178,0.08 0.792,0.33 0.378,0.458 0.416,0.378 0.288,-0.158 0.148,-0.436 0.008,-0.5 0.122,-0.412 1.288,-1.014 0.858,-0.676 0.294,-0.08 0.574,0.14 0.356,-0.072 0.942,-0.636 0.88,-0.726 0.086,-0.492 0.034,-0.446 0.218,-0.202 1.232,-0.156 0.204,-0.084 1.052,-0.508 1.458,-0.868 0.708,-0.512 1.29,-0.228 0.24,-0.148 0.428,-0.346 0.808,-0.48 0.438,-0.052 -0.272,1.16 -0.482,1.336 -0.272,0.356 -1.308,-0.06 0.002,0.364 0.206,0.556 0.148,0.312 0.158,0.28 0.352,0.484 1.376,1.138 1.75,1.444 1.89,1.616 1.32,1.124 0.534,0.58 0.34,0.452 0.972,1.628 0.924,1.538 1.558,2.696 1.378,2.588 1.52,2.83 0.878,1.628 1.796,3.386 0.48,1.034 0.91,1.952 0.802,1.822 0.71,1.604 0.448,0.144 0.036,-0.434 0.08,-0.29 0.228,-0.164 0.524,-0.474 0.282,-0.114 0.42,0.048 0.44,-0.242 0.162,-0.456 -0.106,-0.846 -0.068,-0.39 0.15,-0.42 0.24,-0.164 0.334,-0.132 0.308,-0.068 0.252,-0.474 0.476,-0.144 0.438,0.088 0.36,0.018 0.318,0.346 0.178,0.474 0.344,0.038 0.562,-0.048 0.078,0.396 -0.16,0.662 -0.198,0.512 -0.034,0.41 0.298,0.2 1.092,-0.178 0.386,0.088 0.124,0.416 0.156,0.344 0.076,0.42 -0.114,0.464 0.196,0.278 0.942,0.006 0.664,-0.224 1.02,-0.018 0.922,0.492 0.638,-0.076 0.642,-0.2 0.942,0.126 0.662,-0.388 0.456,-0.486 0.142,-0.382 0.238,-0.212 0.888,0.002 0.56,-0.038 0.414,-0.562 0.378,-0.254 0.636,-0.048 0.468,0 1.258,0.522 0.766,0.432 0.796,0.614 0.478,0.384 0.322,0.866 0.542,0.636 0.432,0.742 0.104,0.73 0.356,1.31 0.368,0.43 0.436,0 0.55,0.178 0.608,0.142 1.3,0.97 0.478,0.028 0.368,0.232 0.056,0.446 -0.136,0.516 0.142,0.494 0.426,0.63 0.336,0.614 0.414,0.744 0.126,0.424 0.332,0.14 0.448,-0.21 0.712,0.16 2.142,0.422 0.298,0.052 0.228,0.44 0.31,-0.036 0.356,-0.018 0.494,0.052 0.344,-0.406 0.282,-0.356 0.706,-0.44 0.586,-0.598 0.492,-0.532 0.368,-0.07 0.298,0.248 0.012,0.46 -0.368,0.336 -0.288,0.406 0.068,0.406 0.494,0.036 0.548,0.61 0.792,1.426 0.268,0.298 0.392,0.28 0.434,0.126 0.48,0.204 0.356,0.586 0.17,0.532 z m -207.744,33.794 -0.194,0.108 -0.118,-0.504 0.216,-0.424 0.308,-0.056 -0.106,0.67 -0.106,0.206 z m -0.712,0.928 -0.202,0.222 -0.3,-0.034 -0.562,-0.838 0.158,-0.852 0.204,-0.174 0.284,-0.12 0.038,0.188 -0.398,0.382 -0.038,0.482 0.334,0.534 0.482,0.21 z" title="Kazakhstan" id="KZ"></path></svg>