<svg xmlns="http://www.w3.org/2000/svg" width="42.31" height="50.42"><path d="m 11.3,0.7 0.312,0.574 0.664,0.638 0.792,0.91 0.252,0.418 0.534,0.32 0.152,0.316 0.122,0.484 0.054,0.36 0.118,0.212 0.188,0.084 0.242,-0.094 0.182,-0.192 0.152,-0.53 0.1,-0.056 0.164,0.436 0.174,0.074 0.234,0.058 0.178,0.188 0.054,0.332 -0.06,0.338 -0.218,0.38 -0.124,0.4 -0.086,0.614 -0.116,0.428 0.18,0.378 1.24,1.86 0.596,0.304 1.418,0.364 0.512,0.25 0.452,0.244 0.444,-0.118 0.428,-0.554 0.514,-0.31 0.956,-0.476 0.274,-0.026 0.528,0.19 0.868,0.554 0.626,0.52 0.388,0.274 0.296,0.246 -0.046,0.276 -0.238,0.272 -0.302,0.15 -0.398,0.262 -0.226,0.264 0.138,0.098 0.584,0.066 0.69,0.234 0.21,0.274 0.03,0.234 0.084,0.382 0.122,0.116 0.638,-0.068 0.198,0.086 0.23,0.196 0.228,0.514 -0.006,0.384 -0.462,0.422 -0.172,0.256 -0.076,0.402 -0.328,0.482 -0.872,0.808 -0.234,0.048 -1.606,-0.444 -0.746,0.028 -0.36,0.014 -0.174,0.02 -0.104,0.168 0.214,0.488 0.064,0.484 -0.2,0.368 -0.534,0.32 -0.202,0.154 -0.024,0.208 0.15,0.216 0.492,0.222 0.574,0.208 1.892,1.25 0.404,0.294 0.536,0.434 0.58,0.336 1.552,0.444 0.686,0.29 0.176,0.164 -0.006,0.202 -0.18,0.258 -0.148,0.452 -0.008,0.272 0.162,0.262 0.274,0.392 0.616,0.606 0.338,0.27 0.374,0.06 0.328,0.148 0.338,0.45 0.392,0.55 0.052,0.384 0.168,0.492 0.358,0.564 0.494,0.548 0.692,0.678 0.398,0.478 0.184,0.186 1.476,1.158 0.36,0.428 0.52,0.824 0.22,0.12 0.208,0.162 0.132,0.452 0.044,0.324 0.07,0.992 0.268,0.294 0.246,0.362 0.104,0.264 0.224,0.196 0.244,0.036 0.29,-0.218 0.23,-0.21 0.106,0.062 0.232,0.692 0.214,0.252 0.4,0.242 0.38,0.186 0.83,0.832 0.442,0.304 0.304,0.096 0.258,0.142 0.078,0.264 -0.102,0.266 -0.176,0.174 -0.966,0.482 -0.128,0.21 0.132,0.32 0.242,0.4 0.264,0.344 0.332,0.338 0.678,0.548 0.588,0.428 0.322,0.474 0.178,0.316 -0.11,0.378 -0.248,0.414 -0.192,0.354 -0.33,0.206 -0.09,0.238 0.136,0.37 0.112,0.254 -0.06,0.316 0.03,0.646 -0.304,0.232 -0.284,0.588 -0.194,0.044 -0.49,-0.214 -0.172,0.118 -0.312,0.428 -0.544,0.466 -0.264,0.006 -0.182,-0.056 -0.212,0.198 -0.304,0.368 -0.14,-0.012 -0.524,0.084 -0.204,-0.118 -0.254,-0.302 -0.408,-0.308 -0.372,-0.22 -0.198,-0.148 -0.184,-0.256 -0.166,-0.166 -0.308,0.364 -0.514,0.348 -0.49,-0.066 -0.24,-0.058 -0.192,0.506 -0.144,0.092 -0.88,0.088 -0.166,0.08 0.142,0.462 0.52,0.782 0.156,0.448 -0.324,0.736 -0.912,-0.02 -0.408,-0.298 -0.38,-0.418 -0.136,-0.206 -1.168,-0.41 -0.782,0.282 -0.238,-0.014 -0.364,-0.298 -0.222,-0.224 -0.216,-0.34 -0.122,-0.344 -0.01,-0.156 0.336,-0.124 0.554,-0.282 0.452,-0.316 0.298,-0.336 0.12,-0.35 0.016,-0.406 0.13,-1.052 0.132,-0.512 -0.074,-0.632 -0.242,-0.496 0,-0.746 0.088,-0.364 0.04,-0.24 0.34,-0.302 0.234,-0.434 0.132,-0.566 0.012,-0.408 -0.106,-0.252 -0.336,-0.24 -0.562,-0.226 -0.356,-0.288 -0.144,-0.346 0.014,-0.304 0.172,-0.264 -0.424,-0.292 -1.022,-0.322 -0.57,-0.388 -0.12,-0.452 -0.426,-0.592 -0.732,-0.734 -0.386,-1.056 -0.04,-1.38 0.086,-1.124 0.32,-1.302 -0.428,-0.944 -0.47,-0.498 -0.654,-0.366 -0.624,-0.524 -0.594,-0.686 -0.708,-1.012 -0.828,-1.34 -0.556,-0.6 -0.286,0.14 -0.598,-0.126 -0.912,-0.388 -0.794,-0.21 -0.68,-0.03 -0.442,0.088 -0.204,0.206 -0.016,0.202 0.172,0.2 -0.094,0.156 -0.356,0.112 -0.286,0.22 -0.324,0.492 0.008,-0.02 -0.012,0.026 0.004,-0.006 -0.222,0.644 -0.338,0.248 -0.52,0.054 -0.51,0.184 -0.504,0.312 -0.24,0.238 0.028,0.162 -0.11,0.036 -0.246,-0.09 -0.116,-0.212 0.014,-0.336 -0.258,-0.224 -0.526,-0.116 -0.6,-0.358 -0.676,-0.606 -0.468,-0.322 -0.262,-0.04 -0.374,0.24 -0.492,0.52 -0.404,0.204 -0.318,-0.106 -0.246,0.182 -0.172,0.474 -0.318,0.37 -0.696,0.406 -0.046,0.048 -0.796,0.546 -0.638,0.55 -0.742,0.738 -0.35,0.114 -0.334,-0.18 -0.504,-0.18 -0.266,-0.25 0.508,-1.25 0.642,-1.386 0.172,-0.64 0.026,-0.468 -0.062,-0.38 -0.252,-0.398 -0.236,-0.308 -0.022,-0.206 0.076,-0.216 0.258,-0.322 0.332,-0.5 0.308,-1.026 0.37,-1.088 -0.036,-0.66 -0.298,-0.724 -0.164,-0.688 0.13,-0.938 -0.048,-0.366 -0.322,-0.184 -1.056,-0.186 -0.34,0.032 -0.268,0.12 -0.29,0.256 -0.352,0.16 -0.664,0.09 -0.628,-0.318 -0.526,-0.54 -0.126,-0.66 0.386,-0.788 0.27,-0.638 0.16,-0.548 -0.018,-0.26 -0.112,-0.27 -0.158,-0.038 -0.336,-0.336 -0.328,-0.592 -0.312,-0.272 -0.29,0.05 -0.27,0.226 -0.246,0.396 -0.194,0.164 -0.138,-0.074 0.042,-0.35 0.04,-0.332 0.304,-1.292 0.368,-0.84 0.432,-0.39 0.456,-0.166 0.48,0.062 0.406,-0.072 0.324,-0.206 -0.03,-0.118 -0.384,-0.03 -0.154,-0.224 0.082,-0.422 0.168,-0.274 0.264,-0.126 0.256,-0.424 0.246,-0.726 0.302,-0.366 0.352,-0.01 0.606,-0.31 0.858,-0.614 0.33,-0.594 0.324,0.272 -0.122,0.688 0.17,0.144 0.08,0.246 -0.044,0.384 0.072,0.326 0.132,0.158 0.186,0.08 0.91,-0.28 0.556,-0.02 0.234,0.184 0.21,0.114 0.264,0.088 0.204,0.118 0.13,-0.038 0.312,-0.286 0.094,-0.05 0.01,-0.14 -0.218,-0.258 -0.226,-0.216 0.008,-0.48 0.106,-0.832 0.022,-0.432 -0.02,-1.034 -0.04,-0.292 -0.208,-0.336 -0.542,-0.646 -0.152,-0.394 -0.088,-0.394 0.008,-0.25 -0.138,-0.286 -0.07,-0.266 0.242,-0.136 0.294,-0.308 0.148,-0.47 0.14,-0.344 0.204,-0.146 0.176,-0.054 0.118,0.03 0.46,0.616 0.582,-0.308 0.44,0.002 0.378,0.162 z" title="Lao People's Democratic Republic" id="LA"></path></svg>