<svg xmlns="http://www.w3.org/2000/svg" width="8.29" height="10.79"><path d="m 4.28,8.4 -0.16,0.11 -0.298,0.306 -0.298,0.248 -0.602,0.386 -0.136,0.23 -0.134,-0.208 -0.262,0.142 -0.22,0.874 -0.46,0.292 -0.576,-0.026 -0.48,-0.082 -0.644,0.054 0.262,-0.508 0.272,-0.662 0.268,-0.892 0.474,-0.742 0.982,-2.528 0.568,-1.026 0.202,-1.46 0.878,-1.278 0.656,-0.38 0.318,-0.366 -0.008,-0.556 0.98,0.004 0.632,-0.028 0.182,-0.312 0.494,0.142 0.274,0.3 -0.248,0.318 -0.35,0.362 0.02,0.094 0.262,0.03 0.444,0.196 0.272,0.23 0.454,1.428 -0.28,0.586 -0.436,0.524 -0.194,0.046 -0.382,0.26 -0.32,0.356 -0.112,0.224 0.024,0.21 0.452,0.262 0.014,0.106 -0.094,0.084 -0.366,-0.058 -0.472,-0.028 -0.278,0.002 -0.322,0.052 -0.412,0.32 -0.184,0.212 -0.098,0.136 -0.148,0.434 0.166,0.298 0.308,0.17 0.044,0.086 -0.07,0.15 -0.306,0.188 -0.23,0.23 -0.066,0.234 z" title="Lebanon" id="LB"></path></svg>