<svg xmlns="http://www.w3.org/2000/svg" width="23.06" height="23.50"><path d="m 16.96,5.52 0.11,0.066 0.168,0.172 0.16,0.588 0.628,1.898 -0.032,0.524 -0.124,0.342 -0.004,0.334 -0.042,0.332 -0.384,0.54 -1.136,1.108 0.088,0.098 0.27,0.126 0.278,0.064 0.226,-0.034 0.284,0.276 0.306,0.348 0.324,0.182 0.468,0.158 0.408,0.018 0.348,-0.062 0.49,0.07 0.522,0.288 0.186,0.474 0.126,0.414 0.18,0.21 0.026,0.358 0.37,0.314 0.53,0.064 0.686,0.368 0.174,-0.02 0.076,-0.046 0.084,0.07 0.172,1.064 0.134,0.564 -0.072,0.23 -0.09,0.178 -0.006,0.86 -0.312,0.492 -0.05,0.542 -0.086,0.174 -0.332,0.156 -0.002,0.416 -0.09,0.502 -0.034,0.532 0.092,1.396 0.018,1.038 0.15,0.196 -0.646,-0.086 -1.9,-0.794 -1.462,-0.454 -4.902,-2.6 -1.36,-1.044 -1.572,-1.554 -3.49,-3.134 -0.796,-0.502 -1.004,-0.244 -0.62,-0.268 -0.438,-0.29 -0.356,-0.868 -0.874,-0.518 -1.61,-0.736 -1.212,-1.224 0.298,-0.252 0.436,-0.806 0.612,-0.774 0.57,-0.46 0.452,-0.474 0.48,-0.362 0.684,-0.424 1.05,-1.114 0.244,-0.13 0.168,-0.772 0.264,-0.982 0.304,-0.306 0.714,-0.182 0.166,-0.17 0.252,-0.694 0.164,-0.806 0.014,-0.176 0.28,-0.02 0.482,-0.174 0.28,0.078 0.122,0.232 0.064,0.196 1.458,-0.504 0.128,-0.104 0.076,0.018 0.184,0.454 0.104,-0.028 0.088,-0.13 0.098,-0.014 0.114,0.062 0.114,0.21 0.186,0.192 0.316,0.134 0.2,0.182 -0.022,0.486 0.076,0.472 0.138,0.108 0.072,0.282 0.036,0.308 0.076,0.162 0.054,0.312 -0.028,0.336 0.058,0.234 0.232,0.406 0.144,0.51 0.002,0.364 -0.086,0.38 -0.154,0.348 -0.27,0.378 -0.022,0.15 0.16,0.098 0.244,0.022 0.204,-0.08 0.516,0.176 0.27,0.248 0.238,0.31 0.214,0.156 0.096,0.194 0.366,-0.052 0.426,-0.188 0.088,-0.09 0.126,0.048 0.274,0.02 0.192,-0.338 0.154,-0.388 0.33,-0.422 0.162,-0.162 0.042,-0.268 0.018,-0.348 0.12,-0.302 0.272,-0.166 0.294,0.002 0.16,0.062 0.082,0.292 0.236,0.222 z" title="Liberia" id="LR"></path></svg>