<svg xmlns="http://www.w3.org/2000/svg" width="32.98" height="24.69"><path d="m 31.96,7.46 -0.014,0.446 -0.136,0.754 -0.266,0.972 -0.278,0.752 -0.068,0.29 0.21,0.242 1.044,0.114 0.444,0.128 0.086,0.2 -0.232,0.258 -0.334,0.214 -0.148,0.204 -0.266,0.726 -1.736,-0.092 -0.23,0.148 -0.11,0.336 -0.086,0.388 -0.228,0.46 -0.46,0.4 -0.722,0.148 -0.59,0.272 -0.44,0.836 -0.328,1.12 0.008,0.792 0.042,0.442 -0.038,0.252 -0.222,0.274 -0.364,0.726 -0.296,0.802 -0.114,0.434 0.056,0.204 0.334,0.006 0.482,0.164 0.256,0.32 0.094,0.37 0,0.396 -0.09,0.218 -0.386,0.158 -0.604,0.006 -0.352,-0.188 -0.072,-0.15 0.168,-0.382 -0.122,-0.478 -0.25,-0.266 -0.508,0.398 -0.488,0 -0.584,0.356 -0.382,0.568 -0.366,0.208 -0.992,-0.116 -0.246,0.25 -0.206,1.152 -0.118,0.224 -0.828,-0.048 -0.798,0.458 -0.902,0.37 -0.456,-0.256 -0.254,-0.29 -0.492,0.052 -0.536,0.128 -0.36,-0.07 -0.404,0.032 -0.78,0.222 -0.98,-0.072 -0.418,-0.19 -0.04,-0.182 0.03,-0.448 -0.01,-0.696 -0.156,-0.616 -0.47,-0.544 -0.492,-0.382 -0.628,-0.394 -0.464,-0.172 -0.254,-0.044 -0.058,-0.228 -0.092,-0.198 -0.218,-0.172 -0.464,-0.232 -0.394,-0.05 -0.322,0.374 -0.236,-0.468 -0.25,-0.842 0.026,-0.674 0.142,-0.674 0.682,-1.998 -0.036,-0.32 -0.496,-0.56 -0.612,-0.408 -0.338,-0.864 -1.24,-0.05 -1.17,0.048 -0.368,-0.042 -1.114,-0.362 -1.074,-0.584 -0.718,-0.342 -0.604,-0.384 -0.326,-0.404 -0.514,0.108 -0.348,0.004 0.004,-0.07 -0.198,-0.714 0.208,-1.096 -0.376,-1.612 -0.614,-1.946 -0.044,-2.094 -0.044,-0.472 1.508,-1.188 1.902,-1.274 0.432,-0.116 1.752,-0.756 0.234,-0.06 1.58,0.14 1.24,0.18 1.046,-0.022 0.574,-0.194 0.52,0.162 0.418,0.57 0.432,-0.068 0.426,-0.368 2.34,0.336 0.528,-0.008 0.594,0.054 1.096,0.342 0.632,0.314 1.388,-0.19 0.594,-0.01 0.31,-0.124 0.958,-0.86 0.414,-0.148 0.38,-0.154 0.348,0.13 0.228,0.734 0.708,1.262 0.77,0.222 2.126,0.484 0.434,0.254 1.196,1.108 0.718,0.542 0.456,0.432 0.696,0.846 0.402,0.614 0.672,0.464 0.796,0.312 0.298,0.05 z m -31.634,3.84 -0.326,-0.076 0.642,-1.136 0.246,-0.74 0.17,-1.052 0.15,-0.332 0.004,0.478 -0.066,0.796 -0.406,1.354 -0.414,0.708 z" title="Lithuania" id="LT"></path></svg>