<svg xmlns="http://www.w3.org/2000/svg" width="40.34" height="24.56"><path d="m 35.56,5.62 0.662,0.042 0.232,0.166 0.156,0.816 0.752,0.642 0.696,0.53 0.178,0.246 0.054,0.472 -0.044,0.552 -0.088,0.284 -0.292,0.328 -0.254,0.83 -0.036,0.788 -0.4,1.36 0.09,0.024 0.844,-0.244 0.238,0.14 0.186,0.298 0.06,0.85 0.276,0.382 0.282,0.596 0.088,0.462 0.538,0.55 0.042,0.358 0.328,1.254 0.126,0.72 0.058,0.558 -0.16,0.706 -0.144,0.476 -0.168,-0.03 -0.482,0.126 -0.762,0.574 -1.134,1.35 -0.292,0.298 -0.296,1.022 -0.072,0.104 -0.66,-0.046 -0.18,-0.024 -0.66,0.02 -1.442,-0.266 -0.558,0.176 -0.732,1.032 -0.286,0.152 -0.85,0.142 -0.15,0.12 -0.284,-0.048 -0.796,-0.312 -0.672,-0.464 -0.404,-0.614 -0.696,-0.846 -0.456,-0.432 -0.718,-0.542 -1.196,-1.11 -0.434,-0.254 -2.128,-0.484 -0.768,-0.222 -0.708,-1.262 -0.228,-0.736 -0.348,-0.13 -0.382,0.154 -0.412,0.148 -0.958,0.86 -0.31,0.122 -0.594,0.01 -1.388,0.19 -0.632,-0.314 -1.096,-0.342 -0.596,-0.054 -0.528,0.008 -2.34,-0.336 -0.426,0.368 -0.432,0.066 -0.418,-0.57 -0.522,-0.162 -0.574,0.194 -1.046,0.022 -1.24,-0.18 -1.578,-0.14 -0.234,0.06 -1.754,0.758 -0.432,0.114 -1.902,1.274 -1.508,1.188 -0.174,-1.9 0.092,-3.828 0.224,-1.91 1.044,-1.118 0.524,-0.872 0.304,-1.168 0.092,-1.084 0.212,-0.898 1.514,-2.588 1.198,-0.28 1.624,-0.722 1.814,-0.602 0.35,0.766 0.178,0.584 2.184,2.118 0.556,0.71 0.844,2.42 2.024,1.224 1.59,-0.386 0.692,-0.594 1.274,-1.096 0.568,-0.804 0.116,-0.776 -0.226,-3.34 -0.344,-1.456 0.116,-0.908 0.224,0.046 0.542,-0.44 1.778,-0.816 0.356,-0.038 0.406,-0.166 1.12,-0.624 0.362,0.332 0.3,0.376 0.164,0.004 0.082,-0.14 -0.022,-0.242 0.078,-0.172 0.322,0.096 1.298,1.022 0.498,0.24 0.342,0.066 0.408,0.478 1.108,0.318 0.136,0.246 0.084,0.308 1.038,1.288 0.466,0.646 0.92,0.592 0.396,0.14 1.612,-0.604 0.448,-0.208 0.372,-0.004 0.378,0.318 0.864,0.422 0.782,0.134 z" title="Latvia" id="LV"></path></svg>