<svg xmlns="http://www.w3.org/2000/svg" width="88.71" height="85.56"><path d="m 88.9,10.1 -0.216,0.184 -0.308,0.392 -0.194,0.348 -0.52,0.568 -0.434,0.606 0.042,0.886 0.098,0.9 0.292,0.878 0.25,0.976 -0.072,0.636 -0.214,0.782 -0.256,0.652 -0.848,1.338 -0.13,0.32 0.048,0.45 0.516,1.584 0.04,0.498 0.308,1.532 0.282,1.244 0.312,0.978 0.048,0.268 0,1.434 0,1.432 0,1.428 0,1.426 0,1.422 0,1.42 0,1.416 0,1.414 0,1.41 0,1.408 0,1.404 0,1.404 0,1.398 0,1.396 0,1.394 0,1.392 0,1.388 0,1.386 0,1.384 0,1.38 0,1.38 0,1.376 0,1.372 0,1.372 0,1.368 0,1.366 0,1.364 0,1.362 0,1.358 0,1.358 0,1.356 0,1.352 0,2.994 -0.002,2.984 0,2.974 -0.002,2.964 -0.018,0.008 -0.016,0.012 -0.018,0.01 -0.018,0.012 -1.384,-0.002 -1.384,0 -1.386,0 -1.384,-0.002 0,0.742 0,0.74 0,0.738 0,0.74 -2.69,-1.402 -2.688,-1.402 -2.69,-1.406 -2.688,-1.408 -2.69,-1.41 -2.688,-1.412 -2.69,-1.414 -2.688,-1.416 -2.69,-1.42 -2.688,-1.422 -2.69,-1.422 -2.688,-1.426 -2.69,-1.43 -2.688,-1.432 -2.69,-1.432 -2.69,-1.436 -1.856,-0.994 -2.004,0.97 -1.57,0.76 -2.068,0.998 0,0 -2.376,1.294 -1.824,0.992 -0.086,-0.008 -0.082,-0.024 -1.898,-1.684 -1.482,-1.318 -0.658,-0.37 -2.794,-0.674 -2.778,-0.67 -2.924,-0.708 -0.532,-1.078 -0.594,-1.206 -0.802,-1.51 -0.49,-0.926 -0.164,-0.144 -2.242,-0.732 -2.37,-0.72 -1.386,0.436 -0.244,-0.032 -0.392,-0.274 -0.394,-0.374 -0.208,-0.522 -0.556,-0.7 -0.514,-1.606 -0.05,-1.28 -0.102,-0.454 -1.234,-1.808 -1.122,-1.646 -0.746,-1.1 -0.144,-0.498 0.086,-0.612 0.3,-0.55 1.086,-0.65 0.98,-0.71 0.134,-0.492 0.062,-1.358 -0.32,-0.424 -0.236,-0.808 -0.24,-1.094 -0.028,-0.702 0.436,-1.398 0.51,-1.466 -0.324,-1.628 -0.24,-3.278 0.15,-2.592 -0.122,-0.944 -0.086,-0.398 -0.334,-1.228 -0.41,-1.27 -0.184,-0.446 -0.526,-1.026 -0.872,-1.274 -0.452,-0.784 0.62,-0.414 0.55,-0.324 0.67,-0.342 0.95,-0.388 0.492,-0.292 0.21,-0.246 0.714,-1.004 0.372,-0.556 0.508,-0.762 0.222,-0.532 0.006,-0.492 -0.078,-0.596 -0.396,-1.428 -0.324,-1.392 0.252,-0.538 0.202,-0.256 0.442,-0.656 0.176,-0.132 0.954,-0.204 0.38,-0.436 0.292,-0.548 0.074,-0.288 0.416,-0.302 0.498,-0.302 0.306,-0.392 1.004,-0.608 0.916,-0.554 1.066,-0.584 0.824,-0.452 0.174,-0.396 -0.012,-0.342 -0.448,-0.78 0,-0.924 0.03,-0.768 0.044,-0.454 0.198,-1.266 0.012,-0.178 0.856,0.422 0.878,0.168 2.618,1.566 0.826,0.196 1.832,0.186 2.158,-0.64 0.816,-0.116 1.42,0.602 0.626,0.17 1.052,0.046 1.798,0.544 0.458,0.19 1.048,0.868 0.502,0.26 3.722,0.794 0.508,0.526 0.518,1.002 0.022,1.244 0.286,0.9 0.462,1.166 0.558,0.824 0.618,0.686 0.71,0.428 1.632,0.632 1.84,0.242 1.856,0.082 3.186,0.87 2.702,1.002 0.666,0.494 1.354,0.484 2.69,2.348 1.498,0.81 1.05,0.156 0.942,-0.142 1.674,-0.812 0.692,-0.484 1.684,-2.028 0.554,-1.06 0.22,-0.75 -0.054,-0.762 -0.21,-0.686 -0.472,-0.72 -0.33,-0.952 -0.194,-1.718 0.264,-1.194 0.322,-0.716 0.508,-0.732 1.398,-1.402 1.406,-0.99 2.478,-1.296 1.438,-0.014 0.596,-0.144 1.184,-0.918 0.48,-0.034 0.664,0.224 1.952,-0.064 0.86,0.256 1.026,0.572 1.296,0.354 0.914,0.354 0.974,0.454 0.22,1.13 -0.108,0.336 -0.024,0.438 1.01,0.776 2.87,0.364 0.566,0.208 0.79,0.594 0.508,0.182 1.966,0.084 1.146,-0.126 1.092,0.208 0.404,0.2 0.418,0.464 0.506,1.124 z" title="Libya" id="LY"></path></svg>