<svg xmlns="http://www.w3.org/2000/svg" width="67.98" height="54.49"><path d="m 61.5,5.66 0.162,0.506 0.332,0.404 1.184,0.922 0.702,0.568 0.02,0.196 -0.226,0.466 -0.096,0.32 0.184,0.342 0.434,0.412 0.034,0.198 -0.104,0.23 -0.224,0.442 0.476,1.296 0.08,1.254 -0.124,0.89 0.004,0.514 0.062,0.436 0.404,1.006 -0.27,1.662 0.304,0.904 0.418,0.732 0.228,1.304 0.336,0.618 0.55,0.542 0.314,0.182 0.606,0.448 0.434,0.372 0.254,0.556 -0.544,0.456 -0.436,0.408 -0.124,0.44 0.204,0.704 0,0.378 -0.278,0.12 -1.132,-0.04 -0.888,-0.03 -1.02,-0.034 -1.436,-0.068 -0.888,-0.042 -1.22,-0.056 -0.42,0.028 -1.118,0.196 -0.79,0.14 -0.134,0.038 -0.246,0.174 -0.17,0.518 -0.152,0.59 -0.164,0.262 -2.37,0.852 -0.926,0.118 -0.536,-0.088 -0.382,0.07 -0.328,0.182 -0.112,0.274 -0.016,0.352 0.07,0.354 0.228,0.492 0.04,0.492 -0.146,0.348 -0.034,0.348 -0.068,0.376 0.122,0.204 0.228,0.032 0.23,0.172 0.324,0.156 0.268,0.298 -0.012,0.424 -0.224,0.24 -0.198,0.126 -0.888,0.112 -0.702,0.09 -0.918,0.676 -0.978,0.72 -1.156,0.476 -0.51,0.134 -0.89,0.342 -1.066,0.562 -0.526,0.9 -0.662,1.036 -0.638,0.694 -0.87,0.658 -0.812,0.25 -1.02,0.316 -1.286,0.242 -0.91,0.08 -0.272,0.052 -0.802,0.016 -0.392,-0.05 -0.294,-0.028 -0.118,0.074 -0.04,0.162 -0.016,0.372 -0.054,0.426 -0.254,0.358 -0.18,0.16 -0.21,0.066 -0.674,-0.096 -0.564,-0.114 -1.342,-0.152 -0.268,0.036 -0.1,0.044 -0.418,0.244 -0.644,0.512 -0.438,0.448 -0.326,0.21 -0.78,0.11 -0.34,0.164 -1.452,1.118 -0.31,0.272 -1.494,0.97 -0.422,0.322 -0.33,0.318 -0.892,0.716 -0.57,0.314 -0.104,0.186 -0.028,0.436 0,0.964 0,0.924 0,1.34 0,1.34 0,1.54 -0.754,0 0,0.002 -0.004,-0.002 -24.468,0.028 0.008,-0.024 0.76,-0.72 0.514,-0.912 0.872,-0.406 1.824,-0.196 2.71,-0.758 2.432,-1.146 0.688,-0.456 0.736,-0.916 1.224,-1.194 2.286,-1.436 1.052,-0.804 1.604,-2.018 1.066,-1.674 0.886,-1.08 0.612,-0.96 0.43,-0.974 0.242,-1.572 -0.162,-0.616 -0.676,-1.008 -0.452,-0.27 -0.122,-0.476 0.242,-0.84 -0.004,-1.448 0.136,-2.32 0.752,-1.878 1.838,-2.47 0.342,-1.018 0.21,-1.62 0.018,-0.574 2.3,-2.312 1.346,-1.778 0.468,-0.436 1.188,-0.814 4.148,-1.782 2.344,-1.278 1.368,-0.932 0.816,-1.106 2.26,-4.358 2.218,-6.192 0.186,-0.72 0.992,-0.208 0.702,-0.09 0.566,-0.228 0.7,-0.468 0.672,0.188 -0.336,0.318 0,0.768 0.476,0.898 0.828,1.008 1.504,1.278 1.172,0.512 1.674,0.308 1.952,-0.56 1.092,-0.01 0.53,-0.242 0.578,0.354 1.098,0.114 1.06,-0.186 0.802,-0.536 0.51,-0.618 0.08,0.304 0.024,0.328 0.156,0.192 0.316,0.784 0.166,0.306 0.61,-0.05 0.53,0.154 1.196,-0.074 z" title="Morocco" id="MA"></path></svg>