<svg xmlns="http://www.w3.org/2000/svg" width="19.71" height="24.56"><path d="m 8.94,24.82 -0.28,-0.506 -0.284,-0.442 -0.208,-0.238 0.088,-0.11 0.226,-0.126 0.162,-0.15 -0.018,-0.528 -0.12,-0.608 -0.11,-0.294 -0.01,-0.462 -0.078,-0.72 0.11,-1.34 0.452,-1.688 0.25,-0.842 -0.122,-0.462 0.094,-1.08 -0.196,-0.534 -0.306,-0.7 -0.438,-1.526 -0.548,-0.532 -0.676,-0.586 -0.288,-0.442 -0.194,-0.488 -0.402,-0.486 -0.462,-0.446 -0.552,-1.118 -0.286,-0.506 -0.088,-0.134 -0.63,-0.72 -0.33,-0.65 -0.168,-0.536 -0.096,-0.494 -0.444,-0.982 -0.402,-0.738 -0.382,-0.528 -0.176,-0.374 -0.448,-0.47 -0.638,-0.376 -0.414,-0.064 -0.532,0.03 0.122,-0.288 1.158,-0.782 0.302,0.128 0.606,0.03 1.234,-0.026 0.608,-0.516 0.376,0.144 0.306,-0.232 0.51,-0.292 0.074,0.062 0.064,0.046 0.788,0.13 0.594,0.28 0.396,0.43 0.41,0.266 0.42,0.104 0.234,0.216 0.046,0.324 0.396,0.16 0.742,-0.004 0.314,0.214 -0.112,0.434 0.076,0.142 0.264,-0.148 0.2,0.128 0.104,0.32 0.12,0.152 0.378,-0.502 0.4,0.05 0.966,0.208 0.516,1.038 0.322,0.372 0.282,0.152 0.356,-0.162 0.316,-0.192 0.18,0.09 0.392,0.686 0.09,0.896 -0.002,0.36 -0.138,0.608 -0.198,0.644 -0.156,0.42 0.066,0.336 0.14,0.282 0.228,0.092 0.748,0.568 0.28,0.396 0.406,0.292 0.308,0.016 0.16,0.162 0.056,0.2 -0.042,0.504 -0.172,0.472 0.022,0.304 0.272,0.36 0.03,0.416 0.018,0.268 0.144,0.206 0.686,0.458 0.886,0.442 0.226,0.38 0.138,0.48 -0.044,0.806 -0.058,0.7 1.16,0.94 -0.132,0.176 -0.18,0.192 -1.108,0.142 -0.226,0.078 -0.482,-0.706 -0.254,-0.09 -0.236,0.26 -0.28,0.144 -0.334,-0.072 -0.36,-0.218 -0.182,-0.154 -0.146,-0.018 -0.224,0.154 -0.298,-0.066 -0.196,-0.174 -0.282,0.6 -0.172,0.126 -0.108,-0.018 -0.022,-1.02 -0.082,-0.154 -0.224,-0.026 -0.54,0.244 -0.514,0.314 -0.174,0.278 0.018,0.502 0.074,0.598 0.35,0.906 -0.192,0.394 -0.136,0.628 -0.55,0.574 -0.624,0.334 -0.052,0.684 -0.346,0.466 -0.592,0.466 -0.396,0.562 0.1,0.382 0.024,0.364 -0.068,0.246 -0.014,0.19 -0.156,0.084 -0.904,0.07 -0.256,0.118 z" title="Moldova" id="MD"></path></svg>