<svg xmlns="http://www.w3.org/2000/svg" width="40.56" height="79.74"><path d="m 35.26,2 0.258,0.598 0.3,0.574 0.938,1.388 0.402,0.534 0.342,0.568 0.166,1.134 0.598,1.764 0.562,2.656 0.172,2.73 0.174,1.254 0.438,1.182 0.718,1.228 0.232,1.366 -0.44,1.41 -0.634,1.33 -0.164,0.25 -0.298,0.342 -0.134,-0.014 -0.508,-0.344 -0.416,-0.562 -0.526,-1.322 -0.192,-0.67 -0.22,-0.106 -0.616,0.058 -0.446,0.416 -0.082,0.262 0.096,0.746 0.17,0.67 0.074,0.682 0.014,0.858 0.166,0.26 0.244,0.218 0.254,0.562 0.044,1.34 -0.156,0.678 -0.434,0.584 0.026,0.322 0.162,0.332 -0.154,0.2 -0.578,0.252 -0.234,0.224 -0.312,0.594 -0.506,1.212 -0.068,0.62 0.316,1.888 -0.088,1.34 -0.644,2.57 -0.372,1.222 -0.526,1.462 -0.804,1.93 -0.796,2.43 -0.676,2.506 -0.5,1.51 -0.568,1.49 -0.778,2.638 -0.66,2.686 -0.982,2.964 -1.356,3.318 -0.146,0.434 -0.282,1.702 -0.304,1.48 -0.364,1.468 -0.76,2.432 -0.086,0.75 -0.172,0.722 -0.732,1.532 -0.31,0.57 -0.218,0.606 -0.124,0.77 -0.218,0.744 -0.536,1.37 -0.798,1.18 -0.544,0.43 -1.176,0.624 -0.596,0.126 -1.322,0.014 -1.28,0.356 -1.334,0.684 -1.284,0.786 -0.492,0.374 -0.542,0.214 -1.696,0.044 -0.508,-0.17 -1.698,-1.292 -0.658,-0.212 -1.246,-0.176 -0.376,-0.11 -0.342,-0.168 -0.504,-0.674 -1,-0.568 -0.24,-0.178 -0.152,-0.392 -0.104,-0.422 -0.26,-0.472 -0.192,-0.898 -0.326,-0.626 -0.92,-1.106 -0.098,-0.354 -0.074,-1.172 0.03,-0.792 -0.09,-1.448 0.106,-0.68 0.324,-0.612 -0.132,-0.662 -0.344,-0.696 -0.128,-0.718 -0.252,-0.654 -0.964,-1.176 -0.226,-0.578 -0.156,-0.598 -0.364,-1.862 -0.044,-0.648 0.054,-1.368 0.134,-0.704 0.234,-0.49 0.058,-0.366 0.152,-0.314 0.228,-0.25 0.154,-0.298 0.36,-1.74 0.456,-0.386 0.676,-0.222 0.542,-0.454 0.312,-0.612 0.312,-1.262 0.852,-1.25 0.304,-0.656 0.688,-0.992 0.608,-1.392 0.184,-0.656 0.132,-0.67 0.154,-1.47 0.116,-0.73 -0.024,-0.724 -0.348,-0.742 -0.83,-1.346 -0.026,-0.25 0.066,-1 -0.07,-0.722 -0.306,-0.72 -0.392,-0.676 -0.386,-1.264 -0.188,-2.086 0.04,-0.752 -0.114,-0.668 -0.28,-0.636 0.2,-1.11 2.482,-4.02 0.082,-0.472 -0.1,-1.222 0.052,-0.71 0.086,-0.264 0.19,-0.154 0.424,-0.074 2.006,-0.174 0.258,-0.124 0.5,-0.336 0.688,-0.652 0.316,-0.188 0.272,0.07 0.174,0.278 0.224,0.152 0.81,-0.294 0.31,-0.008 0.318,0.048 0.148,-0.272 0.088,-0.364 0.118,-0.256 0.216,-0.146 1.042,-0.08 0.666,-0.104 0.86,-0.254 0.184,0.05 0.694,0.916 0.21,0.078 0.27,0.038 0.236,-0.166 -0.564,-0.478 -0.084,-0.27 0.03,-0.308 0.302,-0.658 0.504,-0.502 1.12,-0.762 1.164,-0.88 0.338,-0.06 0.286,0.138 0.22,1.04 -0.028,0.17 0.186,0.024 0.216,-0.128 0.192,-0.418 0.01,-0.348 -0.156,-0.334 -0.076,-0.282 -0.006,-0.26 0.59,-0.614 0.464,-0.584 0.214,-0.698 0.186,-0.322 0.49,-0.362 0.144,0.056 0.114,0.294 0.064,0.312 -0.126,0.31 -0.178,0.306 -0.072,0.408 0.276,0.08 0.26,-0.098 0.38,-0.738 0.434,-0.698 0.258,-0.364 0.326,-0.252 0.542,0.05 0.526,0.156 -0.858,-0.736 -0.214,-1.008 1.02,-1.742 0.01,-0.362 0.148,-0.112 0.07,-0.14 -0.528,-0.586 -0.1,-0.292 0.07,-0.442 0.252,-0.392 0.23,-0.274 0.326,-0.106 0.258,0.15 0.568,0.482 0.382,0.074 0.462,-0.462 0.378,-0.578 0.568,-0.396 0.646,-0.246 0.982,-0.91 0.64,-1.9 0.05,-0.554 -0.142,-0.67 -0.226,-0.638 -0.378,-0.796 0.098,-0.176 0.538,0.106 0.18,-0.112 0.584,-0.704 0.962,-1.348 0.316,0.002 0.272,0.25 0.102,0.37 0.192,0.272 0.65,0.64 0.326,0.46 z m -6.716,5.332 0.008,0.208 -0.738,-0.086 -0.116,-0.718 0.362,-0.022 0.08,-0.294 0.22,-0.036 0.238,0.638 -0.054,0.31 z m 8.95,20.454 -0.63,1.072 0.178,-0.894 0.73,-1.288 0.208,-0.098 -0.486,1.208 z" title="Madagascar" id="MG"></path></svg>