<svg xmlns="http://www.w3.org/2000/svg" width="14.35" height="11.28"><path d="m 10.64,0.34 0.866,1.124 0.474,0.456 0.558,0.344 0.638,0.252 0.23,0.24 0.406,1.19 0.194,0.452 0.27,0.134 0.066,0.13 0.012,0.172 -0.304,0.834 -0.124,1.862 -0.076,0.148 -0.318,-0.008 -0.424,0.04 -0.16,0.144 -0.17,0.998 -0.682,0.284 -0.618,0.16 -0.52,-0.036 -0.916,-0.236 -0.298,-0.026 -0.256,0.134 -0.818,0.072 -0.358,0.174 -0.842,1.164 -0.852,0.402 -0.292,0.202 -0.65,-0.256 -0.312,-0.028 -0.452,0.296 -0.988,0.03 -0.266,0.052 -0.762,0.046 -0.032,-0.16 -0.142,-0.234 -0.356,-0.11 -0.726,0.094 -0.176,-0.17 -0.3,-0.988 -0.232,-0.158 -0.262,-0.332 -0.442,-1.076 -0.012,-0.472 0.03,-0.414 -0.246,-0.968 0.152,-0.246 0.228,-0.154 0.002,-0.392 -0.064,-0.594 0.27,-1.168 0.072,-0.086 0.07,0.056 0.652,0.094 0.17,-0.148 0.108,-0.232 0.034,-0.858 0.156,-0.396 1.58,-0.756 0.466,-0.028 0.356,0.348 0.282,0.222 0.17,-0.008 0.062,-0.222 0.192,-0.432 0.324,-0.246 0.962,-0.21 0.008,0 0.314,0.042 0.678,-0.194 0.424,-0.268 0.216,-0.04 0.286,-0.102 0.412,0.014 0.418,0.116 0.532,-0.154 0.522,-0.25 0.21,0.064 0.226,0.212 z" title="Macedonia" id="MK"></path></svg>