<svg xmlns="http://www.w3.org/2000/svg" width="68.70" height="75.15"><path d="m 68.7,14.24 -1.966,0 -2.626,0.002 -1.79,0 -1.838,0 -1.722,0 0.15,1.402 0.16,1.528 0.16,1.524 0.16,1.522 0.16,1.518 0.16,1.516 0.16,1.512 0.16,1.508 0.16,1.506 0.16,1.502 0.16,1.5 0.16,1.5 0.16,1.496 0.16,1.494 0.16,1.492 0.16,1.488 0.16,1.486 0.16,1.484 0.16,1.48 0.16,1.478 0.16,1.476 0.16,1.474 0.16,1.47 0.16,1.468 0.16,1.466 0.16,1.464 0.16,1.462 0.16,1.46 0.16,1.458 0.16,1.456 0.16,1.454 0.16,1.452 0.16,1.45 0.156,1.404 0.668,0.736 0.84,0.924 -0.246,1.308 -0.292,1.558 -0.32,1.698 -1.186,0 -1.146,0 -1.144,0 -1.144,0 -1.144,0 -1.146,0 -1.144,0 -1.144,0 -1.144,0 -1.144,0 -1.146,0 -1.144,0 -1.144,0 -1.144,0 -1.146,0 -1.144,0 -1.144,0 -1.066,0 -0.656,-0.04 -0.234,-0.132 -0.084,-0.878 -0.196,0.056 -0.232,0.258 -0.12,0.28 0.042,0.366 -0.038,0.31 -0.736,0.122 -0.994,0.208 -1.046,0.16 -1.056,-0.058 -0.36,-0.072 -0.382,-0.116 -0.84,-0.126 -0.458,-0.01 -0.524,0.028 -0.618,0.07 -0.198,0.162 -0.466,0.654 -0.452,0.758 -0.294,-0.004 -0.332,-0.416 -0.91,-0.784 -1.102,-1.032 -0.502,-0.512 -0.266,-0.066 -0.528,0.368 -0.444,0.354 -0.472,0.5 -0.214,0.48 -0.17,0.566 -0.076,0.666 -0.172,0.776 -0.382,0.626 -0.452,0.472 -0.336,0.222 -0.13,0.122 -0.988,-0.368 -0.124,-0.046 -0.596,-0.416 -0.288,-0.494 -0.47,-0.372 -0.652,-0.25 -0.424,-0.284 -0.198,-0.32 -0.24,-0.212 -0.254,-0.11 -0.024,-0.114 0.06,-0.158 -0.06,-0.292 -0.382,-0.652 -0.356,-0.3 -0.304,0.048 -0.172,-0.08 -0.104,-0.144 -0.042,-0.21 -0.208,-0.182 -0.36,-0.08 -0.29,-0.484 -0.218,-0.89 -0.284,-0.694 -0.348,-0.498 -0.25,-0.186 -0.184,-0.034 -0.062,-0.078 -0.05,-0.144 -0.272,-0.052 -0.382,0.15 -0.344,-0.05 -0.168,-0.244 -0.234,-0.022 -0.298,0.2 -0.33,-0.058 -0.36,-0.318 -0.2,-0.316 -0.038,-0.314 -0.622,-0.626 -1.204,-0.94 -1.312,-0.44 -1.42,0.058 -0.796,-0.044 -0.174,-0.148 -0.174,0.012 -0.176,0.172 -0.186,0.038 -0.198,-0.096 -0.124,0.072 -0.048,0.24 -0.5,0.124 -0.95,0.002 -0.768,0.148 -0.584,0.292 -0.828,0.126 -1.072,-0.04 -0.646,-0.108 -0.22,-0.172 -0.308,-0.042 -0.396,0.092 -0.356,0.466 -0.314,0.838 -0.258,0.478 -0.206,0.118 -0.22,0.624 -0.124,1.044 -0.186,0.458 -0.002,-2.604 0.306,-0.974 0.1,-0.856 0.656,-1.894 0.782,-1.552 0.722,-2.064 0.272,-2.004 -0.092,-1.966 -0.214,-1.752 -0.366,-1.16 -0.354,-1.682 -0.522,-0.888 -0.956,-0.776 -0.214,-0.454 0.222,-0.17 0.582,-0.116 0.37,-0.606 -0.784,0.234 0.906,-1.86 0.282,-1.268 -0.044,-0.834 0.172,-0.516 -0.692,-1.118 -0.538,-1.41 -0.278,-0.222 -0.288,-0.118 -0.026,0.332 -0.156,0.296 -0.336,-0.178 -0.594,-1.026 -0.83,-1.672 -0.292,-0.172 -0.242,0.23 -0.152,0.22 -0.28,1.396 -0.09,-0.554 0.122,-0.652 0.206,-0.804 0.232,-1.118 0.72,0 1.288,-0.002 1.288,-0.002 1.288,0 1.288,-0.002 1.288,-0.002 1.286,-0.002 1.288,0 1.288,-0.002 1.288,-0.002 1.288,0 1.288,-0.002 1.288,-0.002 1.286,0 1.288,-0.002 1.288,-0.002 1.286,0 0.85,0 -0.05,-0.796 -0.04,-0.632 -0.054,-0.85 -0.054,-0.846 -0.052,-0.848 -0.05,-0.798 -0.05,-0.798 -0.046,-0.74 -0.042,-0.68 -0.074,-0.392 -0.274,-0.778 -0.058,-0.386 0.074,-0.408 0.182,-0.384 0.502,-0.704 0.76,-0.542 0.876,-0.626 0.668,-0.478 0.342,-0.118 1.046,-0.166 0.824,-0.362 0.802,-0.352 0.336,-0.196 0.04,-0.662 0,-0.74 0,-0.83 0,-0.832 0,-0.832 0,-0.834 0,-0.834 0,-0.834 0,-0.836 0,-0.836 0,-0.836 0,-0.838 0,-0.84 0,-0.84 0,-0.842 0,-0.842 0,-0.844 0,-0.844 0,-0.74 0.84,0 1.046,0 1.044,0 1.046,0 1.046,0 1.046,0 1.046,0 1.046,0 1.046,0 1.046,0 1.046,0 1.046,0 1.046,0 1.046,0 1.044,0 1.046,0 1.046,0 1.142,0 0,-0.708 0,-1.018 -0.002,-1.4 0,-1.408 -0.002,-1.24 0,-1.242 -0.002,-1.046 1.056,0.694 1.056,0.694 1.056,0.694 1.056,0.692 1.056,0.692 1.056,0.69 1.054,0.69 1.056,0.69 1.056,0.69 1.056,0.688 1.056,0.688 1.056,0.686 1.056,0.686 1.056,0.686 1.056,0.686 1.054,0.684 0.884,0.572 1.358,0.922 1.266,0.858 1.25,0.858 z m -64.834,31.93 -0.36,0.576 -0.16,-0.22 -0.062,-0.378 0.32,-0.542 0.152,-0.28 0.278,-0.102 -0.168,0.946 z" title="Mauritania" id="MR"></path></svg>