<svg xmlns="http://www.w3.org/2000/svg" width="18.09" height="44.37"><path d="m 12.84,12.38 -0.746,-0.014 -0.938,0.074 -0.23,0.18 -0.07,0.398 -0.294,0.82 -0.164,0.302 -0.346,0.552 -0.488,0.778 -0.102,0.254 0.016,0.262 0.288,1.058 0.302,1.112 0.096,0.436 0.214,1.48 0.12,1.048 0.018,0.616 0.102,0.824 0.268,0.446 0.282,0.28 1.06,0.168 0.316,0.206 0.6,0.526 1.312,1.456 0.72,0.93 0.634,0.818 1.132,1.522 0.88,1.184 0.11,1.112 0.146,0.162 -0.296,0.826 -0.194,1.334 0.14,0.886 -0.058,1.514 -0.162,1.614 -0.202,0.578 -0.26,0.218 -0.616,0.174 -1.352,0.202 -0.202,0.19 -0.174,0.314 -0.274,0.746 -0.322,0.752 -0.102,0.322 0.062,0.076 0.29,0.384 0.288,0.982 0.052,1.686 -0.1,0.126 -0.4,0.074 -0.43,-0.022 -0.178,-0.096 -0.16,-0.188 -0.116,-0.36 0.282,-0.25 0.1,-0.44 -0.18,-0.376 -0.362,-0.084 -0.46,-0.346 -0.98,-1.126 -0.82,-0.79 -0.476,-0.654 -0.486,-0.26 -0.14,-0.16 -0.118,-0.276 -0.002,-0.398 0.044,-0.292 -0.152,-0.33 -0.492,-0.508 -0.224,-0.282 -0.012,-0.336 0.208,-0.324 0.42,-0.396 0.318,-0.802 0.114,-0.518 0.594,-1.042 0.082,-0.904 0.012,-0.722 -0.036,-0.54 -0.152,-1.106 -0.106,-0.764 -0.732,-1 -0.238,-0.094 -0.694,0.088 -0.6,0.146 -0.294,0.208 -0.446,0.01 -1.17,0.174 -0.368,0.074 -0.212,0.18 -0.124,0.038 -0.736,-0.772 -0.646,-0.834 -0.822,-1.416 -0.234,-0.17 -0.3,-0.416 -0.25,0.104 -0.344,0.292 -0.186,0.08 -0.096,-0.008 -0.062,-0.074 -0.076,-0.186 -0.266,-0.534 -0.298,-0.382 -0.316,-0.148 -0.258,-0.176 0.114,-0.17 0.12,-0.122 -0.052,-0.126 -0.144,-0.184 -0.56,-0.266 -0.008,-0.114 0.494,-0.23 0.312,-0.274 0.212,-0.262 0.268,-0.574 0.218,-0.572 0.164,-0.186 0.056,-0.378 -0.038,-0.426 0.11,-0.544 0.052,-0.514 -0.166,-0.2 -0.14,-0.346 0.166,-0.588 0.26,-0.406 1.246,-0.422 0.868,-0.382 0.184,-0.166 0.294,-0.326 0.164,-0.318 -0.118,-0.094 -0.682,-0.008 -0.168,-0.122 -0.492,-1.118 0.272,-1.28 0.024,-0.502 -0.006,-0.624 -0.086,-0.454 -0.216,-0.19 -0.132,-0.244 0.036,-0.666 0.2,-0.08 0.432,-0.88 0.192,-0.518 -0.23,-0.414 -0.254,-0.59 -0.116,-0.376 -0.064,-0.124 0.176,-0.232 0.292,-0.224 0.328,-0.062 0.346,-0.106 1.09,-1.092 0.014,-0.212 -0.198,-0.366 -0.408,-0.552 -0.09,-0.224 -0.048,-0.664 -0.162,-0.198 -0.598,-0.446 -0.46,-0.47 0.144,-0.476 0.078,-0.52 -0.228,-0.286 -0.338,-0.296 -0.21,-0.432 -0.096,-0.322 -0.266,-0.128 -0.246,-0.004 -0.18,0.2 -0.194,-0.018 -0.236,-0.07 -0.078,-0.278 -0.014,-0.3 -0.162,-0.204 -0.156,-0.284 -0.02,-0.15 0.098,-0.044 0.206,-0.026 0.878,0.57 0.532,0.026 0.592,0.106 0.506,0.502 0.262,0.066 0.334,-0.07 0.956,-0.052 0.384,0.072 0.494,0.294 0.194,0.04 0.31,0.012 0.054,-0.08 0.032,-0.174 -0.054,-0.352 0.07,-0.19 0.188,-0.206 0.522,0.24 1.304,1.096 0.04,0.142 0.832,1.088 0.27,0.46 0,0.244 0.256,0.952 0.056,0.446 -0.058,0.34 0.01,0.272 0.1,0.388 -0.034,0.164 0.296,0.57 0.142,0.48 0.03,0.468 -0.084,0.458 -0.262,0.666 -0.044,0.268 0.058,0.244 0.17,0.266 0.282,0.286 0.212,0.344 0.144,0.406 0.122,0.184 0.152,-0.004 0.28,0.062 0.224,0.238 0.26,0.398 0.086,0.458 0.052,0.198 z m -1.784,2.484 -0.112,0.302 -0.232,-0.004 -0.218,-0.268 0.07,-0.208 0.21,-0.064 0.184,0.078 0.098,0.164 z m 0.436,0.552 -0.198,0.046 -0.124,-0.102 0.03,-0.304 0.07,-0.22 0.196,-0.034 0.136,0.058 0.094,0.1 0.002,0.162 -0.058,0.166 -0.148,0.128 z" title="Malawi" id="MW"></path></svg>