<svg xmlns="http://www.w3.org/2000/svg" width="88.68" height="69.34"><path d="m 83.16,3.18 0.616,3.496 0.468,2.99 0.032,1.9 0.022,0.496 0.192,0.334 0.436,0.336 1.76,2.736 -0.376,0.474 0.264,0.846 0.456,0.362 1.464,1.624 0.19,0.32 -0.08,0.256 -1.026,1.906 -0.174,0.466 -0.204,2.422 -0.144,1.706 -0.2,2.336 -0.236,2.79 -0.19,2.346 -0.252,3.096 -0.238,2.92 -1.472,1.6 -2.612,2.832 -2.126,2.3 -1.066,1.538 -2.082,2.998 -0.924,1.936 -0.724,1.01 -0.366,0.43 0.324,1.416 0.564,2.472 -1.008,0.016 -0.578,0.176 -0.73,0.562 -0.816,0.222 -0.992,0.49 -0.628,0.392 -0.59,0.31 -0.812,0.758 -0.264,0.576 -0.808,0.114 -1.13,-0.094 -0.718,-0.582 -1.664,-0.606 -1.08,-0.246 -0.5,-0.074 -2.542,-0.104 -2.712,0.238 -1.382,0.282 -0.252,0.062 -0.784,0.366 -0.65,0.406 -1.758,1.858 -2.328,-0.062 -1.368,-0.206 -1.162,-0.29 -1.654,-0.868 -2.026,-1.326 -0.782,-0.18 -0.702,-0.104 -0.234,0.018 -2.42,1.32 -0.466,-0.028 -0.57,0.148 -0.376,0.328 -0.278,0.164 -0.29,0.028 -0.382,-0.072 -0.372,-0.202 -0.372,-0.368 -0.998,-1.47 -0.206,-0.258 -0.426,-0.436 -0.716,-0.68 -0.486,-0.316 -0.296,-0.082 -0.352,0.054 -1.944,-0.584 -1.942,-0.618 -0.428,0.08 -0.304,0.128 -0.672,0.456 -0.792,0.084 -1.006,-0.036 -0.552,-0.062 -0.888,0.152 -0.592,0.182 -0.776,0.31 -1.006,0.842 -0.288,0.108 -0.244,0.14 -0.336,2.304 -0.274,0.692 -0.51,0.914 -1.002,0.872 -0.688,0.528 -0.016,0.712 -0.054,1.164 -0.01,0.798 0.046,0.52 -0.116,0.248 -0.046,0.226 0.036,0.338 0.164,0.162 0.096,0.212 -0.064,0.172 -0.324,0.204 -0.358,-0.52 -0.46,-0.366 -0.504,-0.164 -0.342,-0.266 -0.176,-0.368 -0.662,-0.72 -1.524,-1.426 -0.156,-0.034 -0.254,-0.056 -0.43,0.17 -0.264,0.234 -0.186,0.092 -0.28,0.014 -0.724,0.18 -0.58,0.232 -0.016,0.192 0.278,1.078 -0.132,0.584 -0.258,-0.278 -0.836,-1.088 -0.578,-0.806 -0.102,-0.18 -0.082,-0.278 0.056,-0.12 0.23,-0.084 0.53,-0.106 0.098,-0.084 0.026,-0.222 -0.082,-0.414 -0.29,-0.56 -0.31,-0.372 -0.172,-0.072 -0.318,-0.012 -0.344,0.05 -0.646,0.454 -0.286,0.084 -0.668,-0.038 -0.594,-0.088 -0.362,-0.234 -1.076,-0.904 -1.19,-0.954 -0.5,-0.136 -0.116,-0.098 -0.078,-0.734 0.02,-0.884 0.066,-0.232 0.496,0.138 0.528,0.064 0.17,-0.16 -0.424,-0.314 -0.606,-0.318 -0.226,-0.482 -0.174,-0.168 -0.272,-0.172 -0.314,-0.088 -0.314,-0.136 -0.216,-0.14 -0.354,-0.064 -0.372,-0.102 -0.538,-0.782 -0.524,-0.762 -0.308,-0.6 -0.11,-0.36 0.156,-0.614 -0.156,-0.242 -0.584,-0.624 -0.488,-0.58 0.12,-0.898 0.1,-0.75 0.004,-0.474 0.078,-0.268 0.062,-0.302 0.324,-0.096 0.824,0.008 1.602,0.14 1.284,-0.158 0.072,-0.028 0.906,-0.804 1.004,-0.844 1.51,-0.082 1.628,-0.088 1.284,-0.044 1.868,-0.064 1.508,-0.056 1.748,-0.064 0.052,-0.388 0.108,-0.096 0.172,-0.014 1.284,0.208 1.208,0.202 0.092,-0.734 1.06,-0.918 0.602,-0.188 0.148,-0.16 0.19,-0.31 0.118,-0.48 0.052,-0.34 0.224,-0.284 0.164,-0.522 0.216,-0.912 0.598,-0.96 0.342,-1.304 0.05,-1.26 0.066,-0.958 0.178,-0.196 -0.006,-1.706 -0.004,-1.718 -0.006,-1.454 -0.006,-1.812 -0.004,-1.592 -0.006,-1.73 -0.004,-1.554 -0.004,-1.032 1.226,-0.246 1.266,-0.256 1.852,-0.374 2.006,-0.404 2.186,-0.442 0.496,-0.266 1.65,-1.498 0.746,-0.678 1.48,-1.344 1.142,-1.042 1.452,-1.324 1.538,-1.334 1.226,-1.068 1.928,-1.21 2.906,-1.826 2.906,-1.832 2.908,-1.836 2.906,-1.84 2.906,-1.842 2.906,-1.848 2.908,-1.852 2.906,-1.856 2.924,0.708 2.778,0.67 2.794,0.674 0.658,0.37 1.482,1.318 1.898,1.684 0.082,0.024 0.086,0.008 1.824,-0.992 2.376,-1.294 z" title="Niger" id="NE"></path></svg>