<svg xmlns="http://www.w3.org/2000/svg" width="67.02" height="54.25"><path d="m 61.28,0.96 0.882,1.234 0.948,1.326 0.738,1.03 0.54,2.666 0.058,0.506 0.042,0.228 0.042,0.21 0.07,0.362 0.424,0.156 0.8,0.072 0.582,0.262 0.348,0.434 0.034,0.072 0.184,0.334 0.042,0.242 -0.05,0.696 -0.118,0.894 -0.2,0.576 0.112,0.784 -0.036,0.334 -0.088,0.228 -0.358,0.262 -0.486,0.256 -1.162,0.756 -0.332,0.112 -0.486,0.02 -0.422,0.188 -0.5,0.408 -1.08,1.516 -0.922,1.522 -0.32,1.258 -0.36,1.2 -0.812,0.766 -0.114,0.43 -0.034,0.25 -0.028,0.578 -0.098,0.956 -0.126,0.46 -0.13,0.136 -0.876,0.292 -0.504,0.35 -0.302,0.694 -0.11,0.75 -0.176,0.854 -0.1,0.75 -0.136,0.388 -0.288,0.408 -0.446,0.438 -0.386,0.248 -1.006,0.162 -0.518,0.992 -0.438,0.774 -0.012,0.31 -0.422,1.604 -0.734,1.208 -0.048,0.426 -0.002,0.35 -0.918,1.062 -0.244,0.314 -0.234,0.41 0.232,0.396 0.258,0.36 0.038,0.122 -0.416,0.338 -0.728,0.588 -0.434,0.352 -0.096,0.192 -0.064,0.882 -0.126,0.238 -0.29,0.324 -0.426,0.356 -0.432,0.276 -0.49,0.192 -0.47,0.072 -0.264,-0.112 -0.15,-0.268 -0.264,-1.08 -0.134,-0.232 -0.306,-0.21 -0.604,-0.592 -0.612,-0.598 -0.738,-0.42 -0.158,0.03 -0.122,0.114 -0.21,0.602 -0.206,0.22 -0.388,0.076 -0.674,0.004 -0.492,-0.084 -0.112,-0.12 -0.1,-0.26 -0.136,-0.208 -0.588,0.422 -0.924,0.664 -0.3,0.108 -0.23,0.134 -0.304,0.618 -0.37,0.662 -0.482,0.346 -0.47,0.292 -0.27,0.254 -0.386,0.3 -0.756,0.75 -1.002,0.992 -0.354,0.512 -0.35,0.766 -0.204,0.848 -0.222,0.928 -0.326,1.492 -0.48,0.844 -0.42,0.67 -0.312,0.526 -0.164,0.434 -0.068,-0.014 -0.164,0.186 -0.468,-0.122 -0.21,-0.378 -0.29,-0.062 -0.5,-0.554 -0.106,0.092 0.528,1.408 -0.196,0.55 -1.486,0.012 -1.278,0.184 -0.878,-0.016 -0.44,-0.2 -0.196,-0.528 -0.076,0.054 -0.044,0.282 -0.278,0.222 -0.986,0.042 -0.436,-0.36 -0.352,-0.404 -0.378,-0.178 0.058,0.168 0.434,0.394 -0.052,0.566 -0.794,0.656 -0.506,0.038 -0.31,-0.282 -0.162,-0.46 -0.082,-0.68 -0.208,-0.444 -0.112,0 0.104,0.406 0.034,0.332 0.004,0.69 0.378,0.536 -0.58,0.166 -0.236,0.006 -0.46,0.012 -0.088,-0.2 -0.088,-0.444 -0.122,-0.116 -0.142,0.752 -0.306,0.052 -0.212,-0.006 -0.912,0.164 -0.204,-0.032 -0.042,-0.14 0.108,-0.208 -0.024,-0.338 -0.316,0.26 -0.05,0.522 -0.18,0.084 -0.542,-0.074 -0.594,-0.268 -0.362,-0.274 -0.604,-0.382 -1.184,-1.07 -0.192,-0.482 -0.338,-0.59 -0.252,-0.6 -0.364,-1.024 0.112,-0.074 0.274,0.088 0.134,-0.154 -0.492,-0.112 -0.102,-0.12 -0.034,-0.36 0.022,-0.44 0.4,-0.154 0.346,-0.076 0.174,-0.266 0.1,-0.268 -0.918,0.406 -0.862,-0.46 -0.186,-0.278 0.094,-0.214 0.412,-0.032 0.588,0.016 0.352,-0.208 -0.216,-0.074 -0.38,0.008 -0.14,-0.138 0.012,-0.334 -0.124,0.074 -0.164,0.296 -0.58,0.218 -0.34,-0.218 -0.034,-0.484 -0.074,-0.218 -0.286,-0.17 -1.016,-1.282 -1.276,-1.07 -1.134,-0.738 -1.714,-0.352 -3.588,0.014 -0.202,-0.102 0.22,-0.168 0.314,-0.114 1.154,-0.598 -0.194,-0.08 -1.2,0.374 -0.41,0.036 -0.532,0.718 -3.16,0.12 -0.37,0.038 0.008,-0.328 0.154,-0.944 0.102,-0.372 0.118,-0.28 -0.122,-0.336 -0.12,-0.456 -0.058,-0.716 0.148,-0.222 0.05,-0.27 -0.036,-0.424 0,-1.416 0.086,-0.154 0.102,-0.118 0.006,-0.188 -0.192,-0.366 -0.178,-0.418 0.006,-0.602 -0.072,-0.582 -0.122,-0.266 0.092,-0.992 0.052,-1.256 -0.048,-0.558 0.116,-0.394 0.062,-0.97 -0.01,-0.95 0.236,-1.502 0.692,-0.072 0.824,-0.126 0.368,-0.59 0.212,-0.748 -0.068,-0.74 0.16,-0.244 0.33,-0.402 0.596,-0.574 -0.024,-0.63 0.164,-0.194 0.282,-0.146 0.404,-0.074 0.452,-0.314 0.25,-0.55 0.246,-0.88 -0.388,-0.614 0.006,-0.136 0.148,-0.33 0.238,-0.33 0.188,-0.106 0.44,0.084 0.076,-0.028 0.068,-0.104 0.284,-0.974 -0.026,-0.262 -0.41,-0.652 -0.068,-0.464 -0.06,-0.69 -0.1,-0.612 -0.118,-0.232 -0.218,-0.194 -0.098,-0.126 -0.848,-1.244 0.014,-0.59 0.356,-0.754 0.232,-0.366 0.324,-0.204 0.064,-0.174 -0.096,-0.212 -0.164,-0.16 -0.038,-0.34 0.046,-0.226 0.116,-0.248 -0.046,-0.52 0.01,-0.798 0.054,-1.164 0.016,-0.712 0.688,-0.528 1.002,-0.874 0.51,-0.914 0.274,-0.692 0.336,-2.304 0.244,-0.14 0.288,-0.108 1.006,-0.84 0.774,-0.312 0.592,-0.18 0.89,-0.152 0.552,0.062 1.006,0.038 0.792,-0.084 0.672,-0.458 0.304,-0.128 0.428,-0.08 1.944,0.618 1.942,0.584 0.352,-0.054 0.296,0.082 0.486,0.316 0.716,0.678 0.426,0.438 0.206,0.256 0.998,1.47 0.372,0.37 0.374,0.202 0.38,0.072 0.292,-0.028 0.276,-0.166 0.376,-0.328 0.572,-0.15 0.466,0.03 2.418,-1.322 0.234,-0.018 0.704,0.104 0.782,0.182 2.026,1.326 1.654,0.868 1.162,0.29 1.37,0.206 2.326,0.062 1.758,-1.858 0.65,-0.406 0.784,-0.366 0.252,-0.062 1.382,-0.282 2.71,-0.238 2.542,0.104 0.5,0.074 1.08,0.246 1.664,0.606 0.718,0.582 1.128,0.096 0.808,-0.116 0.264,-0.576 0.812,-0.758 0.59,-0.308 0.626,-0.394 0.992,-0.49 0.816,-0.22 0.73,-0.562 0.578,-0.178 1.004,-0.014 z m -35.394,52.498 -0.542,0.17 -0.356,-0.042 0.488,-0.74 0.248,0.16 0.318,0.066 -0.156,0.386 z" title="Nigeria" id="NG"></path></svg>