<svg xmlns="http://www.w3.org/2000/svg" width="146.85" height="175.22"><path d="m 116.68,0 1.5,0.664 0.512,-0.014 0.746,1.238 0.388,-0.11 -0.074,0.752 -0.752,0.358 -1.17,0.216 -0.174,0.15 -1,-0.12 -0.562,-1.012 -0.938,-0.25 0.002,-0.326 0.608,-0.768 0.914,-0.778 z m 29.656,22.796 0.306,2.13 -0.01,0.74 -0.144,0.716 -0.202,0.366 -0.402,0.16 -0.974,-0.064 -1.322,-0.838 -0.854,-0.79 -0.266,-0.034 -0.116,0.096 0.208,0.792 -0.056,0.608 -0.128,0.66 -0.18,0.598 -0.25,0.5 -0.524,0.644 -0.906,0.508 -2.494,0.99 -0.198,0.436 -0.804,2.74 -0.218,0.4 -0.294,0.338 -0.858,0.438 -0.416,-0.604 -0.332,-0.918 0.076,-0.912 1.002,-1.756 0.938,-1.25 0.264,-0.434 0.532,-1.262 -1.076,-3.188 -1.916,-0.97 -2.182,-1.482 -0.8,-0.792 -1.246,-1.638 -0.882,-1.476 -0.796,-0.052 -0.876,0.372 -1.368,1.348 -0.798,0.676 -0.44,0.2 -0.106,0.03 -0.98,-0.382 -1.088,-0.08 -0.876,0.11 -0.33,0.184 -1.22,2.168 -0.854,1.088 -0.47,0.374 -0.342,0.628 -0.28,1.032 -0.626,3.552 -0.466,1.332 -0.104,0.812 0.11,2.448 -0.112,1.348 -0.57,1.108 -0.402,0.498 -0.53,0.102 -0.694,0.282 -0.606,0.638 -0.428,0.87 -0.482,1.942 -0.816,0.712 -0.78,-0.204 -0.556,-0.712 -1.194,-0.552 -0.89,-0.352 -0.998,-0.764 -0.88,-0.582 -0.804,-0.116 -0.458,0.738 -0.368,0.688 -1.372,0.558 -0.778,0.442 -1.008,0.098 -0.408,-0.49 -1.464,-0.324 -1.742,-0.384 -0.504,0.004 -0.158,-0.878 -0.464,-1.23 -1.238,-2.136 -0.506,-0.756 -0.954,-1.782 -1.11,-1.836 -0.158,-0.046 -0.744,-0.062 -1.09,0.06 -0.692,0.418 -0.436,0.524 -0.076,0.436 0.422,1.664 -0.13,0.414 -0.218,0.2 -0.99,-0.466 -1.198,0.032 -0.302,0.512 -0.73,0.056 -2.106,0.194 0.93,1.352 0.308,0.542 0.062,0.792 -0.162,1.468 -0.446,1.25 -0.52,1.014 -1.002,1.002 1.522,0.988 -1.034,1.33 -0.484,0.516 -0.56,-0.088 -1.002,-0.458 -2.426,-1.112 -1.158,-0.418 -1.036,-0.128 -0.552,0.016 -2.196,-0.956 -0.424,0.106 -0.788,0.414 -0.088,0.928 0.05,2.298 0.116,1.76 -0.29,1.012 -0.29,0.686 -0.878,1.842 -1.976,-1.252 -1.348,-0.832 -0.866,1.106 -2.17,2.02 -1.112,3.952 -0.064,0.128 -0.658,0.998 -0.842,0.458 -0.638,0.226 -0.372,1.162 0.866,1.658 0.444,0.872 0.414,1.404 -0.076,0.89 -0.096,0.552 -0.93,1.128 -1.984,2.962 -1.836,3.068 -0.752,0.876 0.34,2.576 -0.61,0.752 -1.244,0.848 -0.636,0.326 -0.684,0.192 -2.104,0.338 0.374,2.72 0.142,1.198 -0.002,0.708 -0.218,0.69 -0.26,1.314 -0.392,4.66 -0.3,0.498 -0.414,1.25 -1.332,2.986 -1.068,1.972 -1.542,2.822 1.254,0.886 1.144,0.646 0.238,0.99 0.158,1.648 -0.038,1.118 -0.438,1.002 -0.34,0.702 -0.238,0.342 -1.626,-0.34 -2.084,-0.438 -0.54,-0.004 -1.212,0.316 -1.094,0.646 -0.576,0.544 -0.154,0.216 -0.728,1.236 -1.296,2.184 -0.71,0.95 0.208,1.306 -1.192,2.51 0.78,2.516 0.034,0.084 0.414,1.012 -0.432,0.652 -0.182,0.35 0.062,1.15 0.114,1.282 -0.1,0.75 -0.042,0.83 1.06,3.71 -0.012,0.864 -0.052,0.556 -0.328,2.282 -0.44,3.042 0.768,0.794 1.092,0.948 0.614,0.374 0.906,1.124 0.692,1.094 -0.096,0.724 -0.2,0.798 -0.29,0.556 -0.274,0.762 -0.122,0.562 -0.128,0.15 -1.21,0.062 -0.638,0.212 -0.334,0.238 0.114,1.276 0.734,2.326 0.61,1.644 0.196,1.08 -0.2,1.092 -0.208,0.558 -0.006,0.75 -0.16,1.488 -0.472,0.75 -0.618,0.816 -0.688,0.608 -0.546,0.17 -0.468,0.07 -0.316,0.308 -0.286,0.906 -0.264,0.948 -0.862,1.164 0.024,0.404 0.328,1.372 0.308,1.556 -0.26,1.45 -0.222,1.514 -0.39,1.006 -0.556,0.36 -0.408,-0.18 -0.462,-1.38 -0.024,-0.326 -0.114,-0.424 -1.312,-0.422 -0.232,0.014 -0.516,-0.248 -0.302,-0.07 -0.62,-0.142 -0.516,-1.228 -0.546,-1.024 -0.08,-0.428 0.02,-1.926 -0.168,-0.86 -0.052,-0.94 -0.344,0.764 0.2,1.206 -0.424,0.504 -0.538,0.246 0.05,0.702 0.22,0.134 0.046,0.726 -0.13,1.076 -1.056,2.378 -0.212,0.254 -0.146,0.32 -0.54,-0.212 -0.694,0.66 -0.658,0.106 -0.238,-0.746 -0.926,-0.99 -0.436,0.056 0.392,0.488 0.388,0.634 -0.22,0.418 -0.216,0.274 -0.378,0.142 -1.354,0.826 0.482,0.554 -0.41,0.628 -0.472,0.092 -0.252,0.292 -0.088,0.396 -1.402,1.13 -2.284,2.882 -1.174,0.812 -0.82,0.84 -0.722,-0.02 -0.908,0.714 -2.3,0.624 -1.526,-0.282 -1.062,0.248 -0.57,-0.49 -0.074,-0.336 0.028,-0.196 0.094,-0.236 -0.198,-0.078 -0.416,-0.04 -0.178,0.236 -0.024,0.538 -0.198,0.14 -0.792,-0.308 -0.2,-0.276 0.284,-0.562 0.488,-0.506 -0.088,-0.104 -0.094,-0.308 -0.238,-0.04 -0.708,0.076 -0.576,-0.092 -1.876,-1.142 -0.438,-0.612 -1.514,-0.978 -0.678,-1.04 -0.386,-1.144 0.03,-1.04 0.186,-1.654 0.318,-0.41 1.358,0.582 1.374,0.968 0.214,-0.048 0.432,-0.76 0.836,-0.612 -0.238,-0.168 -1.244,0.702 -0.462,-0.388 -0.718,-0.792 0,-0.41 0.334,-0.41 0.112,-0.554 -0.174,-0.524 0.082,-0.714 0.554,-0.758 0.832,-0.77 0.6,-0.746 0.616,-0.458 -0.064,-0.154 -0.704,0.292 -0.674,0.496 -0.792,0.83 -0.966,0.67 -0.714,0.26 -0.34,0.216 -0.524,0.208 -0.542,0.958 -0.592,0.41 -1.06,0.042 -0.234,-0.7 0.3,-2.496 0.32,-1.222 0.352,-0.866 0.552,-0.146 0.388,-0.636 0.322,0 0.28,0.294 1.082,0.284 0.534,-0.81 0.694,-0.12 1.266,-0.82 -0.026,-0.15 -0.856,0.18 -0.52,0.026 -0.744,0.206 -0.396,-0.148 -0.186,-0.614 0.298,-0.556 1.194,-1.33 0.414,-0.584 0.234,-0.546 -0.038,-0.372 0.2,-0.772 1.168,-1.35 0.952,-0.62 0.312,0.532 -0.266,1.662 0.002,0.684 0.752,-2.42 0.332,-0.578 0.376,-0.408 0.912,-0.274 0.258,-0.384 -1.064,0.126 -2.578,0.928 -1.086,0.826 -0.29,0.634 -0.754,0.956 -0.354,0.618 -0.156,0.908 -0.424,0.492 -0.574,0.182 -0.796,1.144 -0.352,0.918 -0.792,0.728 -0.502,0.56 -0.166,0.2 -0.272,0.548 -0.226,0.04 -0.196,-0.322 -0.034,-0.708 0.08,-1.136 0.382,-0.82 0.182,-0.802 -0.252,-0.75 0.176,-0.476 0.334,0.018 0.624,0.216 0.662,-0.034 1.09,-0.594 -0.174,-0.348 -0.47,-0.05 -0.878,0.05 -0.738,-0.582 -0.574,-1.16 -0.26,-1.556 0.174,-0.446 2.124,-1.592 0.572,-0.726 -0.332,-0.072 -0.798,0.88 -1.14,0.544 -0.72,-0.758 -0.374,-0.818 -0.216,-1.734 0.078,-0.894 -0.09,-1.178 0.488,-0.384 0.544,0.204 0.538,0.076 1.218,-0.104 2.688,-0.71 1.732,0.422 0.704,-0.038 1.078,-0.612 0.942,-0.062 0.706,0.466 0.386,0.536 0.048,0.714 0.326,0.476 0.22,-0.156 -0.176,-0.566 -0.036,-0.878 2.834,-0.998 0.334,-0.388 -1.126,-0.136 -0.322,-0.914 0.594,-1.388 -0.056,-0.18 -0.626,0.734 -0.308,1.028 0.124,0.82 -0.124,0.38 -0.576,0.174 -1.296,0.064 -0.832,-0.348 -0.77,-0.188 -0.262,-0.262 0.088,-0.586 -0.146,-0.122 -0.32,0.526 -0.284,1.046 -0.612,0.242 -1.69,-0.388 -2.446,0.228 -1.098,0.524 -0.71,-0.068 -1.224,-0.92 -0.476,-0.734 -0.178,-1.484 0.072,-0.654 0.952,-0.276 0.482,0.018 0.452,-0.352 -0.4,-0.23 -0.562,-0.452 -0.382,-0.904 -0.578,-0.296 -0.386,-0.774 -0.098,-1.17 0.11,-0.816 0.308,-0.262 0.742,0.178 1.956,-0.138 1.84,0.832 1.25,0.468 2.53,-0.236 1.482,-0.742 -0.272,-0.204 -1.608,0.428 -1.486,-0.018 -2.62,-0.838 -1.074,-0.27 -1.158,0.12 -0.602,-0.254 -0.354,-0.832 0.262,-1.596 0.548,-0.344 0.296,0.416 0.358,0.026 0.364,-0.668 0.346,-0.382 0.276,-0.864 1.038,-0.822 0.438,-0.07 0.628,-0.378 0.402,0.108 0.256,0.38 0.326,0.314 0.704,-0.038 2.084,-0.66 0.224,-0.194 0.406,-0.542 -1.32,0.242 -1.096,0.384 -0.706,0.108 -0.1,-0.482 0.26,-0.426 0.408,-0.456 0.198,-0.778 0.45,-0.332 0.486,0.018 1.004,-0.142 0.708,-0.202 1.214,0.134 1.812,0.298 1.166,0.724 0.44,-0.066 0.466,-0.192 0.212,-0.262 -0.916,-0.3 -0.052,-0.43 0.114,-0.324 1.496,-0.598 1.632,-0.132 -0.28,-0.482 -3.576,0.728 -0.934,-0.498 -0.738,0.004 -0.482,0.284 -1.376,0.344 -0.252,-0.244 0.262,-0.844 0.824,-1.388 0.068,-0.34 0.382,-0.336 2.136,-0.81 1.026,-0.944 0.462,-0.12 0.458,0.066 0.698,-0.11 1.348,0.27 0.622,1.18 0.558,0.37 1.754,1.468 -0.078,-0.42 -1.52,-1.994 -0.58,-0.496 -0.434,-0.984 0.148,-0.932 0.488,-0.624 1.734,-0.334 0.31,-0.362 0.032,-0.622 -0.266,-0.426 -0.638,0.024 -0.526,-0.264 -0.144,-0.672 0.21,-0.456 1,-0.834 0.546,-0.27 0.948,-0.292 1.646,0.66 0.126,0.344 -0.462,0.828 0.046,0.464 0.404,0.05 0.94,-1.396 1.106,-0.194 0.458,-0.3 0.532,-0.19 0.758,1.264 0.334,0.404 0.25,0.166 0.242,1.048 0.234,0.056 0.334,-0.524 0.606,-0.278 0.85,-0.182 1.408,0.278 0.638,-0.206 0.312,0.03 -0.3,-0.942 -0.186,-0.274 0.29,-0.844 0.302,-0.33 0.972,-0.594 0.928,-0.266 0.606,-0.564 0.814,-0.522 -0.128,-0.416 -0.226,-0.484 -0.528,-0.03 -0.214,-0.264 0.668,-0.628 0.916,-0.7 -0.16,-0.276 -0.688,-0.312 -0.522,0.234 -0.776,0.542 -0.904,0.856 0.294,0.25 0.452,0.718 -0.63,0.952 -3.344,2.518 -1.594,0.734 -0.736,-0.114 -0.176,-0.686 -0.338,-0.506 -0.364,-1.05 -0.62,0.028 -0.352,0.232 -0.152,-0.344 0.266,-1.124 0.524,-0.89 0.878,-0.674 0.422,-0.816 0.396,-1.298 1.27,-1.24 1.848,-3.084 1.506,-0.99 0.552,-1.086 0.888,-0.48 0.758,-0.85 0.594,-0.084 1.08,-0.768 0.612,-0.916 -0.4,-0.056 -0.95,0.594 -0.538,0.24 0.038,-0.982 0.26,-1.01 0.782,-0.926 3.762,-2.702 0.376,0.448 0.45,0.792 1.132,-0.178 1.292,-1.534 0.994,-1.674 -0.538,0.292 -0.586,0.686 -1.142,0.95 -0.528,0.15 -0.302,-0.124 -0.168,-0.634 -0.396,-0.206 -0.358,0.142 -0.37,-0.452 -0.066,-1.118 0.472,-1.67 0.374,-1.108 0.404,-0.842 1.588,-2.4 0.342,-1.316 0.718,-0.696 0.932,0.154 0.282,-0.202 -0.32,-0.868 -1.016,-0.688 -0.062,-0.434 3.386,-1.142 1.612,0.038 0.478,-0.57 0.876,-0.368 0.664,-0.7 -0.342,-0.31 -1.638,0.644 -1.024,0.302 -0.462,-0.01 -0.362,0.22 -1.308,0.084 -0.286,-2.794 0.206,-1.526 0.488,0.032 0.112,-1.462 0.564,-0.866 0.778,-0.194 0.392,-0.37 0.566,-0.756 0.936,0.174 0.962,-0.168 -0.24,-0.358 -1.194,-0.46 -0.294,-0.792 0.42,-0.444 0.458,-0.326 0.404,-0.058 0.798,-1.554 0.486,-0.666 0.542,0.116 0.756,-0.688 0.744,0.234 0.718,-0.45 0.982,-0.298 3.594,-0.114 0.106,-0.642 -0.756,-0.148 -2.67,-0.166 -1.364,0.014 -0.574,0.166 -0.21,-0.224 0.038,-0.384 0.496,-0.61 0.234,-0.674 0.992,-1.652 1.162,-1.104 0.89,0.282 0.946,1.054 0.674,0.132 0.314,0.34 0.492,1.448 0.234,0.046 -0.106,-1.39 0.65,-1.136 -0.168,-0.314 -0.976,0.412 -0.748,-0.428 -0.59,-0.856 -0.168,-0.784 0.368,-0.776 0.346,-0.392 -0.234,-0.458 -1.476,1.222 -1.044,0.286 -0.412,-0.17 0.222,-1.108 -0.124,-0.882 1.4,-2.18 0.482,-0.252 0.786,0.176 0.71,0.616 0.594,-0.098 0.644,-0.33 -0.088,-0.592 -1.396,-0.236 -0.36,-0.492 0.13,-0.486 0.958,-0.512 0.954,-0.926 1.092,-0.27 0.878,-0.702 0.17,0.16 0.148,0.276 0.316,2.596 0.786,2.104 0.29,0.076 -0.302,-1.788 0.282,-0.516 0.356,-0.392 0.112,-0.448 -0.408,-0.152 -0.334,-0.644 -0.476,-2.066 0.164,-0.54 1.034,-1.108 1.296,-0.254 1.38,0.776 0.486,0.008 0.8,-0.208 1.358,-0.64 0.8,-0.244 0.416,0 0.102,-0.324 -0.386,-0.208 -0.124,-0.202 -0.302,-0.116 -1.256,0.346 -3.466,-0.11 -0.334,-0.37 -0.062,-0.642 0.368,-0.92 0.404,-0.51 1.308,-0.918 1.382,-0.124 1.458,-1.638 0.556,-1.232 0.316,-1.91 0.888,-1.552 2.228,-0.886 0.09,-0.392 -0.236,-0.814 0.02,-1.468 0.61,-1.718 0.406,-0.598 0.188,-0.072 0.48,0.564 0.584,1.196 0.914,0.684 1.198,0.118 0.32,-0.336 -0.93,-0.68 -0.706,-0.892 -0.056,-0.898 0.334,-0.476 0.52,0.052 0.652,-0.1 0.608,-0.606 0.088,-0.426 0.026,-0.58 0.152,-0.59 0.892,-1.414 2.748,-0.922 0.2,0.376 -0.148,2.726 -0.316,1.752 0.01,1.276 0.536,-1.276 0.716,-3.514 0.54,-1.664 0.608,-0.958 0.434,-0.216 0.43,-0.498 0.568,-0.296 0.174,0.382 0.18,0.886 -0.306,3.092 0.03,0.972 -0.342,1.298 -1.31,2.878 0.06,0.366 0.296,-0.136 0.506,-0.472 1.624,-2.736 1.418,0.346 0.018,-0.224 -0.456,-0.806 -0.554,-0.774 -0.168,-0.96 0.074,-2.576 0.428,-1.026 1.224,0.108 0.734,-0.142 0.342,0.466 0.734,-0.034 0.508,-1.86 1.006,-0.164 0.884,1.232 1.062,0.826 0.854,1.184 0.242,-0.324 -0.46,-2.772 -0.504,-1.016 -1.094,-0.53 -1.166,-1.258 -0.302,-0.56 0.052,-0.416 1.028,-0.402 1.356,0.462 1.208,-1.054 0.33,0.29 0.926,-0.552 0.576,0.744 0.354,-0.22 0.204,-0.998 1.478,-0.62 0.938,0.574 0.502,0.59 0.234,1.134 0.358,2.23 0.732,1.198 0.456,0.586 0.538,0.162 0.26,-0.596 -0.504,-0.72 -0.136,-0.68 0.242,-1.692 0.282,-0.666 1.582,-2.538 1.324,-1.324 0.792,-0.112 1.388,-2.986 0.392,-0.546 0.362,-0.126 -0.092,-0.736 -0.758,-0.466 -0.026,-0.916 1,-1.116 1.214,-1.882 0.598,-0.126 0.376,0.524 1.182,0.85 0.724,0.97 0.524,0.488 0.34,-0.102 0.282,-0.728 0.34,-0.342 0.75,0.192 0.448,0.468 0.35,0.062 0.316,0.284 0.074,0.622 -0.65,0.678 -1.108,1.786 -1.092,2.02 -0.36,1.06 -0.354,2.766 -0.854,1.758 -0.066,1.228 0.344,0.576 0.942,-0.452 1.162,-1.638 0.29,-1.748 2.906,-4.782 1.364,-2.668 1.548,-2.226 0.868,-0.462 0.408,1.478 -0.328,1.92 -0.658,1.218 0.486,0.558 -0.092,1.44 -0.152,0.798 -0.096,0.834 0.006,0.732 0.456,-0.196 1.814,-1.504 0.46,-1.636 0.426,-1.232 0.204,-1.066 0.706,-1.014 1.332,-0.008 0.052,-0.4 -1.616,-1.394 -0.19,-0.638 0.542,-0.852 1.49,-1.632 0.766,0.18 0.458,0.372 1.834,0.284 1.408,1.166 -0.054,1.818 -0.314,0.756 -0.308,0.464 -1.802,1.368 -0.296,0.674 0.566,0.232 1.216,-0.68 0.316,0.618 -0.388,1.54 -0.066,2.298 -0.14,1.334 0,1.212 0.152,0.65 0.49,-2.58 0.166,-0.666 0.716,-0.978 0.266,-1.978 0.7,-2.39 0.79,-1.396 0.458,-0.382 1.52,0.054 0.652,0.526 0.576,1.166 0.43,0.466 1.356,0.494 0.464,0.618 0.086,0.368 0.332,0.074 0.916,-0.878 0.594,-0.146 0.968,1.368 -0.194,1.01 0.056,0.32 1.172,-0.064 0.976,0.396 1.854,2.056 0.194,0.956 -0.092,1.156 -2.676,1.266 -1.156,1.208 -1.892,0.464 -6.424,-0.808 0.13,0.874 4.474,1.902 0.256,0.542 -0.144,1.136 -0.002,0.91 0.084,0.62 0.33,0.576 0.546,0.27 1.114,-0.142 0.548,0.31 0.376,-0.458 0.14,-1.546 0.324,-0.342 0.624,0.45 0.272,1.652 0.174,0.17 0.314,-1.176 0.618,0.084 0.674,-0.098 0.87,0.194 z m -41.7,-17.18 -0.11,0.536 -0.19,0.52 -0.46,0.548 -1.332,2.162 -0.782,0.346 -0.248,0.338 -0.312,0.202 -0.972,-0.294 -0.284,0.436 -0.268,0.292 -0.704,0.112 -0.414,-0.094 -1.066,-0.796 -0.634,-0.864 -0.344,-0.74 0.986,0.014 0.35,-0.18 0.662,0.156 0.398,-0.762 0.84,0.092 1.614,-0.53 0.592,0.296 1.354,-1.778 0.424,0.046 0.648,-0.51 0.252,0.452 z m 3.238,4.214 -1.07,0.672 -0.62,-0.578 -0.26,-0.594 -0.038,-1.322 0.144,-0.808 0.502,-0.418 0.326,0.306 0.086,0.256 0.584,0.25 0.686,0.832 -0.34,1.404 z m -2.256,0.304 0.104,0.788 0.04,0.648 -0.524,0.934 -1.208,1.222 0.07,0.328 -0.418,0.314 -0.626,0.23 -0.33,-0.222 0.044,-1.046 -0.1,-0.312 -0.474,0.416 -0.494,-0.534 0,-0.536 0.13,-0.466 0.458,-0.71 0.762,-0.49 0.502,0.184 1.676,-1.886 0.18,0.396 0.208,0.742 z m -21.598,5.556 0.286,0.194 0.284,-0.12 0.234,0.17 0.47,0.872 0.506,0.342 0.024,0.436 -0.462,0.424 -0.61,0.128 -0.654,-0.148 -0.192,-0.544 -0.202,-0.906 -0.546,-0.89 -0.082,-0.782 0.476,-0.124 0.468,0.948 z m -2.876,2.482 0.498,0.894 0.442,-0.086 0.132,-0.336 0.3,-0.168 0.608,0.474 -0.086,0.802 -0.842,1.01 -0.604,1.436 -0.772,0.332 -0.372,-0.172 -0.692,0.826 -0.552,0.856 -0.574,1.08 -0.036,0.556 -0.09,0.424 -2.102,0.42 -0.764,0.278 -0.81,-0.358 -0.384,-0.712 0.124,-0.386 0.808,-0.154 0.026,-0.662 0.206,-0.404 0.262,-0.222 0.192,-0.848 0.32,-0.222 0.596,0.208 0.402,-0.616 0.226,-0.106 0.278,0.51 0.134,-0.702 -0.134,-0.642 0.07,-0.434 0.77,-1.13 0.334,-0.826 0.48,-0.534 0.462,0.084 0.134,-0.788 -0.134,-0.808 0.05,-0.528 0.408,-1.284 0.448,-0.054 0.206,1.142 0.032,1.85 z m 8.554,-0.384 -0.302,0.382 -0.464,0.156 -0.25,-0.236 -0.356,-0.156 -0.396,0.07 -0.332,-0.702 0.038,-0.59 0.454,-0.8 0.91,-0.456 0.736,0.188 0.188,0.234 -0.226,1.91 z m 51.51,4.792 -1.066,0.474 -0.124,-0.39 0.234,-0.608 0.28,-1.248 0.438,0.05 0.444,0.476 0.348,0.568 -0.554,0.678 z m -69.898,3.24 0.674,0.918 0.302,-0.28 0.598,-0.106 0.444,0.324 0.364,0.582 0.43,0.026 0.27,0.76 0.138,0.986 -0.312,0.734 -0.444,0.334 -0.12,0.862 0.168,1.206 -0.996,0.412 -1.152,0.184 -0.452,-0.576 -0.92,1.052 -0.914,1.634 -0.44,0.192 -0.032,-0.516 -0.656,-0.358 -0.84,-0.02 0.028,-0.384 0.154,-0.27 0.724,-0.402 0.144,-0.832 -0.132,-1.488 0.128,-0.726 0.028,-0.5 0.456,-0.588 1.56,0.276 0.19,-0.562 -0.118,-0.354 -0.806,-0.62 0.124,-0.418 0.582,-0.374 0.55,-0.05 0.166,-0.632 0.028,-0.278 0.084,-0.148 z m -9.782,16.26 0.068,0.108 0.764,-1.48 0.848,-0.462 0.052,-0.518 0.328,-0.5 -0.038,-0.82 0.166,-0.666 0.432,-0.178 0.27,-0.226 0.298,-0.126 0.542,0.542 0.304,0.6 0.38,1.336 -0.158,1.288 -1.018,1.002 -0.808,0.45 -0.818,1.144 -0.41,0.934 -0.354,0.202 -0.222,-0.076 -0.198,-0.224 -0.414,0 -0.456,0.808 -1.376,0.656 -0.54,-0.19 -0.024,-0.804 -0.322,0.066 -0.516,0.964 -0.504,0.322 -0.338,0.098 -0.622,-0.362 -1.672,1.636 -1.568,0.304 -0.516,-0.188 -0.002,-1 1.014,-1.284 0.83,-0.894 2.86,-0.626 1.782,-2.672 0.43,-2.926 0.42,-1.064 -0.198,-0.602 -0.478,-0.106 -0.03,-0.928 0.25,-1.016 0.934,-1.4 0.52,-0.598 0.846,-1.698 0.408,-0.382 0.464,0 0.458,0.446 -0.082,0.91 -0.686,1.636 -1.016,1.388 0.124,0.994 0.404,0.814 0.1,1.388 0.026,1.332 -0.77,1.792 -0.168,0.856 z m -3.106,-5.91 0.73,1.568 0.334,0.914 -0.27,1.718 -0.71,0.864 -1.094,0.154 -0.768,-0.072 -0.484,-0.416 -0.06,-0.466 -0.28,-0.138 -0.738,0.6 -0.512,0.08 -0.652,-0.464 -0.176,-0.744 0.692,-0.934 0.32,-0.728 0.766,0.064 0.192,0.226 0.434,0.142 0.264,-0.878 -0.06,-0.608 0.194,-0.424 0.926,0.306 0.002,-1.66 0.36,-0.116 0.148,0.064 0.266,0.35 0.176,0.598 z m -7.488,10.418 0.334,0.258 0.872,-0.076 0.176,0.096 -0.126,0.426 -0.378,0.468 -0.794,0.288 -0.358,0.714 -0.256,0.242 -0.686,0.002 -0.406,0.166 -0.498,0.632 -0.398,-0.466 -0.112,0.332 -0.072,0.592 -0.222,0.172 -0.688,0.214 -0.166,-1.378 0.316,-0.5 0.248,-0.6 0.38,-0.092 0.34,0.05 0.614,-1.296 0.84,-0.37 0.542,-0.042 0.498,0.168 z m -5.06,5.876 -0.83,0.786 0.302,-1.436 0.448,-1.46 0.62,-0.838 0.308,0.328 -0.142,0.702 0.002,0.692 -0.132,0.326 -0.576,0.9 z m -3.096,26.242 -0.52,0.09 0.086,-0.61 0.42,-0.58 0.162,-0.396 0.084,-0.468 0.372,-0.354 0.524,0.454 0.01,0.768 -0.26,0.7 -0.878,0.396 z m 0.504,1.946 -0.45,0.04 0.004,-0.562 0.258,-0.512 0.408,-0.342 0.526,-0.09 0.588,-0.04 0.178,0.272 -0.338,0.382 -1.174,0.852 z m -3.04,3.762 -0.372,0.418 -0.694,-0.12 -0.074,-0.36 0.198,-0.72 0.422,-0.298 0.544,0.058 0.174,0.3 -0.198,0.722 z m -4.134,10.184 -0.294,0.368 -0.654,-0.294 -1.29,0.228 -0.52,-0.358 0.414,-0.7 1.166,-0.736 0.626,0.034 0.638,0.904 -0.086,0.554 z m -15.496,15.482 -0.644,0.03 -0.388,-0.284 0.922,-0.564 1.446,-0.54 0.138,-0.342 0.174,-0.042 0.25,0.42 0.032,0.576 -0.16,0.286 -1.77,0.46 z m -2.068,4.14 -0.55,0.008 -0.654,-0.192 -0.41,-0.41 -0.064,-0.362 0.754,-0.45 0.758,-0.264 0.352,0.496 0.026,0.812 -0.212,0.362 z m -17.646,27.1 -0.498,0.146 -0.4,-0.126 0.142,-1.108 0.208,-0.18 0.302,-0.064 0.326,0.594 -0.08,0.738 z m 0.714,8.896 0.018,1.342 -0.516,-0.102 -0.232,-0.514 -0.068,-0.33 0.042,-0.778 -0.116,-0.804 0.152,-0.4 0.188,-0.054 0.334,0.716 0.198,0.924 z" title="Norway" id="NO"></path></svg>