<svg xmlns="http://www.w3.org/2000/svg" width="45.52" height="25.57"><path d="m 45.24,16.1 0.226,0.172 0.024,0.282 -0.042,0.312 -0.232,0.674 -0.212,0.472 -0.246,0.998 -0.222,1.726 0.048,0.302 0.662,0.986 0.258,0.76 0.026,0.514 -0.282,0.866 -0.318,0.974 -0.156,0.22 -0.18,0.078 -0.818,-0.34 -0.562,0.048 -0.648,0.188 -0.676,-0.038 -0.56,-0.112 -0.706,0.392 -0.678,-0.212 -0.434,-0.242 -0.288,-0.678 -0.122,-0.086 -1.426,0.708 -0.342,0.044 -0.886,-0.38 -0.724,-0.378 -0.272,-0.112 -0.7,-0.148 -0.628,-0.086 -0.686,-0.234 -0.852,0.308 -0.344,-0.026 -0.32,-0.222 -0.168,-0.454 -0.042,-0.432 -0.29,-0.296 -0.446,-0.068 -0.63,0.266 -0.918,0.352 -0.296,-0.06 -0.272,-0.1 -0.1,-0.094 -0.126,-0.406 -0.146,-0.09 -0.214,-0.014 -0.376,-0.098 -0.468,-0.302 -1.412,-0.714 -0.178,-0.318 0.006,-0.704 -0.078,-0.29 -0.172,-0.306 -0.726,-0.312 -1.408,-0.5 -0.78,-0.4 -0.372,0.188 -0.716,0.166 -0.384,0.362 -0.46,-0.116 -1.094,-0.38 -0.588,-0.056 -0.354,0.13 -0.082,0.216 -0.448,0.248 -0.426,-0.198 -0.842,-0.264 -0.736,-0.146 -1.118,-0.324 -0.128,-0.488 -0.188,-0.484 -0.264,-0.086 -1.002,0.096 -0.92,-0.534 -0.986,-0.686 -0.42,-0.224 -0.278,-0.082 -0.238,0.09 -0.272,0.158 -0.248,0.046 -0.536,-0.296 -0.682,-0.42 -0.84,-0.518 -0.984,-0.722 -0.404,-0.41 -0.182,-0.306 -0.21,-0.29 -0.856,-0.474 -0.676,-0.374 -0.816,-0.452 -0.136,-0.09 -0.308,-0.27 -0.474,-0.338 -0.388,-0.1 -0.124,0.188 -0.094,0.196 -0.338,-0.046 -0.528,-0.346 -0.552,-0.362 -0.43,-0.336 -0.444,-0.346 -0.108,-0.256 0.186,-0.79 0.258,-0.678 0.218,-0.152 0.356,-0.45 0.13,-0.79 -0.006,-0.676 0.346,-0.954 0.48,-1.016 0.826,-1.09 0.356,-0.362 0.402,-0.248 0.762,-0.806 0.158,-0.132 0.334,-0.208 0.328,-0.052 0.248,0.1 0.254,0.422 0.308,0.402 0.374,-0.02 0.438,-0.344 0.908,-1.58 1.262,-0.324 1.196,0.164 1.058,0.23 0.312,0.528 0.204,0.558 0.132,0.282 0.348,0.332 1.492,0.788 0.866,0.71 1.198,0.952 0.896,0.418 0.794,0.036 0.448,0.372 0.674,0.742 0.57,0.85 0.71,0.786 0.492,-0.026 0.67,-0.254 0.818,-0.334 0.482,0.164 0.446,0.218 0.148,0.406 0.27,0.768 0.296,0.796 0.468,0.278 0.556,0.408 0.306,0.324 1.04,0.596 0.146,0.242 0.21,0.164 0.254,0.104 0.21,0.122 0.328,0.042 1.2,-0.356 0.32,0.044 0.184,0.066 0.006,0.13 -0.216,0.556 -0.184,0.712 0.19,0.356 0.504,0.148 1.112,0.106 1.502,-0.01 0.458,0.36 0.452,0.54 0.458,0.922 0.182,0.39 0.226,0.112 0.39,-0.154 0.066,-0.378 0.016,-0.564 0.328,-0.194 0.21,0.144 0.244,0.44 0.62,0.396 0.45,0.194 0.428,-0.068 0.18,-0.152 0.21,-0.77 0.338,-0.112 0.426,0.05 0.164,0.154 0.172,0.308 0.518,0.146 0.514,0.192 0.482,0.252 0.682,0.57 0.838,0.106 0.974,-0.014 0.512,0.014 0.376,0.042 0.338,-0.04 0.998,-0.408 0.408,-0.03 0.506,0.046 z" title="Nepal" id="NP"></path></svg>