<svg xmlns="http://www.w3.org/2000/svg" width="100.97" height="141.56"><path d="m 100.66,67.24 -0.202,0.202 -0.344,-0.01 -0.602,0.79 0.038,-0.59 -0.18,-0.23 -0.516,0.054 -0.098,0.13 0.346,0.156 0.076,0.086 -0.33,0.342 0.344,0.734 0.3,-0.026 0.292,0.574 -0.002,0.18 -0.668,0.222 -0.352,0.31 -0.314,-0.012 -0.148,-0.06 -0.176,-0.554 -0.014,-0.232 0.386,-0.406 0.218,-0.414 -0.176,-0.38 -0.446,-0.246 -0.972,0.112 -0.224,-0.082 0.486,-0.512 0.528,0.056 0.568,-0.368 2.182,0.174 z m 0.006,4.524 -0.248,0.068 0.036,-0.446 -0.084,-0.288 0.42,-0.094 0.18,0.342 -0.304,0.418 z m -59.238,-68.32 0.084,0.312 0.31,-0.222 0.232,-0.35 0.374,-0.356 -0.05,0.574 0.192,0.126 1.24,0.4 0.256,0.334 0.264,0.096 0.148,-0.188 0.176,-0.102 0.448,0.21 1.012,0.584 0.084,0.202 -0.052,0.3 0.05,0.318 0.138,0.254 0.336,0.058 0.448,-0.376 0.21,-0.046 0.296,0.534 0.112,0.302 -0.046,-0.01 0.194,0.3 0.256,0.296 0.442,0.878 -0.066,0.308 -0.13,0.278 0.406,0.814 -0.266,0.056 -0.798,-0.138 0.026,0.164 0.466,0.598 0.392,0.846 0.314,0.51 1.108,1.586 -0.166,0.564 0.026,0.374 -0.142,0.322 0.378,0.844 -0.236,0.262 -0.156,0.866 -0.172,0.152 0.022,0.316 0.448,0.084 0.27,0.134 0.232,0.258 0.144,-0.31 0.196,-0.084 0.534,0.414 1.112,0.414 0.306,0.154 0.15,0.334 0.114,0.808 0.216,0.356 0.426,0.068 0.458,-0.108 0.144,-0.294 -0.092,-0.792 -0.33,-1.264 -0.002,-0.41 0.046,-0.412 -0.076,-0.408 -0.166,-0.384 -0.178,-0.294 -0.228,-0.248 0.08,-0.386 0.342,-0.174 0.208,0.326 0.17,0.394 0.862,1.168 0.51,-0.082 0.046,0.484 0.346,0.492 0.192,0.578 0.252,1.73 0.386,1.634 0.7,0.712 0.082,0.342 -0.426,-0.176 -0.13,0.102 0.044,0.172 0.394,0.314 0.464,0.154 0.292,-0.022 0.274,0.114 1.814,1.068 0.872,0.416 2.2,0.682 0.628,0.054 0.348,-0.018 0.658,-0.236 0.59,-0.424 0.51,-0.634 0.44,-0.722 0.478,-0.35 0.542,-0.276 0.274,-0.256 0.288,-0.182 1.474,0.084 0.498,0.364 0.646,0.292 0.338,0.228 -0.114,0.464 -0.386,0.684 -0.296,0.75 -0.264,1.708 -0.178,1.732 -0.268,0.766 -0.488,0.59 -0.54,0.432 -0.61,0.204 -0.248,0.99 -0.122,1.162 0.036,0.292 0.196,0.232 0.08,0.346 -0.32,0.7 -0.186,-0.102 -0.264,-0.584 -0.238,-0.244 -0.732,-0.182 -0.746,-0.084 -0.646,0.052 -0.624,0.25 -0.942,0.506 -0.292,0.256 -0.256,0.326 -0.432,0.728 -0.104,0.892 0.02,0.468 0.154,0.362 0.802,0.494 -0.796,1.728 -0.706,1.804 -0.4,0.516 -0.46,0.478 -0.434,1.09 -0.758,0.94 -0.512,0.72 -0.4,0.748 -0.35,0.796 -0.746,1.126 -0.33,0.746 -0.432,0.622 -0.804,0.794 -0.856,0.682 -1.348,0.944 -0.376,0.312 -0.396,0.23 -0.492,-0.27 -0.098,-0.294 -0.118,-0.646 -0.108,-0.236 -0.626,-0.196 -0.83,0.312 -0.138,-0.066 -0.036,-0.148 0,-0.938 0.14,-0.264 -0.194,-0.146 -0.192,0.058 -0.066,0.24 0.122,0.208 -0.472,0.258 -0.492,0.006 -0.148,-0.102 -0.042,-0.172 0.12,-0.284 0.158,-0.25 0.914,-1.18 0.95,-1.562 0.818,-1.668 0.212,-0.856 0.3,-1.584 -0.246,-0.66 -0.304,-0.618 -0.822,-1.188 -1.098,-0.67 -0.71,-0.094 -0.672,-0.25 -0.632,-0.566 -0.576,-0.666 -1.142,-0.546 -1.204,-0.428 -0.686,-0.604 -0.164,-0.358 -0.108,-0.416 0.016,-0.386 0.086,-0.392 0.136,-0.3 0.214,-0.218 1.274,-0.778 1.35,-0.432 0.248,0.008 0.238,-0.07 0.338,-0.264 0.604,-0.604 0.176,-0.406 0.12,-1.288 0.194,-1.264 0.35,-1.446 0.528,-0.894 0.172,-0.548 -0.214,-0.902 0.198,-0.33 0.24,-0.2 0.272,-0.116 -0.46,-0.844 -0.542,-1.274 -0.114,-0.394 0.082,-0.39 0.132,-0.382 -0.338,-0.096 -0.196,-0.366 -0.486,-1.23 0.132,-0.196 0.282,0.132 0.418,0.886 0.068,-0.456 0.32,-0.282 0.34,-0.146 0.364,-0.032 -0.824,-0.988 -0.276,0.04 -0.364,0.158 -0.374,0.096 -0.366,-0.086 -0.342,-0.218 -0.176,-0.416 -0.214,-0.798 -0.134,-0.294 -1.084,-1.626 0.318,-0.052 0.876,0.814 0.17,-0.26 0.126,-0.374 -0.042,-0.416 -0.208,-0.316 -0.31,-0.204 -0.006,-0.37 0.236,-0.338 -0.014,-0.236 -0.502,-0.482 -0.2,-0.052 -0.09,0.224 0.144,0.334 -0.134,0.038 -1.218,-0.876 -0.376,-0.704 -0.308,-0.772 -0.032,0.314 0.046,0.442 0.482,0.886 0.782,0.992 0.134,0.264 -0.116,0.342 -0.272,0.098 -0.24,-0.216 -0.358,-0.85 -0.258,-0.424 -2.99,-4.368 0.382,-0.574 0.592,-0.484 0.136,-0.214 0.09,-0.262 -0.25,-0.044 -0.224,0.12 -0.256,0.222 -0.234,0.252 -0.296,0.562 -0.14,0.13 -0.35,-0.39 -0.134,-0.24 0.006,-0.288 -0.094,-0.182 -0.26,-0.058 -0.382,-0.572 -0.242,-0.292 0.404,-0.558 0.01,-0.734 -0.412,-0.768 -0.492,-0.706 -0.948,-1.138 -0.87,-1.202 0.942,-0.152 0.956,-0.026 -0.45,0.72 0.204,0.416 0.304,0.352 0.656,1.08 0.056,0.312 0.332,0.316 0.16,0.242 z m 12.76,9.242 0.044,0.378 -0.43,-0.134 -0.168,-0.286 -0.482,-0.296 -0.07,-0.088 -0.054,-0.574 0.254,-0.278 0.042,-0.118 0.112,-0.046 0.198,0.302 0.382,0.43 0.172,0.71 z m -13.626,35.88 0.646,0.036 0.602,-0.544 0.616,-0.442 0.646,-0.366 0.984,-0.838 0.258,-0.124 0.638,-0.16 0.278,-0.198 0.31,-0.046 -0.28,0.496 -0.352,0.166 -0.056,0.178 0.198,0.288 -0.306,0.402 0.012,0.502 -0.364,0.594 0.556,-0.244 0.206,-0.386 -0.106,-0.218 0.24,-0.432 0.374,-0.206 -0.148,-0.326 0.01,-0.258 0.458,0.096 0.226,-0.01 0.18,-0.102 0.33,-0.04 0.066,0.288 0.444,-0.036 -0.162,0.364 -0.338,0.422 -0.08,0.256 -0.542,0.426 -0.362,0.182 0.558,0.046 0.816,-0.57 0.484,-0.502 -0.014,0.628 -0.394,0.564 -0.336,0.356 -0.38,0.112 -0.378,0.29 -0.184,0.474 0.022,0.316 0.108,0.25 0.386,0.422 -0.434,0.816 0.484,-0.102 0.264,0.154 0.372,0.47 -0.224,0.544 -0.156,0.278 -0.944,1.15 -0.412,0.584 -0.482,0.374 0.006,0.614 -0.276,0.448 -1.408,1.538 -0.246,0.334 -1.11,2.458 -0.708,1.036 -0.406,0.354 -0.43,0.286 -1.03,0.49 -0.456,0.564 -0.502,0.468 -0.53,0.106 0.016,0.208 0.34,0.116 0.266,0.308 -0.198,0.346 -0.378,0.216 -0.392,0.062 -0.2,0.222 0.936,-0.158 0.264,0.18 0.048,0.382 0.1,0.344 0.226,0.456 0.788,0.292 0.708,0.136 0.138,0.212 0.106,0.73 -0.128,0.358 -0.158,0.236 -0.238,0.084 -0.576,0.046 -0.578,-0.166 -0.382,-0.442 -1.094,0.142 -0.292,0.094 -0.15,-0.08 0.606,-0.464 -0.316,-0.264 -0.264,-0.098 -0.286,0.154 -0.192,0.244 -0.056,0.4 -0.198,0.232 -0.3,0.066 -0.426,-0.334 -0.422,-0.476 -0.62,-0.48 0.096,0.296 0.476,0.726 0.238,0.482 -0.554,0.386 -0.58,0.3 -0.488,0.176 -0.46,0.276 -0.542,0.43 -0.298,0.152 -0.792,0.01 -0.424,0.136 -0.14,0.568 -0.296,0.362 -0.696,0.072 0.252,0.114 0.154,0.182 -0.46,1.716 -0.1,0.714 -0.086,1.224 -0.29,1.14 -0.826,-0.006 0.132,0.202 0.626,0.322 -0.118,0.486 -0.688,0.89 -0.288,0.514 -0.28,1.252 -0.42,1.158 -0.642,1.32 -0.006,0.238 0.226,0.338 0.274,0.292 0.016,0.412 -0.084,0.218 -0.306,0.056 -0.268,0.142 -1.432,0.364 -0.468,0.408 -0.386,0.732 -0.452,0.632 -1.504,1.404 -0.884,1.18 -0.178,0.338 -0.238,0.246 -1.934,0.56 -1.368,0.084 -0.744,-0.144 -0.718,-0.284 -0.398,-0.096 -0.76,0.174 -0.332,0.19 -0.596,-0.188 -0.472,0.142 -0.14,-0.138 -0.176,-0.346 0.098,-0.46 -0.13,-0.34 -0.3,-0.23 -0.202,-0.268 -0.23,-0.19 -0.628,-0.074 -0.992,0.12 -0.328,-0.012 -0.674,-1.126 -0.222,-0.276 -0.802,-0.358 -0.274,0.05 -0.43,0.6 -0.254,0.102 -1.508,0.064 -1.512,-0.194 -0.556,-0.224 -0.11,-0.518 1.148,-1.422 -0.34,0.19 -0.708,0.578 -0.452,-0.088 0.434,-0.63 0.038,-0.282 -0.09,-0.312 -0.59,0.53 -0.672,0.07 -0.086,-0.492 0.06,-0.57 0.136,-0.162 1.814,-0.298 0.654,-0.194 0.286,-0.306 -1.086,-0.104 -0.068,-0.428 0.156,-0.342 0.928,-0.568 -0.684,0.144 -0.758,-0.05 0.05,-0.6 0.198,-0.468 0.794,-0.014 -0.248,-0.322 -0.038,-0.448 0.22,-0.03 0.806,0.604 0.582,0.22 -0.246,-0.454 0.034,-0.286 0.154,-0.128 0.476,-0.09 -0.132,-0.08 -0.446,-0.116 -0.532,-0.344 -0.056,-0.364 0.02,-0.42 0.572,-0.578 0.338,0.344 0.4,-0.094 -0.306,-0.27 -0.186,-0.404 0.126,-0.266 1.214,-1.07 0.31,1.03 0.072,-0.342 0.018,-0.324 -0.146,-0.282 0.022,-0.284 0.14,-0.244 0.52,-0.242 0.676,-0.784 0.5,-0.364 0.406,0.234 0.278,0.314 -0.042,-0.312 -0.198,-0.258 -0.054,-0.718 0.908,-1.112 0.998,-1.056 0.958,-1.104 0.51,-0.4 1.086,-0.454 0.696,0.19 0.178,-0.036 1.032,-0.792 0.428,-0.206 0.39,0.282 0.24,0.102 -0.242,-0.724 0.19,-0.332 0.862,-0.584 1.08,-0.602 0.82,-0.25 0.604,-0.408 0.364,-0.01 -0.054,-0.308 0.062,-0.294 0.312,0.02 0.096,-0.116 -0.276,-0.16 0.89,-0.588 0.484,-0.65 0.252,-0.134 0.23,-0.196 0.284,-0.448 0.336,-0.148 0.312,0.07 0.226,0.22 -0.124,-0.366 -0.4,-0.208 0.43,-0.316 0.446,-0.22 0.434,0.158 0.426,0.256 -0.426,-0.392 -0.07,-0.242 0.518,-0.28 0.28,-0.086 0.392,0.524 -0.056,-0.416 0.092,-0.368 0.554,-0.602 0.726,-0.992 0.232,0.346 0.038,0.418 -0.036,0.506 0.15,-0.174 0.05,-0.458 -0.112,-0.806 0.908,-1.486 0.18,-0.166 0.2,-0.1 0.316,-0.04 -0.098,-0.224 -0.246,-0.216 0.248,-0.752 0.148,-0.858 0.21,-0.824 0.338,-0.804 0.37,-1.34 0.282,-0.28 0.762,-0.096 0.334,-0.188 0.556,-0.482 0.658,-0.872 0.352,-0.702 0.462,-1.81 0.26,-1.886 0.748,-1.394 1.098,-1.006 0.966,-0.764 0.396,-0.16 0.668,-0.048 0.636,0.21 -1.184,0.184 -0.122,0.454 -0.038,0.46 0.136,0.412 0.212,0.368 0.574,0.346 0.672,0.206 0.3,0.78 0.054,0.926 0.092,0.796 0.272,0.698 z m 4.486,-3.082 -0.752,0.43 0.032,-0.298 0.146,-0.65 0.342,-0.328 0.168,-0.022 0.344,-0.246 -0.038,0.544 -0.242,0.57 z m -38.928,33.038 0.242,0.954 -0.514,-0.182 -0.214,-0.29 0.392,-0.478 0.094,-0.004 z m -1.308,3.796 -0.03,0.394 -0.066,0.198 -0.196,0.002 -0.292,-0.044 -0.286,-0.182 -0.184,0.052 -0.152,-0.066 0.198,-0.444 0.666,-0.236 0.256,0.19 0.086,0.136 z m 7.85,9.762 0.004,0.326 -0.586,-0.116 0.012,0.366 0.462,0.194 0.17,0.264 0.48,-0.076 0.108,0.394 -0.112,0.354 -0.32,0.258 -0.948,0.13 -0.616,0.514 -0.532,-0.078 -0.144,0.046 -0.61,0.552 -0.682,0.17 -0.186,-0.042 0.094,-0.492 0.508,-0.466 0.01,-0.448 0.13,-0.358 0.486,-0.252 0.008,-0.464 0.328,-0.414 -0.2,-0.89 0.106,-0.798 0.964,-0.044 1.066,1.37 z m -10.798,33.162 0.122,0.746 -0.308,0.002 -0.642,-0.208 -0.202,-0.318 -0.136,-0.078 -0.234,0.37 -0.376,0.018 -0.084,-0.124 0.148,-0.394 0.886,-0.744 0.166,-0.934 -0.012,-0.3 0.696,-0.07 0.164,0.114 0.074,0.128 -0.044,0.164 -0.282,0.308 -0.01,0.356 0.072,0.372 -0.23,0.18 0.12,0.32 0.112,0.092 z m 16.598,15.656 0.31,0.468 -0.596,0.204 -0.29,-0.17 -0.204,-0.214 -0.102,-0.302 0.322,0.032 0.278,-0.126 0.282,0.108 z" title="New Zealand" id="NZ"></path></svg>