<svg xmlns="http://www.w3.org/2000/svg" width="32.72" height="13.40"><path d="m 31.72,5.3 -0.106,0.078 -0.31,0.444 -0.168,0.38 0.4,0.402 0.12,0.426 0.226,0.462 0.352,0.464 0.396,0.862 0.09,0.346 -0.112,0.224 -0.376,0.138 -0.352,0.402 -0.096,0.492 0.068,0.244 -1.052,0.786 -0.272,0.13 -0.18,-0.12 -0.224,-0.394 -0.268,-0.318 -0.144,-0.112 -0.084,-0.004 -0.084,0.074 -0.04,0.172 0.14,0.738 -0.116,0.298 -0.358,0.23 -0.41,1.2 -0.16,-0.152 -1.35,-1.616 -1.168,-2.002 -0.244,-0.908 0.302,-0.054 0.292,0.02 0.158,-0.14 0.182,-0.264 -0.148,-0.614 0.568,-0.466 0.214,-0.314 0.158,0.036 0.372,0.536 0.54,0.306 0.662,0.446 0.41,0.102 -0.518,-0.468 -0.896,-0.616 -0.25,-0.404 -0.236,-0.562 -0.35,0.244 -0.162,0.206 -0.182,0.116 -0.158,-0.14 -0.028,-0.182 -0.528,-0.036 -0.136,-0.166 -0.14,-0.092 0.064,0.352 0.104,0.216 -0.056,0.262 -0.172,0.018 -0.146,-0.27 -0.188,-0.246 -0.25,-1.024 -0.6,-0.482 -0.276,-0.162 -0.226,-0.06 -0.334,-0.328 -0.44,-0.174 -0.6,-0.51 -0.736,-0.366 -0.9,-0.128 -1.094,0.08 -0.368,0.204 -0.25,0.258 -0.116,0.12 -0.646,0.294 -0.244,0.426 -0.154,0.36 -0.322,0.408 0.368,0.246 -2.106,1.386 -0.416,0.202 -0.946,0.142 -0.218,0.148 -0.288,0.274 -0.04,0.416 0.044,0.354 0.274,0.274 0.246,0.172 0.586,0.824 1.042,1.04 0.198,0.378 0.162,0.562 -0.314,0.264 -0.244,0.112 -0.992,0.044 -0.342,0.224 -0.138,0.342 -0.37,0.28 -1.278,0.278 -1.004,0.032 -0.312,-0.32 -0.076,-0.902 -0.676,-1.54 -0.162,-1.062 -0.168,0.132 -0.358,0.124 -0.122,0.264 -0.09,0.782 -0.132,0.268 -0.276,-0.026 -0.568,-0.28 -0.756,-0.258 -0.962,-1.658 -0.104,-0.312 -0.188,-0.374 -0.744,-0.158 -0.634,-0.28 -0.692,-0.042 -0.354,0.158 -0.362,-0.2 -0.062,-0.456 -0.726,0.204 -0.932,-0.072 -0.834,-0.194 -0.57,0.104 -0.478,0.324 0.066,0.826 -0.14,0.164 -0.022,-0.338 -0.166,-0.388 -0.2,-0.322 -0.42,-0.334 -0.022,-0.122 0.166,-0.168 0.762,-0.484 0.094,-0.202 0.012,-0.42 -0.074,-0.402 -0.344,-0.592 0.196,-0.366 0.394,-0.294 0.404,-0.232 0.068,-0.098 -0.074,-0.202 -0.236,-0.218 -0.552,-0.37 -0.332,-0.024 -0.014,-1.066 0.016,-1.132 0.084,-0.112 0.202,-0.068 0.162,-0.172 0.09,-0.336 0.242,-0.12 0.436,0.258 0.446,0.228 0.184,-0.076 0.138,-0.112 0.098,-0.11 0.032,-0.104 0.356,0.302 0.726,0.536 0.042,0.262 -0.068,0.252 0.2,0.724 0.376,0.104 0.38,-0.14 0.094,0.134 -0.07,0.134 -0.196,0.15 -0.048,0.622 0.622,0.29 0.312,0.254 1.032,-0.12 0.38,0.068 0.26,-0.074 -0.288,-0.5 -0.386,-0.37 0.032,-0.166 0.292,0.124 0.224,0.252 0.508,0.312 0.934,1.084 1.072,0.262 0.848,-0.034 0.79,-0.146 1.258,-0.42 0.912,-0.76 0.726,-0.338 2.356,-0.722 0.836,-0.756 0.354,-0.098 0.336,-0.094 0.74,-0.572 0.398,-0.446 0.42,-0.224 1.246,0.162 0.808,0.21 0.558,-0.028 0.536,0.15 0.234,0.324 0.244,0.138 1.318,-0.036 1.08,0.16 2.366,0.96 1.416,0.95 0.75,1.008 1.808,1.296 z m -27.276,-4.08 -0.062,0.264 -0.434,-0.474 0.258,-0.078 0.092,0.01 0.146,0.278 z m 18.72,6.244 -0.112,0.238 -0.262,-0.532 0.042,-0.136 -0.018,-0.48 0.25,-0.126 0.184,-0.01 0.152,0.068 0.096,0.566 -0.08,0.256 -0.252,0.156 z m -0.938,0.114 -0.252,0.25 -0.096,-0.236 0.176,-0.246 0.062,-0.002 0.11,0.234 z m -14.244,5.186 -0.308,0.03 -0.628,-0.242 -0.46,-0.466 -0.038,-0.15 0.01,-0.156 0.25,-0.476 0.336,-0.164 0.132,0.002 0.322,0.55 -0.218,0.212 0.088,0.34 0.456,0.252 0.058,0.268 z" title="Panama" id="PA"></path></svg>