<svg xmlns="http://www.w3.org/2000/svg" width="71.01" height="103.87"><path d="m 63.82,23.4 -0.034,0.364 -0.18,0.146 -0.276,0.032 -0.424,-0.26 -0.31,0.066 -0.31,0.016 -0.436,-0.302 -0.15,-0.298 -0.342,-0.244 -0.708,0.098 -0.584,0.006 -0.488,-0.056 -0.438,0.082 -0.372,0.314 -0.278,0.368 -0.326,0.308 -0.958,0.206 -0.51,0.006 -0.458,0.202 -0.682,0.074 -0.466,0.18 -0.826,0.098 -0.99,0.094 -0.552,0.274 -0.22,0.12 -0.562,0.378 -0.978,0.596 -0.54,0.208 -0.652,0.646 -0.782,0.606 -0.508,0.322 -0.746,0.148 -0.31,0.164 -0.114,0.194 0.066,0.228 -0.128,0.584 -0.228,1.078 -0.062,0.53 -0.056,0.252 -0.494,0.868 -0.532,0.806 -0.262,0.534 -0.146,0.392 0.164,0.324 0.216,0.586 0.182,0.468 0.052,0.318 -0.064,0.364 -0.224,0.334 -0.354,0.218 -0.476,0.06 -0.98,0.586 -1.092,0.868 -0.358,0.404 -0.102,0.382 -0.158,0.596 0.066,0.31 0.194,0.212 0.196,0.506 0.016,0.262 -0.162,0.146 -0.31,0.032 -0.278,0.05 -0.212,0.13 -0.212,-0.032 -0.194,0.064 0,0.214 0.064,0.244 -0.032,0.262 -0.13,0.162 -0.114,0.114 0.114,0.164 0.194,0.148 0.294,0.244 0.408,0.474 0.31,0.082 0.26,0.164 0.032,0.26 -0.098,0.262 -0.228,0.114 -0.016,0.23 0.31,0.278 0.212,0.196 0.212,0.294 0.196,0.41 0,0.26 0.212,0.328 0.13,0.278 0,0.262 0.342,0.26 0.294,0.198 0.21,0.18 0.212,0.114 0.05,0.196 -0.028,0.298 0.304,0.492 0.558,0.368 0.452,0.534 0.292,0.388 0.542,0.624 0.02,0.716 -0.67,0.822 -0.672,0.824 1.098,-0.022 1.12,0.016 1.172,0.236 0.79,0.226 0.482,0.102 0.342,0.264 0.162,0.41 0.13,0.336 0.034,0.484 0.488,0.394 -0.034,0.376 -0.014,0.53 0.216,0.008 1.434,0.002 1.568,0.002 1.508,-0.098 0.57,-0.128 0.688,-0.644 0.414,-0.19 0.398,-0.3 0.484,-0.548 0.384,-0.246 0.324,-0.304 0.482,-0.304 0.2,-0.224 0.164,-0.082 0.374,-0.148 -0.162,0.296 -0.126,0.302 -0.038,0.436 0.178,0.476 -0.148,0.356 -0.242,0.318 -0.004,0.838 -0.004,1.188 -0.006,1.018 -0.006,1.276 -0.006,1.446 -0.004,0.962 0.256,-0.19 0.356,-0.17 0.462,0.442 0.33,0.192 0.282,0.046 0.29,-0.014 0.394,-0.094 0.864,-0.37 0.592,-0.298 0.678,0.02 0.93,0.116 0.536,-0.012 0.702,1.232 0.514,0.904 0.586,1.03 0.47,0.83 0.716,1.26 0.618,1.09 0.66,1.162 0.75,1.322 -0.242,0.336 -0.196,0.268 0.022,0.454 -0.296,0.242 -0.314,0.146 -0.37,0.384 -0.252,0.33 -0.012,0.474 0.048,2.404 -0.062,0.654 -0.192,0.562 -0.198,0.284 -0.12,0.224 0.286,0.558 0.274,1.124 0.208,0.224 0.256,0.458 0.116,0.434 -0.052,0.166 -0.514,0.206 -0.184,0.176 -0.048,0.646 -0.222,0.232 -0.376,0.304 -0.242,0.348 -0.204,0.242 -0.2,0.14 -0.098,0.426 -0.134,0.432 -0.468,0.286 -0.08,0.53 -0.006,0.438 0.248,0.438 0.806,0.922 0.082,0.22 -0.46,0.556 -0.266,0.386 -0.656,1.18 -0.012,0.216 0.162,0.558 0.978,2.392 0.166,0.194 0.302,0.228 0.494,-0.026 0.746,0.258 0.362,0.296 0.034,0.146 -0.084,0.098 -0.394,0.198 -0.438,0.26 -0.152,0.246 -0.03,0.39 0.1,0.578 -0.19,0.188 -0.438,0.224 -0.378,0.324 -0.378,0.538 -0.642,0.82 -0.222,0.224 -0.096,0.284 -0.366,0.094 -0.682,0.558 -0.116,0.282 0.11,0.268 0.35,0.226 0.234,0.326 0.062,0.418 0,0.26 0,0.008 -0.424,0.392 -0.552,0.45 -0.68,0.088 -0.258,0.226 0.058,0.478 0.22,0.674 -0.002,0.528 -0.208,0.604 -0.486,0.662 -0.744,0.456 -0.702,0.244 -0.552,0.002 -0.534,0.048 -0.228,0.07 -0.412,-0.4 -1.83,-1.322 -0.696,-0.706 -0.646,-0.33 -1.574,-1.132 -0.156,-0.362 -0.194,-1.162 -0.204,-0.326 -0.542,-0.42 -1.358,-0.558 -0.528,-0.278 -0.552,-0.508 -0.812,-0.36 -0.884,-0.738 -0.526,-0.588 -0.59,-0.39 -1.832,-0.544 -0.918,-0.546 -1.718,-0.77 -0.766,-0.49 -1.838,-0.596 -0.546,-0.284 -1.808,-1.394 -1.268,-0.456 -1.022,-0.782 -3.084,-1.662 -0.484,-0.532 -0.472,-0.82 -0.684,-0.488 -0.77,-1.122 -1.144,-0.66 -1.102,-0.874 -0.406,-0.794 -0.732,-1.01 -0.216,-0.538 -0.64,-0.54 -0.044,-1.062 -0.446,-0.488 0.32,-0.242 0.338,-0.106 0.422,-1.65 -0.222,-0.826 -1.144,-1.498 -0.42,-0.718 -0.298,-0.92 -0.458,-0.546 -0.68,-1.15 -0.416,-1.018 -0.908,-0.738 -0.248,-0.266 -0.138,-0.376 -0.506,-0.266 -0.026,-0.78 -0.352,-1.48 -0.504,-0.746 -1.814,-1.392 -0.03,-0.536 -0.144,-0.974 -0.404,-1.054 -2.018,-3.268 -0.506,-0.972 -0.504,-1.578 -0.454,-0.894 -0.5,-1.592 -0.754,-1.21 -0.476,-1.048 -0.504,-1.302 -0.044,-0.696 -0.916,-1.196 -0.486,-1.096 -0.854,-0.918 -0.834,-0.698 -0.362,-0.494 -1.188,-2.344 -0.162,-0.694 -0.808,-1.288 -0.802,-0.924 -0.506,-0.746 -0.648,-0.67 -3.936,-2.062 -1.386,-0.856 -0.468,-0.408 -0.216,-0.642 0.09,-0.376 0.406,-0.352 0.562,0.272 0.344,-0.114 0.268,-0.458 0.006,-0.694 -0.344,-0.894 -1.262,-1.726 0.096,-0.366 0.238,-0.414 -0.486,-0.83 -0.53,-0.666 -0.266,-0.51 0.3,-1.942 0.288,-0.492 1.908,-1.97 0.524,-0.842 0.82,-0.52 0.836,-0.794 1.006,-0.604 0.146,0.104 0.14,0.102 0.008,0.204 0.038,0.176 0.112,0.166 0.01,0.304 0.13,0.204 0.008,0.23 0.01,0.314 -0.066,0.158 0.064,0.272 0.216,0.504 -0.084,0.156 -0.204,0.102 -0.204,0.14 -0.204,0.314 -0.308,-0.01 -0.444,-0.138 -0.298,0.174 -0.11,0.334 0.092,0.278 0.028,0.258 0.194,0.222 0.566,0.018 -0.51,0.712 -0.25,0.324 0.054,0.204 0.306,0.174 0.228,0.012 0.506,-0.26 0.344,-0.38 0.194,-0.212 0.326,-0.084 0.426,0.176 0.566,0.352 0.66,0.31 0.27,0.17 0.484,-0.048 0.406,-0.072 0.342,0.256 0.346,0.216 0.08,0.734 0.258,0.536 0.316,0.412 0.384,0.492 0.354,0.166 0.456,0.004 0.62,0.182 0.242,-0.12 0.212,-0.344 0.112,-0.194 0.316,-0.084 0.028,-0.22 -0.066,-0.27 0.104,-0.314 0.258,-0.278 0.664,-0.404 0.32,-0.17 0.066,-0.248 0.12,-0.334 -0.046,-0.184 -0.134,-0.23 0.032,-0.326 0.176,-0.434 0.25,-0.508 0.216,-0.648 0.082,-0.304 0.232,-0.194 0.088,-0.28 0.126,-0.33 0.286,-0.37 -0.008,-0.398 0.12,-0.176 0.01,-0.444 0.286,-0.912 0.01,-0.19 0.126,-0.05 0.218,0.058 0.188,0.208 0.058,0.204 0.078,0.092 0.178,-0.018 0.204,-0.116 -0.014,-0.184 -0.148,-0.18 -0.042,-0.108 0.064,-0.17 0.31,-0.37 0.338,-0.43 0.726,-0.894 0.438,-0.364 1.13,-0.386 0.858,-0.294 0.82,-0.28 1.116,-0.402 1.576,-0.568 1.13,-0.408 1.01,-0.728 0.782,-0.564 0.668,-0.486 0.848,-0.62 1.148,-1.336 0.792,-0.922 0.576,-0.674 0.4,-0.426 0.318,-1.198 0.364,-1.366 0.16,-0.608 0.07,-0.212 0.156,0.09 0.18,0.148 0.218,0.006 0.206,-0.006 0.13,-0.084 -0.192,-1.364 0.028,-0.298 0.108,-0.356 -0.022,-0.192 -0.348,-0.272 -0.558,-0.546 -0.232,-0.486 -0.14,-0.408 -0.39,-0.27 -0.402,-0.236 0.034,-0.194 0.238,0 0.604,0.19 0.436,-0.06 0.324,-0.022 0.316,-0.2 0.336,-0.36 0.226,0 0.258,0.048 0.47,0.37 0.278,0.218 0.336,0.18 0.316,0.064 0.288,0.02 0.202,-0.016 0.118,0.246 0.14,0.302 0.358,0.204 0.424,0.194 0.342,0.334 0.232,0.224 0.274,0.264 0.266,0.352 0.24,0.618 0.122,0.42 0.138,0.232 -0.032,0.236 0.284,0.43 0.21,0.238 0.368,0.152 0.71,0.172 0.38,0.388 0.336,0.15 0.356,0.4 0.316,0.118 0.4,-0.022 0.4,0.194 0.304,0.378 0.196,0.474 0.304,0.268 0.15,0.486 -0.172,0.57 0.162,0.302 0.314,0.248 0.51,0.258 0.466,-0.064 0.238,0.086 0.152,0.236 0.086,0.282 0.204,0.684 0.106,0.434 -0.19,0.42 -0.07,0.292 0.104,0.388 0.484,0.19 0.44,0.154 0.272,0.302 0.304,0.082 0.426,-0.018 0.544,-0.074 0.304,-0.174 0.194,-0.052 0.218,0.076 0.484,0.166 0.588,0.188 0.534,-0.108 0.462,-0.05 0.458,-0.11 0.464,-0.314 0.392,0.012 0.29,-0.212 0.366,-0.34 0.362,-0.342 0.282,-0.076 0.456,0.164 0.628,0.236 0.356,0.306 0.272,0.08 0.284,0.226 0.544,0.004 0.582,-0.122 0.466,-0.376 0.482,-0.11 0.33,-0.106 0.304,0.064 1.174,0.69 0.322,0.356 0.404,0.07 0.332,0.194 0.554,0.21 0.304,0.216 0.388,0.13 0.284,0.3 0.446,0.186 0.388,0.102 0.174,0.244 0,0.162 -0.052,0.108 -0.41,0.636 -0.804,1.246 -0.724,1.122 -1.138,1.768 -0.634,0.988 0.162,0.042 0.99,0.432 0.246,0.016 0.362,-0.11 0.236,-0.172 0.222,-0.024 0.232,0.166 0.326,0.214 0.234,0.63 0.174,0.308 0.408,0.234 0.436,0.39 z" title="Peru" id="PE"></path></svg>