<svg xmlns="http://www.w3.org/2000/svg" width="84.73" height="57.75"><path d="m 71.14,56.88 0.938,0.298 0.318,0.33 -0.338,0.15 -0.82,0.102 -0.192,-0.202 -0.788,-0.204 -0.126,-0.368 -0.392,0.126 0.2,-0.258 -0.494,-0.292 -0.154,-0.39 -0.02,-0.158 0.58,0.182 1.288,0.684 z m 4.18,-0.652 -0.082,0.31 -0.206,-0.104 -0.61,0.16 -0.32,-0.036 -0.184,-0.278 -0.044,-0.128 0.53,0.1 -0.088,-0.308 0.764,0.158 0.24,0.126 z m -18.984,-4.522 -0.08,0.444 -0.46,-0.132 -0.094,-0.096 0.076,-0.28 0.408,-0.012 0.15,0.076 z m 1.022,-3.09 0.238,0 0.398,-0.422 0.346,-0.128 0.226,0.192 -0.368,1.348 -0.31,-0.204 -1.214,-0.376 -0.038,-0.534 -0.316,-0.172 -0.196,-0.52 -0.402,-0.576 -0.076,-0.37 0.228,0.152 0.256,0.376 1.062,0.772 -0.042,0.25 0.208,0.212 z m -3.102,-3.81 0.792,0.462 0.434,-0.134 0.236,0.076 0.508,0.536 0.028,0.392 0.082,0.336 -0.026,0.148 -0.282,0.2 0.026,-0.228 -0.216,-0.044 -0.738,0.01 -0.572,-0.142 -0.788,-0.038 0.332,-0.356 0.074,-0.146 -0.414,-0.572 -0.018,-0.272 0.034,-0.15 0.346,-0.082 0.162,0.004 z m -1.026,0.832 -0.078,0.14 -0.328,-0.102 -0.916,-0.782 0.142,-0.58 0.412,-0.3 0.626,0.328 0.208,0.48 0.062,0.268 -0.128,0.548 z m 12.83,-3.02 0.326,0.084 0.678,-0.042 0.224,0.324 0.31,0.112 0.268,0.146 0.238,0.212 -0.002,0.13 -0.056,0.112 -0.144,0.102 0.042,0.228 -0.248,-0.034 -0.308,0.12 -0.608,-0.266 -0.22,-0.06 -0.066,-0.228 -0.394,-0.382 -0.69,-0.274 0.348,-0.224 0.302,-0.06 z m -50.746,-1.838 0.102,0.248 -0.816,-0.338 -0.78,-0.566 -0.394,-0.154 -0.264,-0.374 0.484,0.278 0.844,0.26 0.824,0.646 z m 42.19,0.564 0.096,0.404 -0.438,-0.432 0.196,-0.488 0.034,-0.264 -0.022,-0.148 -0.438,-0.252 0.232,-0.412 0.246,-0.14 0.154,-0.04 -0.008,0.582 0.126,0.26 -0.178,0.93 z m -42.21,-1.42 -0.244,0.018 -0.99,-0.382 -0.252,-0.278 1.158,0.062 0.298,0.07 0.062,0.39 -0.032,0.12 z m 24.916,-14.924 -0.226,0.042 -0.098,-0.254 -0.526,-0.22 -0.524,-0.684 0.008,-0.586 0.068,-0.168 0.292,-0.008 1.168,0.676 0.122,0.216 -0.088,0.642 -0.196,0.344 z m 44.522,4.826 -0.136,0.526 -0.104,0.09 -0.128,-0.198 -0.488,0.192 -0.232,0.218 -0.248,0.16 -0.572,-0.04 -0.542,-0.144 -0.526,-0.266 -0.466,-0.342 -0.468,-0.538 -0.292,-0.556 0.144,-0.646 -0.182,-0.584 -0.884,-0.414 -0.194,-0.134 -0.392,-0.58 -0.39,-0.252 -0.498,-0.508 -0.126,-0.22 -0.212,-0.644 -0.068,-0.388 0.18,-1.13 -0.066,-0.564 0.242,0.054 0.258,0.222 0.292,0.154 0.71,0.104 0.542,0.45 0.522,0.878 0.062,0.288 0.166,0.208 0.536,0.374 0.28,0.24 0.53,0.958 0.292,0.204 0.348,0.082 0.322,0.138 0.538,0.42 0.496,0.476 0.334,0.5 0.256,0.536 0.164,0.676 z m -49.29,-7.036 -0.314,0.032 -0.512,-0.532 -0.13,-0.198 0.05,-0.278 0.652,-0.372 0.422,0.34 0.088,0.728 -0.256,0.28 z m 41.934,0.004 -0.112,0.044 -0.244,-0.708 -0.042,-0.524 -0.074,-0.386 -0.128,-0.23 0.368,-0.424 0.152,-0.118 0.278,0.224 0.042,0.498 0.212,0.422 -0.162,0.922 -0.29,0.28 z m -48.428,-3.954 -0.376,0.166 -0.27,-0.126 -0.116,-0.368 0.092,-0.354 0.33,-0.28 0.208,-0.084 0.234,0.19 0.09,0.376 -0.192,0.48 z m 33.096,-2.402 0.292,0.112 0.84,-0.584 0.45,0.408 0.574,0.198 0.596,0.112 -0.236,0.84 0.07,0.388 0.154,0.386 -0.02,0.57 -0.274,0.508 -0.526,0.742 -0.236,0.136 -0.276,0.08 -0.86,0.06 -0.166,0.394 0.056,0.418 0.464,0.548 0.372,0.616 -0.37,0.566 -0.61,0.396 -0.578,0.202 -0.958,-0.12 -1.01,0.05 -0.19,0.216 -0.004,0.358 -0.142,0.272 -0.184,0.248 -0.512,0.514 -0.574,0.454 -0.782,0.43 -0.262,0.102 -0.694,0.068 -0.622,0.248 -0.278,0.242 -0.302,0.196 -0.66,0.214 -0.642,0.424 -0.254,0.072 -1.334,0.074 -1.908,0.02 -0.564,0.044 -0.548,-0.058 -0.302,-0.166 -0.648,-0.762 -0.564,-0.262 -0.616,0.008 -0.82,0.27 -0.154,-0.06 -1.636,-1.126 -0.496,-0.276 -0.53,-0.204 -0.646,-0.144 -0.61,-0.226 -0.36,-0.536 0.042,-0.698 0.49,-0.41 0.746,0.202 0.286,-0.002 0.28,-0.116 0.33,0.038 0.332,0.102 1.21,-0.152 0.7,0.212 0.682,0.284 0.636,0.06 0.654,-0.06 0.876,-0.32 0.278,0.042 0.844,0.002 0.738,-0.428 0.276,-1.726 0.188,-0.588 0.252,-0.128 0.18,0.036 0.27,0.294 -0.346,0.366 -0.152,0.282 -0.05,0.688 0.19,0.668 0.432,0.53 0.648,0.068 0.594,-0.35 0.646,-0.074 0.596,0.34 0.612,-0.058 0.28,-0.222 0.326,-0.096 0.324,-0.036 0.294,-0.132 0.39,-0.578 0.26,-0.65 0.388,-0.512 1.058,-0.854 0.306,-0.106 0.33,-0.058 0.744,0.038 0.554,-0.304 0.042,-0.684 -0.08,-0.694 -0.632,-1.63 -0.042,-0.258 0.09,-0.29 0.184,-0.26 0.622,-0.004 0.648,0.094 0.256,0.246 0.288,0.206 z m 9.786,-1.104 -0.05,0.132 -0.33,-0.152 0.272,-0.286 0.13,-0.02 -0.022,0.326 z m -5.548,-5.396 -0.136,0.49 -0.344,-0.288 -0.234,-0.414 0.148,-0.184 0.386,-0.11 0.18,0.506 z m -3.208,-1.038 -0.06,0.282 -0.176,-0.016 -0.482,-0.552 -0.094,-0.144 0.114,-0.138 0.56,0.406 0.138,0.162 z m -0.796,-0.656 -0.134,0 -0.02,-0.446 0.092,-0.234 0.312,0.164 0.052,0.398 -0.302,0.118 z m -43.98,5.502 0.708,0.016 0.71,-0.086 0.292,0.038 0.288,0.088 0.262,0.168 0.132,0.322 0.442,0.448 0.624,0.202 0.594,0.406 0.534,0.484 0.392,0.488 0.446,0.412 0.674,0.174 0.71,0.028 2.428,2.45 0.118,0.378 0.028,1.608 -0.268,1.256 0.604,0.386 0.824,0.144 1.156,0.268 1.112,0.4 3.542,1.696 0.486,0.144 0.714,0.056 0.72,-0.024 0.258,0.086 0.54,0.308 0.27,0.202 0.484,0.548 0.432,0.596 0.186,0.17 0.218,0.132 0.126,0.324 0.168,1 -0.05,0.624 -0.198,0.232 -0.566,0.112 -1.984,0.106 -1.328,-0.116 -0.93,0.63 -0.026,0.276 0.066,0.256 0.808,1.338 0.476,1.188 0.394,0.482 0.59,0.392 0.526,0.464 0.484,0.534 1.006,0.93 0.546,0.346 0.642,0.212 1.068,0.722 0.142,0.318 0.304,1.004 0.132,0.682 0.02,0.282 0.076,0.252 0.94,0.62 0.208,0.172 0.418,1.376 0.322,0.64 0.542,0.226 0.63,-0.014 1.714,-0.41 0.248,-0.014 0.318,0.094 0.278,0.224 0.092,0.62 -0.27,0.652 -0.074,0.626 0.338,0.514 0.874,0.4 0.32,0.11 1.572,0.128 0.618,0.108 0.606,0.174 0.208,0.156 -0.146,0.276 -0.316,0.136 -0.36,0.054 -0.578,0.2 0.01,0.356 0.326,0.37 0.298,0.446 0.25,0.162 0.272,0.11 0.68,0.154 0.662,0.212 0.436,0.21 0.45,0.152 0.98,0.096 0.72,0.286 1.024,-0.12 -0.886,0.464 -0.306,0.114 -1.07,-0.174 -0.202,0.18 0.442,0.492 0.654,0.33 0.234,0.192 -0.164,0.224 -0.762,0.45 -0.318,0.066 -0.594,0.036 -0.996,-0.194 -0.706,-0.248 -0.198,-0.338 -0.188,-0.198 -0.636,-0.476 -0.454,-0.26 -0.576,-0.088 -0.602,0.004 -1.076,-0.276 -2.334,-0.196 -0.556,-0.12 -0.7,-0.38 -0.33,-0.054 -0.354,0.12 -0.902,0.074 -0.264,-0.034 -0.644,-0.324 -0.662,-0.12 -0.278,0.098 -0.28,0.022 -0.906,-0.232 -0.682,-0.098 -0.56,-0.324 -0.304,-0.302 -0.344,-0.268 -0.318,-0.69 -0.494,-0.654 -0.616,-0.538 -1.316,-0.868 -0.264,-0.216 -0.516,-0.794 0.028,-0.528 0.188,-0.532 -0.284,0.182 -0.32,-0.024 -0.896,-0.352 -0.37,-0.418 -0.598,-1.136 -0.382,-0.6 -0.894,-1.06 -0.258,-0.628 -0.376,-0.55 -0.23,-0.204 -0.192,-0.236 -0.17,-0.306 -0.254,-0.212 -1.248,-0.47 -0.218,-0.148 -0.242,-0.078 -0.928,-0.048 -0.538,-0.078 -1.012,-0.386 -0.524,-0.116 -0.628,-0.074 -0.61,-0.146 -0.296,-0.144 -0.2,-0.242 -0.118,-0.574 -0.512,0.062 -0.5,-0.1 -0.484,-0.202 -0.494,-0.122 -0.338,0.174 -0.104,0.458 -0.156,0.024 -0.29,-0.094 -0.144,0.056 -0.314,0.21 -0.25,0.286 -0.464,-0.044 -0.95,-0.288 -0.424,-0.18 -0.36,-0.326 -0.308,-0.37 -0.312,-0.292 -0.384,-0.212 0.488,0.504 1.126,2.218 -0.282,0.042 -0.29,-0.056 0.266,0.426 -0.306,0.064 -0.304,-0.004 -0.64,-0.184 -0.636,-0.062 -0.188,0.09 0.134,0.16 0.224,0.472 0.178,0.494 -0.92,0.222 -0.944,0.136 -1.05,0.266 -1.062,0.018 -0.544,-0.152 -0.558,-0.086 -0.528,0.086 -0.51,0.194 -0.43,-0.032 -0.272,-0.348 -0.126,-0.262 -0.162,-0.228 -0.402,0.036 -0.388,0.124 0.664,0.014 0.2,0.292 0.172,0.352 0.47,0.32 0.566,-0.19 1.246,0.052 1.21,0.558 0.288,0.064 0.264,0.11 0.624,0.55 0.47,0.5 0.396,0.572 0.084,0.224 -0.028,0.6 -0.12,0.298 -0.782,0.422 -0.834,0.32 -1.23,0.622 -1.19,0.708 -0.626,-0.138 -0.564,-0.376 -0.218,-0.102 -0.582,-0.204 -0.354,-0.074 -1.408,0.16 -1.41,0.082 -0.596,-0.006 -0.576,-0.12 -0.634,-0.222 -0.628,0.098 -0.43,0.26 -0.47,0.04 -0.88,-0.58 -0.002,-0.074 0,-1.148 0,-1.146 0,-1.146 -0.002,-1.146 0,-1.146 0,-1.144 0,-1.144 0,-1.144 -0.002,-1.144 0,-1.142 0,-0.94 -0.312,-0.366 -0.32,-0.562 0.068,-0.722 0.388,-0.892 0.174,-0.596 0,-0.486 0,-1.14 0,-1.14 -0.002,-1.14 0,-1.138 0,-1.138 0,-1.138 0,-1.138 -0.002,-1.138 0,-1.136 0,-1.136 0,-1.136 0,-1.136 -0.002,-1.136 0,-1.136 0,-1.136 -0.002,-1.134 0,-1.134 0,-0.684 0,-0.376 0,-0.022 0.168,0.002 0.568,0.006 0.456,0.092 2.812,1.212 0.84,0.486 0.288,0.114 0.282,0.004 0.27,0.056 1.268,0.67 1.894,0.676 2,0.648 0.62,0.136 0.642,0.056 1.392,0.224 0.734,0.2 1.074,0.794 0.542,0.246 0.508,0.448 0.718,0.482 0.284,0.122 0.312,0.064 z m 49.64,5.262 -0.416,0.426 -0.258,-0.398 -0.332,-0.348 -0.262,-0.356 -0.334,-0.768 -0.016,-0.386 0.088,-0.41 0.02,-0.414 -0.16,-0.84 -0.392,-0.766 -1.362,-1.826 -0.428,-0.478 -0.49,-0.428 -0.314,-0.104 -0.634,-0.102 -0.282,-0.086 -0.524,-0.298 -0.486,-0.346 -1.206,-1.03 -0.636,-0.292 -0.336,-0.36 -1.898,-1.16 -0.554,-0.274 -0.676,0 -0.57,-0.228 0.452,-0.144 0.094,-0.388 -0.1,-0.394 0.954,0.644 1.006,0.562 0.292,0.454 0.496,0.028 0.902,0.376 0.62,0.338 0.584,0.39 0.658,0.558 1.268,0.438 0.18,0.16 0.642,0.728 0.842,0.618 0.288,0.34 3.57,2.926 0.604,0.82 0.046,0.56 -0.118,0.22 -0.376,0.474 0.006,0.56 -0.126,0.502 -0.326,0.502 z m -14.196,-11.704 -1.12,0.076 -0.402,-0.084 -0.36,-0.322 -0.326,-0.502 -0.328,-0.118 -0.132,-0.098 0.792,-0.384 0.702,-0.116 1.134,0.48 0.116,0.24 0.01,0.156 -0.032,0.51 -0.054,0.162 z m -14.368,-2.112 -0.182,0.294 -0.424,-0.026 -0.188,-0.086 0.306,-0.056 0.124,-0.242 0.132,-0.086 0.232,0.202 z m -4.544,-1.802 1.872,0.362 0.124,-0.004 -0.022,-0.13 0.032,-0.036 0.112,0.094 -0.036,0.264 -0.294,0.066 -0.276,-0.026 -0.196,0.138 -0.536,0.51 -0.36,-0.084 -0.44,0.114 -0.772,0.01 -1.002,-0.224 -0.276,0.19 -0.356,-0.052 -0.354,0.208 -0.146,-0.01 -0.086,-0.304 0.006,-0.156 0.42,-0.13 -0.062,-0.478 0.338,-0.24 0.584,0.02 0.544,-0.162 1.182,0.06 z m 15.146,-2.272 -0.014,0.202 -0.404,-0.102 -0.112,0.032 -0.704,-0.584 0.012,-0.356 0.186,-0.304 0.292,0.048 0.518,0.382 0.226,0.682 z" title="Papua New Guinea" id="PG"></path></svg>