<svg xmlns="http://www.w3.org/2000/svg" width="54.02" height="90.64"><path d="m 27.56,0.36 -0.272,0.486 -0.218,-0.004 0.032,-0.272 0.29,-0.564 0.108,0.012 0.06,0.342 z m 0.46,2.48 -0.104,0.072 -0.154,-0.034 0.152,-0.562 0.282,-0.154 0.224,0.06 -0.4,0.618 z m -2.466,5.956 0.058,0.536 -0.332,-0.012 -0.5,-0.326 -0.046,-0.166 0.008,-0.138 0.088,-0.118 0.724,0.224 z m -1.508,1.65 -0.032,0.398 -0.284,-0.21 -0.062,-0.298 0.028,-0.222 0.13,-0.264 0.178,0.24 0.042,0.356 z m 3.758,1.108 -0.356,0.424 -0.186,-0.118 0.2,-0.412 -0.006,-0.144 0.164,-0.322 0.304,-0.112 0.25,0.318 -0.37,0.366 z m -4.604,1.646 0.86,0.306 1.9,1.1 0.694,0.272 0.724,0.204 0.57,0.06 0.512,-0.252 0.214,-0.256 0.392,-0.676 0.418,-0.084 0.248,0.246 0.194,0.33 0.086,0.484 -0.12,0.506 -0.398,0.454 -0.244,0.544 -0.16,1.804 0.008,0.54 0.128,0.52 0.346,0.824 0.18,0.232 0.524,0.294 0.142,0.222 0.03,0.4 0.082,0.352 0.34,0.134 0.288,0.176 -0.108,0.39 -0.18,0.396 -0.236,0.976 -1.124,2.256 -0.064,0.486 -0.444,0.968 -0.902,0.156 -1.042,0.468 -0.58,0.364 -0.506,0.472 -0.192,0.618 0.164,0.282 0.106,0.302 -0.012,0.326 -0.156,0.27 -0.502,0.658 -0.212,0.538 -0.224,0.242 -0.11,0.292 0.038,0.334 0.202,0.292 0.612,1.254 0.656,1.21 0.14,0.14 0.054,0.162 -0.386,0.32 0.008,0.58 0.116,0.576 0.58,1.424 0.082,0.38 0.192,0.312 0.296,0.292 0.326,0.246 0.944,0.42 0.364,0.084 0.378,0.014 0.094,-0.284 0.33,-0.096 -0.072,-0.278 -0.404,-0.386 -0.016,-0.208 0.212,-0.156 0.252,-0.09 0.568,-0.42 0.602,-0.336 0.766,0.028 0.75,0.188 0.534,0.196 0.44,0.36 0.452,0.624 0.316,0.69 -0.002,0.328 -0.076,0.33 0.016,0.326 0.236,0.222 0.726,0.016 0.37,-0.512 0.046,-0.576 -0.26,-0.222 0.12,-0.284 0.222,-0.212 0.322,0.19 0.306,0.358 1.126,0.39 0.288,0.008 0.234,0.074 0.504,0.27 0.236,0.216 -0.29,0.448 -1.118,0.1 -0.324,0.336 0.33,0.674 0.536,0.554 0.344,0.448 0.304,0.482 -0.014,0.446 -0.178,0.464 0.492,-0.036 0.462,0.098 0.64,0.388 0.2,0.04 0.212,-0.062 -0.03,1.4 -0.436,1.282 -0.55,-0.16 -0.47,-0.542 0.096,-0.66 0.3,-0.638 -0.172,-0.134 -0.302,0.052 -0.346,0.144 -0.374,0.05 -0.614,-0.084 -1.26,-0.694 -0.512,-0.064 -0.116,-0.314 0.028,-0.666 -0.502,-0.792 -0.08,-0.284 -0.16,-0.222 -1.498,-0.862 -0.184,-0.146 -0.46,-0.688 -1.044,-0.98 -0.292,-0.1 -0.318,-0.028 -0.104,0.248 0.144,0.382 0.058,0.328 -0.022,0.344 0.042,0.266 0.494,0.544 0.074,0.256 0.33,0.698 0.04,0.816 -0.422,0.338 -0.474,-0.376 -0.016,-0.308 -0.082,-0.286 -0.51,-0.742 -0.172,-0.16 -0.96,-0.732 -0.744,-0.804 -1.654,-0.858 -0.198,-0.046 -0.288,0.064 -0.27,0.106 -0.8,0.424 -0.282,0.294 -0.026,0.454 -0.574,0.36 -0.79,0.05 -0.606,-0.226 -0.502,-0.452 -0.414,-0.022 -0.514,-0.706 -0.626,-0.09 -0.518,0.552 -0.11,-1.096 -0.004,-1.108 0.144,-0.324 0.258,-0.27 1.31,-1.164 0.166,-0.374 -0.056,-0.5 -0.298,-0.408 -0.47,-0.248 -0.542,-0.104 -0.39,-0.228 -0.306,-0.376 -0.208,0.666 0.202,0.988 0.034,0.642 -0.186,0.242 -0.336,0.006 -0.32,-0.076 -0.238,-0.23 -0.174,-0.664 -0.458,-0.438 -0.186,-0.628 -0.208,-0.09 -0.426,0.048 -0.314,-0.292 -0.208,-0.734 -0.044,-0.788 -0.178,-0.664 -0.256,-0.642 -0.15,-0.524 -0.23,-2.356 -0.056,-0.216 -0.124,-0.178 -0.29,-0.268 -0.218,-0.328 -0.042,-0.27 0.06,-1.162 0.1,-0.28 0.226,-0.134 0.31,0.228 0.248,0.282 0.308,0.136 0.272,0.178 0.508,0.688 0.2,0.108 0.626,-0.022 0.37,-0.086 0.178,-0.25 0.114,-0.298 0.002,-0.352 -0.362,-1.04 -0.11,-0.75 -0.006,-0.676 0.094,-0.678 0.494,-1.128 0.062,-0.784 -0.046,-1.05 0.086,-0.626 -0.014,-0.36 -0.294,-0.566 -0.078,-0.604 0.824,-3.074 0.258,-0.596 0.188,-0.616 0.086,-0.818 0.616,-0.224 0.586,-0.338 0.302,0.026 0.322,0.082 0.708,-0.168 0.286,-0.01 z m 5.234,21.044 0.102,0.202 -0.114,-0.01 -0.08,0.038 -0.264,0.416 0.288,0.77 -0.178,0.56 -0.32,0.036 -0.126,-0.06 0.066,-0.278 0.068,-0.126 -0.064,-0.366 -0.19,-0.23 -0.152,-0.446 -0.234,-0.268 0.11,-0.43 0.74,-0.048 0.348,0.24 z m 0.794,5.51 -0.018,0.234 -1.21,-0.852 -0.056,-0.146 -0.002,-0.136 0.074,-0.136 1.212,1.036 z m 12.226,2.392 -0.148,0.372 -0.184,-0.132 -0.26,0.022 -0.408,0.316 -0.664,-0.424 -0.102,-0.332 0.474,-0.73 -0.004,-1.086 0.174,-0.268 0.182,-0.192 0.216,-0.104 0.468,0.75 0.16,0.092 0.452,0.344 -0.118,0.694 0.042,0.406 -0.28,0.272 z m -22.914,-0.68 0.008,0.388 -0.946,-0.572 -0.028,-0.198 0.024,-0.148 0.098,-0.088 0.508,0.214 0.336,0.404 z m 9.226,1.208 0.348,0.016 0.108,-0.054 0.666,0.48 -0.04,0.244 0.084,0.32 -0.38,0.552 -0.068,0.186 -0.21,0.18 -0.722,-0.44 -0.264,-0.268 -0.078,-0.548 0.288,-0.814 0.268,0.146 z m -6.794,0.348 0.286,0.048 0.898,-0.172 0.368,0.086 0.246,0.33 0.306,0.102 0.242,0.168 0.452,-0.292 0.458,0.334 0.406,0.624 0.478,0.442 0.454,0.328 0.088,0.242 -0.274,0.398 -0.084,0.502 0.028,0.542 0.342,1.138 -0.12,0.308 -0.344,0.436 -0.258,0.484 0.034,0.196 -0.102,0.16 -0.032,0.342 -0.21,-0.072 -0.194,0.054 -0.188,0.154 -0.292,0.33 -0.458,-0.1 -0.214,-0.098 -0.052,-0.286 -0.136,-0.202 -0.196,-0.12 -0.482,-0.494 -0.226,-0.372 -0.004,-0.396 -0.126,-0.37 -0.25,-0.33 -0.33,-0.254 -0.11,-0.244 -0.042,-0.288 -0.03,-0.738 -0.466,-0.92 -0.164,-0.22 -0.438,-0.228 -0.366,-0.294 -0.154,-0.292 -0.142,-0.472 -0.098,-0.068 -0.284,0.022 -0.276,-0.062 0.08,-0.346 0.274,-0.252 0.376,-0.032 1.04,0.142 0.286,0.102 z m 14.466,3.586 0.478,0.874 -0.522,-0.596 -0.606,-0.406 -0.628,-0.672 -0.454,-0.236 -0.138,-0.136 0.048,-0.278 0.334,-0.052 0.148,0.016 0.914,1.19 0.426,0.296 z m 2.772,2.284 0.02,0.5 -0.21,-0.184 -0.678,-0.982 -0.188,-0.358 0.192,-0.238 0.49,0.366 0.374,0.896 z m -9.438,0.566 -0.452,1.422 -0.3,-0.49 0.122,-0.308 -0.26,-0.256 -0.068,-0.234 0.1,-0.308 0.272,-0.286 0.068,-0.932 0.574,-0.298 0.23,-0.012 -0.082,0.228 0.008,0.43 -0.212,1.044 z m 1.216,-0.994 -0.174,0.174 -0.106,-0.028 -0.072,-0.308 0.168,-0.206 0.054,0.02 0.13,0.348 z m 7.89,1.38 1.076,0.674 0.742,1.154 0.086,0.884 -0.056,0.336 -0.354,-0.378 -0.758,-0.54 -0.526,-0.12 -0.162,-0.098 0.06,-0.292 -0.344,-0.27 -0.04,-0.11 -0.312,-0.12 -0.456,-0.606 -0.322,-0.114 -0.306,0.128 -0.708,0.9 -0.758,0.632 -0.01,-0.242 0.306,-0.79 0.196,-1.264 0.124,-0.384 -0.154,-0.568 -0.02,-0.506 0.566,0.234 0.708,0.236 0.54,0.322 0.088,0.216 0.794,0.686 z m 8.55,-1.374 0.396,0.466 0.098,0.336 -0.042,0.374 0.18,0.166 0.318,0.044 0.406,0.188 0.304,0.346 -0.182,0.316 0.056,0.462 -0.318,0.582 0.042,1.032 0.184,0.33 0.018,0.332 -0.046,0.348 0.078,0.286 0.49,0.944 0.09,0.314 -0.15,0.248 -0.048,0.236 0.302,0.024 0.43,0.392 0.254,0.518 -0.076,0.136 -0.344,-0.406 -0.26,-0.064 -1.102,0.11 -0.676,-0.168 -0.438,-0.016 -0.438,-0.694 -0.38,-0.116 -0.3,-0.306 -0.5,-0.786 -0.158,-0.45 0.348,-0.456 0.11,-0.364 -0.02,-0.356 -0.332,0.058 -0.29,-0.118 -0.354,-0.438 -0.142,-0.252 -0.258,-0.21 -0.41,-0.5 -0.59,-0.196 -0.24,-0.136 -0.466,-0.42 -0.342,-0.52 -0.332,-0.912 -0.174,-0.946 1.522,0.246 1.54,-0.048 1.74,-0.216 0.502,0.26 z m -14.51,1.25 -0.288,0.134 -0.584,-0.56 -0.34,-0.262 -0.088,-0.146 0.274,-0.21 0.74,0.002 0.392,0.384 0.054,0.24 -0.16,0.418 z m -14.338,0.806 0.306,0.086 0.218,-0.084 0.194,-0.302 0.182,0.446 0.456,0.366 -0.152,0.372 -0.398,0.042 -0.39,-0.084 -0.414,0.148 -0.502,-0.084 -0.3,-0.348 -0.342,-0.626 -0.17,-0.116 0.022,-0.256 0.126,-0.162 -0.066,-0.042 0.032,-0.114 0.062,-0.078 0.11,-0.032 0.268,0.278 0.636,0.414 0.122,0.176 z m -0.344,2.648 -0.42,0.194 -0.108,-0.122 -0.074,-0.282 0.006,-0.194 -0.402,-1.024 0.308,-0.156 0.228,0.12 0.23,0.162 0.214,0.084 0.196,0.324 -0.046,0.224 0.06,0.216 -0.192,0.454 z m 13.792,0.502 0.654,0.29 0.636,-0.25 0.628,0.07 0.522,0.378 -0.17,0.24 -0.036,0.262 1.168,-0.57 0.312,0.034 -0.01,0.53 -0.07,0.45 -0.136,0.436 -0.248,0.51 -0.332,0.458 -0.436,0.332 -0.518,0.202 -0.246,0.184 -0.074,0.278 0.01,0.348 -0.12,0.318 -0.542,0.13 -0.848,0.618 -1.822,0.392 -0.5,0.27 -0.318,0.348 -0.356,0.316 -0.194,0.078 -0.088,-0.15 -0.026,-0.128 0.26,-0.822 -0.042,-0.342 -0.126,-0.332 0.08,-0.65 0.316,-0.61 0.168,-0.672 0.05,-1.296 0.246,-1.806 -0.014,-0.216 -0.192,-0.244 -0.708,-0.198 -0.28,-0.186 0.14,-0.362 0.268,-0.246 0.368,0.01 0.324,0.23 1.144,0.474 0.608,0.398 0.55,0.496 z m 13.238,0.116 -0.104,0.292 -0.164,-0.082 -0.142,-0.132 -0.21,-0.442 -0.072,-0.324 0.324,0.182 0.186,0.322 0.182,0.184 z m -1.382,0.584 -0.702,0.036 -0.306,-0.26 -0.382,-0.764 0.432,-0.166 0.412,0.044 0.302,0.27 0.322,0.512 -0.078,0.328 z m -0.19,0.848 0.39,0.2 0.45,-0.08 0.544,-0.452 0.612,0.164 0.358,0.666 0.184,0.25 0.1,0.434 -0.026,1.042 -0.148,0.944 0.116,0.194 0.282,0.17 0.244,0.208 0.206,0.268 0.132,0.298 0.052,0.724 0.354,0.61 0.046,0.238 -0.084,0.25 -0.59,-0.048 -0.046,0.21 0.014,0.26 -0.208,-0.164 -0.346,-0.596 -0.316,-0.25 0.098,0.966 0.104,0.462 0.018,0.466 -0.546,-0.356 -0.652,-0.22 -0.18,-0.19 0.06,-0.604 -0.012,-0.3 -0.292,-0.636 0.342,-1.376 -0.008,-0.282 -0.058,-0.282 -0.27,-0.558 -0.428,-0.468 -0.262,0 -0.634,0.328 -0.322,-0.108 -0.19,-1.29 -0.256,-1.252 -0.198,-0.32 -0.126,-0.336 0.126,-0.278 0.244,0.114 0.348,0.33 0.42,0.19 0.21,0.166 0.144,0.294 z m -26.454,-1.038 0.122,0.3 -0.158,0.452 -0.134,0.098 -0.18,-0.188 -0.384,-0.132 -0.026,-0.244 0.202,0.006 0.368,-0.238 0.19,-0.054 z m -14.314,17.476 -0.52,0.408 0.056,-0.504 0.152,-0.474 0.528,-0.974 0.382,-0.3 0.628,-0.766 0.356,-0.372 0.852,-0.734 0.784,-0.804 0.264,-0.06 0.29,-0.012 0.228,-0.092 0.512,-0.434 1.286,-1.448 1.064,-1.08 1.09,-1.366 0.52,-0.398 0.138,-0.146 1.004,-1.26 0.314,-0.184 0.356,-0.132 0.24,-0.17 0.212,-0.214 0.354,-0.548 0.144,-0.642 -0.09,-0.362 -0.2,-0.534 0.25,-0.73 0.198,-0.336 0.7,-1.484 0.202,-0.3 0.292,0.188 0.04,0.266 -0.144,0.626 -0.012,0.314 0.166,0.318 -0.2,0.526 0.502,1.396 0.384,0.882 0.014,0.292 -0.516,0.528 -0.306,0.16 -0.662,0.142 -0.298,0.154 -0.474,0.428 -0.296,0.564 -0.074,0.292 -0.152,0.224 -1.364,0.382 -0.64,0.25 -0.292,0.188 -0.154,0.306 0.108,0.54 -1.146,1.946 -0.366,0.508 -0.39,0.434 -0.48,0.308 -0.674,0.188 -0.536,0.376 -0.364,0.666 -0.448,0.6 -0.566,0.446 -0.612,0.392 -0.56,0.286 -0.606,0.202 -0.182,0.262 -0.128,0.324 -0.268,0.152 -0.318,0.086 -0.572,0.31 z m 36.18,-16.098 0.328,0.754 -0.444,-0.004 -0.162,-0.548 0.19,-0.178 0.088,-0.024 z m -2.17,10.396 -0.216,0.15 -0.088,-0.374 0.062,-0.504 0.43,-1.76 -0.098,-0.44 0.718,-0.982 0.442,-0.92 0.666,-0.968 0.084,-0.502 0.59,-0.958 0.55,-1.322 -0.03,-0.438 0.142,-0.218 0.08,-0.332 0.016,-0.282 0.404,-0.492 0.106,0.32 -0.12,0.628 0.02,0.302 0.07,0.142 0.004,0.584 -0.144,0.896 0.132,1.034 -0.26,1.052 -0.296,0.472 -0.438,0.334 -0.478,0.208 -0.496,0.524 -0.32,0.612 -0.052,0.558 -0.788,1.88 -0.692,0.796 z m -1.344,2.178 -0.372,0.06 -0.392,-0.032 -0.264,-0.278 -0.456,-1.196 -0.53,-0.292 -0.606,-0.22 -0.304,-0.186 -0.268,-0.224 -0.852,-1.194 -0.064,-0.73 0.146,-0.414 0.258,-0.37 0.292,-0.1 0.702,-0.014 0.364,-0.048 0.8,-0.548 0.056,-0.216 0.006,-0.902 -0.08,-0.63 -0.2,-0.616 0.216,-0.282 0.284,-0.278 0.294,-0.544 0.056,-0.382 0.006,-0.4 0.076,-0.286 0.23,-0.144 1.108,-0.436 0.196,-0.03 1.426,0.404 0.292,0.608 0.028,0.2 -0.222,0.674 -0.198,0.452 -0.48,0.7 -0.358,0.756 -0.266,1.138 -0.168,0.37 -0.448,0.712 -0.136,0.39 0.004,0.846 -0.076,0.312 0.004,0.3 0.888,1.41 0.076,0.222 -0.008,0.252 -0.152,0.314 -0.364,0.542 -0.204,0.19 -0.34,0.14 z m -2.702,-7.97 -0.156,0.078 -0.138,-0.01 -0.33,0.204 -0.122,-0.382 0.118,-0.652 0.496,-0.498 0.126,-0.156 0.134,-0.092 0.162,-0.01 0.156,0.194 0.044,0.294 -0.314,0.888 -0.176,0.142 z m 9.356,-0.756 -0.156,0.026 0.26,-0.596 0.206,0.086 0.062,0.066 -0.006,0.268 -0.366,0.15 z m -24.698,0.68 -0.692,0.174 -0.16,-0.546 0.49,-0.502 0.55,0.202 0.328,0.196 -0.154,0.178 -0.362,0.298 z m 32.408,3.238 -0.098,0.158 -0.134,-0.326 -0.326,-0.306 -0.314,-0.52 -0.222,-0.162 0.152,-0.412 0.014,-0.67 0.312,-0.306 0.144,-0.09 0.236,-0.326 0.106,-0.018 0.1,0.272 -0.212,0.832 0.318,0.984 -0.108,0.614 0.046,0.138 -0.014,0.138 z m -6.152,0.72 -0.054,0.208 -0.442,-0.016 -0.158,0.032 -0.416,0.532 -0.244,0.134 -1.332,0.174 -1.048,-0.14 -0.36,-0.292 -0.234,-0.482 -0.072,-0.318 0.264,-0.348 0.252,-0.23 0.848,-0.456 0.192,-0.346 0.444,-0.418 0.914,-0.14 0.088,0.104 0.122,0.066 0.184,0.018 0.454,0.344 0.508,0.22 -0.124,0.834 0.152,0.282 0.062,0.238 z m 3.856,-1.104 0.038,0.28 -0.72,-0.738 -0.146,-0.522 0.24,0.022 0.308,0.2 0.28,0.758 z m 4.368,1.224 -0.07,0.03 -0.312,-0.44 0.042,-0.5 0.422,-0.748 0.312,0.654 -0.004,0.296 -0.044,0.146 0.292,0.37 -0.202,0.182 -0.436,0.01 z m -0.298,2.516 0.458,0.34 0.594,-0.09 -0.008,0.858 0.096,0.25 0.538,0.726 0.084,0.606 -0.318,0.568 -0.238,0.27 -0.444,0.388 -0.01,0.178 0.188,0.202 0.614,0.116 0.464,0.312 0.082,0.886 0.444,0.698 -0.012,0.304 -0.176,1.248 0.056,0.532 0.332,0.426 0.28,0.18 0.144,0.268 0.13,0.734 -0.024,1.246 -0.042,0.436 -0.196,0.404 -0.606,0.918 -0.812,0.73 -0.434,-0.048 -0.138,0.216 0.27,0.666 -0.108,1.406 -0.178,0.974 -0.264,-0.494 -0.184,-0.516 -0.166,-1.368 -0.208,-0.616 -0.326,-0.564 -0.13,-0.504 -0.338,-0.47 -0.432,-1.216 -0.286,0.062 -0.474,0.334 -0.106,0.228 -0.056,0.346 -0.11,0.312 -0.552,0.498 -0.436,0.592 -0.358,0.648 -0.114,0.594 0.292,0.464 0.3,0.188 0.438,0.416 0.134,0.19 0.46,1.35 -0.016,1.382 -0.336,0.608 -0.854,1.154 -0.616,0.366 -0.328,-0.186 -0.264,-0.7 -0.042,-0.288 0.178,-0.658 0.02,-0.602 -0.208,-0.204 -0.226,0.04 -0.096,0.086 -0.55,0.79 -0.228,0.2 -0.338,0.028 -0.268,-0.054 -1.632,-0.69 -1.334,-0.68 -1.044,-0.636 -0.756,-0.96 -0.158,-0.718 -0.01,-0.752 -0.338,-1.102 -0.04,-0.376 0.024,-0.36 0.338,-0.676 0.406,-0.342 0.228,-0.246 0.182,-0.272 0.126,-0.364 -0.036,-0.362 -0.136,-0.226 -0.642,-0.794 -0.558,-0.488 -1.142,-0.438 -0.266,-0.242 -0.292,-0.182 -0.318,-0.078 -0.312,-0.002 -0.338,0.136 -0.088,0.29 0.024,0.26 -0.03,0.252 -0.478,1.45 -0.612,-0.318 -0.584,-0.368 -0.154,-0.258 -0.066,-0.308 -0.1,-0.208 -0.136,-0.188 -0.268,0.484 -0.334,0.382 -0.408,0.088 -0.414,0.006 -0.136,-0.166 -0.15,-0.922 -0.438,-0.292 -0.548,0.062 -0.664,0.508 -0.13,0.19 -0.146,0.438 -0.722,1.244 -0.382,0.956 -0.424,0.932 -0.188,0.306 -0.25,0.202 -0.394,-0.084 -0.358,-0.222 -0.336,-0.6 0.114,-0.698 0.376,-0.446 0.314,-0.476 0.378,-1.666 0.03,-0.592 0.066,-0.254 0.626,-0.758 0.528,-0.47 0.278,-0.098 1.138,-0.268 0.468,-0.224 0.738,-0.004 0.6,-0.128 0.478,-0.362 0.036,-0.374 -0.022,-0.39 0.106,-0.238 0.184,-0.2 0.256,-0.264 0.288,-0.198 0.818,-0.144 0.272,-0.164 0.218,-0.254 0.304,-0.496 0.362,0.124 0.364,0.192 0.654,0.152 0.578,0.412 0.372,0.648 0.062,0.32 0.096,1.054 -0.134,0.246 -0.564,0.49 0.26,0.052 0.74,-0.446 0.37,-0.172 0.912,-0.24 0.214,-0.158 0.158,-0.236 0.322,-0.646 0.234,-0.69 0.186,-0.288 0.262,-0.228 0.262,-0.038 0.958,0.472 0.614,-0.228 0.172,-0.716 0.14,-1.04 0.11,-0.282 0.352,-0.272 0.42,0.088 0.576,0.374 0.532,0.124 0.198,-0.3 0.188,-0.592 0.214,0.002 0.716,0.196 0.692,-0.13 0.196,-0.712 -0.13,-0.762 -0.542,-2.224 0.322,-0.496 0.28,-0.014 0.682,0.592 1.314,0.8 0.438,0.488 0.276,0.6 z m -0.2,-1.54 -0.102,0.144 -0.17,-0.302 0.148,-0.666 0.108,-0.112 0.14,0.422 -0.124,0.514 z m -12.758,2.014 0.048,0.586 -0.516,0.17 -0.414,-0.15 -0.266,-0.352 0.002,-0.132 0.232,0.01 0.51,-0.308 0.162,-0.06 0.242,0.236 z m 6.226,0.534 -0.16,0.336 -0.63,-0.278 -0.15,-0.242 0.08,-0.286 0.308,-0.098 0.16,0 0.3,0.3 0.092,0.268 z m -41.824,5.234 -0.382,0.132 -0.084,-0.352 0.048,-0.346 0.274,0.038 0.134,0.108 0.01,0.42 z m -1.546,1.866 -0.292,0.428 -0.33,-0.492 0.036,-0.686 0.102,-0.19 0.466,-0.104 0.018,1.044 z m 32.876,2.67 0.062,0.13 -0.026,0.14 -0.584,0.26 -0.196,-0.008 -0.046,-0.434 0.144,-0.198 0.276,0.176 0.244,-0.204 0.126,0.138 z m 15.984,2.508 -0.088,0.32 -0.346,-0.754 -0.136,-0.186 0.176,-0.63 0.386,0.308 0.008,0.942 z m -20.722,3 -0.568,0.078 -0.182,-0.006 -0.446,-0.572 -0.042,-0.252 -0.358,-0.286 0.13,-0.284 0.464,-0.068 0.804,-0.362 1.29,0.572 0.2,0.206 -0.402,0.126 -0.286,0.542 -0.604,0.306 z m -5.242,1.978 0.306,0.404 0.384,-0.106 0.612,0.114 0.13,0.21 -0.02,0.138 -0.654,0.39 -0.43,-0.408 -0.758,0.278 -0.362,-0.168 -0.494,0.15 -0.304,-0.316 0.124,-0.304 0.784,-0.5 0.682,0.118 z m -5.1,4.59 -0.152,0.338 -0.178,0.158 -0.232,-0.088 -0.178,-0.174 -0.1,0.26 -0.49,0.1 -0.31,0.4 -0.452,0.108 -0.316,-0.052 0.034,-0.356 0.874,-0.534 0.544,-0.198 0.478,-0.386 0.24,-0.042 0.122,0.314 0.116,0.152 z" title="Philippines" id="PH"></path></svg>