<svg xmlns="http://www.w3.org/2000/svg" width="95.17" height="86.34"><path d="m 78.56,0.4 0.27,0.186 0.336,-0.11 0.59,-0.132 0.512,0.098 1.13,0.418 0.17,0.208 0.266,1.014 0.202,0.092 0.636,-0.238 0.526,0.12 0.59,0.328 0.38,0.316 0.252,0.34 0.27,0.552 0.104,0.44 0.128,0.526 -0.034,1.48 -0.192,0.242 -0.164,0.314 0.04,0.274 0.186,0.216 0.366,0.148 0.338,0.092 0.182,0.234 0.25,0.828 0.168,0.128 0.416,-0.004 0.752,-0.18 0.652,-0.284 0.278,-0.06 0.068,0.786 0.384,0.3 0.536,0.35 0.222,0.116 0.628,0.332 1.186,0.422 1.15,0.302 0.852,0.224 0.412,0.014 0.294,0.01 0.85,-0.06 0.424,-0.104 -0.576,0.36 -0.704,0.444 -0.832,0.52 -0.732,0.46 -0.7,0.438 -0.67,0.42 -0.102,0.326 -0.166,0.478 -0.614,0.364 -0.612,0.262 -0.142,0.154 -0.046,0.206 -0.296,0.412 -0.572,0.348 -0.474,-0.034 -0.3,-0.104 -1.594,0.6 -0.74,-0.014 -0.576,0.388 -0.428,0.356 -0.856,0.388 -0.582,0.002 -0.86,-0.23 -1.058,-0.44 -0.428,-0.254 -0.388,0.014 -0.936,-0.06 -0.916,-0.218 -1.092,-0.258 -0.54,-0.11 -1.108,-0.228 -0.722,0.304 -0.652,0.272 -0.53,0.186 -0.438,0.844 -0.186,0.298 -0.212,0.424 -0.1,0.3 0.088,0.358 0.642,0.252 0.268,0.348 0.04,0.306 -0.232,0.314 -0.194,0.248 0.002,0.218 0.104,0.22 0.154,0.164 0.912,0.102 0.542,0.002 0.21,0.088 0.026,0.298 -0.2,0.4 -0.768,0.322 -0.434,0.34 -0.14,0.45 0.006,0.358 0.15,0.238 0.368,0.274 0.346,0.312 0.106,0.254 -0.044,0.348 -0.138,0.476 -0.378,0.554 -0.316,0.394 -0.022,0.14 0.078,0.212 0.254,0.308 0.432,0.454 0.538,0.366 0.346,0.102 0.11,0.09 0.108,0.424 0.042,0.446 -0.138,0.336 0.276,0.276 0.722,-0.014 0.588,0.118 0.248,-0.118 0.174,0.088 -0.11,0.996 0.08,0.588 0.158,0.166 0.578,0.24 1.112,-0.03 0.658,0.278 0.726,0.318 0.386,0.352 0.174,0.262 -0.048,0.422 -0.398,0.494 -0.646,0.236 -0.378,0.102 -1.864,0.924 -0.582,0.39 -0.452,0.468 -0.166,0.352 -0.088,0.342 0.404,1.24 0.068,0.384 -0.332,1.334 -0.098,0.494 0.126,0.346 0.396,0.128 0.086,0.29 0.038,0.222 -0.688,0.488 -0.728,0.432 -0.23,-0.002 -0.696,0.81 -1.158,1.618 -0.616,0.548 -0.044,0.266 -0.048,0.272 0.234,0.456 0.048,0.386 -0.26,0.386 -0.436,0.446 -0.848,0.386 -1.07,0.398 -0.48,0.24 -0.362,1.04 -0.334,1.042 -0.15,0.386 -0.576,1.198 -1.008,1.76 -0.256,0.384 -1.56,0.846 -1.59,0.92 -0.282,0.348 -0.326,0.836 -0.306,0.916 -0.286,0.478 -1.012,1.072 -0.332,0.822 -0.106,0.536 -0.86,0.3 -0.976,0.286 -1.42,0.092 -0.59,0.15 -1.74,0.738 -0.432,0.032 -0.34,-0.122 -0.256,-0.252 -0.238,-0.42 -0.114,-0.646 -0.336,-0.292 -0.452,-0.25 -0.476,-0.01 -0.48,0.274 -0.414,0.3 -0.284,0.248 -0.276,0.29 -0.534,0.972 -0.862,1.394 -0.962,1.012 -0.356,0.302 -0.222,0.23 -0.302,0.336 -0.174,0.324 -0.238,1.058 -0.138,0.936 0.064,0.21 0.144,0.178 0.526,0.27 0.758,0.452 0.986,0.256 0.83,0.044 0.312,0.192 0.184,0.26 0.052,0.218 -0.044,0.772 -0.094,0.828 -0.306,0.888 0.004,0.508 0.122,0.498 0.922,1.26 0.34,0.13 0.692,0.028 0.322,-0.026 0.358,-0.128 0.254,0.088 0.19,0.154 0.048,0.256 -0.03,1.254 0.284,0.568 0.55,0.772 0.434,0.882 0.41,1.054 0.394,0.824 0.152,0.43 -0.256,0.208 -0.146,0.216 -0.038,0.288 0.054,0.304 -0.034,0.214 0.186,0.264 0.218,0.088 -0.006,0.184 -0.344,0.238 -0.306,-0.008 -0.236,0.116 -0.456,0.5 -0.212,0.1 -0.286,0.046 -0.318,-0.05 -0.452,-0.202 -0.13,-0.318 0.05,-0.334 -0.102,-0.2 -0.324,0.038 -1.122,0.342 -1.07,0.422 -0.186,0.288 -0.248,0.298 -0.49,0.124 -0.724,0.038 -0.498,-0.046 -0.46,-0.322 -0.42,-0.292 -0.65,-0.014 -1.17,0.044 -0.648,-0.004 -0.382,-0.108 -0.376,0.082 -0.47,-0.12 -0.21,0.16 -0.198,0.016 -0.158,-0.276 -0.106,-0.03 -0.124,0.04 -0.11,0.094 -0.064,0.162 -0.022,1.84 -0.772,-0.012 -0.55,-0.004 -0.604,0.1 -0.552,0.14 -0.272,0.168 -0.388,0.262 -0.092,0.368 -0.186,0.268 -0.268,-0.396 -0.172,-0.184 -0.2,0.136 -0.284,-0.016 -0.512,-0.452 -0.228,0.456 -0.846,0.104 -0.106,-0.344 -0.02,-0.32 -0.466,0.232 -0.334,-0.356 -0.15,-0.478 -0.128,-0.132 -0.146,-0.152 -0.352,-0.164 -0.312,-0.508 -0.03,-0.54 -0.088,-0.642 -0.656,-2.384 -0.398,-0.22 -2.234,-0.424 -0.114,-0.418 0.154,-1.124 -0.062,-0.71 -0.724,-0.938 -0.202,-0.656 -0.59,-0.562 -0.586,-0.164 -0.592,0.074 -0.318,0.222 -0.174,0.376 1.264,-0.088 0.284,0.138 0.34,0.246 -0.362,-0.01 -0.42,-0.116 -0.526,0.008 -1.97,0.276 -1.144,0.398 -1.534,-0.118 -1.936,0.392 -1.6,0.022 -0.66,0.762 -0.366,-0.138 -0.28,-0.186 -2.2,-0.598 -0.152,-0.25 -0.368,-0.18 -0.404,0.32 -0.29,0.052 -1.206,-0.266 -0.922,0.202 -0.342,0.344 -0.024,0.534 -1.152,-0.104 -0.652,-0.168 -0.868,0.186 -1.968,-0.246 -0.516,0.06 -0.718,0.356 -0.3,0.276 -0.426,0.108 -0.376,-0.384 -0.28,-0.17 -0.26,0.112 -0.352,0.316 -1.02,0.148 -0.922,-0.042 -0.992,-0.296 0.118,-0.1 0.154,-0.516 0.138,-1.846 0.176,-0.668 -0.052,-0.364 0.036,-0.11 0.39,-0.324 0.094,-0.136 0.148,-0.948 0.164,-1.052 0.182,-0.378 0.152,-0.102 1.23,-0.474 0.21,-0.314 0.634,0.074 0.058,-0.076 0.058,-0.364 0.294,-0.394 0.408,-0.324 0.306,-0.114 1.106,-0.204 0.648,-0.284 0.194,-0.03 1.722,0.072 0.362,-0.108 0.056,-0.1 0.102,-1.076 0.314,-0.168 0.048,-0.09 -0.106,-0.746 0.06,-0.498 0.354,-0.296 -0.022,-0.168 -0.252,-0.354 -0.338,-0.226 -0.164,-0.054 -1.412,0.214 -0.584,-0.07 -0.272,-0.13 -0.058,-0.096 0.056,-0.218 0.01,-0.354 0.204,-0.552 0.062,-0.33 -0.166,-1.914 -0.238,-1.274 0.128,-1.266 -0.026,-0.262 -0.048,-0.06 -0.178,0 -0.86,0.112 -0.732,-0.816 -0.456,-0.322 -1.248,-0.406 -0.548,-0.08 -0.802,-0.352 -0.742,-0.77 -0.756,-0.79 -0.306,-0.506 -0.338,-0.862 -0.956,-1.654 0.008,-0.428 -0.118,-0.262 -0.934,-1.09 -0.662,-0.776 -1.07,-1.256 2.138,0.704 1.666,0.538 2.694,0.868 2.09,0.674 0.578,0.11 6.126,-0.576 2.262,0.436 0.718,0.244 0.108,-0.142 0.304,-0.296 0.528,-0.3 0.716,-0.238 0.714,-0.13 1.024,-0.018 0.696,0.02 0.514,0.072 0.992,-0.042 0.476,-0.116 1.63,-0.476 1.096,-0.32 1.658,-0.498 1.21,-0.366 0.302,-0.194 0.312,-0.348 0.15,-0.314 -0.372,-0.484 -0.048,-0.426 0.244,-0.542 0.132,-0.826 -0.026,-1.178 -0.08,-0.68 0.338,-1.266 0.282,-0.712 0.562,-0.34 0.392,-0.208 0.162,-0.154 0.16,-0.17 0.6,-0.968 0.55,-0.452 0.532,-0.274 0.584,0.036 0.494,0.374 0.96,0.164 0.93,-0.11 0.806,-0.282 0.366,-0.23 0.428,-0.202 -0.024,-0.232 -0.486,-0.2 -0.278,-0.284 -0.108,-0.348 0.272,-0.212 0.636,-0.062 1.556,-0.85 0.634,-0.56 0.172,-0.262 0.3,-0.028 0.592,0.26 0.694,0.086 0.434,-0.26 0.432,-0.058 0.424,0.284 0.228,0.34 0.384,0.404 0.486,0.08 0.586,-0.216 0.616,-0.468 0.584,-0.656 0.518,-0.648 -0.128,-2.06 -0.086,-1.218 0.274,-0.644 0.39,-0.394 0.258,-0.614 -0.006,-0.542 0.274,-0.456 0.272,-1.246 0.37,-0.294 0.764,-0.204 1.216,-0.118 0.954,-0.57 0.96,-0.608 0.128,-0.536 -0.36,-0.572 -0.482,-1.112 -0.434,-0.666 -1.06,-1.196 0.122,-0.738 0.59,-0.302 1.452,0.512 0.404,0.1 0.506,0.072 1.338,-0.012 1.092,-0.2 1.14,-0.456 0.224,-0.476 -0.014,-0.566 0.02,-0.468 0.018,-0.65 -0.41,-0.418 -0.248,-0.374 -0.074,-0.3 0.286,-0.164 0.278,-0.306 0.266,-0.556 0.632,-0.666 0.382,-0.6 0.36,-0.284 0.544,-0.392 0.348,-0.574 0.16,-0.344 0.314,-0.336 0.106,-0.22 -0.086,-0.198 -0.156,-0.248 -0.178,-0.28 0,-0.272 0.148,-0.286 0.162,-0.258 -0.076,-0.362 -0.086,-0.59 -0.296,-0.348 -0.2,-0.806 -0.314,-0.82 -0.168,-0.32 -0.308,-0.404 -0.688,-0.428 -0.198,-0.286 0.268,-0.552 0.45,-0.342 0.846,-0.846 0.462,-0.584 0.418,-0.408 0.54,0.068 0.316,-0.036 0.278,-0.378 0.552,-0.334 0.982,-0.692 0.344,-0.468 0.522,-0.236 0.434,-0.054 0.584,-0.164 0.562,-0.252 0.514,-0.192 0.804,-0.04 1.278,-0.114 0.688,-0.12 1.654,-0.092 1.8,-0.042 0.208,-0.004 0.78,0.248 0.528,0.208 0.208,-0.018 0.874,-0.496 1.328,-0.608 0.618,-0.27 0.332,-0.1 0.514,0.006 0.414,0.16 z" title="Pakistan" id="PK"></path></svg>