<svg xmlns="http://www.w3.org/2000/svg" width="56.00" height="52.92"><path d="m 30.74,3.66 0.224,0.116 1.572,0.126 1.594,0.126 2.562,0.138 2.67,0.14 2.772,0.15 2.998,0.158 3.162,0.094 0.194,-0.064 0.322,-0.374 0.394,0.05 0.466,0.232 0.216,0.172 0.092,0.198 0.058,0.228 0.254,0.044 0.466,0.174 0.628,0.394 0.492,0.382 0.47,0.544 0.156,0.616 0.008,0.698 -0.03,0.448 0.04,0.182 0.642,3.226 1.068,3.086 0.392,1.484 0.156,0.788 0.126,1.14 0.038,0.8 -0.004,0.448 -0.08,0.616 -0.316,0.364 -2.05,1.04 -0.386,0.324 -0.604,0.808 -0.558,0.83 -0.128,0.284 -0.034,0.186 0.124,0.272 0.73,0.442 0.736,0.356 0.24,0.266 0.544,0.34 0.198,0.306 0.108,0.264 -0.008,0.614 -0.244,0.846 0.102,0.638 -0.25,0.426 -0.204,0.472 -0.03,0.824 0.368,0.908 0.302,0.62 0.116,0.486 -0.122,0.38 0.036,0.38 0.27,0.404 0.848,1.24 0.418,1.19 0.268,0.464 0.618,0.6 0.056,0.246 -0.248,0.226 -0.2,0.03 -0.162,0.06 -0.104,0.21 0.162,0.226 0.218,0.33 0.272,0.934 -0.026,0.764 -0.21,0.194 -0.268,0.452 -0.18,0.414 -1.466,0.286 -0.352,0.442 -0.802,0.85 -0.546,0.49 -0.81,0.882 -1.28,1.512 -0.472,0.632 -0.346,0.522 -1.036,1.384 -0.318,0.58 0.062,0.476 0.334,1.118 0.07,0.504 -0.06,0.464 -0.11,0.414 0.02,0.184 0.306,0.3 0.486,0.47 0.028,0.158 -0.068,0.204 -0.168,0.154 -0.61,-0.164 -0.68,-0.318 -0.232,0.04 -0.368,-0.076 -1.518,-0.614 -1.024,-0.482 -0.102,-0.314 -0.192,-0.454 -0.436,-0.382 -1,-0.33 -0.406,-0.258 -1.624,-0.144 -0.704,-0.006 -0.498,0.106 -0.32,-0.01 -0.438,0.674 -0.302,0.196 -0.442,0.02 -0.388,-0.12 -0.396,-0.354 -0.632,-0.188 -0.458,0.09 -0.338,-0.076 -0.29,-0.02 -0.102,0.072 -0.234,-0.01 -0.338,0.17 -0.372,0.238 -0.408,0.184 -0.316,0.392 -0.28,0.766 -0.794,-0.344 -0.264,0.15 -0.376,0.1 -0.256,-0.104 0.06,-0.264 0.116,-0.298 -0.006,-0.416 -0.072,-0.462 -0.246,-0.15 -0.37,-0.054 -0.19,-0.092 -0.02,-0.152 -0.19,-0.196 -0.328,-0.496 -0.308,-0.62 -0.214,-0.182 -0.31,0.294 -0.47,0.334 -0.294,0.116 -0.566,0.96 -1.016,0.032 -0.062,-0.448 -0.108,-0.432 -0.594,-0.106 -0.018,-0.254 -0.124,-0.636 -1.192,-1.246 -0.144,-0.52 0.046,-0.202 -0.082,-0.332 -0.26,-0.2 -0.942,-0.238 -0.242,0.136 -0.218,-0.14 -0.344,-0.3 -0.594,-0.244 -0.066,-0.126 -0.214,-0.216 -0.118,-0.028 -0.078,0.13 -0.172,0.184 -0.612,0.234 -0.244,-0.096 -0.222,-0.202 -0.254,-0.438 -0.368,-0.384 -0.302,-0.136 -0.174,-0.202 -0.038,-0.156 0.672,-0.316 0.148,-0.326 -0.086,-0.594 -0.1,-0.074 -0.268,0.2 -0.562,0.176 -0.516,0.082 -0.266,0 -1.478,-1.082 -0.96,-0.332 -0.566,-0.096 -0.06,0.11 0.254,0.608 0.444,0.75 -0.022,0.198 -0.53,0.306 -0.3,0.134 -0.354,0.258 -0.3,0.36 -0.26,0.162 -0.224,-0.042 -0.238,-0.172 -0.612,-1.106 -0.77,-0.848 -0.092,-0.19 -0.24,-0.044 -0.34,-0.196 -0.116,-0.26 0.172,-0.272 0.234,-0.248 0.416,-0.154 0.126,-0.146 0.074,-0.218 0.154,-0.282 -0.04,-0.1 -0.294,-0.32 -0.436,-0.302 -1.212,0.226 -0.332,0.162 -0.188,-0.21 -0.142,-0.306 -0.306,-0.06 -0.42,-0.28 -0.498,-0.276 -0.486,-0.08 -1.01,-0.398 -0.39,-0.022 -0.224,-0.136 -0.236,-0.302 -0.2,-0.33 -0.104,-0.672 -0.744,-0.304 -0.742,-0.192 -0.052,0.098 0.032,0.676 -0.04,0.362 -0.49,0.222 -0.484,0.022 0.026,-0.112 0.58,-1.218 0.26,-0.77 0.298,-1.406 -0.358,-1.114 -0.098,-0.524 -0.166,-0.25 -1.018,-0.546 -0.078,-0.188 0.156,-0.74 -0.076,-0.312 -0.246,-0.33 -0.322,-0.656 -0.124,-0.558 0.41,-0.656 0.102,-0.484 0.178,-0.662 0.132,-0.364 0.026,-0.1 -0.27,-0.258 -0.068,-0.364 0.072,-0.524 -0.144,-0.39 -0.36,-0.252 -0.234,-0.336 -0.108,-0.416 0.084,-0.656 0.28,-0.894 -0.592,-1.08 -1.462,-1.266 -0.7,-0.886 0.056,-0.508 0.308,-0.46 0.558,-0.412 0.424,-0.734 0.238,-0.874 0.006,-0.166 0.014,-0.624 -0.65,-2.564 -0.106,-0.644 -0.078,-0.78 -0.04,-0.212 1.284,0.546 0.538,0.308 -0.068,-0.346 -0.108,-0.298 0.072,-0.436 -0.036,-0.66 -1.166,-0.338 -0.77,-0.114 -0.086,-0.46 0.072,-0.298 0.214,0.176 0.756,0.068 1.862,-0.89 3.214,-1.162 3.434,-1.09 0.802,-0.12 0.804,-0.23 0.298,-0.41 0.298,-0.274 0.466,-0.724 1.034,-1.128 1.828,-0.412 0.684,-0.536 1.43,-0.752 3.26,-0.846 1.364,-0.188 1.334,-0.022 1.188,0.668 1.258,0.824 0.226,0.494 -0.68,-0.308 -0.992,-0.738 -0.368,-0.032 0.848,2.242 0.464,0.792 0.934,0.588 0.786,0.2 2.42,-0.358 0.858,-0.468 z" title="Poland" id="PL"></path></svg>