<svg xmlns="http://www.w3.org/2000/svg" width="53.12" height="37.00"><path d="m 44.74,23.02 0.592,0.822 0.75,0.438 1.736,0.462 0.156,-0.056 0.016,-0.086 -0.12,-0.12 -0.018,-0.152 0.084,-0.188 0.24,-0.01 0.392,0.168 0.748,-0.244 1.1,-0.656 1.012,-0.132 0.92,0.388 0.472,0.452 0.304,0.43 -0.096,0.53 -0.058,0.33 -0.242,1.362 -0.168,0.508 -0.27,0.568 -2.858,0.678 0.184,-0.326 -0.066,-0.57 -0.12,-0.432 0.266,-0.388 -0.642,-0.142 -0.282,0.214 -0.22,0.372 0.194,0.858 -0.312,0.474 -0.12,0.264 -0.014,0.626 -0.186,0.268 -0.036,0.296 0.456,-0.076 -0.206,0.538 -0.856,1.032 -0.3,0.616 0.074,2.43 -0.382,1.448 -0.03,0.426 -0.908,0.014 -0.272,-0.034 -0.86,-0.216 -0.966,-0.384 -0.566,-0.748 -0.362,-0.534 -0.82,0.242 -0.154,-0.064 -0.226,-0.258 -0.616,-0.174 -0.762,-0.004 -1.71,-0.978 -0.188,-0.164 -1.344,0.164 -2.012,0.484 -1.534,0.598 -1.586,1.062 -0.642,0.804 -0.746,0.426 -1.06,0.316 -1.894,-0.118 -1.974,-0.404 -2.118,-0.434 -1.146,0.24 -1.548,-0.18 -2.336,-0.518 -1.74,-0.158 -1.716,0.306 -0.288,-0.234 -0.062,-0.268 0.066,-0.378 0.242,-0.306 0.416,-0.232 0.218,-0.236 0.024,-0.238 -0.466,-0.384 -0.956,-0.53 -0.394,-0.332 -0.096,-0.082 -0.026,-0.298 -0.198,-0.234 -0.372,-0.172 -0.286,-0.31 -0.204,-0.45 0.044,-0.424 0.29,-0.398 0.372,-0.174 0.452,0.054 0.188,-0.114 -0.076,-0.278 -0.442,-0.358 -0.81,-0.434 -0.824,0.236 -0.842,0.908 -0.604,0.146 -0.372,-0.61 -0.66,-0.366 -0.95,-0.114 -0.584,-0.234 -0.218,-0.354 -0.416,-0.272 -0.916,-0.29 -0.012,-0.276 0.148,-0.066 0.326,-0.026 0.436,-0.058 0.07,-0.158 0.004,-0.144 -0.344,-0.182 -0.346,-0.124 -0.182,-0.124 -0.116,-0.138 -0.024,-0.144 0.102,-0.098 0.14,-0.006 0.138,-0.086 0.078,-0.334 0.188,-0.276 0.134,-0.096 -0.008,-0.204 -0.14,-0.19 -0.19,-0.164 -0.28,-0.1 -0.872,-0.288 -0.44,-0.4 -0.27,-0.016 -0.426,-0.222 -0.46,-0.348 -0.4,-0.496 -0.43,-0.322 -0.112,-0.132 -0.01,-0.124 0.08,-0.14 -0.004,-0.152 -0.112,-0.486 0.076,-0.516 -0.02,-0.486 -0.006,-0.218 -0.084,-0.068 -0.074,0.074 -0.106,0.092 -0.104,0.018 -0.318,-0.354 -0.402,-0.722 -0.272,-0.242 -0.53,-0.332 -0.448,-0.28 -0.32,-0.604 -0.334,-0.468 0.22,-0.196 1.274,-0.276 0.594,0.27 0.266,-0.098 0.258,-0.218 0.144,-0.176 0.026,-0.186 0.128,-0.232 0.43,-0.11 1.14,0.142 0.458,-0.326 0.17,-0.176 0.104,-0.392 0.12,-0.316 0.408,-0.168 -0.006,-0.288 -0.062,-0.312 0.236,-0.702 0.144,-0.288 0.232,-0.104 0.278,-0.222 0.484,-0.46 -0.112,-0.4 0.096,-0.298 0.504,-0.724 0.384,-0.7 -0.006,-0.352 0.056,-0.306 0.34,-0.336 0.356,-0.438 0.47,-1.372 0.17,-0.23 0.308,-0.262 0.23,-0.26 0.024,-0.904 0.216,-0.262 0.414,-0.294 0.412,-0.472 0.334,-0.56 0.258,-0.262 0.342,-0.07 0.37,-0.22 0.414,-0.082 0.402,0.108 0.254,-0.056 0.386,-0.272 0.982,-1.032 0.138,-0.206 0.204,-0.142 0.796,-0.354 0.202,-0.356 0.274,-0.32 0.354,0.024 1.156,0.792 1.236,-0.05 0.226,0.03 0.074,0.016 0.152,0.064 1.644,0.392 0.254,-0.044 0.07,-0.03 0.662,0.322 0.586,-0.042 0.556,-0.224 0.578,-0.076 0.532,0.134 0.404,0.454 1.05,0.964 0.312,0.36 0.48,-0.054 0.532,-0.18 0.538,-0.642 1.654,-0.732 1.262,-0.182 1.232,-0.294 1.426,-0.208 0.412,-0.6 0.228,-0.41 0.162,-0.76 0.768,-0.22 0.73,-0.156 0.26,-0.096 0.532,-0.03 0.414,0.064 0.638,0.376 0.448,0.47 0.176,0.374 0.382,0.528 0.402,0.738 0.444,0.982 0.096,0.494 0.168,0.536 0.33,0.65 0.63,0.72 0.088,0.134 0.286,0.506 0.552,1.118 0.462,0.446 0.402,0.486 0.194,0.488 0.288,0.442 0.676,0.586 0.548,0.532 0.438,1.526 0.306,0.7 0.196,0.534 -0.094,1.08 0.122,0.462 -0.25,0.842 -0.452,1.688 -0.11,1.34 0.078,0.72 0.01,0.462 0.11,0.294 0.12,0.608 0.018,0.528 -0.162,0.15 -0.226,0.126 -0.088,0.11 0.208,0.238 0.284,0.442 z" title="Romania" id="RO"></path></svg>