<svg xmlns="http://www.w3.org/2000/svg" width="23.23" height="30.66"><path d="m 4.98,0.14 0.674,0.048 0.504,-0.126 1.274,0.16 0.274,0.126 0.178,0.142 0.334,0.468 0.32,0.604 0.448,0.28 0.53,0.332 0.272,0.242 0.402,0.722 0.318,0.354 0.104,-0.018 0.106,-0.092 0.074,-0.074 0.084,0.068 0.006,0.218 0.02,0.486 -0.076,0.516 0.112,0.486 0.004,0.152 -0.08,0.14 0.01,0.124 0.112,0.132 0.43,0.322 0.4,0.496 0.46,0.348 0.426,0.222 0.27,0.016 0.44,0.4 0.872,0.288 0.28,0.1 0.19,0.164 0.14,0.19 0.008,0.204 -0.134,0.096 -0.188,0.276 -0.078,0.334 -0.138,0.086 -0.14,0.006 -0.102,0.098 0.024,0.144 0.116,0.138 0.182,0.124 0.346,0.124 0.344,0.182 -0.004,0.144 -0.07,0.158 -0.436,0.058 -0.326,0.026 -0.148,0.066 0.012,0.276 0.916,0.29 0.416,0.272 0.218,0.354 0.584,0.234 0.95,0.114 0.66,0.366 0.372,0.61 0.604,-0.146 0.842,-0.908 0.824,-0.236 0.81,0.434 0.442,0.358 0.076,0.278 -0.188,0.114 -0.452,-0.054 -0.372,0.174 -0.29,0.398 -0.044,0.424 0.204,0.45 0.286,0.31 0.372,0.172 0.198,0.234 0.026,0.298 0.096,0.082 -0.212,0.136 -0.228,0.204 -0.13,0.356 -0.034,0.57 -0.72,0.446 -0.27,0.082 -0.122,0.296 -0.19,0.834 0.022,0.626 0.098,0.318 0.044,0.26 0.234,0.318 0.212,0.488 0.14,0.644 0.312,0.496 0.798,0.488 0.396,0.284 0.294,0.412 0.224,0.372 0.658,0.494 -0.05,0.352 -0.144,0.344 -0.152,0.162 -0.328,0.442 -0.32,0.248 -0.526,0.778 -0.83,0.042 -0.198,0.062 -0.316,0.212 -0.154,0.388 0.148,0.312 -0.014,0.314 -0.15,0.61 0.2,0.654 0.294,0.298 0.046,0.172 -0.05,0.304 -0.438,0.62 -0.132,0.23 -0.438,0.112 -0.15,-0.058 -0.226,-0.212 -0.21,-0.064 -0.522,0.25 -0.532,0.154 -0.418,-0.116 -0.412,-0.014 -0.286,0.102 -0.216,0.04 -0.424,0.268 -0.678,0.194 -0.314,-0.042 -0.116,-0.252 -0.128,-0.358 0.062,-0.164 0.45,-0.284 0.05,-0.27 0.628,-1.308 0.12,-0.426 0.004,-0.138 -0.164,-0.094 -0.344,0.004 -1.526,-0.532 0.07,-0.61 -0.448,-0.33 -0.484,-0.294 -0.08,-0.328 -0.538,-0.664 -0.392,-0.372 -0.502,-0.186 -0.432,-0.274 -0.26,-0.168 -0.116,-0.31 0,-0.184 -0.13,-0.178 -0.208,0.02 -0.354,0.248 -0.434,0.212 -0.076,0.156 0.158,0.366 0.112,0.236 -0.052,0.22 -0.136,0.282 -0.836,0.62 -0.094,0.218 0.16,0.348 -0.102,0.16 -0.698,0.23 0.018,-0.19 -0.044,-0.306 -0.4,-0.326 -0.566,-0.252 -1.256,-0.866 -0.482,-0.114 -0.432,-0.102 -0.618,-0.414 -0.318,-0.074 -0.352,-0.296 -0.768,-1.004 -0.654,-0.548 -0.446,-0.276 -0.126,-0.27 -0.026,-0.278 0.014,-0.094 0.338,-0.396 0.26,-0.056 0.334,-0.014 0.222,0.2 0.288,0.044 0.162,-0.256 0.084,-0.368 -0.038,-0.47 -0.698,-1.094 -0.598,-0.764 -0.07,-0.17 0.13,-0.144 0.21,-0.076 0.224,0.064 0.584,0.056 0.562,-0.072 0.192,-0.186 0,-0.252 -0.204,-0.234 -0.658,-0.63 -0.512,-0.556 -0.604,-0.428 -0.446,-0.172 -0.132,-0.218 -0.056,-0.232 0.05,-0.426 0.03,-0.544 0.104,-0.34 0.404,-0.646 0.386,-0.686 0.238,-0.66 0.126,-0.614 -0.046,-0.178 -0.202,-0.13 -0.424,-0.134 -0.592,0.116 -0.502,0.224 -0.196,0.018 -0.066,-0.276 0.078,-0.122 0.158,0.016 0.13,0.052 0.138,-0.126 0.084,-0.37 -0.21,-1.296 0.376,-0.114 0.006,-0.188 0.034,-0.166 0.388,0.226 0.544,0.004 0.478,-0.046 0.072,-0.128 -0.004,-0.184 -0.1,-0.146 -0.17,-0.116 -0.122,-0.18 -0.322,-0.08 -1.01,-0.468 -0.496,-0.498 0.016,-0.53 0.144,-0.29 0.174,-0.102 -0.052,-0.098 -0.568,-0.246 -0.202,-0.342 0.166,-0.438 -0.296,-0.894 -0.312,-0.55 0.306,-0.238 0.042,-0.34 0.024,-0.194 0.126,0.004 0.494,-0.228 0.18,-0.184 0.104,-0.218 0.118,-0.054 0.33,0.236 0.35,0.02 0.39,-0.148 0.294,-0.206 0.35,-0.172 0.16,-0.118 0.204,-0.184 0.41,-0.548 0.466,-0.114 z" title="Serbia" id="RS"></path></svg>