<svg xmlns="http://www.w3.org/2000/svg" width="11.33" height="9.74"><path d="m 9.28,0.02 -0.184,0.086 -0.038,0.27 0.212,0.43 0.696,0.888 0.442,0.162 0.288,0.346 0.284,0.582 0.084,0.73 -0.118,0.876 0.07,0.65 0.256,0.428 0.066,0.554 -0.12,0.68 -0.148,0.408 -0.174,0.136 -0.198,0.05 -0.268,-0.046 -0.326,0.058 -0.354,0.128 -0.224,0.018 -0.14,-0.024 -0.26,-0.11 -0.414,-0.352 -0.772,0.194 -0.21,-0.004 -0.282,0.168 -0.232,0.206 -0.138,0.014 -0.144,-0.028 -0.664,-0.414 -0.244,0.012 -0.1,1.166 -0.11,0.65 -0.138,0.288 -0.476,0.278 -0.478,0.158 -0.262,-0.01 -1.054,0.086 -0.412,0.002 -0.228,-0.094 -0.296,-0.662 -0.558,-0.294 -0.536,-0.138 -0.218,0.038 -0.194,0.346 -0.08,0.31 -0.52,-0.212 -0.156,-0.262 -0.014,-0.444 -0.19,-0.608 0.106,-0.258 0.204,-0.168 0.432,-0.32 0.656,-0.446 0.14,-0.21 0.092,-0.354 -0.042,-0.822 -0.062,-0.694 0.078,-0.246 0.3,-0.536 0.4,-0.55 0.47,-0.58 0.282,-0.056 0.37,-0.218 0.392,-0.326 0.22,-0.122 0.184,-0.004 1.21,-0.288 0.12,0.09 0.196,0.558 0.104,0.082 0.168,0.02 0.34,-0.128 0.622,-0.438 0.272,-0.264 0.32,-0.374 0.41,-0.42 0.228,-0.368 0.222,-0.214 0.292,-0.064 0.324,0.018 z" title="Rwanda" id="RW"></path></svg>