<svg xmlns="http://www.w3.org/2000/svg" width="118.01" height="96.88"><path d="m 66.88,19.66 1.084,0.138 1.446,0.184 0.878,0.126 1.652,0.234 0.494,0.968 0.18,0.678 0.166,0.66 0.496,0.602 1.126,-0.014 0.998,-0.012 1.23,-0.02 0.976,-0.014 0.314,0.598 0.138,0.596 0.58,1.41 0.828,1.098 0.198,0.4 0.132,0.602 -0.144,0.224 -0.056,0.258 0.614,0.6 1.012,0.508 0.396,0.128 0.45,0.224 -0.35,0.346 0.598,0.8 0.694,0.814 0.744,0.184 1.004,1.228 1.514,0.794 0.918,1.04 -0.086,0.02 -0.27,-0.106 -0.338,-0.142 -0.102,0.128 0.018,0.436 0.09,0.512 0.468,0.442 0.416,0.318 0.162,0.602 -0.328,1.294 -0.114,0 -0.22,-0.112 -0.234,-0.026 -0.126,0.074 0.278,0.93 0.278,0.712 0.332,0.564 0.278,0.824 0.238,0.352 0.974,0.874 0.3,0.73 0.278,1.358 0.612,0.756 0.33,0.582 0.442,0.494 0.288,0.674 0.408,0.518 0.212,0.13 0.318,0.054 0.396,0.002 0.474,-0.134 0.506,-0.126 0.394,0.262 0.408,-0.04 0.042,0.244 -0.274,0.332 -0.336,0.836 0.478,0.132 0.458,0.066 0.324,0.134 0.19,0 0,0.174 0.022,0.792 0.114,0.302 0.208,0.268 0.308,0.4 0.308,0.4 0.308,0.4 0.308,0.4 0.308,0.4 0.31,0.4 0.308,0.398 0.308,0.4 0.308,0.398 0.308,0.398 0.308,0.398 0.308,0.398 0.308,0.398 0.308,0.398 0.31,0.398 0.308,0.396 0.254,0.328 0.472,0.062 0.15,0.02 0.426,0.056 0.66,0.086 0.856,0.114 1.014,0.134 1.13,0.148 1.21,0.16 1.248,0.164 1.25,0.164 1.208,0.16 1.13,0.15 1.014,0.132 0.858,0.114 0.66,0.086 0.426,0.056 0.15,0.02 0.446,0.058 0.084,-0.014 0.374,-0.486 0.412,0.686 0.342,0.568 0.468,0.78 0.5,0.828 0.476,0.792 0.356,0.588 -0.19,0.61 -0.206,0.666 -0.206,0.666 -0.206,0.664 -0.208,0.664 -0.206,0.664 -0.206,0.664 -0.206,0.662 -0.206,0.662 -0.208,0.662 -0.206,0.662 -0.206,0.66 -0.206,0.66 -0.208,0.66 -0.206,0.66 -0.206,0.658 -0.206,0.658 -0.248,0.792 -0.598,0.21 -0.964,0.34 -0.966,0.34 -0.964,0.34 -0.964,0.34 -0.966,0.34 -0.964,0.338 -0.964,0.34 -0.966,0.34 -0.964,0.338 -0.966,0.338 -0.964,0.34 -0.964,0.338 -0.966,0.338 -0.964,0.338 -0.966,0.338 -0.964,0.338 -0.792,0.278 -1.318,0.186 -1.28,0.18 -1.44,0.204 -1.73,0.246 -1.358,0.192 -1.98,0.28 -1.778,0.25 -1.666,0.236 -1.666,0.236 -1.418,0.2 -0.846,0.232 -0.994,0.51 -1.526,0.782 -1.556,0.794 -0.806,0.412 -0.844,1.056 -0.428,0.534 -0.772,0.966 -0.584,0.728 -0.698,0.87 -0.304,0.772 -0.47,1.192 -0.406,0.3 -0.664,0.388 -0.604,0.276 -0.942,-0.04 -0.538,-0.732 -0.57,-0.778 -0.286,-0.312 -0.256,-0.016 -0.946,0.098 -1.14,0.12 -1.344,-0.126 -1.55,-0.148 -1.454,-0.138 -0.724,-0.104 -0.954,-0.504 -0.246,-0.1 -0.25,-0.024 -1.132,-0.012 -1.122,-0.012 -1.124,0.16 -1.076,-0.058 -1.116,0.092 -0.392,0.192 -0.436,-0.01 -0.272,0.17 -0.24,0.08 -0.284,-0.146 -0.348,0.032 -0.512,-0.126 -0.334,-0.33 -0.316,-0.29 -0.326,-0.16 -0.364,-0.1 -0.316,-0.002 -0.404,0.176 -0.246,0.17 -0.624,0.57 -0.026,0.204 0.284,0.34 -0.086,0.16 -0.368,0.2 -0.114,0.538 -0.054,0.294 -0.054,0.704 0.164,0.554 0.218,0.204 0.01,0.238 -0.12,0.476 -0.338,0.146 -0.248,0.452 -0.152,0.21 -0.264,0.24 -1.05,0.798 -0.052,-0.464 -0.334,-0.688 -0.024,-0.486 -0.156,-0.488 -0.288,-0.376 -0.532,-0.392 -0.048,-0.532 -0.388,-0.526 -0.514,-0.424 -0.286,-0.784 -0.216,-1.042 -1.356,-1.372 -1.696,-1.268 -0.516,-0.714 -0.844,-1.458 -0.426,-1.154 -1.134,-1.33 -0.048,-0.512 -0.168,-0.624 -0.262,-0.696 -0.158,-0.548 -1.138,-2.412 -0.368,-0.384 -0.316,-0.54 -0.082,-0.418 -0.1,-0.228 -0.804,-0.396 -0.75,-1.016 -2.254,-1.62 -1.104,-0.162 -0.874,-0.58 -0.644,-0.758 -0.686,-1.308 -1.208,-1.416 -1.024,-2.012 0.322,-0.734 -0.02,-0.516 -0.316,-0.87 -0.342,-0.672 -0.236,-0.636 0.186,-0.914 0.072,-1.024 0.202,-0.544 0.146,-0.598 -0.19,-1.204 -0.34,-0.646 0.034,-0.43 -0.386,-0.21 -0.312,-0.468 0.326,0 -0.592,-0.65 -0.218,-0.362 -0.224,-0.884 -0.286,-0.676 -0.918,-1.536 -0.44,-0.938 -0.984,-1.214 -1.068,-0.898 -0.678,-0.408 -0.328,-0.372 -0.554,-0.012 -0.604,-0.532 -0.422,-0.02 -0.534,-0.086 -0.628,-1.026 -0.518,-0.962 -0.884,-1.254 0.222,-0.328 0.258,-0.534 -0.128,-0.7 -0.14,-0.476 -0.39,-0.868 -1.282,-2.164 -0.34,-0.318 -0.546,-0.366 -0.336,-0.94 -0.154,-0.844 -0.878,-0.41 -1.51,-3.052 -0.876,-1.07 -0.346,-0.72 -1.012,-1.186 -0.498,-1.182 -1.02,-1.092 -0.884,-1.898 -1.366,-1.902 -0.574,-0.33 -1.408,-0.136 -0.592,-0.14 -0.544,0.418 -0.048,-0.53 0.376,-0.734 0.542,-1.544 0.108,-1.356 0.852,-4.044 1.196,0.208 0.984,0.172 1.438,0.252 1.488,0.26 0.87,0.152 0.298,-0.066 1.204,-0.992 1.084,-0.896 0.65,-1.098 0.628,-1.066 0.288,-0.22 0.964,-0.2 1.53,-0.318 1.514,-0.314 0.122,-0.108 0.352,-0.858 0.448,-1.09 0.092,-0.114 0.11,-0.112 1.084,-0.612 0.658,-0.372 -0.938,-1.098 -0.884,-1.038 -0.992,-1.164 -0.84,-0.908 -1.258,-1.36 -0.824,-0.892 1.442,-0.424 1.56,-0.458 1.574,-0.462 1.894,-0.556 1.482,-0.436 2.212,-0.652 1.082,-0.318 0.196,-0.084 0.832,-0.772 1.252,0.216 1.882,0.326 1.818,0.312 1.916,0.37 0.614,0.3 1.85,1.104 1.202,0.716 1.404,0.834 1.754,1.042 1.204,0.714 1.542,0.914 1.202,1.042 1.522,1.318 1.672,1.444 1.376,1.12 1.896,1.54 1.868,1.514 1.83,1.478 1.464,1.182 1.854,1.492 0.144,0.056 1.874,0.168 2.518,0.228 2.53,0.228 2.284,0.206 0.996,-0.21 z m -55.772,21.284 -0.052,0.084 -0.236,-0.218 0.014,-0.478 0.204,-0.272 -0.016,0.372 0.088,0.376 -0.002,0.136 z m 1.72,2.04 -0.148,0 -0.394,-0.418 -0.23,-0.308 -0.236,-0.208 -1.076,-0.418 -0.146,-0.27 0.164,-0.27 0.116,0.268 0.196,0.158 0.89,0.378 0.992,0.824 0.17,0.068 -0.298,0.196 z m 28.548,51.89 0.434,0.034 -0.18,-0.186 -0.038,-0.09 0.188,-0.268 0.62,0.552 -0.018,0.654 -0.052,0.15 -0.168,-0.14 -0.11,-0.138 -0.034,-0.148 -0.172,-0.16 -0.604,0.104 -0.376,-0.178 -0.538,-0.55 -0.144,-0.398 0.224,-0.078 0.238,-0.192 0.15,-0.314 -0.138,-0.326 0.32,0.052 0.172,0.334 0.034,0.758 0.048,0.16 -0.088,0.174 0.232,0.194 z" title="Saudi Arabia" id="SA"></path></svg>