<svg xmlns="http://www.w3.org/2000/svg" width="31.78" height="15.55"><path d="m 31.86,4.5 -0.082,0.352 -0.23,0.41 -0.286,0.424 -0.24,0.512 -0.32,1.09 -0.208,0.504 -0.856,0.992 -0.06,1.378 -0.116,0.1 -1.934,0.466 -0.254,-0.07 -0.264,-0.268 -0.146,-0.196 -0.09,-0.142 -0.168,-0.382 -0.222,-0.27 -0.328,-0.222 -0.3,-0.256 -0.386,-0.01 -1.044,0.362 -0.724,0.04 -0.484,-0.116 -0.644,-0.22 -1.254,-0.034 -0.858,0.192 -0.086,0.27 -0.792,1.68 -1.152,0.62 -1,0.632 -0.29,0.128 -0.498,-0.2 -0.566,-0.374 -0.47,-0.196 -0.344,0.086 -0.374,0.426 -0.172,0.43 -1.132,0.316 -1.97,0.186 -0.688,0.424 -0.234,0.508 -0.01,0.39 0.168,0.332 -0.21,0.386 -0.092,0.162 -1.392,0.084 -1.856,0.114 -1.11,-0.03 -1.044,-0.026 -0.71,-0.332 -0.868,-0.648 -0.918,-0.862 -0.088,-0.02 -0.136,-0.092 -0.576,-0.066 -0.154,0.052 -0.344,-0.282 -0.1,-0.366 -0.536,-0.962 -0.602,-1.588 -0.016,-0.46 0.236,-0.524 0.218,-0.402 0.032,-0.318 0.022,-0.086 0.182,-0.662 0.436,-0.88 0.408,-0.512 0.294,-0.17 0.61,0.154 1.042,0.128 0.802,-0.12 0.748,-0.394 0.406,-0.344 0.346,-0.362 0.116,-0.236 0.154,-0.112 0.618,-0.21 0.198,-0.244 0.08,-0.464 0.054,-0.516 0.126,-0.384 0.16,-0.282 1.144,-0.676 0.104,-0.24 0.182,-0.23 0.34,-0.26 0.328,-0.376 0.348,-0.23 0.446,0.026 0.412,-0.048 0.322,-0.132 0.142,-0.012 0.594,0.106 0.108,0.432 0.062,0.448 1.016,-0.032 0.566,-0.96 0.294,-0.116 0.47,-0.334 0.31,-0.294 0.214,0.182 0.308,0.62 0.328,0.496 0.19,0.196 0.02,0.152 0.19,0.092 0.37,0.054 0.246,0.15 0.072,0.462 0.006,0.416 -0.116,0.298 -0.06,0.264 0.256,0.104 0.376,-0.1 0.264,-0.15 0.794,0.344 0.28,-0.766 0.316,-0.392 0.408,-0.184 0.372,-0.238 0.338,-0.17 0.234,0.01 0.102,-0.072 0.29,0.02 0.338,0.076 0.458,-0.09 0.632,0.188 0.396,0.354 0.388,0.12 0.442,-0.02 0.302,-0.196 0.438,-0.674 0.32,0.01 0.498,-0.106 0.704,0.006 1.624,0.144 0.406,0.258 1,0.33 0.436,0.382 0.192,0.454 0.102,0.314 1.024,0.482 1.518,0.614 z" title="Slovakia" id="SK"></path></svg>