<svg xmlns="http://www.w3.org/2000/svg" width="16.89" height="17.44"><path d="m 16.88,8.56 -0.014,0.174 -0.162,0.808 -0.252,0.692 -0.166,0.17 -0.714,0.182 -0.304,0.304 -0.262,0.984 -0.168,0.772 -0.246,0.13 -1.048,1.114 -0.686,0.422 -0.478,0.364 -0.454,0.472 -0.57,0.46 -0.612,0.776 -0.436,0.806 -0.298,0.25 -0.224,-0.228 -1.042,-0.794 -1.1,-0.534 -2.342,-0.888 -0.78,-0.25 0.028,-0.316 0.268,-0.578 -0.436,-0.678 0.168,-0.494 -0.168,0 -0.336,0.296 -0.714,-0.086 -0.474,-0.424 -0.386,-0.156 -0.168,-0.212 -0.248,-1.118 -0.178,-0.508 -0.358,-0.314 -0.718,-0.078 -0.296,-0.682 -0.398,-0.53 0.066,-0.326 0.324,0.018 0.254,0.238 0.41,0.098 0.51,-0.574 0.456,-0.312 0.106,-0.272 -0.056,-0.15 -0.276,0.232 -0.756,-0.06 -0.188,0.208 -0.338,0.066 -0.262,-0.67 0.012,-0.396 0.108,-0.434 0.762,-0.076 0.066,-0.14 -0.53,-0.094 -0.662,-0.506 -0.12,-0.35 0.328,-0.118 0.314,0.052 0.272,0.076 0.296,-0.126 0.276,-0.192 0.166,-0.246 0.224,-0.658 0.716,-0.22 0.422,-0.404 0.402,-0.626 0.184,-0.44 0.166,-0.22 0.104,-0.19 0.078,-0.208 0.18,-0.192 0.188,-0.466 0.128,-0.424 0.412,-0.204 0.844,-0.18 0.76,0.308 1.232,-0.268 0.066,-0.398 1.128,-0.006 1.336,-0.008 1.112,-0.006 0.382,0.106 0.138,0.296 0.366,0.464 0.382,0.322 0.474,0.706 0.552,0.822 0.596,0.742 0.382,0.402 0.044,0.14 -0.028,0.16 -0.19,0.376 -0.162,0.408 0.016,0.154 0.114,0.076 0.624,0.126 0.056,0.454 0,0.628 0.302,0.586 0.288,0.43 -0.014,0.154 -0.704,0.734 -0.274,0.73 -0.14,0.206 -0.056,0.164 0.14,0.078 0.194,-0.048 0.272,0.06 0.26,0.022 0.344,-0.262 0.574,-0.67 0.192,-0.082 0.428,0.072 z m -12.59,5.906 -0.082,0.146 -0.374,-0.362 -1.934,-0.542 0.546,-0.288 1.342,-0.086 0.4,0.168 0.178,0.14 0.066,0.266 -0.142,0.558 z" title="Sierra Leone" id="SL"></path></svg>