<svg xmlns="http://www.w3.org/2000/svg" width="34.54" height="25.07"><path d="m 29.5,10.84 0.528,0.926 -0.114,0.446 -0.12,0.648 0.298,0.472 0.35,0.306 0.25,0.284 0.276,0.388 0.044,0.776 -0.05,0.558 0.18,0.252 0.152,0.32 -0.03,0.264 -0.1,0.236 -0.336,0.312 -0.056,0.578 0.544,0.7 0.35,0.382 -0.002,0.218 0.098,0.24 0.258,0.28 0.16,-0.066 0.174,-0.228 0.078,-0.158 0.472,0.07 0.22,0.072 0.302,0.458 0.11,0.304 0.072,0.382 0.314,0.476 0.274,0.336 0.056,0.21 0.244,0.284 -0.15,0.63 0.016,0.322 -0.166,0.846 -0.038,0.4 0.012,0.146 0.372,0.302 -0.04,0.426 -0.378,-0.074 -0.656,-0.05 -1.314,0.222 -0.454,-0.09 -0.862,0.03 -0.616,0.122 -0.78,0.278 -0.606,-0.07 -0.328,-0.218 -0.432,0.016 -0.486,-0.118 -0.516,-0.212 -0.474,-0.106 -0.51,-0.39 -0.238,-0.068 -0.168,0.102 -0.142,0.128 -0.146,0.08 -0.278,-0.07 -0.104,-0.264 0.088,-0.256 0.024,-0.194 -0.13,-0.106 -0.31,-0.034 -0.504,0 -0.812,-0.08 -0.184,-0.05 -1.818,-0.066 -1.882,-0.008 -1.596,-0.006 -2.016,-0.01 -1.416,-0.006 -1.322,-0.006 -1.02,0.522 -1.106,0.562 -1.486,0.3 -1.71,-0.112 -0.546,0.082 -0.566,0.25 -0.416,0.18 -0.588,0.11 -0.762,-0.09 -0.308,0.054 -0.19,-0.256 -0.22,-0.416 0.138,-0.304 0.464,-0.196 0.698,-0.256 0.366,0.132 0.214,0.006 0.04,-0.164 -0.068,-0.088 -0.528,-0.222 -0.272,-0.294 -0.226,0.172 -0.196,0.36 -0.162,0.108 -0.238,0.1 -0.134,-0.244 -0.06,-0.238 0.11,-0.186 -0.056,-1.034 0.064,-0.552 -0.034,-0.482 0.33,-0.318 0.314,-0.198 1.222,-0.018 1.138,-0.018 1.096,0.012 1.116,0.01 0.11,-0.966 0.354,-0.076 0.528,-0.1 0.986,-0.118 1.098,-0.112 0.234,-0.19 0.182,-0.32 0.114,-0.288 0.228,-0.122 0.308,0.096 0.402,0.152 0.418,0.232 0.478,0.216 0.318,0.138 0.766,0.34 1.31,0.474 1.076,0.19 1.302,-0.348 0.94,-0.222 0.116,-0.416 -0.146,-0.406 -0.7,-0.372 -0.952,0.042 -0.292,0.1 -0.444,0.124 -0.266,0.048 -0.448,-0.086 -0.57,-0.322 -0.358,-0.324 -0.502,-0.15 -0.594,-0.154 -0.954,-0.666 -0.496,-0.12 -0.472,-0.034 -0.904,0.132 -0.884,0.356 -0.464,0.808 -0.884,-0.012 -1.878,-0.024 -1.724,-0.024 -1.422,0.054 -0.144,-0.586 -0.336,-0.468 -0.548,-0.398 -0.12,-0.372 0.184,-0.324 0.53,-0.264 0.12,-0.192 -0.278,0.03 -0.418,0.172 -0.278,0.008 -0.034,-0.512 -0.464,-0.662 -0.524,-1.122 -0.592,-0.458 -0.498,-0.91 -0.52,-0.348 -0.478,-0.162 -0.408,0.032 -0.15,0.416 -0.508,-0.598 0.694,-0.214 1.486,-0.75 1.706,-2.148 1.53,-2.55 0.198,-0.602 0.188,-0.458 0.122,-1.044 0.22,-0.622 0.206,-0.12 0.26,-0.478 0.312,-0.838 0.356,-0.466 0.396,-0.092 0.31,0.042 0.22,0.172 0.646,0.108 1.07,0.04 0.828,-0.126 0.584,-0.29 0.768,-0.148 0.95,-0.004 0.502,-0.122 0.048,-0.24 0.124,-0.072 0.198,0.094 0.188,-0.038 0.174,-0.172 0.176,-0.01 0.174,0.148 0.796,0.044 1.42,-0.058 1.31,0.44 1.204,0.938 0.622,0.626 0.038,0.314 0.2,0.316 0.36,0.318 0.328,0.058 0.3,-0.2 0.234,0.022 0.168,0.244 0.344,0.05 0.382,-0.15 0.272,0.052 0.05,0.144 0.064,0.078 0.184,0.034 0.248,0.184 0.35,0.498 0.284,0.694 0.218,0.89 0.29,0.484 0.358,0.078 0.21,0.182 0.04,0.212 0.106,0.144 0.172,0.08 0.304,-0.048 0.356,0.3 0.384,0.652 0.06,0.292 -0.06,0.158 0.022,0.116 0.256,0.11 0.24,0.212 0.196,0.32 0.424,0.284 0.652,0.25 0.47,0.372 0.288,0.494 0.596,0.416 z" title="Senegal" id="SN"></path></svg>