<svg xmlns="http://www.w3.org/2000/svg" width="58.52" height="76.31"><path d="m 3.18,76.76 0.026,-0.458 -0.088,-0.228 -0.532,-0.686 -0.994,-1.276 -0.752,-0.966 -0.77,-0.986 -0.004,-0.79 -0.008,-2.35 -0.02,-4.698 -0.016,-4.7 -0.02,-4.7 -0.01,-2.352 -0.002,-0.962 0.08,-0.156 0.878,-0.862 1.16,-1.144 1.524,-2.17 0.828,-1.182 0.692,-0.982 0.174,-0.3 0.612,-0.596 1.146,-0.356 0.712,-0.06 2.45,-0.446 0.364,-0.18 0.214,-0.206 0.204,-0.47 0.476,-0.66 0.616,-0.456 1.17,-0.592 1.146,-0.502 0.254,-0.082 1.38,-0.316 0.338,-0.108 0.558,-0.11 0.22,-0.004 1.916,0.11 1.5,0.088 1.542,0.088 0.164,-0.068 1.078,-1.172 1.716,-1.87 1.096,-1.192 1.692,-1.844 1.3,-1.332 1.438,-1.472 1.398,-1.348 1.678,-1.622 1.06,-1.022 1.644,-1.588 1.566,-1.514 1.384,-1.338 -1.91,0 -1.866,0 -1.838,0 -0.328,-0.162 -1.544,-0.52 -1.956,-0.658 -2.428,-0.816 -1.73,-0.58 -1.844,-0.61 -1.87,-0.616 -1.468,-0.484 -1.83,-0.604 -1.59,-0.526 -0.218,-0.128 -0.882,-0.802 -1.158,-1.054 -0.222,-0.018 -0.552,-0.22 -0.496,-0.57 -0.512,-0.728 -0.474,-0.912 -0.206,-0.62 -0.634,-0.262 -0.304,-0.49 -0.574,-0.726 -0.398,-0.352 -0.142,-0.308 -0.184,-0.636 -0.328,-0.694 -0.314,-0.428 -0.072,-0.186 0.018,-0.12 0.582,-0.94 0.262,-0.336 0.298,-0.324 0.242,-0.324 0.094,-0.222 0.706,-1.108 0.622,-0.976 0.486,-0.762 1.096,0.872 1.066,1.768 1.242,1.428 1.716,1.324 0.68,0.448 0.602,0.236 3.122,-0.036 2.216,-1.208 2.012,-0.876 0.676,-0.182 1.168,0.24 1.288,0.072 1.158,0.266 0.588,-0.068 2.292,-1.018 1.44,-0.992 0.982,-0.422 0.386,-0.004 1.34,0.358 1.722,-0.156 2.356,-0.856 0.75,-0.174 0.572,-0.012 1.282,0.386 0.2,-0.02 0.694,-0.072 1.83,-0.408 1.426,-0.616 2.626,-0.446 1.998,-1.128 0.35,-0.546 0.604,-0.688 0.876,-0.226 2.24,0.808 0.358,0.064 -0.13,0.488 -0.078,0.498 -0.458,0.868 -0.294,0.964 0.216,1.472 0.104,2.384 -0.054,0.346 -0.148,0.34 -0.062,0.27 -0.242,0.094 -0.106,0.154 0.176,0.06 0.7,-0.258 -0.012,-0.286 0.04,-0.14 0.576,0.318 0.412,0.132 0.12,0.3 -0.032,0.204 -0.654,-0.094 -0.334,-0.158 -0.97,0.26 -0.594,0.28 -0.178,0.468 -0.138,1.864 -0.23,1.208 -0.044,1.598 -0.786,1.056 -0.264,0.744 -1.168,1.492 -0.608,1.272 -0.2,0.622 -1.026,1.744 -1.41,1.336 -0.508,1.706 -0.504,1.07 -0.57,0.968 -1.244,1.724 -0.636,1.196 -0.798,2.076 -0.246,1.312 -2.246,3.808 -2.33,3.032 -1.45,2.55 -2.604,2.956 -3.55,3.814 -4.648,4.524 -1.26,0.922 -5.086,2.79 -3.298,2.336 -1.684,1.59 -1.768,1.384 -1.404,1.318 -4.242,4.444 -0.436,0.418 -0.412,0.394 -0.534,0.754 -0.372,0.298 -1.012,1.272 -0.634,0.658 -0.708,0.652 -0.302,0.46 -0.212,0.53 -0.238,0.294 -0.638,1.264 -0.564,0.828 z" title="Somalia" id="SO"></path></svg>