<svg xmlns="http://www.w3.org/2000/svg" width="22.81" height="23.20"><path d="m 21.88,3.56 -0.472,0.396 -0.514,0.564 -0.676,0.974 0.03,0.306 -0.148,0.248 -0.036,0.436 0.048,0.49 0.174,0.32 0.08,0.608 -0.134,0.548 0.052,0.32 0.136,0.504 0.112,0.54 -0.012,0.216 0.164,0.178 0.152,0.172 -0.048,0.48 0.534,0.856 0.326,0.372 0.476,0.364 0.172,0.354 0.268,0.428 0.16,0.05 0.086,0.172 -0.088,0.33 -0.018,0.458 -0.302,0.532 -0.7,0.974 -0.086,0.226 0.182,0.808 -0.096,0.664 -0.042,0.318 -0.344,0.582 -0.816,1.406 -0.468,0.254 -0.284,0.406 -0.182,0.004 -0.204,0.038 -0.064,0.05 -0.256,-0.004 -0.2,-0.18 -0.032,-0.212 -0.106,-0.244 -0.252,-0.074 -0.476,0.086 -0.138,-0.062 -0.282,-0.26 -0.234,-0.286 -0.06,-0.276 -0.15,0.026 -0.362,0.25 -0.248,0.05 -0.194,-0.064 -0.218,0.018 -0.552,0.268 -0.326,0.06 -0.232,0.27 -1.534,0.122 -0.404,0.07 -0.916,-0.464 -0.236,-0.152 -0.12,-0.022 -0.102,0.024 -0.1,0.104 -0.152,0.584 -0.138,0.158 -0.24,0.13 -0.234,0.232 -0.046,0.226 0.36,0.126 0.3,0.438 0.326,0.352 0.262,0.308 -0.036,0.352 -0.044,0.498 -0.19,0.17 -0.318,0.082 -1.162,-0.24 -0.892,-0.216 -0.374,-0.046 -0.17,-0.056 -0.222,-0.182 -0.226,-0.168 -0.362,-0.062 -0.432,-0.114 -0.32,-0.438 -0.33,-0.622 -0.116,-0.282 -0.258,-0.272 -0.252,-0.388 -0.078,-0.344 -0.19,-0.314 -0.1,-0.106 -0.148,-0.428 -0.032,-0.16 -0.072,-0.02 -0.104,-0.138 -0.204,-0.458 -0.046,-0.114 -0.09,-0.04 -0.238,-0.322 -0.19,-0.112 -0.07,-0.166 0.016,-0.448 -0.102,-0.222 -0.03,-0.422 -0.006,-0.168 -0.098,-0.188 -0.162,-0.122 -0.028,-0.306 -0.04,-0.752 -0.078,-0.132 -0.684,0.01 -0.068,0.074 -0.296,0.044 -0.33,0.008 -0.3,-0.1 -0.246,-0.132 -0.054,-0.164 0.038,-0.522 -0.398,-0.396 -0.63,-0.49 -0.19,-0.622 -0.232,-0.388 -0.698,-0.812 -0.124,-0.556 0,-0.394 0.244,-0.36 0.342,-0.636 0.142,-0.576 0.104,-0.3 0.176,-0.394 0.16,-0.51 -0.122,-0.314 -0.208,-0.306 -0.068,-0.232 0.202,-0.336 0.202,-0.238 0.23,-0.032 0.292,-0.144 0.23,-0.204 0.35,-0.054 0.436,-0.022 0.892,0 0.456,-0.088 0.142,-0.164 -0.022,-0.316 0.226,-0.286 0.238,-0.12 0.096,-0.094 0.014,-0.106 -0.062,-0.096 -0.096,-0.064 -0.248,-0.022 -0.218,-0.496 0.15,-0.216 0.192,-0.398 0.054,-0.226 0.298,-0.352 0.072,0.108 0.23,-0.644 0.028,-0.524 0.176,-0.516 0.27,-0.612 0.486,-0.304 2.83,0.31 1.292,0.292 1.662,0.504 0.236,0.54 0.012,-0.54 -0.082,-0.544 0.46,-0.386 1.008,-0.136 1.51,0.186 1.298,-0.228 1.766,0.028 2.68,0.44 1.2,0.3 0.494,0.272 0.094,0.488 -0.046,0.626 -0.196,0.598 z" title="Suriname" id="SR"></path></svg>