<svg xmlns="http://www.w3.org/2000/svg" width="13.42" height="7.28"><path d="m 4.18,0.08 0.142,0.028 0.938,0.294 0.278,-0.058 0.356,0.236 0.17,0.186 0.15,0.256 0.74,0.51 0.124,0.224 0.554,0.302 0.224,0.232 0.236,0.094 0.462,0.09 0.396,0.122 0.046,0.084 0.038,0.344 0.084,0.288 0.188,0.018 0.228,-0.14 0.744,-0.386 0.702,-0.258 0.396,0.154 0.234,0.322 0.268,0.144 0.556,-0.088 0.504,0.028 0.396,0.282 0.092,0.162 -0.244,0.936 -0.088,0.398 -0.042,0.338 0.142,0.09 0.14,0.13 -0.03,0.182 -0.434,0.3 -0.136,0.076 0.1,0.576 -0.322,0.35 -0.296,0.25 -0.52,0.068 -0.882,0.028 -1.328,-0.284 -0.98,-0.388 -0.526,-0.002 0.166,0.128 0.418,0.082 0.548,0.272 -0.158,0.076 -1.994,-0.568 -2.304,-1.118 -1.378,-0.178 -1.578,-0.292 -0.932,-0.706 -0.7,-0.306 -0.062,-0.268 0.008,-0.296 0.316,-0.398 0.592,-0.536 0.394,-0.278 0.184,-0.054 0.26,0.028 0.248,-0.156 0.214,-0.368 0.224,-0.238 0.568,-0.242 0.13,-0.096 -0.044,-0.206 -0.124,-0.402 0.02,-0.248 0.184,-0.114 0.224,-0.022 0.46,-0.1 0.2,0.02 z" title="El Salvador" id="SV"></path></svg>