<svg xmlns="http://www.w3.org/2000/svg" width="37.02" height="33.91"><path d="m 37.02,1.32 0,0.094 -0.05,0.242 -0.634,0.696 -0.86,0.944 -0.618,0.596 -1.04,1 -0.778,0.214 -1.308,0.36 -0.352,0.348 -0.328,0.564 -0.192,0.77 -0.056,0.48 -0.034,0.896 0.306,0.93 0.294,0.89 0.038,0.588 -0.03,0.578 -0.284,0.618 -0.31,0.846 -0.178,0.954 -0.094,1.782 -0.002,1.514 -0.026,0.246 -0.538,1.064 -0.628,1.244 -0.292,0.286 -1.378,0.37 -1.504,0.908 -1.682,1.014 -1.526,0.918 -1.602,0.962 -1.662,0.996 -1.188,0.71 -1.59,0.95 -1.448,0.906 -1.466,0.918 -1.116,0.694 -1.692,1.098 -0.992,0.644 -1.458,0.944 -1.284,0.83 -1.518,0.98 -1.904,-0.29 -0.602,-0.17 -0.492,-0.466 -0.362,-0.25 -0.9,-0.256 -0.578,-0.882 -0.346,-0.312 -0.604,-0.14 0.08,-0.316 0.312,-0.532 0.316,-0.58 -0.176,-0.322 -0.058,-0.276 -0.02,-0.328 0.216,-0.314 -0.102,-0.38 -0.166,-0.38 -0.122,-0.192 0,-0.35 0.08,-0.268 0.1,-0.41 0.256,-0.224 0.066,-0.234 0.23,-0.23 0.306,-0.188 0.07,-0.15 -0.044,-0.086 -0.308,-0.17 -0.166,-0.298 0.148,-0.434 0.098,-0.136 0.184,-0.212 0.412,-0.32 0.322,-0.052 0.278,-0.002 0.472,0.028 0.366,0.058 0.094,-0.084 -0.014,-0.106 -0.452,-0.262 -0.024,-0.21 0.112,-0.224 0.32,-0.356 0.382,-0.26 0.194,-0.046 0.436,-0.524 0.28,-0.586 -0.454,-1.428 -0.272,-0.23 -0.444,-0.196 -0.262,-0.03 -0.02,-0.094 0.35,-0.362 0.248,-0.318 -0.274,-0.3 -0.494,-0.142 -0.182,0.312 -0.632,0.028 -0.98,-0.004 -0.432,-1.516 -0.066,-0.658 0.012,-0.762 0.298,-1.116 -0.14,-0.518 -0.012,-0.35 -0.076,-0.48 -0.774,-1.036 0.422,-1.912 0.298,-0.464 0.42,0.044 0.896,0.544 0.148,-0.016 0.272,-0.716 0.264,-0.242 0.552,-0.214 0.158,-1.16 0.258,-0.222 0.312,-0.12 0.48,-0.024 0.416,-0.068 0.026,-0.204 -0.584,-1.346 0.052,-0.342 0.282,-1.356 0.178,-0.532 0.17,-0.174 0.662,0.068 0.926,0.24 0.246,0.39 0.454,0.348 0.678,-0.024 0.786,0.066 0.612,0.022 0.49,-0.244 1.106,-0.456 0.546,-0.152 0.498,-0.202 1.6,-0.748 0.642,0.058 0.438,0.098 0.336,0.12 0.752,0.51 0.622,0.516 0.438,0.154 0.784,-0.012 1.134,0.1 1.392,-0.008 0.814,-0.144 1.038,-0.254 1.852,-0.61 2.436,-1.278 1.432,-0.622 0.618,-0.074 0.804,-0.006 0.804,0.162 0.912,0.116 0.422,-0.01 0.986,-0.128 1.28,-0.26 0.804,-0.212 0.972,-0.348 0.606,-0.58 0.196,-0.06 0.252,0.106 0.118,0.04 0.248,0.328 z" title="Syria" id="SY"></path></svg>