<svg xmlns="http://www.w3.org/2000/svg" width="7.44" height="9.78"><path d="m 6.52,1.34 0.112,0.09 0.518,0.286 0.046,0.572 -0.05,0.652 -0.104,0.412 0.04,0.41 0.166,0.64 0.158,0.438 0.038,1.996 -0.176,-0.092 -0.318,-0.086 -0.17,0.04 -0.154,0.898 -0.12,1.334 0.072,0.83 -1.212,0.026 -1.532,-0.09 -1.098,-0.36 -1.184,-0.79 -0.702,-1.232 -0.308,-0.772 -0.43,-0.044 -0.07,-0.132 -0.038,-0.942 0.008,-0.986 0.082,-0.262 0.796,-1.214 0.494,-0.752 0.308,-0.726 0.67,-0.854 0.716,-0.544 0.266,-0.078 0.184,0.022 1.264,0.748 1.296,0.71 0.284,-0.08 z" title="Swaziland" id="SZ"></path></svg>