<svg xmlns="http://www.w3.org/2000/svg" width="3.96" height="1.20"><path d="m 2.6,0.66 -0.098,0.064 -0.326,-0.208 -0.046,-0.166 -0.116,-0.008 -0.194,-0.15 0.046,-0.194 0.444,-0.008 0.178,0.538 0.112,0.132 z m 1.228,0.452 -0.022,0.082 -0.318,-0.232 -0.61,-0.002 -0.096,-0.318 0.234,-0.052 0.774,0.112 0.176,0.276 -0.138,0.134 z m -3.77,-0.516 0.642,0.332 0.386,-0.05 0.032,0.072 -0.208,0.076 -0.052,0.062 -0.618,0.086 -0.194,-0.016 -0.04,-0.224 0.052,-0.338 z" title="Turks and Caicos Islands" id="TC"></path></svg>