<svg xmlns="http://www.w3.org/2000/svg" width="10.49" height="28.36"><path d="m 5.56,0.7 -0.144,0.612 -0.298,0.756 -0.192,0.24 -0.136,1.836 0.094,0.152 0.068,0.046 0.932,0.62 1.222,0.814 0.864,0.574 0.072,0.194 0.014,1.204 0.01,1.034 0.178,0.59 0.038,0.574 0.218,0.432 0.796,0.834 0.19,0.492 0.022,1.576 0.014,1.194 0.102,1.626 0,1.356 0,1.712 0,2.008 0,2.09 -0.526,0.026 0.288,0.65 0.048,0.588 0.068,0.192 -0.142,0.284 0.118,0.434 0.228,0.16 0.584,0.872 0.194,0.738 -0.936,0.246 0.064,0.19 -1.75,0.392 -0.692,0.324 -0.014,-0.312 -0.254,-0.056 -0.31,-0.106 -0.194,-0.162 -0.268,-0.37 -0.096,-0.29 -0.408,-0.046 -0.504,-0.324 -0.48,-0.372 -0.168,-0.372 0.048,-0.17 -0.076,-0.178 -0.164,-0.066 -0.432,-0.84 -0.27,-0.338 -0.124,-0.272 0.044,-0.21 -0.06,-0.284 0.084,-0.23 0.234,-0.136 0.072,-0.168 0.022,-0.354 0.13,-0.728 0.086,-0.716 -0.246,-0.196 -0.3,-0.056 -0.156,-0.206 -0.06,-0.336 0.006,-0.292 0.59,-1.02 -0.122,-2.352 0.088,-0.358 0.27,-0.248 0.228,-0.286 -0.01,-0.286 -0.392,-0.702 -0.746,-0.54 -0.382,-0.436 -0.206,-0.392 -0.034,-0.21 0.452,-0.308 0.2,-0.212 0.026,-0.246 -0.184,-0.446 0.032,-0.798 0.174,-0.598 0.178,-0.774 -0.018,-0.226 -0.438,-0.464 -0.238,-0.062 -0.192,0.032 -0.458,0.304 -0.166,0.032 -0.104,-0.088 -0.046,-0.122 0.162,-0.182 -0.06,-0.226 0.136,-0.198 0.29,-0.09 0.086,-0.1 -0.392,-0.094 -0.046,-0.136 0.028,-0.13 0.114,-0.026 0.122,0.008 0.068,-0.094 0.062,-0.658 0.046,-0.23 0.05,-0.456 0.06,-1.764 0.09,-0.182 0.014,-0.132 -0.276,-0.086 -0.65,-0.474 -0.38,-0.364 -0.332,-0.372 -0.278,-0.246 -0.546,-0.378 -0.16,-0.242 -0.024,-0.24 0.166,-0.484 0.264,-0.514 0.13,-0.738 -0.08,-0.196 -0.358,-0.342 1.278,0.262 1.824,0.442 0.038,0.078 0.012,0.132 0.316,-0.004 0.526,-0.156 z" title="Togo" id="TG"></path></svg>