<svg xmlns="http://www.w3.org/2000/svg" width="46.40" height="84.93"><path d="m 15.42,0.66 -0.042,0.35 0.138,0.074 0.194,-0.164 0.246,-0.398 0.27,-0.224 0.292,-0.05 0.31,0.272 0.328,0.592 0.336,0.336 0.158,0.038 0.114,0.27 0.018,0.26 -0.16,0.548 -0.27,0.636 -0.386,0.788 0.126,0.662 0.526,0.54 0.626,0.318 0.664,-0.088 0.354,-0.162 0.29,-0.254 0.268,-0.12 0.34,-0.032 1.056,0.186 0.322,0.184 0.048,0.366 -0.13,0.938 0.164,0.688 0.298,0.724 0.036,0.66 -0.37,1.086 -0.308,1.028 -0.332,0.5 -0.258,0.322 -0.076,0.218 0.022,0.206 0.236,0.308 0.252,0.398 0.062,0.38 -0.028,0.466 -0.172,0.64 -0.64,1.386 -0.508,1.25 0.266,0.25 0.504,0.182 0.334,0.178 0.35,-0.114 0.742,-0.738 0.638,-0.548 0.794,-0.548 0.046,-0.048 0.696,-0.404 0.318,-0.372 0.172,-0.474 0.246,-0.182 0.318,0.106 0.404,-0.206 0.49,-0.52 0.376,-0.24 0.262,0.04 0.468,0.322 0.676,0.604 0.6,0.36 0.526,0.116 0.258,0.224 -0.014,0.334 0.118,0.212 0.246,0.09 0.11,-0.036 -0.028,-0.162 0.238,-0.238 0.504,-0.312 0.512,-0.184 0.52,-0.054 0.338,-0.248 0.222,-0.644 0.322,-0.49 0.288,-0.222 0.356,-0.112 0.094,-0.156 -0.172,-0.2 0.016,-0.204 0.206,-0.206 0.442,-0.088 0.68,0.03 0.794,0.208 0.912,0.388 0.598,0.126 0.286,-0.14 0.556,0.6 0.828,1.34 0.708,1.012 0.594,0.684 0.624,0.524 0.654,0.366 0.47,0.498 0.428,0.944 -0.32,1.302 -0.086,1.126 0.04,1.378 0.386,1.056 0.732,0.734 0.426,0.592 0.12,0.452 0.57,0.388 1.022,0.322 0.426,0.292 -0.174,0.262 -0.014,0.304 0.144,0.346 0.356,0.288 0.562,0.226 0.336,0.24 0.106,0.252 -0.012,0.41 -0.13,0.566 -0.234,0.434 -0.34,0.302 -0.042,0.24 -0.088,0.364 0,0.746 0.242,0.496 0.074,0.63 -0.132,0.514 -0.128,1.05 -0.016,0.406 -0.122,0.35 -0.296,0.336 -0.454,0.316 -0.552,0.282 -0.338,0.124 -0.08,0.058 -0.242,0.318 -0.292,0.308 -0.226,0 -0.17,-0.156 -0.12,-0.202 -0.07,-0.442 -0.51,-0.218 -0.56,-0.138 -1.14,0.218 -0.922,0.118 -1.034,-0.15 -0.972,0.188 -0.406,0.028 -0.466,-0.03 -0.452,0.004 -0.43,-0.068 -0.792,-0.27 -0.304,0.022 -0.638,0.224 -0.668,0.156 -0.64,0.108 -0.946,0.46 -0.684,0.666 -0.202,0.47 -0.34,0.474 -0.47,0.75 -0.61,0.718 -0.424,0.328 0.118,0.194 -0.106,0.232 -0.664,0.104 -0.518,0.042 -0.094,0.116 0.062,1.444 0.182,0.546 0.334,0.658 0.218,0.362 0.164,1.068 0.048,0.906 0.73,0.572 0.412,0.436 0.294,0.384 -0.102,0.244 -0.176,0.73 0.17,0.946 1.02,2.04 0.088,0.144 -0.122,0.016 -0.16,-0.392 -0.518,-0.662 -0.16,-0.706 -0.608,-0.778 -0.34,-0.308 -0.11,0.258 -0.194,0.276 -0.596,-0.4 -0.512,-0.418 -0.47,-0.81 -0.06,0.188 -0.106,0.17 -0.536,-0.636 -0.56,-0.508 -0.504,-0.182 -0.31,-0.168 -0.3,-0.27 -0.628,-0.28 -1.564,0.404 -1.99,-0.314 -0.766,0.3 -0.314,-0.186 -0.194,-0.346 0.186,-0.592 0.042,-1.24 0.238,-0.872 -0.112,-0.664 0.116,-0.312 0.088,-0.426 -0.314,-0.174 -1.406,-0.338 -0.296,-0.268 -0.376,0.308 -1.688,0.172 -0.636,0.258 -0.588,0.496 -0.152,0.628 0.34,0.414 0.218,0.718 -0.606,1.568 -0.102,0.466 0.234,1.916 -0.094,1.05 -0.33,0.704 -0.522,0.632 -0.216,1.07 -0.41,0.496 -0.55,1.132 -0.372,1.41 -0.264,0.652 -0.154,1.2 -1.134,1.818 -0.266,1.026 -0.406,0.388 0.142,0.306 0.024,0.512 -0.142,1.366 -0.046,1.132 0.172,0.606 0.542,1.202 -0.128,0.348 -0.064,0.496 0.458,0.224 0.328,0.066 1.852,-0.568 0.626,0.146 0.236,0.53 0.152,0.462 0.314,2.492 0.162,0.462 0.374,0.44 0.41,0.468 0.14,-0.084 0.026,-0.174 0.028,-0.196 0.366,0.472 0.286,0.88 0.976,4.65 0.282,0.59 0.234,0.622 -0.596,-0.302 -0.16,-1.032 -0.17,-0.434 -0.21,-0.064 -0.332,0.008 -0.022,-0.184 0.25,-0.336 -0.04,-0.404 -0.342,-0.332 -0.552,0.264 0.016,0.724 0.246,0.554 0.936,1.24 0.292,0.518 0.372,0.148 0.542,-0.082 0.648,0.528 0.51,0.49 1.266,0.75 0.766,-0.08 0.828,-0.186 0.554,0.048 0.544,0.192 0.654,0.626 1.038,1.568 1.696,1.304 -0.184,0.324 -0.074,0.494 -0.668,0.658 -0.108,0.38 -0.244,0.482 -0.464,0.258 -0.4,0.048 -0.23,-0.046 -0.16,-0.096 -0.272,-0.456 -0.138,-0.138 -0.116,-0.032 -0.854,0.314 -0.826,0.348 -0.152,0.312 -0.22,0.364 -0.24,0.144 -0.19,0.036 -0.182,-0.214 -0.316,-0.278 -0.244,-0.26 0.062,-0.42 0.464,-0.618 0.06,-0.432 -0.058,-0.744 -0.126,-0.428 -0.134,-0.014 -0.228,-0.07 -0.644,0.07 -0.322,-0.484 -0.126,-0.532 -0.22,-0.19 -0.218,-0.116 -0.482,0.184 -0.37,-0.11 -1.226,-0.462 -0.47,-0.746 -0.252,-0.022 -0.222,0.082 -0.088,0.17 -0.13,0.858 -0.106,0.262 -1.406,-1.728 -0.968,-0.712 0.136,-1.29 -0.294,-0.25 -0.368,-0.024 -0.278,-0.358 0.246,-0.768 -0.38,0.146 -0.526,-0.028 -0.432,-0.212 -0.326,-1.064 -0.208,-0.324 -0.45,-0.558 -0.594,0 -0.198,-0.268 0.048,-0.688 -0.434,-0.422 -0.57,-0.344 -0.468,-0.202 -0.478,-1.11 -0.376,-0.272 -0.32,-0.222 -0.446,0.15 -0.146,0.4 -0.296,0.386 -0.338,-0.048 -0.31,-0.22 -0.378,-1.11 -0.062,-0.68 0.084,-1.264 0.472,-1.134 0.254,-1.816 0.402,-1.142 0.282,-0.388 0.386,-1.562 0.79,-1.998 0.09,-0.428 0.16,-0.48 0.12,-0.454 0.04,-0.716 -0.102,-0.376 0,-0.212 0.166,-0.27 0.562,-0.454 0.778,-0.748 0.924,-1.052 0.948,-1.616 0.47,-0.938 0.198,-0.332 0.208,-0.104 0.324,-0.322 0.222,-0.356 0.012,-0.18 -0.514,-1.758 -0.338,-0.574 -0.17,-0.678 -0.092,-0.49 -0.124,-0.45 0.06,-0.424 -0.186,-0.264 -0.42,-0.334 -0.436,-0.498 -0.26,-0.814 0,-0.454 -0.278,-0.398 -0.094,-0.416 0.168,-0.398 0.218,-0.344 -0.026,-1.512 -0.088,-0.452 -0.108,-0.808 -0.284,-0.61 -0.402,-0.714 -0.456,-0.59 -1.192,-1.068 -0.85,-0.714 -0.42,-0.652 -0.534,-0.75 -0.382,-0.54 -0.482,-0.682 -0.246,-0.93 -0.136,-0.992 0.074,-0.328 0.23,-0.216 0.302,-0.174 0.244,-0.04 0.688,-0.456 0.478,0.04 0.112,-0.098 0.046,-0.208 -0.062,-0.904 0.022,-1.21 0.088,-0.986 0.104,-0.65 1.268,-0.756 0.266,-0.328 0.128,-0.354 0,-0.312 -0.108,-0.246 -0.19,-0.136 -0.82,0.652 -0.16,-0.144 -0.376,-1.072 -0.162,-0.328 -0.234,-0.392 -0.252,-0.548 -0.04,-0.948 -0.182,-0.47 -1.024,-1.002 -0.458,-0.54 -0.626,-0.78 -0.75,-0.936 -0.766,-0.866 -0.36,-0.554 -0.126,-0.126 -0.042,-0.214 0.232,-0.596 -0.116,-0.6 -0.38,-0.8 -0.164,-0.496 0.054,-0.19 -0.184,-0.074 -0.426,0.042 -0.408,-0.376 -0.394,-0.792 -0.038,-0.14 0.128,0.002 0.494,0.136 0.168,-0.02 0.35,-0.182 0.53,-0.192 0.314,-0.064 0.104,-0.094 0.044,-0.192 -0.27,-1.832 0.046,-0.382 0.502,-0.792 -0.056,-0.8 0.128,-1.148 0.56,-0.786 0.42,-0.362 0.132,-0.568 0.192,-0.12 0.348,0.044 0.718,0.424 0.306,0.02 0.436,-0.012 0.468,-0.032 0.218,-0.04 1.498,-0.414 0.33,-0.044 0.316,0.052 0.23,-0.02 0.23,-0.19 0.164,-0.334 0.188,-1.072 0.108,-0.19 0.194,-0.152 0.318,-0.102 0.372,0.008 0.486,0.206 0.304,0.008 0.344,-0.086 0.292,-0.148 0.194,-0.188 0.088,-0.226 -0.078,-0.434 -0.222,-0.544 0.062,-0.066 0.408,0.12 0.6,0.134 0.458,-0.03 0.298,-0.094 0.292,-0.258 0.368,-0.238 0.358,0.054 0.278,0.212 0.662,0.4 z m 12.934,48.416 0.018,0.136 -0.292,-0.104 -0.102,0.048 -0.326,-0.038 -0.16,-0.79 0.024,-0.186 0.232,0.058 0.332,0.392 0.17,0.272 0.104,0.212 z m 1.008,1.778 -0.092,0.594 -0.32,-0.244 0.076,-0.3 0.126,-0.136 0.21,0.086 z m -14.212,11.236 -0.054,0.094 -0.218,-0.18 -0.154,-0.204 -0.082,-0.26 0.336,0.01 0.166,0.24 0.006,0.3 z m -0.02,0.626 0.026,0.32 -0.122,0.384 -0.512,0.226 -0.176,-0.308 0.046,-0.474 0.078,-0.12 0.502,0.024 0.158,-0.052 z m -9.896,3.022 -0.318,0.06 0.042,-0.308 0.084,-0.194 0.154,-0.052 0.064,0.332 -0.026,0.162 z m 0.57,6.48 -0.06,0.414 -0.23,-0.006 -0.234,0.266 -0.11,0.036 -0.19,-0.844 0.218,-1.184 0.118,-0.168 0.162,0.314 0.47,0.14 -0.204,0.682 0.06,0.35 z m 1.024,-0.18 -0.066,0.094 -0.286,-1.078 0.422,0.29 -0.07,0.694 z m 2.732,1.924 0.146,0.678 -0.206,-0.138 -0.17,-0.296 0.002,-0.434 0.042,-0.06 0.186,0.25 z m 3.28,6.012 -0.106,0.034 -0.21,-0.454 0.266,-0.658 0.266,0.806 -0.216,0.272 z" title="Thailand" id="TH"></path></svg>