<svg xmlns="http://www.w3.org/2000/svg" width="43.60" height="31.25"><path d="m 20.24,5.86 0.018,0.134 -0.082,0.242 -1.166,0.412 -0.53,0.348 -0.114,0.618 -0.14,0.178 -0.236,0.146 -0.234,0.034 -0.358,-0.726 -0.408,-0.15 -0.586,-0.256 -1.138,-0.496 -0.588,-0.216 -1.13,0.324 -1.32,0.444 -0.206,0.27 -0.14,0.29 0.014,0.22 0.096,0.294 -0.066,0.224 -0.248,0.072 -0.374,-0.272 -0.326,-0.158 -0.16,0.372 -0.192,0.66 -0.088,0.48 0.288,0.692 0.098,1.022 0.528,-0.054 0.402,0.002 0.76,-0.302 0.382,-0.008 0.59,0.132 1.034,0.026 0.816,-0.054 0.198,0.022 0.194,-0.194 0.214,0.068 0.2,0.234 0.826,-0.284 0.614,-0.04 0.376,0.084 0.222,0.084 0.398,0.676 0.304,0.418 0.372,0.134 1.154,-0.124 0.338,-0.59 0.296,-0.146 0.476,-0.044 0.392,-0.114 0.312,-0.242 0.426,-0.212 0.372,-0.042 0.184,0.156 0.08,0.206 -0.064,0.266 -0.014,0.278 0.24,0.186 0.708,0.044 0.334,0.174 0.02,0.328 -0.054,0.514 0.296,0.208 0.154,0.018 1.038,-0.544 0.292,-0.008 0.232,0.3 0.354,0.36 0.464,0.384 0.112,-0.06 0.208,-0.418 0.396,-0.456 0.744,-0.15 0.41,-0.142 0.43,-0.064 1.304,0.184 0.432,0.024 0.898,-0.036 0.706,-0.092 0.568,-0.274 0.288,-0.22 0.466,-0.128 0.59,0.022 0.314,0.064 0.028,0.376 -0.074,0.714 -0.09,0.496 0.466,0.898 0.298,0.432 0.292,0.306 0.054,0.242 -0.06,0.196 -0.362,0.192 -0.13,0.204 -0.06,0.23 0.118,0.266 0.208,0.848 0.268,0.658 0.378,0.316 0.566,0.208 0.31,-0.044 0.222,-0.492 0.372,-0.376 0.314,0.026 0.506,-0.016 1.328,0.426 1.296,0.644 0.376,0.356 0.132,0.4 -0.358,0.924 0.016,0.588 0.082,0.628 0.296,0.464 0.272,0.796 0.052,0.658 0.118,0.196 0.096,0.23 -0.144,0.602 -0.102,0.606 0.122,0.202 0.396,0.298 0.624,0.558 0.12,0.46 -0.222,0.292 -0.396,0.356 -0.508,0.306 -0.15,0.128 -0.09,-0.072 -0.252,-0.31 -0.56,-0.5 -0.398,-0.264 -0.76,0.084 -0.446,-0.092 -0.538,-0.164 -0.502,0.024 -0.316,0.302 -0.204,0.302 -0.502,0.092 -0.722,0.232 -1.12,0.362 -0.54,-0.054 -0.146,-0.156 0.122,-0.208 0.382,-0.27 0.094,-0.326 -0.074,-0.302 -0.358,-0.082 -0.136,-0.048 -0.158,-0.062 -0.692,-0.18 -0.552,0.066 -0.962,0.378 -1.772,0.992 -0.778,0.666 -0.56,1.006 -1.676,0.324 -1.152,0.576 -1.188,0.936 -0.786,0.504 -0.382,0.072 -0.382,-0.09 -0.382,-0.25 -0.374,-0.784 -0.332,-1.188 -0.218,-0.788 0.124,-1.012 0.14,-1.154 0.142,-1.176 0.23,-1.362 0.192,-0.486 0.01,-0.324 -0.17,-0.164 -0.36,0.008 -0.55,0.182 -0.39,0.032 -0.232,-0.118 0.024,-0.634 0.28,-1.154 -0.43,-0.972 -1.144,-0.792 -0.972,-0.276 -0.802,0.242 -0.674,0.628 -0.544,1.014 -0.566,0.828 -0.586,0.642 -0.42,0.31 -0.134,0.12 -0.084,0.272 0.31,0.854 -0.02,0.714 -0.352,0.578 -0.386,0.274 -0.422,-0.026 -0.336,-0.134 -0.248,-0.242 -0.672,-0.066 -1.096,0.11 -0.75,0.288 -0.404,0.468 -0.118,0.616 0.17,0.762 -0.084,0.584 -0.342,0.406 -0.28,0.232 -0.218,0.06 -0.476,-0.35 -0.73,-0.76 -0.502,-0.412 -0.274,-0.062 -0.148,0.042 -0.168,0.08 -0.096,0.098 -0.082,0.226 -0.234,0.09 -0.33,-0.072 -0.302,0.068 -0.182,0.238 -0.508,0.288 -0.896,0.322 -0.49,0.344 -0.082,0.366 -0.132,0.164 -0.276,-0.06 -0.808,0.502 -0.618,-0.156 -0.694,-0.646 -0.384,-0.532 -0.04,-0.224 0.218,-0.51 0.092,-1.702 0.278,-0.59 0.826,-1.06 0.43,-0.81 0.486,-0.66 0.35,-0.22 0.324,-0.52 0.264,-0.596 0.074,-0.376 -0.024,-0.294 -0.096,-0.19 -0.458,-0.404 -0.602,-0.63 -0.32,-0.646 -0.174,-0.824 -0.046,-0.576 0.564,-1.586 -0.09,-0.266 -0.162,-0.246 -0.332,-0.156 -0.474,-0.066 -0.472,0.072 -0.602,0.006 -0.416,-0.09 -0.1,-0.1 -0.052,-0.724 -0.106,-0.158 -0.178,-0.138 -1.214,-0.334 -0.238,-0.144 -0.044,-0.184 0.43,-1.616 0.186,-0.122 0.182,-0.264 0.286,-0.282 0.99,-0.462 1.064,0.2 0.946,0.214 0.944,0.116 0.326,0.078 0.538,0.064 0.362,-0.056 0.246,-0.19 0.444,-0.524 0.136,-0.788 0.16,-0.696 0.27,-0.054 0.272,0.074 0.128,-0.14 0.054,-0.192 0.054,-0.164 0.112,-0.036 0.196,0.18 0.112,-0.048 0.092,-0.122 -0.028,-0.144 -0.22,-0.244 -0.198,-0.382 0.02,-0.132 0.066,-0.138 0.582,-0.13 0.266,-0.024 0.092,-0.136 -0.034,-0.216 -0.22,-0.122 -0.796,0.066 -0.814,-0.014 -0.098,-0.132 0.046,-0.146 0.124,-0.114 1.68,-0.292 0.89,0.102 0.662,0.154 0.26,-0.076 -0.308,-0.66 0.42,-0.062 0.054,-0.226 -0.55,-1.758 0.302,-0.156 0.302,-0.346 -0.026,-0.658 0.268,-0.32 0.318,-0.22 0.472,0.222 0.732,0.65 0.236,0.126 0.236,0.036 0.34,-0.202 1.304,-0.642 0.732,-0.362 0.876,-0.526 0.15,-0.204 0.3,-0.802 0.164,-0.054 0.222,0.086 0.768,0.83 0.444,0.532 0,0.182 -0.126,0.136 0.024,0.132 0.628,0.288 0,0.13 -0.142,0.25 -0.076,0.138 -0.078,0.058 -0.84,0.724 -0.932,0.804 -0.032,0.104 -0.042,0.2 0.01,0.204 0.15,0.168 0.402,0.118 0.358,0.152 0.182,0.42 0.208,0.388 0.282,0.096 1.382,-0.246 0.318,-0.026 z m -1.714,-5.136 -0.168,0.016 -0.302,-0.35 -0.106,-0.246 0.124,-0.074 0.26,0.17 0.174,0.302 0.018,0.182 z m 0.276,8.156 -0.504,0.28 -0.294,-0.03 -0.228,-0.272 -0.166,-0.254 -0.036,-0.144 0.084,0.002 0.388,0.116 0.544,0.08 0.192,0.07 0.02,0.152 z" title="Tajikistan" id="TJ"></path></svg>