<svg xmlns="http://www.w3.org/2000/svg" width="18.30" height="7.74"><path d="m 9.04,0 -0.376,0.968 -0.406,-0.206 0.432,-0.544 0.208,-0.162 0.142,-0.056 z m -3.246,7.742 -0.194,-0.736 -0.206,-0.316 -0.16,-0.18 -0.054,-0.224 0.008,-0.23 0.098,-0.106 0.692,-0.03 0.274,-0.378 -0.002,-0.454 -0.138,-0.154 -0.134,-0.064 -0.712,0.34 -0.206,-0.062 -0.122,-0.124 0.04,-0.502 0.588,-0.47 0.498,-0.852 0.35,-0.34 0.814,-0.318 0.33,-0.09 2.372,-0.47 0.566,-0.032 1.502,0.014 2.012,-0.102 0.496,-0.064 0.644,-0.208 0.626,-0.256 0.33,-0.202 0.348,-0.146 0.518,0.184 0.876,0.138 0.236,0.122 0.218,0.168 -1.018,0.896 -1.12,0.744 -0.69,0.224 -0.712,0.152 -0.544,0.288 -0.458,0.45 -0.586,0.252 -0.66,0.086 -0.566,0.134 -0.512,0.264 -0.71,0.454 -0.29,0.046 -0.304,-0.01 -0.59,0.174 -1.838,0.648 -1.11,0.722 -0.8,0.62 z m -5.79,-0.962 0.908,-0.482 1.382,-0.372 -0.036,0.272 -0.14,0.428 -0.208,0.202 -0.316,0.362 -0.208,0.08 -0.828,-0.08 -0.108,0.052 -0.142,-0.038 -0.21,-0.232 -0.094,-0.192 z" title="Timor-Leste" id="TL"></path></svg>