<svg xmlns="http://www.w3.org/2000/svg" width="22.69" height="47.86"><path d="m 22.5,28.48 -0.012,0.176 -0.198,1.266 -0.044,0.454 -0.03,0.77 0,0.924 0.448,0.78 0.012,0.342 -0.174,0.396 -0.826,0.452 -1.066,0.584 -0.916,0.554 -1.004,0.608 -0.308,0.392 -0.498,0.302 -0.416,0.302 -0.076,0.29 -0.292,0.546 -0.38,0.436 -0.954,0.206 -0.176,0.13 -0.442,0.656 -0.204,0.256 -0.252,0.538 0.324,1.392 0.396,1.428 0.078,0.594 -0.006,0.494 -0.222,0.532 -0.508,0.76 -0.372,0.558 -0.714,1.002 -0.21,0.248 -0.492,0.292 -0.95,0.386 -0.67,0.342 -0.34,-1.528 -0.292,-1.306 -0.24,-1.08 -0.422,-1.906 -0.36,-1.624 -0.358,-1.622 -0.326,-1.476 -0.328,-1.49 -0.14,-0.218 -0.982,-0.704 -0.904,-0.65 -0.942,-0.74 -1.02,-0.802 -0.164,-1.012 -0.524,-1.532 -0.552,-0.856 -0.208,-0.224 -1.114,-0.554 -0.642,-0.408 -0.176,-0.238 -0.124,-0.626 -0.458,-1.248 -0.522,-1.136 -0.192,-0.77 -0.026,-0.97 0.102,-0.702 0.228,-0.3 1.088,-0.876 0.504,-1.054 0.624,-0.396 0.54,-0.298 0.438,-0.348 0.388,-0.558 0.296,-0.596 0.05,-0.646 0.124,-1.026 0.198,-0.718 0.46,-0.814 -0.194,-0.656 -0.244,-0.708 0.07,-1.23 -0.062,-0.5 -0.198,-0.442 -0.202,-0.568 -0.006,-0.474 0.194,-1.246 0.148,-0.954 0.236,-1.242 -0.084,-0.348 -0.176,-0.26 -0.528,-0.274 -0.006,-0.166 0.128,-0.184 0.78,-0.608 0.418,-0.894 0.35,-0.186 0.532,-0.324 -0.02,-0.348 -0.12,-0.374 1.386,-0.422 1.32,-1.108 0.466,-0.272 3.064,-1.024 0.398,0.07 0.446,0.15 -0.128,0.382 -0.176,0.302 0.26,0.534 0.372,-0.326 -0.094,-0.218 -0.022,-0.29 0.63,-0.026 0.558,0.046 0.612,0.318 -0.042,1.206 0.816,1.178 -0.23,0.586 0.668,0.346 0.594,-0.416 0.298,-0.614 1.094,-0.356 1.04,-0.904 0.576,-0.092 0.13,0.742 0.278,0.648 -0.394,0.228 -0.5,0.688 -0.95,1.74 -0.874,0.51 -0.656,0.668 -0.212,0.474 -0.064,0.552 0.164,0.988 0.478,1.002 0.552,0.604 0.532,0.188 1.238,0.952 -0.02,0.564 0.172,0.67 0.066,0.814 0.43,0.65 -0.92,1.412 -0.504,1.018 -0.984,1.4 -0.876,0.908 -1.876,1.346 -0.46,0.446 -0.3,0.462 -0.138,0.482 0.05,0.566 0.618,1.39 0.822,0.818 0.836,0.442 1.454,-0.178 -0.05,0.534 0.104,0.638 0.59,-0.03 0.396,-0.1 0.334,-0.622 0.71,0.426 0.37,1.296 0.602,0.404 0.07,0.15 -0.212,0.1 -0.166,0.148 0.178,0.106 0.582,0.16 0.352,-0.102 0.596,0.298 z m -1.272,-10.588 -0.866,0.49 0.166,-0.426 0.572,-0.516 0.148,0.124 -0.02,0.328 z m -1.798,6.972 -0.148,0.032 -0.272,0.182 -0.144,0.02 -0.408,-0.206 -0.156,0.002 -0.196,-0.144 0.066,-0.784 0.064,-0.222 0.992,-0.03 0.538,0.47 0.088,0.124 0.022,0.134 -0.25,0.262 -0.196,0.16 z" title="Tunisia" id="TN"></path></svg>