<svg xmlns="http://www.w3.org/2000/svg" width="8.09" height="17.14"><path d="m 7.92,0.44 -0.212,0.348 -0.102,-0.004 -0.246,-0.202 -0.09,-0.136 0.376,-0.41 0.194,-0.032 0.26,0.138 -0.012,0.116 -0.168,0.182 z m -6.784,15.016 0.08,0 0.088,-0.176 0.302,-0.064 -0.034,0.19 -0.408,0.616 -0.256,-0.24 -0.748,-0.394 -0.15,-0.304 0.248,-0.23 -0.026,0.186 0.126,0.084 0.422,0.032 0.376,0.166 -0.234,0.054 0.214,0.08 z m 1.398,0.784 -0.032,0.9 -0.274,-0.412 -0.032,-0.192 0.278,-0.278 0.06,-0.018 z" title="Tonga" id="TO"></path></svg>