<svg xmlns="http://www.w3.org/2000/svg" width="107.48" height="45.08"><path d="m 13.16,0.94 -0.152,0.858 0.354,0.944 0.828,1.306 0.834,0.658 3.37,1.624 0.62,0.138 -0.14,0.664 -0.204,0.588 -0.222,0.392 -0.988,0.252 -2.724,-0.722 -0.69,-0.068 -0.486,0.144 -0.9,0.524 -0.998,-0.168 -1.392,0.296 -0.388,0.986 -0.966,1.126 -1.59,0.908 -1.136,0.486 -1.708,1.736 -0.774,1.01 -0.326,0.196 -0.388,0.156 0.13,-0.486 0.192,-0.444 -0.044,-0.336 0.008,-0.488 0.568,-0.554 0.518,-0.402 1.53,-0.73 0.404,-0.608 -1.2,0.014 -1.22,0.134 -0.766,-0.086 -0.668,0.05 -0.21,-0.532 -0.162,-0.32 0.174,-0.1 0.22,-0.07 0.392,-0.568 0.35,-0.418 0.504,-0.528 0.128,-0.316 0,-0.294 -0.122,-0.204 -0.024,-0.244 -0.016,-0.342 0.028,-0.71 1.156,-0.776 0.37,-0.082 0.126,-0.356 -0.084,-0.824 -0.16,-0.666 -0.208,-0.044 -0.278,-0.194 -0.182,-0.226 -0.292,-0.246 -0.502,-0.152 -0.016,-0.21 0.052,-0.21 0.186,-0.216 0.848,-0.186 0.1,-0.152 0.114,-0.376 0.168,-0.384 0.2,-0.126 0.358,0.012 0.68,-0.088 0.474,-0.126 0.47,-0.264 0.242,-0.24 1.02,-0.138 0.286,-0.122 0.284,0.104 0.382,0.41 0.628,0.588 0.336,0.196 0.252,-0.09 0.456,-0.214 0.436,0 0.352,0.038 0.17,-0.186 0.266,-0.04 0.762,0.134 z m 75.75,3.384 0.372,0.15 0.704,0.192 0.436,0.232 0.248,0.062 0.574,-0.472 0.852,0.012 0.75,0.054 0.386,0.088 0.474,0.156 0.572,0.106 0.234,-0.226 0.334,-0.666 0.13,-0.084 0.092,-0.06 0.424,-0.052 0.402,0.05 0.19,0.114 0.19,0.534 0.478,0.19 0.844,0.85 0.516,0.34 0.126,0.142 -0.17,0.172 0.068,0.212 0.294,0.276 0.414,0.104 0.448,-0.038 0.244,0.1 0.174,0.156 0.046,0.22 -0.012,0.14 0.088,0.314 0.35,0.444 0.416,0.272 0.224,0.29 0.364,0.998 0.148,0.55 -0.056,0.53 -0.252,0.542 -0.552,0.674 0.136,0.282 0.124,0.372 -0.042,0.27 0.392,0.86 0.178,0.534 -0.148,0.124 -0.096,0.17 0.704,0.41 0.844,0.344 0.356,0.066 0.968,-0.158 0.624,-0.034 0.62,0.326 0.902,0.79 0.974,1.028 0.194,0.312 0.084,0.138 0.19,0.248 -0.198,-0.004 -0.32,-0.222 -0.774,-0.632 -0.396,0.272 -0.342,0.468 -0.374,1.774 -0.302,0.188 -0.534,-0.004 -0.654,-0.062 -0.45,0.088 -0.116,0.112 0.06,0.19 0.134,0.292 0.094,0.368 0.028,0.3 0.236,0.272 0.318,0.258 0.014,0.264 -0.048,0.374 -0.074,0.284 -0.08,0.162 0.148,0.432 0.346,0.51 0.22,0.196 -0.082,0.97 0.13,0.43 0.1,0.592 -0.04,0.984 0.042,0.242 0.118,0.082 0.316,0.038 0.308,0.09 0.108,0.162 -0.002,0.118 -0.386,0.45 -0.046,0.32 -0.134,0.45 -0.11,0.264 -0.344,0.5 -0.218,0.508 -0.1,0.418 0.066,0.198 0.636,0.06 0.344,0.3 0.918,0.598 0.162,0.242 -0.25,0.368 0.004,0.154 0.12,0.196 0.056,0.342 -0.022,0.378 0.004,0.5 0.168,0.082 0.624,0.468 0.444,0.468 0.014,0.146 -0.214,0.37 0.046,0.426 -0.008,0.098 -0.192,-0.16 -0.346,-0.058 -0.356,-0.018 -0.224,0.126 -0.392,0.334 -0.528,0.364 -0.428,0.334 -0.246,0.23 -0.204,-0.038 -0.158,-0.2 -0.088,-0.28 0.038,-1.058 -0.094,-0.332 -0.2,-0.232 -0.236,-0.132 -0.28,-0.074 -0.29,-0.008 -0.41,0.31 -0.582,0.322 -0.902,-0.026 -0.606,-0.06 -0.292,-0.06 -1.174,-0.492 -0.244,-0.012 -0.438,-0.2 -0.52,-0.158 -0.876,0.3 -0.378,-0.072 -0.53,-0.26 -0.188,0.07 -0.592,0.792 -1.008,0.846 -0.544,0.142 -0.258,-0.85 -0.25,-0.33 -0.118,-0.04 -0.252,-0.106 -0.196,0.06 -0.606,0.58 -0.972,0.348 -0.804,0.212 -1.28,0.258 -0.988,0.128 -0.42,0.01 -0.912,-0.116 -0.804,-0.162 -0.804,0.006 -0.618,0.074 -1.432,0.622 -2.436,1.278 -1.852,0.61 -1.038,0.254 -0.814,0.144 -1.392,0.008 -1.134,-0.098 -0.786,0.01 -0.436,-0.154 -0.622,-0.516 -0.752,-0.51 -0.336,-0.12 -0.438,-0.098 -0.64,-0.058 -1.6,0.748 -0.498,0.204 -0.548,0.152 -1.106,0.456 -0.49,0.244 -0.614,-0.022 -0.784,-0.064 -0.68,0.022 -0.454,-0.346 -0.246,-0.39 -0.926,-0.24 -0.662,-0.07 -0.17,0.174 -0.176,0.532 -0.282,1.358 -0.052,0.34 0.584,1.346 -0.026,0.204 -0.416,0.07 -0.478,0.024 -0.312,0.12 -0.258,0.222 -0.156,1.16 -0.554,0.212 -0.264,0.242 -0.272,0.716 -0.148,0.016 -0.896,-0.542 -0.42,-0.044 0.362,-0.562 -0.392,-1.114 -0.428,-1.044 0.404,-0.668 0.836,-0.808 0.878,-0.948 0,-0.586 -0.046,-0.448 -0.252,-0.31 -0.484,-0.412 -0.81,0.44 -0.578,0.486 -0.378,0.098 -0.41,0.276 -0.2,0.5 -0.496,0.388 -0.81,0.152 -1.218,-0.416 -1.308,-0.632 -0.74,-0.514 -0.604,-0.124 -0.574,0.226 -1.694,1.256 -1.55,1.832 -0.384,0.316 -1.46,0.786 -0.964,0.262 -0.454,-0.06 -1.922,0.344 -0.954,0.05 -0.756,0.414 -1.466,-0.448 -0.876,-0.574 -0.528,-0.584 -0.86,-1.258 -0.61,-0.598 -1.37,-0.54 -2.388,-1.312 -0.628,-0.144 -1.63,-0.188 -1.718,-0.12 -0.348,0.478 -0.132,1.89 -0.294,0.518 -0.126,0.978 -0.21,0.28 -0.33,0.184 -0.516,-0.308 -0.358,-0.136 -0.834,0.402 -1.65,0.562 -0.562,0.08 -1.912,-0.708 -0.7,-0.456 -0.452,-0.504 -0.152,-0.854 -0.284,-0.486 -0.042,-0.334 -0.112,-0.384 -0.386,-0.152 -0.414,0.292 -0.444,-0.012 -0.556,-0.178 -1.314,-0.718 -1.008,-0.058 -0.608,0.876 -0.472,0.278 -0.516,0.084 -0.03,-0.248 0.392,-0.568 -1.574,0.104 -0.83,0.432 -0.648,-0.068 -0.486,-0.194 0.072,-0.238 0.492,-0.088 0.428,-0.194 1.704,-0.158 0.398,-0.158 0.436,-0.618 0.792,-0.532 0.102,-0.228 -0.61,-0.002 -2.612,0.154 -1.792,-0.084 -0.212,0.264 -0.27,0.038 -0.074,-0.718 0.284,-0.334 0.38,0.032 0.938,-0.29 -0.084,-0.598 -0.67,-0.404 -0.136,-0.24 -0.488,-0.056 -0.394,-0.286 -0.086,-0.72 -0.314,-0.792 -0.448,-0.382 0.056,-0.21 0.822,-0.268 0.17,-1.11 -0.126,-0.682 -0.414,-0.058 -1.206,-0.54 -0.366,0.058 -0.4,-0.594 -0.7,-0.426 -0.346,0.156 -0.218,0.194 -0.324,-0.092 -0.542,-0.37 -0.534,-0.2 -0.236,-0.248 0.296,-0.662 0.408,0.016 0.074,-0.518 -0.322,-0.866 0.032,-0.446 0.356,-0.122 0.406,0.084 0.41,0.518 0.134,0.5 -0.086,0.488 0.26,0.472 0.186,0.12 0.124,-0.498 0.174,-0.094 0.24,0.216 0.514,0.108 1.332,-0.304 0.256,-0.258 -0.976,0.03 -0.356,-0.242 -0.388,-0.542 -0.238,-0.492 -0.042,-0.242 -0.134,-0.354 0.148,-0.19 0.668,-0.284 0.586,-0.798 -0.246,-0.23 -0.28,-0.11 -0.304,0.082 -0.288,-0.274 -0.038,-0.38 0.23,-0.308 0.024,-0.424 -0.754,-1.046 -0.21,-0.228 0.164,-0.342 0.576,-0.574 0.548,-0.712 -0.066,-0.234 -0.406,-0.096 -1.924,0.306 -0.748,0.264 -1.334,0.122 -0.096,-0.388 0.03,-0.348 0.3,-0.636 -0.028,-1.572 0.178,-0.854 0.742,-0.256 0.91,-1.258 1.474,-1.488 1.54,0.028 0.616,-0.412 0.914,-0.024 0.166,0.298 0.104,0.286 0.802,0.412 1.416,-0.066 0.344,-0.162 0.334,-0.226 -0.656,-0.732 0.208,-0.208 0.594,-0.024 0.644,0.172 0.03,0.168 -0.17,0.23 -0.2,0.402 0.19,0.078 1.832,-0.244 1.916,0.196 0.61,-0.106 1.506,0.008 0.27,-0.252 -0.456,-0.318 -0.446,-0.11 -0.3,-0.154 -0.3,-0.226 0.956,-0.71 0.54,-0.136 2.546,-0.438 1.894,-0.218 0.024,-0.164 -0.274,0 -2.446,-0.364 -0.59,-0.28 -0.818,-0.67 -0.178,-0.19 -0.206,-0.328 0.124,-0.698 0.152,-0.562 0.302,-0.326 0.978,-0.05 3.352,0.572 2.388,-0.342 2.61,0.832 2.498,-0.168 0.514,-0.374 0.626,-1.206 3.528,-2.008 1.234,-1.05 1.324,-0.576 2.27,-0.64 1.898,-0.848 0.542,-0.098 4.556,0.406 3.13,0.052 1.436,-0.802 0.834,0.27 -0.078,0.286 -0.152,0.246 0.046,0.494 0.488,0.726 0.498,0.494 1.46,0.708 2.03,-0.596 0.328,0.066 0.414,0.166 0.716,1.914 0.556,0.674 0.712,0.458 0.586,0.09 0.434,-0.478 0.336,-0.192 0.734,-0.082 1.202,0.656 0.416,0.676 2.046,0.522 1.878,0.262 0.81,0.572 2.644,0.572 0.988,-0.088 1.656,-0.6 3.224,-0.658 2.142,0.918 0.58,0.12 0.5,-0.08 0.72,0.252 0.768,-0.136 2.37,-1.084 0.742,-0.616 0.786,-0.158 0.696,-0.37 1.856,-1.21 0.522,-0.714 z m -87.226,10.206 -1.29,0.226 -0.4,-0.222 0.404,-0.442 0.752,-0.274 0.244,-0.032 0.33,0.44 -0.04,0.304 z" title="Turkey" id="TR"></path></svg>