<svg xmlns="http://www.w3.org/2000/svg" width="20.45" height="20.41"><path d="m 15.28,16.22 -0.348,0.708 -0.28,0.748 -0.112,0.706 0.006,0.726 -0.08,0.656 -0.136,0.648 -0.544,-0.186 -0.294,-0.464 -0.068,-0.762 -0.394,-0.92 -0.148,-0.264 -0.57,-0.516 -0.518,-0.256 -0.4,-0.382 0.052,0.032 -0.296,-0.514 -0.224,-0.546 -0.462,-1.556 -0.16,-0.376 -0.214,-0.344 -0.06,-0.34 0.072,-0.378 0.202,-0.566 0.122,-0.57 -0.098,-0.776 0.038,-0.768 0.15,-0.342 2.642,-4.704 0.716,-1.006 0.442,-0.494 0.37,-0.558 0.35,-0.706 0.43,-0.646 0.306,-0.2 1.518,-0.58 0.47,-0.554 0.378,-0.172 0.43,0.01 0.278,0.264 0.248,0.314 0.26,0.168 0.67,0.306 0.294,0.296 0.132,0.508 -0.408,0.484 -0.204,0.436 -0.038,0.48 0.072,0.65 0.01,0.652 -0.512,1.526 -0.546,0.95 -0.148,0.472 -0.166,1.172 -0.322,1.174 -0.274,1.486 -0.448,1.53 -0.254,0.638 -0.316,0.61 -0.756,1.152 -0.86,0.944 z m -14.602,-11.58 0.244,0.408 -0.104,0.252 -0.772,-0.134 -0.044,-0.246 0.292,0.044 0.384,-0.324 z" title="Taiwan" id="TW"></path></svg>