<svg xmlns="http://www.w3.org/2000/svg" width="62.52" height="60.23"><path d="m 58.3,39.06 -0.304,0.074 -0.118,-0.072 -0.186,-0.236 0.324,-0.2 0.314,-0.388 0.73,-0.57 0.25,-0.376 0.09,-0.08 -0.052,0.444 -0.412,0.97 -0.352,0.064 -0.284,0.37 z m -1.206,-10.13 0.43,1.194 -0.054,0.224 -0.304,0.136 -0.158,0.012 -0.188,-0.192 -0.132,-0.402 -0.23,0.096 -0.392,-0.482 -0.388,-0.024 -0.344,-0.574 0.134,-0.5 -0.078,-0.854 0.418,-0.436 0.236,-0.736 0.272,0.502 0.062,0.784 0.366,0.92 0.306,0.284 0.044,0.048 z m 2.068,-7.106 0.034,0.282 -0.086,0.266 0.018,0.846 -0.034,0.562 -0.32,0.778 -0.262,0.278 -0.234,-0.082 -0.192,-0.128 -0.15,-0.214 0.304,-1.426 -0.156,-1.044 0.602,0.1 0.476,-0.218 z m -50.748,-21.816 0.118,0.016 0.588,0 0.998,0 0.998,0 0.998,0 0.998,0 0.998,0 0.998,0 0.998,0 0.998,0 0.998,0 0.998,0 0.998,0 0.998,0 0.998,0 0.998,0 0.998,0 0.998,0 0.614,0 0.428,0 0.404,0.21 0.45,0.25 1.198,0.664 1.196,0.664 1.196,0.664 1.196,0.664 1.196,0.664 1.198,0.664 1.196,0.664 1.198,0.664 1.196,0.664 1.196,0.664 1.196,0.664 1.196,0.664 1.198,0.664 1.196,0.664 1.196,0.664 1.196,0.664 0.572,0.318 0.086,0.138 0.098,0.606 0.062,0.378 -0.034,0.334 -0.318,0.566 -0.092,0.296 -0.002,0.206 0.078,0.082 0.27,0.03 0.23,0.134 0.084,0.106 0.176,0.426 0.222,0.214 0.506,0.362 0.862,0.618 0.862,0.618 0.862,0.618 0.862,0.618 0.862,0.618 0.862,0.618 0.862,0.618 0.862,0.618 0.418,0.302 0.178,0.084 -0.112,0.47 -0.442,1.142 -0.026,0.476 -0.172,0.56 -0.166,0.37 -0.45,1.608 -0.376,0.602 -0.514,1.41 -0.082,1.08 0.284,0.756 0.104,0.708 0.604,0.696 0.482,0.248 0.326,0.318 0.578,0.726 0.332,0.728 1.038,0.358 0.414,0.818 -0.15,0.562 -0.482,0.466 -0.45,0.754 -0.362,0.992 -0.008,1.518 0.244,-0.23 0.55,0.372 0.07,1.118 -0.566,1.302 -0.174,0.61 -0.028,0.524 0.412,1.562 0.624,0.794 -0.058,0.244 -0.162,0.208 1.068,1.408 -0.088,1.226 0.4,0.956 0.174,0.828 0.264,0.636 0.05,0.438 -0.33,0.486 0.778,0.122 0.458,0.398 0.216,0.38 0.562,-0.016 0.304,0.26 0.44,0.216 0.97,0.64 0.262,0.322 0.094,0.186 0.062,0.122 -0.652,0.496 -1.016,0.772 -0.998,0.756 -0.962,0.52 -0.688,0.242 -0.736,0.134 -0.698,0.318 -0.66,0.5 -0.846,0.252 -1.03,0.002 -1.082,0.35 -1.074,0.662 -0.626,0.386 -0.992,-0.582 -0.778,-0.184 -0.894,0.02 -0.544,0.072 -0.196,0.126 -0.17,0.356 -0.144,0.584 -0.586,0.562 -1.028,0.538 -0.948,0.202 -0.868,-0.136 -0.586,-0.224 -0.306,-0.312 -0.45,-0.144 -0.596,0.026 -0.572,0.222 -0.546,0.42 -0.87,0.182 -1.196,-0.056 -0.642,-0.204 -0.088,-0.35 -0.524,-0.41 -0.958,-0.47 -0.708,-0.01 -0.454,0.452 -0.414,0.284 -0.374,0.116 -0.336,0.014 -0.298,-0.086 -0.186,-0.036 -1.322,-0.048 -1.252,0.018 -0.04,-0.196 -0.086,-0.458 -0.26,-0.398 -0.224,-0.238 -0.28,-0.062 -0.152,0.004 -0.122,-0.184 -0.144,-0.406 -0.212,-0.344 -0.282,-0.286 -0.17,-0.266 -0.058,-0.244 0.044,-0.268 0.262,-0.666 0.084,-0.458 -0.03,-0.468 -0.142,-0.48 -0.296,-0.57 0.034,-0.164 -0.1,-0.388 -0.01,-0.272 0.058,-0.34 -0.056,-0.446 -0.256,-0.952 0,-0.244 -0.27,-0.46 -0.832,-1.088 -0.04,-0.142 -1.304,-1.096 -0.522,-0.24 -0.188,0.206 -0.07,0.19 0.054,0.352 -0.032,0.174 -0.054,0.08 -0.31,-0.012 -0.194,-0.04 -0.494,-0.294 -0.384,-0.072 -0.956,0.052 -0.334,0.07 -0.262,-0.066 -0.506,-0.502 -0.592,-0.106 -0.532,-0.026 -0.878,-0.57 -0.206,0.026 -0.098,0.044 -0.318,-0.15 -0.598,-0.332 -0.832,-0.292 -0.68,-0.326 -0.304,-0.318 -0.638,-0.122 -0.552,-0.052 -0.512,-0.296 -0.53,-0.034 -0.52,-0.076 -0.116,-0.194 -0.018,-0.436 -0.182,-0.114 -0.382,-0.112 -0.412,0.006 -0.25,0.062 -0.148,-0.032 -0.342,-0.256 -0.318,-0.326 -0.12,-0.52 -0.48,-0.334 -0.554,-0.264 -1.54,0.028 -0.242,-0.08 -0.366,-0.264 -0.428,-0.436 -0.344,-0.498 -0.302,-0.674 -0.144,-0.408 -0.17,-0.502 -0.376,-0.752 -0.532,-1.064 -0.412,-0.872 -0.442,-0.936 -0.18,-0.686 -0.344,-0.758 -0.564,-0.932 -0.286,-0.364 -0.312,-0.326 -0.81,-0.628 -0.918,-0.624 -0.498,-0.42 -0.668,-1.25 -0.28,-0.452 -0.194,-0.794 -0.146,-0.824 0.06,-0.334 0.592,-1.062 0.06,-0.298 -0.072,-0.402 -0.292,-0.846 -0.218,-0.552 -0.152,-0.472 -0.316,-0.786 -0.434,-1.082 -0.11,-0.472 0.014,-0.354 0.234,-0.934 0.206,-0.962 -0.006,-0.264 1.766,0.036 0.29,-0.21 0.998,-0.62 1.122,-1.242 0.224,-0.516 0.458,-0.796 0.448,-0.394 0.172,-0.274 0.118,-0.43 0.14,-0.364 0.588,-0.538 0.572,-0.414 -0.042,-0.166 -0.076,-0.124 0.084,-0.106 0.312,-0.212 0.608,-0.194 0.12,-0.414 -0.002,-0.47 -0.098,-0.262 0.018,-0.302 -0.094,-0.168 -0.398,-0.042 -0.59,-0.234 -0.5,-0.098 -0.334,-0.136 -0.124,-0.104 -0.054,-0.282 0.098,-0.308 0.05,-0.088 0.128,-0.33 -0.218,-0.198 -0.056,-0.096 0.1,-0.158 0.514,-1.044 0.112,-0.146 0.224,-0.018 0.354,-0.128 0.328,-0.058 0.268,0.044 0.198,-0.05 0.174,-0.134 0.148,-0.408 0.122,-0.68 -0.068,-0.554 -0.256,-0.428 -0.07,-0.652 0.118,-0.876 -0.084,-0.728 -0.284,-0.582 -0.29,-0.346 -0.442,-0.164 -0.696,-0.888 -0.212,-0.43 0.038,-0.268 0.184,-0.086 0.056,-0.026 0.444,0.04 0.416,-0.102 0.388,-0.244 0.376,-0.07 0.076,0.012 z" title="Tanzania" id="TZ"></path></svg>