<svg xmlns="http://www.w3.org/2000/svg" width="30.40" height="31.75"><path d="m 24.36,29.14 -0.614,0 -0.998,0 -0.998,0 -0.998,0 -0.998,0 -0.996,0 -0.998,0 -0.998,0 -0.998,0 -0.998,0 -0.998,0 -0.998,0 -0.998,0 -0.996,0 -0.998,0 -0.998,0 -0.998,0 -0.59,0 -0.118,-0.016 -0.082,-0.024 -0.376,0.07 -0.39,0.246 -0.414,0.1 -0.444,-0.038 -0.056,0.026 -0.224,-0.006 -0.324,-0.018 -0.292,0.064 -0.222,0.214 -0.228,0.368 -0.41,0.42 -0.32,0.374 -0.272,0.264 -0.622,0.438 -0.34,0.128 -0.168,-0.02 -0.104,-0.082 -0.196,-0.558 -0.12,-0.09 -1.21,0.288 -0.184,0.004 0.016,-0.174 -0.09,-1.312 -0.01,-0.804 0.158,-0.502 0.092,-0.58 0.01,-0.512 0.222,-0.87 -0.082,-0.522 0.286,-1.83 0.076,-0.298 0.112,-0.884 0.178,-0.272 0.16,-0.106 0.206,-0.542 0.398,-0.868 0.274,-0.446 -0.06,-0.974 0.046,-0.664 0.062,-0.146 0.586,-0.248 0.76,-0.612 0.322,-0.722 0.454,-0.46 0.88,-0.298 0.002,-0.002 2.608,-2.474 1.212,-1.334 0.528,-0.684 0.018,-0.246 0.102,-0.322 -0.212,-0.252 -0.252,-0.228 -0.086,-0.212 -0.216,-0.104 -0.312,0.004 -0.206,-0.154 -0.234,-0.3 -0.234,-0.188 -0.74,0.016 -0.57,-0.308 0.008,-0.418 0.222,-0.824 0.432,-0.944 0.024,-0.26 -0.062,-0.222 -0.104,-0.19 -0.194,-0.188 -0.184,-0.226 0.142,-0.68 0.272,-0.664 0.224,-0.334 0.218,-0.372 -0.062,-0.306 -0.318,-0.152 0.166,-0.298 0.342,-0.502 0.666,-0.508 0.586,-0.34 0.392,-0.002 0.76,0.272 0.688,0.318 0.376,0.016 0.46,-0.132 0.948,-0.566 0.23,0.18 0.276,0.342 0.302,0.568 0.598,0.258 0.286,0.18 0.206,0.052 0.114,-0.046 0.226,-0.446 0.274,-0.242 0.506,-0.306 1.118,-0.246 0.798,-0.074 0.338,-0.052 0.566,-0.144 0.894,-0.458 0.88,0.59 0.956,0.114 0.926,-0.004 0.282,-0.18 0.162,-0.136 0.972,-0.97 1.316,-1.314 0.876,1.85 0.302,0.11 -0.044,0.16 -0.074,0.156 0.574,0.446 0.706,0.234 0.252,0.228 0.022,0.246 -0.238,1.082 0.044,0.308 0.228,1.084 0.42,0.242 0.372,1.092 0.754,0.462 0.108,0.132 0.174,0.528 0.23,0.58 0.18,0.134 0.11,0.034 0.222,0.612 -0.128,0.346 0.174,1.048 0.282,0.936 0.076,1.118 0.002,0.492 -0.01,0.302 -0.062,0.424 -0.134,0.246 -0.24,0.24 -0.268,0.376 -0.232,0.404 -0.146,0.198 0.114,0.604 -0.03,0.158 -0.06,0.076 -0.342,0.092 -0.436,0.162 -0.264,0.16 -0.376,0.308 -0.3,0.33 -0.398,0.974 -0.664,0.76 -0.112,0.25 -0.626,0.452 -0.276,0.558 -0.176,0.684 -0.242,0.49 -0.53,0.674 -0.12,1.064 0.016,2.122 -0.138,2.42 z" title="Uganda" id="UG"></path></svg>