<svg xmlns="http://www.w3.org/2000/svg" width="573.09" height="472.25"><path d="m 157.66,29.6 0,4.68 0,4.618 0,4.556 0,4.498 0,4.44 0,4.382 0,4.328 0,4.274 0,4.222 0,4.172 0,4.124 0,4.074 0,4.028 0,3.982 0,3.938 0,3.894 0,3.852 0,3.81 0,3.77 0,3.73 0,3.69 0,3.654 0,3.618 0,3.582 0,3.546 0,3.51 0,3.478 0,3.444 0,3.414 0,3.38 0,3.35 0,3.32 1.344,0.464 1.332,0.46 0.408,-0.918 1.436,0.704 1.254,0.614 0.8,-0.788 0.866,-0.854 1.168,-0.06 1.31,-0.068 0.874,-0.044 0,0.728 -0.324,1.204 -0.27,1.002 0.796,1.014 0.98,0.532 0.916,0.498 0.412,1.372 1.002,1.056 0.762,0.8 0.732,0.766 1.046,1.092 0.732,0.764 0.976,1.014 0.58,0.602 0.278,1.168 0.334,1.398 -0.206,0.824 0.462,0.132 0.904,-0.924 0.85,-0.574 1.05,-0.71 0.708,-0.48 1.316,-0.024 0.628,-1.398 0.002,-1.97 0.666,0.034 0.392,-0.268 0.172,-0.582 -0.418,-0.796 1.26,-0.372 0.912,-0.27 1.302,-0.734 1.272,-0.718 0.606,0.556 0.6,0.536 1.178,1.29 0.08,0.31 -0.08,0.604 -0.116,0.602 0.716,1.684 0.206,0.188 0.588,0.232 0.702,0.556 0.31,0.48 1.016,0.764 0.172,0.316 0.096,0.512 0.166,0.44 0.19,0.314 0.184,0.448 0.44,0.528 0.838,0.588 0.582,0.408 0.814,0.57 0.824,1.162 0.716004,1.006 0.816,0.992 -0.12,0.79 0.826,1.216 0.87,1.542 0.668,1.362 0.474,0.76 0.57,1.096 0.696,1.338 0.792,1.518 0.606,0.97 0.79,1.354 0.39,0.806 -0.266,0.55 -0.328,0.68 1.016,0.322 0.704,0.222 -0.176,0.752 -0.232,0.992 0.796,0.39 0.54,0.266 -0.112,0.518 0.298,0.584 0.048,0.966 0.97,-0.062 0.428,-0.028 0.58,0.428 0.764,0.564 0.766,0.528 0.654,0.45 0.858,0.266 1.058,0.382 0.52,0.78 0.964,0.334 0.36,1.086 1.114,0.398 0.656,-0.266 0.236,0.442 0.186,0.508 0.05,0.64 -0.062,0.624 -0.278,0.52 -0.21,0.56 -0.14,0.602 -0.054,0.644 0.034,0.688 0.112,0.6 0.342,1.108 0.114,0.678 0.014,0.45 -0.758,1.58 -0.262,0.75 0.024,0.336 -0.552,0.78 -1.014,1.088 -0.46,0.626 -0.228,-0.208 -1.312,-0.162 -0.476,-1.39 -0.252,-1.082 -0.382,-0.944 0.01,-0.214 0.348,-0.632 1.312,-0.52 0.012,-0.208 -0.488,-0.138 -0.118,-0.226 -0.134,-1.03 0.036,-0.906 -0.034,-0.602 -0.218,-1.232 -0.328,-0.756 -0.846,-1.48 -0.072,-0.374 0.372,-0.47 0.232,-0.438 -1.43,0.762 -1.952,0.798 -0.836,0.556 -0.176,0.222 -0.06,0.188 0.152,0.524 -0.024,0.168 -0.17,0.31 -0.202,0.872 -0.424,0.922 -0.214,0.19 -0.762,-0.344 -0.204,-0.294 -0.382,-1.206 0.088,-0.322 0.278,-0.272 0.378,-0.586 0.476,-0.904 0.91,-2.306 0.594,-0.01 1.048,-0.458 -1.644,-0.23 -0.246,-0.12 -0.22,-0.316 -0.196,-0.512 -0.334,-0.57 -0.626,-0.2 -0.274,-0.21 -0.414,-0.694 -0.278,-0.312 -0.152,-0.386 -0.026,-0.46 -0.118,-0.232 -0.43,-0.084 -0.232,-0.158 -0.064,-1.192 -0.856,-0.306 -0.35,-0.264 -0.564,-0.748 -0.156,-0.364 -0.05,-0.304 0.138,-0.828 -0.058,-0.156 -0.5,0.084 -3.1,-1.286 0.164,-1.706 -0.574,-2.262 -0.616004,-0.92 0.122,-0.36 0.132,-0.19 0.276004,-0.004 1.19,0.67 1.12,0.792 0.144,-0.116 -1.79,-1.684 -0.448,-0.504 -0.112,-0.608 -0.006,-0.326 0.142,-0.17 1.678,0.152 0.1,-0.126 -1.702,-0.496 -0.348,0.002 -0.372004,0.712 -0.176,0.168 -0.366,-0.034 -0.124,-0.11 -0.432,-0.862 -0.412,-0.602 -0.766,-0.834 -0.144,-0.596 -0.038,-0.878 0.102,-0.832 0.626,-1.908 0.254,-0.332 0.066,-0.208 -0.194,0.032 -0.184,0.182 -0.518,0.888 -0.534,1.452 -0.436,0.494 -0.274,-0.12 -0.414,-0.59 -0.864,-0.722 -1,-0.186 -0.632,-0.74 -0.934,-2.068 -0.126,-1.034 -0.12,-0.254 -0.506,-0.336 -0.312,-0.498 -0.48,-2.54 -0.634,-1.776 -0.158,-0.942 0.052,-0.936 -0.082,-0.104 -0.218,0.73 -0.056,0.38 -0.4,0.108 0.376,0.738 0.094,0.368 -0.188,-0.03 -0.384,0.092 0.652,1.254 0.292,1.936 0.432,1.428 0.28,1.154 0.126,0.874 0.184,0.834 0.504,1.834 0.068,0.364 -0.06,0.296 -0.166,0.352 -0.288,0.132 -0.904,-0.24 -0.34,-0.452 -0.488,-0.832 -0.684,-0.384 -1.694,0.19 -0.136,-0.064 0.006,-0.68 0.194,-1.214 -0.156,-0.492 -0.876,-1.794 0.014,-0.352 1.216,-0.828 -0.59,-0.062 -0.476,0.324 -0.184,-0.208 -0.288,-1.158 -0.186,-0.432 -0.092,-0.092 -0.052,1.102 0.202,0.578 0.03,0.334 -0.032,0.466 -0.126,0.334 -0.222,0.202 -0.222,0.05 -0.41,-0.232 -0.456,-0.438 -0.398,-0.206 -0.148,-0.174 -0.188,-0.484 -0.308,-0.368 -1.486,-0.466 -0.886,-0.552 -0.074,0.146 0.276,0.588 0.026,0.348 -0.224,0.106 -0.4,0.558 0.116,0.076 0.422,-0.184 0.472,0.022 0.78,0.338 0.708,0.444 0.256,0.248 0.106,0.368 0.088,0.13 0.692,0.428 0.034,0.224 -0.446,0.668 0.92,-0.074 0.534,0.238 0.684,1.032 0.232,0.574 0.032,0.734 -0.142,0.212 -0.272,0.148 -1.868,0.24 -0.674,0.882 -0.14,0.012 -0.514,-0.24 -0.932,-0.704 -1.162,-0.67 -2.65,-1.994 -0.072,-0.094 -0.044,-0.386 -0.182,-0.198 -0.36,-0.168 -0.5,-0.508 -0.638,-0.848 -0.394,-0.664 -0.15,-0.478 -0.372,-0.548 -1.2,-1.146 -0.628,-0.44 -0.554,-0.25 -0.482,-0.054 -0.13,-0.154 0.222,-0.252 0.034,-0.148 -1.064,-0.238 -1.01,-0.54 -2.562,-1.522 -1.324,-0.956 -0.772,-0.458 -0.33,-0.258 -0.146,-0.21 0.186,-0.22 0.516,-0.228 0.35,-0.26 0.552,-0.974 0.042,-0.314 -0.296,-0.71 -0.132,-0.648 0.006,-0.36 0.078,-0.36 0.084,-0.234 0.234,-0.226 0.164,-0.114 0.204,0.078 0.65,0.892 0.092,0.324 -0.03,1.216 0.186,1.418 0.06,-0.104 0.06,-0.468 0.038,-0.896 0.074,-0.432 0.14,-0.42 0.236,-0.222 0.734,0.128 0.338,-0.076 -1.428,-0.644 -0.898,-1.21 -0.162,-0.126 -0.492,-0.054 -0.52,0.49 -1.338,1.594 -0.376,0.28 -1.682,0.88 -1.14,0.176 -1.284,-0.138 -1.094,-0.286 -2.744,-1.392 -0.428,-0.324 0.638,-0.864 0.026,-0.27 -0.222,-0.882 -0.184,-0.252 -0.26,-0.14 -0.074,0.1 -0.002,0.262 0.07,0.486 -0.21,0.256 -0.466,0.276 -0.786,0.28 -2.436,-0.712 -2.496,-0.59 -2.228,-0.122 -3.146,0.47 -1.678,0.472 -0.978,0.046 -0.942,-0.084 -0.078,-0.33 0.43,-0.194 -0.024,-0.24 -0.544,-0.748 -0.826,-0.454 -1.108,-0.16 -0.634,-0.22 -0.16,-0.278 -0.392,-0.264 -0.624,-0.252 -0.274,-0.454 0.218,-1.408 0.212,-0.846 0.212,-0.582 0.536,-0.966 -0.186,0.072 -0.778,0.708 -0.678,0.73 -0.628,0.948 -0.374,0.434 -0.48,0.4 -0.75,-0.094 -1.018,-0.592 -0.872,-0.306 -0.726,-0.018 -0.288,-0.102 0.496,-0.53 0.286,-0.426 0.39,-0.684 0.086,-0.334 -2.662,-0.11 -0.098,-0.362 -0.004,-0.266 -0.084,-0.22 -0.386,-0.164 -0.54,0.126 -0.874,0.428 -0.378,-0.326 0.134,-0.182 0.286,-0.134 0.582,-0.622 -0.786,-0.322 -0.402,-0.37 -0.196,-0.304 0.014,-1.098 0.208,-0.706 1.764,-0.686 -0.558,-0.268 -1.114,0.092 -0.748,0.584 -0.888,0.84 -0.596,0.314 -0.304,-0.212 -0.402,-0.074 -0.5,0.066 -0.336,0.214 -0.172,0.364 -0.2,0.246 -0.226,0.126 -0.164,-0.042 -0.24,-0.372 -0.504,-0.232 -0.248,-0.284 -0.142,0.178 -0.172,0.536 -0.182,0.272 -0.852,0.278 -0.468,-0.052 -0.56,-0.672 -0.08,-0.234 0.19,-0.584 1.23,-2.32 -0.124,0.014 -0.398,0.366 -0.794,0.928 -0.354,0.276 -0.61,0.036 -0.284,-0.1 -0.344,0.076 -0.404,0.248 -0.262,0.272 -0.124,0.294 0.084,0.05 0.608,-0.336 0.346,-0.09 0.096,0.164 -0.474,1.042 -0.288,0.994 -0.274,0.25 -0.436,-0.042 -0.478,0.098 -0.006,0.278 0.89,0.79 0.322,0.112 0.412,0.282 0.064,0.28 -0.156,0.754 -0.116,0.296 -0.188,0.154 -0.726,-0.026 -0.236,0.078 -0.488,0.472 -0.244,0.39 0.088,0.034 0.422,-0.322 0.614,-0.172 0.806,-0.024 0.6,-0.17 0.394,-0.32 0.384,0.09 0.374,0.5 0.112,0.438 -0.152,0.376 -0.308,0.268 -0.466,0.16 -0.294,0.24 -0.124,0.32 -0.07,0.474 -0.016,0.626 0.118,1.126 -0.09,0.152 -0.176,0.084 -0.26,0.014 -0.234,0.264 -0.548,1.492 -0.194,0.162 -0.23,-0.16 -0.204,0.018 -0.178,0.194 -0.39,0.148 -0.602,0.102 -0.516,-0.038 -0.906,-0.322 -0.37,-0.228 -0.288,-0.374 -0.814,0.396 -0.214,-0.172 -0.506,-1.034 -0.11,0.062 -0.098,1.114 -0.154,0.39 -0.502,0.804 -0.274,1.38 -0.084,0.042 -0.094,-0.2 -0.31,-1.234 -0.164,-0.272 -0.454,0.712 -0.05,0.258 0.12,0.918 -0.106,0.138 -0.918,-0.494 -0.226,-0.024 -0.06,0.084 0.314,0.71 -0.036,0.256 -1.3,1.368 -0.338,-0.048 -0.212,-0.136 -0.234,0.022 -0.826,0.508 -0.228,-0.022 -0.312,-0.3 -0.144,0.012 -0.078,0.314 -0.01,0.612 -0.306,0.58 -0.984,0.936 -0.26,0.43 -0.198,0.588 -0.148,0.056 -0.578,-0.378 -0.668,-0.246 -0.092,0.122 0.204,0.358 -0.042,0.22 -0.29,0.082 -0.366,-0.032 -0.444,-0.146 -0.622,0.164 -0.798,0.474 -0.666,-0.014 -0.93,-0.78 -0.256,-0.058 -0.082,-0.22 0.182,-0.632 0.264,-0.48 0.194,-0.22 0.882,-0.616 1.01,-0.226 0.634,-0.372 0.772,-0.766 0.408,-0.576 0.802,-1.49 -0.06,-0.116 -0.18,-0.082 -1.764,1.414 -0.26,0.13 -0.35,-0.01 -1.41,-0.542 -0.298,-0.232 -0.204,-0.68 0.392,-1.552 0.274,-0.752 0.688,-1.164 0.9,-1.246 0.312,-0.81 0.468,-2.176 -0.028,-0.992 -0.21,-1.212 -0.008,-0.722 0.196,-0.228 2.066,-1.128 0.978,-0.848 1.898,-1.256 0.516,0.01 0.38,0.432 0.442,0.346 0.504,0.258 0.648,-0.026 0.792,-0.314 1.256,0.12 2.58,0.826 0.548,0.046 0.022,-0.104 -0.398,-0.578 -1.778,-0.336 -0.75,-0.336 -2.106,-1.482 -0.48,-0.574 0.194,-0.268 0.516,-0.222 0.176,-0.214 0.074,-0.374 0.296,-0.51 0.518,-0.652 0.792,-0.63 1.498,-0.94 -0.586,-0.04 -1.078,0.174 -0.392,0.178 -0.72,0.672 -0.28,0.472 -0.402,0.92 -0.172,0.174 -0.748,0.132 -2.038,0.092 -0.344,-0.47 -0.19,-0.076 -0.252,0.066 -1.872,1.2 -0.67,0.61 -0.478,0.696 -0.74,0.508 -1,0.322 -0.748,0.398 -0.788,0.794 -0.268,0.608 -0.016,0.286 0.192,0.898 -0.196,0.168 -0.454,0.07 -0.73,0.594 -1.542,1.76 -0.202,0.636 0.008,0.218 0.25,0.496 -0.174,0.322 -0.434,0.508 -0.966,0.802 -0.634,0.304 -0.412,0.016 -0.396,-0.114 -0.704,-0.516 -0.57,-0.032 -0.036,0.072 0.776,0.552 0.79,0.708 0.492,0.588 0.194,0.466 0.008,0.48 -0.178,0.492 -0.558,0.854 -0.546,0.254 -1.398,0.256 -0.45,0.204 -0.14,0.158 0.96,0.36 0.086,0.184 -0.132,0.712 -0.254,0.232 -0.8,0.424 -0.716,0.124 -0.11,-0.082 0.134,-0.558 -0.038,-0.138 -0.27,-0.114 -0.382,0.212 -0.954,0.822 -0.102,0.134 0.344,0.22 -0.072,0.182 -0.516,0.588 -0.214,0.392 -0.346,0.398 -1.54,1.216 0.118,0.296 -0.4,1.054 -0.224,0.93 0.272,0.39 1.292,0.456 0.626,0.11 0.738,0.318 1.336,0.856 0.446,0.558 0.066,0.262 -0.042,0.286 -0.16,0.386 -0.418,0.728 -1.01,1.08 -0.456,0.306 -0.69,0.24 -0.226,0.174 -0.886,1.018 -0.24,0.548 0.038,0.478 -0.17,0.334 -1.14,0.656 0.04,0.116 0.414,0.05 -0.152,0.578 -0.068,0.8 -0.198,0.134 -0.712,-0.006 -0.906,0.31 -0.064,0.088 -0.016,0.574 -2.368,0.42 -0.518,1.084 -0.27,0.332 -0.928,0.786 -0.568,0.316 -0.65,0.192 -0.34,0.266 -0.032,0.34 -0.184,0.294 -0.562,0.486 -0.276,0.61 -0.2,0.096 -1.046,0.146 -0.208,0.194 -0.102,0.822 -0.194,0.026 -0.372,-0.192 -0.484,0.148 -1.088,0.928 -0.238,0.334 0.026,0.178 0.168,0.176 0.258,0.55 -0.016,0.37 -0.418,1.03 -0.148,0.16 -0.508,0.254 -0.208,0.568 -0.468,-0.062 -0.378,0.108 -0.248,0.378 -0.268,0.218 -0.29,0.056 -0.366,0.3 -0.438,0.54 -0.408,0.344 -0.374,0.148 -0.364,0.038 -0.354,-0.076 -0.318,0.062 -0.282,0.2 -0.276,0.312 -0.22,0.884 -0.278,0.394 -0.176,0.068 -0.36,-0.058 -0.544,-0.186 -0.552,0.066 -0.892,0.542 -0.284,0.408 0.562,0.09 0.278,0.116 -0.006,0.114 -0.292,0.11 -0.5,-0.008 -0.3,0.094 -0.364,0.232 -0.916,0.25 -0.348,0.178 -0.69,1.016 -0.084,0.23 0.088,0.05 0.388,-0.106 0.456,0.168 0.236,0.214 0.152,0.264 0.144,0.508 0.088,0.076 -0.876,0.852 -0.248,0.362 -0.16,0.134 -0.106,-0.104 -0.108,-0.948 -0.066,-0.162 -0.208,-0.016 -0.2,0.3 -0.438,1.12 -0.478,0.564 -3.59,1.44 -0.516,0.332 -0.102,0.612 -0.148,0.53 -0.238,0.42 -0.278,0.266 -0.06,-0.19 0.028,-1.49 -0.074,-0.296 -0.362,-0.19 -0.16,0.026 -0.218,0.084 -0.36,0.324 -0.22,0.08 -0.274,-0.026 -0.468,0.318 -1.112,1.018 -0.726,0.252 -0.192,0.21 -0.31,0.556 -0.206,0.204 -0.304,0.018 -0.404,-0.166 -0.324,0.118 -0.246,0.404 -0.25,0.16 -0.706,-0.298 -0.312,0.204 -0.404,0.52 -0.422,0.342 -0.44,0.166 -1.144,0.172 -0.46,-0.11 -0.094,-0.15 0.022,-0.662 0.184,-0.478 0.17,-0.226 0.228,-0.2 0.334,-0.024 0.624,0.15 -0.072,-0.16 -0.226,-0.19 -0.574,-0.33 -0.57,-0.168 -0.326,0.108 -0.458,0.252 -0.312,0.292 -0.164,0.332 -0.206,1.08 -0.12,0.292 -1.34,1.894 -0.526,0.582 -0.52,-0.044 -0.252,0.22 -0.354,0.47 -0.328,0.226 -0.3,-0.02 -0.234,-0.09 -0.166,-0.158 0.028,-0.148 0.224,-0.138 -0.08,-0.376 -0.384,-0.62 -0.262,-0.336 -0.498,-0.04 -0.078,0.282 0.168,1.436 -0.026,0.324 -0.31,0.408 -0.816,0.456 -0.254,-0.044 -0.734,-0.898 -0.696,-0.178 -0.046,0.292 0.156,0.598 -0.174,0.556 -0.502,0.518 -0.382,0.25 -0.262,-0.016 -0.014,-0.362 0.234,-0.71 0.06,-0.592 -0.114,-0.476 0.014,-0.364 0.138,-0.254 0.922,-0.708 0.388,-0.106 0.208,0.174 0.258,0.03 0.312,-0.116 0.196,-0.226 0.082,-0.338 0.398,-0.432 0.714,-0.53 0.818,-0.978 0.92,-1.432 1.078,-1.238 1.238,-1.042 1.342,-0.83 2.704,-1.142 0.208,0.07 -0.248,0.372 0.168,0.232 0.266,0.03 0.99,-0.184 0.394,-0.24 0.116,0.232 -0.138,0.292 -0.594,0.296 0.016,0.246 0.866,1.15 0.272,0.174 0.226,-0.022 0.096,-0.148 -0.072,-0.83 0.292,-0.158 0.598,-0.04 0.39,0.108 0.182,0.254 0.342,0.21 0.502,0.168 0.312,-0.052 0.122,-0.27 -0.214,-0.322 -0.962,-0.708 -0.268,-0.296 -0.064,-0.414 0.136,-0.53 0.302,-0.788 0.468,-1.046 0.424,-0.732 0.858,-0.832 0.578,-0.412 1.466,-1.264 2.818,-1.292 0.696,-0.832 0.946,-0.92 0.406,-0.226 0,0.356 0.13,0.318 0.632,0.212 0.412,0.074 0.19,-0.064 0.052,-0.338 -0.084,-0.614 -0.022,-0.58 0.042,-0.546 0.092,-0.432 0.422,-0.77 0.628,-0.878 0.858,-1.022 0.542,-0.464 0.51,-0.248 0.494,-0.448 0.85,-1.062 0.272,-0.174 0.61,-0.21 0.224,0.092 0.13,0.268 0.16,0.166 0.618,0.15 0.412,-0.236 -0.068,-0.126 -0.334,-0.082 -0.214,-0.154 -0.202,-0.634 -0.41,-0.382 -0.092,-0.434 0.074,-0.676 0.352,-1.592 0.058,-1.644 0.314,-0.946 0.63,-0.342 1.398,-0.234 -0.818,-0.428 -0.304,-0.002 -0.532,-0.202 -0.202,-1.036 0.004,-0.754 0.352,-0.876 1.302,-1.482 1.426,-1.03 -0.194,-0.084 -0.176,-0.306 0.658,-2.072 0.642,-1.858 -0.866,1.584 -1.002,1.208 -2.94,1.398 -2,1.168 -0.948,0.278 -0.626,-0.296 -0.488,-1.12 -0.28,-0.4 -0.358,-0.732 0.152,-0.956 0.284,-0.662 0.624,-0.108 0.704,0.32 0.61,0.028 -0.786,-0.654 -1.134,-0.572 -0.514,0.186 -0.394,0.926 -0.526,0.634 -0.462,-0.226 -0.274,-0.258 0.19,0.774 -0.35,1.176 -0.132,0.812 0.5,2.136 -0.092,0.85 -0.91,0.39 -0.742,-0.698 -1.546,-2.704 -0.54,-0.774 -1.212,-1.28 -0.4,0.182 -0.51,0.632 -0.494,0.174 -1.304,-0.932 -0.608,-0.712 -0.574,-0.866 -0.88,0.478 -0.768,0.568 -0.9,0.904 -0.602,-0.008 -1.636,0.774 -0.174,0.016 -0.23,0.416 -0.226,0.186 -0.186,0.8 -2.212,0.62 -2.186,-0.346 0.764,-0.44 0.854,-0.346 0.742,-0.834 -0.316,-1.118 -0.054,-0.57 0.008,-0.722 0.81,-1.016 -0.842,0.002 -0.542,0.364 -0.506,-0.764 -0.238,-1.508 0.58,-0.896 0.268,-0.692 0.228,-0.952 0.016,-0.82 -0.448,-1.392 -1.288,-2.966 -0.586,-2.228 -1.004,-1.192 0.75,-1.96 0.836,-1.794 1.08,-0.806 -0.086,-0.12 -0.596,0.006 -0.392,0.106 -0.346,0.586 -0.366,0.446 -1.142,2.282 -0.736,1.108 -0.478,0.316 0.77,0.428 0.118,0.36 0.148,0.818 -0.198,0.99 -0.198,0.546 -0.908,-0.044 -0.816,0.794 -1.916,0.862 -2.588,0.492 -1.272,-0.058 -1.324,-1.004 0.01,-0.584 0.054,-0.506 -1.902,-1.742 -1.076,-1.744 -0.774,-0.038 -0.672,-0.466 -0.794,-0.726 0.07,-0.586 0.126,-0.414 -0.488,-0.29 -0.624,0.028 -0.726,-0.2 1.896,-2.272 0.652,-1.53 0.532,-0.218 0.69,0.236 0.952,0.604 0.802,0.266 0.29,0.284 0.296,0.534 -0.312,0.894 -0.286,0.626 0.352,-0.168 0.998,-0.97 0.744,-0.854 0.356,0.088 0.232,0.15 0.414,0.88 0.512,0.894 1.13,-0.852 0.604,-1.064 -0.51,-0.466 -0.624,-0.278 -1.592,-0.362 0.388,-0.306 1.022,0.034 0.384,-0.292 -0.404,-0.406 -0.506,-0.364 -1.378,1.21 -2.508,-0.06 -1.752,-0.708 -1.75,0.124 -0.276,-0.14 -0.34,-0.378 0.986,-0.902 0.698,-0.5 0.038,-0.29 -0.406,-0.036 -0.762,0.24 -0.34,-0.416 0.056,-0.724 -0.126,0.066 -0.302,0.396 -0.426,-0.196 -0.37,-0.34 0.192,-0.348 0.376,-0.48 -0.166,-0.072 -0.336,0.102 -0.328,0.626 0.072,0.506 -0.008,0.726 -0.56,0.132 -0.48,-0.086 -0.346,-0.73 -0.3579992,-1.568 -0.968,-0.418 -0.238,-0.796 0.612,-1.026 -0.27,-0.53 -0.652,-0.172 -0.744,0.518 -0.33,-0.46 -0.06,-0.506 -0.026,-0.728 0.208,-0.078 0.172,0.144 1.494,-0.404 0.144,-0.198 -1.184,-0.618 -0.33,-0.65 0.49,-0.37 0.884,-0.032 1.2399992,-0.386 -0.5219992,-0.692 -0.11,-0.38 -0.104,-0.624 0.206,-1.062 1.4579992,-2.446 1.42,-2.052 0.442,-0.474 0.65,-0.256 0.606,0.198 0.632,0.442 0.12,-0.19 -0.214,-0.18 -0.27,-0.844 0.878,-0.332 0.514,-0.956 0.038,-0.278 -0.558,0.398 -0.582,0.654 -0.146,-0.658 -0.15,-1.516 0.256,-1.438 0.2,-0.648 0.486,-0.616 1.4,-0.248 0.248,0.124 0.05,-0.292 -0.842,-0.912 0.346,-0.714 0.304,-0.372 1.692,-0.58 0.924,0.18 1.16,0.676 0.674,0.84 -0.098,0.43 -0.166,0.25 -0.348,0.278 -0.13,0.216 0.062,0.172 0.498,-0.5 0.814,-0.608 0.456,0.264 0.36,0.48 0.398,-0.008 1.266,-0.412 0.642,-0.436 0.786,-1.138 1.044,-0.736 1.47,-2.336 0.432,-0.962 0.502,-0.148 0.454,0.084 0.316,0.79 0.462,0.23 2.63,-0.192 1.344,-0.362 0.934,-0.766 0.972,-1.294 0.562,-0.87 0.27,-1.136 -0.348,-1.476 -0.356,-1.23 -0.468,-2.828 -1.306,-1.88 -0.928,-0.564 -0.59,0.08 0.426,-1.206 1.244,0.13 0.81,-0.236 0.656,-0.582 0.214,-0.442 0.324,-0.904 -0.112,-0.966 -0.174,-0.526 -0.452,-0.58 -0.538,-0.85 -0.376,-0.284 -0.318,0.018 -1.568,1.706 -0.942,0.032 -0.704,-0.312 -0.612,0.968 -1.706,0.848 -0.912,0.854 -1.69,2.112 -0.422,0.952 -0.54,0.042 -0.39,-1.848 -1.838,-1.772 -0.556,0.604 0.306,0.556 0.416,0.396 0.686,0.172 -0.296,0.536 -0.224,0.712 -0.688,-0.668 -1.23,-0.972 -1.274,-0.502 -3.316,0.056 -2.176,0.998 -0.2,-0.208 -0.21,-0.082 -0.364,0.238 -0.156,0.406 -0.238,0.254 -0.444,0.09 -0.896,-0.15 -1.728,-0.62 -3.9099992,-0.912 -1.024,-0.562 -0.876,-1.342 0.018,-0.914 0.39,-0.388 -0.038,-1.314 -0.76,-0.35 -1.55,-1.9 -0.57,-0.812 0.124,-0.09 0.278,0.22 0.53,0.166 1.3,-0.264 0.446,-1.238 0.964,-0.354 0.888,0.174 -0.2,-0.336 -0.226,-0.264 -2.312,-0.634 -0.314,0.194 -4.146,-1.128 -3.274,-1.968 -0.268,-0.378 -0.298,-0.844 0.442,-0.836 0.444,-0.396 0.02,0.46 0.072,0.452 1.876,-1.05 0.982,-1.382 1.858,-0.244 0.432,-0.382 0.578,-0.746 0.824,-1.278 1.166,-0.674 0.794,-0.606 1.034,-0.36 0.882,0.598 0.272,0.082 1.6,0.122 0.5259992,-0.258 0.224,-0.192 0.168,-0.304 -1.5719992,-1.084 0.16,-0.604 0.2,-0.426 1.8339992,-1.27 1.41,-0.42 0.754,0.03 2.188,-1.648 1.198,-0.472 2.258,-0.314 1.856,-0.082 0.502,0.59 -0.998,-0.124 -0.438,0.108 0.312,0.202 0.352,0.43 -0.102,0.542 -0.612,1.602 0.05,1.278 -0.398,0.414 -0.386,0.582 1.9,1.826 2.94,0.116 1.6,-0.33 0.924,0.544 0.756,0.124 2.092,-0.28 1.576,0.388 0.658,-0.148 1.458,-2.73 0.57,-0.43 0.62,0.476 0.808,0.386 0.516,-0.28 0.42,0.706 -0.198,-1.472 -0.286,-0.554 -2.38,-1.018 -1.592,0.506 -0.498,-0.574 0.166,-1.14 -1.704,-2.824 -0.71,-0.576 -0.84,-0.028 -0.428,-0.988 -0.358,-1.272 0.724,-0.522 0.656,-0.236 0.606,0.412 0.686,1.672 0.638,0.246 -0.186,1.658 0.792,1.522 1.788,1.408 1.432,-0.518 1.012,0.016 0.604,0.296 1.48,1.26 0.752,0.158 2.35,-0.66 0.024,-1.24 -0.198,-0.9 -0.552,-0.566 -1.588,0.106 -1.236,-0.932 -1.052,0.256 -1.946,1.426 -0.974,-0.56 -0.612,-0.762 -0.988,-0.776 -0.124,-1.472 0.828,-1.696 0.612,-0.81 -0.548,-0.592 -1.378,-0.416 -2.392,0.426 -0.112,-0.582 0.012,-0.628 -0.974,1.23 -1,-0.258 -1.348,0.132 -2.976,-1.084 -1.06,-1.342 -0.444,-1.092 -0.802,-3.012 -1.024,-1.896 -7.078,-6.522 -3.2199992,-1.658 -1.55,-1.844 -0.972,-0.456 -0.928,-0.186 -1.19,-0.598 0.8,-0.736 0.55,-0.25 -0.572,0.77 0.434,0.194 0.692,-0.444 0.374,-0.532 0.548,-2.266 0.566,-3.456 -0.152,-1.37 3.9259992,0.276 2.614,-0.232 0.866,-0.312 3.296,-0.53 0.854,-0.384 1.584,-1.182 1.866,-2.098 1.6,-2.776 0.254,-0.75 0.102,0.192 0.144,-0.12 0.17,-1.06 0.21,-2.506 0.794,-2.382 3.378,-5.49 1.568,-2.2 0.522,-1.004 0.544,-0.734 0.384,0.698 0.182,0.208 0.106,0.328 -0.322,0.152 -0.524,0.712 -0.732,0.476 -0.176,0.244 0.43,-0.054 1.286,-0.518 0.726,-0.628 3.608,-1.166 1.956,-1.934 0.076,-0.432 2.902,-2.436 0.402,0.094 0.462,0.294 -0.804,1.608 0.566,0.42 -0.502,1.91 1.052,0.03 0.236,0.876 0.058,-0.754 -0.012,-1.084 0.084,-1.068 0.156,-0.74 0.74,0.334 1.666,-0.796 -2.018,-0.1 -1.21,-1.748 -0.672,-0.014 2.25,-2.58 2.056,-1.568 0.464,0.03 0.224,0.292 0.048,0.474 -0.444,0.308 -0.436,0.556 0.2,0.49 0.298,0.07 0.988,-0.402 0.442,-0.504 2.106,0.044 0.618,-0.36 0.148,-0.358 2.728,-0.072 0.5,-0.252 1.706,-1.392 1.578,-1.694 0.726,-0.928 1.246,-2.376 1.068,-1.554 1.756,-1.558 0.42,0.194 -0.57,0.31 -0.396,0.66 0.546,0.876 3.698,1.798 0.93,0.098 0.372,1.072 -0.31,1.03 -0.954,1.14 -1.92,1.164 0.588,0.438 0.384,1.032 0.568,0.126 0.922,-0.388 0.722,-0.634 1.494,-2.074 0.47,-1.162 0.352,-0.294 1.252,0.28 0.708,0.598 0.808,1.058 -0.296,1.02 -0.33,0.574 1.046,0.792 1.16,0.166 1.106,0.636 1.554,-1.302 1.218,-0.278 1.142,0.042 1.486,-0.712 2.514,0.97 0.64,-0.252 1.008,0.168 1.072,0.584 0.378,0.622 -1.148,1.314 -0.186,1.35 0.4,0.562 0.726,0.096 0.092,0.786 0.452,0.196 2.268,-0.058 -0.174,0.374 -0.11,0.45 -0.702,0.994 4.042,0.558 0.542,-0.55 0.836,-0.218 1.776,-0.76 0.668,0.332 0.788,0.776 0.728,0.162 0.68,-0.158 1.584,-1.108 1.83,-0.054 0.75,0.362 0.792,-0.158 2.384,1.268 0.878,0.148 1.174,1.642 0.606,0.048 0.686,-0.696 0.596,0.022 0.582,0.666 0.952,0.204 0.444,1.048 0.478,0.38 3.606,0.776 1.786,-0.354 2.602,0.092 1.254,0.496 1.316,-0.064 2.15,1.798 1.14,0.28 0.222,0.414 3.246,0.436 1.136,-0.934 1.98,-0.248 1.782,-0.788 1.01,0.008 1.176,0.196 0.452,-0.094 0.326,-0.344 2.866,1.356 1.604,1.544 0.702,1.136 3.356,1.618 0.97,0.902 0.664,0.992 0.39,0.106 0.274,-0.29 1.172,0.084 0.428,0.144 z m -140.9299992,51.212 -0.216,0.078 0.012,-0.212 0.64,-0.566 1.18,-0.702 -0.044,0.152 -0.63,0.544 -0.942,0.706 z m 102.0399992,68.148 -0.71,0.094 -0.326,-0.146 -0.046,-0.158 0.134,-0.582 -0.01,-0.246 0.358,-0.092 0.412,0.276 0.12,0.286 0.068,0.568 z m -22.958,5.3 -0.27,0.042 0.362,-0.56 0.252,-1.094 0.338,0.152 0.068,0.2 -0.558,1.122 -0.192,0.138 z m 24.486,-1.006 -0.002,0.298 -0.176,0.288 0.168,0.526 -0.292,0.902 -0.112,0.572 -0.156,0.36 -0.156,0.138 -0.158,-0.082 -0.034,-0.198 0.092,-0.316 -0.37,0.01 -0.114,-0.788 0.206,-0.25 0.074,-0.336 0.024,-0.228 0.242,-1.006 0.086,-0.07 0.028,0.24 0.078,0.07 0.128,-0.098 0.192,-0.448 0.082,-0.052 0.17,0.468 z m 7.098,0.01 0.126,0.312 1.08,-0.076 0.31,0.056 0.124,0.144 -0.146,0.21 -0.416,0.278 -1.216,0.488 -0.988,0.64 -0.128,-0.06 -0.18,-0.7 -0.182,-0.284 -0.112,-0.396 0,-0.148 0.182,-0.274 0.362,-0.4 0.256,-0.144 0.928,0.354 z m 7.158,1.276 -0.18,0.276 -0.49,-0.098 -0.262,-0.176 0.876,-0.728 0.144,0.146 -0.088,0.58 z m -117.9679992,-0.526 0.516,0.562 0.274,0.032 0.864,-0.17 0.318,0.12 0.306,0.242 0.19,0.37 0.036,0.648 -0.14,0.578 0.042,0.814 -0.03,0.35 0.4579992,0.46 0.144,0.622 0.074,0.668 -0.9959992,0.222 -0.996,0.036 -0.86,0.452 -0.176,0.334 0.138,0.494 -0.236,0.126 -0.218,-0.108 -0.416,-0.458 -0.456,-0.218 -1.598,-0.338 -2.006,-1.334 -0.864,-0.276 -0.876,-0.98 -0.792,-1.25 0.516,-0.202 0.52,-0.102 2.332,0.186 0.292,-0.898 0.3,-0.224 0.74,-0.254 0.692,-0.5 0.31,0.012 0.316,0.192 0.656,-0.298 0.348,-0.064 0.278,0.154 z m 103.2779992,6.41 -0.62,0.162 -0.146,-0.33 0.326,-0.822 0.26,-0.466 0.194,-0.11 0.712,-0.93 0.79,-0.678 0.726,-0.994 0.736,-1.422 0.136,-0.532 0.342,-0.056 0.562,0.35 0.348,0.492 -0.162,0.39 -1.862,2.016 -0.156,0.262 -0.168,0.682 -0.154,0.238 -0.246,0.108 -0.178,0.296 -0.112,0.486 -0.23,0.254 -0.348,0.022 -0.24,0.134 -0.134,0.246 -0.376,0.202 z m -1.606,-2.82 -0.294,0.344 -1.11,-0.208 0.23,-0.678 0.848,-0.428 0.928,0.666 -0.602,0.304 z m 19.4,2.764 -0.27,0.064 0.404,-0.732 0.542,-0.81 0.51,-0.508 0.664,-0.212 -0.074,0.37 -0.866,0.684 -0.91,1.144 z m -91.79,13.584 -0.412,0.172 -0.436,-0.086 -0.344,-1.066 0.264,-0.034 0.552,-0.704 1.222,-0.57 0.3,-0.064 -1.146,2.352 z m 47.334,0.988 -0.166,0.068 -0.41,-0.328 -0.27,-0.348 0.178,-0.266 0.794,-0.56 0.38,-0.01 0.156,0.088 0.062,0.174 -0.03,0.258 -0.17,0.322 -0.524,0.602 z m 0.386,1.334 0.204,0.086 0.212,-0.636 0.15,-0.02 0.664,0.538 0.408,-0.12 0.262,0.662 0.236,0.06 0.218,-0.08 0.132,0.046 -0.046,0.698 -0.486,0.706 -0.226,0.178 -0.316,-0.182 -0.118,-0.068 -0.208,-0.312 -0.158,-0.394 -0.094,-0.006 -0.37,0.464 0.008,0.23 0.154,0.344 -0.022,0.214 -0.404,0.102 -0.396,-0.054 -0.484,0.3 -0.116,-0.186 -0.074,-0.526 -0.15,0.06 -0.228,0.644 -0.25,0.408 -0.454,0.338 -0.1,0.164 -0.332,0.022 -0.492,0.212 -0.304,-0.036 -1.812,-0.698 -0.426,-0.256 1.49,-1.606 0.784,-0.624 0.454,0.034 0.454,0.194 0.24,-0.032 0.018,-0.714 -0.422,-0.534 0.016,-0.222 0.934,-0.366 0.35,0.052 0.386,0.188 0.366,0.304 0.348,0.424 z m 99.556,2.114 1.426,0.242 1.044,-0.054 0.954,1.584 0.586,1.274 0.344,0.89 0.196,0.858 0.262,0.826 -0.024,0.116 -0.55,-0.556 -0.396,-1.13 -0.202,-0.442 -0.2,-0.2 -0.21,-0.418 -0.41,-1.084 -0.014,-0.306 -0.182,-0.284 -0.21,-0.118 -0.238,0.046 -0.082,0.11 0.036,0.75 0.188,0.832 1.03,1.812 0.688,1.028 0.136,0.34 0.09,0.936 -0.296,0.422 0.364,0.86 -0.014,0.168 -0.08,0.164 -0.98,0.38 -0.898,1.586 -0.984,0.926 -0.454,0.148 -0.218,-0.154 -0.206,-0.354 -0.122,-0.474 -0.036,-0.594 0.246,-0.376 0.486,-1.956 0.014,-0.644 -0.606,-0.896 -0.366,-0.734 -0.198,-1.026 -0.332,-2.728 -0.154,-0.876 -0.216,-0.732 -0.28,-0.586 -0.21,-0.646 -0.144,-0.706 0.054,-0.274 0.486,0.368 0.584,1.012 0.298,0.67 z m 2.062,-0.714 -0.04,0.264 -0.766,-0.026 -0.772,-0.388 -0.38,-0.51 0.076,-0.23 0.718,-0.214 0.68,0.484 0.484,0.62 z m -7.956,-0.164 0.802,1.036 0.006,0.238 -0.164,0.71 -0.436,0.2 0.124,0.282 0.324,0.212 0.232,-0.176 0.846,-0.994 0.26,-0.208 0.158,-0.022 1.032,0.3 0.902,0.474 0.266,0.378 0.15,0.662 -0.24,1.428 -0.74,0.248 -0.35,-0.026 -0.374,-0.208 -0.602,0.496 0.5,0.378 1.52,0.086 0.46,0.8 0.132,0.616 -0.328,1.128 -0.862,-0.312 -0.76,-0.654 -1.558,-0.928 -0.374,-0.042 -0.25,0.164 -0.068,0.562 0.016,1.216 -0.416,0.63 -1.228,-0.278 -0.482,-0.92 -0.45,-1.46 -1.694,-1.738 -0.458,-0.348 -0.61,-1.044 0.244,-0.83 0.072,-0.48 0.326,-0.128 0.476,-0.372 0.266,-0.806 0.428,0.652 0.572,0.626 0.008,-0.588 0.27,-0.47 0.562,0.018 0.264,-0.098 0.368,-0.44 0.532,-0.228 0.326,0.258 z m -96.362,4.448 0.04,0.578 0.228,-0.07 0.864,-0.594 0.45,-0.174 0.586,-0.028 0.464,0.272 0.094,0.208 -0.042,0.248 -0.372,0.502 0.016,0.326 0.4,0.6 0.982,0.326 0.12,0.18 -0.004,0.216 -0.676,0.99 -0.248,0.23 -0.176,0.056 -1.228,-0.178 -1.124,-0.324 -0.454,-0.056 -0.162,0.106 -0.318,0.304 0.228,0.09 0.984,0.072 0.348,0.442 0.152,0.326 0.076,0.358 -0.196,0.146 -0.42,0.108 -0.504,-0.002 -0.624,0.402 -0.344,0.46 -1.25,0.116 -0.952,0.612 -0.334,0.302 -0.118,0.36 -0.36,0.26 -0.81,0.262 0.484,0.234 0.076,0.198 0.008,0.274 -0.066,0.236 -0.64,1.05 -1.208,0.862 -0.306,-0.04 -0.132,-0.108 -0.108,-0.164 -0.004,-0.166 1.558,-1.732 -0.062,-0.084 -0.424,-0.058 -0.67,-0.478 -0.474,0.308 -0.108,-0.012 0.126,-0.41 0.308,-0.488 -0.054,-0.138 -0.17,-0.122 -0.39,-0.074 -0.612,-0.024 -0.454,0.116 -0.294,0.256 -0.024,0.108 0.626,-0.03 0.17,0.13 0.168,0.242 0.102,0.28 0.038,0.318 -0.132,0.426 -0.298,0.534 -0.438,-0.094 -0.898,-1.19 -0.396,-1.748 -0.768,-1.34 -0.034,-0.322 0.218,-0.83 0.774,-1.182 0.832,-0.324 0.592,-0.498 0.574,-0.15 0.354,0.012 0.486,0.214 0.196,0.454 -0.118,0.212 0.044,0.112 0.34,0.272 0.368,0.95 0.428,0.84 0.286,0.34 0.376,0.21 -0.388,-0.64 -0.23,-0.794 -0.116,-1.588 -0.112,-0.422 0.218,-0.112 0.614,0.062 -0.016,-0.238 -0.648,-0.538 -0.398,-0.446 -0.15,-0.352 0.008,-0.306 0.354,-0.452 0.2,-0.128 0.208,-0.056 0.412,0.096 0.184,0.142 0.528,1.016 0.248,0.316 0.206,0 0.19,-0.168 0.176,-0.336 0.182,-0.202 0.186,-0.066 0.588,0.15 0.196,-0.056 0.096,-0.254 -0.004,-0.456 0.146,-0.164 0.036,-0.336 -0.32,-0.496 0.368,-0.152 1.22,0.378 0.522,0.414 -0.27,0.77 z m -1.922,-0.274 -0.158,0.292 -0.148,-0.076 -0.314,-0.342 -0.64,-0.5 -0.292,-0.342 -0.018,-0.146 0.22,-0.162 0.752,0.404 0.32,0.368 0.278,0.504 z m 102.554,5.214 0.476,1.138 0.346,0.88 0.308,1.056 0.514,2.178 0.24,0.82 0.076,0.448 0.056,1.17 -0.078,0.252 -0.154,0.23 -0.03,0.334 0.142,0.888 0.008,1.346 -0.134,0.756 -0.158,0.114 -0.384,-0.248 -0.316,-0.41 -0.232,-0.426 -0.574,-1.35 -0.17,-0.63 -0.01,-0.454 0.088,-0.332 0.188,-0.206 0.326,-0.552 -0.046,-0.088 -0.248,0.124 -0.506,0.07 -0.446,-0.436 -0.348,-0.23 0.07,-0.788 -0.092,-0.222 -0.684,0.244 -0.256,-0.22 -0.056,-0.296 0.012,-0.442 0.13,-0.388 0.648,-0.982 -0.066,-0.182 -0.316,-0.04 -0.416,-0.336 -0.19,-1.104 -0.448,-0.63 -0.264,0.058 -0.6,1.78 -0.296,0.388 -0.844,0.25 0.172,-0.494 0.08,-0.442 -0.3,-1.342 -0.008,-0.518 0.2,-0.382 0.596,-0.16 0.316,-0.226 0.246,-0.37 0.062,-0.36 0.462,-0.956 0.216,-0.186 0.576,0.012 1.21,1.058 0.368,0.156 0.538,0.678 z m -101.244,2.346 -0.714,0.332 -0.126,-0.014 -0.44,0.672 -0.336,0.29 -0.444,-0.53 0.114,-0.824 0.388,-0.548 1.964,0.184 0.152,0.154 0.004,0.13 -0.144,0.108 -0.418,0.046 z m 110.244004,1.25 0.374,0.322 0.204,-0.338 0.378,0.016 0.704,0.3 0.418,0.45 0.236,0.514 0.02,0.306 -0.072,0.694 0.052,0.71 -0.03,0.368 -0.094,0.304 -0.158,0.24 -0.172,0.03 -0.546,-0.636 -0.626,-1.15 -0.476,-0.35 -0.02,0.12 0.13,0.33 0.39,0.62 0.07,0.372 0.274,0.454 0.122,0.342 0.07,0.45 -0.002,0.392 -0.076,0.336 -0.126,0.214 -0.178,0.094 -0.956,-0.094 -0.57,0.224 -0.666004,-0.126 -0.16,-0.204 -0.1,-0.332 -0.05,-0.808 -0.168,-1.16 0.04,-0.894 -0.43,-0.81 -0.368,-0.49 -0.53,-0.438 -0.348,-0.436 0.096,-0.348 0.542,-0.26 0.888,0.062 1.914004,0.61 z m -3.498004,1.626 0.364,0.708 0.528,-0.058 0.296,0.536 0.224,0.8 -0.164,0.512 -0.234,-0.114 -0.26,0.296 -0.16,0.982 0.074,0.982 -0.08,0.976 -0.302,0.992 -0.062,0.664 -0.118,0.198 -0.13,0.068 -0.168,-0.18 -0.244,-0.14 -0.308,0.558 -0.376,0.004 -0.312,-1.27 0.278,-2.124 0.624,-0.434 -0.372,-0.58 -0.784,-0.676 0.066,-0.376 -0.596,-1.09 -0.034,-0.26 0.094,-0.912 0.556,-0.816 0.736,-0.144 0.514,0.35 0.288,0.298 0.062,0.25 z m 6.974004,3.256 -0.06,0.148 -0.714,-0.014 -0.258,-0.122 -0.096,-0.434 0.066,-0.402 0.166,-0.312 0.202,-0.602 0.158,-1.004 1.046,1.124 0.322,0.5 0.172,0.61 -0.372,0.228 -0.45,0.11 -0.182,0.17 z m -120.464004,0.11 -0.276,0.022 -0.416,-0.268 0.056,-0.322 0.592,-0.388 0.598,0.06 0.044,0.216 -0.028,0.244 -0.048,0.14 -0.19,0.146 -0.332,0.15 z m -2.662,0.802 -0.384,0.24 -0.126,-0.084 -0.018,-0.198 0.09,-0.316 0.178,-0.316 0.592,-0.6 0.596,-0.398 0.304,0.024 0.104,0.254 -0.372,0.526 -0.964,0.868 z m 126.688004,3.292 -0.116,1.666 -0.222,-0.094 -0.212,-0.002 -0.432,0.236 -0.456,-0.104 -0.214,-0.184 -0.078,-0.214 0.082,-0.496 -0.252,-0.276 -0.852,-0.1 -0.32,-0.118 -0.176,-0.522 -0.042,-0.684 0.134,-0.256 0.43,-0.18 0.334,-0.834 0.186,-0.112 0.708,-1.656 0.356,0.116 0.622,1.008 0.78,1.452 -0.26,1.354 z m -3.746,-1.386 -0.288,0.032 -0.34,-0.154 -0.806,-0.822 -0.014,-0.242 0.116,-0.276 0.458,-0.504 0.188,-0.122 1.1,0.054 0.352,0.134 0.08,0.236 -0.018,0.24 -0.116,0.242 -0.026,0.252 0.062,0.264 -0.128,0.262 -0.62,0.404 z m -4.414,-0.928 1.064,0.216 0.974,-0.022 0.334,0.416 0.22,0.438 0.128,0.412 0.036,0.386 -0.026,0.272 -0.118,0.292 0.026,0.098 1.904,0.954 0.898,1 0.358,0.524 0.208,0.442 0.376,1.106 0.792,1.28 0.416,0.388 0.236,0.378 -0.132,0.014 -0.558,-0.28 -1.208,-0.856 -0.1,0.034 -0.11,0.464 -0.188,0.406 -0.278,0.292 0.222,0.086 0.974,-0.184 0.82,0.832 0.318,0.15 0.308,0.596 0.01,0.228 -0.18,0.44 -0.138,0.18 0.046,0.122 0.228,0.062 0.904,-0.124 0.162,0.216 -0.134,1.712 0.128,0.628 -0.002,0.286 -0.104,0.378 -0.004,0.32 0.082,0.328 0.01,0.292 -0.23,0.762 -0.242,0.128 -0.39,0.006 -0.308,-0.216 -0.432,-0.656 -0.42,-1.02 -0.162,-0.146 -0.552,-0.154 -0.1,-0.122 -0.352,-0.022 -0.25,-0.42 0.03,-0.552 -0.216,-0.566 0.026,-0.252 -0.242,-0.106 -0.204,0.16 0.106,0.554 -0.12,0.428 -0.438,-0.18 -0.732,-1.372 -0.832,-1.104 -0.326,-0.262 0.086,-0.322 0.41,-0.17 0.332,0.014 0.068,-0.192 -0.694,-1.072 0.024,-0.304 0.252,-0.542 -0.316,-0.226 -0.866,0.17 -0.306,-0.114 -0.25,-0.436 -0.146,-0.378 -0.75,-0.068 -0.284,0.046 -0.490004,-0.574 -0.222,-0.362 0.088,-0.186 0.45,-0.326 0.264004,0.046 0.506,0.348 0.198,-0.012 0.502,-0.462 0.076,-0.416 0.376,-0.344 -0.06,-0.362 -0.208,-0.618 -0.46,-0.172 -0.94,0.368 -0.818004,0.566 -0.328,-0.22 -0.072,-0.346 0.876,-0.944 0.384004,-0.522 -0.074,-0.31 -0.282004,-0.402 -0.024,-1.006 0.182,-0.24 z m 14.52,8.496 -0.196,1.084 -0.386,1.106 -0.59,0.594 -0.416,-0.132 -0.306,-0.48 -0.284,0.026 -0.302,-0.098 -0.17,-0.398 0.16,-0.514 -0.142,-0.398 -0.15,0.348 -0.266,0.318 -0.67,0.416 -0.462,0.792 -0.218,0.516 -0.272,-0.562 -0.174,-1.334 -0.022,-0.568 0.486,-0.858 0.628,-0.816 0.126,-2.446 1.996,-1.236 0.186,0.064 0.648,0.922 0.69,1.286 0.178,0.578 0.004,1.006 -0.076,0.784 z m -138.006004,-3.296 -0.218,0.314 -0.426,-0.022 -0.238,-0.102 -0.08,-0.276 0.656,-0.832 0.15,-0.112 0.118,0.032 0.052,0.344 -0.014,0.654 z m 124.952004,2.756 0.124,0.278 0.008,0.176 -0.812,0.656 -0.014,0.136 -0.19,0.404 -0.17,0.148 -0.302,0.438 -0.578004,0.472 0.086,-1.418 -0.574,-0.826 0.578,-0.418 0.378004,0.12 0.628,0.048 0.612,-0.364 0.226,0.15 z m -153.684004,2.26 0.086,0.006 0.172,-0.076 0.364,-0.554 0.12,-0.024 0.002,0.17 -0.172,0.548 0.292,0.732 0.272,0.35 -0.028,0.124 -0.682,0.252 -0.52,-0.182 -0.274,0.064 -0.25,0.254 -0.17,-0.282 -0.118,-1.35 0.04,-0.236 0.284,-0.47 0.366,-0.212 0.158,0.062 0.132,0.188 0.034,0.196 -0.108,0.44 z m 1.996,-0.226 -0.078,0.776 -0.772,-0.494 -0.206,-0.246 0.138,-0.182 0.734,-0.046 0.184,0.192 z m 154.172004,4.34 0.138,0.132 0.14,-0.092 0.228,-0.346 0.402,0.068 0.292,0.116 0.178,0.144 -0.094,0.504 -0.072,0.82 -0.166,0.29 -0.164,0.408 -0.57,-0.242 -0.462,-0.52 -0.67,-0.896 -0.374,-0.648 -0.03,-0.274 -0.236,-0.198 -0.46,-1.12 -0.26,-0.888 -0.414,-0.102 -0.522,-0.248 -0.202,-0.488 0.14,-0.428 0.744,-0.216 1.118,1.1 0.17,0.466 0.4,0.544 0.076,0.758 0.204,0.296 0.466,1.06 z m -151.610004,-2.288 -0.342,0.214 -0.108,0.272 -0.26,0.116 -0.218,0.222 -0.736,1.004 -0.322,0.184 0.356,-0.856 0.056,-0.272 0.006,-0.182 -0.11,-0.648 0.214,0.028 0.176,-0.134 0.356,-0.576 0.32,-0.05 0.344,-0.686 0.186,-0.054 0.092,0.092 -0.152,0.416 0.33,0.382 -0.084,0.37 -0.104,0.158 z m 160.156004,0.48 0.574,1.274 0.03,0.446 -0.546,0.156 -0.43,-0.064 -0.222,-0.146 -0.058,-0.208 0.14,-0.644 -0.284,-0.378 -0.328,-0.13 -0.292,0.222 -0.016,-0.636 0.22,-0.458 -0.122,-0.622 -0.004,-0.47 0.074,-0.15 0.296,0.014 0.606,0.486 0.362,1.308 z m -158.148004,-0.706 -0.03,0.78 -0.082,0.122 -0.15,-0.208 -0.316,0.232 -0.172,-0.168 0.074,-0.272 -0.024,-0.212 0.234,-0.018 0.056,-0.388 -0.042,-0.164 0.116,-0.35 0.166,-0.082 0.17,0.728 z m 0.86,1.754 -0.182,0.05 -0.15,-0.106 -0.208,-0.554 -0.018,-0.234 0.402,0.174 0.152,0.404 0.004,0.266 z m -23.092,-0.08 0.544,1.61 0.236,0.314 0.35,0.17 0.492,0.172 0.292,0.238 0.256,0.362 0.034,0.166 -1.542,-0.646 -0.97,0.944 -0.292,0.124 -2.752,0.044 -0.55,0.174 -0.356,0.306 -0.628,0.858 -0.32,0.334 -0.336,0.198 -0.714,0.22 -0.858,-0.03 -0.448,-0.112 -0.24,-0.408 -0.212,-0.804 0,-0.224 0.09,-0.386 0.764,-0.532 0.254,-0.282 0.99,-1.834 0.288,-0.252 0.304,-0.062 0.846,0.128 0.722,-0.538 1.556,-0.82 0.342,-0.098 1.12,-0.018 0.306,0.128 0.236,0.23 0.196,0.326 z m 6.612,1.302 -0.134,0.044 -0.386,-0.298 -0.14,-0.222 -0.102,-0.348 0.788,-0.5 0.164,-0.006 0.148,0.282 0.026,0.22 -0.218,0.632 -0.146,0.196 z m -1.438,4.312 -0.486,0.21 -0.516,-0.22 -0.442,-0.406 -0.05,-0.484 0.984,0.314 0.21,0.148 0.3,0.438 z m -16.878,2.538 -0.246,0.072 -0.058,-0.098 -0.03,-0.42 -0.188,-0.668 0.358,-0.242 0.224,-0.056 0.094,0.102 0.258,0.5 0.258,0.132 0.19,0.106 -0.334,0.152 -0.526,0.42 z m -1.5719992,0.63 -0.212,0.168 -0.17,0.036 -0.128,-0.094 -0.586,0.114 -0.114,-0.068 -0.258,-0.57 -0.016,-0.294 0.102,-0.232 0.26,-0.212 0.42,-0.19 0.414,0.04 0.72,0.526 0.338,0.308 0.064,0.19 -0.252,0.18 -0.582,0.098 z m -4.344,1.616 0.242,0.452 0.418,-0.286 0.308,-0.392 0.24,-0.506 0.156,-0.2 0.206,0.268 0.588,0.364 -0.496,0.56 -0.952,0.836 -0.32,0.56 -0.02,0.242 0.924,-0.184 0.258,0.026 0.164,0.192 -0.252,0.226 -0.502,0.206 -0.436,0.398 -1.012,0.688 -0.382,0.572 -0.452,0.218 -0.616,0.052 -1.084,0.372 -0.658,0.35 -0.166,0.188 -0.208,0.086 -0.248,-0.01 -0.266,0.154 -0.288,0.316 -0.24,0.148 -0.392,0.034 -0.204,0.124 -0.228,-0.004 -0.626,-0.378 -0.156,-0.22 0.554,-0.442 0.4,-0.148 0.61,-0.066 0.598,-0.41 1.232,-0.542 0.382,-0.296 0.246,-1.034 0.28,-0.176 0.15,-0.414 0.682,0.012 0.312,0.464 0.11,0.064 0.054,-0.044 0.03,-0.372 0.35,-0.26 -0.202,-0.192 -0.63,-0.24 -0.468,-0.114 -0.306,0.014 -0.248,-0.134 -0.192,-0.284 -0.086,-0.282 0.016,-0.28 0.156,-0.314 0.294,-0.348 0.336,-0.198 0.726,-0.142 0.644,-0.232 0.34,-0.036 0.258,0.098 0.072,0.896 z m 2.276,1.686 -0.08,0.028 -0.144,-0.234 -0.006,-0.214 0.092,-0.156 0.262,-0.364 0.186,-0.128 0.23,-0.066 0.062,0.098 -0.202,0.43 -0.252,0.29 -0.148,0.316 z m -9.848,3.562 -1.718,1.002 -0.558,0.732 -0.426,0.704 -0.334,0.384 -0.244,0.066 -0.272,0.186 -0.568,0.49 -0.24,0.06 -1.82399992,1.142 -0.128,0.018 0.088,-0.298 0.556,-0.422 0.364,-0.386 0.40999992,-0.636 0.226,-0.236 0.072,-0.32 0.03,-0.648 0.102,-0.246 0.392,-0.488 0.286,-0.266 0.376,-0.092 0.76,0.082 0.316,-0.25 0.098,-0.188 -0.192,-0.172 -0.044,-0.298 0.05,-0.516 0.22,-0.458 0.39,-0.4 0.532,-0.312 0.672,-0.224 0.492,-0.01 0.884,0.472 0.13,0.216 -0.218,0.472 -0.124,0.444 -0.556,0.396 z m 418.6520032,42.094 0.672,-0.104 0.578,0.03 0.582,0.046 0.31,0.068 0.896,0.372 0.584,0.304 0.838,0.564 0.464,0.25 0.224,0.586 0.26,0.75 0.372,0 0.28,-0.44 0.712,-0.08 0.936,0.308 0.824,0.876 1.184,0.78 0.724,0.388 0.736,-0.002 0.934,-0.386 0.994,-0.748 0.716,-0.13 0.424,0.074 0.242,0.582 0.296,0.222 0.772,-0.066 1.61,0.112 1.282,-0.158 0.292,0.334 0.26,0.526 0.52,0.166 0.706,-0.166 1.11,0.114 -0.152,0.084 -0.164,-0.018 -0.214,0.126 -0.266,0.268 -0.614,0.382 -0.96,0.498 -1.108,0.456 -2.246,0.822 -1.4,0.852 -0.62,0.51 -2.41,2.552 -1.454,1.354 -2.354,1.896 -0.224,0.24 -0.014,0.224 0.192,0.21 0.48,0.304 0.374,0.038 0.478,-0.062 1.89,-0.524 0.796,-0.364 0.782,-0.612 0.08,-0.02 0.326,0.112 0.102,0.054 1.016,-0.706 0.334,-0.09 0.262,0.018 0.326,0.278 0.076,0.168 -0.11,0.324 -0.292,0.478 -0.142,0.402 0.008,0.326 -0.126,0.352 -0.32,0.478 0.116,0.128 0.858,-0.344 0.126,-0.134 0.014,-0.08 -0.052,-0.096 0.098,-0.044 0.676,0.47 0.45,0.26 0.378,0.124 0.716,-0.15 1.054,-0.424 0.9,-0.516 0.744,-0.612 0.928,-0.376 1.114,-0.138 0.796,-0.216 0.48,-0.296 0.644,-0.578 0.362,-0.17 0.456,-0.052 0.342,-0.224 0.23,-0.396 0.436,-0.45 0.64,-0.504 0.366,-0.204 0.09,0.096 0.034,0.178 -0.024,0.262 0.16,0.21 0.342,0.162 0.156,0.214 -0.03,0.266 0.092,0.226 0.216,0.188 0.056,0.408 -0.1,0.626 -0.012,0.406 0.076,0.184 0.076,0.104 0.122,-0.1 0.154,-0.22 0.056,-0.136 0.04,-0.138 0.936,-0.632 0.182,-0.032 0.306,0.164 1.416,0.228 0.558,0.162 0.586,0.362 0.2,0.14 0.718,1.168 0.328,0.456 0.204,0.126 0.116,0.178 0.092,0.412 0.112,0.124 1.052,0.088 0.476,-0.074 0.29,-0.166 0.322,0.108 0.354,0.38 0.348,0.106 0.342,-0.166 0.322,0.004 0.302,0.178 0.14,0.128 0.092,-0.006 0.598,-0.58 0.72,-0.516 0.962,-0.558 0.558,-0.248 0.154,0.06 0.886,-0.186 0.798,-0.016 1.058,0.112 0.98,-0.13 0.902,-0.374 0.798,-0.208 0.694,-0.044 0.262,0.104 -0.17,0.254 -0.092,0.434 -0.012,0.616 -0.06,0.388 -0.106,0.164 -0.012,0.156 0.08,0.148 0.674,0.096 0.354,0.2 0.406,0.008 0.458,-0.182 0.35,0.07 0.244,0.318 0.354,0.058 0.344,-0.228 0.242,-0.214 0.208,-0.094 0.162,-0.02 0.172,0.108 0.116,0.182 0.292,0.5 0.144,0.338 0.088,0.502 0.062,0.166 -0.008,0.292 -0.196,0.198 -0.052,0.158 0.118,0.158 0.664,0.044 0.302,0.156 0.112,0.174 -0.076,0.192 0.042,0.206 0.162,0.216 0.532,0.328 0.13,0.156 -0.038,0.166 -0.158,0.106 -0.278,0.048 -2.032,-0.308 -0.598,-0.05 -0.088,0.114 -0.056,0.016 -0.096,-0.03 -0.174,-0.006 -0.088,-0.074 -0.074,-0.206 -0.176,-0.132 -0.282,-0.058 -0.242,0.156 -0.282,0.61 0.044,0.114 -0.046,0.39 0.072,0.106 -0.004,0.088 -0.08,0.074 -0.166,-0.01 -0.252,-0.092 -0.954,-0.922 -0.722,-0.46 -0.894,-0.338 -0.708,-0.166 -0.52,0.008 -0.428,0.238 -0.334,0.464 -0.522,0.264 -0.71,0.064 -0.384,0.126 -0.06,0.186 -0.256,0.004 -0.452,-0.176 -0.466,-0.05 -0.482,0.078 -0.352,0.182 -0.374,0.57 -0.074,0.28 -0.27,0.244 -0.718,0.38 -0.036,0.14 -0.378,0.432 -0.12,0.238 0.002,0.234 -0.126,-0.014 -0.254,-0.262 -0.01,-0.352 0.234,-0.444 0.21,-0.214 0.184,0.014 0.114,-0.198 0.044,-0.408 -0.066,-0.204 -0.358,0.08 -0.188,0.162 -0.238,0.036 -0.286,-0.092 -0.252,0.222 -0.218,0.538 -0.26,0.352 -0.302,0.166 -0.204,-0.184 -0.104,-0.534 0,-0.418 0.122,-0.506 -0.062,-0.098 -0.128,0.162 -0.192,0.422 -0.256,0.92 -0.164,0.298 -0.222,0.126 -0.352,0.556 -0.48,0.984 -0.542,0.954 -0.604,0.92 -0.364,0.494 -0.122,0.07 -0.054,0.164 -0.03,0.59 -0.108,0.4 -0.316,0.314 -0.826,0.396 -0.13,0.27 -0.018,0.222 -0.532,0.918 -0.26,0.562 -0.17,0.584 0.054,0.368 0.278,0.15 0.226,-0.058 0.172,-0.266 0.264,-0.242 0.358,-0.216 0.26,-0.318 0.362,-0.774 0.406,-0.446 0.216,-0.026 0.06,0.012 0.422,-0.202 0.34,0.066 0.206,0.304 0.21,0.208 0.046,0.196 -0.104,0.436 -0.194,0.46 -0.282,0.482 -0.256,0.722 -0.23,0.962 -0.048,0.726 0.132,0.49 -0.126,0.438 -0.384,0.384 -0.31,0.514 -0.234,0.642 -0.132,0.538 -0.032,0.436 0.034,0.326 0.144,0.44 -0.01,0.222 -0.416,0.966 -0.15,0.468 -0.026,0.37 -0.104,0.364 -0.318,0.738 -0.1,0.41 -0.018,0.376 0.072,0.616 -0.04,0.208 0.018,0.158 0.078,0.106 0,0.194 -0.082,0.282 0.032,0.218 0.144,0.156 0.092,0.298 0.042,0.438 0.11,0.366 0.178,0.292 0.032,0.426 -0.114,0.556 -0.058,1.044 -0.002,1.53 0.084,0.98 0.172,0.434 0.192,0.32 0.212,0.206 0.244,0.632 0.276,1.06 0.254,0.7 0.236,0.34 0.212,0.188 0.168,0.11 0.124,0.016 0.07,0.166 0.316,0.1 0.578,0.042 0.532,-0.066 0.484,-0.172 1.54,-0.892 0.598,-0.486 0.332,-0.436 0.322,-0.574 0.31,-0.712 0.632,-1.068 0.308,-0.646 0.296,-0.82 0.224,-0.86 0.15,-0.902 0.072,-0.938 -0.008,-0.972 -0.152,-0.98 -0.294,-0.99 -0.158,-0.506 -0.062,-0.134 -0.532,-1.272 -0.6,-1.776 0.008,-0.152 0.56,-1.062 0.014,-0.144 -0.06,-0.864 -0.12,-0.434 -0.286,-0.584 0.01,-0.148 0.582,-0.746 0.352,-0.568 0.32,-0.69 0.208,-0.806 0.094,-0.922 -0.002,-0.616 -0.102,-0.308 0.01,-0.238 0.122,-0.166 0.624,-0.216 0.21,-0.366 0.044,-0.644 0.128,-0.32 0.212,0.006 0.196,-0.132 0.18,-0.27 0.238,-0.078 0.296,0.118 0.414,-0.4 0.532,-0.918 0.408,-0.514 0.286,-0.108 0.054,0.084 -0.176,0.274 -0.054,0.302 0.068,0.328 -0.06,0.318 -0.132,0.434 0.082,0.136 -0.228,0.698 -0.01,0.348 0.138,0.264 0.164,-0.092 0.19,-0.45 0.058,-0.24 -0.078,-0.03 0.03,-0.192 0.134,-0.352 0.12,-0.168 0.104,0.02 0.028,0.192 -0.046,0.366 -0.302,0.862 -0.06,0.262 0.068,0.074 0.364,-0.54 0.304,-0.86 0.232,-0.66 0.042,-0.36 -0.07,-0.93 0.014,-0.382 0.088,-0.264 0.316,-0.298 0.542,-0.332 0.536,-0.178 0.53,-0.022 0.37,-0.09 0.21,-0.158 -0.074,-0.128 -0.356,-0.094 -0.272,-0.208 -0.184,-0.322 -0.062,-0.37 0.062,-0.416 0.226,-0.41 0.392,-0.402 0.124,-0.294 -0.146,-0.19 0.168,-0.068 0.48,0.054 0.336,-0.052 0.19,-0.158 0.052,0.02 0.402,0.15 0.718,0.494 0.682,0.288 0.646,0.082 0.472,0.174 0.296,0.266 0.214,0.298 0.13,0.33 0.308,0.186 0.486,0.042 0.382,0.14 0.278,0.238 1.544,0.614 0.646,0.324 0.356,0.316 0.1,0.204 -0.03,0.2 0.036,0.214 0.264,0.416 0.1,0.038 0.062,0.2 0.022,0.364 0.078,0.244 0.132,0.124 -0.082,0.05 -0.476,-0.21 -0.27,0.064 -0.126,0.272 -0.02,0.258 0.086,0.242 0.608,0.728 0.158,0.664 0.03,0.802 -0.076,0.312 -0.064,0.686 -0.052,1.06 -0.012,0.362 -0.2,0.354 -0.542,0.508 -0.008,-0.096 -0.13,-0.026 -0.14,0.078 -0.196,0.434 -0.168,0.792 -0.204,0.43 -0.242,0.068 -0.146,0.114 -0.048,0.16 -0.258,0.108 -0.47,0.056 -0.322,0.24 -0.24,0.676 0.01,0.324 -0.112,0.402 0.008,0.344 0.126,0.286 0.38,0.286 0.632,0.286 0.378,0.044 0.26,-0.12 0.272,-0.468 0.264,-0.184 0.322,-0.078 0.122,-0.212 0.53,-0.938 0,-0.208 -0.194,-0.08 0.028,-0.058 0.25,-0.038 0.216,-0.126 0.184,-0.216 0.322,-0.16 0.784,-0.246 0.42,-0.28 0.266,-0.046 0.388,0.15 0.508,0.344 0.402,0.502 0.296,0.658 0.374,1.702 0.452,2.734 0.308,1.524 0.166,0.324 0.082,0.162 -0.398,2.122 -0.32,0.874 -0.56,0.506 -0.556,0.49 -0.694,0.82 -0.762,0.404 -0.39,0.238 -0.084,0.154 -0.094,-0.048 -0.208,0.444 -0.186,0.614 -0.074,0.474 0.066,0.26 -0.158,0.166 -0.286,0.312 -0.054,0.114 0.02,0.182 -0.06,0.088 -0.138,-0.004 -0.106,0.088 -0.258,0.326 -0.444,0.852 -0.084,0.178 0.074,0.132 0.508,0.082 0.346,0.156 0.27,0.234 0.974,0.458 0.298,0.284 0.296,0.156 0.294,0.028 0.202,-0.09 0.108,-0.208 0.138,-0.014 0.168,0.18 0.548,0.196 0.018,0.062 -1.52,0.34 -0.318,0.158 0.38,0.11 0.384,-0.026 0.386,-0.164 0.444,0.008 0.39,0.078 0.124,-0.066 0.05,-0.034 0.664,0.446 0.248,0.066 0.258,-0.05 0.266,-0.168 0.586,-0.218 0.904,-0.27 0.87,-0.11 0.836,0.05 0.528,-0.076 0.484,-0.28 1.068,-0.92 1.226,-0.742 2.018,-0.922 3,-1.11 0.464,-0.258 0.47,-0.254 0.244,-0.146 0.272,-0.132 2.088,-1.164 1.076,-0.688 0.538,-0.5 0.568,-0.416 0.596,-0.332 0.472,-0.426 0.35,-0.52 0.386,-0.388 0.422,-0.254 0.228,-0.268 0.032,-0.28 -0.08,-0.38 -0.188,-0.478 -0.026,-0.376 0.136,-0.276 0.03,-0.186 -0.076,-0.096 -0.886,-0.274 0.038,-1.32 -0.012,-0.038 0.046,-0.016 2.042,-0.586 1.302,-0.202 1.586,-0.054 1.89,0.29 0.734,0.264 0.464,0.336 0.536,0.09 0.608,-0.156 0.842,-0.052 1.078,0.052 0.576,0.08 0.076,0.106 0.074,-0.032 0.074,-0.168 0.288,-0.186 0.808,-0.278 0.108,0.058 0.166,-0.14 0.224,-0.34 0.412,-0.376 0.6,-0.412 0.542,-0.214 0.486,-0.018 0.324,-0.1 0.164,-0.186 0.05,-0.164 -0.064,-0.142 0.028,-0.158 0.028,-0.078 -0.024,-0.064 -0.058,-0.134 -0.046,-0.676 -0.094,-0.318 -0.132,-0.236 -0.168,-0.152 0.02,-0.158 0.292,-0.196 -0.022,0.182 0.076,0.056 0.136,-0.084 0.312,-0.408 0.036,-0.154 0.212,-0.158 0.158,-0.246 -0.174,-0.036 -0.414,0.074 -0.094,-0.074 0.214,-0.328 -0.04,-0.186 -0.068,-0.078 -0.136,-0.032 -0.466,0.288 -0.144,0.026 -0.02,-0.152 -0.24,-0.338 0.644,-0.6 2.276,-1.674 0.232,-0.254 0.086,-0.228 -0.062,-0.2 -0.064,-0.05 0.034,-0.05 2.194,-2.164 1.246,-1.002 1.028,-0.56 0.784,-0.266 0.53,0.038 0.3,-0.038 0.256,0 1.306,-0.002 2.336,-0.004 2.336,-0.002 2.336,-0.004 2.334,-0.004 2.336,-0.004 2.336,-0.004 2.334,-0.004 0.554,-1.528 0.514,-0.714 0.706,0.236 0.376,-0.02 0.418,-0.368 0.338,-0.224 0.222,0.034 0.19,0.336 0.158,0.224 0.186,-0.066 0.158,-0.318 -0.006,-0.442 0.216,-0.308 0.258,-0.046 0.238,0.01 0.12,-0.15 -0.014,-0.214 -0.084,-0.348 0.03,-0.418 0.594,-0.742 0.728,-0.502 0.254,-0.252 0.074,-0.51 0.418,-0.53 0.208,-0.306 0.05,-0.266 -0.108,-0.328 0.01,-0.626 0.144,-0.748 0.172,-0.816 0.384,-0.736 0.63,-0.804 0.164,-1.06 0.17,-1.12 0.764,-1.094 0.866,-1.246 0.494,-0.71 0.888,-1.294 0.632,-0.924 0.318,-0.424 0.332,-0.504 0.542,0.152 0.54,0.15 -0.08,0.732 0.088,0.532 0.256,0.306 0.37,0.208 0.28,0.07 0.33,-0.004 0.9,-0.414 1.056,-0.268 0.582,-0.25 0.106,-0.234 0.264,-0.082 0.422,0.07 0.78,0.586 0.91,0.884 0.718,0.698 0.022,1.208 0.014,1.276 0.014,1.34 0.01,0.954 0.018,1.308 0.014,1.036 0.018,1.35 0.01,0.72 0.098,0.208 -0.06,0.282 -0.026,0.142 0.006,0.114 0.04,0.142 -0.006,0.198 -0.092,0.178 -0.046,0.208 -0.012,0.338 0.098,0.208 0.164,0.122 0.138,0 0.178,0.122 0.23,0.216 0.35,0.188 0.362,0.066 0.25,-0.046 0.302,0.122 0.106,0.3 -0.06,0.282 -0.17,0.132 -0.184,0.102 -0.034,0.216 0.092,0.224 0.132,0.196 0.144,0.344 -0.06,0.3 -0.132,0.252 -0.058,0.26 0.112,0.224 0.296,0.298 0.184,0.288 0.29,0.158 0.138,-0.112 0.112,-0.15 0.118,-0.112 0.204,0.066 0.238,0.084 0.258,0.1 -0.032,0.242 0.158,0.406 0.122,0.78 -0.188,0.354 0.04,0.468 0.52,0.136 0.126,0.144 0.024,0.172 -1.146,1.198 -0.97,-0.166 -0.526,0.318 -0.55,0.092 -0.242,0.534 -0.302,0.114 -0.414,-0.032 -0.358,-0.15 -0.272,0.074 -0.382,0.962 -0.312,-0.084 -0.124,0.346 -0.164,0.152 -0.24,0.128 -0.208,-0.426 -0.132,-0.406 -0.196,-0.088 -0.26,-0.104 -0.266,0.004 -0.178,0.058 -0.222,0.262 -0.32,0.226 -0.242,-0.188 -0.19,-0.302 -0.162,0.486 -0.236,0.512 0.04,0.596 -0.102,0.354 -0.224,-0.094 -0.222,-0.31 -0.624,-0.248 -0.498,0.022 0.102,-0.332 0.47,-0.476 -0.146,-0.092 -0.23,0.066 -0.1,-0.066 0.166,-0.434 0.016,-0.478 -0.21,0.166 -0.264,0.504 -0.64,0.402 0.03,0.672 -0.602,1.372 -0.028,0.584 -0.386,0.464 -0.5,0.4 -0.666,-0.112 -0.508,0.346 -0.258,0.398 -0.224,0.06 -0.116,-0.506 -0.084,-0.156 -0.188,0.748 -0.19,0.046 -0.072,-0.53 -0.09,-0.35 -0.26,0.302 -0.172,0.8 -0.18,-0.068 -0.058,-0.296 -0.13,-0.09 -0.044,0.34 0.064,0.478 -0.094,0.254 -0.18,-0.136 -0.18,-0.23 -0.298,0.174 -0.274,0.07 0,-0.234 0.052,-0.288 -0.544,0.158 -0.654,0.53 -0.508,0.732 0.176,0.122 0.198,0.232 -0.882,1.126 -0.904,1.012 -0.682,1.646 -0.274,0.192 -0.236,0.3 -0.25,0.99 -0.288,0.878 0.162,0.392 0.106,0.402 0.256,0.396 0.218,0.036 0.236,-0.072 0.172,0.016 0.112,0.168 -0.048,0.202 -0.272,0.05 -0.508,0.352 -0.446,0.136 -0.222,0.424 -0.334,0.49 -0.65,0.764 0.278,0.236 1.002,0.264 0.448,0.272 0.676,1.42 -0.154,0.142 -0.062,0.26 0.602,0.364 0.192,1.016 0.494,0.346 0.736,0.212 0.902,-0.306 0.75,-0.422 -0.026,-0.346 -0.472,-0.808 -0.114,-0.378 -0.35,-0.246 -0.132,0.208 -0.226,-0.27 -0.026,-0.152 0.21,-0.074 0.246,0.03 0.286,0.142 0.736,0.882 0.204,1.152 0.044,0.73 -0.084,0.25 -0.214,-0.052 -0.408,0.05 -1.938,0.378 -0.43,0.332 -0.986,0.36 -0.062,-0.18 0.072,-0.372 -0.062,-0.764 -0.194,-0.036 -1.534,1.246 -0.592,0.078 -0.498,0.364 -0.112,-0.202 -0.088,-0.932 0.312,-0.784 -0.166,0.012 -0.52,0.47 -0.222,-0.29 -0.112,-0.318 -0.16,-0.18 -0.174,-0.068 0.15,0.694 -0.354,0.52 -0.096,1.342 -0.444,0.556 -1.384,0.358 -0.902,-0.076 -0.808,0.112 -1.074,0.256 -0.594,-0.152 -0.608,0.27 -2.064,0.074 -0.436,-0.144 -0.556,0.51 -0.89,0.302 -2.25,1.142 -0.496,0.416 -0.604,0.646 -0.406,0.348 -0.334,0.114 -0.206,0.29 -0.224,0.188 0.216,-0.644 0.234,-0.544 0.196,-1.058 -0.058,-0.856 -0.242,-0.352 -0.25,-0.236 0.292,0.846 0.048,1.036 -0.102,0.606 -0.552,1.166 -0.234,0.27 -0.274,0.24 -0.208,0.102 -0.192,0.186 -0.222,0.294 -0.21,0.584 0.128,0.532 1.076,0.194 0.29,-0.164 0.146,0.38 0.084,0.528 -0.082,0.572 -0.18,0.58 -0.136,0.72 -0.116,1.094 -0.174,0.982 -0.024,-0.298 0.11,-1.196 -0.176,0.126 -0.122,0.276 -0.328,1.54 -0.452,0.818 -0.416,0.566 -0.43,-0.094 0.096,0.45 -0.118,0.234 -0.1,0.488 -0.256,0.322 -0.24,-0.03 -0.344,0.222 -0.136,0.17 -0.01,0.326 -0.232,0.286 -0.834,1.484 -0.724,0.436 -0.172,-0.064 0.19,-0.7 0.13,-0.708 -0.44,-0.308 -0.42,-0.164 -0.482,0.022 -0.534,-0.552 -0.686,-0.4 -0.958,-1.088 0.028,-0.302 -0.024,-0.508 0.292,-0.802 0.278,-0.562 0.386,-0.292 1.12,-0.296 0.28,-0.446 0.166,-0.376 -0.554,0.646 -0.83,0.22 -0.448,0.242 -0.358,0.368 -0.212,0.462 -0.48,0.556 0.034,0.372 0.08,0.264 -0.038,0.552 0.304,0.536 0.6,0.878 0.116,1.36 0.458,0.908 0.704,1.056 0.54,0.3 0.028,0.392 -0.25,0.648 -0.33,0.296 0.428,-0.06 0.212,0.148 0.208,0.54 -0.016,0.55 -0.07,0.308 -0.13,0.124 0.004,-0.316 -0.092,-0.11 -0.152,0.136 -0.098,0.156 -0.042,0.614 -0.104,0.306 -0.368,0.09 -0.374,0.804 -0.346,0.456 -1.362,3.072 0.052,0.512 -0.25,0.164 -0.376,0.134 -0.382,0.306 -0.254,0.336 -0.236,0.904 -0.452,1.016 -0.282,-0.422 -0.072,-0.362 0.126,-0.948 0.488,-1.554 0.538,-0.968 0.41,-0.46 0.336,-0.94 -0.426,-0.14 -0.65,0.016 0.122,-0.434 0.19,-0.382 -0.338,-0.382 -0.2,-0.048 -0.206,-0.156 0.242,-0.318 0.118,-0.336 -0.072,-0.41 0.102,-0.31 -0.168,0.046 -0.272,0.328 -0.168,0.13 -0.102,-0.29 -0.118,0.066 -0.076,0.2 -0.174,0.108 -0.366,-0.272 -0.534,-0.31 -0.296,-0.536 -0.17,-0.416 0.172,-0.752 0.37,-0.134 0.48,0.122 0.628,0 -0.09,-0.166 -0.224,0.028 -0.662,-0.612 -0.214,-0.37 -0.366,-0.102 -0.166,0.356 -0.186,0.094 0.228,-0.778 0.3,-0.032 0.442,-0.216 -0.128,-0.452 -0.28,-0.198 -0.504,0.248 0.006,-0.318 0.094,-0.406 0.38,0 0.334,0.132 0.284,-0.658 0.012,-0.294 -0.47,0.428 -0.106,-0.922 0.462,-0.89 0.442,-0.39 0.552,0.012 0.56,-0.062 -0.352,-0.164 -0.362,-0.088 0.272,-0.354 0.232,-0.064 0.228,-0.308 -0.546,0.046 0.064,-0.584 -0.266,0.12 -0.318,0.054 -0.124,0.248 0.024,0.412 -0.092,0.27 -0.248,0.216 -0.418,0.168 -0.04,-0.292 -0.138,-0.132 -0.052,0.626 -0.11,0.212 -0.306,-0.586 -0.092,0.118 0.012,0.166 -0.078,0.288 -0.262,0.15 0.016,0.368 -0.102,0.202 -0.838,-0.32 -0.02,0.108 0.474,0.69 0.346,0.236 0.042,0.376 -0.298,0.312 -0.41,-0.268 -0.07,0.02 0.224,0.46 0.14,0.402 -0.144,0.336 0.022,0.416 -0.032,0.376 -0.088,0.328 0.2,1.506 0.24,0.41 0.236,0.39 0.126,0.366 -0.25,0.052 -0.4,-0.3 -0.352,-0.23 -0.418,-0.734 -0.068,-0.294 -0.102,-0.232 0.048,0.532 0.15,0.594 1.308,1.328 0.242,0.508 0.184,0.4 -0.046,0.38 -0.342,-0.27 -0.294,-0.344 -0.782,-0.39 -0.986,-0.246 -0.556,-0.908 0.002,0.378 -0.124,0.322 -0.34,-0.392 -0.214,-0.334 -0.072,-0.366 -0.424,0.024 -0.444,0.32 -0.43,-0.076 -0.05,-0.622 0.116,-0.33 0.482,-0.78 0.456,-0.4 0.2,-0.516 -0.068,-0.8 -0.084,0.814 -0.26,0.402 -0.41,0.308 -0.538,0.548 -0.13,0.506 -0.168,0.946 0.226,0.32 0.232,0.084 0.684,-0.214 0.354,0.096 0.788,1.136 1.468,0.448 0.536,0.28 0.436,0.592 0.656,0.34 0.51,0.494 0.014,0.322 -0.176,0.38 -0.07,0.514 -0.216,0.324 -0.518,0.038 -0.314,-0.084 -1.686,-1.81 -0.202,-0.166 -0.626,-0.95 -0.734,-0.51 -0.228,0.01 1.044,0.942 0.426,0.658 0.75,0.92 0.536,0.39 0.394,0.608 0.368,0.284 1.002,0.404 -0.348,0.292 0.556,0.248 0.08,0.454 -0.05,0.518 -0.772,-0.206 -0.026,0.382 0.07,0.224 -0.34,0.186 -0.474,-0.252 -1.23,-1.38 0.01,0.184 0.1,0.214 0.714,0.888 0.638,0.532 0.54,0.24 0.416,0.446 0.148,0.268 0.098,0.408 -0.308,0.276 -0.352,0.154 -0.342,-0.276 -0.252,-0.292 -0.536,-0.494 -0.162,-0.554 -0.408,0.028 -1.704,-0.702 -1.37,-0.082 0.134,0.142 0.172,0.094 1.09,0.172 0.43,0.324 0.896,0.288 0.526,0.078 0.212,0.88 0.726,0.606 0.094,0.448 0.496,0.05 0.872,-0.438 0.562,0.154 0.812,0.126 0.186,0.354 0.138,0.672 0.288,0.756 0.744,2.972 1.118,2.418 0.138,0.416 -0.26,-0.366 -0.83,-1.6 -0.458,-1.16 -0.47,-2.052 -0.136,-0.46 -0.162,-0.184 -0.106,0.15 -0.046,0.262 0.078,0.202 -0.186,0.676 0.08,0.31 0.3,0.32 0.328,0.798 0.262,1.074 -0.354,-0.436 -0.376,-0.23 -0.586,-0.176 -0.522,-0.31 0.038,0.444 -0.05,0.48 -0.402,-0.146 -0.274,-0.16 0.244,0.51 -0.526,-0.152 -0.352,0.032 -0.228,0.454 -0.306,0.274 -0.452,0.088 -0.672,-0.414 -0.216,-0.504 -0.09,-0.562 -0.036,0.664 0.12,0.69 -0.042,0.524 0.646,0.096 0.604,-0.084 0.816,0.022 0.532,-0.098 0.32,-0.166 0.768,0.144 0.054,0.632 -0.088,0.628 -0.044,0.666 0.212,-0.004 0.25,-0.214 0.126,-1.198 0.702,-0.444 0.236,0.032 0.224,0.384 0.076,0.39 0.08,0.536 -0.164,0.816 -1.078,0.952 -0.772,0.878 -0.396,0.178 -0.568,-0.102 -0.646,-0.22 -0.318,-0.044 -0.24,0.074 -0.146,-0.272 -0.094,-0.494 -0.25,-0.164 -0.19,0.018 -0.128,0.524 -0.602,0.15 -0.818,-0.218 -0.858,-0.44 0.368,0.472 2.126,0.882 0.24,0.166 0.224,0.24 -0.296,0.378 -0.234,0.426 -0.034,0.334 -0.082,0.21 -0.848,0.566 -0.458,-0.1 -1.174,-1.022 0.536,0.884 0.428,0.374 0.864,0.2 1.618,-0.33 0.532,0.36 -0.436,0.638 -0.432,0.446 -0.568,0.05 -0.5,0.122 -0.148,0.306 -0.356,0.02 -0.558,0.018 -0.862,0.028 -0.474,-0.072 -0.662,0.626 -0.25,0.086 -0.348,-0.118 -0.146,-0.504 -0.156,-0.248 -0.004,0.942 0.062,0.254 0.126,0.19 -0.774,0.51 -0.742,0.636 -0.266,0.172 -0.302,0.318 -0.618,0.918 -0.152,0.668 -0.224,0.744 -0.028,-0.334 0.038,-0.564 -0.152,-0.646 -0.098,1.184 -0.24,0.548 -2.204,-0.038 -0.964,0.298 -1.48,1.002 -0.442,0.44 -1.224,1.694 -0.312,1.082 -0.25,-0.454 0.062,-0.34 0.004,-0.28 -0.306,0.57 0.292,0.872 -0.262,0.332 -0.808,0.62 -0.442,0.1 -0.496,0.176 -0.156,0.61 -0.674,0.562 -0.392,0.248 -0.72,-0.15 0.222,0.54 -0.264,0.41 -0.456,0.314 -0.566,0.204 -0.324,-0.026 -0.276,0.108 -0.218,0.26 -0.53,0.244 -0.55,-0.136 -0.624,-0.082 -0.348,0.146 0.584,0.242 0.314,0.348 -0.064,0.47 -0.156,0.18 -0.37,0.246 -0.162,-0.036 -0.098,-0.22 -0.12,-0.46 -0.172,0.098 -0.03,0.214 -0.148,0.078 -0.524,-0.734 0.026,0.56 0.182,0.43 0.176,0.218 0.178,0.128 0.044,0.2 -0.358,0.486 -0.184,0.108 -0.328,0.078 -0.184,0.298 0.054,0.258 -0.288,0.558 -0.686,0.348 -0.208,-0.014 -0.17,0.102 0.1,0.248 0.17,0.18 -0.006,0.168 -0.18,0.228 -0.358,0.064 -0.2,0.258 0.064,0.246 0.118,0.136 -0.026,0.234 -0.406,0.236 -0.096,0.232 0.202,0.068 0.156,-0.068 0.114,0.05 -0.244,0.388 -0.218,0.236 -0.208,0.424 -0.482,0.118 0.018,0.138 0.272,0.122 0.228,0.326 -0.428,0.602 -0.268,-0.05 -0.164,-0.132 -0.104,0.474 0.04,0.252 -0.102,0.518 -0.164,0.62 -0.112,0.254 0.024,0.474 0.07,0.458 0.262,0.588 0.402,2.402 0.274,0.832 0.492,2.24 0.814,2.164 1.148,2.606 1.884,3.144 0.226,0.446 -0.246,0.378 -0.074,0.392 -0.022,0.59 0.068,0.576 0.222,0.702 0.428,1.072 -0.24,-0.212 -0.62,-1.54 -0.072,-0.904 0.088,-1.286 -0.146,0.032 -0.118,0.418 -0.066,0.49 -0.158,0.19 -0.214,-0.75 0.016,-0.338 0.228,-0.396 -0.066,-0.142 -0.37,-0.204 -0.078,-0.318 0.05,-0.316 -0.21,-0.168 -0.166,0.008 0.112,0.778 0.174,0.476 0.216,1.142 0.35,0.69 0.204,0.578 2.38,6.14 0.564,0.778 0.208,0.558 0.216,1.166 0.048,1.494 -0.388,2.722 -0.088,1.85 -0.056,-0.056 -0.038,-0.196 -0.09,-0.026 -0.336,0.846 -0.458,0.762 -0.152,1.184 -0.22,0.592 -0.662,0.626 -0.41,-0.016 -1.004,0.47 -0.706,-0.122 -0.84,0.264 -0.552,-0.03 -0.32,-0.558 0.048,-0.25 0.126,-0.25 0.216,-0.058 0.742,0.586 0.14,-0.248 -0.224,-0.292 -0.43,-0.164 -0.316,-0.18 -0.638,-1.336 -0.662,-0.918 -0.112,-0.616 -1.142,-0.376 -0.826,-0.57 -0.54,-1.012 -0.31,-1.798 -0.364,-0.202 -0.154,-0.14 0.356,-0.67 0.376,-0.562 -0.296,0.14 -0.218,0.208 -0.278,0.496 -0.204,0.076 -0.186,-0.076 -0.214,-0.952 0.062,-1.17 0.3,-0.438 -0.462,-0.012 -0.478,0.166 0.07,0.39 -0.068,0.214 -0.348,-0.056 -0.266,-0.136 -0.358,-0.408 -0.49,-0.776 -1.006,-2.144 -0.196,-0.302 -0.334,-0.318 0.158,-0.098 0.286,-0.058 0.646,-0.968 0.506,-0.586 0.168,-0.406 -0.03,-0.174 -0.224,-0.252 -0.294,0.22 -0.126,-0.062 -0.332,-0.51 -0.316,-0.144 -0.22,0.11 0.232,0.416 0.208,0.156 -0.082,0.606 -0.084,0.196 -0.196,0.174 -0.306,-0.094 -0.154,0.15 -0.182,-0.158 -0.18,-0.266 -0.202,-0.438 0.534,-2.472 0.494,-1.58 0.056,-1.808 0.038,-0.268 -0.042,-0.482 -0.662,-1.046 -2.926,-2.562 -2.266,-3.048 -1.964,-1.146 -1.49,0.252 -0.258,0.23 -0.11,0.3 0.092,0.342 -0.134,0.142 -0.4,-0.018 -0.538,0.08 -1.406,0.802 -0.496,-0.03 -0.45,0.208 -0.338,0.156 -0.88,0.084 -0.746,0.178 -0.322,-0.096 -0.21,-0.466 0,-0.482 0.17,0.37 0.264,0.29 0.122,-0.116 0.044,-0.256 -0.262,-0.502 -0.846,-0.644 -0.962,-0.942 0.294,0.032 0.074,-0.202 -0.298,-0.266 0.126,-0.306 0.21,-0.322 -0.406,0.048 -0.366,0.226 -0.012,0.278 -0.072,0.222 -0.196,-0.032 -0.364,-0.274 -1.792,-0.764 -1.568,-0.432 1.204,-0.194 0.652,0.15 -0.078,-0.232 -0.158,-0.148 -0.514,-0.186 -0.656,0.07 -0.414,-0.088 -0.422,0.186 -0.464,0.274 -0.414,0.14 -1.616,0.198 -1.31,0.214 0.21,-0.226 0.224,-0.146 0.774,-0.222 0.116,-0.46 -0.182,-0.444 -0.204,0.106 -0.214,0.346 -0.262,-0.25 -0.29,0.002 -0.08,0.55 -0.374,0.37 -0.168,0.372 -1.094,0.292 -0.14,-0.096 0.32,-0.354 -0.026,-0.196 -0.364,0.168 -0.612,0.668 -2.154,0.218 0.118,-0.152 0.456,-0.032 0.638,-0.21 -0.13,-0.356 -0.246,-0.392 -0.228,-0.044 -0.15,-0.23 0.008,-0.724 -0.146,-0.424 -0.35,-0.436 -0.118,0.084 -0.258,0.748 -0.214,0.978 -0.106,0.316 -0.638,0.022 -0.566,-0.068 -1.92,0.118 -0.716,-0.332 -0.298,-0.064 -0.182,0.008 -0.834,0.304 -0.952,0.232 -0.224,-0.074 -0.32,-0.01 -0.69,0.79 -0.814,0.37 -2.052,-0.666 -0.51,-0.534 -0.454,-0.114 -0.558,-0.066 -0.598,0.658 -0.456,0.886 0.718,0.486 0.616,0.232 1.016,-0.194 0.562,-0.43 0.458,0.014 0.22,-0.086 0.2,-0.224 0.392,0.176 0.014,0.178 -0.278,0.25 -0.352,0.21 -0.212,0.248 0.4,0.498 0.63,0.168 0.236,-0.072 0.146,-0.56 0.388,-0.362 0.526,0.078 -0.074,0.228 0.074,0.214 0.242,0.366 -0.028,0.524 0.046,0.126 -0.566,0.23 -0.422,0.078 -0.338,0.302 0.178,0.174 -0.344,0.154 -0.232,-0.062 -0.118,0.056 -0.036,0.186 -0.178,0.17 0.258,0.518 0.53,0.336 0.374,0.424 1.504,0.556 0.364,-0.016 0.358,0.56 0.29,0.192 0.278,0.098 -0.032,0.384 -0.496,0.282 -0.134,0.336 -0.124,0.188 -0.224,-0.238 -0.228,-0.174 -0.53,0.526 -0.256,0.112 0.126,-0.568 -0.2,-0.222 -0.302,-0.57 -0.442,-0.352 -0.312,-0.118 -0.242,-0.222 -0.294,-0.09 -0.25,0.024 -0.424,-0.13 -0.028,-0.304 -0.118,-0.228 -0.332,-0.268 -1.582,-0.508 -0.01,0.21 0.11,0.158 0.228,0.106 0.272,0.204 -0.002,0.606 -0.118,0.256 -0.05,0.364 -0.106,0.372 -0.194,0.292 -0.432,0.198 -0.19,-0.166 -0.308,-0.798 -0.436,-0.25 -0.692,-0.03 -0.47,0.18 -0.512,0.774 -0.414,0.126 -1.414,-0.4 -1.612,-0.612 0.042,-0.204 0.254,-0.066 0.488,0.084 -0.026,-0.21 -0.498,-0.684 -0.09,-0.308 0.064,-0.376 -0.162,0.008 -0.298,0.316 -1.028,-0.268 -0.284,-0.322 -0.604,-0.904 -0.852,-0.03 -0.386,-0.548 -0.698,0.23 -0.352,0.254 -0.31,0.394 0.12,0.204 0.31,0.324 -0.14,0.158 -0.994,0.23 -2.304,-0.258 -0.674,-0.242 -0.904,-0.512 -1.252,-0.416 -0.604,-0.068 -0.59,0.082 -1.72,0.042 -0.398,0.11 -0.34,0.178 -0.22,-0.196 -0.102,-0.35 0.2,-0.056 0.222,-0.206 0.2,-0.408 0.024,-0.248 -0.14,-0.16 -0.266,-0.016 -0.588,1.062 0.336,0.594 -0.022,0.214 -1.174,0.122 -2.666,1.194 -1.04,0.644 0.054,-0.216 1.256,-0.834 -0.444,-0.128 -0.714,0.208 -0.256,-0.08 0.302,-0.69 -0.098,-0.61 -0.508,-0.016 -0.324,0.486 -0.224,-0.02 -0.294,-0.208 -0.228,0.066 0.168,1.102 0.32,0.452 0.268,0.578 -0.73,0.71 -0.678,0.586 -0.074,0.566 -0.682,0.736 -0.64,0.418 -1.506,0.98 -0.43,0.208 -0.68,0.454 -0.936,0.34 -0.9,0.54 -0.302,0.082 0.574,-0.458 0.68,-0.452 -0.584,0.062 -0.9,-0.208 -0.55,-0.012 -0.002,0.166 -0.418,0.234 -0.434,-0.342 -0.188,-0.23 -0.09,-0.2 -0.184,-0.048 -0.176,0.092 0.648,1.4 0.276,0.06 0.304,0.138 -0.38,0.326 -0.41,0.248 -0.644,0.164 -0.544,-0.51 -0.118,0.64 -0.07,0.638 -0.182,0.164 -0.292,0.234 -0.158,-0.176 -0.076,-0.248 -0.188,0.22 -0.274,0.166 -0.452,0.034 -0.338,0.088 0.008,0.264 0.078,0.266 0.6,-0.21 -0.218,0.682 -0.552,0.674 -0.45,0.158 -0.688,-0.098 -0.17,0.068 -0.152,0.14 0.802,1.05 -0.516,1.582 -0.33,0.574 -0.228,0.074 -0.252,0.018 -0.888,-0.508 -0.484,-0.394 0.428,1.07 1.164,0.312 0.06,0.406 -0.006,0.344 -0.23,0.406 -0.214,0.538 0.158,0.374 0.184,0.926 0.158,0.424 0.172,1.286 0.184,0.556 1.058,2.044 0.356,0.016 0.056,0.22 -0.034,0.424 -0.76,0.124 -0.32,0.188 -0.062,0.164 -0.046,0.088 -0.098,-0.008 -0.362,-0.118 -0.826,-0.58 -1.202,-0.36 -1.58,-0.14 -1.08,-0.29 -0.58,-0.442 -0.604,-0.264 -0.63,-0.082 -0.524,-0.24 -0.414,-0.398 -0.606,-0.254 -0.798,-0.112 -0.52,-0.298 -0.36,-0.732 -0.002,-0.01 -0.324,-1.224 -0.408,-0.768 -0.792,-0.952 -0.072,-0.126 0,0 -0.006,-0.156 0.098,-0.554 -0.084,-0.4 -0.25,-0.326 -0.058,-0.344 0.136,-0.362 0.008,-0.436 -0.118,-0.51 -0.504,-0.552 -0.892,-0.592 -0.76,-0.868 -0.626,-1.142 -0.62,-0.792 -0.614,-0.442 -0.418,-0.54 -0.226,-0.638 -0.066,-0.37 0.092,-0.102 -0.376,-0.71 -0.846,-1.318 -0.486,-0.966 -0.126,-0.612 -0.538,-0.728 -0.952,-0.846 -0.516,-0.55 -0.126,-0.382 -0.002,0 -1.484,-1.116 -0.432,-0.698 -0.336,-0.22 -0.386,0.024 -0.198,-0.068 -0.01,-0.158 -0.126,-0.008 -0.242,0.144 -0.79,0.028 -1.338,-0.084 -0.966,-0.19 -0.594,-0.294 -0.416,0.04 -0.24,0.376 -0.508,0.242 -0.778,0.108 -0.668,0.696 -0.56,1.284 -0.246,0.824 0.068,0.368 -0.148,0.266 -0.364,0.166 -0.37,0.372 -0.376,0.578 -0.44,0.28 -0.502,-0.02 -0.928,-0.444 -1.352,-0.872 -1.06,-0.54 -0.768,-0.206 -0.678,-0.404 -0.588,-0.602 -0.542,-0.402 -0.496,-0.202 -0.58,-0.668 -0.664,-1.136 -0.332,-0.878 0,-0.928 -0.868,-2.026 -0.46,-0.88 -0.342,-0.406 -0.668,-0.484 -0.998,-0.564 -1.336,-1.128 -1.676,-1.698 -1.186,-1.024 -0.696,-0.348 -0.604,-0.614 -0.512,-0.88 -0.5,-0.562 -0.052,-0.026 -0.044,-0.012 -1.234,-0.008 -1.234,-0.008 -1.234,-0.008 -1.234,-0.006 -1.234,-0.008 -1.234,-0.006 -1.234,-0.008 -1.234,-0.008 -0.004,0.738 -0.02,0.744 -0.002,0.736 -0.004,0.736 -1.984,0.004 -1.984,0.004 -1.984,0.004 -1.984,0.004 -1.984,0.004 -1.984,0.004 -1.984,0.004 -1.984,0.004 -2.662,-0.968 -2.662,-0.97 -2.662,-0.972 -2.662,-0.974 -2.662,-0.974 -2.662,-0.976 -2.662,-0.978 -2.662,-0.98 0.268,-0.374 0.356,-1 -0.642,0.072 -1.606,0.142 -1.606,0.142 -1.606,0.142 -1.606,0.142 -1.606,0.142 -1.606,0.142 -1.606,0.142 -1.606,0.142 -0.012,-0.042 -0.04,-0.726 -0.26,-0.256 -0.334,0.158 -0.152,-0.944 0.084,-0.446 -0.04,-0.436 -0.314,-1.074 -0.834,-1.304 -1.802,-1.626 -0.918,-0.544 -0.72,-0.688 -0.458,-0.192 -0.576,-0.052 -0.166,0.31 -0.652,-0.212 0.098,-0.77 -0.636,-1.072 -0.52,-0.12 -1.31,0.072 -1.75,-0.59 -0.516,-0.352 -0.178,-0.63 -0.82,-0.548 -1.08,-0.538 -0.602,0.126 -0.786,-0.084 -1.122,-0.388 -0.654,-0.048 -1.274,0.114 -0.476,-0.082 -0.442,-0.49 -0.476,-0.246 0.1,-0.604 -0.06,-0.546 0.072,-0.426 -0.214,-0.934 0.166,-0.868 -0.144,-0.314 -0.27,-0.242 -0.844,-0.356 -0.154,-0.446 0.138,-0.62 -0.22,-0.41 -0.692,-0.382 -0.646,-0.868 -0.82,-0.476 -0.336,-0.798 -0.504,-0.494 -0.176,-0.438 -1.12,-1.566 -1.196,-1.226 -0.184,-0.708 -0.046,-0.97 0.468,-0.592 0.252,-0.522 -0.026,-0.478 -0.072,-0.352 -0.412,-0.612 -1.592,-0.364 -1.294,-1.518 -0.076,-1.164 -0.508,-1.192 -0.006,-0.778 -0.078,-0.842 0.386,-0.184 0.344,0.068 -0.034,0.334 0.116,0.602 0.406,0.452 0.386,0.198 0.352,0.438 0.264,0.132 0.272,0.032 -0.146,-0.282 -0.156,-0.18 -0.19,-0.584 -0.36,-0.746 -0.414,-0.412 -0.21,-0.752 -0.18,-0.174 -0.112,-0.28 0.4,-0.332 0.546,-0.236 0.732,-0.064 2.076,0.112 0.442,-0.194 0.366,0.062 0.268,-0.024 -0.564,-0.2 -0.316,0.066 -0.374,-0.042 -0.742,0.04 -0.3,-0.084 -0.33,-0.236 -0.216,-0.024 -0.686,0.412 -0.306,-0.05 -0.724,-0.45 -0.316,-0.064 -0.508,0.256 -0.062,1.102 0.158,0.818 -0.304,0.084 -0.354,-0.336 -0.542,-0.2 -0.448,-0.306 -0.632,-0.57 -0.332,-0.208 -0.376,0.474 -0.014,-0.218 0.186,-0.552 -0.052,-0.926 0.566,0.74 -0.176,-0.52 -0.44,-0.574 -0.334,-0.2 -0.42,-1.028 -0.946,-0.618 -0.758,-1 -1.552,-1.662 -0.102,-1.464 -0.566,-1.858 0.238,-1.06 -0.032,-0.752 -0.278,-1.14 -0.29,-0.62 -1.258,-1.706 -1.21,-1.152 -0.182,-0.874 -0.084,-0.882 0.264,-0.786 0.23,-0.83 0.166,-0.22 0.066,0.092 -0.046,0.176 0.172,0.054 0.066,-0.366 0.102,-0.188 -0.18,-0.024 0.018,-0.116 0.108,-0.232 0.376,-1.092 -0.04,-1.38 0.402,-1.698 -0.02,-0.562 -0.256,-1.212 -0.256,-0.728 -0.456,-0.516 0.202,-0.756 -0.016,-0.722 -0.806,-1.042 -0.308,-1.37 -0.058,-0.58 0.08,-1.536 -0.21,-0.658 -0.538,-1.086 0.23,-0.946 0.248,-0.578 0.606,-2.526 0.146,-0.206 0.252,0.006 0.442,-0.43 -0.204,-0.1 -0.308,0.206 0.274,-1.004 0.308,-0.862 0.2,-0.31 0.102,-2.824 0.176,-2.17 0.29,-0.718 -0.102,-0.742 0.118,-1.006 -0.084,-1.02 0.622,-4.938 -0.082,-0.6 0.19,-0.806 -0.178,-2.13 0.08,-2.396 -0.158,-0.306 -0.08,-0.332 0.148,-0.05 0.288,0.35 1.336,-0.004 0.852,-0.324 0.31,0.106 0.36,0.44 0.454,0.088 0.566,-0.078 -0.172,-0.11 -0.266,-0.03 -0.596,-0.406 -0.338,-0.406 -1.042,0.028 -0.212,-0.26 -1.164,0.26 -0.36,-0.266 -0.634,0.172 0.156,-0.756 -0.028,-0.956 0.034,-0.932 0.156,0.68 0.394,0.722 0.19,-0.818 0.13,-1.032 -0.384,-0.396 -0.64,-0.294 -0.23,-0.964 1.514,-0.824 -0.804,-0.174 -0.316,-0.37 -0.39,-0.046 -0.03,0.286 -0.126,0.374 -0.136,-0.498 -0.04,-0.586 -0.16,-1.002 -0.62,-1.618 -0.376,-2.106 -0.472,-1.044 -0.904,-1 -0.236,-0.584 -0.216,-1.486 0.122,-1.128 -0.168,-0.796 0.434,0.046 1.142,0.626 1.422,0.49 0.43,0.356 0.69,0.264 3.824,0.41 0.25,-0.04 0.494,-0.254 0.21,0.032 0.562,0.582 0.282,0.07 0.366,-0.03 0.27,-0.11 0.462,-0.398 0.062,0.148 -0.008,0.37 0.164,0.526 0.338,0.68 0.128,0.422 -0.684,1.188 -0.13,0.026 -0.02,-0.402 -0.09,-0.08 -1.288,2.004 -0.452,0.946 -0.044,0.426 0.016,0.25 0.18,0.062 0.412,-0.098 0.61,-0.392 0.03,-0.086 -0.568,0.14 -0.272,0.012 0.038,-0.448 0.064,-0.212 0.372,-0.664 0.39,-0.398 0.554,-0.424 0.32,-0.35 0.22,-0.512 0.616,-0.612 0.114,-0.17 -0.026,-0.504 0.038,-0.096 0.298,0.068 0.124,0.868 -0.074,0.386 -0.532,0.47 -0.066,0.166 0.092,0.642 -0.082,0.062 -0.202,-0.076 -0.062,0.042 0.502,0.696 0.16,0.54 0.022,0.482 -0.136,0.922 -0.146,0.154 -0.25,-0.056 -0.332,-0.288 -0.074,0.092 -0.264,0.716 -0.086,-0.062 -0.164,-0.85 -0.09,-0.064 -0.51,0.388 -0.206,0.372 -0.176,0.592 -0.224,0.278 0.636,0.06 0.574,-0.12 0.46,0.282 0.156,0.008 0.42,-0.276 0.128,-0.186 0.348,-0.894 0.174,-0.16 0.258,-0.006 0.25,-0.134 0.372,-0.492 0.016,-0.196 -0.136,-1.102 0.04,-0.626 -0.07,-0.198 -0.166,-0.206 0.02,-0.2 0.13,-0.33 0.01,-0.298 -0.112,-0.266 0.05,-0.302 0.352,-0.652 0.066,-0.288 0.428,-0.65 -0.108,-0.262 -0.316,-0.32 -0.2,-0.282 -0.2,-0.44 -0.152,-0.148 -0.05,0.068 0.214,0.72 -0.046,0.048 -0.556,-0.388 -0.13,-0.246 -0.068,-0.334 0.048,-0.25 0.3,-0.248 0.358,-0.09 -0.03,-0.208 -0.448,-0.676 -0.298,-0.308 -0.23,-0.15 -0.31,-0.04 -0.138,-0.11 -0.036,-0.158 0.066,-0.208 0.166,-0.068 0.478,0.084 0.258,-0.148 -0.024,-0.27 -0.078,-0.15 0.012,-0.968 -0.182,-0.788 -0.094,-0.134 -0.102,-0.014 -0.108,0.106 -0.3,0.028 -0.186,-0.258 -0.206,-0.5 -0.372,-1.192 0.576,0 2.394,0 2.392,0 2.394,0 2.394,0 2.392,0 2.394,0 2.394,0 2.394,0 2.392,0 2.394,0 2.394,0 2.392,0 2.394,0 2.394,0 2.394,0 2.392,0 2.394,0 2.394,0 2.392,0 2.394,0 2.394,0 2.394,0 2.392,0 2.394,0 2.394,0 2.392,0 2.394,0 2.394,0 2.394,0 2.392,0 2.394,0 2.394,0 2.392,0 2.394,0 2.394,0 2.394,0 2.392,0 2.394,0 2.394,0 2.392,0 2.394,0 2.394,0 2.392,0 2.394,0 2.394,0 2.394,0 2.392,0 2.394,0 2.394,0 2.392,0 2.394,0 2.394,0 2.394,0 2.388,0 2.394,0 2.394,0 2.392,0 2.394,0 2.394,0 2.394,0 2.392,0 2.394,0 2.394,0 2.392,0 1.324,0.012 0.022,-1.806 0.016,-1.428 1.212,0.174 0.362,0.26 0.116,0.124 -0.034,0.394 0.1,1.194 0.22,0.992 0.508,1.19 0.002,0.002 0.042,0.464 0.166,0.29 0.306,0.27 1.16,0.326 2.014,0.382 1.142,0.438 0.27,0.494 0.538,0.198 0.806,-0.096 0.564,-0.206 0.482,-0.46 z m -165.046,-0.476 0.074,0.184 -0.226,0.18 -0.16,0.028 -0.256,-0.288 -0.112,-0.036 0.09,0.444 -0.032,0.152 -0.522,-0.272 -0.096,-0.216 0.146,-0.228 0.33,-0.236 0.114,-0.028 0.65,0.316 z m -1.296,1.454 0.148,0.278 -0.604,-0.178 -0.254,-0.16 -0.076,-0.156 -0.09,-0.51 0.042,-0.166 0.27,-0.058 0.504,0.632 0.06,0.318 z m 1.078,0.586 -0.088,0.084 -0.3,-0.11 -0.176,-0.188 -0.06,-0.234 0.112,-0.45 0.15,-0.116 0.094,0.026 0.04,0.396 0.266,0.418 -0.038,0.174 z m 1.394,2.312 0.274,1.098 0.118,-0.458 0.764,0.792 0,0.39 -0.092,0.13 -0.16,0.046 -0.146,-0.114 -0.134,-0.274 -0.172,-0.144 -0.366,-0.092 -0.19,-0.312 -0.066,-0.212 -0.018,-0.616 -0.092,-0.192 -0.194,-0.042 -0.186,-0.146 -0.288,-0.432 -0.04,-0.116 0.136,-0.352 0.312,-0.59 0.226,-0.28 0.14,0.03 0.174,0.178 0.208,0.324 -0.04,0.228 -0.84,0.446 -0.028,0.104 0.408,0.126 0.15,0.112 0.142,0.368 z m 188.694,1.93 -0.028,0.138 0.204,0.042 -0.038,0.07 -0.222,0.126 -0.628,0.256 -0.42,0.082 -0.216,-0.092 -0.022,-0.17 0.17,-0.25 0,-0.124 -0.174,0 0.042,-0.1 0.258,-0.198 2.196,-1.262 0.938,-0.46 0.5,-0.146 0.08,0.072 -0.542,0.476 -0.086,0.194 0.02,0.13 -0.178,0.25 -1.606,0.884 -0.248,0.082 z m -188.27,2.758 -0.03,0.16 -0.31,-0.19 -0.102,-0.176 0.012,-0.394 0.078,-0.256 0.058,-0.052 0.182,0.112 0.052,0.066 0.06,0.73 z m 0.578,1.652 -0.026,0.188 -0.214,0.146 -0.112,-0.038 -0.008,-0.222 -0.058,-0.034 -0.232,0.266 0.018,-0.526 0.114,-0.554 0.1,-0.01 0.148,0.364 0.27,0.42 z m 191.808,1.524 -0.104,0.266 0.02,0.16 -0.682,0.704 -0.248,0.444 -0.206,0.07 -0.166,-0.302 0,-0.244 0.168,-0.184 0.166,-0.262 0.02,-0.362 -0.064,-0.132 -0.208,0.326 0.116,0.07 0.034,0.056 -0.04,0.118 -0.784,-0.174 -0.234,-0.254 0.04,-0.354 0.262,-0.454 0.942,-0.962 0.416,-0.268 1.18,-0.424 0.65,-0.098 0.654,0 0.474,0.14 0.294,0.278 -0.278,0.184 -1.292,0.158 -0.036,0.05 0.248,0.152 0.046,0.108 -0.228,0.282 -1.16,0.908 z m -194.384,0.048 -0.054,0.162 -0.08,-0.008 -0.176,-0.33 -0.022,-0.232 0.15,-0.168 0.202,0.482 -0.02,0.094 z m 182.008,1.47 -0.184,0.128 -0.07,-0.06 0.044,-0.252 0.092,-0.146 0.142,-0.042 0.07,0.062 -0.002,0.164 -0.092,0.146 z m -1.578,0.808 -0.084,0.058 -0.214,-0.138 -0.03,-0.114 0.058,-0.114 0.1,0.026 0.14,0.166 0.03,0.116 z m 0.906,0.066 -0.188,0.046 -0.402,-0.072 0.006,-0.12 0.418,-0.166 0.186,-0.046 0.044,0.07 -0.064,0.288 z m -0.92,1.112 -0.322,0.112 -0.134,-0.02 0.054,-0.154 0.166,-0.184 0.748,-0.46 0.13,0.008 0.04,0.11 -0.362,0.226 -0.136,0.12 -0.016,0.126 -0.168,0.116 z m 36.92,3.428 0,0.174 -0.172,-0.04 -0.144,-0.118 -0.116,-0.196 -0.144,-0.49 -0.22,-0.348 0.33,-0.394 0.198,-0.046 0.212,0.088 0.03,0.23 -0.156,0.372 0.008,0.38 0.174,0.388 z m 0.068,0.942 -0.08,0.044 -0.282,-0.316 -0.06,-0.194 0.042,-0.162 0.108,-0.008 0.176,0.148 0.1,0.172 0.022,0.196 -0.026,0.12 z m 3.464,1.88 0.054,0.18 -0.136,0.264 -0.394,0.134 -0.8,-0.014 -0.518,-0.102 -0.238,-0.188 -0.052,-0.098 0.022,-0.21 0.116,-0.014 0.17,0.114 0.254,-0.048 0.338,-0.212 0.178,-0.16 0.016,-0.106 -0.108,-0.204 0.086,-0.086 0.424,0.08 0.158,0.132 0.286,0.456 0.144,0.082 z m -5.914,1.548 0.718,0.112 0.07,-0.062 0.204,0.212 0.032,0.18 -0.086,0.15 -0.126,0.084 -0.162,0.014 -0.26,-0.152 -0.424,-0.404 0.034,-0.134 z m -5.582,1.748 -0.192,0.04 -0.146,-0.094 0.024,-0.376 0.196,-0.656 0.192,-0.3 0.26,0.122 -0.052,0.08 0.052,0.7 -0.094,0.306 -0.24,0.178 z m -7.354,1.996 -0.168,0.08 -0.308,-0.028 -0.112,-0.18 0.162,-0.458 0.066,0.084 0.268,0.006 0.092,0.044 0.03,0.114 -0.03,0.338 z m -0.73,0.884 -0.104,0.102 -0.174,-0.068 -0.068,0.15 0.04,0.366 -0.058,0.168 -0.154,-0.028 -0.008,0.068 0.136,0.162 0.014,0.178 -0.106,0.194 -0.104,0.09 -0.098,-0.014 -0.154,0.22 -0.208,0.454 -0.072,0.262 0.066,0.072 -0.048,0.152 -0.518,0.688 -0.2,0.066 -0.218,-0.096 -0.154,-0.2 -0.09,-0.306 -0.026,-0.236 0.036,-0.168 0.456,-0.61 0.202,-0.398 0.116,-0.448 0.21,-0.286 0.308,-0.124 0.25,-0.278 0.19,-0.434 0.22,-0.188 0.248,0.056 0.108,0.164 -0.038,0.27 z m 5.7,1.102 -0.066,0.112 -0.156,-0.01 -0.124,-0.108 -0.122,-0.35 0.04,-0.076 0.302,0.05 0.106,0.148 0.02,0.234 z m 99.85,6.06 -0.328,0.152 -0.358,-0.066 0.008,0.412 -0.04,0.148 -0.396,-0.212 -0.146,-0.136 0.012,-0.546 0.35,-0.518 0.268,-0.206 0.344,0.142 0.264,0.58 0.022,0.25 z m -44.478,0.43 -0.176,0.064 -0.042,-0.092 0.028,-0.086 0.146,-0.108 0.246,0 -0.028,0.086 -0.174,0.136 z m 42.03,0.636 -0.212,0.154 -0.228,-0.05 -0.008,-0.384 0.07,-0.13 0.078,-0.058 0.118,0.108 0.182,0.36 z m -42.876,1.602 -0.084,0.024 0.008,-0.166 0.086,-0.108 0.164,-0.048 -0.004,0.084 -0.17,0.214 z m -14.974,7.464 -0.172,0.262 -0.166,-0.026 -0.122,-0.084 -0.042,-0.166 0.03,-0.208 0.148,-0.092 0.402,0.08 0.014,0.084 -0.092,0.15 z m 43.156,11.564 -0.278,0.204 -0.31,-0.036 0.158,-0.276 0.06,-0.406 0.154,-0.446 0.088,-0.136 0.182,-0.12 -0.054,1.216 z m -0.696,0.05 -0.156,0.138 -0.058,-0.36 0.11,-0.416 0.11,-0.008 0.056,0.22 -0.062,0.426 z m 4.8,0.812 -1.546,0.364 -0.246,-0.234 0.386,-0.11 0.486,-0.558 0.324,-0.064 0.508,0.316 0.088,0.286 z m 2.986,0.826 -0.432,0.12 -1,-0.274 0.822,-0.232 0.134,-0.082 0.108,-0.342 0.014,-0.172 0.312,0.736 0.042,0.246 z m -14.21,2.076 -0.398,0.478 0.36,0.048 0.31,-0.14 0.292,-0.284 0.682,-0.384 0.582,-0.168 0.182,-0.036 0.278,0.27 0.55,-0.216 0.566,-0.122 -2.446,1.234 -0.5,0.138 -0.716,0.368 -0.676,0.26 -0.486,0.094 -2.422,0.912 -0.192,0.02 -0.208,-0.088 -1.996,0.468 -0.818,0.052 -0.746,0.164 0.552,-0.378 0.012,-0.142 -0.132,-0.11 -0.294,0.032 -0.302,0.388 -0.482,0.13 -0.096,-0.422 0.162,-0.328 0.218,-0.312 0.478,-0.49 0.686,-0.31 0.348,-0.268 0.242,0.236 0.052,-0.32 0.186,-0.184 0.202,-0.1 0.484,-0.002 0.262,-0.05 0.188,-0.106 0.194,-0.02 0.532,0.146 0.518,-0.042 0.418,-0.2 0.436,-0.068 1.15,-0.044 1.142,-0.146 0.458,-0.26 0.96,-0.732 0.552,-0.204 -0.86,0.85 -0.464,0.388 z m -9.42,3.418 -0.268,0.03 0.268,-0.706 0.492,-0.324 0.178,0.068 0.006,0.25 -0.068,0.212 -0.33,0.33 -0.278,0.14 z m 0.308,6.156 -0.658,1.098 -0.014,-0.21 0.822,-1.364 -0.15,0.476 z m -6.736,12.854 -0.256,0.116 0.856,-1.42 0.498,-1.194 0.222,-0.414 -0.216,0.836 -0.376,0.768 -0.728,1.308 z m -1.698,14.2 -0.084,0.14 -0.374,-0.762 0.384,0.246 0.068,0.206 0.006,0.17 z m 0.514,4.23 -0.752,0.186 -0.066,-0.06 0.862,-0.39 0.272,-1.376 0.038,-0.636 -0.128,-1.124 0.004,-0.232 0.14,0.362 0.124,1.048 -0.046,0.792 -0.25,1.154 -0.198,0.276 z m -1.334,0.342 -1.02,0.488 -0.116,-0.03 0.67,-0.348 0.466,-0.11 z m -4.052,3.728 -0.14,0.078 0.514,-0.848 1.014,-1.078 0.274,-0.166 -0.844,0.92 -0.818,1.094 z m -0.238,-0.08 -0.126,0.016 -0.22,-0.074 -0.304,-0.144 -0.068,-0.106 0.29,0.038 0.428,0.27 z m -243.246,3.894 1.142,0.346 0.616,-0.166 0.112,0.166 -0.072,0.146 -1.388,0.26 -0.426,-0.182 -0.038,-0.25 -0.144,-0.24 0.198,-0.08 z m -2.38,0.368 -0.298,0.018 -0.46,-0.072 0.162,-0.158 0.254,-0.114 0.082,0.086 0.26,0.24 z m 1.476,0.716 -0.394,0.094 -0.298,-0.088 -0.476,-0.644 1.01,-0.086 0.436,0.28 0.058,0.078 -0.336,0.366 z m 9.518,3.578 0.284,0.492 -0.408,-0.06 -0.426,0.028 -0.13,-0.268 -0.126,-0.374 -0.086,-0.094 -0.292,-0.034 -0.022,-0.034 -0.034,-0.182 0.082,-0.086 0.916,0.416 0.242,0.196 z m -6.12,1.126 -0.25,0.012 -0.344,-0.062 -0.176,-0.36 0.282,-0.024 0.26,0.05 0.206,0.282 0.022,0.102 z m 6.106,2.596 -0.328,0.06 -0.362,-0.136 -0.312,-0.642 -0.344,-0.502 0.186,-0.144 0.278,0.484 0.698,0.736 0.184,0.144 z m 207.294,12.212 -0.25,1.586 -0.108,-0.562 -0.01,-0.544 0.188,-0.324 0.18,-0.156 z m -37.34,4.668 -0.494,0.138 -0.732,-0.014 -0.148,-0.048 0.292,-0.092 0.868,-0.124 0.214,0.14 z m -2.73,0.236 -0.072,0.072 -0.498,-0.134 -0.302,-0.126 -0.054,-0.126 0.834,0.226 0.092,0.088 z m -3.74,0.85 0.02,0.3 -0.276,-0.15 -0.408,-0.014 0.18,-0.102 0.126,-0.1 0.064,-0.108 0.514,-0.374 -0.146,0.274 -0.074,0.274 z m 2.226,1.782 -0.158,0.206 0.156,-0.982 -0.218,-0.828 0.23,0.364 0.076,0.432 -0.086,0.808 z m -0.346,0.612 -0.304,0.336 0.014,-0.128 0.224,-0.336 0.16,-0.132 -0.094,0.26 z m 22.348,0.45 -0.564,0.232 -0.61,-0.168 0.378,-0.032 0.274,0.068 0.694,-0.332 0.364,-0.25 0.42,-0.094 -0.956,0.576 z m -38.65,0.91 -0.208,0.092 -0.928,-0.556 -0.058,-0.238 0.458,-0.216 0.28,0.02 0.442,0.284 0.162,0.078 0.076,0.114 -0.042,0.178 -0.182,0.244 z m -18.22,2.274 -0.28,0.062 1.224,-0.984 0.256,-0.328 0.328,0.014 -0.546,0.55 -0.982,0.686 z m -9.682,6.32 -0.206,0.026 0.256,-0.342 0.416,-0.172 0.912,-0.658 0.372,-0.046 0.194,-0.226 0.084,-0.034 -0.054,0.278 -0.732,0.396 -1.242,0.778 z m -1.402,1.588 -0.122,0.016 0.272,-0.518 0.05,-0.208 0.446,-0.656 0.236,-0.098 0.098,0.28 -0.458,0.46 -0.522,0.724 z m 94.452,3.926 0.092,0.462 -0.516,-1.074 -0.638,-1.686 -0.34,-1.306 0.23,0.354 0.226,0.73 0.946,2.52 z m -96.356,-0.136 -0.176,0.362 0.048,-0.538 0.456,-1.226 0.926,-1.614 0.39,-0.27 -1.068,1.77 -0.576,1.516 z m 1.026,7.13 -0.078,0.29 -0.464,-1.35 -0.756,-3.064 -0.028,-1.752 0.12,-0.604 0.194,2.476 0.836,3.13 0.176,0.874 z m 84.684,-2.448 -0.008,0.366 -0.284,-0.614 -0.188,-0.68 0.27,0.22 0.21,0.708 z m 0.26,0.616 -0.2,0.164 -0.406,-0.12 -0.22,-0.214 -0.096,-0.418 0.352,0.444 0.126,0.1 0.444,0.044 z m 9.292,8.132 -1.116,1.158 0.124,-0.29 0.436,-0.62 0.14,-0.292 0.294,-0.184 0.274,-0.334 0.02,-0.392 0.398,-0.274 0.13,-0.04 -0.7,1.268 z m -1.44,1.472 -0.15,0.03 0.222,-0.262 0.062,0.02 -0.134,0.212 z m -1.072,0.612 -0.106,0 0.052,-0.088 0.222,-0.174 0.08,0.068 -0.008,0.088 -0.24,0.106 z m -1.206,0.534 -0.256,0.146 -0.266,-0.108 0.292,-0.146 0.87,-0.156 -0.328,0.194 -0.312,0.07 z m -1.63,0.408 -0.168,0.126 -0.08,-0.04 0,-0.184 -0.24,-0.408 0.008,-0.106 0.548,0.398 0.014,0.108 -0.082,0.106 z m -1.302,0.31 -0.364,0.06 0.294,-0.242 0.094,-0.368 0.172,0.286 -0.002,0.174 -0.194,0.09 z m -1.22,0.34 -0.142,0.014 -0.012,-0.094 0.246,-0.116 0.164,0.008 -0.006,0.128 -0.25,0.06 z m -435.504004,15.868 -0.494,0.338 -0.288,-0.146 -0.544,-0.054 -0.21,-0.254 -0.57,-0.23 -0.23,-0.312 0.35,-0.592 0.828,-0.5 1.276,0.022 0.266,0.394 0.024,0.294 -0.166,0.33 -0.076,0.464 -0.166,0.246 z m -4.532,0.548 -0.114,0.266 -0.194,-0.042 -0.048,-0.236 0.126,-0.326 0.32,-0.282 0.356,-0.428 0.292,0.064 -0.158,0.282 -0.018,0.304 -0.412,0.172 -0.15,0.226 z m 13.364,2.31 0.192,0.034 0.248,-0.042 0.086,0.478 0.288,0.264 0.106,0.158 -0.312,0.166 -0.606,0.066 -0.284,-0.132 -0.294,-0.298 -0.318,0.082 -0.056,-0.24 -0.056,-0.07 -0.218,0.064 0.204,0.31 -0.552,0.024 -0.174,-0.038 -0.154,-0.35 -0.568,-0.672 0.002,-0.262 -0.194,-0.312 0.842,-0.09 0.576,-0.55 0.326,-0.058 0.624,0.888 -0.016,0.248 0.138,0.244 0.17,0.088 z m 3.286,1.444 1.186,0.164 0.28,-0.07 0.198,0.134 0.982,0.084 0.168,0.05 -0.2,0.308 -0.628,0.282 -0.904,-0.248 -1.512,-0.088 0.062,-0.238 0.144,-0.168 0.022,-0.294 0.202,0.084 z m 4.08,1.692 0.146,0.106 0.598,-0.16 0.432,-0.058 0.724,0.394 0.252,0.27 0.476,0.288 0.162,0.208 -0.132,0.252 -0.526,0.416 -0.716,0.096 -0.422,0.178 -0.554,-0.038 -0.166,-0.076 -0.06,-0.528 -0.176,-0.566 -0.358,0.066 -0.402,-0.19 -0.416,-0.476 -0.046,-0.284 0.23,-0.452 0.402,-0.058 0.298,0.25 0.254,0.362 z m -2.036,0.956 -0.332,0.168 -0.362,-0.078 -0.084,-0.408 -0.348,-0.518 0.612,-0.106 0.344,0.15 0.18,0.162 0.218,0.278 -0.228,0.352 z m 7.12,10.446 -0.248,0.284 -0.31,-0.022 -1.126,-0.608 -0.136,-0.326 0.084,-1.518 -0.422,-1.232 -0.464,-0.944 0.338,-0.484 0.446,-0.376 0.498,-0.708 -0.408,-0.91 0.104,-0.55 0.24,-0.094 1.176,0.668 2.376,1.004 0.632,0.706 0.112,0.756 0.432,0.096 0.206,0.518 0.624,0.454 0.208,0.258 -0.258,0.416 -1.14,0.798 -1.438,0.348 -1.266,0.892 -0.26,0.574 z" title="United States" id="US"></path></svg>