<svg xmlns="http://www.w3.org/2000/svg" width="96.35" height="62.61"><path d="m 84.06,25.7 0.182,-0.134 0.32,-0.136 0.528,0.262 0.462,0.33 0.112,0.152 -0.022,0.176 -1.102,0.642 -0.684,0.3 -0.302,0.054 -0.082,0.084 -0.216,0.73 -0.424,0.13 -0.544,0.222 -0.38,0.336 -0.606,0.792 -1.54,1.15 -0.022,0.234 0.134,0.19 0.5,0.132 0.66,0.352 0.358,0.276 0.978,-0.356 0.242,0.078 0.256,0.368 0.27,1.028 0.438,0.28 0.574,0.214 0.356,0.07 0.474,0.252 0.632,0.094 0.424,-0.092 0.53,0.216 0.086,-0.094 0.07,-1.532 0.444,0.256 0.256,-0.004 0.224,-0.188 0.116,-0.254 0.076,-0.506 -0.098,-0.506 0.198,-0.232 0.154,-0.052 0.114,0.062 0.068,0.13 0.02,0.458 0.32,0.194 0.196,0.112 0.186,0.388 0.182,0.37 0.116,0.866 0.45,0.06 0.528,0.166 0.354,-0.162 0.274,0.096 0.094,0.41 -0.002,0.382 0.04,0.304 0.142,0.086 0.46,-0.19 0.386,-0.026 0.356,0.182 0.442,0.276 0.642,0.724 0.212,0.104 0.968,0.056 0.202,0.148 0.332,0 0.36,-0.13 0.798,0.234 0.026,0.132 -0.134,0.182 -1.902,1 -0.14,0.308 -0.388,0.39 -0.424,0.222 -0.206,0.008 -0.93,-0.396 -0.108,0.096 -0.076,0.16 0.004,0.174 0.204,0.416 -0.094,0.262 -0.178,0.19 -0.582,-0.166 -0.108,-0.106 -0.012,-0.116 -0.224,0 -0.346,0.116 -0.666,0.718 -0.232,0.376 -0.086,0.226 -0.296,0.128 -0.322,0.048 -0.416,0.338 -0.452,0.262 -0.144,-0.192 -0.088,-0.214 -0.12,-0.068 -0.278,0.05 -0.336,0.008 -0.354,-0.242 -0.458,-0.244 -0.4,-0.086 -1.18,0.114 -0.584,0.12 -0.184,0.118 -0.328,0.032 -1.382,0.246 -0.282,-0.096 -0.208,-0.388 -0.182,-0.42 -0.358,-0.152 -0.402,-0.118 -0.15,-0.168 -0.01,-0.204 0.042,-0.2 0.032,-0.104 0.932,-0.804 0.84,-0.724 0.078,-0.058 0.076,-0.138 0.142,-0.25 0,-0.13 -0.628,-0.288 -0.024,-0.132 0.126,-0.136 0,-0.182 -0.444,-0.532 -0.768,-0.83 -0.222,-0.086 -0.164,0.054 -0.3,0.802 -0.15,0.204 -0.876,0.526 -0.732,0.362 -1.304,0.642 -0.34,0.202 -0.236,-0.036 -0.236,-0.126 -0.732,-0.65 -0.472,-0.222 -0.318,0.22 -0.268,0.32 0.026,0.658 -0.302,0.346 -0.302,0.156 0.55,1.758 -0.054,0.226 -0.42,0.062 0.308,0.66 -0.26,0.076 -0.662,-0.154 -0.89,-0.102 -1.68,0.292 -0.124,0.114 -0.046,0.146 0.098,0.132 0.814,0.014 0.796,-0.066 0.22,0.122 0.034,0.216 -0.092,0.136 -0.266,0.024 -0.582,0.13 -0.066,0.138 -0.02,0.132 0.198,0.382 0.22,0.244 0.028,0.144 -0.092,0.122 -0.112,0.048 -0.196,-0.18 -0.112,0.036 -0.054,0.164 -0.054,0.192 -0.128,0.14 -0.272,-0.074 -0.27,0.054 -0.16,0.696 -0.136,0.788 -0.444,0.524 -0.246,0.19 -0.362,0.056 -0.538,-0.064 -0.326,-0.078 -0.944,-0.116 -0.946,-0.214 -1.064,-0.2 -0.99,0.462 -0.286,0.282 -0.182,0.264 -0.186,0.122 -0.43,1.616 0.044,0.184 0.238,0.144 1.214,0.334 0.178,0.138 0.106,0.158 0.052,0.724 0.1,0.1 0.416,0.09 0.602,-0.006 0.472,-0.072 0.474,0.066 0.332,0.156 0.162,0.246 0.09,0.266 -0.564,1.586 0.046,0.576 0.174,0.824 0.32,0.646 0.602,0.63 0.458,0.404 0.096,0.19 0.024,0.294 -0.074,0.376 -0.264,0.596 -0.324,0.52 -0.35,0.22 -0.486,0.66 -0.43,0.81 -0.826,1.06 -0.278,0.59 -0.092,1.702 -0.218,0.51 -0.034,-0.194 -0.298,-0.194 -0.52,0.034 -0.342,-0.092 -0.164,-0.218 -0.424,0.062 -0.684,0.338 -0.698,-0.18 -0.71,-0.7 -1.354,-0.256 -1.714,0.16 -0.064,-0.776 0.004,-0.99 0.078,-1.318 0.584,-1.036 -0.018,-0.198 -0.114,-0.19 -0.178,-0.17 -1.038,-0.286 -0.304,-0.15 -0.402,-0.328 -0.508,-0.344 -0.442,-0.238 -0.694,-0.314 -0.64,-0.174 -0.376,0.132 -0.346,0.168 -0.324,0.004 -0.324,-0.092 -1.2,-0.786 -1.812,-1.36 -1.436,-0.952 -0.902,-0.456 -0.214,-0.146 -0.506,-0.428 -1.244,-1.156 -0.826,0.17 -1.18,-0.752 -1.06,-0.736 -0.24,-0.2 -1.206,-1.364 -1.204,-0.886 -1.312,-0.968 -0.848,-0.608 -1.438,-1.032 -0.704,-0.624 -0.238,-0.23 -0.232,-0.442 -0.376,-2.166 -0.432,-0.996 -0.616,-0.542 -0.524,-1.046 -0.436,-1.554 -0.36,-1.012 -0.286,-0.468 -0.576,-0.518 -0.874,-0.568 -0.828,-0.27 -0.298,0.01 -0.148,0.07 -0.168,0.096 -0.328,0.424 -0.484,0.044 -0.356,-0.01 -0.332,-0.152 -1.048,-0.134 -0.372,-0.148 -0.63,0.022 -1.354,0.22 -0.33,-0.04 -1.43,-0.948 -0.622,-0.376 -0.124,-0.208 0.006,-0.364 0.21,-0.516 0.18,-0.366 -0.08,-0.38 -0.272,-0.416 0,-0.444 0.186,-0.248 0.38,0.078 0.136,-0.156 -0.048,-0.236 -0.206,-0.168 -0.274,-0.378 -0.81,-0.352 -0.116,-0.144 0.042,-0.164 0.14,-0.176 0.028,-0.372 0.014,-0.48 0.108,-0.25 0.03,-0.196 -0.118,-0.158 -0.274,-0.184 -0.438,-0.446 -0.538,-0.048 -1.75,0.016 -0.542,-0.18 -0.436,-0.25 -0.436,-0.952 -0.22,-0.226 -0.206,-0.094 -0.49,-0.032 -0.59,-0.092 -0.302,-0.162 -0.824,-0.872 -0.792,-0.78 -0.318,0.736 -0.308,0.146 -0.698,-0.068 -0.524,-0.124 -0.298,0.166 -0.308,0.29 0.058,0.192 0.236,0.202 0.474,0.374 0.726,0.914 0.33,0.504 0.048,0.176 -0.062,0.132 -0.098,0.056 -0.144,-0.002 -0.194,-0.002 -0.112,-0.15 -0.038,-0.26 -0.242,-0.394 -0.25,-0.228 -0.274,-0.142 -0.384,-0.106 -0.506,-0.188 -0.262,-0.008 -0.254,0.218 -0.212,0.294 -0.126,0.642 -0.378,0.788 -0.232,0.31 -0.72,0.188 -1.708,0.064 -0.51,0.246 -0.348,0.296 -0.646,0.958 -0.45,0.318 -0.39,0.438 0.118,1.404 0.188,1.634 0.328,0.452 0.208,0.136 0.028,0.16 -0.134,0.142 -0.172,0.178 -0.26,0.326 -0.292,-0.012 -0.588,-0.082 -0.49,-0.088 -1.648,-0.094 -1.336,-0.076 -1.484,-0.084 -0.002,-1.712 0,-1.718 0,-1.724 -0.002,-1.73 0,-1.738 0,-1.744 -0.002,-1.75 0,-1.756 0,-1.762 0,-1.77 -0.002,-1.776 0,-1.784 0,-1.792 -0.002,-1.798 0,-1.804 0,-1.812 0.7,-0.224 0.884,-0.286 0.848,-0.272 1.01,-0.326 1.138,-0.368 0.972,-0.314 1.16,-0.374 0.884,-0.286 0.83,-0.268 1.062,-0.32 1.652,-0.496 0.922,-0.278 0.932,-0.28 0.888,-0.268 0.594,-0.1 0.638,0.382 0.776,0.524 0.776,0.524 0.776,0.524 0.776,0.524 0.776,0.522 0.776,0.522 0.776,0.522 0.776,0.52 0.776,0.52 0.776,0.52 0.776,0.518 0.776,0.518 0.776,0.518 0.776,0.516 0.776,0.516 0.776,0.516 0.72,0.48 0.324,0.356 0.178,0.784 0.358,0.622 0.622,0.672 0.636,0.688 0.792,0.906 0.548,0.628 0.558,0.64 0.924,1.054 0.576,0.656 0.458,0.022 0.93,-0.156 1.244,-0.208 0.982,-0.166 1.188,-0.2 1.132,-0.19 0.892,-0.152 1.336,0.114 1.318,0.114 0.946,0.082 0.926,0.08 1.098,0.094 0.614,0.052 0.704,0.06 0.296,-0.158 0.606,-0.324 0.572,-0.304 0.594,-0.318 0.526,-0.16 0.548,0.506 0.458,0.584 0.482,0.614 0.558,0.59 0.542,0.35 0.726,0.474 0.418,0.808 0.558,1.078 0.368,0.708 0.378,0.726 0.55,-0.286 0.586,-0.306 0.532,-0.278 -0.064,0.898 -0.056,0.814 -0.09,1.23 -0.072,1.004 -0.192,1.196 -0.014,0.91 -0.012,0.798 -0.008,0.632 1.03,0.028 0.762,0.02 0.954,0.026 0.092,0.792 0.128,1.112 0.194,1.004 0.164,0.842 0.244,1.086 0.132,0.58 0.228,0.682 0.226,0.164 0.362,0.108 1.26,-0.082 1.044,-0.068 0.824,-0.052 0.876,-0.056 1.162,-0.076 0.394,0.174 0.34,-0.122 0.392,-0.122 0.312,0.494 0.158,0.25 0.222,0.26 0.3,0.242 -0.126,0.506 -0.186,0.738 -0.052,0.378 0.362,0.408 0.27,0.238 0.738,0.484 0.694,0.27 0.452,0.08 0.432,-0.104 0.158,-0.274 -0.04,-0.378 -0.208,-0.398 0.016,-0.474 0.138,-0.346 0.442,-0.63 0.418,-0.596 0.64,-0.608 0.762,-0.602 0.316,-0.44 0.122,-0.766 0.498,-0.434 0.538,-0.26 0.668,-0.226 0.184,-0.384 0.922,-0.652 0.552,-0.322 0.698,-0.188 0.964,-0.424 0.762,-0.5 0.73,-0.942 0.58,-0.618 0.488,-0.38 0.41,-0.014 0.288,0.308 0.248,0.026 0.162,-0.14 0.276,-0.396 0.296,-0.462 0.278,-0.192 0.538,-0.098 0.498,-0.306 z m -1.652,9.812 -0.02,-0.18 -0.174,-0.302 -0.26,-0.17 -0.124,0.074 0.106,0.246 0.302,0.35 0.17,-0.018 z m 3.108,7.666 -0.282,0.066 -0.516,-0.01 -0.294,-0.076 0.18,-0.592 0.006,-0.118 -0.022,-0.016 -0.148,-0.08 -0.224,-0.242 -0.078,-0.358 0.088,-0.332 0.164,-0.138 0.104,0.024 0.316,0.506 0.282,0.148 0.55,0.084 -0.278,0.5 0.206,0.534 -0.054,0.1 z m 3.218,-0.42 -0.15,0.314 -0.264,-0.076 -0.208,-0.208 0.068,-0.164 0.31,-0.09 0.162,-0.09 0.136,-0.016 -0.054,0.33 z" title="Uzbekistan" id="UZ"></path></svg>