<svg xmlns="http://www.w3.org/2000/svg" width="76.01" height="64.58"><path d="m 74.96,20.58 1.042,1.372 0.016,0.152 -0.114,0.172 -0.65,0.322 -0.146,0.166 -0.234,0.61 -0.818,0.334 -0.566,0.42 -0.38,0.368 -0.19,0.148 -0.748,0.082 -0.24,0.232 -0.302,0.696 -0.22,0.292 -0.388,0.342 -0.002,0.208 0.536,0.76 0.096,0.24 -0.166,0.362 0.016,0.256 0.282,0.308 0.336,0.07 0.328,-0.128 0.408,0.012 0.266,0.082 0.11,0.09 0.018,0.236 -0.168,0.5 -0.242,0.324 -1.072,0.496 -0.476,0.288 -0.264,0.212 -0.578,-0.114 -0.294,0.008 -0.226,0.164 -0.138,0.14 -0.388,0.036 -0.548,0.084 -0.23,0.094 -0.178,0.246 -0.148,0.35 0.124,0.42 0.172,0.376 -0.008,0.344 0.132,0.958 -0.172,0.224 -0.368,0.252 -0.438,0.448 -0.492,0.622 0.078,0.178 1.176,1.304 1.196,1.326 1.19,1.318 0.168,0.058 0.224,0.152 0.208,0.46 0.17,0.49 0.004,0.252 -0.134,0.318 -0.29,0.366 -0.352,0.296 -0.514,0.252 -0.41,0.238 -0.338,0.626 -0.206,0.22 -0.188,0.088 -0.372,0.082 -0.6,-0.02 -0.396,-0.048 -0.492,0.468 -0.626,0.172 -0.42,0.64 -1.496,0.508 -1.464,0.394 -0.402,0.156 -1.446,-0.326 -0.348,0.102 -0.4,0.304 -0.37,0.234 -0.312,0.014 -0.262,0.122 -0.156,0.434 -0.138,1.494 -0.52,0.444 -0.626,-0.002 -0.43,-0.518 -0.51,-0.39 -0.89,-0.926 -0.248,-0.122 -0.23,0.006 -0.826,0.276 -0.392,-0.12 -0.316,-0.144 -0.528,0.046 -0.94,0.01 -0.6,0.008 -0.292,-0.252 -0.272,-0.518 -0.182,-0.186 -0.214,-0.15 -0.354,-0.076 -1.514,0.002 -0.286,0 -0.208,-0.1 -0.292,-0.444 -0.318,-0.208 -0.374,-0.008 -0.164,0.246 0.648,0.798 0.188,0.434 0.568,0.626 1.642,1.326 0.304,0.42 -0.034,0.538 -0.01,0.822 0.056,0.778 0.422,1.116 0.592,1.134 0.162,0.724 -0.11,0.534 -0.114,0.286 0.012,0.126 0.122,0.114 0.566,0.164 1.188,0.102 0.718,0 1.096,0.124 0.082,0.398 -0.108,0.658 -0.216,0.374 -0.176,0.108 -0.596,0.086 -0.628,0.404 -0.912,0.398 -0.52,0.054 -0.216,0.078 -0.184,0.12 -0.152,0.152 -0.176,0.748 -0.268,0.844 -0.506,0.5 -0.556,0.414 -0.566,0.046 -0.454,-0.034 -0.226,0.122 -0.326,0.34 -0.466,0.424 -0.36,0.226 -0.484,-0.022 -0.518,0.208 -0.654,0.342 -0.434,0.28 -0.37,0.48 -0.53,0.502 -0.544,0.354 -0.26,0.436 -0.372,0.552 -0.464,0.018 -0.038,-0.332 0.222,-0.534 -0.242,-0.46 -0.442,-0.248 -0.208,-0.074 -0.206,0.03 -0.524,0.228 -0.642,0.414 -0.396,0.298 -0.358,0.136 -0.736,0.124 -0.62,0.064 -0.256,-0.084 -0.46,-0.304 -1.066,-0.952 -1.442,-1.288 -0.11,-0.374 0.062,-0.38 -0.262,-0.556 -0.154,-0.592 -0.13,-0.204 -0.038,-0.444 -0.312,-0.798 -0.256,-0.654 -0.236,-0.332 0.1,-0.284 -0.1,-0.282 -0.19,-0.23 -0.28,-0.742 0.098,-0.32 -0.074,-0.32 -0.236,-0.22 -0.334,-0.236 -0.446,-0.492 -0.532,-0.468 -0.272,-0.184 -0.186,-0.074 -0.162,-0.444 -0.124,-0.136 -0.272,-0.036 -0.558,-0.186 -0.52,0.222 -0.012,-0.344 0.148,-0.208 1.796,-1.644 0.904,-0.756 0.098,-0.112 0.08,-0.174 0.062,-0.234 -0.206,-0.268 -0.848,-1.27 -0.294,-0.24 -0.29,-0.196 -0.332,-0.534 -0.398,-1.242 -0.286,-0.624 -0.086,-0.48 0.018,-0.542 -0.106,-0.416 -0.23,-0.29 0,-0.886 0.23,-1.484 0.056,-1.128 -0.116,-0.772 0.206,-0.588 0.526,-0.404 0.294,-0.624 0.062,-0.844 0.316,-0.694 0.568,-0.542 0.194,-0.536 -0.18,-0.53 -0.058,-0.338 -0.482,-0.344 -0.894,-0.242 -0.74,-0.028 -0.448,0.27 -1.146,0.25 -1.844,0.23 -1.486,0 -1.126,-0.232 -0.856,0.078 -0.588,0.388 -0.414,0.088 -0.24,-0.212 -0.26,-0.058 -0.394,0.134 -0.068,-0.062 -0.874,-1.046 -0.808,-0.97 -0.928,-1.156 -1.07,-1.334 -0.192,-0.088 -0.332,0.008 -0.438,0.024 -0.68,-0.138 -0.466,-0.194 -0.364,-0.188 -0.672,-0.238 -0.46,-0.042 -0.414,0.07 -1.138,0.466 -0.646,0.044 -0.5,0.008 -1.344,-0.23 -0.918,-0.038 -1.068,0.152 -0.458,0.086 -0.64,-0.238 -0.436,-0.362 -0.406,-0.86 -0.286,-0.676 -0.498,-0.136 -0.552,-0.116 -0.272,-0.224 -0.164,-0.39 -0.04,-0.5 0.056,-0.814 0.052,-0.292 0.076,-0.878 0.304,-0.46 0.192,-0.222 -0.038,-0.37 -0.146,-0.756 -0.148,-0.536 -0.612,-0.606 -0.784,-0.778 -0.338,-1.246 -0.398,-1.472 -0.312,-0.148 -0.294,0.074 -0.312,-0.074 -0.276,-0.592 -0.276,-0.112 -0.44,0.208 -0.318,0.162 -0.806,0.148 -0.166,-0.148 0.056,-0.184 0.34,-0.538 0.4,-0.688 0.466,-0.626 0.432,-0.642 0.324,-0.684 0.22,-1.362 0.152,-0.94 0.4,-1.676 0.73,-1.338 0.276,-0.616 0.662,-0.802 0.304,-0.436 0.404,-0.344 1.11,-0.466 1.326,-2.306 0.304,-0.368 1.34,-0.344 1.03,-0.268 0.762,-0.282 0.25,-0.15 0.202,-0.07 -0.166,0.268 -0.366,0.34 -0.414,0.208 -2.134,0.522 -0.218,0.11 -0.278,0.216 -0.002,0.496 0.058,0.388 0.628,1.276 0.246,0.314 0.84,0.69 -0.192,0.096 -0.31,0.012 0.226,0.904 0.516,0.62 0.024,0.39 -0.396,1.212 -0.722,0.724 -0.512,0.842 -0.398,0.334 -0.882,1.656 0.67,0.986 0.096,0.5 0.58,0.71 0.378,0.232 0.252,0.288 -0.116,0.484 0.232,0.656 0.3,0.346 0.376,0.138 0.466,0 1.338,-0.438 0.318,-0.196 0.204,-0.35 0.67,-0.71 0.042,-0.918 0.144,-1.104 -0.164,-0.72 -0.704,-1.028 -0.308,-0.73 -0.698,-0.68 -0.428,-1.166 -0.176,-0.364 -0.132,-0.502 -0.15,-0.89 0.468,-0.324 -0.048,-0.73 1.152,-0.202 2.492,-1.188 1.542,-0.3 1.756,-0.634 0.408,-0.314 0.352,-0.522 0.274,-0.06 0.916,0.49 0.452,-0.17 0.178,-0.382 -0.25,-0.744 -0.526,0 -1.582,0.27 -0.154,-0.32 0,-0.282 -0.374,-0.888 0.232,-0.668 0.238,-0.542 0.454,-0.218 0.664,-0.236 0.502,0.362 0.304,0.344 0.166,0.334 0.114,0.906 0.27,0.916 0.284,0.636 0.452,0.48 0.346,-0.032 0.248,-0.08 1.646,-0.108 1,0.328 1.272,0.166 1.188,0.696 1.222,0.844 0.312,0.616 0.102,0.588 0.296,0.394 -0.294,0.406 0.16,0.676 0.35,0.682 0.528,0.434 1.506,0.118 1.628,-0.292 2.516,-0.266 0.81,-0.228 4.164,-0.124 0.794,0.328 0.078,0.326 0.008,0.25 1.34,1.22 1.1,0.166 0.934,0.39 0.966,0.21 1.056,0.296 0.594,-0.038 0.446,-0.104 0.524,-0.018 3.716,-2.04 1.992,0.052 0.306,-0.132 0.264,-0.178 -0.734,-0.31 -1.658,-0.12 -0.502,0.208 -0.284,-0.526 0.54,0.014 1.844,-0.176 2.114,0.116 1.722,-0.374 0.866,-0.062 0.5,0.074 1.372,-0.242 2.582,0.286 2.036,-0.236 -0.236,0.338 -0.668,0.206 -1.082,0.064 -0.826,0.494 -1.76,-0.09 -1.236,0.178 0.396,0.138 0,0.506 0.168,0.102 0.178,0.004 0.42,0.376 0.114,0.246 0.136,0.516 -0.186,0.558 -0.256,0.25 0.502,-0.084 0.284,-0.262 -0.042,-0.264 0.042,-0.306 0.282,0.096 0.198,0.138 0.642,1.46 0.452,0.766 0.116,-0.028 0.108,-0.028 0.134,-0.146 0.2,-0.36 0.172,0.228 0.104,0.088 0.104,0.028 -0.096,-0.326 0.128,-0.418 -0.044,-0.146 0.2,-0.032 0.24,0.056 0.34,0.116 0.606,0.48 0.4,0.498 0.034,0.278 0.146,0.156 0.262,0.164 0.128,0.256 0.024,-0.404 -0.154,-0.294 -0.038,-0.336 0.788,-0.014 0.206,-0.442 0.43,0.266 1.14,1.214 0.42,0.2 1.242,0.232 0.782,0.584 0.458,0.524 -0.272,0.548 -0.73,0.274 -0.292,0.342 -0.168,0.336 -0.002,0.338 -0.222,0.392 -0.032,0.138 -0.132,0.552 -0.3,0.666 -0.4,0.706 -2.084,0.016 0.514,0.29 0.474,0.21 0.778,0.554 0.618,-0.436 0.886,-0.032 0.958,-0.484 0.362,-0.076 1.792,0.252 0.432,-0.354 0.36,-0.104 0.97,0.066 0.862,0.39 z m -21.508,-14.614 0.18,0.742 -0.054,0.14 -0.508,0.5 -0.426,0.036 -0.344,-0.018 -0.26,-0.096 -0.334,-0.326 -0.326,0.098 -0.806,-0.114 -0.224,-0.114 0.302,-0.4 0.554,-0.162 0.204,-0.034 0.162,0.246 0.404,0.212 0.474,0.022 0.118,-0.378 0.642,-0.562 0.242,0.208 z m -7.65,1.276 -0.302,0.128 -0.554,-0.128 -0.278,-0.178 0.176,-0.204 0.454,0 0.426,0.248 0.078,0.134 z m 24.648,10.012 -0.674,0.186 0.01,-0.15 0.18,-0.262 0.35,-0.074 0.132,-0.09 0.222,-0.06 0.128,0.01 0.128,0.074 -0.306,0.148 -0.17,0.218 z m -0.992,1.532 -0.348,0.114 -0.052,-0.566 0.106,-0.152 0.592,-0.456 0.164,-0.086 0.12,0.096 -0.03,0.122 0.286,0.206 -0.07,0.26 -0.308,0.284 -0.46,0.178 z" title="Venezuela" id="VE"></path></svg>