<svg xmlns="http://www.w3.org/2000/svg" width="41.07" height="85.94"><path d="m 32.8,11.1 -0.264,0.054 -0.654,0.01 -0.572,0.546 -0.394,0.228 -0.618,0.19 -0.656,0.308 -0.19,0.542 -0.018,0.392 -0.106,0.438 -1.064,0.636 -0.296,-0.066 -0.206,-0.236 -0.314,0.048 -0.212,0.118 -0.252,-0.016 -0.282,0.144 -0.37,-0.044 -0.34,-0.202 -0.196,-0.052 -0.234,-0.002 -0.044,0.238 0.348,0.922 0.09,0.424 -1.138,1.244 0.126,0.8 -0.308,0.614 -0.688,0.494 -1.29,1.272 -0.582,0.028 -0.438,0.288 -0.956,2.084 -0.01,0.714 -0.15,0.522 0.032,0.5 -0.418,0.984 -0.436,0.416 -0.096,0.536 0.618,1.102 0.07,0.194 0.36,0.592 0.174,0.422 0.276,0.422 0.994,1.094 0.444,0.334 0.534,0.226 0.968,0.984 0.488,0.626 -0.222,0.426 0.11,0.902 -0.69,-0.266 0.08,0.106 0.822,0.494 1.228,1.728 1.07,0.852 1.086,0.968 0.34,0.918 0.98,0.608 1.09,0.88 -0.046,0.198 0.294,0.236 0.732,0.466 0.446,0.494 0.172,0.468 0.27,0.076 0.306,-0.116 0.304,-0.044 0.216,0.036 0.328,0.514 0.458,0.458 0.22,0.422 0.18,-0.056 0.148,0.064 0.038,0.352 0.066,0.232 0.614,0.676 0.292,0.636 0.732,1.032 0.542,0.586 0.384,0.33 0.442,0.282 0.432,1.142 0.234,1.036 0.462,1.146 0.35,0.5 0.012,0.942 0.284,0.97 0.302,0.654 0.09,0.668 0.094,0.332 0.116,0.25 0.33,1.13 -0.086,0.526 -0.23,-0.514 0.03,1.516 0.202,0.802 -0.09,0.982 0.21,0.344 0.376,1.11 0.266,0.398 -0.024,1.354 0.14,0.684 -0.356,-0.408 -0.258,-0.464 -0.346,0.246 -0.31,0.362 0.482,1.456 -0.548,-0.138 0.048,1.956 0.228,0.456 0.016,0.218 -0.066,0.26 -0.152,-0.286 -0.032,-0.294 -0.086,0.066 0.004,0.152 -0.184,0.344 -0.054,0.426 0.198,0.364 0.034,0.276 -0.142,0.342 -0.228,0.362 -0.522,0.048 -0.12,0.708 -0.178,0.75 -0.932,0.12 -0.676,0.662 -0.836,0.246 -0.746,0.654 -0.822,0.606 -0.536,0.08 -0.458,0.13 -0.526,1.004 -0.876,0.116 -1.574,0.82 -0.53,0.396 -0.482,0.154 -0.69,0.342 -0.148,-0.122 -0.23,-0.294 -0.596,-0.152 -0.292,-0.33 -0.084,-0.424 -0.078,-0.166 -0.128,0.24 -0.1,1.008 -0.106,0.228 -0.254,0.1 -0.502,-0.286 -0.478,-0.582 -0.682,0.402 0.208,0.048 0.31,-0.032 0.24,0.1 0.204,0.388 -0.008,0.21 -0.106,0.246 -0.638,0.04 -0.852,-0.086 -0.156,0.032 0.778,0.378 0.71,0.218 0.314,0.238 0,0.198 -0.398,0.318 -0.308,0.39 -0.006,0.242 -0.006,0.27 -0.346,0.232 -0.214,-0.046 -0.608,-0.406 -1.754,-1.598 0.264,0.452 1.818,1.816 0.32,0.598 0.044,0.422 -0.188,0.212 -0.308,0.25 -0.596,0.018 -0.976,-0.674 -1.562,-1.62 -0.532,-0.22 1.58,1.852 0.26,0.45 0.266,0.518 -0.076,0.308 -0.136,0.29 -3.744,1.714 -0.56,0.738 -0.444,0.91 -0.736,0.506 -0.432,0.462 -1.248,0.26 -0.682,-0.082 0.708,-0.84 -0.438,-0.312 -0.022,-2.166 0.172,-2.378 0.326,-1.188 0.47,-0.296 0.592,-0.182 0.014,-0.25 -0.058,-0.286 -0.318,-0.406 -0.348,-0.188 -0.52,-0.082 -0.4,-0.498 -0.304,0.02 -0.472,0.166 -0.286,-0.214 -0.106,-0.334 -0.438,-0.416 -0.504,-0.404 0.228,-0.064 0.264,-0.232 0.284,-0.298 0.704,-0.042 0.706,0.014 0.198,-0.078 0.286,-0.316 0.462,-0.406 0.352,-0.226 0.084,-0.182 -0.14,-0.428 -0.078,-0.44 0.13,-0.138 0.638,0.078 0.702,0.206 0.17,0.092 0.402,-0.54 0.11,-0.066 0.264,0.002 0.696,-0.1 0.68,-0.142 0.322,0.024 0.312,0.362 0.238,0.356 0.124,0.028 0.354,-0.152 0.292,0.19 0.612,0.31 0.366,0.014 -0.182,-0.722 0.204,-0.514 -0.04,-0.14 -0.344,-0.236 -1.168,-0.944 -0.2,-0.282 0.028,-0.444 -0.04,-0.652 -0.104,-0.41 0.018,-0.24 0.072,-0.192 0.214,-0.076 0.208,-0.026 0.166,-0.168 0.28,-0.43 0.544,0.038 0.764,0.244 0.564,0.152 0.334,-0.03 0.074,-0.062 -0.01,-0.232 0.04,-0.988 -0.022,-0.21 0.482,-0.096 0.736,-0.022 0.388,-0.058 0.362,-0.416 0.932,-0.144 0.674,-0.562 0.608,-0.578 0.298,-0.154 0.378,-0.1 0.284,0.014 0.356,0.334 0.294,-0.202 0.34,-0.392 0.178,-0.384 0.098,-0.618 -0.066,-0.948 -0.18,-0.742 -0.17,-0.556 -0.034,-0.556 0.392,-1.118 0.338,-1.218 -0.064,-0.48 -0.368,-0.76 -0.374,-0.926 -0.408,-1.02 -0.154,-0.152 -0.11,-0.284 -0.062,-0.332 0.162,-1.042 0.024,-0.35 0.47,-0.476 0.252,-0.544 0.236,-0.602 -0.09,-0.318 -0.032,-0.648 0.06,-0.314 -0.112,-0.254 -0.136,-0.37 0.09,-0.24 0.33,-0.206 0.194,-0.354 0.248,-0.414 0.11,-0.378 -0.178,-0.316 -0.322,-0.474 -0.588,-0.428 -0.678,-0.548 -0.332,-0.338 -0.264,-0.344 -0.242,-0.4 -0.132,-0.32 0.128,-0.21 0.964,-0.482 0.176,-0.174 0.102,-0.268 -0.076,-0.262 -0.26,-0.142 -0.302,-0.096 -0.444,-0.304 -0.828,-0.834 -0.38,-0.186 -0.4,-0.24 -0.212,-0.252 -0.232,-0.692 -0.106,-0.062 -0.23,0.21 -0.292,0.218 -0.244,-0.038 -0.222,-0.196 -0.106,-0.264 -0.246,-0.362 -0.268,-0.294 -0.07,-0.992 -0.042,-0.324 -0.132,-0.452 -0.208,-0.162 -0.22,-0.12 -0.52,-0.824 -0.36,-0.426 -1.476,-1.16 -0.184,-0.186 -0.398,-0.478 -0.692,-0.678 -0.494,-0.546 -0.36,-0.566 -0.168,-0.492 -0.05,-0.384 -0.392,-0.55 -0.338,-0.452 -0.328,-0.146 -0.374,-0.062 -0.338,-0.268 -0.618,-0.608 -0.274,-0.39 -0.162,-0.264 0.008,-0.272 0.148,-0.452 0.18,-0.258 0.006,-0.202 -0.176,-0.164 -0.686,-0.292 -1.552,-0.442 -0.58,-0.338 -0.536,-0.432 -0.404,-0.294 -1.892,-1.25 -0.574,-0.208 -0.492,-0.222 -0.15,-0.216 0.026,-0.208 0.202,-0.154 0.536,-0.322 0.2,-0.368 -0.064,-0.482 -0.212,-0.488 0.104,-0.168 0.174,-0.02 0.36,-0.014 0.746,-0.028 1.608,0.444 0.232,-0.048 0.874,-0.806 0.328,-0.482 0.076,-0.402 0.172,-0.256 0.46,-0.42 0.006,-0.384 -0.226,-0.514 -0.23,-0.198 -0.198,-0.086 -0.638,0.068 -0.124,-0.116 -0.084,-0.382 -0.03,-0.234 -0.21,-0.274 -0.69,-0.234 -0.584,-0.066 -0.136,-0.098 0.224,-0.264 0.398,-0.26 0.302,-0.152 0.238,-0.27 0.044,-0.276 -0.296,-0.246 -0.386,-0.274 -0.626,-0.522 -0.868,-0.554 -0.528,-0.19 -0.276,0.026 -0.956,0.476 -0.514,0.31 -0.428,0.552 -0.446,0.118 -0.452,-0.244 -0.512,-0.25 -1.418,-0.364 -0.598,-0.304 -1.238,-1.86 -0.182,-0.378 0.118,-0.428 0.086,-0.614 0.124,-0.398 0.218,-0.38 0.06,-0.338 -0.054,-0.332 -0.178,-0.19 -0.234,-0.056 -0.174,-0.076 -0.164,-0.436 -0.1,0.056 -0.152,0.53 -0.182,0.19 -0.242,0.094 -0.188,-0.084 -0.12,-0.212 -0.052,-0.36 -0.124,-0.484 -0.152,-0.316 -0.534,-0.322 -0.252,-0.418 -0.792,-0.91 -0.664,-0.638 -0.31,-0.574 0.272,-0.214 0.342,-0.31 0.368,-0.484 0.412,-0.608 0.172,-0.372 0.122,-0.15 0.242,-0.11 0.26,0.06 0.456,0.246 0.688,0.314 0.614,0.372 0.248,0.374 0.342,0.358 0.262,0.108 0.132,-0.028 0.394,-0.27 0.34,-0.27 0.008,-0.306 0.312,-0.276 0.408,-0.454 0.194,-0.308 0.146,-0.032 0.166,0.09 0.644,0.952 0.124,0.058 0.182,-0.142 0.254,-0.744 0.28,-0.288 0.096,0.072 1.558,1.402 0.148,-0.01 0.168,-0.062 0.11,-0.216 0.122,-0.486 0.232,-0.52 0.5,-0.29 0.39,-0.056 0.144,0.248 0.338,0.342 0.41,0.048 0.872,-0.606 0.286,-0.096 0.304,0.01 0.31,-0.024 0.296,-0.232 0.312,-0.306 0.106,-0.604 0.066,-0.542 0.214,-0.22 0.256,-0.146 0.48,-0.206 1.084,-0.526 0.28,-0.25 0.206,-0.14 0.422,0.228 0.504,0.44 0.304,0.332 0.204,0.358 0.098,0.298 0.802,0.26 0.512,0.368 0.34,0.282 0.336,-0.012 0.336,-0.076 0.216,-0.226 0.378,-0.004 0.448,0.034 0.2,0.09 0.37,0.52 0.166,0.072 0.33,-0.036 0.634,-0.184 0.51,-0.088 0.46,0.208 0.876,0.578 -0.246,0.412 -0.196,0.444 -0.384,0.312 -0.284,0.078 -0.18,0.434 -0.08,0.64 0.098,0.326 0.22,0.104 0.244,0.216 0.1,0.286 0.034,0.632 -0.014,0.712 0.034,0.236 0.19,-0.044 0.18,-0.084 0.364,0.11 0.452,0.186 0.286,0.188 0.256,-0.024 0.2,0.184 0.074,0.352 0.236,0.246 0.656,0.462 0.526,0.04 0.444,0.61 0.46,-0.2 0.212,0.264 0.954,-0.092 0.664,-0.248 0.238,0.058 0.598,0.508 0.352,0.308 z m -2.076,1.744 -0.808,0.75 -0.31,-0.012 0.276,-0.848 0.132,-0.202 0.486,0.292 0.224,0.02 z m -0.458,1.736 -0.314,0.156 -0.372,-0.018 0.446,-0.292 0.226,-0.362 0.182,-0.126 -0.002,0.316 -0.166,0.326 z m -3.682,0.662 -0.064,0.116 -0.286,-0.282 -0.19,-0.122 0.144,-0.38 0.336,0.416 0.06,0.252 z m 0.932,0.41 -0.232,0.024 -0.446,-0.484 0.24,-0.256 0.506,0.18 0.118,0.118 -0.004,0.104 -0.122,0.23 -0.06,0.084 z m 0.764,60.028 -0.47,0.342 -0.032,-0.288 0.408,-0.186 0.144,-0.146 0.104,0.002 -0.154,0.276 z m -17.42,0.036 0.106,0.282 -0.04,0.66 -0.218,0.646 0.064,0.282 -0.168,0.18 -0.374,-1.21 -0.47,-0.524 -0.104,-0.202 0.274,0.014 0.49,-0.332 0.236,-0.008 0.204,0.212 z m 14.332,9.658 -0.158,0.012 -0.12,-0.116 0.508,-0.37 -0.05,0.246 0.018,0.124 -0.198,0.104 z" title="Vietnam" id="VN"></path></svg>