<svg xmlns="http://www.w3.org/2000/svg" width="18.92" height="38.13"><path d="m 5.4,1.14 -0.082,0.056 -0.13,-0.044 -0.332,-0.696 0.084,-0.232 0.418,-0.222 0.372,0.386 0.036,0.214 -0.004,0.182 -0.056,0.158 -0.248,0.066 -0.058,0.132 z m 0.538,2.034 -0.234,0.292 -0.632,-0.096 -0.15,-0.078 0.042,-0.484 0.158,-0.166 0.378,-0.15 0.518,0.238 -0.08,0.444 z m -4.708,3.262 0.362,1.91 0.42,-0.004 0.214,-0.102 0.248,-0.448 0.112,-0.702 0.218,-0.1 0.276,0.076 -0.12,0.224 0.08,0.562 0.212,0.312 0.14,0.056 0.284,1.47 0.106,0.308 -0.006,0.248 -0.594,0.55 -0.882,-0.016 -0.622,0.33 -0.378,-0.022 0.002,-0.372 -0.336,-0.296 -0.38,-0.634 0.094,-1.126 -0.678,-2.086 -0.006,-0.522 0.232,-0.68 0.226,-0.032 0.308,0.568 0.468,0.528 z m 8.102,2.898 -0.098,0.358 -0.232,-0.416 -0.148,-1.748 0.06,-0.162 0.122,-0.012 0.284,1.216 0.012,0.764 z m -1.562,0.62 -0.376,0.266 -0.696,-0.026 -0.258,-0.15 0.854,-0.808 0.988,-0.166 -0.512,0.884 z m 1.694,3.098 -0.094,0.006 -0.096,-0.266 -0.316,-1.42 0.208,-1.268 0.13,0.268 0.474,2.226 -0.064,0.364 -0.242,0.09 z m -5.58,-1.428 -0.102,0.15 -0.596,-0.376 0.136,-0.362 0.648,0.13 -0.086,0.458 z m 1.088,2.156 0.258,0.126 0.14,0 0.084,0.282 0.804,0.564 0.22,-0.016 0.186,0.308 0.346,0.156 0.094,0.314 0.246,0.32 -0.43,0.388 -0.834,-0.104 -0.476,0.44 -0.432,-0.112 -0.076,-0.232 0.06,-0.078 -0.258,-0.59 -0.116,-0.9 -0.174,-0.53 -0.19,-0.226 -0.388,0.198 -0.158,0.034 -0.376,-0.434 0.178,-0.882 0.094,-0.252 0.302,-0.048 0.46,0.232 0.436,1.042 z m 4.962,1.398 -0.642,0.06 -0.902,-0.182 -0.364,-0.252 -0.156,-0.252 0.312,-0.188 0.448,-0.088 0.558,-0.578 0.194,0.22 0.208,0.648 0.224,0.196 0.126,0.196 -0.006,0.22 z m 0.842,2.574 0.168,0.086 -0.094,0.242 -0.77,-0.276 -0.622,0.108 -0.174,-0.012 -0.184,-0.222 -0.136,-0.442 0.062,-0.308 0.26,-0.216 0.098,-0.034 0.196,0.266 0.178,0.182 0.172,0.078 0.392,0.434 0.454,0.114 z m -0.006,4.458 0.558,0.834 0.222,0.066 -0.338,0.598 -0.704,0.052 -0.83,-0.154 0.304,-0.206 -0.158,-0.232 -0.25,-0.046 -0.288,0.11 -0.132,-0.038 0.184,-0.384 0.46,-0.542 0.136,-0.042 0.124,-0.006 0.122,0.048 0.59,-0.058 z m 4.99,8.212 -0.26,0.286 -0.226,-0.032 -1.464,-0.66 0.062,-0.272 -0.06,-0.694 0.16,-0.376 0.404,-0.154 0.314,0.08 0.192,0.554 0.438,0.226 -0.306,0.19 0.534,0.418 0.212,0.434 z m 0.88,3.546 -0.296,0.644 -0.512,-0.15 -0.478,-0.466 -0.25,-0.406 0.168,-0.778 0.244,-0.136 0.256,0.044 0.13,0.76 0.738,0.488 z m 2.274,3.834 -0.198,0.328 -0.304,-0.004 -0.39,-0.232 0.074,-0.29 0.444,-0.052 0.128,0.02 0.246,0.23 z" title="Vanuatu" id="VU"></path></svg>