<svg xmlns="http://www.w3.org/2000/svg" width="9.67" height="10.69"><path d="m 8.6,7.72 -0.008,0 -0.962,0.21 -0.324,0.246 -0.192,0.432 -0.062,0.222 -0.17,0.008 -0.282,-0.222 -0.356,-0.348 -0.466,0.028 -1.58,0.756 -0.156,0.396 -0.034,0.858 -0.108,0.232 -0.17,0.148 -0.652,-0.094 -0.07,-0.056 0.086,-0.328 -0.034,-0.72 -0.296,-1.194 -0.208,-0.39 -0.434,-0.39 -0.336,-0.256 -0.606,-0.228 -0.306,-0.66 -0.462,-0.748 -0.222,-0.172 0.036,-0.074 0.106,-0.566 -0.132,-0.412 -0.204,-0.352 0.138,-0.214 0.426,0.002 0.352,0.04 0.126,-0.338 0.726,-0.22 0.698,-0.23 0.102,-0.16 -0.16,-0.348 0.094,-0.218 0.836,-0.62 0.136,-0.282 0.052,-0.22 -0.112,-0.236 -0.158,-0.366 0.076,-0.156 0.434,-0.212 0.354,-0.248 0.208,-0.02 0.13,0.178 0,0.184 0.116,0.31 0.26,0.168 0.432,0.274 0.502,0.186 0.392,0.372 0.538,0.664 0.08,0.328 0.484,0.294 0.448,0.33 -0.07,0.61 1.526,0.532 0.344,-0.004 0.164,0.094 -0.004,0.138 -0.12,0.426 -0.628,1.308 -0.05,0.27 -0.45,0.284 -0.062,0.164 0.128,0.358 z" title="Kosovo" id="XK"></path></svg>