<svg xmlns="http://www.w3.org/2000/svg" width="65.57" height="56.47"><path d="m 61.42,6.84 0.02,0.15 0.154,0.284 0.162,0.204 0.014,0.3 0.076,0.28 0.236,0.068 0.194,0.018 0.18,-0.2 0.244,0.004 0.268,0.128 0.096,0.322 0.21,0.432 0.338,0.296 0.228,0.286 -0.078,0.52 -0.144,0.474 0.46,0.47 0.598,0.446 0.162,0.198 0.048,0.664 0.092,0.224 0.406,0.552 0.198,0.366 -0.014,0.212 -1.09,1.094 -0.346,0.106 -0.328,0.062 -0.292,0.224 -0.176,0.234 0.064,0.124 0.116,0.374 0.254,0.592 0.23,0.414 -0.192,0.518 -0.432,0.88 -0.2,0.078 -0.036,0.666 0.132,0.244 0.216,0.192 0.088,0.452 0.006,0.624 -0.024,0.502 -0.272,1.278 0.492,1.118 0.168,0.122 0.682,0.008 0.116,0.094 -0.162,0.318 -0.296,0.328 -0.182,0.166 -0.868,0.382 -1.246,0.422 -0.26,0.404 -0.166,0.59 0.14,0.346 0.164,0.198 -0.052,0.514 -0.11,0.544 0.038,0.428 -0.056,0.378 -0.164,0.186 -0.218,0.57 -0.268,0.574 -0.212,0.262 -0.312,0.274 -0.494,0.228 0.008,0.116 0.56,0.264 0.144,0.184 0.052,0.126 -0.12,0.12 -0.114,0.17 0.258,0.176 0.316,0.148 0.298,0.382 0.266,0.534 0.076,0.188 0.062,0.074 0.096,0.008 0.186,-0.08 0.342,-0.292 0.25,-0.104 0.302,0.416 -1.206,0.412 -0.632,0.216 -1.802,0.616 -1.574,0.538 -0.41,0.102 -0.816,0.262 -0.406,0.162 -1.422,0.47 -0.594,0.234 -0.478,0.234 -1.174,0.348 -1.11,0.328 -1.212,0.34 -1.356,0.378 -0.762,0.274 -0.514,0.236 -1.202,0.48 -0.056,0.116 0.016,0.326 0.154,0.672 0.3,0.61 0.252,0.352 0.164,0.904 0.092,0.794 -0.816,0.002 -1.436,0.004 -1.49,0.002 -1.36,0.304 -1.118,0.462 -1.334,0.722 -0.434,0.284 -0.336,0.218 -0.212,0.282 -0.104,0.616 0,0.952 -0.136,0.684 -0.404,0.63 0,-0.002 -2.026,0.762 -1.324,0.622 -1.3,0.738 -0.986,0.958 -0.672,1.178 -1.116,1.46 -1.136,1.266 -1.206,1.348 -1.352,0.488 -1.136,-0.11 -1.37,-0.546 -1.088,-0.104 -0.806,0.34 -0.744,-0.106 -0.684,-0.548 -0.572,-0.2 -0.464,0.148 -0.592,-0.026 -1.082,-0.3 -0.936,-0.934 -0.506,-0.384 -0.39,-0.148 -1.12,-0.15 -2.57,-0.214 -0.268,0.048 -1.068,0.184 -1.334,0.23 -1.148,0.23 -1.202,0.24 -1.118,-0.972 -1.266,-1.102 -1.314,-1.23 -0.986,-0.962 -0.488,-0.554 -0.866,-0.732 -0.624,-0.358 -0.242,-0.18 -0.62,-1.944 -0.338,-1.784 0,-1.342 -0.002,-1.858 0,-1.856 0,-1.852 -0.002,-1.85 0,-1.848 0,-1.842 -0.002,-1.842 0,-1.84 0,-0.894 1.294,0 1.468,0 1.534,0 1.668,0 1.668,0 1.668,0 1.164,0 0.306,-0.014 0.368,-0.056 0.026,-0.182 -0.48,-0.902 0.024,-0.32 0.128,-0.612 0.198,-0.528 0.262,-0.694 0.028,-0.408 -0.21,-1.33 0.02,-0.74 0.06,-0.77 0.06,-0.728 -0.072,-0.508 0.088,-0.276 0.158,-0.396 0.082,-0.448 0.098,-0.192 -0.032,-0.178 -0.088,-0.332 -0.088,-0.744 -0.122,-1.034 -0.122,-0.744 0.204,0.042 0.424,0.07 0.206,0.364 0.12,0.4 0.286,0.022 0.744,0.236 0.258,0.33 0.17,0.714 -0.102,0.366 -0.24,0.294 0.24,0.26 0.498,0.174 0.292,-0.052 0.84,-0.486 0.336,-0.086 0.438,-0.096 0.396,-0.124 1.118,-0.222 0.61,-0.098 0.344,-0.174 0.24,0 0.172,0.14 -0.154,0.504 -0.052,0.452 0.214,0.846 0.16,0.394 0.36,0.288 0.262,0.15 0.29,0.306 0.602,-0.052 1.324,0.432 0.402,0.2 0.558,0.2 0.396,0.074 1.366,0.152 0.504,0.102 0.936,0.136 0.748,0.024 0.53,-0.062 0.372,-0.124 0.228,-0.136 0.104,-0.118 0.154,-0.422 0.278,-0.916 0.11,-0.274 0.276,-0.126 0.358,-0.082 0.21,0.146 0.234,1.016 1.042,0.918 0.356,0.772 0.26,0.66 0.226,0.18 0.396,0.226 0.632,0.08 0.564,0.024 1.188,0.476 0.944,0.378 0.676,0.272 0.31,0.206 0.216,0.338 0.128,0.262 0.208,0.68 0.222,0.538 0.362,0.102 0.324,0.042 0.32,0.368 0.242,0.322 0.48,0.788 0.354,0.544 0.116,0.53 0.402,0.354 0.548,0.15 0.506,0.02 0.292,-0.158 0.718,-0.276 0.56,-0.314 0.408,-0.11 0.242,0.068 0.184,0.218 0.098,0.426 0.024,0.238 0.398,0.226 0.294,-0.09 0.114,-0.262 0.006,-0.13 -0.002,-1.16 0,-1.004 -0.002,-0.944 0,-1.15 -0.002,-1.002 0,-0.824 -0.002,-0.86 -0.256,0.048 -0.322,0.196 -0.742,0.024 -0.29,0.146 -0.09,0.222 0.056,0.288 0.016,0.392 -0.11,0.184 -0.324,0.074 -0.472,-0.152 -0.854,-0.196 -0.712,-0.122 -0.512,-0.52 -0.692,-0.784 -0.454,-0.394 -1.092,-0.818 -0.186,-0.164 -0.332,-0.382 -0.284,-0.648 -0.14,-0.43 -0.132,-0.32 -0.146,-0.476 0.264,-0.732 0.37,-1.392 0.268,-1.002 0.148,-0.742 0.53,-0.756 0.038,-0.676 -0.214,-0.866 0.054,-0.478 0.036,-1.214 0.03,-1.02 0.008,-0.496 -0.146,-0.862 -0.358,-0.954 -0.788,-1.328 0.004,-0.284 0.468,-0.314 0.742,-0.548 0.364,-0.326 0.436,-0.462 0.194,-0.236 0.428,-0.592 0.27,-0.482 0.094,-0.622 -0.204,-0.592 0.416,-0.116 1.366,-0.208 1.504,-0.23 1.586,-0.244 1.6,-0.244 1.55,-0.238 1.406,-0.214 0.972,-0.15 0.144,0.406 0.304,0.676 0.342,0.496 0.43,0.436 0.364,0.264 0.242,0.08 1.54,-0.028 0.552,0.264 0.482,0.336 0.12,0.52 0.316,0.326 0.342,0.256 0.148,0.032 0.252,-0.062 0.412,-0.006 0.382,0.112 0.182,0.114 0.018,0.436 0.116,0.194 0.52,0.076 0.53,0.034 0.512,0.296 0.552,0.052 0.64,0.122 0.304,0.318 0.678,0.326 0.832,0.292 0.6,0.33 z" title="Zambia" id="ZM"></path></svg>